<svg version="1.1" viewBox="0.0 0.0 1038.0 232.0" fill="none" stroke="none" stroke-linecap="square" stroke-miterlimit="10" width="1038" height="232" xmlns:xlink="http://www.w3.org/1999/xlink" xmlns="http://www.w3.org/2000/svg"><path fill="#ffffff" d="M0 0L1038.0 0L1038.0 232.0L0 232.0L0 0Z" fill-rule="nonzero"/><path stroke="#333333" stroke-width="1.0" stroke-linecap="butt" d="M75.5 154.5L1026.5 154.5" fill-rule="nonzero"/><path stroke="#cccccc" stroke-width="1.0" stroke-linecap="butt" d="M75.5 120.5L1026.5 120.5" fill-rule="nonzero"/><path stroke="#cccccc" stroke-width="1.0" stroke-linecap="butt" d="M75.5 86.5L1026.5 86.5" fill-rule="nonzero"/><path stroke="#cccccc" stroke-width="1.0" stroke-linecap="butt" d="M75.5 52.5L1026.5 52.5" fill-rule="nonzero"/><path stroke="#cccccc" stroke-width="1.0" stroke-linecap="butt" d="M75.5 18.5L1026.5 18.5" fill-rule="nonzero"/><clipPath id="id_0"><path d="M75.6 18.6L1026.4 18.6L1026.4 154.66667L75.6 154.66667L75.6 18.6Z" clip-rule="nonzero"/></clipPath><path stroke="#ff0000" stroke-width="2.0" stroke-linecap="butt" stroke-dasharray="2.0,3.0" clip-path="url(#id_0)" d="M97.20909 103.64167L140.42728 120.65L183.64546 18.6L226.86363 109.35647L270.08182 136.5698L313.3 18.6L356.5182 100.24L399.73636 18.6L442.95456 144.94762L486.17273 18.6L529.3909 148.26353L572.6091 18.6L615.8273 18.6L659.0455 86.63333L702.2636 86.63333L745.4818 18.6L788.7 63.955547L831.91815 134.50864L875.13635 55.233337L918.35455 94.19259L961.57275 139.54814L1004.7909 18.6" fill-rule="nonzero"/><path stroke="#0000ff" stroke-width="2.0" stroke-linecap="butt" clip-path="url(#id_0)" d="M97.20909 18.6L140.42728 18.6L183.64546 18.6L226.86363 63.955547L270.08182 127.45333L313.3 18.6L356.5182 18.6L399.73636 18.6L442.95456 34.300007L486.17273 18.6L529.3909 146.66275L572.6091 18.6L615.8273 18.6L659.0455 63.955547L702.2636 86.63333L745.4818 18.6L788.7 63.955547L831.91815 134.50864L875.13635 55.233337L918.35455 88.824005L961.57275 44.517456L1004.7909 18.6" fill-rule="nonzero"/><path fill="#000000" fill-opacity="0.0" clip-path="url(#id_0)" d="M100.20909 103.64167C100.20909 105.29852 98.865944 106.64167 97.20909 106.64167C95.55224 106.64167 94.20909 105.29852 94.20909 103.64167C94.20909 101.98481 95.55224 100.64167 97.20909 100.64167C98.865944 100.64167 100.20909 101.98481 100.20909 103.64167Z" fill-rule="nonzero"/><path fill="#000000" fill-opacity="0.0" clip-path="url(#id_0)" d="M143.42728 120.65C143.42728 122.306854 142.08412 123.65 140.42728 123.65C138.77042 123.65 137.42728 122.306854 137.42728 120.65C137.42728 118.99315 138.77042 117.65 140.42728 117.65C142.08412 117.65 143.42728 118.99315 143.42728 120.65Z" fill-rule="nonzero"/><path fill="#000000" fill-opacity="0.0" clip-path="url(#id_0)" d="M186.64546 18.6C186.64546 20.256855 185.3023 21.6 183.64546 21.6C181.9886 21.6 180.64546 20.256855 180.64546 18.6C180.64546 16.943146 181.9886 15.6 183.64546 15.6C185.3023 15.6 186.64546 16.943146 186.64546 18.6Z" fill-rule="nonzero"/><path fill="#000000" fill-opacity="0.0" clip-path="url(#id_0)" d="M229.86363 109.35647C229.86363 111.01332 228.5205 112.35647 226.86363 112.35647C225.20679 112.35647 223.86363 111.01332 223.86363 109.35647C223.86363 107.699615 225.20679 106.35647 226.86363 106.35647C228.5205 106.35647 229.86363 107.699615 229.86363 109.35647Z" fill-rule="nonzero"/><path fill="#000000" fill-opacity="0.0" clip-path="url(#id_0)" d="M273.08182 136.5698C273.08182 138.22665 271.73868 139.5698 270.08182 139.5698C268.42496 139.5698 267.08182 138.22665 267.08182 136.5698C267.08182 134.91295 268.42496 133.5698 270.08182 133.5698C271.73868 133.5698 273.08182 134.91295 273.08182 136.5698Z" fill-rule="nonzero"/><path fill="#000000" fill-opacity="0.0" clip-path="url(#id_0)" d="M316.3 18.6C316.3 20.256855 314.95685 21.6 313.3 21.6C311.64316 21.6 310.3 20.256855 310.3 18.6C310.3 16.943146 311.64316 15.6 313.3 15.6C314.95685 15.6 316.3 16.943146 316.3 18.6Z" fill-rule="nonzero"/><path fill="#000000" fill-opacity="0.0" clip-path="url(#id_0)" d="M359.5182 100.24C359.5182 101.89685 358.17505 103.24 356.5182 103.24C354.86133 103.24 353.5182 101.89685 353.5182 100.24C353.5182 98.583145 354.86133 97.24 356.5182 97.24C358.17505 97.24 359.5182 98.583145 359.5182 100.24Z" fill-rule="nonzero"/><path fill="#000000" fill-opacity="0.0" clip-path="url(#id_0)" d="M402.73636 18.6C402.73636 20.256855 401.39322 21.6 399.73636 21.6C398.0795 21.6 396.73636 20.256855 396.73636 18.6C396.73636 16.943146 398.0795 15.6 399.73636 15.6C401.39322 15.6 402.73636 16.943146 402.73636 18.6Z" fill-rule="nonzero"/><path fill="#000000" fill-opacity="0.0" clip-path="url(#id_0)" d="M445.95456 144.94762C445.95456 146.60448 444.6114 147.94762 442.95456 147.94762C441.2977 147.94762 439.95456 146.60448 439.95456 144.94762C439.95456 143.29076 441.2977 141.94762 442.95456 141.94762C444.6114 141.94762 445.95456 143.29076 445.95456 144.94762Z" fill-rule="nonzero"/><path fill="#000000" fill-opacity="0.0" clip-path="url(#id_0)" d="M489.17273 18.6C489.17273 20.256855 487.8296 21.6 486.17273 21.6C484.51587 21.6 483.17273 20.256855 483.17273 18.6C483.17273 16.943146 484.51587 15.6 486.17273 15.6C487.8296 15.6 489.17273 16.943146 489.17273 18.6Z" fill-rule="nonzero"/><path fill="#000000" fill-opacity="0.0" clip-path="url(#id_0)" d="M532.3909 148.26353C532.3909 149.92038 531.0478 151.26353 529.3909 151.26353C527.7341 151.26353 526.3909 149.92038 526.3909 148.26353C526.3909 146.60667 527.7341 145.26353 529.3909 145.26353C531.0478 145.26353 532.3909 146.60667 532.3909 148.26353Z" fill-rule="nonzero"/><path fill="#000000" fill-opacity="0.0" clip-path="url(#id_0)" d="M575.6091 18.6C575.6091 20.256855 574.2659 21.6 572.6091 21.6C570.9522 21.6 569.6091 20.256855 569.6091 18.6C569.6091 16.943146 570.9522 15.6 572.6091 15.6C574.2659 15.6 575.6091 16.943146 575.6091 18.6Z" fill-rule="nonzero"/><path fill="#000000" fill-opacity="0.0" clip-path="url(#id_0)" d="M618.8273 18.6C618.8273 20.256855 617.48413 21.6 615.8273 21.6C614.1704 21.6 612.8273 20.256855 612.8273 18.6C612.8273 16.943146 614.1704 15.6 615.8273 15.6C617.48413 15.6 618.8273 16.943146 618.8273 18.6Z" fill-rule="nonzero"/><path fill="#000000" fill-opacity="0.0" clip-path="url(#id_0)" d="M662.0455 86.63333C662.0455 88.290184 660.70233 89.63333 659.0455 89.63333C657.3886 89.63333 656.0455 88.290184 656.0455 86.63333C656.0455 84.97648 657.3886 83.63333 659.0455 83.63333C660.70233 83.63333 662.0455 84.97648 662.0455 86.63333Z" fill-rule="nonzero"/><path fill="#000000" fill-opacity="0.0" clip-path="url(#id_0)" d="M705.2636 86.63333C705.2636 88.290184 703.9205 89.63333 702.2636 89.63333C700.6068 89.63333 699.2636 88.290184 699.2636 86.63333C699.2636 84.97648 700.6068 83.63333 702.2636 83.63333C703.9205 83.63333 705.2636 84.97648 705.2636 86.63333Z" fill-rule="nonzero"/><path fill="#000000" fill-opacity="0.0" clip-path="url(#id_0)" d="M748.4818 18.6C748.4818 20.256855 747.1387 21.6 745.4818 21.6C743.82495 21.6 742.4818 20.256855 742.4818 18.6C742.4818 16.943146 743.82495 15.6 745.4818 15.6C747.1387 15.6 748.4818 16.943146 748.4818 18.6Z" fill-rule="nonzero"/><path fill="#000000" fill-opacity="0.0" clip-path="url(#id_0)" d="M791.7 63.955547C791.7 65.612404 790.3569 66.95555 788.7 66.95555C787.04315 66.95555 785.7 65.612404 785.7 63.955547C785.7 62.298695 787.04315 60.955547 788.7 60.955547C790.3569 60.955547 791.7 62.298695 791.7 63.955547Z" fill-rule="nonzero"/><path fill="#000000" fill-opacity="0.0" clip-path="url(#id_0)" d="M834.91815 134.50864C834.91815 136.1655 833.575 137.50864 831.91815 137.50864C830.26135 137.50864 828.91815 136.1655 828.91815 134.50864C828.91815 132.85179 830.26135 131.50864 831.91815 131.50864C833.575 131.50864 834.91815 132.85179 834.91815 134.50864Z" fill-rule="nonzero"/><path fill="#000000" fill-opacity="0.0" clip-path="url(#id_0)" d="M878.13635 55.233337C878.13635 56.89019 876.7932 58.233337 875.13635 58.233337C873.4795 58.233337 872.13635 56.89019 872.13635 55.233337C872.13635 53.576485 873.4795 52.233337 875.13635 52.233337C876.7932 52.233337 878.13635 53.576485 878.13635 55.233337Z" fill-rule="nonzero"/><path fill="#000000" fill-opacity="0.0" clip-path="url(#id_0)" d="M921.35455 94.19259C921.35455 95.84944 920.0114 97.19259 918.35455 97.19259C916.6977 97.19259 915.35455 95.84944 915.35455 94.19259C915.35455 92.535736 916.6977 91.19259 918.35455 91.19259C920.0114 91.19259 921.35455 92.535736 921.35455 94.19259Z" fill-rule="nonzero"/><path fill="#000000" fill-opacity="0.0" clip-path="url(#id_0)" d="M964.57275 139.54814C964.57275 141.205 963.22955 142.54814 961.57275 142.54814C959.9159 142.54814 958.57275 141.205 958.57275 139.54814C958.57275 137.8913 959.9159 136.54814 961.57275 136.54814C963.22955 136.54814 964.57275 137.8913 964.57275 139.54814Z" fill-rule="nonzero"/><path fill="#000000" fill-opacity="0.0" clip-path="url(#id_0)" d="M1007.7909 18.6C1007.7909 20.256855 1006.44775 21.6 1004.7909 21.6C1003.13403 21.6 1001.7909 20.256855 1001.7909 18.6C1001.7909 16.943146 1003.13403 15.6 1004.7909 15.6C1006.44775 15.6 1007.7909 16.943146 1007.7909 18.6Z" fill-rule="nonzero"/><path fill="#000000" fill-opacity="0.0" clip-path="url(#id_0)" d="M100.20909 18.6C100.20909 20.256855 98.865944 21.6 97.20909 21.6C95.55224 21.6 94.20909 20.256855 94.20909 18.6C94.20909 16.943146 95.55224 15.6 97.20909 15.6C98.865944 15.6 100.20909 16.943146 100.20909 18.6Z" fill-rule="nonzero"/><path fill="#000000" fill-opacity="0.0" clip-path="url(#id_0)" d="M143.42728 18.6C143.42728 20.256855 142.08412 21.6 140.42728 21.6C138.77042 21.6 137.42728 20.256855 137.42728 18.6C137.42728 16.943146 138.77042 15.6 140.42728 15.6C142.08412 15.6 143.42728 16.943146 143.42728 18.6Z" fill-rule="nonzero"/><path fill="#000000" fill-opacity="0.0" clip-path="url(#id_0)" d="M186.64546 18.6C186.64546 20.256855 185.3023 21.6 183.64546 21.6C181.9886 21.6 180.64546 20.256855 180.64546 18.6C180.64546 16.943146 181.9886 15.6 183.64546 15.6C185.3023 15.6 186.64546 16.943146 186.64546 18.6Z" fill-rule="nonzero"/><path fill="#000000" fill-opacity="0.0" clip-path="url(#id_0)" d="M229.86363 63.955547C229.86363 65.612404 228.5205 66.95555 226.86363 66.95555C225.20679 66.95555 223.86363 65.612404 223.86363 63.955547C223.86363 62.298695 225.20679 60.955547 226.86363 60.955547C228.5205 60.955547 229.86363 62.298695 229.86363 63.955547Z" fill-rule="nonzero"/><path fill="#000000" fill-opacity="0.0" clip-path="url(#id_0)" d="M273.08182 127.45333C273.08182 129.11018 271.73868 130.45334 270.08182 130.45334C268.42496 130.45334 267.08182 129.11018 267.08182 127.45333C267.08182 125.79648 268.42496 124.45333 270.08182 124.45333C271.73868 124.45333 273.08182 125.79648 273.08182 127.45333Z" fill-rule="nonzero"/><path fill="#000000" fill-opacity="0.0" clip-path="url(#id_0)" d="M316.3 18.6C316.3 20.256855 314.95685 21.6 313.3 21.6C311.64316 21.6 310.3 20.256855 310.3 18.6C310.3 16.943146 311.64316 15.6 313.3 15.6C314.95685 15.6 316.3 16.943146 316.3 18.6Z" fill-rule="nonzero"/><path fill="#000000" fill-opacity="0.0" clip-path="url(#id_0)" d="M359.5182 18.6C359.5182 20.256855 358.17505 21.6 356.5182 21.6C354.86133 21.6 353.5182 20.256855 353.5182 18.6C353.5182 16.943146 354.86133 15.6 356.5182 15.6C358.17505 15.6 359.5182 16.943146 359.5182 18.6Z" fill-rule="nonzero"/><path fill="#000000" fill-opacity="0.0" clip-path="url(#id_0)" d="M402.73636 18.6C402.73636 20.256855 401.39322 21.6 399.73636 21.6C398.0795 21.6 396.73636 20.256855 396.73636 18.6C396.73636 16.943146 398.0795 15.6 399.73636 15.6C401.39322 15.6 402.73636 16.943146 402.73636 18.6Z" fill-rule="nonzero"/><path fill="#000000" fill-opacity="0.0" clip-path="url(#id_0)" d="M445.95456 34.300007C445.95456 35.956863 444.6114 37.300007 442.95456 37.300007C441.2977 37.300007 439.95456 35.956863 439.95456 34.300007C439.95456 32.643154 441.2977 31.300007 442.95456 31.300007C444.6114 31.300007 445.95456 32.643154 445.95456 34.300007Z" fill-rule="nonzero"/><path fill="#000000" fill-opacity="0.0" clip-path="url(#id_0)" d="M489.17273 18.6C489.17273 20.256855 487.8296 21.6 486.17273 21.6C484.51587 21.6 483.17273 20.256855 483.17273 18.6C483.17273 16.943146 484.51587 15.6 486.17273 15.6C487.8296 15.6 489.17273 16.943146 489.17273 18.6Z" fill-rule="nonzero"/><path fill="#000000" fill-opacity="0.0" clip-path="url(#id_0)" d="M532.3909 146.66275C532.3909 148.3196 531.0478 149.66275 529.3909 149.66275C527.7341 149.66275 526.3909 148.3196 526.3909 146.66275C526.3909 145.00589 527.7341 143.66275 529.3909 143.66275C531.0478 143.66275 532.3909 145.00589 532.3909 146.66275Z" fill-rule="nonzero"/><path fill="#000000" fill-opacity="0.0" clip-path="url(#id_0)" d="M575.6091 18.6C575.6091 20.256855 574.2659 21.6 572.6091 21.6C570.9522 21.6 569.6091 20.256855 569.6091 18.6C569.6091 16.943146 570.9522 15.6 572.6091 15.6C574.2659 15.6 575.6091 16.943146 575.6091 18.6Z" fill-rule="nonzero"/><path fill="#000000" fill-opacity="0.0" clip-path="url(#id_0)" d="M618.8273 18.6C618.8273 20.256855 617.48413 21.6 615.8273 21.6C614.1704 21.6 612.8273 20.256855 612.8273 18.6C612.8273 16.943146 614.1704 15.6 615.8273 15.6C617.48413 15.6 618.8273 16.943146 618.8273 18.6Z" fill-rule="nonzero"/><path fill="#000000" fill-opacity="0.0" clip-path="url(#id_0)" d="M662.0455 63.955547C662.0455 65.612404 660.70233 66.95555 659.0455 66.95555C657.3886 66.95555 656.0455 65.612404 656.0455 63.955547C656.0455 62.298695 657.3886 60.955547 659.0455 60.955547C660.70233 60.955547 662.0455 62.298695 662.0455 63.955547Z" fill-rule="nonzero"/><path fill="#000000" fill-opacity="0.0" clip-path="url(#id_0)" d="M705.2636 86.63333C705.2636 88.290184 703.9205 89.63333 702.2636 89.63333C700.6068 89.63333 699.2636 88.290184 699.2636 86.63333C699.2636 84.97648 700.6068 83.63333 702.2636 83.63333C703.9205 83.63333 705.2636 84.97648 705.2636 86.63333Z" fill-rule="nonzero"/><path fill="#000000" fill-opacity="0.0" clip-path="url(#id_0)" d="M748.4818 18.6C748.4818 20.256855 747.1387 21.6 745.4818 21.6C743.82495 21.6 742.4818 20.256855 742.4818 18.6C742.4818 16.943146 743.82495 15.6 745.4818 15.6C747.1387 15.6 748.4818 16.943146 748.4818 18.6Z" fill-rule="nonzero"/><path fill="#000000" fill-opacity="0.0" clip-path="url(#id_0)" d="M791.7 63.955547C791.7 65.612404 790.3569 66.95555 788.7 66.95555C787.04315 66.95555 785.7 65.612404 785.7 63.955547C785.7 62.298695 787.04315 60.955547 788.7 60.955547C790.3569 60.955547 791.7 62.298695 791.7 63.955547Z" fill-rule="nonzero"/><path fill="#000000" fill-opacity="0.0" clip-path="url(#id_0)" d="M834.91815 134.50864C834.91815 136.1655 833.575 137.50864 831.91815 137.50864C830.26135 137.50864 828.91815 136.1655 828.91815 134.50864C828.91815 132.85179 830.26135 131.50864 831.91815 131.50864C833.575 131.50864 834.91815 132.85179 834.91815 134.50864Z" fill-rule="nonzero"/><path fill="#000000" fill-opacity="0.0" clip-path="url(#id_0)" d="M878.13635 55.233337C878.13635 56.89019 876.7932 58.233337 875.13635 58.233337C873.4795 58.233337 872.13635 56.89019 872.13635 55.233337C872.13635 53.576485 873.4795 52.233337 875.13635 52.233337C876.7932 52.233337 878.13635 53.576485 878.13635 55.233337Z" fill-rule="nonzero"/><path fill="#000000" fill-opacity="0.0" clip-path="url(#id_0)" d="M921.35455 88.824005C921.35455 90.48086 920.0114 91.824005 918.35455 91.824005C916.6977 91.824005 915.35455 90.48086 915.35455 88.824005C915.35455 87.16715 916.6977 85.824005 918.35455 85.824005C920.0114 85.824005 921.35455 87.16715 921.35455 88.824005Z" fill-rule="nonzero"/><path fill="#000000" fill-opacity="0.0" clip-path="url(#id_0)" d="M964.57275 44.517456C964.57275 46.17431 963.22955 47.517456 961.57275 47.517456C959.9159 47.517456 958.57275 46.17431 958.57275 44.517456C958.57275 42.8606 959.9159 41.517456 961.57275 41.517456C963.22955 41.517456 964.57275 42.8606 964.57275 44.517456Z" fill-rule="nonzero"/><path fill="#000000" fill-opacity="0.0" clip-path="url(#id_0)" d="M1007.7909 18.6C1007.7909 20.256855 1006.44775 21.6 1004.7909 21.6C1003.13403 21.6 1001.7909 20.256855 1001.7909 18.6C1001.7909 16.943146 1003.13403 15.6 1004.7909 15.6C1006.44775 15.6 1007.7909 16.943146 1007.7909 18.6Z" fill-rule="nonzero"/><path fill="#000000" d="M502.57812 195.66667L502.57812 191.10417L501.48438 191.10417L501.48438 190.19792L502.57812 190.19792L502.57812 185.65105L506.04688 185.65105Q507.20312 185.65105 507.8125 185.79167Q508.67188 185.97917 509.28125 186.51042Q510.07812 187.1823 510.46875 188.22917Q510.85938 189.26042 510.85938 190.60417Q510.85938 192.13542 510.375 193.2448Q509.89062 194.33855 509.21875 194.83855Q508.54688 195.33855 507.65625 195.5573Q507.17188 195.66667 506.20312 195.66667L502.57812 195.66667ZM503.90625 194.47917L506.04688 194.47917Q507.04688 194.47917 507.60938 194.3073Q508.17188 194.1198 508.5 193.79167Q508.96875 193.3073 509.23438 192.52605Q509.5 191.72917 509.5 190.58855Q509.5 189.41667 509.23438 188.71355Q508.96875 188.01042 508.54688 187.58855Q508.125 187.15105 507.59375 186.9948Q507.07812 186.82292 506.01562 186.82292L503.90625 186.82292L503.90625 190.19792L506.67188 190.19792L506.67188 191.10417L503.90625 191.10417L503.90625 194.47917ZM513.2344 192.04167Q513.2344 193.38542 513.84375 194.1198Q514.40625 194.82292 515.375 194.82292Q516.3281 194.82292 516.8906 194.1198Q517.5 193.3698 517.5 191.9948Q517.5 190.6823 516.8906 189.96355Q516.3125 189.26042 515.375 189.26042Q514.40625 189.26042 513.84375 189.94792Q513.2344 190.6823 513.2344 192.04167ZM518.9375 189.65105L518.9375 188.22917L520.25 188.22917L520.25 189.35417Q520.25 190.19792 519.9844 190.65105Q519.65625 191.2448 518.7656 191.72917Q518.7656 191.83855 518.7656 191.9323Q518.7656 194.47917 517.125 195.38542Q516.3125 195.83855 515.375 195.83855Q513.8125 195.83855 512.90625 194.85417Q511.96875 193.83855 511.96875 192.04167Q511.96875 190.02605 513.09375 189.04167Q514.0156 188.2448 515.375 188.2448Q516.8594 188.2448 517.8125 189.21355Q518.53125 189.96355 518.71875 191.13542Q519.1719 190.85417 519.375 190.5573Q519.5781 190.2448 519.5781 189.65105L518.9375 189.65105ZM521.4219 195.66667L521.4219 188.40105L522.53125 188.40105L522.53125 189.4323Q523.3281 188.2448 524.84375 188.2448Q525.5 188.2448 526.0469 188.47917Q526.59375 188.71355 526.8594 189.10417Q527.1406 189.47917 527.25 190.01042Q527.3281 190.35417 527.3281 191.19792L527.3281 195.66667L526.09375 195.66667L526.09375 191.2448Q526.09375 190.4948 525.9531 190.13542Q525.8125 189.76042 525.4375 189.54167Q525.0781 189.3073 524.5781 189.3073Q523.7969 189.3073 523.21875 189.8073Q522.65625 190.3073 522.65625 191.69792L522.65625 195.66667L521.4219 195.66667ZM535.4375 195.66667L532.6719 188.40105L533.9844 188.40105L535.53125 192.76042Q535.78125 193.46355 536.0 194.21355Q536.1719 193.63542 536.4531 192.83855L538.0781 188.40105L539.34375 188.40105L536.59375 195.66667L535.4375 195.66667ZM540.4375 187.0573L540.4375 185.65105L541.65625 185.65105L541.65625 187.0573L540.4375 187.0573ZM540.4375 195.66667L540.4375 188.40105L541.65625 188.40105L541.65625 195.66667L540.4375 195.66667ZM540.34375 197.88542L540.34375 196.4948L541.75 196.4948L541.75 197.88542L540.34375 197.88542ZM547.4375 195.66667L547.4375 185.65105L548.65625 185.65105L548.65625 191.35417L551.5781 188.40105L553.1719 188.40105L550.3906 191.10417L553.4531 195.66667L551.9219 195.66667L549.53125 191.94792L548.65625 192.79167L548.65625 195.66667L547.4375 195.66667ZM554.4375 187.0573L554.4375 185.65105L555.65625 185.65105L555.65625 187.0573L554.4375 187.0573ZM554.4375 195.66667L554.4375 188.40105L555.65625 188.40105L555.65625 195.66667L554.4375 195.66667ZM562.3906 193.32292L563.6719 193.47917Q563.3594 194.60417 562.5469 195.22917Q561.7344 195.83855 560.46875 195.83855Q558.875 195.83855 557.9375 194.85417Q557.0156 193.8698 557.0156 192.10417Q557.0156 190.26042 557.9531 189.26042Q558.90625 188.2448 560.40625 188.2448Q561.8594 188.2448 562.78125 189.2448Q563.7031 190.22917 563.7031 192.02605Q563.7031 192.13542 563.7031 192.35417L558.28125 192.35417Q558.3594 193.54167 558.9531 194.1823Q559.5625 194.82292 560.4844 194.82292Q561.15625 194.82292 561.625 194.46355Q562.1094 194.10417 562.3906 193.32292ZM558.3594 191.33855L562.40625 191.33855Q562.3281 190.41667 561.9375 189.96355Q561.3594 189.26042 560.4219 189.26042Q559.5625 189.26042 558.9844 189.82292Q558.4219 190.38542 558.3594 191.33855ZM560.3906 186.33855L559.6094 187.51042L558.2031 187.51042L559.6719 185.58855L560.9844 185.58855L562.53125 187.51042L561.1406 187.51042L560.3906 186.33855ZM559.9844 184.5573Q560.375 184.52605 560.4844 184.4948Q560.84375 184.40105 560.84375 184.21355Q560.8594 184.0573 560.65625 183.94792Q560.375 183.79167 559.75 183.79167Q559.53125 183.79167 559.1094 183.8073L559.03125 183.16667Q559.2969 183.1198 560.0156 183.1198Q560.8594 183.13542 561.3906 183.40105Q561.96875 183.6823 561.9844 184.13542Q562.0156 184.83855 560.75 184.9948L560.75 185.32292L559.9844 185.32292L559.9844 184.5573ZM565.4219 195.66667L565.4219 188.40105L566.53125 188.40105L566.53125 189.4323Q566.8594 188.88542 567.4219 188.57292Q568.0 188.2448 568.71875 188.2448Q569.53125 188.2448 570.0469 188.58855Q570.5625 188.91667 570.78125 189.51042Q571.6406 188.2448 573.0156 188.2448Q574.09375 188.2448 574.6719 188.83855Q575.2656 189.4323 575.2656 190.6823L575.2656 195.66667L574.03125 195.66667L574.03125 191.08855Q574.03125 190.35417 573.90625 190.02605Q573.7969 189.69792 573.4844 189.51042Q573.1719 189.3073 572.75 189.3073Q571.9844 189.3073 571.46875 189.82292Q570.96875 190.32292 570.96875 191.44792L570.96875 195.66667L569.7344 195.66667L569.7344 190.94792Q569.7344 190.13542 569.4375 189.72917Q569.1406 189.3073 568.4531 189.3073Q567.9375 189.3073 567.4844 189.58855Q567.0469 189.85417 566.84375 190.38542Q566.65625 190.90105 566.65625 191.90105L566.65625 195.66667L565.4219 195.66667ZM583.1094 194.57292L583.28125 195.65105Q582.7656 195.76042 582.3594 195.76042Q581.6875 195.76042 581.3125 195.5573Q580.9531 195.33855 580.7969 194.9948Q580.65625 194.65105 580.65625 193.54167L580.65625 189.3698L579.75 189.3698L579.75 188.40105L580.65625 188.40105L580.65625 186.60417L581.875 185.8698L581.875 188.40105L583.1094 188.40105L583.1094 189.3698L581.875 189.3698L581.875 193.60417Q581.875 194.13542 581.9375 194.29167Q582.0 194.4323 582.1406 194.52605Q582.2969 194.6198 582.5625 194.6198Q582.78125 194.6198 583.1094 194.57292ZM584.4219 195.66667L584.4219 185.65105L585.65625 185.65105L585.65625 189.2448Q586.5156 188.2448 587.8281 188.2448Q588.6406 188.2448 589.2344 188.57292Q589.8281 188.88542 590.0781 189.44792Q590.34375 189.9948 590.34375 191.07292L590.34375 195.66667L589.1094 195.66667L589.1094 191.07292Q589.1094 190.13542 588.7031 189.72917Q588.3125 189.3073 587.5781 189.3073Q587.03125 189.3073 586.5469 189.58855Q586.0625 189.8698 585.8594 190.35417Q585.65625 190.83855 585.65625 191.69792L585.65625 195.66667L584.4219 195.66667ZM599.125 189.83855L599.125 188.40105L600.4531 188.40105L600.4531 189.54167Q600.4531 190.60417 600.2031 191.02605Q599.5781 192.1198 598.28125 192.26042L598.28125 195.66667L597.1875 195.66667L597.1875 194.60417Q596.3281 195.83855 594.875 195.83855Q594.2344 195.83855 593.6719 195.58855Q593.125 195.33855 592.84375 194.96355Q592.5781 194.58855 592.46875 194.0573Q592.3906 193.6823 592.3906 192.90105L592.3906 188.40105L593.625 188.40105L593.625 192.4323Q593.625 193.41667 593.7031 193.72917Q593.9375 194.77605 595.125 194.77605Q595.6875 194.77605 596.1719 194.4948Q596.65625 194.19792 596.84375 193.71355Q597.0469 193.22917 597.0469 192.29167L597.0469 188.40105L598.28125 188.40105L598.28125 191.7448Q599.15625 191.58855 599.5781 190.9323Q599.7656 190.63542 599.7656 189.83855L599.125 189.83855ZM594.9531 186.6823Q595.34375 186.63542 595.4531 186.60417Q595.8125 186.47917 595.8281 186.22917Q595.8281 186.07292 595.625 185.96355Q595.34375 185.8073 594.71875 185.8073Q594.5156 185.8073 594.0781 185.82292L594.0 185.13542Q594.2656 185.07292 594.9844 185.08855Q595.8281 185.08855 596.3594 185.35417Q596.9531 185.65105 596.96875 186.15105Q597.0 187.01042 595.71875 187.16667L595.71875 187.51042L594.9531 187.51042L594.9531 186.6823Z" fill-rule="nonzero"/><path fill="#000000" d="M24.600004 132.5552L20.037504 132.5552L20.037504 133.64896L19.131254 133.64896L19.131254 132.5552L14.58438 132.5552L14.58438 129.08646Q14.58438 127.93021 14.725005 127.32083Q14.912505 126.46146 15.443755 125.85208Q16.11563 125.05521 17.162504 124.66458Q18.193754 124.27396 19.537504 124.27396Q21.068754 124.27396 22.17813 124.75833Q23.27188 125.24271 23.77188 125.91458Q24.27188 126.58646 24.49063 127.47708Q24.600004 127.96146 24.600004 128.9302L24.600004 132.5552ZM23.412504 131.22708L23.412504 129.08646Q23.412504 128.08646 23.24063 127.52396Q23.05313 126.96146 22.725004 126.63333Q22.24063 126.16458 21.45938 125.89896Q20.662504 125.63333 19.52188 125.63333Q18.350004 125.63333 17.64688 125.89896Q16.943754 126.16458 16.52188 126.58646Q16.08438 127.00833 15.92813 127.53958Q15.756255 128.0552 15.756255 129.1177L15.756255 131.22708L19.131254 131.22708L19.131254 128.46146L20.037504 128.46146L20.037504 131.22708L23.412504 131.22708ZM20.975004 123.16458Q18.95938 123.16458 17.975004 122.03958Q17.17813 121.11771 17.17813 119.75833Q17.17813 118.27396 18.162504 117.32083Q19.131254 116.36771 20.86563 116.36771Q22.27188 116.36771 23.08438 116.78958Q23.881254 117.21146 24.33438 118.02396Q24.77188 118.82083 24.77188 119.75833Q24.77188 121.28958 23.787504 122.22708Q22.80313 123.16458 20.975004 123.16458ZM20.975004 121.89896Q22.36563 121.89896 23.068754 121.28958Q23.756254 120.68021 23.756254 119.75833Q23.756254 118.85208 23.05313 118.24271Q22.350004 117.63333 20.92813 117.63333Q19.58438 117.63333 18.89688 118.24271Q18.193754 118.85208 18.193754 119.75833Q18.193754 120.68021 18.881254 121.28958Q19.568754 121.89896 20.975004 121.89896ZM15.27188 119.74271L16.443754 120.52396L16.443754 121.93021L14.52188 120.46146L14.52188 119.14896L16.443754 117.60208L16.443754 118.99271L15.27188 119.74271ZM26.818754 120.50833L25.42813 120.50833L25.42813 119.10208L26.818754 119.10208L26.818754 120.50833ZM27.381254 110.71146L17.33438 110.71146L17.33438 109.58646L18.287504 109.58646Q17.725004 109.19584 17.45938 108.69584Q17.17813 108.19584 17.17813 107.47709Q17.17813 106.555214 17.662504 105.85209Q18.131254 105.13334 19.006254 104.773964Q19.881254 104.41459 20.912504 104.41459Q22.02188 104.41459 22.92813 104.82084Q23.818754 105.211464 24.30313 105.97709Q24.77188 106.72709 24.77188 107.57084Q24.77188 108.180214 24.506254 108.680214Q24.24063 109.16459 23.850004 109.47708L27.381254 109.47708L27.381254 110.71146ZM21.006254 109.60208Q22.412504 109.60208 23.08438 109.03959Q23.756254 108.461464 23.756254 107.648964Q23.756254 106.836464 23.068754 106.25834Q22.36563 105.66459 20.912504 105.66459Q19.52188 105.66459 18.83438 106.242714Q18.14688 106.805214 18.14688 107.60209Q18.14688 108.38334 18.881254 108.992714Q19.61563 109.60208 21.006254 109.60208ZM24.600004 102.711464L14.58438 102.711464L14.58438 101.47709L18.17813 101.47709Q17.17813 100.617714 17.17813 99.305214Q17.17813 98.492714 17.506254 97.898964Q17.818754 97.305214 18.381254 97.055214Q18.92813 96.78959 20.006254 96.78959L24.600004 96.78959L24.600004 98.023964L20.006254 98.023964Q19.068754 98.023964 18.662504 98.430214Q18.24063 98.82084 18.24063 99.555214Q18.24063 100.10209 18.52188 100.586464Q18.80313 101.07084 19.287504 101.273964Q19.77188 101.47709 20.631254 101.47709L24.600004 101.47709L24.600004 102.711464ZM24.600004 89.94584L23.537504 89.94584Q24.77188 90.805214 24.77188 92.25834Q24.77188 92.898964 24.52188 93.461464Q24.27188 94.00834 23.89688 94.28959Q23.52188 94.555214 22.99063 94.66459Q22.631254 94.742714 21.83438 94.742714L17.33438 94.742714L17.33438 93.50834L21.36563 93.50834Q22.33438 93.50834 22.662504 93.430214Q23.14688 93.32084 23.42813 92.94584Q23.70938 92.57084 23.70938 92.00834Q23.70938 91.461464 23.42813 90.97709Q23.131254 90.492714 22.64688 90.28959Q22.162504 90.086464 21.225004 90.086464L17.33438 90.086464L17.33438 88.85209L24.600004 88.85209L24.600004 89.94584ZM15.61563 92.180214Q15.568755 91.78959 15.537505 91.680214Q15.412505 91.32084 15.162505 91.305214Q15.006255 91.305214 14.89688 91.50834Q14.74063 91.78959 14.74063 92.41459Q14.74063 92.617714 14.756255 93.055214L14.068755 93.13334Q14.006255 92.867714 14.02188 92.148964Q14.02188 91.305214 14.287505 90.773964Q14.58438 90.180214 15.08438 90.16459Q15.943755 90.13334 16.100004 91.41459L16.443754 91.41459L16.443754 92.180214L15.61563 92.180214ZM21.08438 75.398964L21.42813 74.07084Q23.05313 74.492714 23.912504 75.586464Q24.77188 76.66459 24.77188 78.22709Q24.77188 79.85209 24.11563 80.867714Q23.443754 81.88334 22.193754 82.41459Q20.943754 82.930214 19.506254 82.930214Q17.943754 82.930214 16.787504 82.336464Q15.61563 81.742714 15.02188 80.63334Q14.412505 79.523964 14.412505 78.211464Q14.412505 76.69584 15.17813 75.680214Q15.943755 74.648964 17.318754 74.242714L17.631254 75.555214Q16.537504 75.898964 16.037504 76.57084Q15.537505 77.22709 15.537505 78.22709Q15.537505 79.38334 16.100004 80.16459Q16.64688 80.94584 17.58438 81.25834Q18.52188 81.57084 19.506254 81.57084Q20.787504 81.57084 21.74063 81.19584Q22.693754 80.82084 23.162504 80.03959Q23.631254 79.25834 23.631254 78.336464Q23.631254 77.22709 22.99063 76.461464Q22.350004 75.680214 21.08438 75.398964ZM24.600004 68.41459L24.600004 69.648964L16.756254 69.648964Q17.17813 70.086464 17.61563 70.82084Q18.037504 71.53959 18.24063 72.10209L17.05313 72.10209Q16.568754 71.07084 15.881255 70.305214Q15.193755 69.523964 14.537505 69.211464L14.537505 68.41459L24.600004 68.41459ZM27.55313 58.352085Q26.256254 59.383335 24.537504 60.08646Q22.818754 60.789585 20.975004 60.789585Q19.350004 60.789585 17.850004 60.258335Q16.11563 59.64896 14.412505 58.352085L14.412505 57.477085Q15.83438 58.30521 16.443754 58.570835Q17.381254 58.99271 18.412504 59.227085Q19.67813 59.52396 20.975004 59.52396Q24.27188 59.52396 27.55313 57.477085L27.55313 58.352085ZM16.99063 55.820835Q15.912505 55.820835 15.162505 55.289585Q14.412505 54.74271 14.412505 53.71146Q14.412505 52.77396 15.08438 52.164585Q15.756255 51.539585 17.05313 51.539585Q18.33438 51.539585 19.02188 52.164585Q19.70938 52.789585 19.70938 53.695835Q19.70938 54.602085 19.037504 55.21146Q18.350004 55.820835 16.99063 55.820835ZM15.256255 53.68021Q15.256255 54.133335 15.662505 54.445835Q16.05313 54.74271 17.100004 54.74271Q18.068754 54.74271 18.45938 54.445835Q18.850004 54.133335 18.850004 53.68021Q18.850004 53.21146 18.45938 52.914585Q18.068754 52.602085 17.006254 52.602085Q16.037504 52.602085 15.64688 52.914585Q15.256255 53.227085 15.256255 53.68021ZM24.975004 53.68021L14.412505 48.195835L14.412505 47.195835L24.975004 52.64896L24.975004 53.68021ZM22.24063 49.33646Q21.162504 49.33646 20.42813 48.80521Q19.67813 48.258335 19.67813 47.227085Q19.67813 46.289585 20.350004 45.664585Q21.02188 45.039585 22.318754 45.039585Q23.600004 45.039585 24.287504 45.664585Q24.975004 46.289585 24.975004 47.227085Q24.975004 48.133335 24.30313 48.74271Q23.61563 49.33646 22.24063 49.33646ZM20.52188 47.195835Q20.52188 47.664585 20.92813 47.96146Q21.318754 48.258335 22.36563 48.258335Q23.33438 48.258335 23.725004 47.96146Q24.11563 47.64896 24.11563 47.195835Q24.11563 46.727085 23.725004 46.43021Q23.33438 46.11771 22.27188 46.11771Q21.30313 46.11771 20.912504 46.43021Q20.52188 46.727085 20.52188 47.195835ZM27.55313 42.89896L27.55313 43.789585Q24.27188 41.74271 20.975004 41.74271Q19.693754 41.74271 18.42813 42.039585Q17.39688 42.27396 16.45938 42.68021Q15.850005 42.945835 14.412505 43.789585L14.412505 42.89896Q16.11563 41.61771 17.850004 41.008335Q19.350004 40.477085 20.975004 40.477085Q22.818754 40.477085 24.537504 41.195835Q26.256254 41.89896 27.55313 42.89896Z" fill-rule="nonzero"/><path fill="#000000" d="M63.1 154.4323Q63.1 152.90105 63.4125 151.97917Q63.725 151.04167 64.33437 150.54167Q64.95937 150.04167 65.89687 150.04167Q66.58437 150.04167 67.1 150.32292Q67.63125 150.60417 67.975 151.13542Q68.31875 151.65105 68.50625 152.40105Q68.69375 153.15105 68.69375 154.4323Q68.69375 155.94792 68.38125 156.8698Q68.08437 157.79167 67.45937 158.3073Q66.85 158.8073 65.89687 158.8073Q64.6625 158.8073 63.94375 157.91667Q63.1 156.85417 63.1 154.4323ZM64.17812 154.4323Q64.17812 156.54167 64.67812 157.2448Q65.17812 157.94792 65.89687 157.94792Q66.63125 157.94792 67.11562 157.2448Q67.61562 156.54167 67.61562 154.4323Q67.61562 152.3073 67.11562 151.6198Q66.63125 150.91667 65.88125 150.91667Q65.1625 150.91667 64.725 151.52605Q64.17812 152.3073 64.17812 154.4323Z" fill-rule="nonzero"/><path fill="#000000" d="M61.646873 123.63438L61.646873 124.65L55.959373 124.65Q55.959373 124.275 56.084373 123.91563Q56.303123 123.3375 56.771873 122.775Q57.25625 122.2125 58.1625 121.47813Q59.56875 120.32188 60.053123 119.65Q60.553123 118.97813 60.553123 118.38438Q60.553123 117.75938 60.1 117.3375Q59.646873 116.9 58.928123 116.9Q58.1625 116.9 57.709373 117.35313Q57.25625 117.80625 57.240623 118.61875L56.1625 118.50938Q56.271873 117.29063 56.990623 116.66563Q57.725 116.025 58.959373 116.025Q60.19375 116.025 60.9125 116.7125Q61.63125 117.4 61.63125 118.41563Q61.63125 118.93125 61.4125 119.43125Q61.209373 119.91563 60.709373 120.47813Q60.225 121.025 59.1 121.97813Q58.146873 122.775 57.865623 123.07188Q57.6 123.35313 57.428123 123.63438L61.646873 123.63438ZM63.1 122.4L64.20937 122.30625Q64.33437 123.11875 64.77187 123.525Q65.225 123.93125 65.86562 123.93125Q66.61562 123.93125 67.14687 123.35313Q67.67812 122.775 67.67812 121.8375Q67.67812 120.93125 67.1625 120.41563Q66.6625 119.88438 65.83437 119.88438Q65.33437 119.88438 64.9125 120.11875Q64.50625 120.35313 64.27187 120.7125L63.2875 120.5875L64.11562 116.18125L68.39687 116.18125L68.39687 117.18125L64.95937 117.18125L64.50625 119.49375Q65.27187 118.94688 66.11562 118.94688Q67.24062 118.94688 68.00625 119.72813Q68.7875 120.50938 68.7875 121.74375Q68.7875 122.9 68.11562 123.75938Q67.2875 124.79063 65.86562 124.79063Q64.69375 124.79063 63.94375 124.13438Q63.209373 123.47813 63.1 122.4Z" fill-rule="nonzero"/><path fill="#000000" d="M56.1 88.38333L57.209373 88.28958Q57.334373 89.10208 57.771873 89.50833Q58.225 89.91458 58.865623 89.91458Q59.615623 89.91458 60.146873 89.33646Q60.678123 88.75833 60.678123 87.82083Q60.678123 86.91458 60.1625 86.39896Q59.6625 85.86771 58.834373 85.86771Q58.334373 85.86771 57.9125 86.10208Q57.50625 86.33646 57.271873 86.69583L56.2875 86.57083L57.115623 82.16458L61.396873 82.16458L61.396873 83.16458L57.959373 83.16458L57.50625 85.47708Q58.271873 84.93021 59.115623 84.93021Q60.240623 84.93021 61.00625 85.71146Q61.7875 86.49271 61.7875 87.72708Q61.7875 88.88333 61.115623 89.74271Q60.2875 90.77396 58.865623 90.77396Q57.69375 90.77396 56.94375 90.11771Q56.209373 89.46146 56.1 88.38333ZM63.1 86.39896Q63.1 84.86771 63.4125 83.94583Q63.725 83.00833 64.33437 82.50833Q64.95937 82.00833 65.89687 82.00833Q66.58437 82.00833 67.1 82.28958Q67.63125 82.57083 67.975 83.10208Q68.31875 83.61771 68.50625 84.36771Q68.69375 85.11771 68.69375 86.39896Q68.69375 87.91458 68.38125 88.83646Q68.08437 89.75833 67.45937 90.27396Q66.85 90.77396 65.89687 90.77396Q64.6625 90.77396 63.94375 89.88333Q63.1 88.82083 63.1 86.39896ZM64.17812 86.39896Q64.17812 88.50833 64.67812 89.21146Q65.17812 89.91458 65.89687 89.91458Q66.63125 89.91458 67.11562 89.21146Q67.61562 88.50833 67.61562 86.39896Q67.61562 84.27396 67.11562 83.58646Q66.63125 82.88333 65.88125 82.88333Q65.1625 82.88333 64.725 83.49271Q64.17812 84.27396 64.17812 86.39896Z" fill-rule="nonzero"/><path fill="#000000" d="M56.1625 49.147915L56.1625 48.13229L61.725 48.13229L61.725 48.960415Q60.9125 49.835415 60.1 51.28854Q59.303123 52.72604 58.865623 54.25729Q58.5375 55.335415 58.459373 56.616665L57.365623 56.616665Q57.38125 55.60104 57.75625 54.16354Q58.146873 52.72604 58.85 51.397915Q59.56875 50.06979 60.38125 49.147915L56.1625 49.147915ZM63.1 54.366665L64.20937 54.272915Q64.33437 55.085415 64.77187 55.491665Q65.225 55.897915 65.86562 55.897915Q66.61562 55.897915 67.14687 55.31979Q67.67812 54.741665 67.67812 53.804165Q67.67812 52.897915 67.1625 52.38229Q66.6625 51.85104 65.83437 51.85104Q65.33437 51.85104 64.9125 52.085415Q64.50625 52.31979 64.27187 52.679165L63.2875 52.554165L64.11562 48.147915L68.39687 48.147915L68.39687 49.147915L64.95937 49.147915L64.50625 51.460415Q65.27187 50.91354 66.11562 50.91354Q67.24062 50.91354 68.00625 51.69479Q68.7875 52.47604 68.7875 53.710415Q68.7875 54.866665 68.11562 55.72604Q67.2875 56.75729 65.86562 56.75729Q64.69375 56.75729 63.94375 56.10104Q63.209373 55.44479 63.1 54.366665Z" fill-rule="nonzero"/><path fill="#000000" d="M53.06875 22.6L52.021873 22.6L52.021873 15.88125Q51.63125 16.240625 51.00625 16.615625Q50.396873 16.975 49.9125 17.146875L49.9125 16.13125Q50.7875 15.709375 51.44375 15.13125Q52.115623 14.5375 52.396873 13.975L53.06875 13.975L53.06875 22.6ZM56.1 18.365625Q56.1 16.834375 56.4125 15.9125Q56.725 14.975 57.334373 14.475Q57.959373 13.975 58.896873 13.975Q59.584373 13.975 60.1 14.25625Q60.63125 14.5375 60.975 15.06875Q61.31875 15.584375 61.50625 16.334375Q61.69375 17.084375 61.69375 18.365625Q61.69375 19.88125 61.38125 20.803125Q61.084373 21.725 60.459373 22.240625Q59.85 22.740625 58.896873 22.740625Q57.6625 22.740625 56.94375 21.85Q56.1 20.7875 56.1 18.365625ZM57.178123 18.365625Q57.178123 20.475 57.678123 21.178125Q58.178123 21.88125 58.896873 21.88125Q59.63125 21.88125 60.115623 21.178125Q60.615623 20.475 60.615623 18.365625Q60.615623 16.240625 60.115623 15.553125Q59.63125 14.85 58.88125 14.85Q58.1625 14.85 57.725 15.459375Q57.178123 16.240625 57.178123 18.365625ZM63.1 18.365625Q63.1 16.834375 63.4125 15.9125Q63.725 14.975 64.33437 14.475Q64.95937 13.975 65.89687 13.975Q66.58437 13.975 67.1 14.25625Q67.63125 14.5375 67.975 15.06875Q68.31875 15.584375 68.50625 16.334375Q68.69375 17.084375 68.69375 18.365625Q68.69375 19.88125 68.38125 20.803125Q68.08437 21.725 67.45937 22.240625Q66.85 22.740625 65.89687 22.740625Q64.6625 22.740625 63.94375 21.85Q63.1 20.7875 63.1 18.365625ZM64.17812 18.365625Q64.17812 20.475 64.67812 21.178125Q65.17812 21.88125 65.89687 21.88125Q66.63125 21.88125 67.11562 21.178125Q67.61562 20.475 67.61562 18.365625Q67.61562 16.240625 67.11562 15.553125Q66.63125 14.85 65.88125 14.85Q65.1625 14.85 64.725 15.459375Q64.17812 16.240625 64.17812 18.365625Z" fill-rule="nonzero"/><path stroke="#ff0000" stroke-width="4.0" stroke-linecap="butt" stroke-dasharray="4.0,5.0" d="M358.5 213.4L371.5 213.4" fill-rule="nonzero"/><path fill="#1a1a1a" d="M380.42188 217.4L380.42188 208.80624L383.67188 208.80624Q384.51562 208.80624 384.96875 208.88437Q385.60938 208.99374 386.03125 209.29062Q386.46875 209.5875 386.71875 210.11874Q386.98438 210.65 386.98438 211.29062Q386.98438 212.38437 386.28125 213.15Q385.59375 213.9 383.76562 213.9L381.5625 213.9L381.5625 217.4L380.42188 217.4ZM381.5625 212.9L383.78125 212.9Q384.89062 212.9 385.34375 212.49374Q385.8125 212.07187 385.8125 211.32187Q385.8125 210.79062 385.53125 210.41562Q385.26562 210.025 384.82812 209.9Q384.53125 209.82187 383.76562 209.82187L381.5625 209.82187L381.5625 212.9ZM388.29688 217.4L388.29688 208.80624L389.34375 208.80624L389.34375 211.88437Q390.07812 211.04062 391.20312 211.04062Q391.90625 211.04062 392.40625 211.32187Q392.92188 211.5875 393.14062 212.07187Q393.35938 212.54062 393.35938 213.4625L393.35938 217.4L392.3125 217.4L392.3125 213.4625Q392.3125 212.66562 391.96875 212.30624Q391.625 211.94687 391.0 211.94687Q390.53125 211.94687 390.10938 212.19687Q389.70312 212.43124 389.51562 212.85312Q389.34375 213.25937 389.34375 213.99374L389.34375 217.4L388.29688 217.4ZM401.04688 212.4L401.04688 211.18124L402.17188 211.18124L402.17188 212.15Q402.17188 213.05624 401.95312 213.43124Q401.42188 214.36874 400.3125 214.47812L400.3125 217.4L399.375 217.4L399.375 216.47812Q398.64062 217.54062 397.39062 217.54062Q396.84375 217.54062 396.35938 217.3375Q395.89062 217.11874 395.65625 216.80624Q395.42188 216.47812 395.32812 216.00937Q395.26562 215.69687 395.26562 215.025L395.26562 211.18124L396.32812 211.18124L396.32812 214.63437Q396.32812 215.4625 396.39062 215.74374Q396.59375 216.63437 397.60938 216.63437Q398.09375 216.63437 398.5 216.38437Q398.92188 216.13437 399.09375 215.72812Q399.26562 215.30624 399.26562 214.50937L399.26562 211.18124L400.3125 211.18124L400.3125 214.04062Q401.0625 213.9 401.42188 213.3375Q401.59375 213.0875 401.59375 212.4L401.04688 212.4ZM403.98438 214.29062Q403.98438 215.44687 404.5 216.07187Q405.0 216.66562 405.8125 216.66562Q406.64062 216.66562 407.125 216.07187Q407.64062 215.43124 407.64062 214.25937Q407.64062 213.13437 407.125 212.50937Q406.625 211.91562 405.8125 211.91562Q404.98438 211.91562 404.5 212.49374Q403.98438 213.13437 403.98438 214.29062ZM408.875 212.24374L408.875 211.025L410.0 211.025L410.0 211.99374Q410.0 212.7125 409.78125 213.10312Q409.48438 213.60312 408.73438 214.025Q408.73438 214.11874 408.73438 214.19687Q408.73438 216.38437 407.32812 217.16562Q406.625 217.54062 405.8125 217.54062Q404.48438 217.54062 403.70312 216.69687Q402.90625 215.8375 402.90625 214.29062Q402.90625 212.55624 403.85938 211.72812Q404.65625 211.04062 405.8125 211.04062Q407.09375 211.04062 407.92188 211.86874Q408.53125 212.50937 408.6875 213.525Q409.07812 213.275 409.25 213.00937Q409.42188 212.74374 409.42188 212.24374L408.875 212.24374ZM411.29688 217.4L411.29688 211.18124L412.23438 211.18124L412.23438 212.05624Q412.92188 211.04062 414.21875 211.04062Q414.78125 211.04062 415.25 211.24374Q415.73438 211.44687 415.96875 211.775Q416.20312 212.10312 416.29688 212.54062Q416.34375 212.8375 416.34375 213.57187L416.34375 217.4L415.29688 217.4L415.29688 213.61874Q415.29688 212.9625 415.17188 212.65Q415.04688 212.3375 414.73438 212.15Q414.42188 211.94687 414.0 211.94687Q413.32812 211.94687 412.82812 212.38437Q412.34375 212.80624 412.34375 213.99374L412.34375 217.4L411.29688 217.4ZM418.09375 217.91562L419.125 218.07187Q419.1875 218.54062 419.48438 218.75937Q419.875 219.05624 420.54688 219.05624Q421.28125 219.05624 421.67188 218.75937Q422.07812 218.4625 422.21875 217.94687Q422.3125 217.61874 422.29688 216.5875Q421.60938 217.4 420.57812 217.4Q419.29688 217.4 418.59375 216.47812Q417.89062 215.54062 417.89062 214.25937Q417.89062 213.36874 418.20312 212.61874Q418.53125 211.85312 419.14062 211.44687Q419.75 211.04062 420.57812 211.04062Q421.6875 211.04062 422.40625 211.93124L422.40625 211.18124L423.375 211.18124L423.375 216.55624Q423.375 218.00937 423.07812 218.61874Q422.78125 219.22812 422.14062 219.57187Q421.5 219.93124 420.5625 219.93124Q419.45312 219.93124 418.76562 219.43124Q418.07812 218.93124 418.09375 217.91562ZM418.96875 214.18124Q418.96875 215.4 419.45312 215.9625Q419.9375 216.525 420.67188 216.525Q421.40625 216.525 421.89062 215.9625Q422.39062 215.4 422.39062 214.2125Q422.39062 213.07187 421.875 212.49374Q421.375 211.91562 420.65625 211.91562Q419.95312 211.91562 419.45312 212.49374Q418.96875 213.05624 418.96875 214.18124ZM428.29688 219.79062L428.29688 211.18124L429.25 211.18124L429.25 211.97812Q429.59375 211.50937 430.01562 211.275Q430.45312 211.04062 431.0625 211.04062Q431.85938 211.04062 432.46875 211.44687Q433.07812 211.85312 433.375 212.60312Q433.6875 213.35312 433.6875 214.24374Q433.6875 215.19687 433.34375 215.9625Q433.01562 216.72812 432.35938 217.13437Q431.70312 217.54062 430.98438 217.54062Q430.45312 217.54062 430.03125 217.32187Q429.60938 217.0875 429.34375 216.75937L429.34375 219.79062L428.29688 219.79062ZM429.25 214.32187Q429.25 215.525 429.73438 216.10312Q430.21875 216.66562 430.90625 216.66562Q431.60938 216.66562 432.10938 216.07187Q432.60938 215.47812 432.60938 214.22812Q432.60938 213.04062 432.125 212.4625Q431.64062 211.86874 430.95312 211.86874Q430.28125 211.86874 429.76562 212.49374Q429.25 213.11874 429.25 214.32187ZM435.29688 217.4L435.29688 208.80624L436.34375 208.80624L436.34375 211.88437Q437.07812 211.04062 438.20312 211.04062Q438.90625 211.04062 439.40625 211.32187Q439.92188 211.5875 440.14062 212.07187Q440.35938 212.54062 440.35938 213.4625L440.35938 217.4L439.3125 217.4L439.3125 213.4625Q439.3125 212.66562 438.96875 212.30624Q438.625 211.94687 438.0 211.94687Q437.53125 211.94687 437.10938 212.19687Q436.70312 212.43124 436.51562 212.85312Q436.34375 213.25937 436.34375 213.99374L436.34375 217.4L435.29688 217.4ZM446.35938 216.63437Q445.76562 217.13437 445.21875 217.3375Q444.6875 217.54062 444.0625 217.54062Q443.03125 217.54062 442.48438 217.04062Q441.9375 216.54062 441.9375 215.75937Q441.9375 215.30624 442.14062 214.93124Q442.34375 214.54062 442.6875 214.32187Q443.03125 214.0875 443.45312 213.97812Q443.75 213.88437 444.39062 213.80624Q445.65625 213.66562 446.26562 213.44687Q446.26562 213.22812 446.26562 213.18124Q446.26562 212.525 445.96875 212.25937Q445.5625 211.91562 444.76562 211.91562Q444.03125 211.91562 443.67188 212.18124Q443.3125 212.43124 443.14062 213.0875L442.10938 212.94687Q442.25 212.29062 442.57812 211.88437Q442.90625 211.47812 443.51562 211.25937Q444.125 211.04062 444.92188 211.04062Q445.71875 211.04062 446.21875 211.22812Q446.71875 211.41562 446.95312 211.69687Q447.1875 211.97812 447.28125 212.41562Q447.32812 212.68124 447.32812 213.38437L447.32812 214.79062Q447.32812 216.25937 447.39062 216.65Q447.46875 217.04062 447.67188 217.4L446.5625 217.4Q446.40625 217.07187 446.35938 216.63437ZM446.26562 214.275Q445.6875 214.50937 444.54688 214.68124Q443.89062 214.775 443.625 214.9Q443.35938 215.00937 443.20312 215.22812Q443.0625 215.44687 443.0625 215.72812Q443.0625 216.15 443.375 216.43124Q443.70312 216.7125 444.3125 216.7125Q444.92188 216.7125 445.39062 216.44687Q445.875 216.18124 446.09375 215.7125Q446.26562 215.35312 446.26562 214.66562L446.26562 214.275ZM444.20312 210.4L444.98438 208.75937L446.375 208.75937L445.07812 210.4L444.20312 210.4ZM449.29688 219.79062L449.29688 211.18124L450.25 211.18124L450.25 211.97812Q450.59375 211.50937 451.01562 211.275Q451.45312 211.04062 452.0625 211.04062Q452.85938 211.04062 453.46875 211.44687Q454.07812 211.85312 454.375 212.60312Q454.6875 213.35312 454.6875 214.24374Q454.6875 215.19687 454.34375 215.9625Q454.01562 216.72812 453.35938 217.13437Q452.70312 217.54062 451.98438 217.54062Q451.45312 217.54062 451.03125 217.32187Q450.60938 217.0875 450.34375 216.75937L450.34375 219.79062L449.29688 219.79062ZM450.25 214.32187Q450.25 215.525 450.73438 216.10312Q451.21875 216.66562 451.90625 216.66562Q452.60938 216.66562 453.10938 216.07187Q453.60938 215.47812 453.60938 214.22812Q453.60938 213.04062 453.125 212.4625Q452.64062 211.86874 451.95312 211.86874Q451.28125 211.86874 450.76562 212.49374Q450.25 213.11874 450.25 214.32187ZM461.59375 216.4625L461.75 217.38437Q461.29688 217.47812 460.95312 217.47812Q460.375 217.47812 460.0625 217.30624Q459.75 217.11874 459.60938 216.82187Q459.48438 216.525 459.48438 215.57187L459.48438 211.99374L458.71875 211.99374L458.71875 211.18124L459.48438 211.18124L459.48438 209.63437L460.53125 209.00937L460.53125 211.18124L461.59375 211.18124L461.59375 211.99374L460.53125 211.99374L460.53125 215.63437Q460.53125 216.0875 460.57812 216.2125Q460.64062 216.3375 460.76562 216.41562Q460.89062 216.49374 461.125 216.49374Q461.3125 216.49374 461.59375 216.4625ZM462.28125 217.4L462.28125 211.18124L463.23438 211.18124L463.23438 212.11874Q463.59375 211.4625 463.89062 211.25937Q464.20312 211.04062 464.57812 211.04062Q465.10938 211.04062 465.65625 211.36874L465.29688 212.35312Q464.90625 212.11874 464.53125 212.11874Q464.17188 212.11874 463.89062 212.3375Q463.625 212.54062 463.51562 212.91562Q463.32812 213.47812 463.32812 214.13437L463.32812 217.4L462.28125 217.4ZM470.375 217.4L470.375 216.47812Q469.64062 217.54062 468.39062 217.54062Q467.84375 217.54062 467.35938 217.3375Q466.89062 217.11874 466.65625 216.80624Q466.42188 216.47812 466.32812 216.00937Q466.26562 215.7125 466.26562 215.025L466.26562 211.18124L467.32812 211.18124L467.32812 214.63437Q467.32812 215.44687 467.39062 215.74374Q467.48438 216.15 467.79688 216.4Q468.125 216.63437 468.60938 216.63437Q469.07812 216.63437 469.48438 216.4Q469.90625 216.15 470.07812 215.72812Q470.26562 215.30624 470.26562 214.50937L470.26562 211.18124L471.3125 211.18124L471.3125 217.4L470.375 217.4ZM473.25 219.79062L473.125 218.80624Q473.46875 218.9 473.73438 218.9Q474.07812 218.9 474.28125 218.775Q474.5 218.66562 474.64062 218.4625Q474.73438 218.29062 474.96875 217.66562Q474.98438 217.5875 475.0625 217.41562L472.6875 211.18124L473.82812 211.18124L475.125 214.775Q475.375 215.4625 475.57812 216.22812Q475.76562 215.49374 476.01562 214.80624L477.34375 211.18124L478.39062 211.18124L476.03125 217.50937Q475.64062 218.525 475.4375 218.91562Q475.15625 219.44687 474.78125 219.68124Q474.42188 219.93124 473.92188 219.93124Q473.625 219.93124 473.25 219.79062ZM482.54688 215.4L483.64062 215.525Q483.39062 216.47812 482.6875 217.00937Q481.98438 217.54062 480.90625 217.54062Q479.54688 217.54062 478.73438 216.69687Q477.9375 215.85312 477.9375 214.3375Q477.9375 212.775 478.75 211.91562Q479.5625 211.04062 480.84375 211.04062Q482.09375 211.04062 482.875 211.88437Q483.67188 212.72812 483.67188 214.275Q483.67188 214.36874 483.67188 214.55624L479.03125 214.55624Q479.09375 215.5875 479.60938 216.13437Q480.125 216.66562 480.90625 216.66562Q481.48438 216.66562 481.89062 216.36874Q482.3125 216.05624 482.54688 215.4ZM479.09375 213.69687L482.5625 213.69687Q482.5 212.9 482.17188 212.50937Q481.65625 211.9 480.85938 211.9Q480.125 211.9 479.625 212.38437Q479.14062 212.86874 479.09375 213.69687ZM480.82812 209.4L480.17188 210.4L478.95312 210.4L480.21875 208.75937L481.34375 208.75937L482.67188 210.4L481.46875 210.4L480.82812 209.4ZM481.34375 208.3375L480.48438 208.3375L479.14062 206.69687L480.54688 206.69687L481.34375 208.3375ZM485.29688 217.4L485.29688 211.18124L486.23438 211.18124L486.23438 212.05624Q486.92188 211.04062 488.21875 211.04062Q488.78125 211.04062 489.25 211.24374Q489.73438 211.44687 489.96875 211.775Q490.20312 212.10312 490.29688 212.54062Q490.34375 212.8375 490.34375 213.57187L490.34375 217.4L489.29688 217.4L489.29688 213.61874Q489.29688 212.9625 489.17188 212.65Q489.04688 212.3375 488.73438 212.15Q488.42188 211.94687 488.0 211.94687Q487.32812 211.94687 486.82812 212.38437Q486.34375 212.80624 486.34375 213.99374L486.34375 217.4L485.29688 217.4ZM497.59375 216.4625L497.75 217.38437Q497.29688 217.47812 496.95312 217.47812Q496.375 217.47812 496.0625 217.30624Q495.75 217.11874 495.60938 216.82187Q495.48438 216.525 495.48438 215.57187L495.48438 211.99374L494.71875 211.99374L494.71875 211.18124L495.48438 211.18124L495.48438 209.63437L496.53125 209.00937L496.53125 211.18124L497.59375 211.18124L497.59375 211.99374L496.53125 211.99374L496.53125 215.63437Q496.53125 216.0875 496.57812 216.2125Q496.64062 216.3375 496.76562 216.41562Q496.89062 216.49374 497.125 216.49374Q497.3125 216.49374 497.59375 216.4625ZM498.29688 217.4L498.29688 208.80624L499.34375 208.80624L499.34375 211.88437Q500.07812 211.04062 501.20312 211.04062Q501.90625 211.04062 502.40625 211.32187Q502.92188 211.5875 503.14062 212.07187Q503.35938 212.54062 503.35938 213.4625L503.35938 217.4L502.3125 217.4L502.3125 213.4625Q502.3125 212.66562 501.96875 212.30624Q501.625 211.94687 501.0 211.94687Q500.53125 211.94687 500.10938 212.19687Q499.70312 212.43124 499.51562 212.85312Q499.34375 213.25937 499.34375 213.99374L499.34375 217.4L498.29688 217.4ZM504.90625 214.29062Q504.90625 212.55624 505.85938 211.72812Q506.65625 211.04062 507.8125 211.04062Q509.09375 211.04062 509.90625 211.88437Q510.73438 212.7125 510.73438 214.19687Q510.73438 215.4 510.375 216.0875Q510.01562 216.775 509.3125 217.16562Q508.625 217.54062 507.8125 217.54062Q506.51562 217.54062 505.70312 216.7125Q504.90625 215.86874 504.90625 214.29062ZM505.98438 214.29062Q505.98438 215.47812 506.5 216.07187Q507.03125 216.66562 507.8125 216.66562Q508.60938 216.66562 509.125 216.07187Q509.64062 215.47812 509.64062 214.25937Q509.64062 213.10312 509.10938 212.50937Q508.59375 211.91562 507.8125 211.91562Q507.03125 211.91562 506.5 212.50937Q505.98438 213.0875 505.98438 214.29062ZM507.82812 209.4L507.17188 210.4L505.95312 210.4L507.21875 208.75937L508.34375 208.75937L509.67188 210.4L508.46875 210.4L507.82812 209.4ZM508.01562 206.69687L509.42188 206.69687L508.07812 208.3375L507.21875 208.3375L508.01562 206.69687ZM512.2969 217.4L512.2969 211.18124L513.2344 211.18124L513.2344 212.05624Q513.9219 211.04062 515.21875 211.04062Q515.78125 211.04062 516.25 211.24374Q516.7344 211.44687 516.96875 211.775Q517.2031 212.10312 517.2969 212.54062Q517.34375 212.8375 517.34375 213.57187L517.34375 217.4L516.2969 217.4L516.2969 213.61874Q516.2969 212.9625 516.1719 212.65Q516.0469 212.3375 515.7344 212.15Q515.4219 211.94687 515.0 211.94687Q514.3281 211.94687 513.8281 212.38437Q513.34375 212.80624 513.34375 213.99374L513.34375 217.4L512.2969 217.4ZM519.09375 217.91562L520.125 218.07187Q520.1875 218.54062 520.4844 218.75937Q520.875 219.05624 521.5469 219.05624Q522.28125 219.05624 522.6719 218.75937Q523.0781 218.4625 523.21875 217.94687Q523.3125 217.61874 523.2969 216.5875Q522.6094 217.4 521.5781 217.4Q520.2969 217.4 519.59375 216.47812Q518.8906 215.54062 518.8906 214.25937Q518.8906 213.36874 519.2031 212.61874Q519.53125 211.85312 520.1406 211.44687Q520.75 211.04062 521.5781 211.04062Q522.6875 211.04062 523.40625 211.93124L523.40625 211.18124L524.375 211.18124L524.375 216.55624Q524.375 218.00937 524.0781 218.61874Q523.78125 219.22812 523.1406 219.57187Q522.5 219.93124 521.5625 219.93124Q520.4531 219.93124 519.7656 219.43124Q519.0781 218.93124 519.09375 217.91562ZM519.96875 214.18124Q519.96875 215.4 520.4531 215.9625Q520.9375 216.525 521.6719 216.525Q522.40625 216.525 522.8906 215.9625Q523.3906 215.4 523.3906 214.2125Q523.3906 213.07187 522.875 212.49374Q522.375 211.91562 521.65625 211.91562Q520.9531 211.91562 520.4531 212.49374Q519.96875 213.05624 519.96875 214.18124Z" fill-rule="nonzero"/><path stroke="#0000ff" stroke-width="4.0" stroke-linecap="butt" d="M541.5 213.4L553.5 213.4" fill-rule="nonzero"/><path fill="#1a1a1a" d="M562.4219 217.4L562.4219 208.80624L565.6719 208.80624Q566.5156 208.80624 566.96875 208.88437Q567.6094 208.99374 568.03125 209.29062Q568.46875 209.5875 568.71875 210.11874Q568.9844 210.65 568.9844 211.29062Q568.9844 212.38437 568.28125 213.15Q567.59375 213.9 565.7656 213.9L563.5625 213.9L563.5625 217.4L562.4219 217.4ZM563.5625 212.9L565.78125 212.9Q566.8906 212.9 567.34375 212.49374Q567.8125 212.07187 567.8125 211.32187Q567.8125 210.79062 567.53125 210.41562Q567.2656 210.025 566.8281 209.9Q566.53125 209.82187 565.7656 209.82187L563.5625 209.82187L563.5625 212.9ZM570.2969 217.4L570.2969 208.80624L571.34375 208.80624L571.34375 211.88437Q572.0781 211.04062 573.2031 211.04062Q573.90625 211.04062 574.40625 211.32187Q574.9219 211.5875 575.1406 212.07187Q575.3594 212.54062 575.3594 213.4625L575.3594 217.4L574.3125 217.4L574.3125 213.4625Q574.3125 212.66562 573.96875 212.30624Q573.625 211.94687 573.0 211.94687Q572.53125 211.94687 572.1094 212.19687Q571.7031 212.43124 571.5156 212.85312Q571.34375 213.25937 571.34375 213.99374L571.34375 217.4L570.2969 217.4ZM583.0469 212.4L583.0469 211.18124L584.1719 211.18124L584.1719 212.15Q584.1719 213.05624 583.9531 213.43124Q583.4219 214.36874 582.3125 214.47812L582.3125 217.4L581.375 217.4L581.375 216.47812Q580.6406 217.54062 579.3906 217.54062Q578.84375 217.54062 578.3594 217.3375Q577.8906 217.11874 577.65625 216.80624Q577.4219 216.47812 577.3281 216.00937Q577.2656 215.69687 577.2656 215.025L577.2656 211.18124L578.3281 211.18124L578.3281 214.63437Q578.3281 215.4625 578.3906 215.74374Q578.59375 216.63437 579.6094 216.63437Q580.09375 216.63437 580.5 216.38437Q580.9219 216.13437 581.09375 215.72812Q581.2656 215.30624 581.2656 214.50937L581.2656 211.18124L582.3125 211.18124L582.3125 214.04062Q583.0625 213.9 583.4219 213.3375Q583.59375 213.0875 583.59375 212.4L583.0469 212.4ZM585.9844 214.29062Q585.9844 215.44687 586.5 216.07187Q587.0 216.66562 587.8125 216.66562Q588.6406 216.66562 589.125 216.07187Q589.6406 215.43124 589.6406 214.25937Q589.6406 213.13437 589.125 212.50937Q588.625 211.91562 587.8125 211.91562Q586.9844 211.91562 586.5 212.49374Q585.9844 213.13437 585.9844 214.29062ZM590.875 212.24374L590.875 211.025L592.0 211.025L592.0 211.99374Q592.0 212.7125 591.78125 213.10312Q591.4844 213.60312 590.7344 214.025Q590.7344 214.11874 590.7344 214.19687Q590.7344 216.38437 589.3281 217.16562Q588.625 217.54062 587.8125 217.54062Q586.4844 217.54062 585.7031 216.69687Q584.90625 215.8375 584.90625 214.29062Q584.90625 212.55624 585.8594 211.72812Q586.65625 211.04062 587.8125 211.04062Q589.09375 211.04062 589.9219 211.86874Q590.53125 212.50937 590.6875 213.525Q591.0781 213.275 591.25 213.00937Q591.4219 212.74374 591.4219 212.24374L590.875 212.24374ZM593.2969 217.4L593.2969 211.18124L594.2344 211.18124L594.2344 212.05624Q594.9219 211.04062 596.21875 211.04062Q596.78125 211.04062 597.25 211.24374Q597.7344 211.44687 597.96875 211.775Q598.2031 212.10312 598.2969 212.54062Q598.34375 212.8375 598.34375 213.57187L598.34375 217.4L597.2969 217.4L597.2969 213.61874Q597.2969 212.9625 597.1719 212.65Q597.0469 212.3375 596.7344 212.15Q596.4219 211.94687 596.0 211.94687Q595.3281 211.94687 594.8281 212.38437Q594.34375 212.80624 594.34375 213.99374L594.34375 217.4L593.2969 217.4ZM600.09375 217.91562L601.125 218.07187Q601.1875 218.54062 601.4844 218.75937Q601.875 219.05624 602.5469 219.05624Q603.28125 219.05624 603.6719 218.75937Q604.0781 218.4625 604.21875 217.94687Q604.3125 217.61874 604.2969 216.5875Q603.6094 217.4 602.5781 217.4Q601.2969 217.4 600.59375 216.47812Q599.8906 215.54062 599.8906 214.25937Q599.8906 213.36874 600.2031 212.61874Q600.53125 211.85312 601.1406 211.44687Q601.75 211.04062 602.5781 211.04062Q603.6875 211.04062 604.40625 211.93124L604.40625 211.18124L605.375 211.18124L605.375 216.55624Q605.375 218.00937 605.0781 218.61874Q604.78125 219.22812 604.1406 219.57187Q603.5 219.93124 602.5625 219.93124Q601.4531 219.93124 600.7656 219.43124Q600.0781 218.93124 600.09375 217.91562ZM600.96875 214.18124Q600.96875 215.4 601.4531 215.9625Q601.9375 216.525 602.6719 216.525Q603.40625 216.525 603.8906 215.9625Q604.3906 215.4 604.3906 214.2125Q604.3906 213.07187 603.875 212.49374Q603.375 211.91562 602.65625 211.91562Q601.9531 211.91562 601.4531 212.49374Q600.96875 213.05624 600.96875 214.18124ZM610.2969 219.79062L610.2969 211.18124L611.25 211.18124L611.25 211.97812Q611.59375 211.50937 612.0156 211.275Q612.4531 211.04062 613.0625 211.04062Q613.8594 211.04062 614.46875 211.44687Q615.0781 211.85312 615.375 212.60312Q615.6875 213.35312 615.6875 214.24374Q615.6875 215.19687 615.34375 215.9625Q615.0156 216.72812 614.3594 217.13437Q613.7031 217.54062 612.9844 217.54062Q612.4531 217.54062 612.03125 217.32187Q611.6094 217.0875 611.34375 216.75937L611.34375 219.79062L610.2969 219.79062ZM611.25 214.32187Q611.25 215.525 611.7344 216.10312Q612.21875 216.66562 612.90625 216.66562Q613.6094 216.66562 614.1094 216.07187Q614.6094 215.47812 614.6094 214.22812Q614.6094 213.04062 614.125 212.4625Q613.6406 211.86874 612.9531 211.86874Q612.28125 211.86874 611.7656 212.49374Q611.25 213.11874 611.25 214.32187ZM617.2969 217.4L617.2969 208.80624L618.34375 208.80624L618.34375 211.88437Q619.0781 211.04062 620.2031 211.04062Q620.90625 211.04062 621.40625 211.32187Q621.9219 211.5875 622.1406 212.07187Q622.3594 212.54062 622.3594 213.4625L622.3594 217.4L621.3125 217.4L621.3125 213.4625Q621.3125 212.66562 620.96875 212.30624Q620.625 211.94687 620.0 211.94687Q619.53125 211.94687 619.1094 212.19687Q618.7031 212.43124 618.5156 212.85312Q618.34375 213.25937 618.34375 213.99374L618.34375 217.4L617.2969 217.4ZM628.3594 216.63437Q627.7656 217.13437 627.21875 217.3375Q626.6875 217.54062 626.0625 217.54062Q625.03125 217.54062 624.4844 217.04062Q623.9375 216.54062 623.9375 215.75937Q623.9375 215.30624 624.1406 214.93124Q624.34375 214.54062 624.6875 214.32187Q625.03125 214.0875 625.4531 213.97812Q625.75 213.88437 626.3906 213.80624Q627.65625 213.66562 628.2656 213.44687Q628.2656 213.22812 628.2656 213.18124Q628.2656 212.525 627.96875 212.25937Q627.5625 211.91562 626.7656 211.91562Q626.03125 211.91562 625.6719 212.18124Q625.3125 212.43124 625.1406 213.0875L624.1094 212.94687Q624.25 212.29062 624.5781 211.88437Q624.90625 211.47812 625.5156 211.25937Q626.125 211.04062 626.9219 211.04062Q627.71875 211.04062 628.21875 211.22812Q628.71875 211.41562 628.9531 211.69687Q629.1875 211.97812 629.28125 212.41562Q629.3281 212.68124 629.3281 213.38437L629.3281 214.79062Q629.3281 216.25937 629.3906 216.65Q629.46875 217.04062 629.6719 217.4L628.5625 217.4Q628.40625 217.07187 628.3594 216.63437ZM628.2656 214.275Q627.6875 214.50937 626.5469 214.68124Q625.8906 214.775 625.625 214.9Q625.3594 215.00937 625.2031 215.22812Q625.0625 215.44687 625.0625 215.72812Q625.0625 216.15 625.375 216.43124Q625.7031 216.7125 626.3125 216.7125Q626.9219 216.7125 627.3906 216.44687Q627.875 216.18124 628.09375 215.7125Q628.2656 215.35312 628.2656 214.66562L628.2656 214.275ZM626.2031 210.4L626.9844 208.75937L628.375 208.75937L627.0781 210.4L626.2031 210.4ZM631.2969 219.79062L631.2969 211.18124L632.25 211.18124L632.25 211.97812Q632.59375 211.50937 633.0156 211.275Q633.4531 211.04062 634.0625 211.04062Q634.8594 211.04062 635.46875 211.44687Q636.0781 211.85312 636.375 212.60312Q636.6875 213.35312 636.6875 214.24374Q636.6875 215.19687 636.34375 215.9625Q636.0156 216.72812 635.3594 217.13437Q634.7031 217.54062 633.9844 217.54062Q633.4531 217.54062 633.03125 217.32187Q632.6094 217.0875 632.34375 216.75937L632.34375 219.79062L631.2969 219.79062ZM632.25 214.32187Q632.25 215.525 632.7344 216.10312Q633.21875 216.66562 633.90625 216.66562Q634.6094 216.66562 635.1094 216.07187Q635.6094 215.47812 635.6094 214.22812Q635.6094 213.04062 635.125 212.4625Q634.6406 211.86874 633.9531 211.86874Q633.28125 211.86874 632.7656 212.49374Q632.25 213.11874 632.25 214.32187ZM645.2656 210.25937L643.2344 210.25937L643.2344 209.47812L645.2656 209.47812L645.2656 208.80624L646.3125 208.80624L646.3125 209.47812L647.15625 209.47812L647.15625 210.25937L646.3125 210.25937L646.3125 217.4L645.3281 217.4L645.3281 216.61874Q644.7344 217.54062 643.59375 217.54062Q642.84375 217.54062 642.21875 217.13437Q641.59375 216.7125 641.25 215.97812Q640.90625 215.24374 640.90625 214.29062Q640.90625 213.36874 641.21875 212.60312Q641.53125 211.8375 642.15625 211.44687Q642.78125 211.04062 643.5469 211.04062Q644.1094 211.04062 644.5469 211.275Q644.9844 211.50937 645.2656 211.88437L645.2656 210.25937ZM642.0 214.29062Q642.0 215.49374 642.5 216.0875Q643.0 216.66562 643.6875 216.66562Q644.375 216.66562 644.8594 216.10312Q645.34375 215.54062 645.34375 214.38437Q645.34375 213.10312 644.84375 212.50937Q644.3594 211.91562 643.6406 211.91562Q642.9375 211.91562 642.46875 212.49374Q642.0 213.05624 642.0 214.29062ZM652.5469 215.4L653.6406 215.525Q653.3906 216.47812 652.6875 217.00937Q651.9844 217.54062 650.90625 217.54062Q649.5469 217.54062 648.7344 216.69687Q647.9375 215.85312 647.9375 214.3375Q647.9375 212.775 648.75 211.91562Q649.5625 211.04062 650.84375 211.04062Q652.09375 211.04062 652.875 211.88437Q653.6719 212.72812 653.6719 214.275Q653.6719 214.36874 653.6719 214.55624L649.03125 214.55624Q649.09375 215.5875 649.6094 216.13437Q650.125 216.66562 650.90625 216.66562Q651.4844 216.66562 651.8906 216.36874Q652.3125 216.05624 652.5469 215.4ZM649.09375 213.69687L652.5625 213.69687Q652.5 212.9 652.1719 212.50937Q651.65625 211.9 650.8594 211.9Q650.125 211.9 649.625 212.38437Q649.1406 212.86874 649.09375 213.69687ZM650.8281 209.4L650.1719 210.4L648.9531 210.4L650.21875 208.75937L651.34375 208.75937L652.6719 210.4L651.46875 210.4L650.8281 209.4ZM651.34375 208.3375L650.4844 208.3375L649.1406 206.69687L650.5469 206.69687L651.34375 208.3375ZM657.59375 217.4L659.8594 214.16562L657.7656 211.18124L659.0781 211.18124L660.03125 212.63437Q660.2969 213.05624 660.46875 213.3375Q660.71875 212.94687 660.9375 212.65L661.9844 211.18124L663.25 211.18124L661.09375 214.10312L663.40625 217.4L662.125 217.4L660.84375 215.4625L660.5 214.94687L658.8594 217.4L657.59375 217.4ZM667.375 217.4L667.375 216.47812Q666.6406 217.54062 665.3906 217.54062Q664.84375 217.54062 664.3594 217.3375Q663.8906 217.11874 663.65625 216.80624Q663.4219 216.47812 663.3281 216.00937Q663.2656 215.7125 663.2656 215.025L663.2656 211.18124L664.3281 211.18124L664.3281 214.63437Q664.3281 215.44687 664.3906 215.74374Q664.4844 216.15 664.7969 216.4Q665.125 216.63437 665.6094 216.63437Q666.0781 216.63437 666.4844 216.4Q666.90625 216.15 667.0781 215.72812Q667.2656 215.30624 667.2656 214.50937L667.2656 211.18124L668.3125 211.18124L668.3125 217.4L667.375 217.4ZM674.3594 216.63437Q673.7656 217.13437 673.21875 217.3375Q672.6875 217.54062 672.0625 217.54062Q671.03125 217.54062 670.4844 217.04062Q669.9375 216.54062 669.9375 215.75937Q669.9375 215.30624 670.1406 214.93124Q670.34375 214.54062 670.6875 214.32187Q671.03125 214.0875 671.4531 213.97812Q671.75 213.88437 672.3906 213.80624Q673.65625 213.66562 674.2656 213.44687Q674.2656 213.22812 674.2656 213.18124Q674.2656 212.525 673.96875 212.25937Q673.5625 211.91562 672.7656 211.91562Q672.03125 211.91562 671.6719 212.18124Q671.3125 212.43124 671.1406 213.0875L670.1094 212.94687Q670.25 212.29062 670.5781 211.88437Q670.90625 211.47812 671.5156 211.25937Q672.125 211.04062 672.9219 211.04062Q673.71875 211.04062 674.21875 211.22812Q674.71875 211.41562 674.9531 211.69687Q675.1875 211.97812 675.28125 212.41562Q675.3281 212.68124 675.3281 213.38437L675.3281 214.79062Q675.3281 216.25937 675.3906 216.65Q675.46875 217.04062 675.6719 217.4L674.5625 217.4Q674.40625 217.07187 674.3594 216.63437ZM674.2656 214.275Q673.6875 214.50937 672.5469 214.68124Q671.8906 214.775 671.625 214.9Q671.3594 215.00937 671.2031 215.22812Q671.0625 215.44687 671.0625 215.72812Q671.0625 216.15 671.375 216.43124Q671.7031 216.7125 672.3125 216.7125Q672.9219 216.7125 673.3906 216.44687Q673.875 216.18124 674.09375 215.7125Q674.2656 215.35312 674.2656 214.66562L674.2656 214.275ZM672.8125 209.4L672.15625 210.4L670.9375 210.4L672.2031 208.75937L673.3281 208.75937L674.65625 210.4L673.4531 210.4L672.8125 209.4ZM673.0 206.69687L674.40625 206.69687L673.0625 208.3375L672.2031 208.3375L673.0 206.69687ZM679.59375 216.4625L679.75 217.38437Q679.2969 217.47812 678.9531 217.47812Q678.375 217.47812 678.0625 217.30624Q677.75 217.11874 677.6094 216.82187Q677.4844 216.525 677.4844 215.57187L677.4844 211.99374L676.71875 211.99374L676.71875 211.18124L677.4844 211.18124L677.4844 209.63437L678.53125 209.00937L678.53125 211.18124L679.59375 211.18124L679.59375 211.99374L678.53125 211.99374L678.53125 215.63437Q678.53125 216.0875 678.5781 216.2125Q678.6406 216.3375 678.7656 216.41562Q678.8906 216.49374 679.125 216.49374Q679.3125 216.49374 679.59375 216.4625Z" fill-rule="nonzero"/></svg>