<svg version="1.1" viewBox="0.0 0.0 1038.0 232.0" fill="none" stroke="none" stroke-linecap="square" stroke-miterlimit="10" width="1038" height="232" xmlns:xlink="http://www.w3.org/1999/xlink" xmlns="http://www.w3.org/2000/svg"><path fill="#ffffff" d="M0 0L1038.0 0L1038.0 232.0L0 232.0L0 0Z" fill-rule="nonzero"/><path stroke="#333333" stroke-width="1.0" stroke-linecap="butt" d="M89.5 154.5L1026.5 154.5" fill-rule="nonzero"/><path stroke="#cccccc" stroke-width="1.0" stroke-linecap="butt" d="M89.5 127.5L1026.5 127.5" fill-rule="nonzero"/><path stroke="#cccccc" stroke-width="1.0" stroke-linecap="butt" d="M89.5 100.5L1026.5 100.5" fill-rule="nonzero"/><path stroke="#cccccc" stroke-width="1.0" stroke-linecap="butt" d="M89.5 73.5L1026.5 73.5" fill-rule="nonzero"/><path stroke="#cccccc" stroke-width="1.0" stroke-linecap="butt" d="M89.5 45.5L1026.5 45.5" fill-rule="nonzero"/><path stroke="#cccccc" stroke-width="1.0" stroke-linecap="butt" d="M89.5 18.5L1026.5 18.5" fill-rule="nonzero"/><clipPath id="id_0"><path d="M89.6 18.6L1026.4 18.6L1026.4 154.66667L89.6 154.66667L89.6 18.6Z" clip-rule="nonzero"/></clipPath><path stroke="#ff0000" stroke-width="2.0" stroke-linecap="butt" stroke-dasharray="2.0,3.0" clip-path="url(#id_0)" d="M110.89091 143.94135L153.47273 137.15178L196.05455 153.23256L238.63637 139.16231L281.21817 116.055695L323.8 151.45518L366.3818 118.86821L408.96362 146.93015L451.54544 151.76936L494.12726 147.45053L536.7091 141.84021L579.2909 152.1182L621.87274 146.46294L664.4545 145.9746L707.0364 141.61023L749.61816 132.62674L792.2 149.94016L834.7818 115.71555L877.36365 139.64062L919.94543 143.58965L962.5273 149.71436L1005.1091 100.094025" fill-rule="nonzero"/><path stroke="#0000ff" stroke-width="2.0" stroke-linecap="butt" clip-path="url(#id_0)" d="M110.89091 137.15178L153.47273 81.48288L196.05455 39.896217L238.63637 31.8407L281.21817 125.67824L323.8 143.94135L366.3818 133.63896L408.96362 153.31494L451.54544 134.3625L494.12726 153.2673L536.7091 152.61723L579.2909 153.5333L621.87274 153.34154L664.4545 152.40967L707.0364 152.40002L749.61816 152.71637L792.2 153.6469L834.7818 152.62715L877.36365 153.12538L919.94543 66.959274L962.5273 116.045975L1005.1091 84.4037" fill-rule="nonzero"/><path fill="#000000" fill-opacity="0.0" clip-path="url(#id_0)" d="M113.89091 143.94135C113.89091 145.59819 112.54776 146.94135 110.89091 146.94135C109.234055 146.94135 107.89091 145.59819 107.89091 143.94135C107.89091 142.28448 109.234055 140.94135 110.89091 140.94135C112.54776 140.94135 113.89091 142.28448 113.89091 143.94135Z" fill-rule="nonzero"/><path fill="#000000" fill-opacity="0.0" clip-path="url(#id_0)" d="M156.47273 137.15178C156.47273 138.80862 155.12958 140.15178 153.47273 140.15178C151.81587 140.15178 150.47273 138.80862 150.47273 137.15178C150.47273 135.49492 151.81587 134.15178 153.47273 134.15178C155.12958 134.15178 156.47273 135.49492 156.47273 137.15178Z" fill-rule="nonzero"/><path fill="#000000" fill-opacity="0.0" clip-path="url(#id_0)" d="M199.05455 153.23256C199.05455 154.8894 197.7114 156.23256 196.05455 156.23256C194.39769 156.23256 193.05455 154.8894 193.05455 153.23256C193.05455 151.5757 194.39769 150.23256 196.05455 150.23256C197.7114 150.23256 199.05455 151.5757 199.05455 153.23256Z" fill-rule="nonzero"/><path fill="#000000" fill-opacity="0.0" clip-path="url(#id_0)" d="M241.63637 139.16231C241.63637 140.81915 240.29321 142.16231 238.63637 142.16231C236.9795 142.16231 235.63637 140.81915 235.63637 139.16231C235.63637 137.50545 236.9795 136.16231 238.63637 136.16231C240.29321 136.16231 241.63637 137.50545 241.63637 139.16231Z" fill-rule="nonzero"/><path fill="#000000" fill-opacity="0.0" clip-path="url(#id_0)" d="M284.21817 116.055695C284.21817 117.712555 282.87503 119.055695 281.21817 119.055695C279.56134 119.055695 278.21817 117.712555 278.21817 116.055695C278.21817 114.39884 279.56134 113.055695 281.21817 113.055695C282.87503 113.055695 284.21817 114.39884 284.21817 116.055695Z" fill-rule="nonzero"/><path fill="#000000" fill-opacity="0.0" clip-path="url(#id_0)" d="M326.8 151.45518C326.8 153.11205 325.45685 154.45518 323.8 154.45518C322.14316 154.45518 320.8 153.11205 320.8 151.45518C320.8 149.79832 322.14316 148.45518 323.8 148.45518C325.45685 148.45518 326.8 149.79832 326.8 151.45518Z" fill-rule="nonzero"/><path fill="#000000" fill-opacity="0.0" clip-path="url(#id_0)" d="M369.3818 118.86821C369.3818 120.52506 368.03867 121.86821 366.3818 121.86821C364.72498 121.86821 363.3818 120.52506 363.3818 118.86821C363.3818 117.21135 364.72498 115.86821 366.3818 115.86821C368.03867 115.86821 369.3818 117.21135 369.3818 118.86821Z" fill-rule="nonzero"/><path fill="#000000" fill-opacity="0.0" clip-path="url(#id_0)" d="M411.96362 146.93015C411.96362 148.587 410.62048 149.93015 408.96362 149.93015C407.3068 149.93015 405.96362 148.587 405.96362 146.93015C405.96362 145.2733 407.3068 143.93015 408.96362 143.93015C410.62048 143.93015 411.96362 145.2733 411.96362 146.93015Z" fill-rule="nonzero"/><path fill="#000000" fill-opacity="0.0" clip-path="url(#id_0)" d="M454.54544 151.76936C454.54544 153.42621 453.2023 154.76936 451.54544 154.76936C449.8886 154.76936 448.54544 153.42621 448.54544 151.76936C448.54544 150.1125 449.8886 148.76936 451.54544 148.76936C453.2023 148.76936 454.54544 150.1125 454.54544 151.76936Z" fill-rule="nonzero"/><path fill="#000000" fill-opacity="0.0" clip-path="url(#id_0)" d="M497.12726 147.45053C497.12726 149.10739 495.78412 150.45053 494.12726 150.45053C492.47043 150.45053 491.12726 149.10739 491.12726 147.45053C491.12726 145.79367 492.47043 144.45053 494.12726 144.45053C495.78412 144.45053 497.12726 145.79367 497.12726 147.45053Z" fill-rule="nonzero"/><path fill="#000000" fill-opacity="0.0" clip-path="url(#id_0)" d="M539.7091 141.84021C539.7091 143.49706 538.36597 144.84021 536.7091 144.84021C535.05225 144.84021 533.7091 143.49706 533.7091 141.84021C533.7091 140.18335 535.05225 138.84021 536.7091 138.84021C538.36597 138.84021 539.7091 140.18335 539.7091 141.84021Z" fill-rule="nonzero"/><path fill="#000000" fill-opacity="0.0" clip-path="url(#id_0)" d="M582.2909 152.1182C582.2909 153.77505 580.94775 155.1182 579.2909 155.1182C577.63403 155.1182 576.2909 153.77505 576.2909 152.1182C576.2909 150.46135 577.63403 149.1182 579.2909 149.1182C580.94775 149.1182 582.2909 150.46135 582.2909 152.1182Z" fill-rule="nonzero"/><path fill="#000000" fill-opacity="0.0" clip-path="url(#id_0)" d="M624.87274 146.46294C624.87274 148.11978 623.5296 149.46294 621.87274 149.46294C620.2159 149.46294 618.87274 148.11978 618.87274 146.46294C618.87274 144.80608 620.2159 143.46294 621.87274 143.46294C623.5296 143.46294 624.87274 144.80608 624.87274 146.46294Z" fill-rule="nonzero"/><path fill="#000000" fill-opacity="0.0" clip-path="url(#id_0)" d="M667.4545 145.9746C667.4545 147.63144 666.1114 148.9746 664.4545 148.9746C662.79767 148.9746 661.4545 147.63144 661.4545 145.9746C661.4545 144.31773 662.79767 142.9746 664.4545 142.9746C666.1114 142.9746 667.4545 144.31773 667.4545 145.9746Z" fill-rule="nonzero"/><path fill="#000000" fill-opacity="0.0" clip-path="url(#id_0)" d="M710.0364 141.61023C710.0364 143.26709 708.69324 144.61023 707.0364 144.61023C705.3795 144.61023 704.0364 143.26709 704.0364 141.61023C704.0364 139.95337 705.3795 138.61023 707.0364 138.61023C708.69324 138.61023 710.0364 139.95337 710.0364 141.61023Z" fill-rule="nonzero"/><path fill="#000000" fill-opacity="0.0" clip-path="url(#id_0)" d="M752.61816 132.62674C752.61816 134.28358 751.275 135.62674 749.61816 135.62674C747.9613 135.62674 746.61816 134.28358 746.61816 132.62674C746.61816 130.96988 747.9613 129.62674 749.61816 129.62674C751.275 129.62674 752.61816 130.96988 752.61816 132.62674Z" fill-rule="nonzero"/><path fill="#000000" fill-opacity="0.0" clip-path="url(#id_0)" d="M795.2 149.94016C795.2 151.59702 793.8569 152.94016 792.2 152.94016C790.54315 152.94016 789.2 151.59702 789.2 149.94016C789.2 148.28331 790.54315 146.94016 792.2 146.94016C793.8569 146.94016 795.2 148.28331 795.2 149.94016Z" fill-rule="nonzero"/><path fill="#000000" fill-opacity="0.0" clip-path="url(#id_0)" d="M837.7818 115.71555C837.7818 117.372406 836.43866 118.71555 834.7818 118.71555C833.12494 118.71555 831.7818 117.372406 831.7818 115.71555C831.7818 114.0587 833.12494 112.71555 834.7818 112.71555C836.43866 112.71555 837.7818 114.0587 837.7818 115.71555Z" fill-rule="nonzero"/><path fill="#000000" fill-opacity="0.0" clip-path="url(#id_0)" d="M880.36365 139.64062C880.36365 141.29747 879.0205 142.64062 877.36365 142.64062C875.7068 142.64062 874.36365 141.29747 874.36365 139.64062C874.36365 137.98376 875.7068 136.64062 877.36365 136.64062C879.0205 136.64062 880.36365 137.98376 880.36365 139.64062Z" fill-rule="nonzero"/><path fill="#000000" fill-opacity="0.0" clip-path="url(#id_0)" d="M922.94543 143.58965C922.94543 145.24649 921.6023 146.58965 919.94543 146.58965C918.2886 146.58965 916.94543 145.24649 916.94543 143.58965C916.94543 141.93279 918.2886 140.58965 919.94543 140.58965C921.6023 140.58965 922.94543 141.93279 922.94543 143.58965Z" fill-rule="nonzero"/><path fill="#000000" fill-opacity="0.0" clip-path="url(#id_0)" d="M965.5273 149.71436C965.5273 151.3712 964.18414 152.71436 962.5273 152.71436C960.8704 152.71436 959.5273 151.3712 959.5273 149.71436C959.5273 148.0575 960.8704 146.71436 962.5273 146.71436C964.18414 146.71436 965.5273 148.0575 965.5273 149.71436Z" fill-rule="nonzero"/><path fill="#000000" fill-opacity="0.0" clip-path="url(#id_0)" d="M1008.1091 100.094025C1008.1091 101.75088 1006.7659 103.094025 1005.1091 103.094025C1003.4522 103.094025 1002.1091 101.75088 1002.1091 100.094025C1002.1091 98.43717 1003.4522 97.094025 1005.1091 97.094025C1006.7659 97.094025 1008.1091 98.43717 1008.1091 100.094025Z" fill-rule="nonzero"/><path fill="#000000" fill-opacity="0.0" clip-path="url(#id_0)" d="M113.89091 137.15178C113.89091 138.80862 112.54776 140.15178 110.89091 140.15178C109.234055 140.15178 107.89091 138.80862 107.89091 137.15178C107.89091 135.49492 109.234055 134.15178 110.89091 134.15178C112.54776 134.15178 113.89091 135.49492 113.89091 137.15178Z" fill-rule="nonzero"/><path fill="#000000" fill-opacity="0.0" clip-path="url(#id_0)" d="M156.47273 81.48288C156.47273 83.13973 155.12958 84.48288 153.47273 84.48288C151.81587 84.48288 150.47273 83.13973 150.47273 81.48288C150.47273 79.82603 151.81587 78.48288 153.47273 78.48288C155.12958 78.48288 156.47273 79.82603 156.47273 81.48288Z" fill-rule="nonzero"/><path fill="#000000" fill-opacity="0.0" clip-path="url(#id_0)" d="M199.05455 39.896217C199.05455 41.553074 197.7114 42.896217 196.05455 42.896217C194.39769 42.896217 193.05455 41.553074 193.05455 39.896217C193.05455 38.239365 194.39769 36.896217 196.05455 36.896217C197.7114 36.896217 199.05455 38.239365 199.05455 39.896217Z" fill-rule="nonzero"/><path fill="#000000" fill-opacity="0.0" clip-path="url(#id_0)" d="M241.63637 31.8407C241.63637 33.497555 240.29321 34.840702 238.63637 34.840702C236.9795 34.840702 235.63637 33.497555 235.63637 31.8407C235.63637 30.183846 236.9795 28.8407 238.63637 28.8407C240.29321 28.8407 241.63637 30.183846 241.63637 31.8407Z" fill-rule="nonzero"/><path fill="#000000" fill-opacity="0.0" clip-path="url(#id_0)" d="M284.21817 125.67824C284.21817 127.33509 282.87503 128.67824 281.21817 128.67824C279.56134 128.67824 278.21817 127.33509 278.21817 125.67824C278.21817 124.021385 279.56134 122.67824 281.21817 122.67824C282.87503 122.67824 284.21817 124.021385 284.21817 125.67824Z" fill-rule="nonzero"/><path fill="#000000" fill-opacity="0.0" clip-path="url(#id_0)" d="M326.8 143.94135C326.8 145.59819 325.45685 146.94135 323.8 146.94135C322.14316 146.94135 320.8 145.59819 320.8 143.94135C320.8 142.28448 322.14316 140.94135 323.8 140.94135C325.45685 140.94135 326.8 142.28448 326.8 143.94135Z" fill-rule="nonzero"/><path fill="#000000" fill-opacity="0.0" clip-path="url(#id_0)" d="M369.3818 133.63896C369.3818 135.2958 368.03867 136.63896 366.3818 136.63896C364.72498 136.63896 363.3818 135.2958 363.3818 133.63896C363.3818 131.9821 364.72498 130.63896 366.3818 130.63896C368.03867 130.63896 369.3818 131.9821 369.3818 133.63896Z" fill-rule="nonzero"/><path fill="#000000" fill-opacity="0.0" clip-path="url(#id_0)" d="M411.96362 153.31494C411.96362 154.9718 410.62048 156.31494 408.96362 156.31494C407.3068 156.31494 405.96362 154.9718 405.96362 153.31494C405.96362 151.65808 407.3068 150.31494 408.96362 150.31494C410.62048 150.31494 411.96362 151.65808 411.96362 153.31494Z" fill-rule="nonzero"/><path fill="#000000" fill-opacity="0.0" clip-path="url(#id_0)" d="M454.54544 134.3625C454.54544 136.01935 453.2023 137.3625 451.54544 137.3625C449.8886 137.3625 448.54544 136.01935 448.54544 134.3625C448.54544 132.70564 449.8886 131.3625 451.54544 131.3625C453.2023 131.3625 454.54544 132.70564 454.54544 134.3625Z" fill-rule="nonzero"/><path fill="#000000" fill-opacity="0.0" clip-path="url(#id_0)" d="M497.12726 153.2673C497.12726 154.92416 495.78412 156.2673 494.12726 156.2673C492.47043 156.2673 491.12726 154.92416 491.12726 153.2673C491.12726 151.61046 492.47043 150.2673 494.12726 150.2673C495.78412 150.2673 497.12726 151.61046 497.12726 153.2673Z" fill-rule="nonzero"/><path fill="#000000" fill-opacity="0.0" clip-path="url(#id_0)" d="M539.7091 152.61723C539.7091 154.2741 538.36597 155.61723 536.7091 155.61723C535.05225 155.61723 533.7091 154.2741 533.7091 152.61723C533.7091 150.96039 535.05225 149.61723 536.7091 149.61723C538.36597 149.61723 539.7091 150.96039 539.7091 152.61723Z" fill-rule="nonzero"/><path fill="#000000" fill-opacity="0.0" clip-path="url(#id_0)" d="M582.2909 153.5333C582.2909 155.19016 580.94775 156.5333 579.2909 156.5333C577.63403 156.5333 576.2909 155.19016 576.2909 153.5333C576.2909 151.87643 577.63403 150.5333 579.2909 150.5333C580.94775 150.5333 582.2909 151.87643 582.2909 153.5333Z" fill-rule="nonzero"/><path fill="#000000" fill-opacity="0.0" clip-path="url(#id_0)" d="M624.87274 153.34154C624.87274 154.9984 623.5296 156.34154 621.87274 156.34154C620.2159 156.34154 618.87274 154.9984 618.87274 153.34154C618.87274 151.68468 620.2159 150.34154 621.87274 150.34154C623.5296 150.34154 624.87274 151.68468 624.87274 153.34154Z" fill-rule="nonzero"/><path fill="#000000" fill-opacity="0.0" clip-path="url(#id_0)" d="M667.4545 152.40967C667.4545 154.06653 666.1114 155.40967 664.4545 155.40967C662.79767 155.40967 661.4545 154.06653 661.4545 152.40967C661.4545 150.75282 662.79767 149.40967 664.4545 149.40967C666.1114 149.40967 667.4545 150.75282 667.4545 152.40967Z" fill-rule="nonzero"/><path fill="#000000" fill-opacity="0.0" clip-path="url(#id_0)" d="M710.0364 152.40002C710.0364 154.05687 708.69324 155.40002 707.0364 155.40002C705.3795 155.40002 704.0364 154.05687 704.0364 152.40002C704.0364 150.74316 705.3795 149.40002 707.0364 149.40002C708.69324 149.40002 710.0364 150.74316 710.0364 152.40002Z" fill-rule="nonzero"/><path fill="#000000" fill-opacity="0.0" clip-path="url(#id_0)" d="M752.61816 152.71637C752.61816 154.37321 751.275 155.71637 749.61816 155.71637C747.9613 155.71637 746.61816 154.37321 746.61816 152.71637C746.61816 151.05951 747.9613 149.71637 749.61816 149.71637C751.275 149.71637 752.61816 151.05951 752.61816 152.71637Z" fill-rule="nonzero"/><path fill="#000000" fill-opacity="0.0" clip-path="url(#id_0)" d="M795.2 153.6469C795.2 155.30374 793.8569 156.6469 792.2 156.6469C790.54315 156.6469 789.2 155.30374 789.2 153.6469C789.2 151.99004 790.54315 150.6469 792.2 150.6469C793.8569 150.6469 795.2 151.99004 795.2 153.6469Z" fill-rule="nonzero"/><path fill="#000000" fill-opacity="0.0" clip-path="url(#id_0)" d="M837.7818 152.62715C837.7818 154.28401 836.43866 155.62715 834.7818 155.62715C833.12494 155.62715 831.7818 154.28401 831.7818 152.62715C831.7818 150.9703 833.12494 149.62715 834.7818 149.62715C836.43866 149.62715 837.7818 150.9703 837.7818 152.62715Z" fill-rule="nonzero"/><path fill="#000000" fill-opacity="0.0" clip-path="url(#id_0)" d="M880.36365 153.12538C880.36365 154.78224 879.0205 156.12538 877.36365 156.12538C875.7068 156.12538 874.36365 154.78224 874.36365 153.12538C874.36365 151.46852 875.7068 150.12538 877.36365 150.12538C879.0205 150.12538 880.36365 151.46852 880.36365 153.12538Z" fill-rule="nonzero"/><path fill="#000000" fill-opacity="0.0" clip-path="url(#id_0)" d="M922.94543 66.959274C922.94543 68.61613 921.6023 69.959274 919.94543 69.959274C918.2886 69.959274 916.94543 68.61613 916.94543 66.959274C916.94543 65.30242 918.2886 63.959274 919.94543 63.959274C921.6023 63.959274 922.94543 65.30242 922.94543 66.959274Z" fill-rule="nonzero"/><path fill="#000000" fill-opacity="0.0" clip-path="url(#id_0)" d="M965.5273 116.045975C965.5273 117.70283 964.18414 119.045975 962.5273 119.045975C960.8704 119.045975 959.5273 117.70283 959.5273 116.045975C959.5273 114.389114 960.8704 113.045975 962.5273 113.045975C964.18414 113.045975 965.5273 114.389114 965.5273 116.045975Z" fill-rule="nonzero"/><path fill="#000000" fill-opacity="0.0" clip-path="url(#id_0)" d="M1008.1091 84.4037C1008.1091 86.060555 1006.7659 87.4037 1005.1091 87.4037C1003.4522 87.4037 1002.1091 86.060555 1002.1091 84.4037C1002.1091 82.74685 1003.4522 81.4037 1005.1091 81.4037C1006.7659 81.4037 1008.1091 82.74685 1008.1091 84.4037Z" fill-rule="nonzero"/><path fill="#000000" d="M509.57812 195.66667L509.57812 191.10417L508.48438 191.10417L508.48438 190.19792L509.57812 190.19792L509.57812 185.65105L513.0469 185.65105Q514.2031 185.65105 514.8125 185.79167Q515.6719 185.97917 516.28125 186.51042Q517.0781 187.1823 517.46875 188.22917Q517.8594 189.26042 517.8594 190.60417Q517.8594 192.13542 517.375 193.2448Q516.8906 194.33855 516.21875 194.83855Q515.5469 195.33855 514.65625 195.5573Q514.1719 195.66667 513.2031 195.66667L509.57812 195.66667ZM510.90625 194.47917L513.0469 194.47917Q514.0469 194.47917 514.6094 194.3073Q515.1719 194.1198 515.5 193.79167Q515.96875 193.3073 516.2344 192.52605Q516.5 191.72917 516.5 190.58855Q516.5 189.41667 516.2344 188.71355Q515.96875 188.01042 515.5469 187.58855Q515.125 187.15105 514.59375 186.9948Q514.0781 186.82292 513.0156 186.82292L510.90625 186.82292L510.90625 190.19792L513.6719 190.19792L513.6719 191.10417L510.90625 191.10417L510.90625 194.47917ZM520.2344 192.04167Q520.2344 193.38542 520.84375 194.1198Q521.40625 194.82292 522.375 194.82292Q523.3281 194.82292 523.8906 194.1198Q524.5 193.3698 524.5 191.9948Q524.5 190.6823 523.8906 189.96355Q523.3125 189.26042 522.375 189.26042Q521.40625 189.26042 520.84375 189.94792Q520.2344 190.6823 520.2344 192.04167ZM525.9375 189.65105L525.9375 188.22917L527.25 188.22917L527.25 189.35417Q527.25 190.19792 526.9844 190.65105Q526.65625 191.2448 525.7656 191.72917Q525.7656 191.83855 525.7656 191.9323Q525.7656 194.47917 524.125 195.38542Q523.3125 195.83855 522.375 195.83855Q520.8125 195.83855 519.90625 194.85417Q518.96875 193.83855 518.96875 192.04167Q518.96875 190.02605 520.09375 189.04167Q521.0156 188.2448 522.375 188.2448Q523.8594 188.2448 524.8125 189.21355Q525.53125 189.96355 525.71875 191.13542Q526.1719 190.85417 526.375 190.5573Q526.5781 190.2448 526.5781 189.65105L525.9375 189.65105ZM528.4219 195.66667L528.4219 188.40105L529.53125 188.40105L529.53125 189.4323Q530.3281 188.2448 531.84375 188.2448Q532.5 188.2448 533.0469 188.47917Q533.59375 188.71355 533.8594 189.10417Q534.1406 189.47917 534.25 190.01042Q534.3281 190.35417 534.3281 191.19792L534.3281 195.66667L533.09375 195.66667L533.09375 191.2448Q533.09375 190.4948 532.9531 190.13542Q532.8125 189.76042 532.4375 189.54167Q532.0781 189.3073 531.5781 189.3073Q530.7969 189.3073 530.21875 189.8073Q529.65625 190.3073 529.65625 191.69792L529.65625 195.66667L528.4219 195.66667ZM542.4375 195.66667L539.6719 188.40105L540.9844 188.40105L542.53125 192.76042Q542.78125 193.46355 543.0 194.21355Q543.1719 193.63542 543.4531 192.83855L545.0781 188.40105L546.34375 188.40105L543.59375 195.66667L542.4375 195.66667ZM547.4375 187.0573L547.4375 185.65105L548.65625 185.65105L548.65625 187.0573L547.4375 187.0573ZM547.4375 195.66667L547.4375 188.40105L548.65625 188.40105L548.65625 195.66667L547.4375 195.66667ZM547.34375 197.88542L547.34375 196.4948L548.75 196.4948L548.75 197.88542L547.34375 197.88542ZM554.4375 195.66667L554.4375 185.65105L555.65625 185.65105L555.65625 191.35417L558.5781 188.40105L560.1719 188.40105L557.3906 191.10417L560.4531 195.66667L558.9219 195.66667L556.53125 191.94792L555.65625 192.79167L555.65625 195.66667L554.4375 195.66667ZM561.4375 187.0573L561.4375 185.65105L562.65625 185.65105L562.65625 187.0573L561.4375 187.0573ZM561.4375 195.66667L561.4375 188.40105L562.65625 188.40105L562.65625 195.66667L561.4375 195.66667ZM569.3906 193.32292L570.6719 193.47917Q570.3594 194.60417 569.5469 195.22917Q568.7344 195.83855 567.46875 195.83855Q565.875 195.83855 564.9375 194.85417Q564.0156 193.8698 564.0156 192.10417Q564.0156 190.26042 564.9531 189.26042Q565.90625 188.2448 567.40625 188.2448Q568.8594 188.2448 569.78125 189.2448Q570.7031 190.22917 570.7031 192.02605Q570.7031 192.13542 570.7031 192.35417L565.28125 192.35417Q565.3594 193.54167 565.9531 194.1823Q566.5625 194.82292 567.4844 194.82292Q568.15625 194.82292 568.625 194.46355Q569.1094 194.10417 569.3906 193.32292ZM565.3594 191.33855L569.40625 191.33855Q569.3281 190.41667 568.9375 189.96355Q568.3594 189.26042 567.4219 189.26042Q566.5625 189.26042 565.9844 189.82292Q565.4219 190.38542 565.3594 191.33855ZM567.3906 186.33855L566.6094 187.51042L565.2031 187.51042L566.6719 185.58855L567.9844 185.58855L569.53125 187.51042L568.1406 187.51042L567.3906 186.33855ZM566.9844 184.5573Q567.375 184.52605 567.4844 184.4948Q567.84375 184.40105 567.84375 184.21355Q567.8594 184.0573 567.65625 183.94792Q567.375 183.79167 566.75 183.79167Q566.53125 183.79167 566.1094 183.8073L566.03125 183.16667Q566.2969 183.1198 567.0156 183.1198Q567.8594 183.13542 568.3906 183.40105Q568.96875 183.6823 568.9844 184.13542Q569.0156 184.83855 567.75 184.9948L567.75 185.32292L566.9844 185.32292L566.9844 184.5573ZM572.4219 195.66667L572.4219 188.40105L573.53125 188.40105L573.53125 189.4323Q573.8594 188.88542 574.4219 188.57292Q575.0 188.2448 575.71875 188.2448Q576.53125 188.2448 577.0469 188.58855Q577.5625 188.91667 577.78125 189.51042Q578.6406 188.2448 580.0156 188.2448Q581.09375 188.2448 581.6719 188.83855Q582.2656 189.4323 582.2656 190.6823L582.2656 195.66667L581.03125 195.66667L581.03125 191.08855Q581.03125 190.35417 580.90625 190.02605Q580.7969 189.69792 580.4844 189.51042Q580.1719 189.3073 579.75 189.3073Q578.9844 189.3073 578.46875 189.82292Q577.96875 190.32292 577.96875 191.44792L577.96875 195.66667L576.7344 195.66667L576.7344 190.94792Q576.7344 190.13542 576.4375 189.72917Q576.1406 189.3073 575.4531 189.3073Q574.9375 189.3073 574.4844 189.58855Q574.0469 189.85417 573.84375 190.38542Q573.65625 190.90105 573.65625 191.90105L573.65625 195.66667L572.4219 195.66667ZM590.1094 194.57292L590.28125 195.65105Q589.7656 195.76042 589.3594 195.76042Q588.6875 195.76042 588.3125 195.5573Q587.9531 195.33855 587.7969 194.9948Q587.65625 194.65105 587.65625 193.54167L587.65625 189.3698L586.75 189.3698L586.75 188.40105L587.65625 188.40105L587.65625 186.60417L588.875 185.8698L588.875 188.40105L590.1094 188.40105L590.1094 189.3698L588.875 189.3698L588.875 193.60417Q588.875 194.13542 588.9375 194.29167Q589.0 194.4323 589.1406 194.52605Q589.2969 194.6198 589.5625 194.6198Q589.78125 194.6198 590.1094 194.57292ZM591.4219 195.66667L591.4219 185.65105L592.65625 185.65105L592.65625 189.2448Q593.5156 188.2448 594.8281 188.2448Q595.6406 188.2448 596.2344 188.57292Q596.8281 188.88542 597.0781 189.44792Q597.34375 189.9948 597.34375 191.07292L597.34375 195.66667L596.1094 195.66667L596.1094 191.07292Q596.1094 190.13542 595.7031 189.72917Q595.3125 189.3073 594.5781 189.3073Q594.03125 189.3073 593.5469 189.58855Q593.0625 189.8698 592.8594 190.35417Q592.65625 190.83855 592.65625 191.69792L592.65625 195.66667L591.4219 195.66667ZM606.125 189.83855L606.125 188.40105L607.4531 188.40105L607.4531 189.54167Q607.4531 190.60417 607.2031 191.02605Q606.5781 192.1198 605.28125 192.26042L605.28125 195.66667L604.1875 195.66667L604.1875 194.60417Q603.3281 195.83855 601.875 195.83855Q601.2344 195.83855 600.6719 195.58855Q600.125 195.33855 599.84375 194.96355Q599.5781 194.58855 599.46875 194.0573Q599.3906 193.6823 599.3906 192.90105L599.3906 188.40105L600.625 188.40105L600.625 192.4323Q600.625 193.41667 600.7031 193.72917Q600.9375 194.77605 602.125 194.77605Q602.6875 194.77605 603.1719 194.4948Q603.65625 194.19792 603.84375 193.71355Q604.0469 193.22917 604.0469 192.29167L604.0469 188.40105L605.28125 188.40105L605.28125 191.7448Q606.15625 191.58855 606.5781 190.9323Q606.7656 190.63542 606.7656 189.83855L606.125 189.83855ZM601.9531 186.6823Q602.34375 186.63542 602.4531 186.60417Q602.8125 186.47917 602.8281 186.22917Q602.8281 186.07292 602.625 185.96355Q602.34375 185.8073 601.71875 185.8073Q601.5156 185.8073 601.0781 185.82292L601.0 185.13542Q601.2656 185.07292 601.9844 185.08855Q602.8281 185.08855 603.3594 185.35417Q603.9531 185.65105 603.96875 186.15105Q604.0 187.01042 602.71875 187.16667L602.71875 187.51042L601.9531 187.51042L601.9531 186.6823Z" fill-rule="nonzero"/><path fill="#000000" d="M24.600004 152.60208L14.58438 152.60208L14.58438 148.85208Q14.58438 147.69583 14.89688 147.00833Q15.193755 146.3052 15.818755 145.91458Q16.443754 145.52396 17.14688 145.52396Q17.787504 145.52396 18.350004 145.88333Q18.912504 146.22708 19.27188 146.9302Q19.537504 146.02396 20.17813 145.53958Q20.818754 145.03958 21.693754 145.03958Q22.39688 145.03958 23.006254 145.33646Q23.61563 145.63333 23.943754 146.07083Q24.27188 146.50833 24.443754 147.1802Q24.600004 147.83646 24.600004 148.78958L24.600004 152.60208ZM18.787504 151.27396L18.787504 149.1177Q18.787504 148.22708 18.67813 147.85208Q18.52188 147.33646 18.17813 147.08646Q17.818754 146.83646 17.30313 146.83646Q16.80313 146.83646 16.42813 147.07083Q16.037504 147.3052 15.89688 147.75833Q15.756255 148.19583 15.756255 149.27396L15.756255 151.27396L18.787504 151.27396ZM23.412504 151.27396L23.412504 148.78958Q23.412504 148.14896 23.36563 147.88333Q23.287504 147.4302 23.100004 147.1177Q22.89688 146.8052 22.537504 146.6177Q22.17813 146.41458 21.693754 146.41458Q21.131254 146.41458 20.725004 146.71146Q20.30313 146.9927 20.14688 147.50833Q19.975004 148.00833 19.975004 148.96146L19.975004 151.27396L23.412504 151.27396ZM20.975004 144.16458Q18.95938 144.16458 17.975004 143.03958Q17.17813 142.1177 17.17813 140.75833Q17.17813 139.27396 18.162504 138.32083Q19.131254 137.3677 20.86563 137.3677Q22.27188 137.3677 23.08438 137.78958Q23.881254 138.21146 24.33438 139.02396Q24.77188 139.82083 24.77188 140.75833Q24.77188 142.28958 23.787504 143.22708Q22.80313 144.16458 20.975004 144.16458ZM20.975004 142.89896Q22.36563 142.89896 23.068754 142.28958Q23.756254 141.6802 23.756254 140.75833Q23.756254 139.85208 23.05313 139.2427Q22.350004 138.63333 20.92813 138.63333Q19.58438 138.63333 18.89688 139.2427Q18.193754 139.85208 18.193754 140.75833Q18.193754 141.6802 18.881254 142.28958Q19.568754 142.89896 20.975004 142.89896ZM15.27188 140.7427L16.443754 141.52396L16.443754 142.9302L14.52188 141.46146L14.52188 140.14896L16.443754 138.60208L16.443754 139.9927L15.27188 140.7427ZM26.818754 141.50833L25.42813 141.50833L25.42813 140.10208L26.818754 140.10208L26.818754 141.50833ZM24.600004 131.71146L17.33438 131.71146L17.33438 130.60208L18.36563 130.60208Q17.17813 129.8052 17.17813 128.28958Q17.17813 127.63334 17.412504 127.086464Q17.64688 126.53959 18.037504 126.273964Q18.412504 125.992714 18.943754 125.88334Q19.287504 125.805214 20.131254 125.805214L24.600004 125.805214L24.600004 127.03959L20.17813 127.03959Q19.42813 127.03959 19.068754 127.180214Q18.693754 127.32084 18.475004 127.69584Q18.24063 128.0552 18.24063 128.5552Q18.24063 129.33646 18.74063 129.91458Q19.24063 130.47708 20.631254 130.47708L24.600004 130.47708L24.600004 131.71146ZM24.600004 123.711464L14.58438 123.711464L14.58438 122.47709L18.17813 122.47709Q17.17813 121.617714 17.17813 120.305214Q17.17813 119.492714 17.506254 118.898964Q17.818754 118.305214 18.381254 118.055214Q18.92813 117.78959 20.006254 117.78959L24.600004 117.78959L24.600004 119.023964L20.006254 119.023964Q19.068754 119.023964 18.662504 119.430214Q18.24063 119.82084 18.24063 120.555214Q18.24063 121.10209 18.52188 121.586464Q18.80313 122.07084 19.287504 122.273964Q19.77188 122.47709 20.631254 122.47709L24.600004 122.47709L24.600004 123.711464ZM20.975004 114.898964Q22.318754 114.898964 23.05313 114.28959Q23.756254 113.72709 23.756254 112.75834Q23.756254 111.805214 23.05313 111.242714Q22.30313 110.63334 20.92813 110.63334Q19.61563 110.63334 18.89688 111.242714Q18.193754 111.82084 18.193754 112.75834Q18.193754 113.72709 18.881254 114.28959Q19.61563 114.898964 20.975004 114.898964ZM18.58438 109.19584L17.162504 109.19584L17.162504 107.88334L18.287504 107.88334Q19.131254 107.88334 19.58438 108.148964Q20.17813 108.47709 20.662504 109.367714Q20.77188 109.367714 20.86563 109.367714Q23.412504 109.367714 24.318754 111.00834Q24.77188 111.82084 24.77188 112.75834Q24.77188 114.32084 23.787504 115.22709Q22.77188 116.16459 20.975004 116.16459Q18.95938 116.16459 17.975004 115.03959Q17.17813 114.117714 17.17813 112.75834Q17.17813 111.273964 18.14688 110.32084Q18.89688 109.60209 20.068754 109.41459Q19.787504 108.961464 19.49063 108.75834Q19.17813 108.555214 18.58438 108.555214L18.58438 109.19584ZM16.443754 113.44584L14.52188 112.53959L14.52188 110.91459L16.443754 112.430214L16.443754 113.44584ZM22.42813 103.19584L22.24063 101.992714Q22.975004 101.88334 23.36563 101.41459Q23.756254 100.94584 23.756254 100.10209Q23.756254 99.25834 23.412504 98.85209Q23.068754 98.430214 22.600004 98.430214Q22.17813 98.430214 21.943754 98.805214Q21.77188 99.055214 21.52188 100.055214Q21.17813 101.41459 20.92813 101.94584Q20.67813 102.461464 20.24063 102.72709Q19.80313 102.992714 19.27188 102.992714Q18.787504 102.992714 18.381254 102.773964Q17.95938 102.555214 17.67813 102.16459Q17.475004 101.88334 17.33438 101.398964Q17.17813 100.898964 17.17813 100.32084Q17.17813 99.47709 17.42813 98.836464Q17.662504 98.180214 18.08438 97.867714Q18.506254 97.555214 19.20938 97.44584L19.381254 98.648964Q18.818754 98.72709 18.506254 99.13334Q18.193754 99.523964 18.193754 100.242714Q18.193754 101.086464 18.475004 101.44584Q18.74063 101.805214 19.131254 101.805214Q19.36563 101.805214 19.55313 101.66459Q19.756254 101.50834 19.881254 101.180214Q19.943754 101.00834 20.193754 100.10209Q20.55313 98.78959 20.77188 98.273964Q20.99063 97.75834 21.412504 97.47709Q21.83438 97.180214 22.45938 97.180214Q23.08438 97.180214 23.631254 97.53959Q24.162504 97.88334 24.475004 98.57084Q24.77188 99.242714 24.77188 100.10209Q24.77188 101.50834 24.17813 102.25834Q23.58438 102.992714 22.42813 103.19584ZM18.77188 89.00834L17.33438 89.00834L17.33438 87.680214L18.475004 87.680214Q19.537504 87.680214 19.95938 87.930214Q21.05313 88.555214 21.193754 89.85209L24.600004 89.85209L24.600004 90.94584L23.537504 90.94584Q24.77188 91.805214 24.77188 93.25834Q24.77188 93.898964 24.52188 94.461464Q24.27188 95.00834 23.89688 95.28959Q23.52188 95.555214 22.99063 95.66459Q22.61563 95.742714 21.83438 95.742714L17.33438 95.742714L17.33438 94.50834L21.36563 94.50834Q22.350004 94.50834 22.662504 94.430214Q23.70938 94.19584 23.70938 93.00834Q23.70938 92.44584 23.42813 91.961464Q23.131254 91.47709 22.64688 91.28959Q22.162504 91.086464 21.225004 91.086464L17.33438 91.086464L17.33438 89.85209L20.67813 89.85209Q20.52188 88.97709 19.86563 88.555214Q19.568754 88.367714 18.77188 88.367714L18.77188 89.00834ZM15.61563 93.180214Q15.568755 92.78959 15.537505 92.680214Q15.412505 92.32084 15.162505 92.305214Q15.006255 92.305214 14.89688 92.50834Q14.74063 92.78959 14.74063 93.41459Q14.74063 93.617714 14.756255 94.055214L14.068755 94.13334Q14.006255 93.867714 14.02188 93.148964Q14.02188 92.305214 14.287505 91.773964Q14.58438 91.180214 15.08438 91.16459Q15.943755 91.13334 16.100004 92.41459L16.443754 92.41459L16.443754 93.180214L15.61563 93.180214ZM24.600004 77.992714L23.67813 77.992714Q24.77188 78.69584 24.77188 80.023964Q24.77188 80.898964 24.287504 81.63334Q23.80313 82.35209 22.943754 82.75834Q22.08438 83.148964 20.975004 83.148964Q19.89688 83.148964 19.006254 82.78959Q18.11563 82.430214 17.64688 81.711464Q17.17813 80.97709 17.17813 80.086464Q17.17813 79.430214 17.45938 78.91459Q17.725004 78.398964 18.17813 78.086464L14.58438 78.086464L14.58438 76.85209L24.600004 76.85209L24.600004 77.992714ZM20.975004 81.88334Q22.36563 81.88334 23.068754 81.305214Q23.756254 80.711464 23.756254 79.91459Q23.756254 79.10209 23.100004 78.53959Q22.42813 77.97709 21.08438 77.97709Q19.58438 77.97709 18.89688 78.555214Q18.193754 79.13334 18.193754 79.961464Q18.193754 80.78959 18.86563 81.336464Q19.537504 81.88334 20.975004 81.88334ZM24.600004 69.94584L23.537504 69.94584Q24.77188 70.805214 24.77188 72.25834Q24.77188 72.898964 24.52188 73.461464Q24.27188 74.00834 23.89688 74.28959Q23.52188 74.555214 22.99063 74.66459Q22.631254 74.742714 21.83438 74.742714L17.33438 74.742714L17.33438 73.50834L21.36563 73.50834Q22.33438 73.50834 22.662504 73.430214Q23.14688 73.32084 23.42813 72.94584Q23.70938 72.57084 23.70938 72.00834Q23.70938 71.461464 23.42813 70.97709Q23.131254 70.492714 22.64688 70.28959Q22.162504 70.086464 21.225004 70.086464L17.33438 70.086464L17.33438 68.85209L24.600004 68.85209L24.600004 69.94584ZM26.818754 72.711464L25.42813 72.711464L25.42813 71.305214L26.818754 71.305214L26.818754 72.711464ZM24.600004 66.711464L17.33438 66.711464L17.33438 65.60209L18.36563 65.60209Q17.17813 64.805214 17.17813 63.289585Q17.17813 62.633335 17.412504 62.08646Q17.64688 61.539585 18.037504 61.27396Q18.412504 60.99271 18.943754 60.883335Q19.287504 60.80521 20.131254 60.80521L24.600004 60.80521L24.600004 62.039585L20.17813 62.039585Q19.42813 62.039585 19.068754 62.18021Q18.693754 62.320835 18.475004 62.695835Q18.24063 63.05521 18.24063 63.55521Q18.24063 64.336464 18.74063 64.91459Q19.24063 65.47709 20.631254 65.47709L24.600004 65.47709L24.600004 66.711464ZM25.20938 58.93021L25.381254 57.74271Q25.92813 57.664585 26.193754 57.320835Q26.52188 56.86771 26.52188 56.070835Q26.52188 55.21146 26.17813 54.758335Q25.850004 54.289585 25.225004 54.11771Q24.850004 54.02396 23.64688 54.039585Q24.600004 54.83646 24.600004 56.039585Q24.600004 57.539585 23.52188 58.36771Q22.443754 59.18021 20.92813 59.18021Q19.89688 59.18021 19.02188 58.80521Q18.131254 58.43021 17.662504 57.727085Q17.17813 57.008335 17.17813 56.039585Q17.17813 54.758335 18.20938 53.914585L17.33438 53.914585L17.33438 52.789585L23.61563 52.789585Q25.318754 52.789585 26.02188 53.133335Q26.725004 53.477085 27.131254 54.227085Q27.55313 54.977085 27.55313 56.070835Q27.55313 57.36771 26.95938 58.164585Q26.381254 58.96146 25.20938 58.93021ZM20.83438 57.914585Q22.27188 57.914585 22.92813 57.352085Q23.58438 56.789585 23.58438 55.93021Q23.58438 55.08646 22.92813 54.508335Q22.27188 53.93021 20.881254 53.93021Q19.55313 53.93021 18.881254 54.52396Q18.193754 55.11771 18.193754 55.945835Q18.193754 56.77396 18.86563 57.352085Q19.52188 57.914585 20.83438 57.914585ZM27.55313 44.352085Q26.256254 45.383335 24.537504 46.08646Q22.818754 46.789585 20.975004 46.789585Q19.350004 46.789585 17.850004 46.258335Q16.11563 45.64896 14.412505 44.352085L14.412505 43.477085Q15.83438 44.30521 16.443754 44.570835Q17.381254 44.99271 18.412504 45.227085Q19.67813 45.52396 20.975004 45.52396Q24.27188 45.52396 27.55313 43.477085L27.55313 44.352085ZM24.600004 41.602085L14.58438 41.602085L14.58438 40.27396L19.55313 40.27396L14.58438 35.30521L14.58438 33.508335L18.631254 37.71146L24.600004 33.320835L24.600004 35.070835L19.52188 38.633335L21.131254 40.27396L24.600004 40.27396L24.600004 41.602085ZM24.600004 32.602085L14.58438 32.602085L14.58438 28.852085Q14.58438 27.695835 14.89688 27.008335Q15.193755 26.30521 15.818755 25.914585Q16.443754 25.52396 17.14688 25.52396Q17.787504 25.52396 18.350004 25.883335Q18.912504 26.227085 19.27188 26.93021Q19.537504 26.02396 20.17813 25.539585Q20.818754 25.039585 21.693754 25.039585Q22.39688 25.039585 23.006254 25.33646Q23.61563 25.633335 23.943754 26.070835Q24.27188 26.508335 24.443754 27.18021Q24.600004 27.83646 24.600004 28.789585L24.600004 32.602085ZM18.787504 31.27396L18.787504 29.11771Q18.787504 28.227085 18.67813 27.852085Q18.52188 27.33646 18.17813 27.08646Q17.818754 26.83646 17.30313 26.83646Q16.80313 26.83646 16.42813 27.070835Q16.037504 27.30521 15.89688 27.758335Q15.756255 28.195835 15.756255 29.27396L15.756255 31.27396L18.787504 31.27396ZM23.412504 31.27396L23.412504 28.789585Q23.412504 28.14896 23.36563 27.883335Q23.287504 27.43021 23.100004 27.11771Q22.89688 26.80521 22.537504 26.61771Q22.17813 26.414585 21.693754 26.414585Q21.131254 26.414585 20.725004 26.71146Q20.30313 26.99271 20.14688 27.508335Q19.975004 28.008335 19.975004 28.96146L19.975004 31.27396L23.412504 31.27396ZM27.55313 22.89896L27.55313 23.789585Q24.27188 21.74271 20.975004 21.74271Q19.693754 21.74271 18.42813 22.039585Q17.39688 22.27396 16.45938 22.68021Q15.850005 22.945835 14.412505 23.789585L14.412505 22.89896Q16.11563 21.61771 17.850004 21.008335Q19.350004 20.477085 20.975004 20.477085Q22.818754 20.477085 24.537504 21.195835Q26.256254 21.89896 27.55313 22.89896Z" fill-rule="nonzero"/><path fill="#000000" d="M77.1 154.4323Q77.1 152.90105 77.4125 151.97917Q77.725 151.04167 78.33437 150.54167Q78.95937 150.04167 79.89687 150.04167Q80.58437 150.04167 81.1 150.32292Q81.63125 150.60417 81.975 151.13542Q82.31875 151.65105 82.50625 152.40105Q82.69375 153.15105 82.69375 154.4323Q82.69375 155.94792 82.38125 156.8698Q82.08437 157.79167 81.45937 158.3073Q80.85 158.8073 79.89687 158.8073Q78.6625 158.8073 77.94375 157.91667Q77.1 156.85417 77.1 154.4323ZM78.17812 154.4323Q78.17812 156.54167 78.67812 157.2448Q79.17812 157.94792 79.89687 157.94792Q80.63125 157.94792 81.11562 157.2448Q81.61562 156.54167 81.61562 154.4323Q81.61562 152.3073 81.11562 151.6198Q80.63125 150.91667 79.88125 150.91667Q79.1625 150.91667 78.725 151.52605Q78.17812 152.3073 78.17812 154.4323Z" fill-rule="nonzero"/><path fill="#000000" d="M61.646873 130.43771L61.646873 131.45334L55.959373 131.45334Q55.959373 131.07834 56.084373 130.71896Q56.303123 130.14084 56.771873 129.57834Q57.25625 129.01584 58.1625 128.28146Q59.56875 127.12521 60.053123 126.45334Q60.553123 125.78146 60.553123 125.18771Q60.553123 124.56271 60.1 124.14084Q59.646873 123.70334 58.928123 123.70334Q58.1625 123.70334 57.709373 124.15646Q57.25625 124.60959 57.240623 125.42209L56.1625 125.31271Q56.271873 124.09396 56.990623 123.46896Q57.725 122.82834 58.959373 122.82834Q60.19375 122.82834 60.9125 123.51584Q61.63125 124.20334 61.63125 125.21896Q61.63125 125.73459 61.4125 126.23459Q61.209373 126.71896 60.709373 127.28146Q60.225 127.82834 59.1 128.78146Q58.146873 129.57834 57.865623 129.87521Q57.6 130.15646 57.428123 130.43771L61.646873 130.43771ZM63.1 129.20334L64.20937 129.10959Q64.33437 129.92209 64.77187 130.32834Q65.225 130.73459 65.86562 130.73459Q66.61562 130.73459 67.14687 130.15646Q67.67812 129.57834 67.67812 128.64084Q67.67812 127.73459 67.1625 127.21896Q66.6625 126.68771 65.83437 126.68771Q65.33437 126.68771 64.9125 126.92209Q64.50625 127.15646 64.27187 127.51584L63.2875 127.39084L64.11562 122.98459L68.39687 122.98459L68.39687 123.98459L64.95937 123.98459L64.50625 126.29709Q65.27187 125.75021 66.11562 125.75021Q67.24062 125.75021 68.00625 126.53146Q68.7875 127.31271 68.7875 128.54709Q68.7875 129.70334 68.11562 130.56271Q67.2875 131.59396 65.86562 131.59396Q64.69375 131.59396 63.94375 130.93771Q63.209373 130.28146 63.1 129.20334ZM70.1 127.21896Q70.1 125.68771 70.4125 124.76584Q70.725 123.82834 71.33437 123.32834Q71.95937 122.82834 72.89687 122.82834Q73.58437 122.82834 74.1 123.10959Q74.63125 123.39084 74.975 123.92209Q75.31875 124.43771 75.50625 125.18771Q75.69375 125.93771 75.69375 127.21896Q75.69375 128.73459 75.38125 129.65646Q75.08437 130.57834 74.45937 131.09396Q73.85 131.59396 72.89687 131.59396Q71.6625 131.59396 70.94375 130.70334Q70.1 129.64084 70.1 127.21896ZM71.17812 127.21896Q71.17812 129.32834 71.67812 130.03146Q72.17812 130.73459 72.89687 130.73459Q73.63125 130.73459 74.11562 130.03146Q74.61562 129.32834 74.61562 127.21896Q74.61562 125.09396 74.11562 124.40646Q73.63125 123.70334 72.88125 123.70334Q72.1625 123.70334 71.725 124.31271Q71.17812 125.09396 71.17812 127.21896ZM77.1 127.21896Q77.1 125.68771 77.4125 124.76584Q77.725 123.82834 78.33437 123.32834Q78.95937 122.82834 79.89687 122.82834Q80.58437 122.82834 81.1 123.10959Q81.63125 123.39084 81.975 123.92209Q82.31875 124.43771 82.50625 125.18771Q82.69375 125.93771 82.69375 127.21896Q82.69375 128.73459 82.38125 129.65646Q82.08437 130.57834 81.45937 131.09396Q80.85 131.59396 79.89687 131.59396Q78.6625 131.59396 77.94375 130.70334Q77.1 129.64084 77.1 127.21896ZM78.17812 127.21896Q78.17812 129.32834 78.67812 130.03146Q79.17812 130.73459 79.89687 130.73459Q80.63125 130.73459 81.11562 130.03146Q81.61562 129.32834 81.61562 127.21896Q81.61562 125.09396 81.11562 124.40646Q80.63125 123.70334 79.88125 123.70334Q79.1625 123.70334 78.725 124.31271Q78.17812 125.09396 78.17812 127.21896Z" fill-rule="nonzero"/><path fill="#000000" d="M56.1 101.99L57.209373 101.89625Q57.334373 102.70875 57.771873 103.115Q58.225 103.52125 58.865623 103.52125Q59.615623 103.52125 60.146873 102.94312Q60.678123 102.365 60.678123 101.4275Q60.678123 100.52125 60.1625 100.00562Q59.6625 99.47437 58.834373 99.47437Q58.334373 99.47437 57.9125 99.70875Q57.50625 99.94312 57.271873 100.3025L56.2875 100.1775L57.115623 95.77125L61.396873 95.77125L61.396873 96.77125L57.959373 96.77125L57.50625 99.08375Q58.271873 98.53687 59.115623 98.53687Q60.240623 98.53687 61.00625 99.31812Q61.7875 100.09937 61.7875 101.33375Q61.7875 102.49 61.115623 103.34937Q60.2875 104.38062 58.865623 104.38062Q57.69375 104.38062 56.94375 103.72437Q56.209373 103.06812 56.1 101.99ZM63.1 100.00562Q63.1 98.47437 63.4125 97.5525Q63.725 96.615 64.33437 96.115Q64.95937 95.615 65.89687 95.615Q66.58437 95.615 67.1 95.89625Q67.63125 96.1775 67.975 96.70875Q68.31875 97.22437 68.50625 97.97437Q68.69375 98.72437 68.69375 100.00562Q68.69375 101.52125 68.38125 102.44312Q68.08437 103.365 67.45937 103.88062Q66.85 104.38062 65.89687 104.38062Q64.6625 104.38062 63.94375 103.49Q63.1 102.4275 63.1 100.00562ZM64.17812 100.00562Q64.17812 102.115 64.67812 102.81812Q65.17812 103.52125 65.89687 103.52125Q66.63125 103.52125 67.11562 102.81812Q67.61562 102.115 67.61562 100.00562Q67.61562 97.88062 67.11562 97.19312Q66.63125 96.49 65.88125 96.49Q65.1625 96.49 64.725 97.09937Q64.17812 97.88062 64.17812 100.00562ZM70.1 100.00562Q70.1 98.47437 70.4125 97.5525Q70.725 96.615 71.33437 96.115Q71.95937 95.615 72.89687 95.615Q73.58437 95.615 74.1 95.89625Q74.63125 96.1775 74.975 96.70875Q75.31875 97.22437 75.50625 97.97437Q75.69375 98.72437 75.69375 100.00562Q75.69375 101.52125 75.38125 102.44312Q75.08437 103.365 74.45937 103.88062Q73.85 104.38062 72.89687 104.38062Q71.6625 104.38062 70.94375 103.49Q70.1 102.4275 70.1 100.00562ZM71.17812 100.00562Q71.17812 102.115 71.67812 102.81812Q72.17812 103.52125 72.89687 103.52125Q73.63125 103.52125 74.11562 102.81812Q74.61562 102.115 74.61562 100.00562Q74.61562 97.88062 74.11562 97.19312Q73.63125 96.49 72.88125 96.49Q72.1625 96.49 71.725 97.09937Q71.17812 97.88062 71.17812 100.00562ZM77.1 100.00562Q77.1 98.47437 77.4125 97.5525Q77.725 96.615 78.33437 96.115Q78.95937 95.615 79.89687 95.615Q80.58437 95.615 81.1 95.89625Q81.63125 96.1775 81.975 96.70875Q82.31875 97.22437 82.50625 97.97437Q82.69375 98.72437 82.69375 100.00562Q82.69375 101.52125 82.38125 102.44312Q82.08437 103.365 81.45937 103.88062Q80.85 104.38062 79.89687 104.38062Q78.6625 104.38062 77.94375 103.49Q77.1 102.4275 77.1 100.00562ZM78.17812 100.00562Q78.17812 102.115 78.67812 102.81812Q79.17812 103.52125 79.89687 103.52125Q80.63125 103.52125 81.11562 102.81812Q81.61562 102.115 81.61562 100.00562Q81.61562 97.88062 81.11562 97.19312Q80.63125 96.49 79.88125 96.49Q79.1625 96.49 78.725 97.09937Q78.17812 97.88062 78.17812 100.00562Z" fill-rule="nonzero"/><path fill="#000000" d="M56.1625 69.557915L56.1625 68.54229L61.725 68.54229L61.725 69.370415Q60.9125 70.245415 60.1 71.69854Q59.303123 73.13604 58.865623 74.66729Q58.5375 75.745415 58.459373 77.026665L57.365623 77.026665Q57.38125 76.01104 57.75625 74.57354Q58.146873 73.13604 58.85 71.807915Q59.56875 70.47979 60.38125 69.557915L56.1625 69.557915ZM63.1 74.776665L64.20937 74.682915Q64.33437 75.495415 64.77187 75.901665Q65.225 76.307915 65.86562 76.307915Q66.61562 76.307915 67.14687 75.72979Q67.67812 75.151665 67.67812 74.214165Q67.67812 73.307915 67.1625 72.79229Q66.6625 72.26104 65.83437 72.26104Q65.33437 72.26104 64.9125 72.495415Q64.50625 72.72979 64.27187 73.089165L63.2875 72.964165L64.11562 68.557915L68.39687 68.557915L68.39687 69.557915L64.95937 69.557915L64.50625 71.870415Q65.27187 71.32354 66.11562 71.32354Q67.24062 71.32354 68.00625 72.10479Q68.7875 72.88604 68.7875 74.120415Q68.7875 75.276665 68.11562 76.13604Q67.2875 77.16729 65.86562 77.16729Q64.69375 77.16729 63.94375 76.51104Q63.209373 75.85479 63.1 74.776665ZM70.1 72.79229Q70.1 71.26104 70.4125 70.339165Q70.725 69.401665 71.33437 68.901665Q71.95937 68.401665 72.89687 68.401665Q73.58437 68.401665 74.1 68.682915Q74.63125 68.964165 74.975 69.495415Q75.31875 70.01104 75.50625 70.76104Q75.69375 71.51104 75.69375 72.79229Q75.69375 74.307915 75.38125 75.22979Q75.08437 76.151665 74.45937 76.66729Q73.85 77.16729 72.89687 77.16729Q71.6625 77.16729 70.94375 76.276665Q70.1 75.214165 70.1 72.79229ZM71.17812 72.79229Q71.17812 74.901665 71.67812 75.60479Q72.17812 76.307915 72.89687 76.307915Q73.63125 76.307915 74.11562 75.60479Q74.61562 74.901665 74.61562 72.79229Q74.61562 70.66729 74.11562 69.97979Q73.63125 69.276665 72.88125 69.276665Q72.1625 69.276665 71.725 69.88604Q71.17812 70.66729 71.17812 72.79229ZM77.1 72.79229Q77.1 71.26104 77.4125 70.339165Q77.725 69.401665 78.33437 68.901665Q78.95937 68.401665 79.89687 68.401665Q80.58437 68.401665 81.1 68.682915Q81.63125 68.964165 81.975 69.495415Q82.31875 70.01104 82.50625 70.76104Q82.69375 71.51104 82.69375 72.79229Q82.69375 74.307915 82.38125 75.22979Q82.08437 76.151665 81.45937 76.66729Q80.85 77.16729 79.89687 77.16729Q78.6625 77.16729 77.94375 76.276665Q77.1 75.214165 77.1 72.79229ZM78.17812 72.79229Q78.17812 74.901665 78.67812 75.60479Q79.17812 76.307915 79.89687 76.307915Q80.63125 76.307915 81.11562 75.60479Q81.61562 74.901665 81.61562 72.79229Q81.61562 70.66729 81.11562 69.97979Q80.63125 69.276665 79.88125 69.276665Q79.1625 69.276665 78.725 69.88604Q78.17812 70.66729 78.17812 72.79229Z" fill-rule="nonzero"/><path fill="#000000" d="M53.06875 49.81333L52.021873 49.81333L52.021873 43.09458Q51.63125 43.453957 51.00625 43.828957Q50.396873 44.18833 49.9125 44.360207L49.9125 43.34458Q50.7875 42.922707 51.44375 42.34458Q52.115623 41.75083 52.396873 41.18833L53.06875 41.18833L53.06875 49.81333ZM56.1 45.578957Q56.1 44.047707 56.4125 43.12583Q56.725 42.18833 57.334373 41.68833Q57.959373 41.18833 58.896873 41.18833Q59.584373 41.18833 60.1 41.46958Q60.63125 41.75083 60.975 42.28208Q61.31875 42.797707 61.50625 43.547707Q61.69375 44.297707 61.69375 45.578957Q61.69375 47.09458 61.38125 48.016457Q61.084373 48.93833 60.459373 49.453957Q59.85 49.953957 58.896873 49.953957Q57.6625 49.953957 56.94375 49.06333Q56.1 48.00083 56.1 45.578957ZM57.178123 45.578957Q57.178123 47.68833 57.678123 48.391457Q58.178123 49.09458 58.896873 49.09458Q59.63125 49.09458 60.115623 48.391457Q60.615623 47.68833 60.615623 45.578957Q60.615623 43.453957 60.115623 42.766457Q59.63125 42.06333 58.88125 42.06333Q58.1625 42.06333 57.725 42.672707Q57.178123 43.453957 57.178123 45.578957ZM63.1 45.578957Q63.1 44.047707 63.4125 43.12583Q63.725 42.18833 64.33437 41.68833Q64.95937 41.18833 65.89687 41.18833Q66.58437 41.18833 67.1 41.46958Q67.63125 41.75083 67.975 42.28208Q68.31875 42.797707 68.50625 43.547707Q68.69375 44.297707 68.69375 45.578957Q68.69375 47.09458 68.38125 48.016457Q68.08437 48.93833 67.45937 49.453957Q66.85 49.953957 65.89687 49.953957Q64.6625 49.953957 63.94375 49.06333Q63.1 48.00083 63.1 45.578957ZM64.17812 45.578957Q64.17812 47.68833 64.67812 48.391457Q65.17812 49.09458 65.89687 49.09458Q66.63125 49.09458 67.11562 48.391457Q67.61562 47.68833 67.61562 45.578957Q67.61562 43.453957 67.11562 42.766457Q66.63125 42.06333 65.88125 42.06333Q65.1625 42.06333 64.725 42.672707Q64.17812 43.453957 64.17812 45.578957ZM70.1 45.578957Q70.1 44.047707 70.4125 43.12583Q70.725 42.18833 71.33437 41.68833Q71.95937 41.18833 72.89687 41.18833Q73.58437 41.18833 74.1 41.46958Q74.63125 41.75083 74.975 42.28208Q75.31875 42.797707 75.50625 43.547707Q75.69375 44.297707 75.69375 45.578957Q75.69375 47.09458 75.38125 48.016457Q75.08437 48.93833 74.45937 49.453957Q73.85 49.953957 72.89687 49.953957Q71.6625 49.953957 70.94375 49.06333Q70.1 48.00083 70.1 45.578957ZM71.17812 45.578957Q71.17812 47.68833 71.67812 48.391457Q72.17812 49.09458 72.89687 49.09458Q73.63125 49.09458 74.11562 48.391457Q74.61562 47.68833 74.61562 45.578957Q74.61562 43.453957 74.11562 42.766457Q73.63125 42.06333 72.88125 42.06333Q72.1625 42.06333 71.725 42.672707Q71.17812 43.453957 71.17812 45.578957ZM77.1 45.578957Q77.1 44.047707 77.4125 43.12583Q77.725 42.18833 78.33437 41.68833Q78.95937 41.18833 79.89687 41.18833Q80.58437 41.18833 81.1 41.46958Q81.63125 41.75083 81.975 42.28208Q82.31875 42.797707 82.50625 43.547707Q82.69375 44.297707 82.69375 45.578957Q82.69375 47.09458 82.38125 48.016457Q82.08437 48.93833 81.45937 49.453957Q80.85 49.953957 79.89687 49.953957Q78.6625 49.953957 77.94375 49.06333Q77.1 48.00083 77.1 45.578957ZM78.17812 45.578957Q78.17812 47.68833 78.67812 48.391457Q79.17812 49.09458 79.89687 49.09458Q80.63125 49.09458 81.11562 48.391457Q81.61562 47.68833 81.61562 45.578957Q81.61562 43.453957 81.11562 42.766457Q80.63125 42.06333 79.88125 42.06333Q79.1625 42.06333 78.725 42.672707Q78.17812 43.453957 78.17812 45.578957Z" fill-rule="nonzero"/><path fill="#000000" d="M53.06875 22.6L52.021873 22.6L52.021873 15.88125Q51.63125 16.240625 51.00625 16.615625Q50.396873 16.975 49.9125 17.146875L49.9125 16.13125Q50.7875 15.709375 51.44375 15.13125Q52.115623 14.5375 52.396873 13.975L53.06875 13.975L53.06875 22.6ZM61.646873 21.584375L61.646873 22.6L55.959373 22.6Q55.959373 22.225 56.084373 21.865625Q56.303123 21.2875 56.771873 20.725Q57.25625 20.1625 58.1625 19.428125Q59.56875 18.271875 60.053123 17.6Q60.553123 16.928125 60.553123 16.334375Q60.553123 15.709375 60.1 15.2875Q59.646873 14.85 58.928123 14.85Q58.1625 14.85 57.709373 15.303125Q57.25625 15.75625 57.240623 16.56875L56.1625 16.459375Q56.271873 15.240625 56.990623 14.615625Q57.725 13.975 58.959373 13.975Q60.19375 13.975 60.9125 14.6625Q61.63125 15.35 61.63125 16.365625Q61.63125 16.88125 61.4125 17.38125Q61.209373 17.865625 60.709373 18.428125Q60.225 18.975 59.1 19.928125Q58.146873 20.725 57.865623 21.021875Q57.6 21.303125 57.428123 21.584375L61.646873 21.584375ZM63.1 20.35L64.20937 20.25625Q64.33437 21.06875 64.77187 21.475Q65.225 21.88125 65.86562 21.88125Q66.61562 21.88125 67.14687 21.303125Q67.67812 20.725 67.67812 19.7875Q67.67812 18.88125 67.1625 18.365625Q66.6625 17.834375 65.83437 17.834375Q65.33437 17.834375 64.9125 18.06875Q64.50625 18.303125 64.27187 18.6625L63.2875 18.5375L64.11562 14.13125L68.39687 14.13125L68.39687 15.13125L64.95937 15.13125L64.50625 17.44375Q65.27187 16.896875 66.11562 16.896875Q67.24062 16.896875 68.00625 17.678125Q68.7875 18.459375 68.7875 19.69375Q68.7875 20.85 68.11562 21.709375Q67.2875 22.740625 65.86562 22.740625Q64.69375 22.740625 63.94375 22.084375Q63.209373 21.428125 63.1 20.35ZM70.1 18.365625Q70.1 16.834375 70.4125 15.9125Q70.725 14.975 71.33437 14.475Q71.95937 13.975 72.89687 13.975Q73.58437 13.975 74.1 14.25625Q74.63125 14.5375 74.975 15.06875Q75.31875 15.584375 75.50625 16.334375Q75.69375 17.084375 75.69375 18.365625Q75.69375 19.88125 75.38125 20.803125Q75.08437 21.725 74.45937 22.240625Q73.85 22.740625 72.89687 22.740625Q71.6625 22.740625 70.94375 21.85Q70.1 20.7875 70.1 18.365625ZM71.17812 18.365625Q71.17812 20.475 71.67812 21.178125Q72.17812 21.88125 72.89687 21.88125Q73.63125 21.88125 74.11562 21.178125Q74.61562 20.475 74.61562 18.365625Q74.61562 16.240625 74.11562 15.553125Q73.63125 14.85 72.88125 14.85Q72.1625 14.85 71.725 15.459375Q71.17812 16.240625 71.17812 18.365625ZM77.1 18.365625Q77.1 16.834375 77.4125 15.9125Q77.725 14.975 78.33437 14.475Q78.95937 13.975 79.89687 13.975Q80.58437 13.975 81.1 14.25625Q81.63125 14.5375 81.975 15.06875Q82.31875 15.584375 82.50625 16.334375Q82.69375 17.084375 82.69375 18.365625Q82.69375 19.88125 82.38125 20.803125Q82.08437 21.725 81.45937 22.240625Q80.85 22.740625 79.89687 22.740625Q78.6625 22.740625 77.94375 21.85Q77.1 20.7875 77.1 18.365625ZM78.17812 18.365625Q78.17812 20.475 78.67812 21.178125Q79.17812 21.88125 79.89687 21.88125Q80.63125 21.88125 81.11562 21.178125Q81.61562 20.475 81.61562 18.365625Q81.61562 16.240625 81.11562 15.553125Q80.63125 14.85 79.88125 14.85Q79.1625 14.85 78.725 15.459375Q78.17812 16.240625 78.17812 18.365625Z" fill-rule="nonzero"/><path stroke="#ff0000" stroke-width="4.0" stroke-linecap="butt" stroke-dasharray="4.0,5.0" d="M358.5 213.4L371.5 213.4" fill-rule="nonzero"/><path fill="#1a1a1a" d="M380.42188 217.4L380.42188 208.80624L383.67188 208.80624Q384.51562 208.80624 384.96875 208.88437Q385.60938 208.99374 386.03125 209.29062Q386.46875 209.5875 386.71875 210.11874Q386.98438 210.65 386.98438 211.29062Q386.98438 212.38437 386.28125 213.15Q385.59375 213.9 383.76562 213.9L381.5625 213.9L381.5625 217.4L380.42188 217.4ZM381.5625 212.9L383.78125 212.9Q384.89062 212.9 385.34375 212.49374Q385.8125 212.07187 385.8125 211.32187Q385.8125 210.79062 385.53125 210.41562Q385.26562 210.025 384.82812 209.9Q384.53125 209.82187 383.76562 209.82187L381.5625 209.82187L381.5625 212.9ZM388.29688 217.4L388.29688 208.80624L389.34375 208.80624L389.34375 211.88437Q390.07812 211.04062 391.20312 211.04062Q391.90625 211.04062 392.40625 211.32187Q392.92188 211.5875 393.14062 212.07187Q393.35938 212.54062 393.35938 213.4625L393.35938 217.4L392.3125 217.4L392.3125 213.4625Q392.3125 212.66562 391.96875 212.30624Q391.625 211.94687 391.0 211.94687Q390.53125 211.94687 390.10938 212.19687Q389.70312 212.43124 389.51562 212.85312Q389.34375 213.25937 389.34375 213.99374L389.34375 217.4L388.29688 217.4ZM401.04688 212.4L401.04688 211.18124L402.17188 211.18124L402.17188 212.15Q402.17188 213.05624 401.95312 213.43124Q401.42188 214.36874 400.3125 214.47812L400.3125 217.4L399.375 217.4L399.375 216.47812Q398.64062 217.54062 397.39062 217.54062Q396.84375 217.54062 396.35938 217.3375Q395.89062 217.11874 395.65625 216.80624Q395.42188 216.47812 395.32812 216.00937Q395.26562 215.69687 395.26562 215.025L395.26562 211.18124L396.32812 211.18124L396.32812 214.63437Q396.32812 215.4625 396.39062 215.74374Q396.59375 216.63437 397.60938 216.63437Q398.09375 216.63437 398.5 216.38437Q398.92188 216.13437 399.09375 215.72812Q399.26562 215.30624 399.26562 214.50937L399.26562 211.18124L400.3125 211.18124L400.3125 214.04062Q401.0625 213.9 401.42188 213.3375Q401.59375 213.0875 401.59375 212.4L401.04688 212.4ZM403.98438 214.29062Q403.98438 215.44687 404.5 216.07187Q405.0 216.66562 405.8125 216.66562Q406.64062 216.66562 407.125 216.07187Q407.64062 215.43124 407.64062 214.25937Q407.64062 213.13437 407.125 212.50937Q406.625 211.91562 405.8125 211.91562Q404.98438 211.91562 404.5 212.49374Q403.98438 213.13437 403.98438 214.29062ZM408.875 212.24374L408.875 211.025L410.0 211.025L410.0 211.99374Q410.0 212.7125 409.78125 213.10312Q409.48438 213.60312 408.73438 214.025Q408.73438 214.11874 408.73438 214.19687Q408.73438 216.38437 407.32812 217.16562Q406.625 217.54062 405.8125 217.54062Q404.48438 217.54062 403.70312 216.69687Q402.90625 215.8375 402.90625 214.29062Q402.90625 212.55624 403.85938 211.72812Q404.65625 211.04062 405.8125 211.04062Q407.09375 211.04062 407.92188 211.86874Q408.53125 212.50937 408.6875 213.525Q409.07812 213.275 409.25 213.00937Q409.42188 212.74374 409.42188 212.24374L408.875 212.24374ZM411.29688 217.4L411.29688 211.18124L412.23438 211.18124L412.23438 212.05624Q412.92188 211.04062 414.21875 211.04062Q414.78125 211.04062 415.25 211.24374Q415.73438 211.44687 415.96875 211.775Q416.20312 212.10312 416.29688 212.54062Q416.34375 212.8375 416.34375 213.57187L416.34375 217.4L415.29688 217.4L415.29688 213.61874Q415.29688 212.9625 415.17188 212.65Q415.04688 212.3375 414.73438 212.15Q414.42188 211.94687 414.0 211.94687Q413.32812 211.94687 412.82812 212.38437Q412.34375 212.80624 412.34375 213.99374L412.34375 217.4L411.29688 217.4ZM418.09375 217.91562L419.125 218.07187Q419.1875 218.54062 419.48438 218.75937Q419.875 219.05624 420.54688 219.05624Q421.28125 219.05624 421.67188 218.75937Q422.07812 218.4625 422.21875 217.94687Q422.3125 217.61874 422.29688 216.5875Q421.60938 217.4 420.57812 217.4Q419.29688 217.4 418.59375 216.47812Q417.89062 215.54062 417.89062 214.25937Q417.89062 213.36874 418.20312 212.61874Q418.53125 211.85312 419.14062 211.44687Q419.75 211.04062 420.57812 211.04062Q421.6875 211.04062 422.40625 211.93124L422.40625 211.18124L423.375 211.18124L423.375 216.55624Q423.375 218.00937 423.07812 218.61874Q422.78125 219.22812 422.14062 219.57187Q421.5 219.93124 420.5625 219.93124Q419.45312 219.93124 418.76562 219.43124Q418.07812 218.93124 418.09375 217.91562ZM418.96875 214.18124Q418.96875 215.4 419.45312 215.9625Q419.9375 216.525 420.67188 216.525Q421.40625 216.525 421.89062 215.9625Q422.39062 215.4 422.39062 214.2125Q422.39062 213.07187 421.875 212.49374Q421.375 211.91562 420.65625 211.91562Q419.95312 211.91562 419.45312 212.49374Q418.96875 213.05624 418.96875 214.18124ZM428.29688 219.79062L428.29688 211.18124L429.25 211.18124L429.25 211.97812Q429.59375 211.50937 430.01562 211.275Q430.45312 211.04062 431.0625 211.04062Q431.85938 211.04062 432.46875 211.44687Q433.07812 211.85312 433.375 212.60312Q433.6875 213.35312 433.6875 214.24374Q433.6875 215.19687 433.34375 215.9625Q433.01562 216.72812 432.35938 217.13437Q431.70312 217.54062 430.98438 217.54062Q430.45312 217.54062 430.03125 217.32187Q429.60938 217.0875 429.34375 216.75937L429.34375 219.79062L428.29688 219.79062ZM429.25 214.32187Q429.25 215.525 429.73438 216.10312Q430.21875 216.66562 430.90625 216.66562Q431.60938 216.66562 432.10938 216.07187Q432.60938 215.47812 432.60938 214.22812Q432.60938 213.04062 432.125 212.4625Q431.64062 211.86874 430.95312 211.86874Q430.28125 211.86874 429.76562 212.49374Q429.25 213.11874 429.25 214.32187ZM435.29688 217.4L435.29688 208.80624L436.34375 208.80624L436.34375 211.88437Q437.07812 211.04062 438.20312 211.04062Q438.90625 211.04062 439.40625 211.32187Q439.92188 211.5875 440.14062 212.07187Q440.35938 212.54062 440.35938 213.4625L440.35938 217.4L439.3125 217.4L439.3125 213.4625Q439.3125 212.66562 438.96875 212.30624Q438.625 211.94687 438.0 211.94687Q437.53125 211.94687 437.10938 212.19687Q436.70312 212.43124 436.51562 212.85312Q436.34375 213.25937 436.34375 213.99374L436.34375 217.4L435.29688 217.4ZM446.35938 216.63437Q445.76562 217.13437 445.21875 217.3375Q444.6875 217.54062 444.0625 217.54062Q443.03125 217.54062 442.48438 217.04062Q441.9375 216.54062 441.9375 215.75937Q441.9375 215.30624 442.14062 214.93124Q442.34375 214.54062 442.6875 214.32187Q443.03125 214.0875 443.45312 213.97812Q443.75 213.88437 444.39062 213.80624Q445.65625 213.66562 446.26562 213.44687Q446.26562 213.22812 446.26562 213.18124Q446.26562 212.525 445.96875 212.25937Q445.5625 211.91562 444.76562 211.91562Q444.03125 211.91562 443.67188 212.18124Q443.3125 212.43124 443.14062 213.0875L442.10938 212.94687Q442.25 212.29062 442.57812 211.88437Q442.90625 211.47812 443.51562 211.25937Q444.125 211.04062 444.92188 211.04062Q445.71875 211.04062 446.21875 211.22812Q446.71875 211.41562 446.95312 211.69687Q447.1875 211.97812 447.28125 212.41562Q447.32812 212.68124 447.32812 213.38437L447.32812 214.79062Q447.32812 216.25937 447.39062 216.65Q447.46875 217.04062 447.67188 217.4L446.5625 217.4Q446.40625 217.07187 446.35938 216.63437ZM446.26562 214.275Q445.6875 214.50937 444.54688 214.68124Q443.89062 214.775 443.625 214.9Q443.35938 215.00937 443.20312 215.22812Q443.0625 215.44687 443.0625 215.72812Q443.0625 216.15 443.375 216.43124Q443.70312 216.7125 444.3125 216.7125Q444.92188 216.7125 445.39062 216.44687Q445.875 216.18124 446.09375 215.7125Q446.26562 215.35312 446.26562 214.66562L446.26562 214.275ZM444.20312 210.4L444.98438 208.75937L446.375 208.75937L445.07812 210.4L444.20312 210.4ZM449.29688 219.79062L449.29688 211.18124L450.25 211.18124L450.25 211.97812Q450.59375 211.50937 451.01562 211.275Q451.45312 211.04062 452.0625 211.04062Q452.85938 211.04062 453.46875 211.44687Q454.07812 211.85312 454.375 212.60312Q454.6875 213.35312 454.6875 214.24374Q454.6875 215.19687 454.34375 215.9625Q454.01562 216.72812 453.35938 217.13437Q452.70312 217.54062 451.98438 217.54062Q451.45312 217.54062 451.03125 217.32187Q450.60938 217.0875 450.34375 216.75937L450.34375 219.79062L449.29688 219.79062ZM450.25 214.32187Q450.25 215.525 450.73438 216.10312Q451.21875 216.66562 451.90625 216.66562Q452.60938 216.66562 453.10938 216.07187Q453.60938 215.47812 453.60938 214.22812Q453.60938 213.04062 453.125 212.4625Q452.64062 211.86874 451.95312 211.86874Q451.28125 211.86874 450.76562 212.49374Q450.25 213.11874 450.25 214.32187ZM461.59375 216.4625L461.75 217.38437Q461.29688 217.47812 460.95312 217.47812Q460.375 217.47812 460.0625 217.30624Q459.75 217.11874 459.60938 216.82187Q459.48438 216.525 459.48438 215.57187L459.48438 211.99374L458.71875 211.99374L458.71875 211.18124L459.48438 211.18124L459.48438 209.63437L460.53125 209.00937L460.53125 211.18124L461.59375 211.18124L461.59375 211.99374L460.53125 211.99374L460.53125 215.63437Q460.53125 216.0875 460.57812 216.2125Q460.64062 216.3375 460.76562 216.41562Q460.89062 216.49374 461.125 216.49374Q461.3125 216.49374 461.59375 216.4625ZM462.28125 217.4L462.28125 211.18124L463.23438 211.18124L463.23438 212.11874Q463.59375 211.4625 463.89062 211.25937Q464.20312 211.04062 464.57812 211.04062Q465.10938 211.04062 465.65625 211.36874L465.29688 212.35312Q464.90625 212.11874 464.53125 212.11874Q464.17188 212.11874 463.89062 212.3375Q463.625 212.54062 463.51562 212.91562Q463.32812 213.47812 463.32812 214.13437L463.32812 217.4L462.28125 217.4ZM470.375 217.4L470.375 216.47812Q469.64062 217.54062 468.39062 217.54062Q467.84375 217.54062 467.35938 217.3375Q466.89062 217.11874 466.65625 216.80624Q466.42188 216.47812 466.32812 216.00937Q466.26562 215.7125 466.26562 215.025L466.26562 211.18124L467.32812 211.18124L467.32812 214.63437Q467.32812 215.44687 467.39062 215.74374Q467.48438 216.15 467.79688 216.4Q468.125 216.63437 468.60938 216.63437Q469.07812 216.63437 469.48438 216.4Q469.90625 216.15 470.07812 215.72812Q470.26562 215.30624 470.26562 214.50937L470.26562 211.18124L471.3125 211.18124L471.3125 217.4L470.375 217.4ZM473.25 219.79062L473.125 218.80624Q473.46875 218.9 473.73438 218.9Q474.07812 218.9 474.28125 218.775Q474.5 218.66562 474.64062 218.4625Q474.73438 218.29062 474.96875 217.66562Q474.98438 217.5875 475.0625 217.41562L472.6875 211.18124L473.82812 211.18124L475.125 214.775Q475.375 215.4625 475.57812 216.22812Q475.76562 215.49374 476.01562 214.80624L477.34375 211.18124L478.39062 211.18124L476.03125 217.50937Q475.64062 218.525 475.4375 218.91562Q475.15625 219.44687 474.78125 219.68124Q474.42188 219.93124 473.92188 219.93124Q473.625 219.93124 473.25 219.79062ZM482.54688 215.4L483.64062 215.525Q483.39062 216.47812 482.6875 217.00937Q481.98438 217.54062 480.90625 217.54062Q479.54688 217.54062 478.73438 216.69687Q477.9375 215.85312 477.9375 214.3375Q477.9375 212.775 478.75 211.91562Q479.5625 211.04062 480.84375 211.04062Q482.09375 211.04062 482.875 211.88437Q483.67188 212.72812 483.67188 214.275Q483.67188 214.36874 483.67188 214.55624L479.03125 214.55624Q479.09375 215.5875 479.60938 216.13437Q480.125 216.66562 480.90625 216.66562Q481.48438 216.66562 481.89062 216.36874Q482.3125 216.05624 482.54688 215.4ZM479.09375 213.69687L482.5625 213.69687Q482.5 212.9 482.17188 212.50937Q481.65625 211.9 480.85938 211.9Q480.125 211.9 479.625 212.38437Q479.14062 212.86874 479.09375 213.69687ZM480.82812 209.4L480.17188 210.4L478.95312 210.4L480.21875 208.75937L481.34375 208.75937L482.67188 210.4L481.46875 210.4L480.82812 209.4ZM481.34375 208.3375L480.48438 208.3375L479.14062 206.69687L480.54688 206.69687L481.34375 208.3375ZM485.29688 217.4L485.29688 211.18124L486.23438 211.18124L486.23438 212.05624Q486.92188 211.04062 488.21875 211.04062Q488.78125 211.04062 489.25 211.24374Q489.73438 211.44687 489.96875 211.775Q490.20312 212.10312 490.29688 212.54062Q490.34375 212.8375 490.34375 213.57187L490.34375 217.4L489.29688 217.4L489.29688 213.61874Q489.29688 212.9625 489.17188 212.65Q489.04688 212.3375 488.73438 212.15Q488.42188 211.94687 488.0 211.94687Q487.32812 211.94687 486.82812 212.38437Q486.34375 212.80624 486.34375 213.99374L486.34375 217.4L485.29688 217.4ZM497.59375 216.4625L497.75 217.38437Q497.29688 217.47812 496.95312 217.47812Q496.375 217.47812 496.0625 217.30624Q495.75 217.11874 495.60938 216.82187Q495.48438 216.525 495.48438 215.57187L495.48438 211.99374L494.71875 211.99374L494.71875 211.18124L495.48438 211.18124L495.48438 209.63437L496.53125 209.00937L496.53125 211.18124L497.59375 211.18124L497.59375 211.99374L496.53125 211.99374L496.53125 215.63437Q496.53125 216.0875 496.57812 216.2125Q496.64062 216.3375 496.76562 216.41562Q496.89062 216.49374 497.125 216.49374Q497.3125 216.49374 497.59375 216.4625ZM498.29688 217.4L498.29688 208.80624L499.34375 208.80624L499.34375 211.88437Q500.07812 211.04062 501.20312 211.04062Q501.90625 211.04062 502.40625 211.32187Q502.92188 211.5875 503.14062 212.07187Q503.35938 212.54062 503.35938 213.4625L503.35938 217.4L502.3125 217.4L502.3125 213.4625Q502.3125 212.66562 501.96875 212.30624Q501.625 211.94687 501.0 211.94687Q500.53125 211.94687 500.10938 212.19687Q499.70312 212.43124 499.51562 212.85312Q499.34375 213.25937 499.34375 213.99374L499.34375 217.4L498.29688 217.4ZM504.90625 214.29062Q504.90625 212.55624 505.85938 211.72812Q506.65625 211.04062 507.8125 211.04062Q509.09375 211.04062 509.90625 211.88437Q510.73438 212.7125 510.73438 214.19687Q510.73438 215.4 510.375 216.0875Q510.01562 216.775 509.3125 217.16562Q508.625 217.54062 507.8125 217.54062Q506.51562 217.54062 505.70312 216.7125Q504.90625 215.86874 504.90625 214.29062ZM505.98438 214.29062Q505.98438 215.47812 506.5 216.07187Q507.03125 216.66562 507.8125 216.66562Q508.60938 216.66562 509.125 216.07187Q509.64062 215.47812 509.64062 214.25937Q509.64062 213.10312 509.10938 212.50937Q508.59375 211.91562 507.8125 211.91562Q507.03125 211.91562 506.5 212.50937Q505.98438 213.0875 505.98438 214.29062ZM507.82812 209.4L507.17188 210.4L505.95312 210.4L507.21875 208.75937L508.34375 208.75937L509.67188 210.4L508.46875 210.4L507.82812 209.4ZM508.01562 206.69687L509.42188 206.69687L508.07812 208.3375L507.21875 208.3375L508.01562 206.69687ZM512.2969 217.4L512.2969 211.18124L513.2344 211.18124L513.2344 212.05624Q513.9219 211.04062 515.21875 211.04062Q515.78125 211.04062 516.25 211.24374Q516.7344 211.44687 516.96875 211.775Q517.2031 212.10312 517.2969 212.54062Q517.34375 212.8375 517.34375 213.57187L517.34375 217.4L516.2969 217.4L516.2969 213.61874Q516.2969 212.9625 516.1719 212.65Q516.0469 212.3375 515.7344 212.15Q515.4219 211.94687 515.0 211.94687Q514.3281 211.94687 513.8281 212.38437Q513.34375 212.80624 513.34375 213.99374L513.34375 217.4L512.2969 217.4ZM519.09375 217.91562L520.125 218.07187Q520.1875 218.54062 520.4844 218.75937Q520.875 219.05624 521.5469 219.05624Q522.28125 219.05624 522.6719 218.75937Q523.0781 218.4625 523.21875 217.94687Q523.3125 217.61874 523.2969 216.5875Q522.6094 217.4 521.5781 217.4Q520.2969 217.4 519.59375 216.47812Q518.8906 215.54062 518.8906 214.25937Q518.8906 213.36874 519.2031 212.61874Q519.53125 211.85312 520.1406 211.44687Q520.75 211.04062 521.5781 211.04062Q522.6875 211.04062 523.40625 211.93124L523.40625 211.18124L524.375 211.18124L524.375 216.55624Q524.375 218.00937 524.0781 218.61874Q523.78125 219.22812 523.1406 219.57187Q522.5 219.93124 521.5625 219.93124Q520.4531 219.93124 519.7656 219.43124Q519.0781 218.93124 519.09375 217.91562ZM519.96875 214.18124Q519.96875 215.4 520.4531 215.9625Q520.9375 216.525 521.6719 216.525Q522.40625 216.525 522.8906 215.9625Q523.3906 215.4 523.3906 214.2125Q523.3906 213.07187 522.875 212.49374Q522.375 211.91562 521.65625 211.91562Q520.9531 211.91562 520.4531 212.49374Q519.96875 213.05624 519.96875 214.18124Z" fill-rule="nonzero"/><path stroke="#0000ff" stroke-width="4.0" stroke-linecap="butt" d="M541.5 213.4L553.5 213.4" fill-rule="nonzero"/><path fill="#1a1a1a" d="M562.4219 217.4L562.4219 208.80624L565.6719 208.80624Q566.5156 208.80624 566.96875 208.88437Q567.6094 208.99374 568.03125 209.29062Q568.46875 209.5875 568.71875 210.11874Q568.9844 210.65 568.9844 211.29062Q568.9844 212.38437 568.28125 213.15Q567.59375 213.9 565.7656 213.9L563.5625 213.9L563.5625 217.4L562.4219 217.4ZM563.5625 212.9L565.78125 212.9Q566.8906 212.9 567.34375 212.49374Q567.8125 212.07187 567.8125 211.32187Q567.8125 210.79062 567.53125 210.41562Q567.2656 210.025 566.8281 209.9Q566.53125 209.82187 565.7656 209.82187L563.5625 209.82187L563.5625 212.9ZM570.2969 217.4L570.2969 208.80624L571.34375 208.80624L571.34375 211.88437Q572.0781 211.04062 573.2031 211.04062Q573.90625 211.04062 574.40625 211.32187Q574.9219 211.5875 575.1406 212.07187Q575.3594 212.54062 575.3594 213.4625L575.3594 217.4L574.3125 217.4L574.3125 213.4625Q574.3125 212.66562 573.96875 212.30624Q573.625 211.94687 573.0 211.94687Q572.53125 211.94687 572.1094 212.19687Q571.7031 212.43124 571.5156 212.85312Q571.34375 213.25937 571.34375 213.99374L571.34375 217.4L570.2969 217.4ZM583.0469 212.4L583.0469 211.18124L584.1719 211.18124L584.1719 212.15Q584.1719 213.05624 583.9531 213.43124Q583.4219 214.36874 582.3125 214.47812L582.3125 217.4L581.375 217.4L581.375 216.47812Q580.6406 217.54062 579.3906 217.54062Q578.84375 217.54062 578.3594 217.3375Q577.8906 217.11874 577.65625 216.80624Q577.4219 216.47812 577.3281 216.00937Q577.2656 215.69687 577.2656 215.025L577.2656 211.18124L578.3281 211.18124L578.3281 214.63437Q578.3281 215.4625 578.3906 215.74374Q578.59375 216.63437 579.6094 216.63437Q580.09375 216.63437 580.5 216.38437Q580.9219 216.13437 581.09375 215.72812Q581.2656 215.30624 581.2656 214.50937L581.2656 211.18124L582.3125 211.18124L582.3125 214.04062Q583.0625 213.9 583.4219 213.3375Q583.59375 213.0875 583.59375 212.4L583.0469 212.4ZM585.9844 214.29062Q585.9844 215.44687 586.5 216.07187Q587.0 216.66562 587.8125 216.66562Q588.6406 216.66562 589.125 216.07187Q589.6406 215.43124 589.6406 214.25937Q589.6406 213.13437 589.125 212.50937Q588.625 211.91562 587.8125 211.91562Q586.9844 211.91562 586.5 212.49374Q585.9844 213.13437 585.9844 214.29062ZM590.875 212.24374L590.875 211.025L592.0 211.025L592.0 211.99374Q592.0 212.7125 591.78125 213.10312Q591.4844 213.60312 590.7344 214.025Q590.7344 214.11874 590.7344 214.19687Q590.7344 216.38437 589.3281 217.16562Q588.625 217.54062 587.8125 217.54062Q586.4844 217.54062 585.7031 216.69687Q584.90625 215.8375 584.90625 214.29062Q584.90625 212.55624 585.8594 211.72812Q586.65625 211.04062 587.8125 211.04062Q589.09375 211.04062 589.9219 211.86874Q590.53125 212.50937 590.6875 213.525Q591.0781 213.275 591.25 213.00937Q591.4219 212.74374 591.4219 212.24374L590.875 212.24374ZM593.2969 217.4L593.2969 211.18124L594.2344 211.18124L594.2344 212.05624Q594.9219 211.04062 596.21875 211.04062Q596.78125 211.04062 597.25 211.24374Q597.7344 211.44687 597.96875 211.775Q598.2031 212.10312 598.2969 212.54062Q598.34375 212.8375 598.34375 213.57187L598.34375 217.4L597.2969 217.4L597.2969 213.61874Q597.2969 212.9625 597.1719 212.65Q597.0469 212.3375 596.7344 212.15Q596.4219 211.94687 596.0 211.94687Q595.3281 211.94687 594.8281 212.38437Q594.34375 212.80624 594.34375 213.99374L594.34375 217.4L593.2969 217.4ZM600.09375 217.91562L601.125 218.07187Q601.1875 218.54062 601.4844 218.75937Q601.875 219.05624 602.5469 219.05624Q603.28125 219.05624 603.6719 218.75937Q604.0781 218.4625 604.21875 217.94687Q604.3125 217.61874 604.2969 216.5875Q603.6094 217.4 602.5781 217.4Q601.2969 217.4 600.59375 216.47812Q599.8906 215.54062 599.8906 214.25937Q599.8906 213.36874 600.2031 212.61874Q600.53125 211.85312 601.1406 211.44687Q601.75 211.04062 602.5781 211.04062Q603.6875 211.04062 604.40625 211.93124L604.40625 211.18124L605.375 211.18124L605.375 216.55624Q605.375 218.00937 605.0781 218.61874Q604.78125 219.22812 604.1406 219.57187Q603.5 219.93124 602.5625 219.93124Q601.4531 219.93124 600.7656 219.43124Q600.0781 218.93124 600.09375 217.91562ZM600.96875 214.18124Q600.96875 215.4 601.4531 215.9625Q601.9375 216.525 602.6719 216.525Q603.40625 216.525 603.8906 215.9625Q604.3906 215.4 604.3906 214.2125Q604.3906 213.07187 603.875 212.49374Q603.375 211.91562 602.65625 211.91562Q601.9531 211.91562 601.4531 212.49374Q600.96875 213.05624 600.96875 214.18124ZM610.2969 219.79062L610.2969 211.18124L611.25 211.18124L611.25 211.97812Q611.59375 211.50937 612.0156 211.275Q612.4531 211.04062 613.0625 211.04062Q613.8594 211.04062 614.46875 211.44687Q615.0781 211.85312 615.375 212.60312Q615.6875 213.35312 615.6875 214.24374Q615.6875 215.19687 615.34375 215.9625Q615.0156 216.72812 614.3594 217.13437Q613.7031 217.54062 612.9844 217.54062Q612.4531 217.54062 612.03125 217.32187Q611.6094 217.0875 611.34375 216.75937L611.34375 219.79062L610.2969 219.79062ZM611.25 214.32187Q611.25 215.525 611.7344 216.10312Q612.21875 216.66562 612.90625 216.66562Q613.6094 216.66562 614.1094 216.07187Q614.6094 215.47812 614.6094 214.22812Q614.6094 213.04062 614.125 212.4625Q613.6406 211.86874 612.9531 211.86874Q612.28125 211.86874 611.7656 212.49374Q611.25 213.11874 611.25 214.32187ZM617.2969 217.4L617.2969 208.80624L618.34375 208.80624L618.34375 211.88437Q619.0781 211.04062 620.2031 211.04062Q620.90625 211.04062 621.40625 211.32187Q621.9219 211.5875 622.1406 212.07187Q622.3594 212.54062 622.3594 213.4625L622.3594 217.4L621.3125 217.4L621.3125 213.4625Q621.3125 212.66562 620.96875 212.30624Q620.625 211.94687 620.0 211.94687Q619.53125 211.94687 619.1094 212.19687Q618.7031 212.43124 618.5156 212.85312Q618.34375 213.25937 618.34375 213.99374L618.34375 217.4L617.2969 217.4ZM628.3594 216.63437Q627.7656 217.13437 627.21875 217.3375Q626.6875 217.54062 626.0625 217.54062Q625.03125 217.54062 624.4844 217.04062Q623.9375 216.54062 623.9375 215.75937Q623.9375 215.30624 624.1406 214.93124Q624.34375 214.54062 624.6875 214.32187Q625.03125 214.0875 625.4531 213.97812Q625.75 213.88437 626.3906 213.80624Q627.65625 213.66562 628.2656 213.44687Q628.2656 213.22812 628.2656 213.18124Q628.2656 212.525 627.96875 212.25937Q627.5625 211.91562 626.7656 211.91562Q626.03125 211.91562 625.6719 212.18124Q625.3125 212.43124 625.1406 213.0875L624.1094 212.94687Q624.25 212.29062 624.5781 211.88437Q624.90625 211.47812 625.5156 211.25937Q626.125 211.04062 626.9219 211.04062Q627.71875 211.04062 628.21875 211.22812Q628.71875 211.41562 628.9531 211.69687Q629.1875 211.97812 629.28125 212.41562Q629.3281 212.68124 629.3281 213.38437L629.3281 214.79062Q629.3281 216.25937 629.3906 216.65Q629.46875 217.04062 629.6719 217.4L628.5625 217.4Q628.40625 217.07187 628.3594 216.63437ZM628.2656 214.275Q627.6875 214.50937 626.5469 214.68124Q625.8906 214.775 625.625 214.9Q625.3594 215.00937 625.2031 215.22812Q625.0625 215.44687 625.0625 215.72812Q625.0625 216.15 625.375 216.43124Q625.7031 216.7125 626.3125 216.7125Q626.9219 216.7125 627.3906 216.44687Q627.875 216.18124 628.09375 215.7125Q628.2656 215.35312 628.2656 214.66562L628.2656 214.275ZM626.2031 210.4L626.9844 208.75937L628.375 208.75937L627.0781 210.4L626.2031 210.4ZM631.2969 219.79062L631.2969 211.18124L632.25 211.18124L632.25 211.97812Q632.59375 211.50937 633.0156 211.275Q633.4531 211.04062 634.0625 211.04062Q634.8594 211.04062 635.46875 211.44687Q636.0781 211.85312 636.375 212.60312Q636.6875 213.35312 636.6875 214.24374Q636.6875 215.19687 636.34375 215.9625Q636.0156 216.72812 635.3594 217.13437Q634.7031 217.54062 633.9844 217.54062Q633.4531 217.54062 633.03125 217.32187Q632.6094 217.0875 632.34375 216.75937L632.34375 219.79062L631.2969 219.79062ZM632.25 214.32187Q632.25 215.525 632.7344 216.10312Q633.21875 216.66562 633.90625 216.66562Q634.6094 216.66562 635.1094 216.07187Q635.6094 215.47812 635.6094 214.22812Q635.6094 213.04062 635.125 212.4625Q634.6406 211.86874 633.9531 211.86874Q633.28125 211.86874 632.7656 212.49374Q632.25 213.11874 632.25 214.32187ZM645.2656 210.25937L643.2344 210.25937L643.2344 209.47812L645.2656 209.47812L645.2656 208.80624L646.3125 208.80624L646.3125 209.47812L647.15625 209.47812L647.15625 210.25937L646.3125 210.25937L646.3125 217.4L645.3281 217.4L645.3281 216.61874Q644.7344 217.54062 643.59375 217.54062Q642.84375 217.54062 642.21875 217.13437Q641.59375 216.7125 641.25 215.97812Q640.90625 215.24374 640.90625 214.29062Q640.90625 213.36874 641.21875 212.60312Q641.53125 211.8375 642.15625 211.44687Q642.78125 211.04062 643.5469 211.04062Q644.1094 211.04062 644.5469 211.275Q644.9844 211.50937 645.2656 211.88437L645.2656 210.25937ZM642.0 214.29062Q642.0 215.49374 642.5 216.0875Q643.0 216.66562 643.6875 216.66562Q644.375 216.66562 644.8594 216.10312Q645.34375 215.54062 645.34375 214.38437Q645.34375 213.10312 644.84375 212.50937Q644.3594 211.91562 643.6406 211.91562Q642.9375 211.91562 642.46875 212.49374Q642.0 213.05624 642.0 214.29062ZM652.5469 215.4L653.6406 215.525Q653.3906 216.47812 652.6875 217.00937Q651.9844 217.54062 650.90625 217.54062Q649.5469 217.54062 648.7344 216.69687Q647.9375 215.85312 647.9375 214.3375Q647.9375 212.775 648.75 211.91562Q649.5625 211.04062 650.84375 211.04062Q652.09375 211.04062 652.875 211.88437Q653.6719 212.72812 653.6719 214.275Q653.6719 214.36874 653.6719 214.55624L649.03125 214.55624Q649.09375 215.5875 649.6094 216.13437Q650.125 216.66562 650.90625 216.66562Q651.4844 216.66562 651.8906 216.36874Q652.3125 216.05624 652.5469 215.4ZM649.09375 213.69687L652.5625 213.69687Q652.5 212.9 652.1719 212.50937Q651.65625 211.9 650.8594 211.9Q650.125 211.9 649.625 212.38437Q649.1406 212.86874 649.09375 213.69687ZM650.8281 209.4L650.1719 210.4L648.9531 210.4L650.21875 208.75937L651.34375 208.75937L652.6719 210.4L651.46875 210.4L650.8281 209.4ZM651.34375 208.3375L650.4844 208.3375L649.1406 206.69687L650.5469 206.69687L651.34375 208.3375ZM657.59375 217.4L659.8594 214.16562L657.7656 211.18124L659.0781 211.18124L660.03125 212.63437Q660.2969 213.05624 660.46875 213.3375Q660.71875 212.94687 660.9375 212.65L661.9844 211.18124L663.25 211.18124L661.09375 214.10312L663.40625 217.4L662.125 217.4L660.84375 215.4625L660.5 214.94687L658.8594 217.4L657.59375 217.4ZM667.375 217.4L667.375 216.47812Q666.6406 217.54062 665.3906 217.54062Q664.84375 217.54062 664.3594 217.3375Q663.8906 217.11874 663.65625 216.80624Q663.4219 216.47812 663.3281 216.00937Q663.2656 215.7125 663.2656 215.025L663.2656 211.18124L664.3281 211.18124L664.3281 214.63437Q664.3281 215.44687 664.3906 215.74374Q664.4844 216.15 664.7969 216.4Q665.125 216.63437 665.6094 216.63437Q666.0781 216.63437 666.4844 216.4Q666.90625 216.15 667.0781 215.72812Q667.2656 215.30624 667.2656 214.50937L667.2656 211.18124L668.3125 211.18124L668.3125 217.4L667.375 217.4ZM674.3594 216.63437Q673.7656 217.13437 673.21875 217.3375Q672.6875 217.54062 672.0625 217.54062Q671.03125 217.54062 670.4844 217.04062Q669.9375 216.54062 669.9375 215.75937Q669.9375 215.30624 670.1406 214.93124Q670.34375 214.54062 670.6875 214.32187Q671.03125 214.0875 671.4531 213.97812Q671.75 213.88437 672.3906 213.80624Q673.65625 213.66562 674.2656 213.44687Q674.2656 213.22812 674.2656 213.18124Q674.2656 212.525 673.96875 212.25937Q673.5625 211.91562 672.7656 211.91562Q672.03125 211.91562 671.6719 212.18124Q671.3125 212.43124 671.1406 213.0875L670.1094 212.94687Q670.25 212.29062 670.5781 211.88437Q670.90625 211.47812 671.5156 211.25937Q672.125 211.04062 672.9219 211.04062Q673.71875 211.04062 674.21875 211.22812Q674.71875 211.41562 674.9531 211.69687Q675.1875 211.97812 675.28125 212.41562Q675.3281 212.68124 675.3281 213.38437L675.3281 214.79062Q675.3281 216.25937 675.3906 216.65Q675.46875 217.04062 675.6719 217.4L674.5625 217.4Q674.40625 217.07187 674.3594 216.63437ZM674.2656 214.275Q673.6875 214.50937 672.5469 214.68124Q671.8906 214.775 671.625 214.9Q671.3594 215.00937 671.2031 215.22812Q671.0625 215.44687 671.0625 215.72812Q671.0625 216.15 671.375 216.43124Q671.7031 216.7125 672.3125 216.7125Q672.9219 216.7125 673.3906 216.44687Q673.875 216.18124 674.09375 215.7125Q674.2656 215.35312 674.2656 214.66562L674.2656 214.275ZM672.8125 209.4L672.15625 210.4L670.9375 210.4L672.2031 208.75937L673.3281 208.75937L674.65625 210.4L673.4531 210.4L672.8125 209.4ZM673.0 206.69687L674.40625 206.69687L673.0625 208.3375L672.2031 208.3375L673.0 206.69687ZM679.59375 216.4625L679.75 217.38437Q679.2969 217.47812 678.9531 217.47812Q678.375 217.47812 678.0625 217.30624Q677.75 217.11874 677.6094 216.82187Q677.4844 216.525 677.4844 215.57187L677.4844 211.99374L676.71875 211.99374L676.71875 211.18124L677.4844 211.18124L677.4844 209.63437L678.53125 209.00937L678.53125 211.18124L679.59375 211.18124L679.59375 211.99374L678.53125 211.99374L678.53125 215.63437Q678.53125 216.0875 678.5781 216.2125Q678.6406 216.3375 678.7656 216.41562Q678.8906 216.49374 679.125 216.49374Q679.3125 216.49374 679.59375 216.4625Z" fill-rule="nonzero"/></svg>