<svg version="1.1" viewBox="0.0 0.0 1038.0 272.0" fill="none" stroke="none" stroke-linecap="square" stroke-miterlimit="10" width="1038" height="272" xmlns:xlink="http://www.w3.org/1999/xlink" xmlns="http://www.w3.org/2000/svg"><path fill="#ffffff" d="M0 0L1038.0 0L1038.0 272.0L0 272.0L0 0Z" fill-rule="nonzero"/><path stroke="#333333" stroke-width="1.0" stroke-linecap="butt" d="M102.5 173.5L1024.5 173.5" fill-rule="nonzero"/><path stroke="#cccccc" stroke-width="1.0" stroke-linecap="butt" d="M102.5 142.5L1024.5 142.5" fill-rule="nonzero"/><path stroke="#cccccc" stroke-width="1.0" stroke-linecap="butt" d="M102.5 112.5L1024.5 112.5" fill-rule="nonzero"/><path stroke="#cccccc" stroke-width="1.0" stroke-linecap="butt" d="M102.5 81.5L1024.5 81.5" fill-rule="nonzero"/><path stroke="#cccccc" stroke-width="1.0" stroke-linecap="butt" d="M102.5 51.5L1024.5 51.5" fill-rule="nonzero"/><path stroke="#cccccc" stroke-width="1.0" stroke-linecap="butt" d="M102.5 20.5L1024.5 20.5" fill-rule="nonzero"/><clipPath id="id_0"><path d="M102.6 20.6L1024.4 20.6L1024.4 173.33333L102.6 173.33333L102.6 20.6Z" clip-rule="nonzero"/></clipPath><path stroke="#ff0000" stroke-width="2.0" stroke-linecap="butt" stroke-dasharray="8.0,6.0" clip-path="url(#id_0)" d="M123.55 161.29427L165.45 153.67305L207.35 171.72356L249.25 155.92986L291.15 129.99295L333.05 169.72849L374.95 133.14996L416.85 164.64919L458.75 170.08115L500.65 165.2333L542.55 158.93578L584.45 170.4727L626.35 164.12473L668.25 163.57657L710.15 158.67763L752.05 148.59375L793.95 168.02788L835.85 129.61115L877.75 156.46677L919.65 160.89949L961.55 167.77441L1003.45 112.07615" fill-rule="nonzero"/><path stroke="#0000ff" stroke-width="2.0" stroke-linecap="butt" clip-path="url(#id_0)" d="M123.55 153.67305L165.45 91.18534L207.35 44.504772L249.25 35.46254L291.15 140.79414L333.05 161.29427L374.95 149.72997L416.85 171.81604L458.75 150.54213L500.65 171.76257L542.55 171.03287L584.45 172.06114L626.35 171.84589L668.25 170.79988L710.15 170.78905L752.05 171.14413L793.95 172.18864L835.85 171.044L877.75 171.60326L919.65 74.88275L961.55 129.98203L1003.45 94.46393" fill-rule="nonzero"/><path fill="#000000" fill-opacity="0.0" clip-path="url(#id_0)" d="M126.55 161.29427C126.55 162.95113 125.206856 164.29427 123.55 164.29427C121.89314 164.29427 120.55 162.95113 120.55 161.29427C120.55 159.63742 121.89314 158.29427 123.55 158.29427C125.206856 158.29427 126.55 159.63742 126.55 161.29427Z" fill-rule="nonzero"/><path fill="#000000" fill-opacity="0.0" clip-path="url(#id_0)" d="M168.45 153.67305C168.45 155.32991 167.10686 156.67305 165.45 156.67305C163.79315 156.67305 162.45 155.32991 162.45 153.67305C162.45 152.0162 163.79315 150.67305 165.45 150.67305C167.10686 150.67305 168.45 152.0162 168.45 153.67305Z" fill-rule="nonzero"/><path fill="#000000" fill-opacity="0.0" clip-path="url(#id_0)" d="M210.35 171.72356C210.35 173.38042 209.00685 174.72356 207.35 174.72356C205.69315 174.72356 204.35 173.38042 204.35 171.72356C204.35 170.06671 205.69315 168.72356 207.35 168.72356C209.00685 168.72356 210.35 170.06671 210.35 171.72356Z" fill-rule="nonzero"/><path fill="#000000" fill-opacity="0.0" clip-path="url(#id_0)" d="M252.25 155.92986C252.25 157.58672 250.90686 158.92986 249.25 158.92986C247.59314 158.92986 246.25 157.58672 246.25 155.92986C246.25 154.273 247.59314 152.92986 249.25 152.92986C250.90686 152.92986 252.25 154.273 252.25 155.92986Z" fill-rule="nonzero"/><path fill="#000000" fill-opacity="0.0" clip-path="url(#id_0)" d="M294.15 129.99295C294.15 131.6498 292.80685 132.99295 291.15 132.99295C289.49313 132.99295 288.15 131.6498 288.15 129.99295C288.15 128.33609 289.49313 126.99295 291.15 126.99295C292.80685 126.99295 294.15 128.33609 294.15 129.99295Z" fill-rule="nonzero"/><path fill="#000000" fill-opacity="0.0" clip-path="url(#id_0)" d="M336.05 169.72849C336.05 171.38533 334.70685 172.72849 333.05 172.72849C331.39316 172.72849 330.05 171.38533 330.05 169.72849C330.05 168.07162 331.39316 166.72849 333.05 166.72849C334.70685 166.72849 336.05 168.07162 336.05 169.72849Z" fill-rule="nonzero"/><path fill="#000000" fill-opacity="0.0" clip-path="url(#id_0)" d="M377.95 133.14996C377.95 134.80681 376.60684 136.14996 374.95 136.14996C373.29315 136.14996 371.95 134.80681 371.95 133.14996C371.95 131.4931 373.29315 130.14996 374.95 130.14996C376.60684 130.14996 377.95 131.4931 377.95 133.14996Z" fill-rule="nonzero"/><path fill="#000000" fill-opacity="0.0" clip-path="url(#id_0)" d="M419.85 164.64919C419.85 166.30603 418.50687 167.64919 416.85 167.64919C415.19315 167.64919 413.85 166.30603 413.85 164.64919C413.85 162.99232 415.19315 161.64919 416.85 161.64919C418.50687 161.64919 419.85 162.99232 419.85 164.64919Z" fill-rule="nonzero"/><path fill="#000000" fill-opacity="0.0" clip-path="url(#id_0)" d="M461.75 170.08115C461.75 171.73799 460.40686 173.08115 458.75 173.08115C457.09314 173.08115 455.75 171.73799 455.75 170.08115C455.75 168.42429 457.09314 167.08115 458.75 167.08115C460.40686 167.08115 461.75 168.42429 461.75 170.08115Z" fill-rule="nonzero"/><path fill="#000000" fill-opacity="0.0" clip-path="url(#id_0)" d="M503.65 165.2333C503.65 166.89015 502.30685 168.2333 500.65 168.2333C498.99313 168.2333 497.65 166.89015 497.65 165.2333C497.65 163.57645 498.99313 162.2333 500.65 162.2333C502.30685 162.2333 503.65 163.57645 503.65 165.2333Z" fill-rule="nonzero"/><path fill="#000000" fill-opacity="0.0" clip-path="url(#id_0)" d="M545.55 158.93578C545.55 160.59262 544.20685 161.93578 542.55 161.93578C540.8931 161.93578 539.55 160.59262 539.55 158.93578C539.55 157.27892 540.8931 155.93578 542.55 155.93578C544.20685 155.93578 545.55 157.27892 545.55 158.93578Z" fill-rule="nonzero"/><path fill="#000000" fill-opacity="0.0" clip-path="url(#id_0)" d="M587.45 170.4727C587.45 172.12956 586.1069 173.4727 584.45 173.4727C582.79315 173.4727 581.45 172.12956 581.45 170.4727C581.45 168.81586 582.79315 167.4727 584.45 167.4727C586.1069 167.4727 587.45 168.81586 587.45 170.4727Z" fill-rule="nonzero"/><path fill="#000000" fill-opacity="0.0" clip-path="url(#id_0)" d="M629.35 164.12473C629.35 165.78159 628.00684 167.12473 626.35 167.12473C624.6931 167.12473 623.35 165.78159 623.35 164.12473C623.35 162.46788 624.6931 161.12473 626.35 161.12473C628.00684 161.12473 629.35 162.46788 629.35 164.12473Z" fill-rule="nonzero"/><path fill="#000000" fill-opacity="0.0" clip-path="url(#id_0)" d="M671.25 163.57657C671.25 165.23343 669.90686 166.57657 668.25 166.57657C666.59314 166.57657 665.25 165.23343 665.25 163.57657C665.25 161.91972 666.59314 160.57657 668.25 160.57657C669.90686 160.57657 671.25 161.91972 671.25 163.57657Z" fill-rule="nonzero"/><path fill="#000000" fill-opacity="0.0" clip-path="url(#id_0)" d="M713.15 158.67763C713.15 160.33449 711.8069 161.67763 710.15 161.67763C708.49316 161.67763 707.15 160.33449 707.15 158.67763C707.15 157.02077 708.49316 155.67763 710.15 155.67763C711.8069 155.67763 713.15 157.02077 713.15 158.67763Z" fill-rule="nonzero"/><path fill="#000000" fill-opacity="0.0" clip-path="url(#id_0)" d="M755.05 148.59375C755.05 150.25061 753.70685 151.59375 752.05 151.59375C750.3931 151.59375 749.05 150.25061 749.05 148.59375C749.05 146.9369 750.3931 145.59375 752.05 145.59375C753.70685 145.59375 755.05 146.9369 755.05 148.59375Z" fill-rule="nonzero"/><path fill="#000000" fill-opacity="0.0" clip-path="url(#id_0)" d="M796.95 168.02788C796.95 169.68474 795.6069 171.02788 793.95 171.02788C792.29315 171.02788 790.95 169.68474 790.95 168.02788C790.95 166.37102 792.29315 165.02788 793.95 165.02788C795.6069 165.02788 796.95 166.37102 796.95 168.02788Z" fill-rule="nonzero"/><path fill="#000000" fill-opacity="0.0" clip-path="url(#id_0)" d="M838.85 129.61115C838.85 131.26799 837.50684 132.61115 835.85 132.61115C834.1931 132.61115 832.85 131.26799 832.85 129.61115C832.85 127.954285 834.1931 126.61114 835.85 126.61114C837.50684 126.61114 838.85 127.954285 838.85 129.61115Z" fill-rule="nonzero"/><path fill="#000000" fill-opacity="0.0" clip-path="url(#id_0)" d="M880.75 156.46677C880.75 158.12361 879.40686 159.46677 877.75 159.46677C876.09314 159.46677 874.75 158.12361 874.75 156.46677C874.75 154.8099 876.09314 153.46677 877.75 153.46677C879.40686 153.46677 880.75 154.8099 880.75 156.46677Z" fill-rule="nonzero"/><path fill="#000000" fill-opacity="0.0" clip-path="url(#id_0)" d="M922.65 160.89949C922.65 162.55635 921.3069 163.89949 919.65 163.89949C917.99316 163.89949 916.65 162.55635 916.65 160.89949C916.65 159.24263 917.99316 157.89949 919.65 157.89949C921.3069 157.89949 922.65 159.24263 922.65 160.89949Z" fill-rule="nonzero"/><path fill="#000000" fill-opacity="0.0" clip-path="url(#id_0)" d="M964.55 167.77441C964.55 169.43127 963.20685 170.77441 961.55 170.77441C959.8931 170.77441 958.55 169.43127 958.55 167.77441C958.55 166.11755 959.8931 164.77441 961.55 164.77441C963.20685 164.77441 964.55 166.11755 964.55 167.77441Z" fill-rule="nonzero"/><path fill="#000000" fill-opacity="0.0" clip-path="url(#id_0)" d="M1006.45 112.07615C1006.45 113.733 1005.1069 115.07615 1003.45 115.07615C1001.79315 115.07615 1000.45 113.733 1000.45 112.07615C1000.45 110.41929 1001.79315 109.07615 1003.45 109.07615C1005.1069 109.07615 1006.45 110.41929 1006.45 112.07615Z" fill-rule="nonzero"/><path fill="#000000" fill-opacity="0.0" clip-path="url(#id_0)" d="M126.55 153.67305C126.55 155.32991 125.206856 156.67305 123.55 156.67305C121.89314 156.67305 120.55 155.32991 120.55 153.67305C120.55 152.0162 121.89314 150.67305 123.55 150.67305C125.206856 150.67305 126.55 152.0162 126.55 153.67305Z" fill-rule="nonzero"/><path fill="#000000" fill-opacity="0.0" clip-path="url(#id_0)" d="M168.45 91.18534C168.45 92.84219 167.10686 94.18534 165.45 94.18534C163.79315 94.18534 162.45 92.84219 162.45 91.18534C162.45 89.52849 163.79315 88.18534 165.45 88.18534C167.10686 88.18534 168.45 89.52849 168.45 91.18534Z" fill-rule="nonzero"/><path fill="#000000" fill-opacity="0.0" clip-path="url(#id_0)" d="M210.35 44.504772C210.35 46.161625 209.00685 47.504772 207.35 47.504772C205.69315 47.504772 204.35 46.161625 204.35 44.504772C204.35 42.847916 205.69315 41.504772 207.35 41.504772C209.00685 41.504772 210.35 42.847916 210.35 44.504772Z" fill-rule="nonzero"/><path fill="#000000" fill-opacity="0.0" clip-path="url(#id_0)" d="M252.25 35.46254C252.25 37.119396 250.90686 38.46254 249.25 38.46254C247.59314 38.46254 246.25 37.119396 246.25 35.46254C246.25 33.805687 247.59314 32.46254 249.25 32.46254C250.90686 32.46254 252.25 33.805687 252.25 35.46254Z" fill-rule="nonzero"/><path fill="#000000" fill-opacity="0.0" clip-path="url(#id_0)" d="M294.15 140.79414C294.15 142.45099 292.80685 143.79414 291.15 143.79414C289.49313 143.79414 288.15 142.45099 288.15 140.79414C288.15 139.13728 289.49313 137.79414 291.15 137.79414C292.80685 137.79414 294.15 139.13728 294.15 140.79414Z" fill-rule="nonzero"/><path fill="#000000" fill-opacity="0.0" clip-path="url(#id_0)" d="M336.05 161.29427C336.05 162.95113 334.70685 164.29427 333.05 164.29427C331.39316 164.29427 330.05 162.95113 330.05 161.29427C330.05 159.63742 331.39316 158.29427 333.05 158.29427C334.70685 158.29427 336.05 159.63742 336.05 161.29427Z" fill-rule="nonzero"/><path fill="#000000" fill-opacity="0.0" clip-path="url(#id_0)" d="M377.95 149.72997C377.95 151.38681 376.60684 152.72997 374.95 152.72997C373.29315 152.72997 371.95 151.38681 371.95 149.72997C371.95 148.0731 373.29315 146.72997 374.95 146.72997C376.60684 146.72997 377.95 148.0731 377.95 149.72997Z" fill-rule="nonzero"/><path fill="#000000" fill-opacity="0.0" clip-path="url(#id_0)" d="M419.85 171.81604C419.85 173.47289 418.50687 174.81604 416.85 174.81604C415.19315 174.81604 413.85 173.47289 413.85 171.81604C413.85 170.15918 415.19315 168.81604 416.85 168.81604C418.50687 168.81604 419.85 170.15918 419.85 171.81604Z" fill-rule="nonzero"/><path fill="#000000" fill-opacity="0.0" clip-path="url(#id_0)" d="M461.75 150.54213C461.75 152.19899 460.40686 153.54213 458.75 153.54213C457.09314 153.54213 455.75 152.19899 455.75 150.54213C455.75 148.88528 457.09314 147.54213 458.75 147.54213C460.40686 147.54213 461.75 148.88528 461.75 150.54213Z" fill-rule="nonzero"/><path fill="#000000" fill-opacity="0.0" clip-path="url(#id_0)" d="M503.65 171.76257C503.65 173.41942 502.30685 174.76257 500.65 174.76257C498.99313 174.76257 497.65 173.41942 497.65 171.76257C497.65 170.10571 498.99313 168.76257 500.65 168.76257C502.30685 168.76257 503.65 170.10571 503.65 171.76257Z" fill-rule="nonzero"/><path fill="#000000" fill-opacity="0.0" clip-path="url(#id_0)" d="M545.55 171.03287C545.55 172.68973 544.20685 174.03287 542.55 174.03287C540.8931 174.03287 539.55 172.68973 539.55 171.03287C539.55 169.37602 540.8931 168.03287 542.55 168.03287C544.20685 168.03287 545.55 169.37602 545.55 171.03287Z" fill-rule="nonzero"/><path fill="#000000" fill-opacity="0.0" clip-path="url(#id_0)" d="M587.45 172.06114C587.45 173.71799 586.1069 175.06114 584.45 175.06114C582.79315 175.06114 581.45 173.71799 581.45 172.06114C581.45 170.40428 582.79315 169.06114 584.45 169.06114C586.1069 169.06114 587.45 170.40428 587.45 172.06114Z" fill-rule="nonzero"/><path fill="#000000" fill-opacity="0.0" clip-path="url(#id_0)" d="M629.35 171.84589C629.35 173.50275 628.00684 174.84589 626.35 174.84589C624.6931 174.84589 623.35 173.50275 623.35 171.84589C623.35 170.18904 624.6931 168.84589 626.35 168.84589C628.00684 168.84589 629.35 170.18904 629.35 171.84589Z" fill-rule="nonzero"/><path fill="#000000" fill-opacity="0.0" clip-path="url(#id_0)" d="M671.25 170.79988C671.25 172.45674 669.90686 173.79988 668.25 173.79988C666.59314 173.79988 665.25 172.45674 665.25 170.79988C665.25 169.14302 666.59314 167.79988 668.25 167.79988C669.90686 167.79988 671.25 169.14302 671.25 170.79988Z" fill-rule="nonzero"/><path fill="#000000" fill-opacity="0.0" clip-path="url(#id_0)" d="M713.15 170.78905C713.15 172.4459 711.8069 173.78905 710.15 173.78905C708.49316 173.78905 707.15 172.4459 707.15 170.78905C707.15 169.13219 708.49316 167.78905 710.15 167.78905C711.8069 167.78905 713.15 169.13219 713.15 170.78905Z" fill-rule="nonzero"/><path fill="#000000" fill-opacity="0.0" clip-path="url(#id_0)" d="M755.05 171.14413C755.05 172.801 753.70685 174.14413 752.05 174.14413C750.3931 174.14413 749.05 172.801 749.05 171.14413C749.05 169.48729 750.3931 168.14413 752.05 168.14413C753.70685 168.14413 755.05 169.48729 755.05 171.14413Z" fill-rule="nonzero"/><path fill="#000000" fill-opacity="0.0" clip-path="url(#id_0)" d="M796.95 172.18864C796.95 173.8455 795.6069 175.18864 793.95 175.18864C792.29315 175.18864 790.95 173.8455 790.95 172.18864C790.95 170.53178 792.29315 169.18864 793.95 169.18864C795.6069 169.18864 796.95 170.53178 796.95 172.18864Z" fill-rule="nonzero"/><path fill="#000000" fill-opacity="0.0" clip-path="url(#id_0)" d="M838.85 171.044C838.85 172.70085 837.50684 174.044 835.85 174.044C834.1931 174.044 832.85 172.70085 832.85 171.044C832.85 169.38715 834.1931 168.044 835.85 168.044C837.50684 168.044 838.85 169.38715 838.85 171.044Z" fill-rule="nonzero"/><path fill="#000000" fill-opacity="0.0" clip-path="url(#id_0)" d="M880.75 171.60326C880.75 173.26012 879.40686 174.60326 877.75 174.60326C876.09314 174.60326 874.75 173.26012 874.75 171.60326C874.75 169.94641 876.09314 168.60326 877.75 168.60326C879.40686 168.60326 880.75 169.94641 880.75 171.60326Z" fill-rule="nonzero"/><path fill="#000000" fill-opacity="0.0" clip-path="url(#id_0)" d="M922.65 74.88275C922.65 76.539604 921.3069 77.88275 919.65 77.88275C917.99316 77.88275 916.65 76.539604 916.65 74.88275C916.65 73.2259 917.99316 71.88275 919.65 71.88275C921.3069 71.88275 922.65 73.2259 922.65 74.88275Z" fill-rule="nonzero"/><path fill="#000000" fill-opacity="0.0" clip-path="url(#id_0)" d="M964.55 129.98203C964.55 131.63889 963.20685 132.98203 961.55 132.98203C959.8931 132.98203 958.55 131.63889 958.55 129.98203C958.55 128.32518 959.8931 126.98203 961.55 126.98203C963.20685 126.98203 964.55 128.32518 964.55 129.98203Z" fill-rule="nonzero"/><path fill="#000000" fill-opacity="0.0" clip-path="url(#id_0)" d="M1006.45 94.46393C1006.45 96.12078 1005.1069 97.46393 1003.45 97.46393C1001.79315 97.46393 1000.45 96.12078 1000.45 94.46393C1000.45 92.807076 1001.79315 91.46393 1003.45 91.46393C1005.1069 91.46393 1006.45 92.807076 1006.45 94.46393Z" fill-rule="nonzero"/><path fill="#000000" d="M501.39062 224.33333L501.39062 218.47395L499.96875 218.47395L499.96875 217.3177L501.39062 217.3177L501.39062 211.4427L505.84375 211.4427Q507.32812 211.4427 508.125 211.6302Q509.23438 211.8802 510.01562 212.55208Q511.03125 213.41145 511.53125 214.7552Q512.0469 216.09895 512.0469 217.8177Q512.0469 219.78645 511.42188 221.20833Q510.79688 222.6302 509.92188 223.27083Q509.04688 223.91145 507.92188 224.17708Q507.29688 224.33333 506.03125 224.33333L501.39062 224.33333ZM503.09375 222.8177L505.84375 222.8177Q507.125 222.8177 507.84375 222.58333Q508.5625 222.33333 508.98438 221.91145Q509.59375 221.30208 509.9375 220.28645Q510.28125 219.27083 510.28125 217.80208Q510.28125 216.28645 509.9375 215.3802Q509.60938 214.47395 509.0625 213.9427Q508.51562 213.39583 507.84375 213.1927Q507.1875 212.97395 505.79688 212.97395L503.09375 212.97395L503.09375 217.3177L506.64062 217.3177L506.64062 218.47395L503.09375 218.47395L503.09375 222.8177ZM515.21875 219.66145Q515.21875 221.39583 516.0 222.34895Q516.75 223.23958 517.96875 223.23958Q519.2031 223.23958 519.9375 222.34895Q520.71875 221.39583 520.71875 219.61458Q520.71875 217.92708 519.9219 216.98958Q519.1875 216.09895 517.96875 216.09895Q516.7344 216.09895 516.0 216.98958Q515.21875 217.92708 515.21875 219.66145ZM522.5469 216.61458L522.5469 214.77083L524.25 214.77083L524.25 216.22395Q524.25 217.3177 523.9219 217.89583Q523.4844 218.64583 522.34375 219.28645Q522.34375 219.39583 522.34375 219.53645Q522.34375 222.80208 520.2344 223.97395Q519.2031 224.55208 517.96875 224.55208Q515.96875 224.55208 514.7969 223.28645Q513.59375 221.98958 513.59375 219.66145Q513.59375 217.0677 515.0469 215.8177Q516.25 214.78645 517.96875 214.78645Q519.90625 214.78645 521.125 216.05208Q522.0469 217.0052 522.2656 218.52083Q522.875 218.14583 523.125 217.7552Q523.3906 217.34895 523.375 216.61458L522.5469 216.61458ZM526.1875 224.33333L526.1875 215.0052L527.6094 215.0052L527.6094 216.33333Q528.6406 214.78645 530.5781 214.78645Q531.4219 214.78645 532.125 215.09895Q532.84375 215.39583 533.1875 215.89583Q533.5469 216.3802 533.6875 217.05208Q533.7656 217.48958 533.7656 218.59895L533.7656 224.33333L532.1875 224.33333L532.1875 218.66145Q532.1875 217.6927 532.0 217.20833Q531.8281 216.72395 531.34375 216.4427Q530.875 216.16145 530.25 216.16145Q529.2344 216.16145 528.5 216.80208Q527.7656 217.4427 527.7656 219.23958L527.7656 224.33333L526.1875 224.33333ZM543.78125 224.33333L540.2344 215.0052L541.90625 215.0052L543.90625 220.58333Q544.2344 221.48958 544.5 222.47395Q544.71875 221.72395 545.09375 220.6927L547.15625 215.0052L548.7969 215.0052L545.25 224.33333L543.78125 224.33333ZM550.2031 213.27083L550.2031 211.4427L551.78125 211.4427L551.78125 213.27083L550.2031 213.27083ZM550.2031 224.33333L550.2031 215.0052L551.78125 215.0052L551.78125 224.33333L550.2031 224.33333ZM550.09375 227.1927L550.09375 225.39583L551.8906 225.39583L551.8906 227.1927L550.09375 227.1927ZM559.2031 224.33333L559.2031 211.4427L560.78125 211.4427L560.78125 218.80208L564.5156 215.0052L566.5625 215.0052L563.0 218.45833L566.9375 224.33333L564.9844 224.33333L561.8906 219.5677L560.78125 220.6302L560.78125 224.33333L559.2031 224.33333ZM568.2031 213.27083L568.2031 211.4427L569.78125 211.4427L569.78125 213.27083L568.2031 213.27083ZM568.2031 224.33333L568.2031 215.0052L569.78125 215.0052L569.78125 224.33333L568.2031 224.33333ZM578.5781 221.33333L580.21875 221.53645Q579.8281 222.95833 578.78125 223.7552Q577.7344 224.55208 576.1094 224.55208Q574.0625 224.55208 572.8594 223.28645Q571.65625 222.02083 571.65625 219.73958Q571.65625 217.39583 572.8594 216.09895Q574.0781 214.78645 576.0156 214.78645Q577.8906 214.78645 579.0781 216.0677Q580.2656 217.33333 580.2656 219.64583Q580.2656 219.78645 580.25 220.0677L573.2969 220.0677Q573.375 221.61458 574.15625 222.42708Q574.9531 223.23958 576.1094 223.23958Q576.9844 223.23958 577.59375 222.78645Q578.21875 222.33333 578.5781 221.33333ZM573.375 218.77083L578.59375 218.77083Q578.4844 217.59895 578.0 217.0052Q577.2344 216.08333 576.03125 216.08333Q574.9531 216.08333 574.2031 216.8177Q573.46875 217.55208 573.375 218.77083ZM575.9844 212.34895L574.9844 213.83333L573.1719 213.83333L575.0781 211.3802L576.7656 211.3802L578.7344 213.83333L576.9375 213.83333L575.9844 212.34895ZM575.46875 210.05208Q575.96875 210.0052 576.1094 209.95833Q576.5781 209.84895 576.59375 209.59895Q576.59375 209.39583 576.34375 209.2552Q575.96875 209.05208 575.1719 209.05208Q574.90625 209.05208 574.34375 209.09895L574.25 208.27083Q574.59375 208.1927 575.5156 208.20833Q576.59375 208.20833 577.28125 208.55208Q578.03125 208.92708 578.0625 209.52083Q578.09375 210.39583 576.4531 210.59895L576.4531 211.03645L575.46875 211.03645L575.46875 210.05208ZM582.1875 224.33333L582.1875 215.0052L583.6094 215.0052L583.6094 216.30208Q584.0469 215.6302 584.7656 215.20833Q585.5 214.78645 586.4375 214.78645Q587.46875 214.78645 588.125 215.22395Q588.7969 215.64583 589.0625 216.42708Q590.1719 214.78645 591.9531 214.78645Q593.34375 214.78645 594.0781 215.5677Q594.8281 216.33333 594.8281 217.92708L594.8281 224.33333L593.2656 224.33333L593.2656 218.45833Q593.2656 217.5052 593.1094 217.08333Q592.9531 216.66145 592.5469 216.41145Q592.1406 216.16145 591.59375 216.16145Q590.6094 216.16145 589.9531 216.8177Q589.3125 217.47395 589.3125 218.91145L589.3125 224.33333L587.7344 224.33333L587.7344 218.27083Q587.7344 217.20833 587.34375 216.6927Q586.9531 216.16145 586.0781 216.16145Q585.40625 216.16145 584.84375 216.52083Q584.28125 216.86458 584.0156 217.53645Q583.7656 218.20833 583.7656 219.48958L583.7656 224.33333L582.1875 224.33333ZM604.6406 222.91145L604.875 224.3177Q604.2031 224.45833 603.6719 224.45833Q602.8125 224.45833 602.3281 224.1927Q601.8594 223.91145 601.6719 223.47395Q601.4844 223.02083 601.4844 221.59895L601.4844 216.22395L600.3125 216.22395L600.3125 215.0052L601.4844 215.0052L601.4844 212.6927L603.0469 211.73958L603.0469 215.0052L604.6406 215.0052L604.6406 216.22395L603.0469 216.22395L603.0469 221.6927Q603.0469 222.36458 603.125 222.5677Q603.21875 222.7552 603.40625 222.86458Q603.59375 222.97395 603.9531 222.97395Q604.2031 222.97395 604.6406 222.91145ZM606.1875 224.33333L606.1875 211.4427L607.7656 211.4427L607.7656 216.0677Q608.875 214.78645 610.5625 214.78645Q611.59375 214.78645 612.3594 215.1927Q613.125 215.59895 613.4531 216.33333Q613.7969 217.05208 613.7969 218.41145L613.7969 224.33333L612.2031 224.33333L612.2031 218.41145Q612.2031 217.22395 611.6875 216.6927Q611.1719 216.14583 610.2344 216.14583Q609.53125 216.14583 608.90625 216.52083Q608.2969 216.8802 608.03125 217.5052Q607.7656 218.1302 607.7656 219.22395L607.7656 224.33333L606.1875 224.33333ZM624.8125 216.83333L624.8125 215.0052L626.5 215.0052L626.5 216.4427Q626.5 217.83333 626.1875 218.3802Q625.375 219.78645 623.71875 219.95833L623.71875 224.33333L622.2969 224.33333L622.2969 222.95833Q621.21875 224.55208 619.34375 224.55208Q618.53125 224.55208 617.8125 224.23958Q617.09375 223.92708 616.7344 223.4427Q616.3906 222.95833 616.25 222.2552Q616.15625 221.78645 616.15625 220.78645L616.15625 215.0052L617.7344 215.0052L617.7344 220.17708Q617.7344 221.42708 617.8281 221.84895Q618.1406 223.17708 619.65625 223.17708Q620.3906 223.17708 621.0 222.8177Q621.625 222.4427 621.875 221.8177Q622.1406 221.1927 622.1406 220.0052L622.1406 215.0052L623.71875 215.0052L623.71875 219.28645Q624.8281 219.09895 625.3906 218.23958Q625.6406 217.8802 625.6406 216.83333L624.8125 216.83333ZM619.4375 212.78645Q619.9375 212.72395 620.0781 212.6927Q620.5469 212.53645 620.5469 212.1927Q620.5625 211.98958 620.3125 211.84895Q619.9375 211.64583 619.1406 211.64583Q618.8594 211.64583 618.3125 211.6927L618.21875 210.78645Q618.5625 210.72395 619.4844 210.72395Q620.5625 210.73958 621.25 211.08333Q622.0 211.4427 622.0156 212.11458Q622.0625 213.1927 620.4219 213.39583L620.4219 213.83333L619.4375 213.83333L619.4375 212.78645Z" fill-rule="nonzero"/><path fill="#000000" d="M30.599995 160.65416L17.70937 160.65416L17.70937 155.81041Q17.70937 154.34166 18.099995 153.45103Q18.49062 152.56041 19.30312 152.06041Q20.11562 151.54478 21.006245 151.54478Q21.83437 151.54478 22.568745 151.99791Q23.30312 152.43541 23.74062 153.34166Q24.08437 152.16978 24.912495 151.54478Q25.74062 150.91978 26.86562 150.91978Q27.77187 150.91978 28.55312 151.31041Q29.318745 151.68541 29.74062 152.24791Q30.162495 152.81041 30.381245 153.65416Q30.599995 154.49791 30.599995 155.73228L30.599995 160.65416ZM23.131245 158.93541L23.131245 156.15416Q23.131245 155.02916 22.974995 154.52916Q22.787495 153.87291 22.349995 153.54478Q21.89687 153.21666 21.20937 153.21666Q20.568745 153.21666 20.08437 153.52916Q19.599995 153.84166 19.42812 154.41978Q19.24062 154.98228 19.24062 156.37291L19.24062 158.93541L23.131245 158.93541ZM29.08437 158.93541L29.08437 155.73228Q29.08437 154.90416 29.02187 154.57603Q28.912495 153.98228 28.662495 153.59166Q28.412495 153.20103 27.943745 152.95103Q27.474995 152.68541 26.86562 152.68541Q26.14687 152.68541 25.61562 153.06041Q25.08437 153.41978 24.86562 154.07603Q24.64687 154.73228 24.64687 155.96666L24.64687 158.93541L29.08437 158.93541ZM25.92812 149.37291Q23.33437 149.37291 22.08437 147.91978Q21.05312 146.71666 21.05312 144.99791Q21.05312 143.06041 22.318745 141.84166Q23.58437 140.62291 25.80312 140.62291Q27.599995 140.62291 28.631245 141.16978Q29.662495 141.70103 30.24062 142.73228Q30.818745 143.76353 30.818745 144.99791Q30.818745 146.95103 29.568745 148.16978Q28.30312 149.37291 25.92812 149.37291ZM25.92812 147.74791Q27.724995 147.74791 28.61562 146.96666Q29.506245 146.18541 29.506245 144.99791Q29.506245 143.81041 28.61562 143.02916Q27.70937 142.24791 25.881245 142.24791Q24.14687 142.24791 23.256245 143.04478Q22.36562 143.82603 22.36562 144.99791Q22.36562 146.18541 23.256245 146.96666Q24.14687 147.74791 25.92812 147.74791ZM18.61562 144.96666L20.099995 145.96666L20.099995 147.77916L17.64687 145.87291L17.64687 144.18541L20.099995 142.21666L20.099995 144.01353L18.61562 144.96666ZM33.45937 145.96666L31.662495 145.96666L31.662495 144.16978L33.45937 144.16978L33.45937 145.96666ZM30.599995 133.77916L21.27187 133.77916L21.27187 132.35728L22.599995 132.35728Q21.05312 131.32603 21.05312 129.38853Q21.05312 128.54478 21.36562 127.84167Q21.662495 127.12292 22.162495 126.77917Q22.64687 126.41979 23.318745 126.27917Q23.756245 126.20104 24.86562 126.20104L30.599995 126.20104L30.599995 127.77917L24.92812 127.77917Q23.95937 127.77917 23.474995 127.96667Q22.99062 128.13853 22.70937 128.62291Q22.42812 129.09166 22.42812 129.71666Q22.42812 130.73228 23.068745 131.46666Q23.70937 132.20103 25.506245 132.20103L30.599995 132.20103L30.599995 133.77916ZM30.599995 123.77917L17.70937 123.77917L17.70937 122.20104L22.33437 122.20104Q21.05312 121.09167 21.05312 119.40417Q21.05312 118.37292 21.45937 117.60729Q21.86562 116.84167 22.599995 116.51354Q23.318745 116.16979 24.67812 116.16979L30.599995 116.16979L30.599995 117.76354L24.67812 117.76354Q23.49062 117.76354 22.95937 118.27917Q22.412495 118.79479 22.412495 119.73229Q22.412495 120.43542 22.787495 121.06042Q23.14687 121.66979 23.77187 121.93542Q24.39687 122.20104 25.49062 122.20104L30.599995 122.20104L30.599995 123.77917ZM25.92812 112.74792Q27.662495 112.74792 28.61562 111.96667Q29.506245 111.21667 29.506245 109.99792Q29.506245 108.76354 28.61562 108.02917Q27.662495 107.24792 25.881245 107.24792Q24.193745 107.24792 23.256245 108.04479Q22.36562 108.77917 22.36562 109.99792Q22.36562 111.23229 23.256245 111.96667Q24.193745 112.74792 25.92812 112.74792ZM22.881245 105.41979L21.037495 105.41979L21.037495 103.71667L22.49062 103.71667Q23.58437 103.71667 24.162495 104.04479Q24.912495 104.48229 25.55312 105.62292Q25.662495 105.62292 25.80312 105.62292Q29.068745 105.62292 30.24062 107.73229Q30.818745 108.76354 30.818745 109.99792Q30.818745 111.99792 29.55312 113.16979Q28.256245 114.37292 25.92812 114.37292Q23.33437 114.37292 22.08437 112.91979Q21.05312 111.71667 21.05312 109.99792Q21.05312 108.06042 22.318745 106.84167Q23.27187 105.91979 24.787495 105.70104Q24.412495 105.09167 24.02187 104.84167Q23.61562 104.57604 22.881245 104.59167L22.881245 105.41979ZM20.099995 110.87292L17.64687 109.70104L17.64687 107.63854L20.099995 109.56042L20.099995 110.87292ZM27.818745 97.41979L27.568745 95.84167Q28.506245 95.71667 29.006245 95.12292Q29.506245 94.51354 29.506245 93.43542Q29.506245 92.34167 29.068745 91.81042Q28.61562 91.27917 28.02187 91.27917Q27.49062 91.27917 27.17812 91.74792Q26.974995 92.07604 26.64687 93.37292Q26.20937 95.10729 25.89687 95.77917Q25.568745 96.45104 25.006245 96.81042Q24.42812 97.15417 23.74062 97.15417Q23.11562 97.15417 22.58437 96.87292Q22.05312 96.57604 21.70937 96.09167Q21.42812 95.71667 21.24062 95.07604Q21.05312 94.43542 21.05312 93.71667Q21.05312 92.60729 21.381245 91.77917Q21.693745 90.95104 22.24062 90.56042Q22.77187 90.15417 23.67812 90.01354L23.881245 91.56042Q23.162495 91.66979 22.756245 92.16979Q22.349995 92.66979 22.349995 93.59167Q22.349995 94.68542 22.70937 95.15417Q23.068745 95.62292 23.55312 95.62292Q23.86562 95.62292 24.11562 95.41979Q24.36562 95.23229 24.537495 94.82604Q24.61562 94.57604 24.943745 93.41979Q25.381245 91.74792 25.67812 91.09167Q25.95937 90.41979 26.506245 90.04479Q27.05312 89.65417 27.849995 89.65417Q28.64687 89.65417 29.349995 90.12292Q30.05312 90.57604 30.443745 91.45104Q30.818745 92.32604 30.818745 93.41979Q30.818745 95.24792 30.068745 96.20104Q29.30312 97.15417 27.818745 97.41979ZM23.099995 79.15417L21.27187 79.15417L21.27187 77.46667L22.70937 77.46667Q24.099995 77.46667 24.64687 77.77917Q26.05312 78.59167 26.224995 80.24792L30.599995 80.24792L30.599995 81.66979L29.224995 81.66979Q30.818745 82.74792 30.818745 84.62292Q30.818745 85.43542 30.506245 86.15417Q30.193745 86.87292 29.70937 87.23229Q29.224995 87.57604 28.52187 87.71667Q28.05312 87.81042 27.05312 87.81042L21.27187 87.81042L21.27187 86.23229L26.443745 86.23229Q27.693745 86.23229 28.11562 86.13854Q29.443745 85.82604 29.443745 84.31042Q29.443745 83.57604 29.08437 82.96667Q28.70937 82.34167 28.08437 82.09167Q27.45937 81.82604 26.27187 81.82604L21.27187 81.82604L21.27187 80.24792L25.55312 80.24792Q25.36562 79.13854 24.506245 78.57604Q24.14687 78.32604 23.099995 78.32604L23.099995 79.15417ZM19.05312 84.52917Q18.99062 84.02917 18.95937 83.88854Q18.80312 83.41979 18.45937 83.41979Q18.256245 83.40417 18.11562 83.65417Q17.912495 84.02917 17.912495 84.82604Q17.912495 85.10729 17.95937 85.65417L17.05312 85.74792Q16.99062 85.40417 16.99062 84.48229Q17.006245 83.40417 17.349995 82.71667Q17.70937 81.96667 18.381245 81.95104Q19.45937 81.90417 19.662495 83.54479L20.099995 83.54479L20.099995 84.52917L19.05312 84.52917ZM30.599995 64.71666L29.42812 64.71666Q30.818745 65.607285 30.818745 67.34167Q30.818745 68.45104 30.20937 69.38854Q29.58437 70.32604 28.49062 70.84167Q27.381245 71.35729 25.943745 71.35729Q24.537495 71.35729 23.412495 70.88854Q22.27187 70.41979 21.662495 69.49792Q21.05312 68.56042 21.05312 67.40417Q21.05312 66.56042 21.412495 65.90416Q21.77187 65.24791 22.33437 64.826035L17.70937 64.826035L17.70937 63.263535L30.599995 63.263535L30.599995 64.71666ZM25.943745 69.73229Q27.74062 69.73229 28.631245 68.98229Q29.506245 68.21667 29.506245 67.18542Q29.506245 66.15417 28.662495 65.43541Q27.818745 64.701035 26.068745 64.701035Q24.162495 64.701035 23.27187 65.43541Q22.36562 66.16979 22.36562 67.24792Q22.36562 68.31042 23.224995 69.02917Q24.08437 69.73229 25.943745 69.73229ZM30.599995 54.669785L29.224995 54.669785Q30.818745 55.74791 30.818745 57.62291Q30.818745 58.451035 30.506245 59.169785Q30.17812 59.888535 29.70937 60.232285Q29.224995 60.576035 28.52187 60.71666Q28.05312 60.81041 27.05312 60.81041L21.27187 60.81041L21.27187 59.232285L26.443745 59.232285Q27.67812 59.232285 28.11562 59.138535Q28.74062 58.982285 29.099995 58.49791Q29.443745 58.013535 29.443745 57.31041Q29.443745 56.59166 29.08437 55.96666Q28.724995 55.34166 28.099995 55.09166Q27.45937 54.826035 26.27187 54.826035L21.27187 54.826035L21.27187 53.24791L30.599995 53.24791L30.599995 54.669785ZM33.45937 58.21666L31.662495 58.21666L31.662495 56.419785L33.45937 56.419785L33.45937 58.21666ZM30.599995 50.77916L21.27187 50.77916L21.27187 49.357285L22.599995 49.357285Q21.05312 48.326035 21.05312 46.388535Q21.05312 45.544785 21.36562 44.84166Q21.662495 44.12291 22.162495 43.77916Q22.64687 43.419785 23.318745 43.27916Q23.756245 43.201035 24.86562 43.201035L30.599995 43.201035L30.599995 44.77916L24.92812 44.77916Q23.95937 44.77916 23.474995 44.96666Q22.99062 45.138535 22.70937 45.62291Q22.42812 46.09166 22.42812 46.71666Q22.42812 47.732285 23.068745 48.46666Q23.70937 49.201035 25.506245 49.201035L30.599995 49.201035L30.599995 50.77916ZM31.381245 41.076035L31.599995 39.52916Q32.318745 39.43541 32.64687 38.99791Q33.08437 38.40416 33.08437 37.388535Q33.08437 36.294785 32.631245 35.701035Q32.193745 35.09166 31.412495 34.888535Q30.92812 34.763535 29.381245 34.763535Q30.599995 35.81041 30.599995 37.357285Q30.599995 39.27916 29.20937 40.34166Q27.818745 41.388535 25.881245 41.388535Q24.537495 41.388535 23.412495 40.90416Q22.287495 40.419785 21.67812 39.49791Q21.05312 38.576035 21.05312 37.34166Q21.05312 35.68541 22.39687 34.62291L21.27187 34.62291L21.27187 33.15416L29.33437 33.15416Q31.52187 33.15416 32.42812 33.607285Q33.33437 34.044785 33.849995 35.013535Q34.381245 35.96666 34.381245 37.37291Q34.381245 39.044785 33.631245 40.076035Q32.881245 41.107285 31.381245 41.076035ZM25.77187 39.763535Q27.599995 39.763535 28.443745 39.02916Q29.287495 38.294785 29.287495 37.201035Q29.287495 36.107285 28.45937 35.37291Q27.61562 34.638535 25.818745 34.638535Q24.099995 34.638535 23.24062 35.40416Q22.36562 36.15416 22.36562 37.232285Q22.36562 38.27916 23.224995 39.02916Q24.08437 39.763535 25.77187 39.763535Z" fill-rule="nonzero"/><path fill="#000000" d="M90.1 173.09895Q90.1 171.5677 90.4125 170.64583Q90.725 169.70833 91.33437 169.20833Q91.95937 168.70833 92.89687 168.70833Q93.58437 168.70833 94.1 168.98958Q94.63125 169.27083 94.975 169.80208Q95.31875 170.3177 95.50625 171.0677Q95.69375 171.8177 95.69375 173.09895Q95.69375 174.61458 95.38125 175.53645Q95.08437 176.45833 94.45937 176.97395Q93.85 177.47395 92.89687 177.47395Q91.6625 177.47395 90.94375 176.58333Q90.1 175.52083 90.1 173.09895ZM91.17812 173.09895Q91.17812 175.20833 91.67812 175.91145Q92.17812 176.61458 92.89687 176.61458Q93.63125 176.61458 94.11562 175.91145Q94.61562 175.20833 94.61562 173.09895Q94.61562 170.97395 94.11562 170.28645Q93.63125 169.58333 92.88125 169.58333Q92.1625 169.58333 91.725 170.1927Q91.17812 170.97395 91.17812 173.09895Z" fill-rule="nonzero"/><path fill="#000000" d="M74.64687 145.77104L74.64687 146.78667L68.95937 146.78667Q68.95937 146.41167 69.08437 146.05229Q69.30312 145.47417 69.77187 144.91167Q70.25625 144.34917 71.1625 143.61479Q72.56875 142.45854 73.05312 141.78667Q73.55312 141.11479 73.55312 140.52104Q73.55312 139.89604 73.1 139.47417Q72.64687 139.03667 71.92812 139.03667Q71.1625 139.03667 70.70937 139.48979Q70.25625 139.94292 70.24062 140.75542L69.1625 140.64604Q69.27187 139.42729 69.99062 138.80229Q70.725 138.16167 71.95937 138.16167Q73.19375 138.16167 73.9125 138.84917Q74.63125 139.53667 74.63125 140.55229Q74.63125 141.06792 74.4125 141.56792Q74.20937 142.05229 73.70937 142.61479Q73.225 143.16167 72.1 144.11479Q71.14687 144.91167 70.86562 145.20854Q70.6 145.48979 70.42812 145.77104L74.64687 145.77104ZM76.1 144.53667L77.20937 144.44292Q77.33437 145.25542 77.77187 145.66167Q78.225 146.06792 78.86562 146.06792Q79.61562 146.06792 80.14687 145.48979Q80.67812 144.91167 80.67812 143.97417Q80.67812 143.06792 80.1625 142.55229Q79.6625 142.02104 78.83437 142.02104Q78.33437 142.02104 77.9125 142.25542Q77.50625 142.48979 77.27187 142.84917L76.2875 142.72417L77.11562 138.31792L81.39687 138.31792L81.39687 139.31792L77.95937 139.31792L77.50625 141.63042Q78.27187 141.08354 79.11562 141.08354Q80.24062 141.08354 81.00625 141.86479Q81.7875 142.64604 81.7875 143.88042Q81.7875 145.03667 81.11562 145.89604Q80.2875 146.92729 78.86562 146.92729Q77.69375 146.92729 76.94375 146.27104Q76.20937 145.61479 76.1 144.53667ZM83.1 142.55229Q83.1 141.02104 83.4125 140.09917Q83.725 139.16167 84.33437 138.66167Q84.95937 138.16167 85.89687 138.16167Q86.58437 138.16167 87.1 138.44292Q87.63125 138.72417 87.975 139.25542Q88.31875 139.77104 88.50625 140.52104Q88.69375 141.27104 88.69375 142.55229Q88.69375 144.06792 88.38125 144.98979Q88.08437 145.91167 87.45937 146.42729Q86.85 146.92729 85.89687 146.92729Q84.6625 146.92729 83.94375 146.03667Q83.1 144.97417 83.1 142.55229ZM84.17812 142.55229Q84.17812 144.66167 84.67812 145.36479Q85.17812 146.06792 85.89687 146.06792Q86.63125 146.06792 87.11562 145.36479Q87.61562 144.66167 87.61562 142.55229Q87.61562 140.42729 87.11562 139.73979Q86.63125 139.03667 85.88125 139.03667Q85.1625 139.03667 84.725 139.64604Q84.17812 140.42729 84.17812 142.55229ZM90.1 142.55229Q90.1 141.02104 90.4125 140.09917Q90.725 139.16167 91.33437 138.66167Q91.95937 138.16167 92.89687 138.16167Q93.58437 138.16167 94.1 138.44292Q94.63125 138.72417 94.975 139.25542Q95.31875 139.77104 95.50625 140.52104Q95.69375 141.27104 95.69375 142.55229Q95.69375 144.06792 95.38125 144.98979Q95.08437 145.91167 94.45937 146.42729Q93.85 146.92729 92.89687 146.92729Q91.6625 146.92729 90.94375 146.03667Q90.1 144.97417 90.1 142.55229ZM91.17812 142.55229Q91.17812 144.66167 91.67812 145.36479Q92.17812 146.06792 92.89687 146.06792Q93.63125 146.06792 94.11562 145.36479Q94.61562 144.66167 94.61562 142.55229Q94.61562 140.42729 94.11562 139.73979Q93.63125 139.03667 92.88125 139.03667Q92.1625 139.03667 91.725 139.64604Q91.17812 140.42729 91.17812 142.55229Z" fill-rule="nonzero"/><path fill="#000000" d="M69.1 113.99L70.20937 113.89625Q70.33437 114.70875 70.77187 115.115Q71.225 115.52125 71.86562 115.52125Q72.61562 115.52125 73.14687 114.94312Q73.67812 114.365 73.67812 113.4275Q73.67812 112.52125 73.1625 112.00562Q72.6625 111.47437 71.83437 111.47437Q71.33437 111.47437 70.9125 111.70875Q70.50625 111.94312 70.27187 112.3025L69.2875 112.1775L70.11562 107.77125L74.39687 107.77125L74.39687 108.77125L70.95937 108.77125L70.50625 111.08375Q71.27187 110.53687 72.11562 110.53687Q73.24062 110.53687 74.00625 111.31812Q74.7875 112.09937 74.7875 113.33375Q74.7875 114.49 74.11562 115.34937Q73.2875 116.38062 71.86562 116.38062Q70.69375 116.38062 69.94375 115.72437Q69.20937 115.06812 69.1 113.99ZM76.1 112.00562Q76.1 110.47437 76.4125 109.5525Q76.725 108.615 77.33437 108.115Q77.95937 107.615 78.89687 107.615Q79.58437 107.615 80.1 107.89625Q80.63125 108.1775 80.975 108.70875Q81.31875 109.22437 81.50625 109.97437Q81.69375 110.72437 81.69375 112.00562Q81.69375 113.52125 81.38125 114.44312Q81.08437 115.365 80.45937 115.88062Q79.85 116.38062 78.89687 116.38062Q77.6625 116.38062 76.94375 115.49Q76.1 114.4275 76.1 112.00562ZM77.17812 112.00562Q77.17812 114.115 77.67812 114.81812Q78.17812 115.52125 78.89687 115.52125Q79.63125 115.52125 80.11562 114.81812Q80.61562 114.115 80.61562 112.00562Q80.61562 109.88062 80.11562 109.19312Q79.63125 108.49 78.88125 108.49Q78.1625 108.49 77.725 109.09937Q77.17812 109.88062 77.17812 112.00562ZM83.1 112.00562Q83.1 110.47437 83.4125 109.5525Q83.725 108.615 84.33437 108.115Q84.95937 107.615 85.89687 107.615Q86.58437 107.615 87.1 107.89625Q87.63125 108.1775 87.975 108.70875Q88.31875 109.22437 88.50625 109.97437Q88.69375 110.72437 88.69375 112.00562Q88.69375 113.52125 88.38125 114.44312Q88.08437 115.365 87.45937 115.88062Q86.85 116.38062 85.89687 116.38062Q84.6625 116.38062 83.94375 115.49Q83.1 114.4275 83.1 112.00562ZM84.17812 112.00562Q84.17812 114.115 84.67812 114.81812Q85.17812 115.52125 85.89687 115.52125Q86.63125 115.52125 87.11562 114.81812Q87.61562 114.115 87.61562 112.00562Q87.61562 109.88062 87.11562 109.19312Q86.63125 108.49 85.88125 108.49Q85.1625 108.49 84.725 109.09937Q84.17812 109.88062 84.17812 112.00562ZM90.1 112.00562Q90.1 110.47437 90.4125 109.5525Q90.725 108.615 91.33437 108.115Q91.95937 107.615 92.89687 107.615Q93.58437 107.615 94.1 107.89625Q94.63125 108.1775 94.975 108.70875Q95.31875 109.22437 95.50625 109.97437Q95.69375 110.72437 95.69375 112.00562Q95.69375 113.52125 95.38125 114.44312Q95.08437 115.365 94.45937 115.88062Q93.85 116.38062 92.89687 116.38062Q91.6625 116.38062 90.94375 115.49Q90.1 114.4275 90.1 112.00562ZM91.17812 112.00562Q91.17812 114.115 91.67812 114.81812Q92.17812 115.52125 92.89687 115.52125Q93.63125 115.52125 94.11562 114.81812Q94.61562 114.115 94.61562 112.00562Q94.61562 109.88062 94.11562 109.19312Q93.63125 108.49 92.88125 108.49Q92.1625 108.49 91.725 109.09937Q91.17812 109.88062 91.17812 112.00562Z" fill-rule="nonzero"/><path fill="#000000" d="M69.1625 78.22459L69.1625 77.20896L74.725 77.20896L74.725 78.03709Q73.9125 78.91209 73.1 80.36521Q72.30312 81.80271 71.86562 83.33396Q71.5375 84.41209 71.45937 85.69334L70.36562 85.69334Q70.38125 84.67771 70.75625 83.24021Q71.14687 81.80271 71.85 80.47459Q72.56875 79.14646 73.38125 78.22459L69.1625 78.22459ZM76.1 83.44334L77.20937 83.34959Q77.33437 84.16209 77.77187 84.56834Q78.225 84.97459 78.86562 84.97459Q79.61562 84.97459 80.14687 84.39646Q80.67812 83.81834 80.67812 82.88084Q80.67812 81.97459 80.1625 81.45896Q79.6625 80.92771 78.83437 80.92771Q78.33437 80.92771 77.9125 81.16209Q77.50625 81.39646 77.27187 81.75584L76.2875 81.63084L77.11562 77.22459L81.39687 77.22459L81.39687 78.22459L77.95937 78.22459L77.50625 80.53709Q78.27187 79.99021 79.11562 79.99021Q80.24062 79.99021 81.00625 80.77146Q81.7875 81.55271 81.7875 82.78709Q81.7875 83.94334 81.11562 84.80271Q80.2875 85.83396 78.86562 85.83396Q77.69375 85.83396 76.94375 85.17771Q76.20937 84.52146 76.1 83.44334ZM83.1 81.45896Q83.1 79.92771 83.4125 79.00584Q83.725 78.06834 84.33437 77.56834Q84.95937 77.06834 85.89687 77.06834Q86.58437 77.06834 87.1 77.34959Q87.63125 77.63084 87.975 78.16209Q88.31875 78.67771 88.50625 79.42771Q88.69375 80.17771 88.69375 81.45896Q88.69375 82.97459 88.38125 83.89646Q88.08437 84.81834 87.45937 85.33396Q86.85 85.83396 85.89687 85.83396Q84.6625 85.83396 83.94375 84.94334Q83.1 83.88084 83.1 81.45896ZM84.17812 81.45896Q84.17812 83.56834 84.67812 84.27146Q85.17812 84.97459 85.89687 84.97459Q86.63125 84.97459 87.11562 84.27146Q87.61562 83.56834 87.61562 81.45896Q87.61562 79.33396 87.11562 78.64646Q86.63125 77.94334 85.88125 77.94334Q85.1625 77.94334 84.725 78.55271Q84.17812 79.33396 84.17812 81.45896ZM90.1 81.45896Q90.1 79.92771 90.4125 79.00584Q90.725 78.06834 91.33437 77.56834Q91.95937 77.06834 92.89687 77.06834Q93.58437 77.06834 94.1 77.34959Q94.63125 77.63084 94.975 78.16209Q95.31875 78.67771 95.50625 79.42771Q95.69375 80.17771 95.69375 81.45896Q95.69375 82.97459 95.38125 83.89646Q95.08437 84.81834 94.45937 85.33396Q93.85 85.83396 92.89687 85.83396Q91.6625 85.83396 90.94375 84.94334Q90.1 83.88084 90.1 81.45896ZM91.17812 81.45896Q91.17812 83.56834 91.67812 84.27146Q92.17812 84.97459 92.89687 84.97459Q93.63125 84.97459 94.11562 84.27146Q94.61562 83.56834 94.61562 81.45896Q94.61562 79.33396 94.11562 78.64646Q93.63125 77.94334 92.88125 77.94334Q92.1625 77.94334 91.725 78.55271Q91.17812 79.33396 91.17812 81.45896Z" fill-rule="nonzero"/><path fill="#000000" d="M66.06875 55.146667L65.02187 55.146667L65.02187 48.427917Q64.63125 48.787292 64.00625 49.162292Q63.396873 49.521667 62.9125 49.693542L62.9125 48.677917Q63.7875 48.256042 64.44375 47.677917Q65.11562 47.084167 65.39687 46.521667L66.06875 46.521667L66.06875 55.146667ZM69.1 50.912292Q69.1 49.381042 69.4125 48.459167Q69.725 47.521667 70.33437 47.021667Q70.95937 46.521667 71.89687 46.521667Q72.58437 46.521667 73.1 46.802917Q73.63125 47.084167 73.975 47.615417Q74.31875 48.131042 74.50625 48.881042Q74.69375 49.631042 74.69375 50.912292Q74.69375 52.427917 74.38125 53.349792Q74.08437 54.271667 73.45937 54.787292Q72.85 55.287292 71.89687 55.287292Q70.6625 55.287292 69.94375 54.396667Q69.1 53.334167 69.1 50.912292ZM70.17812 50.912292Q70.17812 53.021667 70.67812 53.724792Q71.17812 54.427917 71.89687 54.427917Q72.63125 54.427917 73.11562 53.724792Q73.61562 53.021667 73.61562 50.912292Q73.61562 48.787292 73.11562 48.099792Q72.63125 47.396667 71.88125 47.396667Q71.1625 47.396667 70.725 48.006042Q70.17812 48.787292 70.17812 50.912292ZM76.1 50.912292Q76.1 49.381042 76.4125 48.459167Q76.725 47.521667 77.33437 47.021667Q77.95937 46.521667 78.89687 46.521667Q79.58437 46.521667 80.1 46.802917Q80.63125 47.084167 80.975 47.615417Q81.31875 48.131042 81.50625 48.881042Q81.69375 49.631042 81.69375 50.912292Q81.69375 52.427917 81.38125 53.349792Q81.08437 54.271667 80.45937 54.787292Q79.85 55.287292 78.89687 55.287292Q77.6625 55.287292 76.94375 54.396667Q76.1 53.334167 76.1 50.912292ZM77.17812 50.912292Q77.17812 53.021667 77.67812 53.724792Q78.17812 54.427917 78.89687 54.427917Q79.63125 54.427917 80.11562 53.724792Q80.61562 53.021667 80.61562 50.912292Q80.61562 48.787292 80.11562 48.099792Q79.63125 47.396667 78.88125 47.396667Q78.1625 47.396667 77.725 48.006042Q77.17812 48.787292 77.17812 50.912292ZM83.1 50.912292Q83.1 49.381042 83.4125 48.459167Q83.725 47.521667 84.33437 47.021667Q84.95937 46.521667 85.89687 46.521667Q86.58437 46.521667 87.1 46.802917Q87.63125 47.084167 87.975 47.615417Q88.31875 48.131042 88.50625 48.881042Q88.69375 49.631042 88.69375 50.912292Q88.69375 52.427917 88.38125 53.349792Q88.08437 54.271667 87.45937 54.787292Q86.85 55.287292 85.89687 55.287292Q84.6625 55.287292 83.94375 54.396667Q83.1 53.334167 83.1 50.912292ZM84.17812 50.912292Q84.17812 53.021667 84.67812 53.724792Q85.17812 54.427917 85.89687 54.427917Q86.63125 54.427917 87.11562 53.724792Q87.61562 53.021667 87.61562 50.912292Q87.61562 48.787292 87.11562 48.099792Q86.63125 47.396667 85.88125 47.396667Q85.1625 47.396667 84.725 48.006042Q84.17812 48.787292 84.17812 50.912292ZM90.1 50.912292Q90.1 49.381042 90.4125 48.459167Q90.725 47.521667 91.33437 47.021667Q91.95937 46.521667 92.89687 46.521667Q93.58437 46.521667 94.1 46.802917Q94.63125 47.084167 94.975 47.615417Q95.31875 48.131042 95.50625 48.881042Q95.69375 49.631042 95.69375 50.912292Q95.69375 52.427917 95.38125 53.349792Q95.08437 54.271667 94.45937 54.787292Q93.85 55.287292 92.89687 55.287292Q91.6625 55.287292 90.94375 54.396667Q90.1 53.334167 90.1 50.912292ZM91.17812 50.912292Q91.17812 53.021667 91.67812 53.724792Q92.17812 54.427917 92.89687 54.427917Q93.63125 54.427917 94.11562 53.724792Q94.61562 53.021667 94.61562 50.912292Q94.61562 48.787292 94.11562 48.099792Q93.63125 47.396667 92.88125 47.396667Q92.1625 47.396667 91.725 48.006042Q91.17812 48.787292 91.17812 50.912292Z" fill-rule="nonzero"/><path fill="#000000" d="M66.06875 24.6L65.02187 24.6L65.02187 17.88125Q64.63125 18.240625 64.00625 18.615625Q63.396873 18.975 62.9125 19.146875L62.9125 18.13125Q63.7875 17.709375 64.44375 17.13125Q65.11562 16.5375 65.39687 15.975L66.06875 15.975L66.06875 24.6ZM74.64687 23.584375L74.64687 24.6L68.95937 24.6Q68.95937 24.225 69.08437 23.865625Q69.30312 23.2875 69.77187 22.725Q70.25625 22.1625 71.1625 21.428125Q72.56875 20.271875 73.05312 19.6Q73.55312 18.928125 73.55312 18.334375Q73.55312 17.709375 73.1 17.2875Q72.64687 16.85 71.92812 16.85Q71.1625 16.85 70.70937 17.303125Q70.25625 17.75625 70.24062 18.56875L69.1625 18.459375Q69.27187 17.240625 69.99062 16.615625Q70.725 15.975 71.95937 15.975Q73.19375 15.975 73.9125 16.6625Q74.63125 17.35 74.63125 18.365625Q74.63125 18.88125 74.4125 19.38125Q74.20937 19.865625 73.70937 20.428125Q73.225 20.975 72.1 21.928125Q71.14687 22.725 70.86562 23.021875Q70.6 23.303125 70.42812 23.584375L74.64687 23.584375ZM76.1 22.35L77.20937 22.25625Q77.33437 23.06875 77.77187 23.475Q78.225 23.88125 78.86562 23.88125Q79.61562 23.88125 80.14687 23.303125Q80.67812 22.725 80.67812 21.7875Q80.67812 20.88125 80.1625 20.365625Q79.6625 19.834375 78.83437 19.834375Q78.33437 19.834375 77.9125 20.06875Q77.50625 20.303125 77.27187 20.6625L76.2875 20.5375L77.11562 16.13125L81.39687 16.13125L81.39687 17.13125L77.95937 17.13125L77.50625 19.44375Q78.27187 18.896875 79.11562 18.896875Q80.24062 18.896875 81.00625 19.678125Q81.7875 20.459375 81.7875 21.69375Q81.7875 22.85 81.11562 23.709375Q80.2875 24.740625 78.86562 24.740625Q77.69375 24.740625 76.94375 24.084375Q76.20937 23.428125 76.1 22.35ZM83.1 20.365625Q83.1 18.834375 83.4125 17.9125Q83.725 16.975 84.33437 16.475Q84.95937 15.975 85.89687 15.975Q86.58437 15.975 87.1 16.25625Q87.63125 16.5375 87.975 17.06875Q88.31875 17.584375 88.50625 18.334375Q88.69375 19.084375 88.69375 20.365625Q88.69375 21.88125 88.38125 22.803125Q88.08437 23.725 87.45937 24.240625Q86.85 24.740625 85.89687 24.740625Q84.6625 24.740625 83.94375 23.85Q83.1 22.7875 83.1 20.365625ZM84.17812 20.365625Q84.17812 22.475 84.67812 23.178125Q85.17812 23.88125 85.89687 23.88125Q86.63125 23.88125 87.11562 23.178125Q87.61562 22.475 87.61562 20.365625Q87.61562 18.240625 87.11562 17.553125Q86.63125 16.85 85.88125 16.85Q85.1625 16.85 84.725 17.459375Q84.17812 18.240625 84.17812 20.365625ZM90.1 20.365625Q90.1 18.834375 90.4125 17.9125Q90.725 16.975 91.33437 16.475Q91.95937 15.975 92.89687 15.975Q93.58437 15.975 94.1 16.25625Q94.63125 16.5375 94.975 17.06875Q95.31875 17.584375 95.50625 18.334375Q95.69375 19.084375 95.69375 20.365625Q95.69375 21.88125 95.38125 22.803125Q95.08437 23.725 94.45937 24.240625Q93.85 24.740625 92.89687 24.740625Q91.6625 24.740625 90.94375 23.85Q90.1 22.7875 90.1 20.365625ZM91.17812 20.365625Q91.17812 22.475 91.67812 23.178125Q92.17812 23.88125 92.89687 23.88125Q93.63125 23.88125 94.11562 23.178125Q94.61562 22.475 94.61562 20.365625Q94.61562 18.240625 94.11562 17.553125Q93.63125 16.85 92.88125 16.85Q92.1625 16.85 91.725 17.459375Q91.17812 18.240625 91.17812 20.365625Z" fill-rule="nonzero"/><path stroke="#ff0000" stroke-width="4.0" stroke-linecap="butt" stroke-dasharray="13.0,9.0" d="M284.5 247.9L319.5 247.9" fill-rule="nonzero"/><path fill="#1a1a1a" d="M328.89062 254.4L328.89062 241.50937L333.75 241.50937Q335.03125 241.50937 335.70312 241.63437Q336.65625 241.79062 337.29688 242.24374Q337.9375 242.68124 338.32812 243.49374Q338.71875 244.29062 338.71875 245.24374Q338.71875 246.88437 337.67188 248.025Q336.625 249.16562 333.90625 249.16562L330.59375 249.16562L330.59375 254.4L328.89062 254.4ZM330.59375 247.63437L333.92188 247.63437Q335.57812 247.63437 336.26562 247.025Q336.96875 246.41562 336.96875 245.29062Q336.96875 244.47812 336.5625 243.91562Q336.15625 243.3375 335.48438 243.15Q335.04688 243.04062 333.89062 243.04062L330.59375 243.04062L330.59375 247.63437ZM340.6875 254.4L340.6875 241.50937L342.26562 241.50937L342.26562 246.13437Q343.375 244.85312 345.0625 244.85312Q346.09375 244.85312 346.85938 245.25937Q347.625 245.66562 347.95312 246.4Q348.29688 247.11874 348.29688 248.47812L348.29688 254.4L346.70312 254.4L346.70312 248.47812Q346.70312 247.29062 346.1875 246.75937Q345.67188 246.2125 344.73438 246.2125Q344.03125 246.2125 343.40625 246.5875Q342.79688 246.94687 342.53125 247.57187Q342.26562 248.19687 342.26562 249.29062L342.26562 254.4L340.6875 254.4ZM359.3125 246.9L359.3125 245.07187L361.0 245.07187L361.0 246.50937Q361.0 247.9 360.6875 248.44687Q359.875 249.85312 358.21875 250.025L358.21875 254.4L356.79688 254.4L356.79688 253.025Q355.71875 254.61874 353.84375 254.61874Q353.03125 254.61874 352.3125 254.30624Q351.59375 253.99374 351.23438 253.50937Q350.89062 253.025 350.75 252.32187Q350.65625 251.85312 350.65625 250.85312L350.65625 245.07187L352.23438 245.07187L352.23438 250.24374Q352.23438 251.49374 352.32812 251.91562Q352.64062 253.24374 354.15625 253.24374Q354.89062 253.24374 355.5 252.88437Q356.125 252.50937 356.375 251.88437Q356.64062 251.25937 356.64062 250.07187L356.64062 245.07187L358.21875 245.07187L358.21875 249.35312Q359.32812 249.16562 359.89062 248.30624Q360.14062 247.94687 360.14062 246.9L359.3125 246.9ZM363.71875 249.72812Q363.71875 251.4625 364.5 252.41562Q365.25 253.30624 366.46875 253.30624Q367.70312 253.30624 368.4375 252.41562Q369.21875 251.4625 369.21875 249.68124Q369.21875 247.99374 368.42188 247.05624Q367.6875 246.16562 366.46875 246.16562Q365.23438 246.16562 364.5 247.05624Q363.71875 247.99374 363.71875 249.72812ZM371.04688 246.68124L371.04688 244.8375L372.75 244.8375L372.75 246.29062Q372.75 247.38437 372.42188 247.9625Q371.98438 248.7125 370.84375 249.35312Q370.84375 249.4625 370.84375 249.60312Q370.84375 252.86874 368.73438 254.04062Q367.70312 254.61874 366.46875 254.61874Q364.46875 254.61874 363.29688 253.35312Q362.09375 252.05624 362.09375 249.72812Q362.09375 247.13437 363.54688 245.88437Q364.75 244.85312 366.46875 244.85312Q368.40625 244.85312 369.625 246.11874Q370.54688 247.07187 370.76562 248.5875Q371.375 248.2125 371.625 247.82187Q371.89062 247.41562 371.875 246.68124L371.04688 246.68124ZM374.6875 254.4L374.6875 245.07187L376.10938 245.07187L376.10938 246.4Q377.14062 244.85312 379.07812 244.85312Q379.92188 244.85312 380.625 245.16562Q381.34375 245.4625 381.6875 245.9625Q382.04688 246.44687 382.1875 247.11874Q382.26562 247.55624 382.26562 248.66562L382.26562 254.4L380.6875 254.4L380.6875 248.72812Q380.6875 247.75937 380.5 247.275Q380.32812 246.79062 379.84375 246.50937Q379.375 246.22812 378.75 246.22812Q377.73438 246.22812 377.0 246.86874Q376.26562 247.50937 376.26562 249.30624L376.26562 254.4L374.6875 254.4ZM384.39062 255.18124L385.9375 255.4Q386.03125 256.11874 386.46875 256.44687Q387.0625 256.88437 388.07812 256.88437Q389.17188 256.88437 389.76562 256.43124Q390.375 255.99374 390.57812 255.2125Q390.70312 254.72812 390.70312 253.18124Q389.65625 254.4 388.10938 254.4Q386.1875 254.4 385.125 253.00937Q384.07812 251.61874 384.07812 249.68124Q384.07812 248.3375 384.5625 247.2125Q385.04688 246.0875 385.96875 245.47812Q386.89062 244.85312 388.125 244.85312Q389.78125 244.85312 390.84375 246.19687L390.84375 245.07187L392.3125 245.07187L392.3125 253.13437Q392.3125 255.32187 391.85938 256.22812Q391.42188 257.13437 390.45312 257.65Q389.5 258.18124 388.09375 258.18124Q386.42188 258.18124 385.39062 257.43124Q384.35938 256.68124 384.39062 255.18124ZM385.70312 249.57187Q385.70312 251.4 386.4375 252.24374Q387.17188 253.0875 388.26562 253.0875Q389.35938 253.0875 390.09375 252.25937Q390.82812 251.41562 390.82812 249.61874Q390.82812 247.9 390.0625 247.04062Q389.3125 246.16562 388.23438 246.16562Q387.1875 246.16562 386.4375 247.025Q385.70312 247.88437 385.70312 249.57187ZM399.6875 257.97812L399.6875 245.07187L401.125 245.07187L401.125 246.275Q401.64062 245.57187 402.28125 245.2125Q402.92188 244.85312 403.82812 244.85312Q405.03125 244.85312 405.9375 245.47812Q406.85938 246.0875 407.32812 247.2125Q407.79688 248.32187 407.79688 249.66562Q407.79688 251.0875 407.28125 252.24374Q406.76562 253.38437 405.78125 254.00937Q404.79688 254.61874 403.71875 254.61874Q402.9375 254.61874 402.29688 254.29062Q401.67188 253.94687 401.26562 253.43124L401.26562 257.97812L399.6875 257.97812ZM401.125 249.79062Q401.125 251.5875 401.84375 252.44687Q402.57812 253.30624 403.60938 253.30624Q404.67188 253.30624 405.42188 252.41562Q406.17188 251.525 406.17188 249.65Q406.17188 247.86874 405.4375 246.97812Q404.70312 246.0875 403.6875 246.0875Q402.67188 246.0875 401.89062 247.04062Q401.125 247.97812 401.125 249.79062ZM409.6875 254.4L409.6875 241.50937L411.26562 241.50937L411.26562 246.13437Q412.375 244.85312 414.0625 244.85312Q415.09375 244.85312 415.85938 245.25937Q416.625 245.66562 416.95312 246.4Q417.29688 247.11874 417.29688 248.47812L417.29688 254.4L415.70312 254.4L415.70312 248.47812Q415.70312 247.29062 415.1875 246.75937Q414.67188 246.2125 413.73438 246.2125Q413.03125 246.2125 412.40625 246.5875Q411.79688 246.94687 411.53125 247.57187Q411.26562 248.19687 411.26562 249.29062L411.26562 254.4L409.6875 254.4ZM425.78125 253.24374Q424.90625 253.99374 424.07812 254.30624Q423.26562 254.61874 422.34375 254.61874Q420.79688 254.61874 419.96875 253.86874Q419.15625 253.10312 419.15625 251.93124Q419.15625 251.25937 419.46875 250.69687Q419.78125 250.11874 420.28125 249.775Q420.78125 249.43124 421.42188 249.25937Q421.89062 249.13437 422.82812 249.025Q424.73438 248.79062 425.64062 248.47812Q425.65625 248.15 425.65625 248.05624Q425.65625 247.10312 425.20312 246.69687Q424.59375 246.16562 423.40625 246.16562Q422.28125 246.16562 421.75 246.55624Q421.21875 246.94687 420.96875 247.94687L419.42188 247.72812Q419.64062 246.72812 420.10938 246.11874Q420.59375 245.50937 421.5 245.18124Q422.42188 244.85312 423.64062 244.85312Q424.82812 244.85312 425.57812 245.13437Q426.32812 245.41562 426.67188 245.85312Q427.03125 246.275 427.17188 246.91562Q427.25 247.32187 427.25 248.38437L427.25 250.49374Q427.25 252.69687 427.34375 253.29062Q427.45312 253.86874 427.75 254.4L426.09375 254.4Q425.84375 253.9 425.78125 253.24374ZM425.64062 249.7125Q424.78125 250.07187 423.0625 250.30624Q422.09375 250.44687 421.6875 250.63437Q421.28125 250.80624 421.0625 251.15Q420.84375 251.47812 420.84375 251.9Q420.84375 252.525 421.3125 252.94687Q421.79688 253.36874 422.71875 253.36874Q423.64062 253.36874 424.34375 252.97812Q425.0625 252.57187 425.39062 251.88437Q425.64062 251.3375 425.64062 250.29062L425.64062 249.7125ZM422.57812 243.9L423.75 241.44687L425.8125 241.44687L423.89062 243.9L422.57812 243.9ZM429.6875 257.97812L429.6875 245.07187L431.125 245.07187L431.125 246.275Q431.64062 245.57187 432.28125 245.2125Q432.92188 244.85312 433.82812 244.85312Q435.03125 244.85312 435.9375 245.47812Q436.85938 246.0875 437.32812 247.2125Q437.79688 248.32187 437.79688 249.66562Q437.79688 251.0875 437.28125 252.24374Q436.76562 253.38437 435.78125 254.00937Q434.79688 254.61874 433.71875 254.61874Q432.9375 254.61874 432.29688 254.29062Q431.67188 253.94687 431.26562 253.43124L431.26562 257.97812L429.6875 257.97812ZM431.125 249.79062Q431.125 251.5875 431.84375 252.44687Q432.57812 253.30624 433.60938 253.30624Q434.67188 253.30624 435.42188 252.41562Q436.17188 251.525 436.17188 249.65Q436.17188 247.86874 435.4375 246.97812Q434.70312 246.0875 433.6875 246.0875Q432.67188 246.0875 431.89062 247.04062Q431.125 247.97812 431.125 249.79062ZM448.14062 252.97812L448.375 254.38437Q447.70312 254.525 447.17188 254.525Q446.3125 254.525 445.82812 254.25937Q445.35938 253.97812 445.17188 253.54062Q444.98438 253.0875 444.98438 251.66562L444.98438 246.29062L443.8125 246.29062L443.8125 245.07187L444.98438 245.07187L444.98438 242.75937L446.54688 241.80624L446.54688 245.07187L448.14062 245.07187L448.14062 246.29062L446.54688 246.29062L446.54688 251.75937Q446.54688 252.43124 446.625 252.63437Q446.71875 252.82187 446.90625 252.93124Q447.09375 253.04062 447.45312 253.04062Q447.70312 253.04062 448.14062 252.97812ZM449.67188 254.4L449.67188 245.07187L451.09375 245.07187L451.09375 246.47812Q451.64062 245.49374 452.09375 245.18124Q452.5625 244.85312 453.10938 244.85312Q453.92188 244.85312 454.73438 245.36874L454.20312 246.8375Q453.60938 246.49374 453.03125 246.49374Q452.51562 246.49374 452.09375 246.80624Q451.6875 247.11874 451.51562 247.66562Q451.25 248.50937 451.25 249.50937L451.25 254.4L449.67188 254.4ZM461.79688 254.4L461.79688 253.025Q460.71875 254.61874 458.84375 254.61874Q458.01562 254.61874 457.29688 254.30624Q456.57812 253.97812 456.23438 253.50937Q455.89062 253.025 455.75 252.32187Q455.65625 251.85312 455.65625 250.85312L455.65625 245.07187L457.23438 245.07187L457.23438 250.24374Q457.23438 251.47812 457.32812 251.91562Q457.48438 252.54062 457.96875 252.9Q458.45312 253.24374 459.15625 253.24374Q459.875 253.24374 460.5 252.88437Q461.125 252.525 461.375 251.9Q461.64062 251.25937 461.64062 250.07187L461.64062 245.07187L463.21875 245.07187L463.21875 254.4L461.79688 254.4ZM465.60938 257.99374L465.4375 256.50937Q465.95312 256.65 466.34375 256.65Q466.875 256.65 467.1875 256.47812Q467.5 256.30624 467.70312 255.97812Q467.85938 255.74374 468.1875 254.80624Q468.23438 254.66562 468.32812 254.41562L464.79688 245.07187L466.5 245.07187L468.4375 250.47812Q468.8125 251.49374 469.10938 252.63437Q469.39062 251.54062 469.76562 250.50937L471.76562 245.07187L473.34375 245.07187L469.79688 254.55624Q469.21875 256.10312 468.90625 256.68124Q468.48438 257.4625 467.9375 257.82187Q467.39062 258.18124 466.64062 258.18124Q466.17188 258.18124 465.60938 257.99374ZM481.07812 251.4L482.71875 251.60312Q482.32812 253.025 481.28125 253.82187Q480.23438 254.61874 478.60938 254.61874Q476.5625 254.61874 475.35938 253.35312Q474.15625 252.0875 474.15625 249.80624Q474.15625 247.4625 475.35938 246.16562Q476.57812 244.85312 478.51562 244.85312Q480.39062 244.85312 481.57812 246.13437Q482.76562 247.4 482.76562 249.7125Q482.76562 249.85312 482.75 250.13437L475.79688 250.13437Q475.875 251.68124 476.65625 252.49374Q477.45312 253.30624 478.60938 253.30624Q479.48438 253.30624 480.09375 252.85312Q480.71875 252.4 481.07812 251.4ZM475.875 248.8375L481.09375 248.8375Q480.98438 247.66562 480.5 247.07187Q479.73438 246.15 478.53125 246.15Q477.45312 246.15 476.70312 246.88437Q475.96875 247.61874 475.875 248.8375ZM478.48438 242.41562L477.48438 243.9L475.67188 243.9L477.57812 241.44687L479.26562 241.44687L481.23438 243.9L479.4375 243.9L478.48438 242.41562ZM479.26562 240.80624L478.0 240.80624L475.96875 238.3375L478.07812 238.3375L479.26562 240.80624ZM484.6875 254.4L484.6875 245.07187L486.10938 245.07187L486.10938 246.4Q487.14062 244.85312 489.07812 244.85312Q489.92188 244.85312 490.625 245.16562Q491.34375 245.4625 491.6875 245.9625Q492.04688 246.44687 492.1875 247.11874Q492.26562 247.55624 492.26562 248.66562L492.26562 254.4L490.6875 254.4L490.6875 248.72812Q490.6875 247.75937 490.5 247.275Q490.32812 246.79062 489.84375 246.50937Q489.375 246.22812 488.75 246.22812Q487.73438 246.22812 487.0 246.86874Q486.26562 247.50937 486.26562 249.30624L486.26562 254.4L484.6875 254.4ZM503.14062 252.97812L503.375 254.38437Q502.70312 254.525 502.17188 254.525Q501.3125 254.525 500.82812 254.25937Q500.35938 253.97812 500.17188 253.54062Q499.98438 253.0875 499.98438 251.66562L499.98438 246.29062L498.8125 246.29062L498.8125 245.07187L499.98438 245.07187L499.98438 242.75937L501.54688 241.80624L501.54688 245.07187L503.14062 245.07187L503.14062 246.29062L501.54688 246.29062L501.54688 251.75937Q501.54688 252.43124 501.625 252.63437Q501.71875 252.82187 501.90625 252.93124Q502.09375 253.04062 502.45312 253.04062Q502.70312 253.04062 503.14062 252.97812ZM504.6875 254.4L504.6875 241.50937L506.26562 241.50937L506.26562 246.13437Q507.375 244.85312 509.0625 244.85312Q510.09375 244.85312 510.85938 245.25937Q511.625 245.66562 511.95312 246.4Q512.2969 247.11874 512.2969 248.47812L512.2969 254.4L510.70312 254.4L510.70312 248.47812Q510.70312 247.29062 510.1875 246.75937Q509.67188 246.2125 508.73438 246.2125Q508.03125 246.2125 507.40625 246.5875Q506.79688 246.94687 506.53125 247.57187Q506.26562 248.19687 506.26562 249.29062L506.26562 254.4L504.6875 254.4ZM514.09375 249.72812Q514.09375 247.13437 515.5469 245.88437Q516.75 244.85312 518.46875 244.85312Q520.40625 244.85312 521.625 246.11874Q522.84375 247.38437 522.84375 249.60312Q522.84375 251.4 522.2969 252.43124Q521.7656 253.4625 520.7344 254.04062Q519.7031 254.61874 518.46875 254.61874Q516.5156 254.61874 515.2969 253.36874Q514.09375 252.10312 514.09375 249.72812ZM515.71875 249.72812Q515.71875 251.525 516.5 252.41562Q517.28125 253.30624 518.46875 253.30624Q519.65625 253.30624 520.4375 252.41562Q521.21875 251.50937 521.21875 249.68124Q521.21875 247.94687 520.4219 247.05624Q519.6406 246.16562 518.46875 246.16562Q517.28125 246.16562 516.5 247.05624Q515.71875 247.94687 515.71875 249.72812ZM518.5 242.41562L517.5 243.9L515.6875 243.9L517.59375 241.44687L519.28125 241.44687L521.25 243.9L519.4531 243.9L518.5 242.41562ZM518.7656 238.3375L520.8906 238.3375L518.8594 240.80624L517.5781 240.80624L518.7656 238.3375ZM524.6875 254.4L524.6875 245.07187L526.1094 245.07187L526.1094 246.4Q527.1406 244.85312 529.0781 244.85312Q529.9219 244.85312 530.625 245.16562Q531.34375 245.4625 531.6875 245.9625Q532.0469 246.44687 532.1875 247.11874Q532.2656 247.55624 532.2656 248.66562L532.2656 254.4L530.6875 254.4L530.6875 248.72812Q530.6875 247.75937 530.5 247.275Q530.3281 246.79062 529.84375 246.50937Q529.375 246.22812 528.75 246.22812Q527.7344 246.22812 527.0 246.86874Q526.2656 247.50937 526.2656 249.30624L526.2656 254.4L524.6875 254.4ZM534.3906 255.18124L535.9375 255.4Q536.03125 256.11874 536.46875 256.44687Q537.0625 256.88437 538.0781 256.88437Q539.1719 256.88437 539.7656 256.43124Q540.375 255.99374 540.5781 255.2125Q540.7031 254.72812 540.7031 253.18124Q539.65625 254.4 538.1094 254.4Q536.1875 254.4 535.125 253.00937Q534.0781 251.61874 534.0781 249.68124Q534.0781 248.3375 534.5625 247.2125Q535.0469 246.0875 535.96875 245.47812Q536.8906 244.85312 538.125 244.85312Q539.78125 244.85312 540.84375 246.19687L540.84375 245.07187L542.3125 245.07187L542.3125 253.13437Q542.3125 255.32187 541.8594 256.22812Q541.4219 257.13437 540.4531 257.65Q539.5 258.18124 538.09375 258.18124Q536.4219 258.18124 535.3906 257.43124Q534.3594 256.68124 534.3906 255.18124ZM535.7031 249.57187Q535.7031 251.4 536.4375 252.24374Q537.1719 253.0875 538.2656 253.0875Q539.3594 253.0875 540.09375 252.25937Q540.8281 251.41562 540.8281 249.61874Q540.8281 247.9 540.0625 247.04062Q539.3125 246.16562 538.2344 246.16562Q537.1875 246.16562 536.4375 247.025Q535.7031 247.88437 535.7031 249.57187Z" fill-rule="nonzero"/><path stroke="#0000ff" stroke-width="4.0" stroke-linecap="butt" d="M559.5 247.9L571.5 247.9" fill-rule="nonzero"/><path fill="#1a1a1a" d="M580.8906 254.4L580.8906 241.50937L585.75 241.50937Q587.03125 241.50937 587.7031 241.63437Q588.65625 241.79062 589.2969 242.24374Q589.9375 242.68124 590.3281 243.49374Q590.71875 244.29062 590.71875 245.24374Q590.71875 246.88437 589.6719 248.025Q588.625 249.16562 585.90625 249.16562L582.59375 249.16562L582.59375 254.4L580.8906 254.4ZM582.59375 247.63437L585.9219 247.63437Q587.5781 247.63437 588.2656 247.025Q588.96875 246.41562 588.96875 245.29062Q588.96875 244.47812 588.5625 243.91562Q588.15625 243.3375 587.4844 243.15Q587.0469 243.04062 585.8906 243.04062L582.59375 243.04062L582.59375 247.63437ZM592.6875 254.4L592.6875 241.50937L594.2656 241.50937L594.2656 246.13437Q595.375 244.85312 597.0625 244.85312Q598.09375 244.85312 598.8594 245.25937Q599.625 245.66562 599.9531 246.4Q600.2969 247.11874 600.2969 248.47812L600.2969 254.4L598.7031 254.4L598.7031 248.47812Q598.7031 247.29062 598.1875 246.75937Q597.6719 246.2125 596.7344 246.2125Q596.03125 246.2125 595.40625 246.5875Q594.7969 246.94687 594.53125 247.57187Q594.2656 248.19687 594.2656 249.29062L594.2656 254.4L592.6875 254.4ZM611.3125 246.9L611.3125 245.07187L613.0 245.07187L613.0 246.50937Q613.0 247.9 612.6875 248.44687Q611.875 249.85312 610.21875 250.025L610.21875 254.4L608.7969 254.4L608.7969 253.025Q607.71875 254.61874 605.84375 254.61874Q605.03125 254.61874 604.3125 254.30624Q603.59375 253.99374 603.2344 253.50937Q602.8906 253.025 602.75 252.32187Q602.65625 251.85312 602.65625 250.85312L602.65625 245.07187L604.2344 245.07187L604.2344 250.24374Q604.2344 251.49374 604.3281 251.91562Q604.6406 253.24374 606.15625 253.24374Q606.8906 253.24374 607.5 252.88437Q608.125 252.50937 608.375 251.88437Q608.6406 251.25937 608.6406 250.07187L608.6406 245.07187L610.21875 245.07187L610.21875 249.35312Q611.3281 249.16562 611.8906 248.30624Q612.1406 247.94687 612.1406 246.9L611.3125 246.9ZM615.71875 249.72812Q615.71875 251.4625 616.5 252.41562Q617.25 253.30624 618.46875 253.30624Q619.7031 253.30624 620.4375 252.41562Q621.21875 251.4625 621.21875 249.68124Q621.21875 247.99374 620.4219 247.05624Q619.6875 246.16562 618.46875 246.16562Q617.2344 246.16562 616.5 247.05624Q615.71875 247.99374 615.71875 249.72812ZM623.0469 246.68124L623.0469 244.8375L624.75 244.8375L624.75 246.29062Q624.75 247.38437 624.4219 247.9625Q623.9844 248.7125 622.84375 249.35312Q622.84375 249.4625 622.84375 249.60312Q622.84375 252.86874 620.7344 254.04062Q619.7031 254.61874 618.46875 254.61874Q616.46875 254.61874 615.2969 253.35312Q614.09375 252.05624 614.09375 249.72812Q614.09375 247.13437 615.5469 245.88437Q616.75 244.85312 618.46875 244.85312Q620.40625 244.85312 621.625 246.11874Q622.5469 247.07187 622.7656 248.5875Q623.375 248.2125 623.625 247.82187Q623.8906 247.41562 623.875 246.68124L623.0469 246.68124ZM626.6875 254.4L626.6875 245.07187L628.1094 245.07187L628.1094 246.4Q629.1406 244.85312 631.0781 244.85312Q631.9219 244.85312 632.625 245.16562Q633.34375 245.4625 633.6875 245.9625Q634.0469 246.44687 634.1875 247.11874Q634.2656 247.55624 634.2656 248.66562L634.2656 254.4L632.6875 254.4L632.6875 248.72812Q632.6875 247.75937 632.5 247.275Q632.3281 246.79062 631.84375 246.50937Q631.375 246.22812 630.75 246.22812Q629.7344 246.22812 629.0 246.86874Q628.2656 247.50937 628.2656 249.30624L628.2656 254.4L626.6875 254.4ZM636.3906 255.18124L637.9375 255.4Q638.03125 256.11874 638.46875 256.44687Q639.0625 256.88437 640.0781 256.88437Q641.1719 256.88437 641.7656 256.43124Q642.375 255.99374 642.5781 255.2125Q642.7031 254.72812 642.7031 253.18124Q641.65625 254.4 640.1094 254.4Q638.1875 254.4 637.125 253.00937Q636.0781 251.61874 636.0781 249.68124Q636.0781 248.3375 636.5625 247.2125Q637.0469 246.0875 637.96875 245.47812Q638.8906 244.85312 640.125 244.85312Q641.78125 244.85312 642.84375 246.19687L642.84375 245.07187L644.3125 245.07187L644.3125 253.13437Q644.3125 255.32187 643.8594 256.22812Q643.4219 257.13437 642.4531 257.65Q641.5 258.18124 640.09375 258.18124Q638.4219 258.18124 637.3906 257.43124Q636.3594 256.68124 636.3906 255.18124ZM637.7031 249.57187Q637.7031 251.4 638.4375 252.24374Q639.1719 253.0875 640.2656 253.0875Q641.3594 253.0875 642.09375 252.25937Q642.8281 251.41562 642.8281 249.61874Q642.8281 247.9 642.0625 247.04062Q641.3125 246.16562 640.2344 246.16562Q639.1875 246.16562 638.4375 247.025Q637.7031 247.88437 637.7031 249.57187ZM651.6875 257.97812L651.6875 245.07187L653.125 245.07187L653.125 246.275Q653.6406 245.57187 654.28125 245.2125Q654.9219 244.85312 655.8281 244.85312Q657.03125 244.85312 657.9375 245.47812Q658.8594 246.0875 659.3281 247.2125Q659.7969 248.32187 659.7969 249.66562Q659.7969 251.0875 659.28125 252.24374Q658.7656 253.38437 657.78125 254.00937Q656.7969 254.61874 655.71875 254.61874Q654.9375 254.61874 654.2969 254.29062Q653.6719 253.94687 653.2656 253.43124L653.2656 257.97812L651.6875 257.97812ZM653.125 249.79062Q653.125 251.5875 653.84375 252.44687Q654.5781 253.30624 655.6094 253.30624Q656.6719 253.30624 657.4219 252.41562Q658.1719 251.525 658.1719 249.65Q658.1719 247.86874 657.4375 246.97812Q656.7031 246.0875 655.6875 246.0875Q654.6719 246.0875 653.8906 247.04062Q653.125 247.97812 653.125 249.79062ZM661.6875 254.4L661.6875 241.50937L663.2656 241.50937L663.2656 246.13437Q664.375 244.85312 666.0625 244.85312Q667.09375 244.85312 667.8594 245.25937Q668.625 245.66562 668.9531 246.4Q669.2969 247.11874 669.2969 248.47812L669.2969 254.4L667.7031 254.4L667.7031 248.47812Q667.7031 247.29062 667.1875 246.75937Q666.6719 246.2125 665.7344 246.2125Q665.03125 246.2125 664.40625 246.5875Q663.7969 246.94687 663.53125 247.57187Q663.2656 248.19687 663.2656 249.29062L663.2656 254.4L661.6875 254.4ZM677.78125 253.24374Q676.90625 253.99374 676.0781 254.30624Q675.2656 254.61874 674.34375 254.61874Q672.7969 254.61874 671.96875 253.86874Q671.15625 253.10312 671.15625 251.93124Q671.15625 251.25937 671.46875 250.69687Q671.78125 250.11874 672.28125 249.775Q672.78125 249.43124 673.4219 249.25937Q673.8906 249.13437 674.8281 249.025Q676.7344 248.79062 677.6406 248.47812Q677.65625 248.15 677.65625 248.05624Q677.65625 247.10312 677.2031 246.69687Q676.59375 246.16562 675.40625 246.16562Q674.28125 246.16562 673.75 246.55624Q673.21875 246.94687 672.96875 247.94687L671.4219 247.72812Q671.6406 246.72812 672.1094 246.11874Q672.59375 245.50937 673.5 245.18124Q674.4219 244.85312 675.6406 244.85312Q676.8281 244.85312 677.5781 245.13437Q678.3281 245.41562 678.6719 245.85312Q679.03125 246.275 679.1719 246.91562Q679.25 247.32187 679.25 248.38437L679.25 250.49374Q679.25 252.69687 679.34375 253.29062Q679.4531 253.86874 679.75 254.4L678.09375 254.4Q677.84375 253.9 677.78125 253.24374ZM677.6406 249.7125Q676.78125 250.07187 675.0625 250.30624Q674.09375 250.44687 673.6875 250.63437Q673.28125 250.80624 673.0625 251.15Q672.84375 251.47812 672.84375 251.9Q672.84375 252.525 673.3125 252.94687Q673.7969 253.36874 674.71875 253.36874Q675.6406 253.36874 676.34375 252.97812Q677.0625 252.57187 677.3906 251.88437Q677.6406 251.3375 677.6406 250.29062L677.6406 249.7125ZM674.5781 243.9L675.75 241.44687L677.8125 241.44687L675.8906 243.9L674.5781 243.9ZM681.6875 257.97812L681.6875 245.07187L683.125 245.07187L683.125 246.275Q683.6406 245.57187 684.28125 245.2125Q684.9219 244.85312 685.8281 244.85312Q687.03125 244.85312 687.9375 245.47812Q688.8594 246.0875 689.3281 247.2125Q689.7969 248.32187 689.7969 249.66562Q689.7969 251.0875 689.28125 252.24374Q688.7656 253.38437 687.78125 254.00937Q686.7969 254.61874 685.71875 254.61874Q684.9375 254.61874 684.2969 254.29062Q683.6719 253.94687 683.2656 253.43124L683.2656 257.97812L681.6875 257.97812ZM683.125 249.79062Q683.125 251.5875 683.84375 252.44687Q684.5781 253.30624 685.6094 253.30624Q686.6719 253.30624 687.4219 252.41562Q688.1719 251.525 688.1719 249.65Q688.1719 247.86874 687.4375 246.97812Q686.7031 246.0875 685.6875 246.0875Q684.6719 246.0875 683.8906 247.04062Q683.125 247.97812 683.125 249.79062ZM702.6406 243.68124L699.59375 243.68124L699.59375 242.525L702.6406 242.525L702.6406 241.50937L704.2031 241.50937L704.2031 242.525L705.4844 242.525L705.4844 243.68124L704.2031 243.68124L704.2031 254.4L702.75 254.4L702.75 253.22812Q701.8594 254.61874 700.125 254.61874Q699.0156 254.61874 698.0781 254.00937Q697.1406 253.38437 696.625 252.29062Q696.1094 251.18124 696.1094 249.74374Q696.1094 248.3375 696.5781 247.2125Q697.0469 246.07187 697.96875 245.4625Q698.90625 244.85312 700.0625 244.85312Q700.90625 244.85312 701.5625 245.2125Q702.21875 245.57187 702.6406 246.13437L702.6406 243.68124ZM697.7344 249.74374Q697.7344 251.54062 698.4844 252.43124Q699.25 253.30624 700.28125 253.30624Q701.3125 253.30624 702.03125 252.4625Q702.7656 251.61874 702.7656 249.86874Q702.7656 247.9625 702.03125 247.07187Q701.2969 246.16562 700.21875 246.16562Q699.15625 246.16562 698.4375 247.025Q697.7344 247.88437 697.7344 249.74374ZM713.0781 251.4L714.71875 251.60312Q714.3281 253.025 713.28125 253.82187Q712.2344 254.61874 710.6094 254.61874Q708.5625 254.61874 707.3594 253.35312Q706.15625 252.0875 706.15625 249.80624Q706.15625 247.4625 707.3594 246.16562Q708.5781 244.85312 710.5156 244.85312Q712.3906 244.85312 713.5781 246.13437Q714.7656 247.4 714.7656 249.7125Q714.7656 249.85312 714.75 250.13437L707.7969 250.13437Q707.875 251.68124 708.65625 252.49374Q709.4531 253.30624 710.6094 253.30624Q711.4844 253.30624 712.09375 252.85312Q712.71875 252.4 713.0781 251.4ZM707.875 248.8375L713.09375 248.8375Q712.9844 247.66562 712.5 247.07187Q711.7344 246.15 710.53125 246.15Q709.4531 246.15 708.7031 246.88437Q707.96875 247.61874 707.875 248.8375ZM710.4844 242.41562L709.4844 243.9L707.6719 243.9L709.5781 241.44687L711.2656 241.44687L713.2344 243.9L711.4375 243.9L710.4844 242.41562ZM711.2656 240.80624L710.0 240.80624L707.96875 238.3375L710.0781 238.3375L711.2656 240.80624ZM720.625 254.4L724.0469 249.54062L720.8906 245.07187L722.8594 245.07187L724.2969 247.25937Q724.7031 247.88437 724.9531 248.30624Q725.3281 247.7125 725.65625 247.275L727.2344 245.07187L729.125 245.07187L725.8906 249.4625L729.375 254.4L727.4219 254.4L725.5156 251.49374L725.0 250.7125L722.5469 254.4L720.625 254.4ZM735.7969 254.4L735.7969 253.025Q734.71875 254.61874 732.84375 254.61874Q732.0156 254.61874 731.2969 254.30624Q730.5781 253.97812 730.2344 253.50937Q729.8906 253.025 729.75 252.32187Q729.65625 251.85312 729.65625 250.85312L729.65625 245.07187L731.2344 245.07187L731.2344 250.24374Q731.2344 251.47812 731.3281 251.91562Q731.4844 252.54062 731.96875 252.9Q732.4531 253.24374 733.15625 253.24374Q733.875 253.24374 734.5 252.88437Q735.125 252.525 735.375 251.9Q735.6406 251.25937 735.6406 250.07187L735.6406 245.07187L737.21875 245.07187L737.21875 254.4L735.7969 254.4ZM745.78125 253.24374Q744.90625 253.99374 744.0781 254.30624Q743.2656 254.61874 742.34375 254.61874Q740.7969 254.61874 739.96875 253.86874Q739.15625 253.10312 739.15625 251.93124Q739.15625 251.25937 739.46875 250.69687Q739.78125 250.11874 740.28125 249.775Q740.78125 249.43124 741.4219 249.25937Q741.8906 249.13437 742.8281 249.025Q744.7344 248.79062 745.6406 248.47812Q745.65625 248.15 745.65625 248.05624Q745.65625 247.10312 745.2031 246.69687Q744.59375 246.16562 743.40625 246.16562Q742.28125 246.16562 741.75 246.55624Q741.21875 246.94687 740.96875 247.94687L739.4219 247.72812Q739.6406 246.72812 740.1094 246.11874Q740.59375 245.50937 741.5 245.18124Q742.4219 244.85312 743.6406 244.85312Q744.8281 244.85312 745.5781 245.13437Q746.3281 245.41562 746.6719 245.85312Q747.03125 246.275 747.1719 246.91562Q747.25 247.32187 747.25 248.38437L747.25 250.49374Q747.25 252.69687 747.34375 253.29062Q747.4531 253.86874 747.75 254.4L746.09375 254.4Q745.84375 253.9 745.78125 253.24374ZM745.6406 249.7125Q744.78125 250.07187 743.0625 250.30624Q742.09375 250.44687 741.6875 250.63437Q741.28125 250.80624 741.0625 251.15Q740.84375 251.47812 740.84375 251.9Q740.84375 252.525 741.3125 252.94687Q741.7969 253.36874 742.71875 253.36874Q743.6406 253.36874 744.34375 252.97812Q745.0625 252.57187 745.3906 251.88437Q745.6406 251.3375 745.6406 250.29062L745.6406 249.7125ZM743.4844 242.41562L742.4844 243.9L740.6719 243.9L742.5781 241.44687L744.2656 241.44687L746.2344 243.9L744.4375 243.9L743.4844 242.41562ZM743.75 238.3375L745.875 238.3375L743.84375 240.80624L742.5625 240.80624L743.75 238.3375ZM753.1406 252.97812L753.375 254.38437Q752.7031 254.525 752.1719 254.525Q751.3125 254.525 750.8281 254.25937Q750.3594 253.97812 750.1719 253.54062Q749.9844 253.0875 749.9844 251.66562L749.9844 246.29062L748.8125 246.29062L748.8125 245.07187L749.9844 245.07187L749.9844 242.75937L751.5469 241.80624L751.5469 245.07187L753.1406 245.07187L753.1406 246.29062L751.5469 246.29062L751.5469 251.75937Q751.5469 252.43124 751.625 252.63437Q751.71875 252.82187 751.90625 252.93124Q752.09375 253.04062 752.4531 253.04062Q752.7031 253.04062 753.1406 252.97812Z" fill-rule="nonzero"/></svg>