<svg version="1.1" viewBox="0.0 0.0 1038.0 278.0" fill="none" stroke="none" stroke-linecap="square" stroke-miterlimit="10" width="1038" height="278" xmlns:xlink="http://www.w3.org/1999/xlink" xmlns="http://www.w3.org/2000/svg"><path fill="#ffffff" d="M0 0L1038.0 0L1038.0 278.0L0 278.0L0 0Z" fill-rule="nonzero"/><path stroke="#333333" stroke-width="1.0" stroke-linecap="butt" d="M102.5 178.5L1024.5 178.5" fill-rule="nonzero"/><path stroke="#cccccc" stroke-width="1.0" stroke-linecap="butt" d="M102.5 147.5L1024.5 147.5" fill-rule="nonzero"/><path stroke="#cccccc" stroke-width="1.0" stroke-linecap="butt" d="M102.5 115.5L1024.5 115.5" fill-rule="nonzero"/><path stroke="#cccccc" stroke-width="1.0" stroke-linecap="butt" d="M102.5 84.5L1024.5 84.5" fill-rule="nonzero"/><path stroke="#cccccc" stroke-width="1.0" stroke-linecap="butt" d="M102.5 52.5L1024.5 52.5" fill-rule="nonzero"/><path stroke="#cccccc" stroke-width="1.0" stroke-linecap="butt" d="M102.5 20.5L1024.5 20.5" fill-rule="nonzero"/><clipPath id="id_0"><path d="M102.9 20.9L1024.1 20.9L1024.1 178.83333L102.9 178.83333L102.9 20.9Z" clip-rule="nonzero"/></clipPath><path stroke="#ff0000" stroke-width="2.0" stroke-linecap="butt" stroke-dasharray="8.0,6.0" clip-path="url(#id_0)" d="M123.836365 166.38438L165.70909 158.5037L207.58182 177.16875L249.45454 160.83733L291.32727 134.01736L333.2 175.10574L375.07272 137.28186L416.94547 169.85352L458.81818 175.47041L500.69092 170.45752L542.56366 163.94559L584.43634 175.87532L626.3091 169.31122L668.1818 168.74438L710.05457 163.67865L751.92725 153.25146L793.8 173.34724L835.6727 133.62256L877.5455 161.39252L919.41815 165.97617L961.2909 173.08516L1003.16364 115.49057" fill-rule="nonzero"/><path stroke="#0000ff" stroke-width="2.0" stroke-linecap="butt" clip-path="url(#id_0)" d="M123.836365 158.5037L165.70909 93.888504L207.58182 45.61864L249.45454 36.268555L291.32727 145.18631L333.2 166.38438L375.07272 154.42635L416.94547 177.26437L458.81818 155.26617L500.69092 177.20909L542.56366 176.45454L584.43634 177.51782L626.3091 177.29524L668.1818 176.21362L710.05457 176.20242L751.92725 176.56961L793.8 177.64967L835.6727 176.46606L877.5455 177.04436L919.41815 77.030876L961.2909 134.00607L1003.16364 97.27872" fill-rule="nonzero"/><path fill="#000000" fill-opacity="0.0" clip-path="url(#id_0)" d="M126.836365 166.38438C126.836365 168.04124 125.49322 169.38438 123.836365 169.38438C122.17951 169.38438 120.836365 168.04124 120.836365 166.38438C120.836365 164.72754 122.17951 163.38438 123.836365 163.38438C125.49322 163.38438 126.836365 164.72754 126.836365 166.38438Z" fill-rule="nonzero"/><path fill="#000000" fill-opacity="0.0" clip-path="url(#id_0)" d="M168.70909 158.5037C168.70909 160.16055 167.36595 161.5037 165.70909 161.5037C164.05223 161.5037 162.70909 160.16055 162.70909 158.5037C162.70909 156.84685 164.05223 155.5037 165.70909 155.5037C167.36595 155.5037 168.70909 156.84685 168.70909 158.5037Z" fill-rule="nonzero"/><path fill="#000000" fill-opacity="0.0" clip-path="url(#id_0)" d="M210.58182 177.16875C210.58182 178.8256 209.23868 180.16875 207.58182 180.16875C205.92496 180.16875 204.58182 178.8256 204.58182 177.16875C204.58182 175.5119 205.92496 174.16875 207.58182 174.16875C209.23868 174.16875 210.58182 175.5119 210.58182 177.16875Z" fill-rule="nonzero"/><path fill="#000000" fill-opacity="0.0" clip-path="url(#id_0)" d="M252.45454 160.83733C252.45454 162.49419 251.1114 163.83733 249.45454 163.83733C247.79768 163.83733 246.45454 162.49419 246.45454 160.83733C246.45454 159.18048 247.79768 157.83733 249.45454 157.83733C251.1114 157.83733 252.45454 159.18048 252.45454 160.83733Z" fill-rule="nonzero"/><path fill="#000000" fill-opacity="0.0" clip-path="url(#id_0)" d="M294.32727 134.01736C294.32727 135.67422 292.98413 137.01736 291.32727 137.01736C289.6704 137.01736 288.32727 135.67422 288.32727 134.01736C288.32727 132.36052 289.6704 131.01736 291.32727 131.01736C292.98413 131.01736 294.32727 132.36052 294.32727 134.01736Z" fill-rule="nonzero"/><path fill="#000000" fill-opacity="0.0" clip-path="url(#id_0)" d="M336.2 175.10574C336.2 176.7626 334.85684 178.10574 333.2 178.10574C331.54315 178.10574 330.2 176.7626 330.2 175.10574C330.2 173.4489 331.54315 172.10574 333.2 172.10574C334.85684 172.10574 336.2 173.4489 336.2 175.10574Z" fill-rule="nonzero"/><path fill="#000000" fill-opacity="0.0" clip-path="url(#id_0)" d="M378.07272 137.28186C378.07272 138.93872 376.72958 140.28186 375.07272 140.28186C373.41586 140.28186 372.07272 138.93872 372.07272 137.28186C372.07272 135.62502 373.41586 134.28186 375.07272 134.28186C376.72958 134.28186 378.07272 135.62502 378.07272 137.28186Z" fill-rule="nonzero"/><path fill="#000000" fill-opacity="0.0" clip-path="url(#id_0)" d="M419.94547 169.85352C419.94547 171.51038 418.6023 172.85352 416.94547 172.85352C415.2886 172.85352 413.94547 171.51038 413.94547 169.85352C413.94547 168.19666 415.2886 166.85352 416.94547 166.85352C418.6023 166.85352 419.94547 168.19666 419.94547 169.85352Z" fill-rule="nonzero"/><path fill="#000000" fill-opacity="0.0" clip-path="url(#id_0)" d="M461.81818 175.47041C461.81818 177.12727 460.47504 178.47041 458.81818 178.47041C457.16132 178.47041 455.81818 177.12727 455.81818 175.47041C455.81818 173.81355 457.16132 172.47041 458.81818 172.47041C460.47504 172.47041 461.81818 173.81355 461.81818 175.47041Z" fill-rule="nonzero"/><path fill="#000000" fill-opacity="0.0" clip-path="url(#id_0)" d="M503.69092 170.45752C503.69092 172.11438 502.34778 173.45752 500.69092 173.45752C499.03406 173.45752 497.69092 172.11438 497.69092 170.45752C497.69092 168.80067 499.03406 167.45752 500.69092 167.45752C502.34778 167.45752 503.69092 168.80067 503.69092 170.45752Z" fill-rule="nonzero"/><path fill="#000000" fill-opacity="0.0" clip-path="url(#id_0)" d="M545.56366 163.94559C545.56366 165.60245 544.2205 166.94559 542.56366 166.94559C540.9068 166.94559 539.56366 165.60245 539.56366 163.94559C539.56366 162.28873 540.9068 160.94559 542.56366 160.94559C544.2205 160.94559 545.56366 162.28873 545.56366 163.94559Z" fill-rule="nonzero"/><path fill="#000000" fill-opacity="0.0" clip-path="url(#id_0)" d="M587.43634 175.87532C587.43634 177.53217 586.0932 178.87532 584.43634 178.87532C582.7795 178.87532 581.43634 177.53217 581.43634 175.87532C581.43634 174.21846 582.7795 172.87532 584.43634 172.87532C586.0932 172.87532 587.43634 174.21846 587.43634 175.87532Z" fill-rule="nonzero"/><path fill="#000000" fill-opacity="0.0" clip-path="url(#id_0)" d="M629.3091 169.31122C629.3091 170.96806 627.96594 172.31122 626.3091 172.31122C624.6522 172.31122 623.3091 170.96806 623.3091 169.31122C623.3091 167.65436 624.6522 166.31122 626.3091 166.31122C627.96594 166.31122 629.3091 167.65436 629.3091 169.31122Z" fill-rule="nonzero"/><path fill="#000000" fill-opacity="0.0" clip-path="url(#id_0)" d="M671.1818 168.74438C671.1818 170.40125 669.8387 171.74438 668.1818 171.74438C666.52496 171.74438 665.1818 170.40125 665.1818 168.74438C665.1818 167.08754 666.52496 165.74438 668.1818 165.74438C669.8387 165.74438 671.1818 167.08754 671.1818 168.74438Z" fill-rule="nonzero"/><path fill="#000000" fill-opacity="0.0" clip-path="url(#id_0)" d="M713.05457 163.67865C713.05457 165.33551 711.7114 166.67865 710.05457 166.67865C708.3977 166.67865 707.05457 165.33551 707.05457 163.67865C707.05457 162.0218 708.3977 160.67865 710.05457 160.67865C711.7114 160.67865 713.05457 162.0218 713.05457 163.67865Z" fill-rule="nonzero"/><path fill="#000000" fill-opacity="0.0" clip-path="url(#id_0)" d="M754.92725 153.25146C754.92725 154.90833 753.5841 156.25146 751.92725 156.25146C750.27045 156.25146 748.92725 154.90833 748.92725 153.25146C748.92725 151.5946 750.27045 150.25146 751.92725 150.25146C753.5841 150.25146 754.92725 151.5946 754.92725 153.25146Z" fill-rule="nonzero"/><path fill="#000000" fill-opacity="0.0" clip-path="url(#id_0)" d="M796.8 173.34724C796.8 175.0041 795.45685 176.34724 793.8 176.34724C792.1431 176.34724 790.8 175.0041 790.8 173.34724C790.8 171.6904 792.1431 170.34724 793.8 170.34724C795.45685 170.34724 796.8 171.6904 796.8 173.34724Z" fill-rule="nonzero"/><path fill="#000000" fill-opacity="0.0" clip-path="url(#id_0)" d="M838.6727 133.62256C838.6727 135.27942 837.3296 136.62256 835.6727 136.62256C834.01587 136.62256 832.6727 135.27942 832.6727 133.62256C832.6727 131.9657 834.01587 130.62256 835.6727 130.62256C837.3296 130.62256 838.6727 131.9657 838.6727 133.62256Z" fill-rule="nonzero"/><path fill="#000000" fill-opacity="0.0" clip-path="url(#id_0)" d="M880.5455 161.39252C880.5455 163.04938 879.20233 164.39252 877.5455 164.39252C875.8886 164.39252 874.5455 163.04938 874.5455 161.39252C874.5455 159.73567 875.8886 158.39252 877.5455 158.39252C879.20233 158.39252 880.5455 159.73567 880.5455 161.39252Z" fill-rule="nonzero"/><path fill="#000000" fill-opacity="0.0" clip-path="url(#id_0)" d="M922.41815 165.97617C922.41815 167.63303 921.075 168.97617 919.41815 168.97617C917.76135 168.97617 916.41815 167.63303 916.41815 165.97617C916.41815 164.3193 917.76135 162.97617 919.41815 162.97617C921.075 162.97617 922.41815 164.3193 922.41815 165.97617Z" fill-rule="nonzero"/><path fill="#000000" fill-opacity="0.0" clip-path="url(#id_0)" d="M964.2909 173.08516C964.2909 174.742 962.94775 176.08516 961.2909 176.08516C959.63403 176.08516 958.2909 174.742 958.2909 173.08516C958.2909 171.4283 959.63403 170.08516 961.2909 170.08516C962.94775 170.08516 964.2909 171.4283 964.2909 173.08516Z" fill-rule="nonzero"/><path fill="#000000" fill-opacity="0.0" clip-path="url(#id_0)" d="M1006.16364 115.49057C1006.16364 117.14742 1004.8205 118.49057 1003.16364 118.49057C1001.5068 118.49057 1000.16364 117.14742 1000.16364 115.49057C1000.16364 113.83371 1001.5068 112.49057 1003.16364 112.49057C1004.8205 112.49057 1006.16364 113.83371 1006.16364 115.49057Z" fill-rule="nonzero"/><path fill="#000000" fill-opacity="0.0" clip-path="url(#id_0)" d="M126.836365 158.5037C126.836365 160.16055 125.49322 161.5037 123.836365 161.5037C122.17951 161.5037 120.836365 160.16055 120.836365 158.5037C120.836365 156.84685 122.17951 155.5037 123.836365 155.5037C125.49322 155.5037 126.836365 156.84685 126.836365 158.5037Z" fill-rule="nonzero"/><path fill="#000000" fill-opacity="0.0" clip-path="url(#id_0)" d="M168.70909 93.888504C168.70909 95.545364 167.36595 96.888504 165.70909 96.888504C164.05223 96.888504 162.70909 95.545364 162.70909 93.888504C162.70909 92.23165 164.05223 90.888504 165.70909 90.888504C167.36595 90.888504 168.70909 92.23165 168.70909 93.888504Z" fill-rule="nonzero"/><path fill="#000000" fill-opacity="0.0" clip-path="url(#id_0)" d="M210.58182 45.61864C210.58182 47.275494 209.23868 48.61864 207.58182 48.61864C205.92496 48.61864 204.58182 47.275494 204.58182 45.61864C204.58182 43.961784 205.92496 42.61864 207.58182 42.61864C209.23868 42.61864 210.58182 43.961784 210.58182 45.61864Z" fill-rule="nonzero"/><path fill="#000000" fill-opacity="0.0" clip-path="url(#id_0)" d="M252.45454 36.268555C252.45454 37.925407 251.1114 39.268555 249.45454 39.268555C247.79768 39.268555 246.45454 37.925407 246.45454 36.268555C246.45454 34.611702 247.79768 33.268555 249.45454 33.268555C251.1114 33.268555 252.45454 34.611702 252.45454 36.268555Z" fill-rule="nonzero"/><path fill="#000000" fill-opacity="0.0" clip-path="url(#id_0)" d="M294.32727 145.18631C294.32727 146.84315 292.98413 148.18631 291.32727 148.18631C289.6704 148.18631 288.32727 146.84315 288.32727 145.18631C288.32727 143.52945 289.6704 142.18631 291.32727 142.18631C292.98413 142.18631 294.32727 143.52945 294.32727 145.18631Z" fill-rule="nonzero"/><path fill="#000000" fill-opacity="0.0" clip-path="url(#id_0)" d="M336.2 166.38438C336.2 168.04124 334.85684 169.38438 333.2 169.38438C331.54315 169.38438 330.2 168.04124 330.2 166.38438C330.2 164.72754 331.54315 163.38438 333.2 163.38438C334.85684 163.38438 336.2 164.72754 336.2 166.38438Z" fill-rule="nonzero"/><path fill="#000000" fill-opacity="0.0" clip-path="url(#id_0)" d="M378.07272 154.42635C378.07272 156.0832 376.72958 157.42635 375.07272 157.42635C373.41586 157.42635 372.07272 156.0832 372.07272 154.42635C372.07272 152.7695 373.41586 151.42635 375.07272 151.42635C376.72958 151.42635 378.07272 152.7695 378.07272 154.42635Z" fill-rule="nonzero"/><path fill="#000000" fill-opacity="0.0" clip-path="url(#id_0)" d="M419.94547 177.26437C419.94547 178.92123 418.6023 180.26437 416.94547 180.26437C415.2886 180.26437 413.94547 178.92123 413.94547 177.26437C413.94547 175.60753 415.2886 174.26437 416.94547 174.26437C418.6023 174.26437 419.94547 175.60753 419.94547 177.26437Z" fill-rule="nonzero"/><path fill="#000000" fill-opacity="0.0" clip-path="url(#id_0)" d="M461.81818 155.26617C461.81818 156.92303 460.47504 158.26617 458.81818 158.26617C457.16132 158.26617 455.81818 156.92303 455.81818 155.26617C455.81818 153.60933 457.16132 152.26617 458.81818 152.26617C460.47504 152.26617 461.81818 153.60933 461.81818 155.26617Z" fill-rule="nonzero"/><path fill="#000000" fill-opacity="0.0" clip-path="url(#id_0)" d="M503.69092 177.20909C503.69092 178.86594 502.34778 180.20909 500.69092 180.20909C499.03406 180.20909 497.69092 178.86594 497.69092 177.20909C497.69092 175.55223 499.03406 174.20909 500.69092 174.20909C502.34778 174.20909 503.69092 175.55223 503.69092 177.20909Z" fill-rule="nonzero"/><path fill="#000000" fill-opacity="0.0" clip-path="url(#id_0)" d="M545.56366 176.45454C545.56366 178.1114 544.2205 179.45454 542.56366 179.45454C540.9068 179.45454 539.56366 178.1114 539.56366 176.45454C539.56366 174.7977 540.9068 173.45454 542.56366 173.45454C544.2205 173.45454 545.56366 174.7977 545.56366 176.45454Z" fill-rule="nonzero"/><path fill="#000000" fill-opacity="0.0" clip-path="url(#id_0)" d="M587.43634 177.51782C587.43634 179.17468 586.0932 180.51782 584.43634 180.51782C582.7795 180.51782 581.43634 179.17468 581.43634 177.51782C581.43634 175.86096 582.7795 174.51782 584.43634 174.51782C586.0932 174.51782 587.43634 175.86096 587.43634 177.51782Z" fill-rule="nonzero"/><path fill="#000000" fill-opacity="0.0" clip-path="url(#id_0)" d="M629.3091 177.29524C629.3091 178.9521 627.96594 180.29524 626.3091 180.29524C624.6522 180.29524 623.3091 178.9521 623.3091 177.29524C623.3091 175.6384 624.6522 174.29524 626.3091 174.29524C627.96594 174.29524 629.3091 175.6384 629.3091 177.29524Z" fill-rule="nonzero"/><path fill="#000000" fill-opacity="0.0" clip-path="url(#id_0)" d="M671.1818 176.21362C671.1818 177.87048 669.8387 179.21362 668.1818 179.21362C666.52496 179.21362 665.1818 177.87048 665.1818 176.21362C665.1818 174.55678 666.52496 173.21362 668.1818 173.21362C669.8387 173.21362 671.1818 174.55678 671.1818 176.21362Z" fill-rule="nonzero"/><path fill="#000000" fill-opacity="0.0" clip-path="url(#id_0)" d="M713.05457 176.20242C713.05457 177.85928 711.7114 179.20242 710.05457 179.20242C708.3977 179.20242 707.05457 177.85928 707.05457 176.20242C707.05457 174.54556 708.3977 173.20242 710.05457 173.20242C711.7114 173.20242 713.05457 174.54556 713.05457 176.20242Z" fill-rule="nonzero"/><path fill="#000000" fill-opacity="0.0" clip-path="url(#id_0)" d="M754.92725 176.56961C754.92725 178.22646 753.5841 179.56961 751.92725 179.56961C750.27045 179.56961 748.92725 178.22646 748.92725 176.56961C748.92725 174.91275 750.27045 173.56961 751.92725 173.56961C753.5841 173.56961 754.92725 174.91275 754.92725 176.56961Z" fill-rule="nonzero"/><path fill="#000000" fill-opacity="0.0" clip-path="url(#id_0)" d="M796.8 177.64967C796.8 179.30653 795.45685 180.64967 793.8 180.64967C792.1431 180.64967 790.8 179.30653 790.8 177.64967C790.8 175.99281 792.1431 174.64967 793.8 174.64967C795.45685 174.64967 796.8 175.99281 796.8 177.64967Z" fill-rule="nonzero"/><path fill="#000000" fill-opacity="0.0" clip-path="url(#id_0)" d="M838.6727 176.46606C838.6727 178.12291 837.3296 179.46606 835.6727 179.46606C834.01587 179.46606 832.6727 178.12291 832.6727 176.46606C832.6727 174.8092 834.01587 173.46606 835.6727 173.46606C837.3296 173.46606 838.6727 174.8092 838.6727 176.46606Z" fill-rule="nonzero"/><path fill="#000000" fill-opacity="0.0" clip-path="url(#id_0)" d="M880.5455 177.04436C880.5455 178.70122 879.20233 180.04436 877.5455 180.04436C875.8886 180.04436 874.5455 178.70122 874.5455 177.04436C874.5455 175.3875 875.8886 174.04436 877.5455 174.04436C879.20233 174.04436 880.5455 175.3875 880.5455 177.04436Z" fill-rule="nonzero"/><path fill="#000000" fill-opacity="0.0" clip-path="url(#id_0)" d="M922.41815 77.030876C922.41815 78.68773 921.075 80.030876 919.41815 80.030876C917.76135 80.030876 916.41815 78.68773 916.41815 77.030876C916.41815 75.37402 917.76135 74.030876 919.41815 74.030876C921.075 74.030876 922.41815 75.37402 922.41815 77.030876Z" fill-rule="nonzero"/><path fill="#000000" fill-opacity="0.0" clip-path="url(#id_0)" d="M964.2909 134.00607C964.2909 135.66293 962.94775 137.00607 961.2909 137.00607C959.63403 137.00607 958.2909 135.66293 958.2909 134.00607C958.2909 132.34923 959.63403 131.00607 961.2909 131.00607C962.94775 131.00607 964.2909 132.34923 964.2909 134.00607Z" fill-rule="nonzero"/><path fill="#000000" fill-opacity="0.0" clip-path="url(#id_0)" d="M1006.16364 97.27872C1006.16364 98.93557 1004.8205 100.27872 1003.16364 100.27872C1001.5068 100.27872 1000.16364 98.93557 1000.16364 97.27872C1000.16364 95.621864 1001.5068 94.27872 1003.16364 94.27872C1004.8205 94.27872 1006.16364 95.621864 1006.16364 97.27872Z" fill-rule="nonzero"/><path fill="#000000" d="M501.39062 229.83333L501.39062 223.97395L499.96875 223.97395L499.96875 222.8177L501.39062 222.8177L501.39062 216.9427L505.84375 216.9427Q507.32812 216.9427 508.125 217.1302Q509.23438 217.3802 510.01562 218.05208Q511.03125 218.91145 511.53125 220.2552Q512.0469 221.59895 512.0469 223.3177Q512.0469 225.28645 511.42188 226.70833Q510.79688 228.1302 509.92188 228.77083Q509.04688 229.41145 507.92188 229.67708Q507.29688 229.83333 506.03125 229.83333L501.39062 229.83333ZM503.09375 228.3177L505.84375 228.3177Q507.125 228.3177 507.84375 228.08333Q508.5625 227.83333 508.98438 227.41145Q509.59375 226.80208 509.9375 225.78645Q510.28125 224.77083 510.28125 223.30208Q510.28125 221.78645 509.9375 220.8802Q509.60938 219.97395 509.0625 219.4427Q508.51562 218.89583 507.84375 218.6927Q507.1875 218.47395 505.79688 218.47395L503.09375 218.47395L503.09375 222.8177L506.64062 222.8177L506.64062 223.97395L503.09375 223.97395L503.09375 228.3177ZM515.21875 225.16145Q515.21875 226.89583 516.0 227.84895Q516.75 228.73958 517.96875 228.73958Q519.2031 228.73958 519.9375 227.84895Q520.71875 226.89583 520.71875 225.11458Q520.71875 223.42708 519.9219 222.48958Q519.1875 221.59895 517.96875 221.59895Q516.7344 221.59895 516.0 222.48958Q515.21875 223.42708 515.21875 225.16145ZM522.5469 222.11458L522.5469 220.27083L524.25 220.27083L524.25 221.72395Q524.25 222.8177 523.9219 223.39583Q523.4844 224.14583 522.34375 224.78645Q522.34375 224.89583 522.34375 225.03645Q522.34375 228.30208 520.2344 229.47395Q519.2031 230.05208 517.96875 230.05208Q515.96875 230.05208 514.7969 228.78645Q513.59375 227.48958 513.59375 225.16145Q513.59375 222.5677 515.0469 221.3177Q516.25 220.28645 517.96875 220.28645Q519.90625 220.28645 521.125 221.55208Q522.0469 222.5052 522.2656 224.02083Q522.875 223.64583 523.125 223.2552Q523.3906 222.84895 523.375 222.11458L522.5469 222.11458ZM526.1875 229.83333L526.1875 220.5052L527.6094 220.5052L527.6094 221.83333Q528.6406 220.28645 530.5781 220.28645Q531.4219 220.28645 532.125 220.59895Q532.84375 220.89583 533.1875 221.39583Q533.5469 221.8802 533.6875 222.55208Q533.7656 222.98958 533.7656 224.09895L533.7656 229.83333L532.1875 229.83333L532.1875 224.16145Q532.1875 223.1927 532.0 222.70833Q531.8281 222.22395 531.34375 221.9427Q530.875 221.66145 530.25 221.66145Q529.2344 221.66145 528.5 222.30208Q527.7656 222.9427 527.7656 224.73958L527.7656 229.83333L526.1875 229.83333ZM543.78125 229.83333L540.2344 220.5052L541.90625 220.5052L543.90625 226.08333Q544.2344 226.98958 544.5 227.97395Q544.71875 227.22395 545.09375 226.1927L547.15625 220.5052L548.7969 220.5052L545.25 229.83333L543.78125 229.83333ZM550.2031 218.77083L550.2031 216.9427L551.78125 216.9427L551.78125 218.77083L550.2031 218.77083ZM550.2031 229.83333L550.2031 220.5052L551.78125 220.5052L551.78125 229.83333L550.2031 229.83333ZM550.09375 232.6927L550.09375 230.89583L551.8906 230.89583L551.8906 232.6927L550.09375 232.6927ZM559.2031 229.83333L559.2031 216.9427L560.78125 216.9427L560.78125 224.30208L564.5156 220.5052L566.5625 220.5052L563.0 223.95833L566.9375 229.83333L564.9844 229.83333L561.8906 225.0677L560.78125 226.1302L560.78125 229.83333L559.2031 229.83333ZM568.2031 218.77083L568.2031 216.9427L569.78125 216.9427L569.78125 218.77083L568.2031 218.77083ZM568.2031 229.83333L568.2031 220.5052L569.78125 220.5052L569.78125 229.83333L568.2031 229.83333ZM578.5781 226.83333L580.21875 227.03645Q579.8281 228.45833 578.78125 229.2552Q577.7344 230.05208 576.1094 230.05208Q574.0625 230.05208 572.8594 228.78645Q571.65625 227.52083 571.65625 225.23958Q571.65625 222.89583 572.8594 221.59895Q574.0781 220.28645 576.0156 220.28645Q577.8906 220.28645 579.0781 221.5677Q580.2656 222.83333 580.2656 225.14583Q580.2656 225.28645 580.25 225.5677L573.2969 225.5677Q573.375 227.11458 574.15625 227.92708Q574.9531 228.73958 576.1094 228.73958Q576.9844 228.73958 577.59375 228.28645Q578.21875 227.83333 578.5781 226.83333ZM573.375 224.27083L578.59375 224.27083Q578.4844 223.09895 578.0 222.5052Q577.2344 221.58333 576.03125 221.58333Q574.9531 221.58333 574.2031 222.3177Q573.46875 223.05208 573.375 224.27083ZM575.9844 217.84895L574.9844 219.33333L573.1719 219.33333L575.0781 216.8802L576.7656 216.8802L578.7344 219.33333L576.9375 219.33333L575.9844 217.84895ZM575.46875 215.55208Q575.96875 215.5052 576.1094 215.45833Q576.5781 215.34895 576.59375 215.09895Q576.59375 214.89583 576.34375 214.7552Q575.96875 214.55208 575.1719 214.55208Q574.90625 214.55208 574.34375 214.59895L574.25 213.77083Q574.59375 213.6927 575.5156 213.70833Q576.59375 213.70833 577.28125 214.05208Q578.03125 214.42708 578.0625 215.02083Q578.09375 215.89583 576.4531 216.09895L576.4531 216.53645L575.46875 216.53645L575.46875 215.55208ZM582.1875 229.83333L582.1875 220.5052L583.6094 220.5052L583.6094 221.80208Q584.0469 221.1302 584.7656 220.70833Q585.5 220.28645 586.4375 220.28645Q587.46875 220.28645 588.125 220.72395Q588.7969 221.14583 589.0625 221.92708Q590.1719 220.28645 591.9531 220.28645Q593.34375 220.28645 594.0781 221.0677Q594.8281 221.83333 594.8281 223.42708L594.8281 229.83333L593.2656 229.83333L593.2656 223.95833Q593.2656 223.0052 593.1094 222.58333Q592.9531 222.16145 592.5469 221.91145Q592.1406 221.66145 591.59375 221.66145Q590.6094 221.66145 589.9531 222.3177Q589.3125 222.97395 589.3125 224.41145L589.3125 229.83333L587.7344 229.83333L587.7344 223.77083Q587.7344 222.70833 587.34375 222.1927Q586.9531 221.66145 586.0781 221.66145Q585.40625 221.66145 584.84375 222.02083Q584.28125 222.36458 584.0156 223.03645Q583.7656 223.70833 583.7656 224.98958L583.7656 229.83333L582.1875 229.83333ZM604.6406 228.41145L604.875 229.8177Q604.2031 229.95833 603.6719 229.95833Q602.8125 229.95833 602.3281 229.6927Q601.8594 229.41145 601.6719 228.97395Q601.4844 228.52083 601.4844 227.09895L601.4844 221.72395L600.3125 221.72395L600.3125 220.5052L601.4844 220.5052L601.4844 218.1927L603.0469 217.23958L603.0469 220.5052L604.6406 220.5052L604.6406 221.72395L603.0469 221.72395L603.0469 227.1927Q603.0469 227.86458 603.125 228.0677Q603.21875 228.2552 603.40625 228.36458Q603.59375 228.47395 603.9531 228.47395Q604.2031 228.47395 604.6406 228.41145ZM606.1875 229.83333L606.1875 216.9427L607.7656 216.9427L607.7656 221.5677Q608.875 220.28645 610.5625 220.28645Q611.59375 220.28645 612.3594 220.6927Q613.125 221.09895 613.4531 221.83333Q613.7969 222.55208 613.7969 223.91145L613.7969 229.83333L612.2031 229.83333L612.2031 223.91145Q612.2031 222.72395 611.6875 222.1927Q611.1719 221.64583 610.2344 221.64583Q609.53125 221.64583 608.90625 222.02083Q608.2969 222.3802 608.03125 223.0052Q607.7656 223.6302 607.7656 224.72395L607.7656 229.83333L606.1875 229.83333ZM624.8125 222.33333L624.8125 220.5052L626.5 220.5052L626.5 221.9427Q626.5 223.33333 626.1875 223.8802Q625.375 225.28645 623.71875 225.45833L623.71875 229.83333L622.2969 229.83333L622.2969 228.45833Q621.21875 230.05208 619.34375 230.05208Q618.53125 230.05208 617.8125 229.73958Q617.09375 229.42708 616.7344 228.9427Q616.3906 228.45833 616.25 227.7552Q616.15625 227.28645 616.15625 226.28645L616.15625 220.5052L617.7344 220.5052L617.7344 225.67708Q617.7344 226.92708 617.8281 227.34895Q618.1406 228.67708 619.65625 228.67708Q620.3906 228.67708 621.0 228.3177Q621.625 227.9427 621.875 227.3177Q622.1406 226.6927 622.1406 225.5052L622.1406 220.5052L623.71875 220.5052L623.71875 224.78645Q624.8281 224.59895 625.3906 223.73958Q625.6406 223.3802 625.6406 222.33333L624.8125 222.33333ZM619.4375 218.28645Q619.9375 218.22395 620.0781 218.1927Q620.5469 218.03645 620.5469 217.6927Q620.5625 217.48958 620.3125 217.34895Q619.9375 217.14583 619.1406 217.14583Q618.8594 217.14583 618.3125 217.1927L618.21875 216.28645Q618.5625 216.22395 619.4844 216.22395Q620.5625 216.23958 621.25 216.58333Q622.0 216.9427 622.0156 217.61458Q622.0625 218.6927 620.4219 218.89583L620.4219 219.33333L619.4375 219.33333L619.4375 218.28645Z" fill-rule="nonzero"/><path fill="#000000" d="M30.899996 184.05417L18.00937 184.05417L18.00937 179.21042Q18.00937 177.74167 18.399996 176.85104Q18.79062 175.96042 19.60312 175.46042Q20.41562 174.9448 21.306246 174.9448Q22.13437 174.9448 22.868746 175.39792Q23.60312 175.83542 24.04062 176.74167Q24.38437 175.5698 25.212496 174.9448Q26.04062 174.3198 27.16562 174.3198Q28.07187 174.3198 28.85312 174.71042Q29.618746 175.08542 30.04062 175.64792Q30.462496 176.21042 30.681246 177.05417Q30.899996 177.89792 30.899996 179.1323L30.899996 184.05417ZM23.431246 182.33542L23.431246 179.55417Q23.431246 178.42917 23.274996 177.92917Q23.087496 177.27292 22.649996 176.9448Q22.19687 176.61667 21.50937 176.61667Q20.868746 176.61667 20.38437 176.92917Q19.899996 177.24167 19.72812 177.8198Q19.54062 178.3823 19.54062 179.77292L19.54062 182.33542L23.431246 182.33542ZM29.38437 182.33542L29.38437 179.1323Q29.38437 178.30417 29.32187 177.97604Q29.212496 177.3823 28.962496 176.99167Q28.712496 176.60104 28.243746 176.35104Q27.774996 176.08542 27.16562 176.08542Q26.44687 176.08542 25.91562 176.46042Q25.38437 176.8198 25.16562 177.47604Q24.94687 178.1323 24.94687 179.36667L24.94687 182.33542L29.38437 182.33542ZM26.22812 172.77292Q23.63437 172.77292 22.38437 171.3198Q21.35312 170.11667 21.35312 168.39792Q21.35312 166.46042 22.618746 165.24167Q23.88437 164.02292 26.10312 164.02292Q27.899996 164.02292 28.931246 164.5698Q29.962496 165.10104 30.54062 166.1323Q31.118746 167.16354 31.118746 168.39792Q31.118746 170.35104 29.868746 171.5698Q28.60312 172.77292 26.22812 172.77292ZM26.22812 171.14792Q28.024996 171.14792 28.91562 170.36667Q29.806246 169.58542 29.806246 168.39792Q29.806246 167.21042 28.91562 166.42917Q28.00937 165.64792 26.181246 165.64792Q24.44687 165.64792 23.556246 166.4448Q22.66562 167.22604 22.66562 168.39792Q22.66562 169.58542 23.556246 170.36667Q24.44687 171.14792 26.22812 171.14792ZM18.91562 168.36667L20.399996 169.36667L20.399996 171.17917L17.94687 169.27292L17.94687 167.58542L20.399996 165.61667L20.399996 167.41354L18.91562 168.36667ZM33.75937 169.36667L31.962496 169.36667L31.962496 167.5698L33.75937 167.5698L33.75937 169.36667ZM30.899996 157.17917L21.57187 157.17917L21.57187 155.7573L22.899996 155.7573Q21.35312 154.72604 21.35312 152.78854Q21.35312 151.9448 21.66562 151.24167Q21.962496 150.52292 22.462496 150.17917Q22.94687 149.8198 23.618746 149.67917Q24.056246 149.60104 25.16562 149.60104L30.899996 149.60104L30.899996 151.17917L25.22812 151.17917Q24.25937 151.17917 23.774996 151.36667Q23.29062 151.53854 23.00937 152.02292Q22.72812 152.49167 22.72812 153.11667Q22.72812 154.1323 23.368746 154.86667Q24.00937 155.60104 25.806246 155.60104L30.899996 155.60104L30.899996 157.17917ZM30.899996 147.17917L18.00937 147.17917L18.00937 145.60104L22.63437 145.60104Q21.35312 144.49167 21.35312 142.80417Q21.35312 141.77292 21.75937 141.0073Q22.16562 140.24167 22.899996 139.91354Q23.618746 139.5698 24.97812 139.5698L30.899996 139.5698L30.899996 141.16354L24.97812 141.16354Q23.79062 141.16354 23.25937 141.67917Q22.712496 142.1948 22.712496 143.1323Q22.712496 143.83542 23.087496 144.46042Q23.44687 145.0698 24.07187 145.33542Q24.69687 145.60104 25.79062 145.60104L30.899996 145.60104L30.899996 147.17917ZM26.22812 136.14792Q27.962496 136.14792 28.91562 135.36667Q29.806246 134.61667 29.806246 133.39792Q29.806246 132.16354 28.91562 131.42917Q27.962496 130.64792 26.181246 130.64792Q24.493746 130.64792 23.556246 131.4448Q22.66562 132.17917 22.66562 133.39792Q22.66562 134.6323 23.556246 135.36667Q24.493746 136.14792 26.22812 136.14792ZM23.181246 128.8198L21.337496 128.8198L21.337496 127.11666L22.79062 127.11666Q23.88437 127.11666 24.462496 127.444786Q25.212496 127.882286 25.85312 129.02292Q25.962496 129.02292 26.10312 129.02292Q29.368746 129.02292 30.54062 131.1323Q31.118746 132.16354 31.118746 133.39792Q31.118746 135.39792 29.85312 136.5698Q28.556246 137.77292 26.22812 137.77292Q23.63437 137.77292 22.38437 136.3198Q21.35312 135.11667 21.35312 133.39792Q21.35312 131.46042 22.618746 130.24167Q23.57187 129.3198 25.087496 129.10104Q24.712496 128.49167 24.32187 128.24167Q23.91562 127.976036 23.181246 127.99166L23.181246 128.8198ZM20.399996 134.27292L17.94687 133.10104L17.94687 131.03854L20.399996 132.96042L20.399996 134.27292ZM28.118746 120.819786L27.868746 119.24166Q28.806246 119.11666 29.306246 118.52291Q29.806246 117.913536 29.806246 116.83541Q29.806246 115.74166 29.368746 115.21041Q28.91562 114.67916 28.32187 114.67916Q27.79062 114.67916 27.47812 115.14791Q27.274996 115.476036 26.94687 116.77291Q26.50937 118.507286 26.19687 119.17916Q25.868746 119.851036 25.306246 120.21041Q24.72812 120.55416 24.04062 120.55416Q23.41562 120.55416 22.88437 120.27291Q22.35312 119.976036 22.00937 119.49166Q21.72812 119.11666 21.54062 118.476036Q21.35312 117.83541 21.35312 117.11666Q21.35312 116.007286 21.681246 115.17916Q21.993746 114.351036 22.54062 113.96041Q23.07187 113.55416 23.97812 113.413536L24.181246 114.96041Q23.462496 115.069786 23.056246 115.569786Q22.649996 116.069786 22.649996 116.99166Q22.649996 118.08541 23.00937 118.55416Q23.368746 119.02291 23.85312 119.02291Q24.16562 119.02291 24.41562 118.819786Q24.66562 118.632286 24.837496 118.226036Q24.91562 117.976036 25.243746 116.819786Q25.681246 115.14791 25.97812 114.49166Q26.25937 113.819786 26.806246 113.444786Q27.35312 113.05416 28.149996 113.05416Q28.94687 113.05416 29.649996 113.52291Q30.35312 113.976036 30.743746 114.851036Q31.118746 115.726036 31.118746 116.819786Q31.118746 118.64791 30.368746 119.601036Q29.60312 120.55416 28.118746 120.819786ZM23.399996 102.55416L21.57187 102.55416L21.57187 100.86666L23.00937 100.86666Q24.399996 100.86666 24.94687 101.17916Q26.35312 101.99166 26.524996 103.64791L30.899996 103.64791L30.899996 105.069786L29.524996 105.069786Q31.118746 106.14791 31.118746 108.02291Q31.118746 108.83541 30.806246 109.55416Q30.493746 110.27291 30.00937 110.632286Q29.524996 110.976036 28.82187 111.11666Q28.35312 111.21041 27.35312 111.21041L21.57187 111.21041L21.57187 109.632286L26.743746 109.632286Q27.993746 109.632286 28.41562 109.538536Q29.743746 109.226036 29.743746 107.71041Q29.743746 106.976036 29.38437 106.36666Q29.00937 105.74166 28.38437 105.49166Q27.75937 105.226036 26.57187 105.226036L21.57187 105.226036L21.57187 103.64791L25.85312 103.64791Q25.66562 102.538536 24.806246 101.976036Q24.44687 101.726036 23.399996 101.726036L23.399996 102.55416ZM19.35312 107.92916Q19.29062 107.42916 19.25937 107.288536Q19.10312 106.819786 18.75937 106.819786Q18.556246 106.80416 18.41562 107.05416Q18.212496 107.42916 18.212496 108.226036Q18.212496 108.507286 18.25937 109.05416L17.35312 109.14791Q17.29062 108.80416 17.29062 107.882286Q17.306246 106.80416 17.649996 106.11666Q18.00937 105.36666 18.681246 105.351036Q19.75937 105.30416 19.962496 106.944786L20.399996 106.944786L20.399996 107.92916L19.35312 107.92916ZM30.899996 88.11666L29.72812 88.11666Q31.118746 89.007286 31.118746 90.74166Q31.118746 91.851036 30.50937 92.788536Q29.88437 93.726036 28.79062 94.24166Q27.681246 94.757286 26.243746 94.757286Q24.837496 94.757286 23.712496 94.288536Q22.57187 93.819786 21.962496 92.89791Q21.35312 91.96041 21.35312 90.80416Q21.35312 89.96041 21.712496 89.30416Q22.07187 88.64791 22.63437 88.226036L18.00937 88.226036L18.00937 86.663536L30.899996 86.663536L30.899996 88.11666ZM26.243746 93.132286Q28.04062 93.132286 28.931246 92.382286Q29.806246 91.61666 29.806246 90.58541Q29.806246 89.55416 28.962496 88.83541Q28.118746 88.101036 26.368746 88.101036Q24.462496 88.101036 23.57187 88.83541Q22.66562 89.569786 22.66562 90.64791Q22.66562 91.71041 23.524996 92.42916Q24.38437 93.132286 26.243746 93.132286ZM30.899996 78.069786L29.524996 78.069786Q31.118746 79.14791 31.118746 81.02291Q31.118746 81.851036 30.806246 82.569786Q30.47812 83.288536 30.00937 83.632286Q29.524996 83.976036 28.82187 84.11666Q28.35312 84.21041 27.35312 84.21041L21.57187 84.21041L21.57187 82.632286L26.743746 82.632286Q27.97812 82.632286 28.41562 82.538536Q29.04062 82.382286 29.399996 81.89791Q29.743746 81.413536 29.743746 80.71041Q29.743746 79.99166 29.38437 79.36666Q29.024996 78.74166 28.399996 78.49166Q27.75937 78.226036 26.57187 78.226036L21.57187 78.226036L21.57187 76.64791L30.899996 76.64791L30.899996 78.069786ZM33.75937 81.61666L31.962496 81.61666L31.962496 79.819786L33.75937 79.819786L33.75937 81.61666ZM30.899996 74.17916L21.57187 74.17916L21.57187 72.757286L22.899996 72.757286Q21.35312 71.726036 21.35312 69.788536Q21.35312 68.944786 21.66562 68.24166Q21.962496 67.52291 22.462496 67.17916Q22.94687 66.819786 23.618746 66.67916Q24.056246 66.601036 25.16562 66.601036L30.899996 66.601036L30.899996 68.17916L25.22812 68.17916Q24.25937 68.17916 23.774996 68.36666Q23.29062 68.538536 23.00937 69.02291Q22.72812 69.49166 22.72812 70.11666Q22.72812 71.132286 23.368746 71.86666Q24.00937 72.601036 25.806246 72.601036L30.899996 72.601036L30.899996 74.17916ZM31.681246 64.476036L31.899996 62.929165Q32.618744 62.835415 32.94687 62.397915Q33.38437 61.804165 33.38437 60.78854Q33.38437 59.69479 32.931244 59.10104Q32.493744 58.491665 31.712496 58.28854Q31.22812 58.16354 29.681246 58.16354Q30.899996 59.210415 30.899996 60.75729Q30.899996 62.679165 29.50937 63.741665Q28.118746 64.788536 26.181246 64.788536Q24.837496 64.788536 23.712496 64.30416Q22.587496 63.81979 21.97812 62.897915Q21.35312 61.97604 21.35312 60.741665Q21.35312 59.085415 22.69687 58.022915L21.57187 58.022915L21.57187 56.554165L29.63437 56.554165Q31.82187 56.554165 32.72812 57.00729Q33.63437 57.44479 34.149994 58.41354Q34.681244 59.366665 34.681244 60.772915Q34.681244 62.44479 33.931244 63.47604Q33.181244 64.507286 31.681246 64.476036ZM26.07187 63.16354Q27.899996 63.16354 28.743746 62.429165Q29.587496 61.69479 29.587496 60.60104Q29.587496 59.50729 28.75937 58.772915Q27.91562 58.03854 26.118746 58.03854Q24.399996 58.03854 23.54062 58.804165Q22.66562 59.554165 22.66562 60.63229Q22.66562 61.679165 23.524996 62.429165Q24.38437 63.16354 26.07187 63.16354ZM34.681244 46.16354Q33.04062 47.460415 30.82187 48.366665Q28.60312 49.272915 26.22812 49.272915Q24.13437 49.272915 22.22812 48.60104Q19.993746 47.804165 17.79062 46.16354L17.79062 45.022915Q19.618746 46.085415 20.399996 46.429165Q21.618746 46.960415 22.931246 47.272915Q24.587496 47.647915 26.243746 47.647915Q30.462496 47.647915 34.681244 45.022915L34.681244 46.16354ZM30.899996 43.054165L18.00937 43.054165L18.00937 41.335415L24.399996 41.335415L18.00937 34.94479L18.00937 32.63229L23.22812 38.03854L30.899996 32.397915L30.899996 34.647915L24.38437 39.22604L26.431246 41.335415L30.899996 41.335415L30.899996 43.054165ZM30.899996 31.054165L18.00937 31.054165L18.00937 26.210415Q18.00937 24.741665 18.399996 23.85104Q18.79062 22.960415 19.60312 22.460415Q20.41562 21.94479 21.306246 21.94479Q22.13437 21.94479 22.868746 22.397915Q23.60312 22.835415 24.04062 23.741665Q24.38437 22.56979 25.212496 21.94479Q26.04062 21.31979 27.16562 21.31979Q28.07187 21.31979 28.85312 21.710415Q29.618746 22.085415 30.04062 22.647915Q30.462496 23.210415 30.681246 24.054165Q30.899996 24.897915 30.899996 26.13229L30.899996 31.054165ZM23.431246 29.335415L23.431246 26.554165Q23.431246 25.429165 23.274996 24.929165Q23.087496 24.272915 22.649996 23.94479Q22.19687 23.616665 21.50937 23.616665Q20.868746 23.616665 20.38437 23.929165Q19.899996 24.241665 19.72812 24.81979Q19.54062 25.38229 19.54062 26.772915L19.54062 29.335415L23.431246 29.335415ZM29.38437 29.335415L29.38437 26.13229Q29.38437 25.304165 29.32187 24.97604Q29.212496 24.38229 28.962496 23.991665Q28.712496 23.60104 28.243746 23.35104Q27.774996 23.085415 27.16562 23.085415Q26.44687 23.085415 25.91562 23.460415Q25.38437 23.81979 25.16562 24.47604Q24.94687 25.13229 24.94687 26.366665L24.94687 29.335415L29.38437 29.335415ZM34.681244 18.147915L34.681244 19.272915Q30.462496 16.647915 26.243746 16.647915Q24.587496 16.647915 22.962496 17.022915Q21.649996 17.31979 20.431246 17.866665Q19.63437 18.210415 17.79062 19.272915L17.79062 18.147915Q19.993746 16.491665 22.22812 15.69479Q24.13437 15.022915 26.22812 15.022915Q28.60312 15.022915 30.82187 15.929165Q33.04062 16.835415 34.681244 18.147915Z" fill-rule="nonzero"/><path fill="#000000" d="M90.4 178.59895Q90.4 177.0677 90.7125 176.14583Q91.025 175.20833 91.63438 174.70833Q92.25938 174.20833 93.19688 174.20833Q93.88438 174.20833 94.4 174.48958Q94.93125 174.77083 95.275 175.30208Q95.61875 175.8177 95.80625 176.5677Q95.99375 177.3177 95.99375 178.59895Q95.99375 180.11458 95.68125 181.03645Q95.38438 181.95833 94.75938 182.47395Q94.15 182.97395 93.19688 182.97395Q91.9625 182.97395 91.24375 182.08333Q90.4 181.02083 90.4 178.59895ZM91.47813 178.59895Q91.47813 180.70833 91.97813 181.41145Q92.47813 182.11458 93.19688 182.11458Q93.93125 182.11458 94.41563 181.41145Q94.91563 180.70833 94.91563 178.59895Q94.91563 176.47395 94.41563 175.78645Q93.93125 175.08333 93.18125 175.08333Q92.4625 175.08333 92.025 175.6927Q91.47813 176.47395 91.47813 178.59895Z" fill-rule="nonzero"/><path fill="#000000" d="M74.94688 150.23105L74.94688 151.24667L69.25938 151.24667Q69.25938 150.87167 69.38438 150.5123Q69.60313 149.93417 70.07188 149.37167Q70.55625 148.80917 71.4625 148.0748Q72.86875 146.91855 73.35313 146.24667Q73.85313 145.5748 73.85313 144.98105Q73.85313 144.35605 73.4 143.93417Q72.94688 143.49667 72.22813 143.49667Q71.4625 143.49667 71.00938 143.9498Q70.55625 144.40292 70.54063 145.21542L69.4625 145.10605Q69.57188 143.8873 70.29063 143.2623Q71.025 142.62167 72.25938 142.62167Q73.49375 142.62167 74.2125 143.30917Q74.93125 143.99667 74.93125 145.0123Q74.93125 145.52792 74.7125 146.02792Q74.50938 146.5123 74.00938 147.0748Q73.525 147.62167 72.4 148.5748Q71.44688 149.37167 71.16563 149.66855Q70.9 149.9498 70.72813 150.23105L74.94688 150.23105ZM76.4 148.99667L77.50938 148.90292Q77.63438 149.71542 78.07188 150.12167Q78.525 150.52792 79.16563 150.52792Q79.91563 150.52792 80.44688 149.9498Q80.97813 149.37167 80.97813 148.43417Q80.97813 147.52792 80.4625 147.0123Q79.9625 146.48105 79.13438 146.48105Q78.63438 146.48105 78.2125 146.71542Q77.80625 146.9498 77.57188 147.30917L76.5875 147.18417L77.41563 142.77792L81.69688 142.77792L81.69688 143.77792L78.25938 143.77792L77.80625 146.09042Q78.57188 145.54355 79.41563 145.54355Q80.54063 145.54355 81.30625 146.3248Q82.0875 147.10605 82.0875 148.34042Q82.0875 149.49667 81.41563 150.35605Q80.5875 151.3873 79.16563 151.3873Q77.99375 151.3873 77.24375 150.73105Q76.50938 150.0748 76.4 148.99667ZM83.4 147.0123Q83.4 145.48105 83.7125 144.55917Q84.025 143.62167 84.63438 143.12167Q85.25938 142.62167 86.19688 142.62167Q86.88438 142.62167 87.4 142.90292Q87.93125 143.18417 88.275 143.71542Q88.61875 144.23105 88.80625 144.98105Q88.99375 145.73105 88.99375 147.0123Q88.99375 148.52792 88.68125 149.4498Q88.38438 150.37167 87.75938 150.8873Q87.15 151.3873 86.19688 151.3873Q84.9625 151.3873 84.24375 150.49667Q83.4 149.43417 83.4 147.0123ZM84.47813 147.0123Q84.47813 149.12167 84.97813 149.8248Q85.47813 150.52792 86.19688 150.52792Q86.93125 150.52792 87.41563 149.8248Q87.91563 149.12167 87.91563 147.0123Q87.91563 144.8873 87.41563 144.1998Q86.93125 143.49667 86.18125 143.49667Q85.4625 143.49667 85.025 144.10605Q84.47813 144.8873 84.47813 147.0123ZM90.4 147.0123Q90.4 145.48105 90.7125 144.55917Q91.025 143.62167 91.63438 143.12167Q92.25938 142.62167 93.19688 142.62167Q93.88438 142.62167 94.4 142.90292Q94.93125 143.18417 95.275 143.71542Q95.61875 144.23105 95.80625 144.98105Q95.99375 145.73105 95.99375 147.0123Q95.99375 148.52792 95.68125 149.4498Q95.38438 150.37167 94.75938 150.8873Q94.15 151.3873 93.19688 151.3873Q91.9625 151.3873 91.24375 150.49667Q90.4 149.43417 90.4 147.0123ZM91.47813 147.0123Q91.47813 149.12167 91.97813 149.8248Q92.47813 150.52792 93.19688 150.52792Q93.93125 150.52792 94.41563 149.8248Q94.91563 149.12167 94.91563 147.0123Q94.91563 144.8873 94.41563 144.1998Q93.93125 143.49667 93.18125 143.49667Q92.4625 143.49667 92.025 144.10605Q91.47813 144.8873 91.47813 147.0123Z" fill-rule="nonzero"/><path fill="#000000" d="M69.4 117.41L70.50938 117.31625Q70.63438 118.12875 71.07188 118.535Q71.525 118.94125 72.16563 118.94125Q72.91563 118.94125 73.44688 118.36313Q73.97813 117.785 73.97813 116.8475Q73.97813 115.94125 73.4625 115.42563Q72.9625 114.89438 72.13438 114.89438Q71.63438 114.89438 71.2125 115.12875Q70.80625 115.36313 70.57188 115.7225L69.5875 115.5975L70.41563 111.19125L74.69688 111.19125L74.69688 112.19125L71.25938 112.19125L70.80625 114.50375Q71.57188 113.95688 72.41563 113.95688Q73.54063 113.95688 74.30625 114.73813Q75.0875 115.51938 75.0875 116.75375Q75.0875 117.91 74.41563 118.76938Q73.5875 119.80063 72.16563 119.80063Q70.99375 119.80063 70.24375 119.14438Q69.50938 118.48813 69.4 117.41ZM76.4 115.42563Q76.4 113.89438 76.7125 112.9725Q77.025 112.035 77.63438 111.535Q78.25938 111.035 79.19688 111.035Q79.88438 111.035 80.4 111.31625Q80.93125 111.5975 81.275 112.12875Q81.61875 112.64438 81.80625 113.39438Q81.99375 114.14438 81.99375 115.42563Q81.99375 116.94125 81.68125 117.86313Q81.38438 118.785 80.75938 119.30063Q80.15 119.80063 79.19688 119.80063Q77.9625 119.80063 77.24375 118.91Q76.4 117.8475 76.4 115.42563ZM77.47813 115.42563Q77.47813 117.535 77.97813 118.23813Q78.47813 118.94125 79.19688 118.94125Q79.93125 118.94125 80.41563 118.23813Q80.91563 117.535 80.91563 115.42563Q80.91563 113.30063 80.41563 112.61313Q79.93125 111.91 79.18125 111.91Q78.4625 111.91 78.025 112.51938Q77.47813 113.30063 77.47813 115.42563ZM83.4 115.42563Q83.4 113.89438 83.7125 112.9725Q84.025 112.035 84.63438 111.535Q85.25938 111.035 86.19688 111.035Q86.88438 111.035 87.4 111.31625Q87.93125 111.5975 88.275 112.12875Q88.61875 112.64438 88.80625 113.39438Q88.99375 114.14438 88.99375 115.42563Q88.99375 116.94125 88.68125 117.86313Q88.38438 118.785 87.75938 119.30063Q87.15 119.80063 86.19688 119.80063Q84.9625 119.80063 84.24375 118.91Q83.4 117.8475 83.4 115.42563ZM84.47813 115.42563Q84.47813 117.535 84.97813 118.23813Q85.47813 118.94125 86.19688 118.94125Q86.93125 118.94125 87.41563 118.23813Q87.91563 117.535 87.91563 115.42563Q87.91563 113.30063 87.41563 112.61313Q86.93125 111.91 86.18125 111.91Q85.4625 111.91 85.025 112.51938Q84.47813 113.30063 84.47813 115.42563ZM90.4 115.42563Q90.4 113.89438 90.7125 112.9725Q91.025 112.035 91.63438 111.535Q92.25938 111.035 93.19688 111.035Q93.88438 111.035 94.4 111.31625Q94.93125 111.5975 95.275 112.12875Q95.61875 112.64438 95.80625 113.39438Q95.99375 114.14438 95.99375 115.42563Q95.99375 116.94125 95.68125 117.86313Q95.38438 118.785 94.75938 119.30063Q94.15 119.80063 93.19688 119.80063Q91.9625 119.80063 91.24375 118.91Q90.4 117.8475 90.4 115.42563ZM91.47813 115.42563Q91.47813 117.535 91.97813 118.23813Q92.47813 118.94125 93.19688 118.94125Q93.93125 118.94125 94.41563 118.23813Q94.91563 117.535 94.91563 115.42563Q94.91563 113.30063 94.41563 112.61313Q93.93125 111.91 93.18125 111.91Q92.4625 111.91 92.025 112.51938Q91.47813 113.30063 91.47813 115.42563Z" fill-rule="nonzero"/><path fill="#000000" d="M69.4625 80.60458L69.4625 79.58896L75.025 79.58896L75.025 80.41708Q74.2125 81.29208 73.4 82.74521Q72.60313 84.18271 72.16563 85.71396Q71.8375 86.79208 71.75938 88.07333L70.66563 88.07333Q70.68125 87.05771 71.05625 85.62021Q71.44688 84.18271 72.15 82.85458Q72.86875 81.52646 73.68125 80.60458L69.4625 80.60458ZM76.4 85.82333L77.50938 85.72958Q77.63438 86.54208 78.07188 86.94833Q78.525 87.35458 79.16563 87.35458Q79.91563 87.35458 80.44688 86.77646Q80.97813 86.19833 80.97813 85.26083Q80.97813 84.35458 80.4625 83.83896Q79.9625 83.30771 79.13438 83.30771Q78.63438 83.30771 78.2125 83.54208Q77.80625 83.77646 77.57188 84.13583L76.5875 84.01083L77.41563 79.60458L81.69688 79.60458L81.69688 80.60458L78.25938 80.60458L77.80625 82.91708Q78.57188 82.37021 79.41563 82.37021Q80.54063 82.37021 81.30625 83.15146Q82.0875 83.93271 82.0875 85.16708Q82.0875 86.32333 81.41563 87.18271Q80.5875 88.21396 79.16563 88.21396Q77.99375 88.21396 77.24375 87.55771Q76.50938 86.90146 76.4 85.82333ZM83.4 83.83896Q83.4 82.30771 83.7125 81.38583Q84.025 80.44833 84.63438 79.94833Q85.25938 79.44833 86.19688 79.44833Q86.88438 79.44833 87.4 79.72958Q87.93125 80.01083 88.275 80.54208Q88.61875 81.05771 88.80625 81.80771Q88.99375 82.55771 88.99375 83.83896Q88.99375 85.35458 88.68125 86.27646Q88.38438 87.19833 87.75938 87.71396Q87.15 88.21396 86.19688 88.21396Q84.9625 88.21396 84.24375 87.32333Q83.4 86.26083 83.4 83.83896ZM84.47813 83.83896Q84.47813 85.94833 84.97813 86.65146Q85.47813 87.35458 86.19688 87.35458Q86.93125 87.35458 87.41563 86.65146Q87.91563 85.94833 87.91563 83.83896Q87.91563 81.71396 87.41563 81.02646Q86.93125 80.32333 86.18125 80.32333Q85.4625 80.32333 85.025 80.93271Q84.47813 81.71396 84.47813 83.83896ZM90.4 83.83896Q90.4 82.30771 90.7125 81.38583Q91.025 80.44833 91.63438 79.94833Q92.25938 79.44833 93.19688 79.44833Q93.88438 79.44833 94.4 79.72958Q94.93125 80.01083 95.275 80.54208Q95.61875 81.05771 95.80625 81.80771Q95.99375 82.55771 95.99375 83.83896Q95.99375 85.35458 95.68125 86.27646Q95.38438 87.19833 94.75938 87.71396Q94.15 88.21396 93.19688 88.21396Q91.9625 88.21396 91.24375 87.32333Q90.4 86.26083 90.4 83.83896ZM91.47813 83.83896Q91.47813 85.94833 91.97813 86.65146Q92.47813 87.35458 93.19688 87.35458Q93.93125 87.35458 94.41563 86.65146Q94.91563 85.94833 94.91563 83.83896Q94.91563 81.71396 94.41563 81.02646Q93.93125 80.32333 93.18125 80.32333Q92.4625 80.32333 92.025 80.93271Q91.47813 81.71396 91.47813 83.83896Z" fill-rule="nonzero"/><path fill="#000000" d="M66.36875 56.486668L65.32188 56.486668L65.32188 49.767918Q64.93125 50.127293 64.30625 50.502293Q63.696877 50.861668 63.2125 51.033543L63.2125 50.017918Q64.0875 49.596043 64.74375 49.017918Q65.41563 48.424168 65.69688 47.861668L66.36875 47.861668L66.36875 56.486668ZM69.4 52.252293Q69.4 50.721043 69.7125 49.799168Q70.025 48.861668 70.63438 48.361668Q71.25938 47.861668 72.19688 47.861668Q72.88438 47.861668 73.4 48.142918Q73.93125 48.424168 74.275 48.955418Q74.61875 49.471043 74.80625 50.221043Q74.99375 50.971043 74.99375 52.252293Q74.99375 53.767918 74.68125 54.689793Q74.38438 55.611668 73.75938 56.127293Q73.15 56.627293 72.19688 56.627293Q70.9625 56.627293 70.24375 55.736668Q69.4 54.674168 69.4 52.252293ZM70.47813 52.252293Q70.47813 54.361668 70.97813 55.064793Q71.47813 55.767918 72.19688 55.767918Q72.93125 55.767918 73.41563 55.064793Q73.91563 54.361668 73.91563 52.252293Q73.91563 50.127293 73.41563 49.439793Q72.93125 48.736668 72.18125 48.736668Q71.4625 48.736668 71.025 49.346043Q70.47813 50.127293 70.47813 52.252293ZM76.4 52.252293Q76.4 50.721043 76.7125 49.799168Q77.025 48.861668 77.63438 48.361668Q78.25938 47.861668 79.19688 47.861668Q79.88438 47.861668 80.4 48.142918Q80.93125 48.424168 81.275 48.955418Q81.61875 49.471043 81.80625 50.221043Q81.99375 50.971043 81.99375 52.252293Q81.99375 53.767918 81.68125 54.689793Q81.38438 55.611668 80.75938 56.127293Q80.15 56.627293 79.19688 56.627293Q77.9625 56.627293 77.24375 55.736668Q76.4 54.674168 76.4 52.252293ZM77.47813 52.252293Q77.47813 54.361668 77.97813 55.064793Q78.47813 55.767918 79.19688 55.767918Q79.93125 55.767918 80.41563 55.064793Q80.91563 54.361668 80.91563 52.252293Q80.91563 50.127293 80.41563 49.439793Q79.93125 48.736668 79.18125 48.736668Q78.4625 48.736668 78.025 49.346043Q77.47813 50.127293 77.47813 52.252293ZM83.4 52.252293Q83.4 50.721043 83.7125 49.799168Q84.025 48.861668 84.63438 48.361668Q85.25938 47.861668 86.19688 47.861668Q86.88438 47.861668 87.4 48.142918Q87.93125 48.424168 88.275 48.955418Q88.61875 49.471043 88.80625 50.221043Q88.99375 50.971043 88.99375 52.252293Q88.99375 53.767918 88.68125 54.689793Q88.38438 55.611668 87.75938 56.127293Q87.15 56.627293 86.19688 56.627293Q84.9625 56.627293 84.24375 55.736668Q83.4 54.674168 83.4 52.252293ZM84.47813 52.252293Q84.47813 54.361668 84.97813 55.064793Q85.47813 55.767918 86.19688 55.767918Q86.93125 55.767918 87.41563 55.064793Q87.91563 54.361668 87.91563 52.252293Q87.91563 50.127293 87.41563 49.439793Q86.93125 48.736668 86.18125 48.736668Q85.4625 48.736668 85.025 49.346043Q84.47813 50.127293 84.47813 52.252293ZM90.4 52.252293Q90.4 50.721043 90.7125 49.799168Q91.025 48.861668 91.63438 48.361668Q92.25938 47.861668 93.19688 47.861668Q93.88438 47.861668 94.4 48.142918Q94.93125 48.424168 95.275 48.955418Q95.61875 49.471043 95.80625 50.221043Q95.99375 50.971043 95.99375 52.252293Q95.99375 53.767918 95.68125 54.689793Q95.38438 55.611668 94.75938 56.127293Q94.15 56.627293 93.19688 56.627293Q91.9625 56.627293 91.24375 55.736668Q90.4 54.674168 90.4 52.252293ZM91.47813 52.252293Q91.47813 54.361668 91.97813 55.064793Q92.47813 55.767918 93.19688 55.767918Q93.93125 55.767918 94.41563 55.064793Q94.91563 54.361668 94.91563 52.252293Q94.91563 50.127293 94.41563 49.439793Q93.93125 48.736668 93.18125 48.736668Q92.4625 48.736668 92.025 49.346043Q91.47813 50.127293 91.47813 52.252293Z" fill-rule="nonzero"/><path fill="#000000" d="M66.36875 24.9L65.32188 24.9L65.32188 18.18125Q64.93125 18.540625 64.30625 18.915625Q63.696877 19.275 63.2125 19.446875L63.2125 18.43125Q64.0875 18.009375 64.74375 17.43125Q65.41563 16.8375 65.69688 16.275L66.36875 16.275L66.36875 24.9ZM74.94688 23.884375L74.94688 24.9L69.25938 24.9Q69.25938 24.525 69.38438 24.165625Q69.60313 23.5875 70.07188 23.025Q70.55625 22.4625 71.4625 21.728125Q72.86875 20.571875 73.35313 19.9Q73.85313 19.228125 73.85313 18.634375Q73.85313 18.009375 73.4 17.5875Q72.94688 17.15 72.22813 17.15Q71.4625 17.15 71.00938 17.603125Q70.55625 18.05625 70.54063 18.86875L69.4625 18.759375Q69.57188 17.540625 70.29063 16.915625Q71.025 16.275 72.25938 16.275Q73.49375 16.275 74.2125 16.9625Q74.93125 17.65 74.93125 18.665625Q74.93125 19.18125 74.7125 19.68125Q74.50938 20.165625 74.00938 20.728125Q73.525 21.275 72.4 22.228125Q71.44688 23.025 71.16563 23.321875Q70.9 23.603125 70.72813 23.884375L74.94688 23.884375ZM76.4 22.65L77.50938 22.55625Q77.63438 23.36875 78.07188 23.775Q78.525 24.18125 79.16563 24.18125Q79.91563 24.18125 80.44688 23.603125Q80.97813 23.025 80.97813 22.0875Q80.97813 21.18125 80.4625 20.665625Q79.9625 20.134375 79.13438 20.134375Q78.63438 20.134375 78.2125 20.36875Q77.80625 20.603125 77.57188 20.9625L76.5875 20.8375L77.41563 16.43125L81.69688 16.43125L81.69688 17.43125L78.25938 17.43125L77.80625 19.74375Q78.57188 19.196875 79.41563 19.196875Q80.54063 19.196875 81.30625 19.978125Q82.0875 20.759375 82.0875 21.99375Q82.0875 23.15 81.41563 24.009375Q80.5875 25.040625 79.16563 25.040625Q77.99375 25.040625 77.24375 24.384375Q76.50938 23.728125 76.4 22.65ZM83.4 20.665625Q83.4 19.134375 83.7125 18.2125Q84.025 17.275 84.63438 16.775Q85.25938 16.275 86.19688 16.275Q86.88438 16.275 87.4 16.55625Q87.93125 16.8375 88.275 17.36875Q88.61875 17.884375 88.80625 18.634375Q88.99375 19.384375 88.99375 20.665625Q88.99375 22.18125 88.68125 23.103125Q88.38438 24.025 87.75938 24.540625Q87.15 25.040625 86.19688 25.040625Q84.9625 25.040625 84.24375 24.15Q83.4 23.0875 83.4 20.665625ZM84.47813 20.665625Q84.47813 22.775 84.97813 23.478125Q85.47813 24.18125 86.19688 24.18125Q86.93125 24.18125 87.41563 23.478125Q87.91563 22.775 87.91563 20.665625Q87.91563 18.540625 87.41563 17.853125Q86.93125 17.15 86.18125 17.15Q85.4625 17.15 85.025 17.759375Q84.47813 18.540625 84.47813 20.665625ZM90.4 20.665625Q90.4 19.134375 90.7125 18.2125Q91.025 17.275 91.63438 16.775Q92.25938 16.275 93.19688 16.275Q93.88438 16.275 94.4 16.55625Q94.93125 16.8375 95.275 17.36875Q95.61875 17.884375 95.80625 18.634375Q95.99375 19.384375 95.99375 20.665625Q95.99375 22.18125 95.68125 23.103125Q95.38438 24.025 94.75938 24.540625Q94.15 25.040625 93.19688 25.040625Q91.9625 25.040625 91.24375 24.15Q90.4 23.0875 90.4 20.665625ZM91.47813 20.665625Q91.47813 22.775 91.97813 23.478125Q92.47813 24.18125 93.19688 24.18125Q93.93125 24.18125 94.41563 23.478125Q94.91563 22.775 94.91563 20.665625Q94.91563 18.540625 94.41563 17.853125Q93.93125 17.15 93.18125 17.15Q92.4625 17.15 92.025 17.759375Q91.47813 18.540625 91.47813 20.665625Z" fill-rule="nonzero"/><path stroke="#ff0000" stroke-width="4.0" stroke-linecap="butt" stroke-dasharray="13.0,9.0" d="M280.0 253.6L315.0 253.6" fill-rule="nonzero"/><path fill="#1a1a1a" d="M324.39062 260.1L324.39062 247.20938L329.25 247.20938Q330.53125 247.20938 331.20312 247.33438Q332.15625 247.49063 332.79688 247.94376Q333.4375 248.38126 333.82812 249.19376Q334.21875 249.99063 334.21875 250.94376Q334.21875 252.58438 333.17188 253.725Q332.125 254.86563 329.40625 254.86563L326.09375 254.86563L326.09375 260.1L324.39062 260.1ZM326.09375 253.33438L329.42188 253.33438Q331.07812 253.33438 331.76562 252.725Q332.46875 252.11563 332.46875 250.99063Q332.46875 250.17813 332.0625 249.61563Q331.65625 249.0375 330.98438 248.85Q330.54688 248.74063 329.39062 248.74063L326.09375 248.74063L326.09375 253.33438ZM336.1875 260.1L336.1875 247.20938L337.76562 247.20938L337.76562 251.83438Q338.875 250.55313 340.5625 250.55313Q341.59375 250.55313 342.35938 250.95938Q343.125 251.36563 343.45312 252.1Q343.79688 252.81876 343.79688 254.17813L343.79688 260.1L342.20312 260.1L342.20312 254.17813Q342.20312 252.99063 341.6875 252.45938Q341.17188 251.9125 340.23438 251.9125Q339.53125 251.9125 338.90625 252.2875Q338.29688 252.64688 338.03125 253.27188Q337.76562 253.89688 337.76562 254.99063L337.76562 260.1L336.1875 260.1ZM354.8125 252.6L354.8125 250.77188L356.5 250.77188L356.5 252.20938Q356.5 253.6 356.1875 254.14688Q355.375 255.55313 353.71875 255.725L353.71875 260.1L352.29688 260.1L352.29688 258.725Q351.21875 260.31876 349.34375 260.31876Q348.53125 260.31876 347.8125 260.00626Q347.09375 259.69376 346.73438 259.20938Q346.39062 258.725 346.25 258.02188Q346.15625 257.55313 346.15625 256.55313L346.15625 250.77188L347.73438 250.77188L347.73438 255.94376Q347.73438 257.19376 347.82812 257.61563Q348.14062 258.94376 349.65625 258.94376Q350.39062 258.94376 351.0 258.58438Q351.625 258.20938 351.875 257.58438Q352.14062 256.95938 352.14062 255.77188L352.14062 250.77188L353.71875 250.77188L353.71875 255.05313Q354.82812 254.86563 355.39062 254.00626Q355.64062 253.64688 355.64062 252.6L354.8125 252.6ZM359.21875 255.42813Q359.21875 257.1625 360.0 258.11563Q360.75 259.00626 361.96875 259.00626Q363.20312 259.00626 363.9375 258.11563Q364.71875 257.1625 364.71875 255.38126Q364.71875 253.69376 363.92188 252.75626Q363.1875 251.86563 361.96875 251.86563Q360.73438 251.86563 360.0 252.75626Q359.21875 253.69376 359.21875 255.42813ZM366.54688 252.38126L366.54688 250.5375L368.25 250.5375L368.25 251.99063Q368.25 253.08438 367.92188 253.6625Q367.48438 254.4125 366.34375 255.05313Q366.34375 255.1625 366.34375 255.30313Q366.34375 258.56876 364.23438 259.74063Q363.20312 260.31876 361.96875 260.31876Q359.96875 260.31876 358.79688 259.05313Q357.59375 257.75626 357.59375 255.42813Q357.59375 252.83438 359.04688 251.58438Q360.25 250.55313 361.96875 250.55313Q363.90625 250.55313 365.125 251.81876Q366.04688 252.77188 366.26562 254.2875Q366.875 253.9125 367.125 253.52188Q367.39062 253.11563 367.375 252.38126L366.54688 252.38126ZM370.1875 260.1L370.1875 250.77188L371.60938 250.77188L371.60938 252.1Q372.64062 250.55313 374.57812 250.55313Q375.42188 250.55313 376.125 250.86563Q376.84375 251.1625 377.1875 251.6625Q377.54688 252.14688 377.6875 252.81876Q377.76562 253.25626 377.76562 254.36563L377.76562 260.1L376.1875 260.1L376.1875 254.42813Q376.1875 253.45938 376.0 252.975Q375.82812 252.49063 375.34375 252.20938Q374.875 251.92813 374.25 251.92813Q373.23438 251.92813 372.5 252.56876Q371.76562 253.20938 371.76562 255.00626L371.76562 260.1L370.1875 260.1ZM379.89062 260.88126L381.4375 261.1Q381.53125 261.81876 381.96875 262.14688Q382.5625 262.58438 383.57812 262.58438Q384.67188 262.58438 385.26562 262.13126Q385.875 261.69376 386.07812 260.9125Q386.20312 260.42813 386.20312 258.88126Q385.15625 260.1 383.60938 260.1Q381.6875 260.1 380.625 258.70938Q379.57812 257.31876 379.57812 255.38126Q379.57812 254.0375 380.0625 252.9125Q380.54688 251.7875 381.46875 251.17813Q382.39062 250.55313 383.625 250.55313Q385.28125 250.55313 386.34375 251.89688L386.34375 250.77188L387.8125 250.77188L387.8125 258.83438Q387.8125 261.02188 387.35938 261.92813Q386.92188 262.83438 385.95312 263.35Q385.0 263.88126 383.59375 263.88126Q381.92188 263.88126 380.89062 263.13126Q379.85938 262.38126 379.89062 260.88126ZM381.20312 255.27188Q381.20312 257.1 381.9375 257.94376Q382.67188 258.7875 383.76562 258.7875Q384.85938 258.7875 385.59375 257.95938Q386.32812 257.11563 386.32812 255.31876Q386.32812 253.6 385.5625 252.74063Q384.8125 251.86563 383.73438 251.86563Q382.6875 251.86563 381.9375 252.725Q381.20312 253.58438 381.20312 255.27188ZM395.1875 263.67813L395.1875 250.77188L396.625 250.77188L396.625 251.975Q397.14062 251.27188 397.78125 250.9125Q398.42188 250.55313 399.32812 250.55313Q400.53125 250.55313 401.4375 251.17813Q402.35938 251.7875 402.82812 252.9125Q403.29688 254.02188 403.29688 255.36563Q403.29688 256.7875 402.78125 257.94376Q402.26562 259.08438 401.28125 259.70938Q400.29688 260.31876 399.21875 260.31876Q398.4375 260.31876 397.79688 259.99063Q397.17188 259.64688 396.76562 259.13126L396.76562 263.67813L395.1875 263.67813ZM396.625 255.49063Q396.625 257.2875 397.34375 258.14688Q398.07812 259.00626 399.10938 259.00626Q400.17188 259.00626 400.92188 258.11563Q401.67188 257.225 401.67188 255.35Q401.67188 253.56876 400.9375 252.67813Q400.20312 251.7875 399.1875 251.7875Q398.17188 251.7875 397.39062 252.74063Q396.625 253.67813 396.625 255.49063ZM405.1875 260.1L405.1875 247.20938L406.76562 247.20938L406.76562 251.83438Q407.875 250.55313 409.5625 250.55313Q410.59375 250.55313 411.35938 250.95938Q412.125 251.36563 412.45312 252.1Q412.79688 252.81876 412.79688 254.17813L412.79688 260.1L411.20312 260.1L411.20312 254.17813Q411.20312 252.99063 410.6875 252.45938Q410.17188 251.9125 409.23438 251.9125Q408.53125 251.9125 407.90625 252.2875Q407.29688 252.64688 407.03125 253.27188Q406.76562 253.89688 406.76562 254.99063L406.76562 260.1L405.1875 260.1ZM421.28125 258.94376Q420.40625 259.69376 419.57812 260.00626Q418.76562 260.31876 417.84375 260.31876Q416.29688 260.31876 415.46875 259.56876Q414.65625 258.80313 414.65625 257.63126Q414.65625 256.95938 414.96875 256.39688Q415.28125 255.81876 415.78125 255.475Q416.28125 255.13126 416.92188 254.95938Q417.39062 254.83438 418.32812 254.725Q420.23438 254.49063 421.14062 254.17813Q421.15625 253.85 421.15625 253.75626Q421.15625 252.80313 420.70312 252.39688Q420.09375 251.86563 418.90625 251.86563Q417.78125 251.86563 417.25 252.25626Q416.71875 252.64688 416.46875 253.64688L414.92188 253.42813Q415.14062 252.42813 415.60938 251.81876Q416.09375 251.20938 417.0 250.88126Q417.92188 250.55313 419.14062 250.55313Q420.32812 250.55313 421.07812 250.83438Q421.82812 251.11563 422.17188 251.55313Q422.53125 251.975 422.67188 252.61563Q422.75 253.02188 422.75 254.08438L422.75 256.19376Q422.75 258.39688 422.84375 258.99063Q422.95312 259.56876 423.25 260.1L421.59375 260.1Q421.34375 259.6 421.28125 258.94376ZM421.14062 255.4125Q420.28125 255.77188 418.5625 256.00626Q417.59375 256.14688 417.1875 256.33438Q416.78125 256.50626 416.5625 256.85Q416.34375 257.17813 416.34375 257.6Q416.34375 258.225 416.8125 258.64688Q417.29688 259.06876 418.21875 259.06876Q419.14062 259.06876 419.84375 258.67813Q420.5625 258.27188 420.89062 257.58438Q421.14062 257.0375 421.14062 255.99063L421.14062 255.4125ZM418.07812 249.6L419.25 247.14688L421.3125 247.14688L419.39062 249.6L418.07812 249.6ZM425.1875 263.67813L425.1875 250.77188L426.625 250.77188L426.625 251.975Q427.14062 251.27188 427.78125 250.9125Q428.42188 250.55313 429.32812 250.55313Q430.53125 250.55313 431.4375 251.17813Q432.35938 251.7875 432.82812 252.9125Q433.29688 254.02188 433.29688 255.36563Q433.29688 256.7875 432.78125 257.94376Q432.26562 259.08438 431.28125 259.70938Q430.29688 260.31876 429.21875 260.31876Q428.4375 260.31876 427.79688 259.99063Q427.17188 259.64688 426.76562 259.13126L426.76562 263.67813L425.1875 263.67813ZM426.625 255.49063Q426.625 257.2875 427.34375 258.14688Q428.07812 259.00626 429.10938 259.00626Q430.17188 259.00626 430.92188 258.11563Q431.67188 257.225 431.67188 255.35Q431.67188 253.56876 430.9375 252.67813Q430.20312 251.7875 429.1875 251.7875Q428.17188 251.7875 427.39062 252.74063Q426.625 253.67813 426.625 255.49063ZM438.96875 260.1L443.92188 247.20938L445.76562 247.20938L451.03125 260.1L449.09375 260.1L447.59375 256.19376L442.20312 256.19376L440.78125 260.1L438.96875 260.1ZM442.6875 254.80313L447.0625 254.80313L445.71875 251.24063Q445.09375 249.61563 444.79688 248.56876Q444.5625 249.80313 444.10938 251.02188L442.6875 254.80313ZM451.3125 260.1L451.3125 247.20938L453.03125 247.20938L453.03125 253.6L459.42188 247.20938L461.73438 247.20938L456.32812 252.42813L461.96875 260.1L459.71875 260.1L455.14062 253.58438L453.03125 255.63126L453.03125 260.1L451.3125 260.1ZM461.96875 260.1L466.92188 247.20938L468.76562 247.20938L474.03125 260.1L472.09375 260.1L470.59375 256.19376L465.20312 256.19376L463.78125 260.1L461.96875 260.1ZM465.6875 254.80313L470.0625 254.80313L468.71875 251.24063Q468.09375 249.61563 467.79688 248.56876Q467.5625 249.80313 467.10938 251.02188L465.6875 254.80313ZM482.84375 247.20938L484.54688 247.20938L484.54688 254.6625Q484.54688 256.6 484.10938 257.74063Q483.67188 258.88126 482.51562 259.6Q481.375 260.31876 479.51562 260.31876Q477.70312 260.31876 476.54688 259.69376Q475.40625 259.06876 474.90625 257.89688Q474.42188 256.70938 474.42188 254.6625L474.42188 247.20938L476.125 247.20938L476.125 254.64688Q476.125 256.33438 476.4375 257.13126Q476.75 257.9125 477.5 258.35Q478.26562 258.7875 479.35938 258.7875Q481.25 258.7875 482.04688 257.92813Q482.84375 257.06876 482.84375 254.64688L482.84375 247.20938ZM490.67188 260.1L490.67188 248.74063L486.42188 248.74063L486.42188 247.20938L496.64062 247.20938L496.64062 248.74063L492.375 248.74063L492.375 260.1L490.67188 260.1ZM497.96875 260.1L502.92188 247.20938L504.76562 247.20938L510.03125 260.1L508.09375 260.1L506.59375 256.19376L501.20312 256.19376L499.78125 260.1L497.96875 260.1ZM501.6875 254.80313L506.0625 254.80313L504.71875 251.24063Q504.09375 249.61563 503.79688 248.56876Q503.5625 249.80313 503.10938 251.02188L501.6875 254.80313ZM518.84375 247.20938L520.5469 247.20938L520.5469 254.6625Q520.5469 256.6 520.1094 257.74063Q519.6719 258.88126 518.5156 259.6Q517.375 260.31876 515.5156 260.31876Q513.7031 260.31876 512.5469 259.69376Q511.40625 259.06876 510.90625 257.89688Q510.42188 256.70938 510.42188 254.6625L510.42188 247.20938L512.125 247.20938L512.125 254.64688Q512.125 256.33438 512.4375 257.13126Q512.75 257.9125 513.5 258.35Q514.2656 258.7875 515.3594 258.7875Q517.25 258.7875 518.0469 257.92813Q518.84375 257.06876 518.84375 254.64688L518.84375 247.20938ZM526.6719 260.1L526.6719 248.74063L522.4219 248.74063L522.4219 247.20938L532.6406 247.20938L532.6406 248.74063L528.375 248.74063L528.375 260.1L526.6719 260.1ZM534.875 253.81876Q534.875 250.61563 536.59375 248.80313Q538.3125 246.99063 541.0469 246.99063Q542.8281 246.99063 544.25 247.85Q545.6875 248.69376 546.4375 250.225Q547.1875 251.74063 547.1875 253.67813Q547.1875 255.63126 546.3906 257.17813Q545.6094 258.725 544.15625 259.52188Q542.7031 260.31876 541.03125 260.31876Q539.21875 260.31876 537.78125 259.44376Q536.34375 258.56876 535.6094 257.05313Q534.875 255.52188 534.875 253.81876ZM536.625 253.85Q536.625 256.17813 537.875 257.52188Q539.1406 258.86563 541.0156 258.86563Q542.9531 258.86563 544.1875 257.50626Q545.4375 256.14688 545.4375 253.6625Q545.4375 252.1 544.90625 250.92813Q544.375 249.74063 543.34375 249.1Q542.3281 248.45938 541.0469 248.45938Q539.2344 248.45938 537.9219 249.70938Q536.625 250.94376 536.625 253.85Z" fill-rule="nonzero"/><path stroke="#0000ff" stroke-width="4.0" stroke-linecap="butt" d="M564.0 253.6L576.0 253.6" fill-rule="nonzero"/><path fill="#1a1a1a" d="M585.3906 260.1L585.3906 247.20938L590.25 247.20938Q591.53125 247.20938 592.2031 247.33438Q593.15625 247.49063 593.7969 247.94376Q594.4375 248.38126 594.8281 249.19376Q595.21875 249.99063 595.21875 250.94376Q595.21875 252.58438 594.1719 253.725Q593.125 254.86563 590.40625 254.86563L587.09375 254.86563L587.09375 260.1L585.3906 260.1ZM587.09375 253.33438L590.4219 253.33438Q592.0781 253.33438 592.7656 252.725Q593.46875 252.11563 593.46875 250.99063Q593.46875 250.17813 593.0625 249.61563Q592.65625 249.0375 591.9844 248.85Q591.5469 248.74063 590.3906 248.74063L587.09375 248.74063L587.09375 253.33438ZM597.1875 260.1L597.1875 247.20938L598.7656 247.20938L598.7656 251.83438Q599.875 250.55313 601.5625 250.55313Q602.59375 250.55313 603.3594 250.95938Q604.125 251.36563 604.4531 252.1Q604.7969 252.81876 604.7969 254.17813L604.7969 260.1L603.2031 260.1L603.2031 254.17813Q603.2031 252.99063 602.6875 252.45938Q602.1719 251.9125 601.2344 251.9125Q600.53125 251.9125 599.90625 252.2875Q599.2969 252.64688 599.03125 253.27188Q598.7656 253.89688 598.7656 254.99063L598.7656 260.1L597.1875 260.1ZM615.8125 252.6L615.8125 250.77188L617.5 250.77188L617.5 252.20938Q617.5 253.6 617.1875 254.14688Q616.375 255.55313 614.71875 255.725L614.71875 260.1L613.2969 260.1L613.2969 258.725Q612.21875 260.31876 610.34375 260.31876Q609.53125 260.31876 608.8125 260.00626Q608.09375 259.69376 607.7344 259.20938Q607.3906 258.725 607.25 258.02188Q607.15625 257.55313 607.15625 256.55313L607.15625 250.77188L608.7344 250.77188L608.7344 255.94376Q608.7344 257.19376 608.8281 257.61563Q609.1406 258.94376 610.65625 258.94376Q611.3906 258.94376 612.0 258.58438Q612.625 258.20938 612.875 257.58438Q613.1406 256.95938 613.1406 255.77188L613.1406 250.77188L614.71875 250.77188L614.71875 255.05313Q615.8281 254.86563 616.3906 254.00626Q616.6406 253.64688 616.6406 252.6L615.8125 252.6ZM620.21875 255.42813Q620.21875 257.1625 621.0 258.11563Q621.75 259.00626 622.96875 259.00626Q624.2031 259.00626 624.9375 258.11563Q625.71875 257.1625 625.71875 255.38126Q625.71875 253.69376 624.9219 252.75626Q624.1875 251.86563 622.96875 251.86563Q621.7344 251.86563 621.0 252.75626Q620.21875 253.69376 620.21875 255.42813ZM627.5469 252.38126L627.5469 250.5375L629.25 250.5375L629.25 251.99063Q629.25 253.08438 628.9219 253.6625Q628.4844 254.4125 627.34375 255.05313Q627.34375 255.1625 627.34375 255.30313Q627.34375 258.56876 625.2344 259.74063Q624.2031 260.31876 622.96875 260.31876Q620.96875 260.31876 619.7969 259.05313Q618.59375 257.75626 618.59375 255.42813Q618.59375 252.83438 620.0469 251.58438Q621.25 250.55313 622.96875 250.55313Q624.90625 250.55313 626.125 251.81876Q627.0469 252.77188 627.2656 254.2875Q627.875 253.9125 628.125 253.52188Q628.3906 253.11563 628.375 252.38126L627.5469 252.38126ZM631.1875 260.1L631.1875 250.77188L632.6094 250.77188L632.6094 252.1Q633.6406 250.55313 635.5781 250.55313Q636.4219 250.55313 637.125 250.86563Q637.84375 251.1625 638.1875 251.6625Q638.5469 252.14688 638.6875 252.81876Q638.7656 253.25626 638.7656 254.36563L638.7656 260.1L637.1875 260.1L637.1875 254.42813Q637.1875 253.45938 637.0 252.975Q636.8281 252.49063 636.34375 252.20938Q635.875 251.92813 635.25 251.92813Q634.2344 251.92813 633.5 252.56876Q632.7656 253.20938 632.7656 255.00626L632.7656 260.1L631.1875 260.1ZM640.8906 260.88126L642.4375 261.1Q642.53125 261.81876 642.96875 262.14688Q643.5625 262.58438 644.5781 262.58438Q645.6719 262.58438 646.2656 262.13126Q646.875 261.69376 647.0781 260.9125Q647.2031 260.42813 647.2031 258.88126Q646.15625 260.1 644.6094 260.1Q642.6875 260.1 641.625 258.70938Q640.5781 257.31876 640.5781 255.38126Q640.5781 254.0375 641.0625 252.9125Q641.5469 251.7875 642.46875 251.17813Q643.3906 250.55313 644.625 250.55313Q646.28125 250.55313 647.34375 251.89688L647.34375 250.77188L648.8125 250.77188L648.8125 258.83438Q648.8125 261.02188 648.3594 261.92813Q647.9219 262.83438 646.9531 263.35Q646.0 263.88126 644.59375 263.88126Q642.9219 263.88126 641.8906 263.13126Q640.8594 262.38126 640.8906 260.88126ZM642.2031 255.27188Q642.2031 257.1 642.9375 257.94376Q643.6719 258.7875 644.7656 258.7875Q645.8594 258.7875 646.59375 257.95938Q647.3281 257.11563 647.3281 255.31876Q647.3281 253.6 646.5625 252.74063Q645.8125 251.86563 644.7344 251.86563Q643.6875 251.86563 642.9375 252.725Q642.2031 253.58438 642.2031 255.27188ZM656.1875 263.67813L656.1875 250.77188L657.625 250.77188L657.625 251.975Q658.1406 251.27188 658.78125 250.9125Q659.4219 250.55313 660.3281 250.55313Q661.53125 250.55313 662.4375 251.17813Q663.3594 251.7875 663.8281 252.9125Q664.2969 254.02188 664.2969 255.36563Q664.2969 256.7875 663.78125 257.94376Q663.2656 259.08438 662.28125 259.70938Q661.2969 260.31876 660.21875 260.31876Q659.4375 260.31876 658.7969 259.99063Q658.1719 259.64688 657.7656 259.13126L657.7656 263.67813L656.1875 263.67813ZM657.625 255.49063Q657.625 257.2875 658.34375 258.14688Q659.0781 259.00626 660.1094 259.00626Q661.1719 259.00626 661.9219 258.11563Q662.6719 257.225 662.6719 255.35Q662.6719 253.56876 661.9375 252.67813Q661.2031 251.7875 660.1875 251.7875Q659.1719 251.7875 658.3906 252.74063Q657.625 253.67813 657.625 255.49063ZM666.1875 260.1L666.1875 247.20938L667.7656 247.20938L667.7656 251.83438Q668.875 250.55313 670.5625 250.55313Q671.59375 250.55313 672.3594 250.95938Q673.125 251.36563 673.4531 252.1Q673.7969 252.81876 673.7969 254.17813L673.7969 260.1L672.2031 260.1L672.2031 254.17813Q672.2031 252.99063 671.6875 252.45938Q671.1719 251.9125 670.2344 251.9125Q669.53125 251.9125 668.90625 252.2875Q668.2969 252.64688 668.03125 253.27188Q667.7656 253.89688 667.7656 254.99063L667.7656 260.1L666.1875 260.1ZM682.28125 258.94376Q681.40625 259.69376 680.5781 260.00626Q679.7656 260.31876 678.84375 260.31876Q677.2969 260.31876 676.46875 259.56876Q675.65625 258.80313 675.65625 257.63126Q675.65625 256.95938 675.96875 256.39688Q676.28125 255.81876 676.78125 255.475Q677.28125 255.13126 677.9219 254.95938Q678.3906 254.83438 679.3281 254.725Q681.2344 254.49063 682.1406 254.17813Q682.15625 253.85 682.15625 253.75626Q682.15625 252.80313 681.7031 252.39688Q681.09375 251.86563 679.90625 251.86563Q678.78125 251.86563 678.25 252.25626Q677.71875 252.64688 677.46875 253.64688L675.9219 253.42813Q676.1406 252.42813 676.6094 251.81876Q677.09375 251.20938 678.0 250.88126Q678.9219 250.55313 680.1406 250.55313Q681.3281 250.55313 682.0781 250.83438Q682.8281 251.11563 683.1719 251.55313Q683.53125 251.975 683.6719 252.61563Q683.75 253.02188 683.75 254.08438L683.75 256.19376Q683.75 258.39688 683.84375 258.99063Q683.9531 259.56876 684.25 260.1L682.59375 260.1Q682.34375 259.6 682.28125 258.94376ZM682.1406 255.4125Q681.28125 255.77188 679.5625 256.00626Q678.59375 256.14688 678.1875 256.33438Q677.78125 256.50626 677.5625 256.85Q677.34375 257.17813 677.34375 257.6Q677.34375 258.225 677.8125 258.64688Q678.2969 259.06876 679.21875 259.06876Q680.1406 259.06876 680.84375 258.67813Q681.5625 258.27188 681.8906 257.58438Q682.1406 257.0375 682.1406 255.99063L682.1406 255.4125ZM679.0781 249.6L680.25 247.14688L682.3125 247.14688L680.3906 249.6L679.0781 249.6ZM686.1875 263.67813L686.1875 250.77188L687.625 250.77188L687.625 251.975Q688.1406 251.27188 688.78125 250.9125Q689.4219 250.55313 690.3281 250.55313Q691.53125 250.55313 692.4375 251.17813Q693.3594 251.7875 693.8281 252.9125Q694.2969 254.02188 694.2969 255.36563Q694.2969 256.7875 693.78125 257.94376Q693.2656 259.08438 692.28125 259.70938Q691.2969 260.31876 690.21875 260.31876Q689.4375 260.31876 688.7969 259.99063Q688.1719 259.64688 687.7656 259.13126L687.7656 263.67813L686.1875 263.67813ZM687.625 255.49063Q687.625 257.2875 688.34375 258.14688Q689.0781 259.00626 690.1094 259.00626Q691.1719 259.00626 691.9219 258.11563Q692.6719 257.225 692.6719 255.35Q692.6719 253.56876 691.9375 252.67813Q691.2031 251.7875 690.1875 251.7875Q689.1719 251.7875 688.3906 252.74063Q687.625 253.67813 687.625 255.49063ZM707.1406 249.38126L704.09375 249.38126L704.09375 248.225L707.1406 248.225L707.1406 247.20938L708.7031 247.20938L708.7031 248.225L709.9844 248.225L709.9844 249.38126L708.7031 249.38126L708.7031 260.1L707.25 260.1L707.25 258.92813Q706.3594 260.31876 704.625 260.31876Q703.5156 260.31876 702.5781 259.70938Q701.6406 259.08438 701.125 257.99063Q700.6094 256.88126 700.6094 255.44376Q700.6094 254.0375 701.0781 252.9125Q701.5469 251.77188 702.46875 251.1625Q703.40625 250.55313 704.5625 250.55313Q705.40625 250.55313 706.0625 250.9125Q706.71875 251.27188 707.1406 251.83438L707.1406 249.38126ZM702.2344 255.44376Q702.2344 257.24063 702.9844 258.13126Q703.75 259.00626 704.78125 259.00626Q705.8125 259.00626 706.53125 258.1625Q707.2656 257.31876 707.2656 255.56876Q707.2656 253.6625 706.53125 252.77188Q705.7969 251.86563 704.71875 251.86563Q703.65625 251.86563 702.9375 252.725Q702.2344 253.58438 702.2344 255.44376ZM717.5781 257.1L719.21875 257.30313Q718.8281 258.725 717.78125 259.52188Q716.7344 260.31876 715.1094 260.31876Q713.0625 260.31876 711.8594 259.05313Q710.65625 257.7875 710.65625 255.50626Q710.65625 253.1625 711.8594 251.86563Q713.0781 250.55313 715.0156 250.55313Q716.8906 250.55313 718.0781 251.83438Q719.2656 253.1 719.2656 255.4125Q719.2656 255.55313 719.25 255.83438L712.2969 255.83438Q712.375 257.38126 713.15625 258.19376Q713.9531 259.00626 715.1094 259.00626Q715.9844 259.00626 716.59375 258.55313Q717.21875 258.1 717.5781 257.1ZM712.375 254.5375L717.59375 254.5375Q717.4844 253.36563 717.0 252.77188Q716.2344 251.85 715.03125 251.85Q713.9531 251.85 713.2031 252.58438Q712.46875 253.31876 712.375 254.5375ZM714.9844 248.11563L713.9844 249.6L712.1719 249.6L714.0781 247.14688L715.7656 247.14688L717.7344 249.6L715.9375 249.6L714.9844 248.11563ZM715.7656 246.50626L714.5 246.50626L712.46875 244.0375L714.5781 244.0375L715.7656 246.50626ZM725.125 260.1L728.5469 255.24063L725.3906 250.77188L727.3594 250.77188L728.7969 252.95938Q729.2031 253.58438 729.4531 254.00626Q729.8281 253.4125 730.15625 252.975L731.7344 250.77188L733.625 250.77188L730.3906 255.1625L733.875 260.1L731.9219 260.1L730.0156 257.19376L729.5 256.4125L727.0469 260.1L725.125 260.1ZM740.2969 260.1L740.2969 258.725Q739.21875 260.31876 737.34375 260.31876Q736.5156 260.31876 735.7969 260.00626Q735.0781 259.67813 734.7344 259.20938Q734.3906 258.725 734.25 258.02188Q734.15625 257.55313 734.15625 256.55313L734.15625 250.77188L735.7344 250.77188L735.7344 255.94376Q735.7344 257.17813 735.8281 257.61563Q735.9844 258.24063 736.46875 258.6Q736.9531 258.94376 737.65625 258.94376Q738.375 258.94376 739.0 258.58438Q739.625 258.225 739.875 257.6Q740.1406 256.95938 740.1406 255.77188L740.1406 250.77188L741.71875 250.77188L741.71875 260.1L740.2969 260.1ZM750.28125 258.94376Q749.40625 259.69376 748.5781 260.00626Q747.7656 260.31876 746.84375 260.31876Q745.2969 260.31876 744.46875 259.56876Q743.65625 258.80313 743.65625 257.63126Q743.65625 256.95938 743.96875 256.39688Q744.28125 255.81876 744.78125 255.475Q745.28125 255.13126 745.9219 254.95938Q746.3906 254.83438 747.3281 254.725Q749.2344 254.49063 750.1406 254.17813Q750.15625 253.85 750.15625 253.75626Q750.15625 252.80313 749.7031 252.39688Q749.09375 251.86563 747.90625 251.86563Q746.78125 251.86563 746.25 252.25626Q745.71875 252.64688 745.46875 253.64688L743.9219 253.42813Q744.1406 252.42813 744.6094 251.81876Q745.09375 251.20938 746.0 250.88126Q746.9219 250.55313 748.1406 250.55313Q749.3281 250.55313 750.0781 250.83438Q750.8281 251.11563 751.1719 251.55313Q751.53125 251.975 751.6719 252.61563Q751.75 253.02188 751.75 254.08438L751.75 256.19376Q751.75 258.39688 751.84375 258.99063Q751.9531 259.56876 752.25 260.1L750.59375 260.1Q750.34375 259.6 750.28125 258.94376ZM750.1406 255.4125Q749.28125 255.77188 747.5625 256.00626Q746.59375 256.14688 746.1875 256.33438Q745.78125 256.50626 745.5625 256.85Q745.34375 257.17813 745.34375 257.6Q745.34375 258.225 745.8125 258.64688Q746.2969 259.06876 747.21875 259.06876Q748.1406 259.06876 748.84375 258.67813Q749.5625 258.27188 749.8906 257.58438Q750.1406 257.0375 750.1406 255.99063L750.1406 255.4125ZM747.9844 248.11563L746.9844 249.6L745.1719 249.6L747.0781 247.14688L748.7656 247.14688L750.7344 249.6L748.9375 249.6L747.9844 248.11563ZM748.25 244.0375L750.375 244.0375L748.34375 246.50626L747.0625 246.50626L748.25 244.0375ZM757.6406 258.67813L757.875 260.08438Q757.2031 260.225 756.6719 260.225Q755.8125 260.225 755.3281 259.95938Q754.8594 259.67813 754.6719 259.24063Q754.4844 258.7875 754.4844 257.36563L754.4844 251.99063L753.3125 251.99063L753.3125 250.77188L754.4844 250.77188L754.4844 248.45938L756.0469 247.50626L756.0469 250.77188L757.6406 250.77188L757.6406 251.99063L756.0469 251.99063L756.0469 257.45938Q756.0469 258.13126 756.125 258.33438Q756.21875 258.52188 756.40625 258.63126Q756.59375 258.74063 756.9531 258.74063Q757.2031 258.74063 757.6406 258.67813Z" fill-rule="nonzero"/></svg>