<svg version="1.1" viewBox="0.0 0.0 1038.0 232.0" fill="none" stroke="none" stroke-linecap="square" stroke-miterlimit="10" width="1038" height="232" xmlns:xlink="http://www.w3.org/1999/xlink" xmlns="http://www.w3.org/2000/svg"><path fill="#ffffff" d="M0 0L1038.0 0L1038.0 232.0L0 232.0L0 0Z" fill-rule="nonzero"/><path stroke="#333333" stroke-width="1.0" stroke-linecap="butt" d="M86.5 136.5L1026.5 136.5" fill-rule="nonzero"/><path stroke="#cccccc" stroke-width="1.0" stroke-linecap="butt" d="M86.5 107.5L1026.5 107.5" fill-rule="nonzero"/><path stroke="#cccccc" stroke-width="1.0" stroke-linecap="butt" d="M86.5 77.5L1026.5 77.5" fill-rule="nonzero"/><path stroke="#cccccc" stroke-width="1.0" stroke-linecap="butt" d="M86.5 48.5L1026.5 48.5" fill-rule="nonzero"/><path stroke="#cccccc" stroke-width="1.0" stroke-linecap="butt" d="M86.5 18.5L1026.5 18.5" fill-rule="nonzero"/><clipPath id="id_0"><path d="M86.6 18.6L1026.4 18.6L1026.4 136.66667L86.6 136.66667L86.6 18.6Z" clip-rule="nonzero"/></clipPath><path stroke="#ff0000" stroke-width="2.0" stroke-linecap="butt" stroke-dasharray="8.0,6.0" clip-path="url(#id_0)" d="M107.95909 107.15L150.67728 124.86L193.39546 130.76334L236.11363 95.34333L278.83182 54.02L321.55 130.76334L364.2682 48.116665L406.98636 130.76334L449.70456 42.213333L492.42273 130.76334L535.1409 107.15L577.8591 130.76334L620.5773 130.76334L663.2955 124.86L706.0136 118.956665L748.7318 107.15L791.45 124.86L834.16815 77.63333L876.88635 107.15L919.60455 77.63333L962.32275 118.956665L1005.0409 124.86" fill-rule="nonzero"/><path stroke="#0000ff" stroke-width="2.0" stroke-linecap="butt" clip-path="url(#id_0)" d="M107.95909 124.86L150.67728 101.246666L193.39546 101.246666L236.11363 95.34333L278.83182 101.246666L321.55 130.76334L364.2682 118.956665L406.98636 130.76334L449.70456 59.923332L492.42273 130.76334L535.1409 113.05334L577.8591 130.76334L620.5773 130.76334L663.2955 118.956665L706.0136 118.956665L748.7318 124.86L791.45 124.86L834.16815 118.956665L876.88635 118.956665L919.60455 18.6L962.32275 118.956665L1005.0409 83.53667" fill-rule="nonzero"/><path fill="#000000" fill-opacity="0.0" clip-path="url(#id_0)" d="M110.95909 107.15C110.95909 108.806854 109.615944 110.15 107.95909 110.15C106.30224 110.15 104.95909 108.806854 104.95909 107.15C104.95909 105.49315 106.30224 104.15 107.95909 104.15C109.615944 104.15 110.95909 105.49315 110.95909 107.15Z" fill-rule="nonzero"/><path fill="#000000" fill-opacity="0.0" clip-path="url(#id_0)" d="M153.67728 124.86C153.67728 126.51685 152.33412 127.86 150.67728 127.86C149.02042 127.86 147.67728 126.51685 147.67728 124.86C147.67728 123.20315 149.02042 121.86 150.67728 121.86C152.33412 121.86 153.67728 123.20315 153.67728 124.86Z" fill-rule="nonzero"/><path fill="#000000" fill-opacity="0.0" clip-path="url(#id_0)" d="M196.39546 130.76334C196.39546 132.42018 195.0523 133.76334 193.39546 133.76334C191.7386 133.76334 190.39546 132.42018 190.39546 130.76334C190.39546 129.10648 191.7386 127.763336 193.39546 127.763336C195.0523 127.763336 196.39546 129.10648 196.39546 130.76334Z" fill-rule="nonzero"/><path fill="#000000" fill-opacity="0.0" clip-path="url(#id_0)" d="M239.11363 95.34333C239.11363 97.00019 237.7705 98.34333 236.11363 98.34333C234.45679 98.34333 233.11363 97.00019 233.11363 95.34333C233.11363 93.68648 234.45679 92.34333 236.11363 92.34333C237.7705 92.34333 239.11363 93.68648 239.11363 95.34333Z" fill-rule="nonzero"/><path fill="#000000" fill-opacity="0.0" clip-path="url(#id_0)" d="M281.83182 54.02C281.83182 55.676853 280.48868 57.02 278.83182 57.02C277.17496 57.02 275.83182 55.676853 275.83182 54.02C275.83182 52.363144 277.17496 51.02 278.83182 51.02C280.48868 51.02 281.83182 52.363144 281.83182 54.02Z" fill-rule="nonzero"/><path fill="#000000" fill-opacity="0.0" clip-path="url(#id_0)" d="M324.55 130.76334C324.55 132.42018 323.20685 133.76334 321.55 133.76334C319.89316 133.76334 318.55 132.42018 318.55 130.76334C318.55 129.10648 319.89316 127.763336 321.55 127.763336C323.20685 127.763336 324.55 129.10648 324.55 130.76334Z" fill-rule="nonzero"/><path fill="#000000" fill-opacity="0.0" clip-path="url(#id_0)" d="M367.2682 48.116665C367.2682 49.77352 365.92505 51.116665 364.2682 51.116665C362.61133 51.116665 361.2682 49.77352 361.2682 48.116665C361.2682 46.459812 362.61133 45.116665 364.2682 45.116665C365.92505 45.116665 367.2682 46.459812 367.2682 48.116665Z" fill-rule="nonzero"/><path fill="#000000" fill-opacity="0.0" clip-path="url(#id_0)" d="M409.98636 130.76334C409.98636 132.42018 408.64322 133.76334 406.98636 133.76334C405.3295 133.76334 403.98636 132.42018 403.98636 130.76334C403.98636 129.10648 405.3295 127.763336 406.98636 127.763336C408.64322 127.763336 409.98636 129.10648 409.98636 130.76334Z" fill-rule="nonzero"/><path fill="#000000" fill-opacity="0.0" clip-path="url(#id_0)" d="M452.70456 42.213333C452.70456 43.870186 451.3614 45.213333 449.70456 45.213333C448.0477 45.213333 446.70456 43.870186 446.70456 42.213333C446.70456 40.55648 448.0477 39.213333 449.70456 39.213333C451.3614 39.213333 452.70456 40.55648 452.70456 42.213333Z" fill-rule="nonzero"/><path fill="#000000" fill-opacity="0.0" clip-path="url(#id_0)" d="M495.42273 130.76334C495.42273 132.42018 494.0796 133.76334 492.42273 133.76334C490.76587 133.76334 489.42273 132.42018 489.42273 130.76334C489.42273 129.10648 490.76587 127.763336 492.42273 127.763336C494.0796 127.763336 495.42273 129.10648 495.42273 130.76334Z" fill-rule="nonzero"/><path fill="#000000" fill-opacity="0.0" clip-path="url(#id_0)" d="M538.1409 107.15C538.1409 108.806854 536.7978 110.15 535.1409 110.15C533.4841 110.15 532.1409 108.806854 532.1409 107.15C532.1409 105.49315 533.4841 104.15 535.1409 104.15C536.7978 104.15 538.1409 105.49315 538.1409 107.15Z" fill-rule="nonzero"/><path fill="#000000" fill-opacity="0.0" clip-path="url(#id_0)" d="M580.8591 130.76334C580.8591 132.42018 579.5159 133.76334 577.8591 133.76334C576.2022 133.76334 574.8591 132.42018 574.8591 130.76334C574.8591 129.10648 576.2022 127.763336 577.8591 127.763336C579.5159 127.763336 580.8591 129.10648 580.8591 130.76334Z" fill-rule="nonzero"/><path fill="#000000" fill-opacity="0.0" clip-path="url(#id_0)" d="M623.5773 130.76334C623.5773 132.42018 622.23413 133.76334 620.5773 133.76334C618.9204 133.76334 617.5773 132.42018 617.5773 130.76334C617.5773 129.10648 618.9204 127.763336 620.5773 127.763336C622.23413 127.763336 623.5773 129.10648 623.5773 130.76334Z" fill-rule="nonzero"/><path fill="#000000" fill-opacity="0.0" clip-path="url(#id_0)" d="M666.2955 124.86C666.2955 126.51685 664.95233 127.86 663.2955 127.86C661.6386 127.86 660.2955 126.51685 660.2955 124.86C660.2955 123.20315 661.6386 121.86 663.2955 121.86C664.95233 121.86 666.2955 123.20315 666.2955 124.86Z" fill-rule="nonzero"/><path fill="#000000" fill-opacity="0.0" clip-path="url(#id_0)" d="M709.0136 118.956665C709.0136 120.61352 707.6705 121.956665 706.0136 121.956665C704.3568 121.956665 703.0136 120.61352 703.0136 118.956665C703.0136 117.29981 704.3568 115.956665 706.0136 115.956665C707.6705 115.956665 709.0136 117.29981 709.0136 118.956665Z" fill-rule="nonzero"/><path fill="#000000" fill-opacity="0.0" clip-path="url(#id_0)" d="M751.7318 107.15C751.7318 108.806854 750.3887 110.15 748.7318 110.15C747.07495 110.15 745.7318 108.806854 745.7318 107.15C745.7318 105.49315 747.07495 104.15 748.7318 104.15C750.3887 104.15 751.7318 105.49315 751.7318 107.15Z" fill-rule="nonzero"/><path fill="#000000" fill-opacity="0.0" clip-path="url(#id_0)" d="M794.45 124.86C794.45 126.51685 793.1069 127.86 791.45 127.86C789.79315 127.86 788.45 126.51685 788.45 124.86C788.45 123.20315 789.79315 121.86 791.45 121.86C793.1069 121.86 794.45 123.20315 794.45 124.86Z" fill-rule="nonzero"/><path fill="#000000" fill-opacity="0.0" clip-path="url(#id_0)" d="M837.16815 77.63333C837.16815 79.290184 835.825 80.63333 834.16815 80.63333C832.51135 80.63333 831.16815 79.290184 831.16815 77.63333C831.16815 75.97648 832.51135 74.63333 834.16815 74.63333C835.825 74.63333 837.16815 75.97648 837.16815 77.63333Z" fill-rule="nonzero"/><path fill="#000000" fill-opacity="0.0" clip-path="url(#id_0)" d="M879.88635 107.15C879.88635 108.806854 878.5432 110.15 876.88635 110.15C875.2295 110.15 873.88635 108.806854 873.88635 107.15C873.88635 105.49315 875.2295 104.15 876.88635 104.15C878.5432 104.15 879.88635 105.49315 879.88635 107.15Z" fill-rule="nonzero"/><path fill="#000000" fill-opacity="0.0" clip-path="url(#id_0)" d="M922.60455 77.63333C922.60455 79.290184 921.2614 80.63333 919.60455 80.63333C917.9477 80.63333 916.60455 79.290184 916.60455 77.63333C916.60455 75.97648 917.9477 74.63333 919.60455 74.63333C921.2614 74.63333 922.60455 75.97648 922.60455 77.63333Z" fill-rule="nonzero"/><path fill="#000000" fill-opacity="0.0" clip-path="url(#id_0)" d="M965.32275 118.956665C965.32275 120.61352 963.97955 121.956665 962.32275 121.956665C960.6659 121.956665 959.32275 120.61352 959.32275 118.956665C959.32275 117.29981 960.6659 115.956665 962.32275 115.956665C963.97955 115.956665 965.32275 117.29981 965.32275 118.956665Z" fill-rule="nonzero"/><path fill="#000000" fill-opacity="0.0" clip-path="url(#id_0)" d="M1008.0409 124.86C1008.0409 126.51685 1006.69775 127.86 1005.0409 127.86C1003.38403 127.86 1002.0409 126.51685 1002.0409 124.86C1002.0409 123.20315 1003.38403 121.86 1005.0409 121.86C1006.69775 121.86 1008.0409 123.20315 1008.0409 124.86Z" fill-rule="nonzero"/><path fill="#000000" fill-opacity="0.0" clip-path="url(#id_0)" d="M110.95909 124.86C110.95909 126.51685 109.615944 127.86 107.95909 127.86C106.30224 127.86 104.95909 126.51685 104.95909 124.86C104.95909 123.20315 106.30224 121.86 107.95909 121.86C109.615944 121.86 110.95909 123.20315 110.95909 124.86Z" fill-rule="nonzero"/><path fill="#000000" fill-opacity="0.0" clip-path="url(#id_0)" d="M153.67728 101.246666C153.67728 102.90352 152.33412 104.246666 150.67728 104.246666C149.02042 104.246666 147.67728 102.90352 147.67728 101.246666C147.67728 99.58981 149.02042 98.246666 150.67728 98.246666C152.33412 98.246666 153.67728 99.58981 153.67728 101.246666Z" fill-rule="nonzero"/><path fill="#000000" fill-opacity="0.0" clip-path="url(#id_0)" d="M196.39546 101.246666C196.39546 102.90352 195.0523 104.246666 193.39546 104.246666C191.7386 104.246666 190.39546 102.90352 190.39546 101.246666C190.39546 99.58981 191.7386 98.246666 193.39546 98.246666C195.0523 98.246666 196.39546 99.58981 196.39546 101.246666Z" fill-rule="nonzero"/><path fill="#000000" fill-opacity="0.0" clip-path="url(#id_0)" d="M239.11363 95.34333C239.11363 97.00019 237.7705 98.34333 236.11363 98.34333C234.45679 98.34333 233.11363 97.00019 233.11363 95.34333C233.11363 93.68648 234.45679 92.34333 236.11363 92.34333C237.7705 92.34333 239.11363 93.68648 239.11363 95.34333Z" fill-rule="nonzero"/><path fill="#000000" fill-opacity="0.0" clip-path="url(#id_0)" d="M281.83182 101.246666C281.83182 102.90352 280.48868 104.246666 278.83182 104.246666C277.17496 104.246666 275.83182 102.90352 275.83182 101.246666C275.83182 99.58981 277.17496 98.246666 278.83182 98.246666C280.48868 98.246666 281.83182 99.58981 281.83182 101.246666Z" fill-rule="nonzero"/><path fill="#000000" fill-opacity="0.0" clip-path="url(#id_0)" d="M324.55 130.76334C324.55 132.42018 323.20685 133.76334 321.55 133.76334C319.89316 133.76334 318.55 132.42018 318.55 130.76334C318.55 129.10648 319.89316 127.763336 321.55 127.763336C323.20685 127.763336 324.55 129.10648 324.55 130.76334Z" fill-rule="nonzero"/><path fill="#000000" fill-opacity="0.0" clip-path="url(#id_0)" d="M367.2682 118.956665C367.2682 120.61352 365.92505 121.956665 364.2682 121.956665C362.61133 121.956665 361.2682 120.61352 361.2682 118.956665C361.2682 117.29981 362.61133 115.956665 364.2682 115.956665C365.92505 115.956665 367.2682 117.29981 367.2682 118.956665Z" fill-rule="nonzero"/><path fill="#000000" fill-opacity="0.0" clip-path="url(#id_0)" d="M409.98636 130.76334C409.98636 132.42018 408.64322 133.76334 406.98636 133.76334C405.3295 133.76334 403.98636 132.42018 403.98636 130.76334C403.98636 129.10648 405.3295 127.763336 406.98636 127.763336C408.64322 127.763336 409.98636 129.10648 409.98636 130.76334Z" fill-rule="nonzero"/><path fill="#000000" fill-opacity="0.0" clip-path="url(#id_0)" d="M452.70456 59.923332C452.70456 61.58019 451.3614 62.923332 449.70456 62.923332C448.0477 62.923332 446.70456 61.58019 446.70456 59.923332C446.70456 58.26648 448.0477 56.923332 449.70456 56.923332C451.3614 56.923332 452.70456 58.26648 452.70456 59.923332Z" fill-rule="nonzero"/><path fill="#000000" fill-opacity="0.0" clip-path="url(#id_0)" d="M495.42273 130.76334C495.42273 132.42018 494.0796 133.76334 492.42273 133.76334C490.76587 133.76334 489.42273 132.42018 489.42273 130.76334C489.42273 129.10648 490.76587 127.763336 492.42273 127.763336C494.0796 127.763336 495.42273 129.10648 495.42273 130.76334Z" fill-rule="nonzero"/><path fill="#000000" fill-opacity="0.0" clip-path="url(#id_0)" d="M538.1409 113.05334C538.1409 114.71019 536.7978 116.05334 535.1409 116.05334C533.4841 116.05334 532.1409 114.71019 532.1409 113.05334C532.1409 111.39648 533.4841 110.05334 535.1409 110.05334C536.7978 110.05334 538.1409 111.39648 538.1409 113.05334Z" fill-rule="nonzero"/><path fill="#000000" fill-opacity="0.0" clip-path="url(#id_0)" d="M580.8591 130.76334C580.8591 132.42018 579.5159 133.76334 577.8591 133.76334C576.2022 133.76334 574.8591 132.42018 574.8591 130.76334C574.8591 129.10648 576.2022 127.763336 577.8591 127.763336C579.5159 127.763336 580.8591 129.10648 580.8591 130.76334Z" fill-rule="nonzero"/><path fill="#000000" fill-opacity="0.0" clip-path="url(#id_0)" d="M623.5773 130.76334C623.5773 132.42018 622.23413 133.76334 620.5773 133.76334C618.9204 133.76334 617.5773 132.42018 617.5773 130.76334C617.5773 129.10648 618.9204 127.763336 620.5773 127.763336C622.23413 127.763336 623.5773 129.10648 623.5773 130.76334Z" fill-rule="nonzero"/><path fill="#000000" fill-opacity="0.0" clip-path="url(#id_0)" d="M666.2955 118.956665C666.2955 120.61352 664.95233 121.956665 663.2955 121.956665C661.6386 121.956665 660.2955 120.61352 660.2955 118.956665C660.2955 117.29981 661.6386 115.956665 663.2955 115.956665C664.95233 115.956665 666.2955 117.29981 666.2955 118.956665Z" fill-rule="nonzero"/><path fill="#000000" fill-opacity="0.0" clip-path="url(#id_0)" d="M709.0136 118.956665C709.0136 120.61352 707.6705 121.956665 706.0136 121.956665C704.3568 121.956665 703.0136 120.61352 703.0136 118.956665C703.0136 117.29981 704.3568 115.956665 706.0136 115.956665C707.6705 115.956665 709.0136 117.29981 709.0136 118.956665Z" fill-rule="nonzero"/><path fill="#000000" fill-opacity="0.0" clip-path="url(#id_0)" d="M751.7318 124.86C751.7318 126.51685 750.3887 127.86 748.7318 127.86C747.07495 127.86 745.7318 126.51685 745.7318 124.86C745.7318 123.20315 747.07495 121.86 748.7318 121.86C750.3887 121.86 751.7318 123.20315 751.7318 124.86Z" fill-rule="nonzero"/><path fill="#000000" fill-opacity="0.0" clip-path="url(#id_0)" d="M794.45 124.86C794.45 126.51685 793.1069 127.86 791.45 127.86C789.79315 127.86 788.45 126.51685 788.45 124.86C788.45 123.20315 789.79315 121.86 791.45 121.86C793.1069 121.86 794.45 123.20315 794.45 124.86Z" fill-rule="nonzero"/><path fill="#000000" fill-opacity="0.0" clip-path="url(#id_0)" d="M837.16815 118.956665C837.16815 120.61352 835.825 121.956665 834.16815 121.956665C832.51135 121.956665 831.16815 120.61352 831.16815 118.956665C831.16815 117.29981 832.51135 115.956665 834.16815 115.956665C835.825 115.956665 837.16815 117.29981 837.16815 118.956665Z" fill-rule="nonzero"/><path fill="#000000" fill-opacity="0.0" clip-path="url(#id_0)" d="M879.88635 118.956665C879.88635 120.61352 878.5432 121.956665 876.88635 121.956665C875.2295 121.956665 873.88635 120.61352 873.88635 118.956665C873.88635 117.29981 875.2295 115.956665 876.88635 115.956665C878.5432 115.956665 879.88635 117.29981 879.88635 118.956665Z" fill-rule="nonzero"/><path fill="#000000" fill-opacity="0.0" clip-path="url(#id_0)" d="M922.60455 18.6C922.60455 20.256855 921.2614 21.6 919.60455 21.6C917.9477 21.6 916.60455 20.256855 916.60455 18.6C916.60455 16.943146 917.9477 15.6 919.60455 15.6C921.2614 15.6 922.60455 16.943146 922.60455 18.6Z" fill-rule="nonzero"/><path fill="#000000" fill-opacity="0.0" clip-path="url(#id_0)" d="M965.32275 118.956665C965.32275 120.61352 963.97955 121.956665 962.32275 121.956665C960.6659 121.956665 959.32275 120.61352 959.32275 118.956665C959.32275 117.29981 960.6659 115.956665 962.32275 115.956665C963.97955 115.956665 965.32275 117.29981 965.32275 118.956665Z" fill-rule="nonzero"/><path fill="#000000" fill-opacity="0.0" clip-path="url(#id_0)" d="M1008.0409 83.53667C1008.0409 85.19352 1006.69775 86.53667 1005.0409 86.53667C1003.38403 86.53667 1002.0409 85.19352 1002.0409 83.53667C1002.0409 81.879814 1003.38403 80.53667 1005.0409 80.53667C1006.69775 80.53667 1008.0409 81.879814 1008.0409 83.53667Z" fill-rule="nonzero"/><path fill="#000000" d="M494.39062 187.66667L494.39062 181.8073L492.96875 181.8073L492.96875 180.65105L494.39062 180.65105L494.39062 174.77605L498.84375 174.77605Q500.32812 174.77605 501.125 174.96355Q502.23438 175.21355 503.01562 175.88542Q504.03125 176.7448 504.53125 178.08855Q505.04688 179.4323 505.04688 181.15105Q505.04688 183.1198 504.42188 184.54167Q503.79688 185.96355 502.92188 186.60417Q502.04688 187.2448 500.92188 187.51042Q500.29688 187.66667 499.03125 187.66667L494.39062 187.66667ZM496.09375 186.15105L498.84375 186.15105Q500.125 186.15105 500.84375 185.91667Q501.5625 185.66667 501.98438 185.2448Q502.59375 184.63542 502.9375 183.6198Q503.28125 182.60417 503.28125 181.13542Q503.28125 179.6198 502.9375 178.71355Q502.60938 177.8073 502.0625 177.27605Q501.51562 176.72917 500.84375 176.52605Q500.1875 176.3073 498.79688 176.3073L496.09375 176.3073L496.09375 180.65105L499.64062 180.65105L499.64062 181.8073L496.09375 181.8073L496.09375 186.15105ZM508.21875 182.9948Q508.21875 184.72917 509.0 185.6823Q509.75 186.57292 510.96875 186.57292Q512.2031 186.57292 512.9375 185.6823Q513.71875 184.72917 513.71875 182.94792Q513.71875 181.26042 512.9219 180.32292Q512.1875 179.4323 510.96875 179.4323Q509.73438 179.4323 509.0 180.32292Q508.21875 181.26042 508.21875 182.9948ZM515.5469 179.94792L515.5469 178.10417L517.25 178.10417L517.25 179.5573Q517.25 180.65105 516.9219 181.22917Q516.4844 181.97917 515.34375 182.6198Q515.34375 182.72917 515.34375 182.8698Q515.34375 186.13542 513.2344 187.3073Q512.2031 187.88542 510.96875 187.88542Q508.96875 187.88542 507.79688 186.6198Q506.59375 185.32292 506.59375 182.9948Q506.59375 180.40105 508.04688 179.15105Q509.25 178.1198 510.96875 178.1198Q512.90625 178.1198 514.125 179.38542Q515.0469 180.33855 515.2656 181.85417Q515.875 181.47917 516.125 181.08855Q516.3906 180.6823 516.375 179.94792L515.5469 179.94792ZM519.1875 187.66667L519.1875 178.33855L520.6094 178.33855L520.6094 179.66667Q521.6406 178.1198 523.5781 178.1198Q524.4219 178.1198 525.125 178.4323Q525.84375 178.72917 526.1875 179.22917Q526.5469 179.71355 526.6875 180.38542Q526.7656 180.82292 526.7656 181.9323L526.7656 187.66667L525.1875 187.66667L525.1875 181.9948Q525.1875 181.02605 525.0 180.54167Q524.8281 180.0573 524.34375 179.77605Q523.875 179.4948 523.25 179.4948Q522.2344 179.4948 521.5 180.13542Q520.7656 180.77605 520.7656 182.57292L520.7656 187.66667L519.1875 187.66667ZM536.78125 187.66667L533.2344 178.33855L534.90625 178.33855L536.90625 183.91667Q537.2344 184.82292 537.5 185.8073Q537.71875 185.0573 538.09375 184.02605L540.15625 178.33855L541.7969 178.33855L538.25 187.66667L536.78125 187.66667ZM543.2031 176.60417L543.2031 174.77605L544.78125 174.77605L544.78125 176.60417L543.2031 176.60417ZM543.2031 187.66667L543.2031 178.33855L544.78125 178.33855L544.78125 187.66667L543.2031 187.66667ZM543.09375 190.52605L543.09375 188.72917L544.8906 188.72917L544.8906 190.52605L543.09375 190.52605ZM552.2031 187.66667L552.2031 174.77605L553.78125 174.77605L553.78125 182.13542L557.5156 178.33855L559.5625 178.33855L556.0 181.79167L559.9375 187.66667L557.9844 187.66667L554.8906 182.90105L553.78125 183.96355L553.78125 187.66667L552.2031 187.66667ZM561.2031 176.60417L561.2031 174.77605L562.78125 174.77605L562.78125 176.60417L561.2031 176.60417ZM561.2031 187.66667L561.2031 178.33855L562.78125 178.33855L562.78125 187.66667L561.2031 187.66667ZM571.5781 184.66667L573.21875 184.8698Q572.8281 186.29167 571.78125 187.08855Q570.7344 187.88542 569.1094 187.88542Q567.0625 187.88542 565.8594 186.6198Q564.65625 185.35417 564.65625 183.07292Q564.65625 180.72917 565.8594 179.4323Q567.0781 178.1198 569.0156 178.1198Q570.8906 178.1198 572.0781 179.40105Q573.2656 180.66667 573.2656 182.97917Q573.2656 183.1198 573.25 183.40105L566.2969 183.40105Q566.375 184.94792 567.15625 185.76042Q567.9531 186.57292 569.1094 186.57292Q569.9844 186.57292 570.59375 186.1198Q571.21875 185.66667 571.5781 184.66667ZM566.375 182.10417L571.59375 182.10417Q571.4844 180.9323 571.0 180.33855Q570.2344 179.41667 569.03125 179.41667Q567.9531 179.41667 567.2031 180.15105Q566.46875 180.88542 566.375 182.10417ZM568.9844 175.6823L567.9844 177.16667L566.1719 177.16667L568.0781 174.71355L569.7656 174.71355L571.7344 177.16667L569.9375 177.16667L568.9844 175.6823ZM568.46875 173.38542Q568.96875 173.33855 569.1094 173.29167Q569.5781 173.1823 569.59375 172.9323Q569.59375 172.72917 569.34375 172.58855Q568.96875 172.38542 568.1719 172.38542Q567.90625 172.38542 567.34375 172.4323L567.25 171.60417Q567.59375 171.52605 568.5156 171.54167Q569.59375 171.54167 570.28125 171.88542Q571.03125 172.26042 571.0625 172.85417Q571.09375 173.72917 569.4531 173.9323L569.4531 174.3698L568.46875 174.3698L568.46875 173.38542ZM575.1875 187.66667L575.1875 178.33855L576.6094 178.33855L576.6094 179.63542Q577.0469 178.96355 577.7656 178.54167Q578.5 178.1198 579.4375 178.1198Q580.46875 178.1198 581.125 178.5573Q581.7969 178.97917 582.0625 179.76042Q583.1719 178.1198 584.9531 178.1198Q586.34375 178.1198 587.0781 178.90105Q587.8281 179.66667 587.8281 181.26042L587.8281 187.66667L586.2656 187.66667L586.2656 181.79167Q586.2656 180.83855 586.1094 180.41667Q585.9531 179.9948 585.5469 179.7448Q585.1406 179.4948 584.59375 179.4948Q583.6094 179.4948 582.9531 180.15105Q582.3125 180.8073 582.3125 182.2448L582.3125 187.66667L580.7344 187.66667L580.7344 181.60417Q580.7344 180.54167 580.34375 180.02605Q579.9531 179.4948 579.0781 179.4948Q578.40625 179.4948 577.84375 179.85417Q577.28125 180.19792 577.0156 180.8698Q576.7656 181.54167 576.7656 182.82292L576.7656 187.66667L575.1875 187.66667ZM597.6406 186.2448L597.875 187.65105Q597.2031 187.79167 596.6719 187.79167Q595.8125 187.79167 595.3281 187.52605Q594.8594 187.2448 594.6719 186.8073Q594.4844 186.35417 594.4844 184.9323L594.4844 179.5573L593.3125 179.5573L593.3125 178.33855L594.4844 178.33855L594.4844 176.02605L596.0469 175.07292L596.0469 178.33855L597.6406 178.33855L597.6406 179.5573L596.0469 179.5573L596.0469 185.02605Q596.0469 185.69792 596.125 185.90105Q596.21875 186.08855 596.40625 186.19792Q596.59375 186.3073 596.9531 186.3073Q597.2031 186.3073 597.6406 186.2448ZM599.1875 187.66667L599.1875 174.77605L600.7656 174.77605L600.7656 179.40105Q601.875 178.1198 603.5625 178.1198Q604.59375 178.1198 605.3594 178.52605Q606.125 178.9323 606.4531 179.66667Q606.7969 180.38542 606.7969 181.7448L606.7969 187.66667L605.2031 187.66667L605.2031 181.7448Q605.2031 180.5573 604.6875 180.02605Q604.1719 179.47917 603.2344 179.47917Q602.53125 179.47917 601.90625 179.85417Q601.2969 180.21355 601.03125 180.83855Q600.7656 181.46355 600.7656 182.5573L600.7656 187.66667L599.1875 187.66667ZM617.8125 180.16667L617.8125 178.33855L619.5 178.33855L619.5 179.77605Q619.5 181.16667 619.1875 181.71355Q618.375 183.1198 616.71875 183.29167L616.71875 187.66667L615.2969 187.66667L615.2969 186.29167Q614.21875 187.88542 612.34375 187.88542Q611.53125 187.88542 610.8125 187.57292Q610.09375 187.26042 609.7344 186.77605Q609.3906 186.29167 609.25 185.58855Q609.15625 185.1198 609.15625 184.1198L609.15625 178.33855L610.7344 178.33855L610.7344 183.51042Q610.7344 184.76042 610.8281 185.1823Q611.1406 186.51042 612.65625 186.51042Q613.3906 186.51042 614.0 186.15105Q614.625 185.77605 614.875 185.15105Q615.1406 184.52605 615.1406 183.33855L615.1406 178.33855L616.71875 178.33855L616.71875 182.6198Q617.8281 182.4323 618.3906 181.57292Q618.6406 181.21355 618.6406 180.16667L617.8125 180.16667ZM612.4375 176.1198Q612.9375 176.0573 613.0781 176.02605Q613.5469 175.8698 613.5469 175.52605Q613.5625 175.32292 613.3125 175.1823Q612.9375 174.97917 612.1406 174.97917Q611.8594 174.97917 611.3125 175.02605L611.21875 174.1198Q611.5625 174.0573 612.4844 174.0573Q613.5625 174.07292 614.25 174.41667Q615.0 174.77605 615.0156 175.44792Q615.0625 176.52605 613.4219 176.72917L613.4219 177.16667L612.4375 177.16667L612.4375 176.1198Z" fill-rule="nonzero"/><path fill="#000000" d="M24.45938 136.82083L24.318754 135.21146Q25.287504 135.10208 25.912504 134.69583Q26.52188 134.27396 26.912504 133.39896Q27.287504 132.50833 27.287504 131.41458Q27.287504 130.4302 27.006254 129.69583Q26.70938 128.94583 26.20938 128.58646Q25.693754 128.21146 25.100004 128.21146Q24.49063 128.21146 24.037504 128.57083Q23.58438 128.91458 23.287504 129.72708Q23.08438 130.2427 22.662504 132.02396Q22.225004 133.78958 21.850004 134.50833Q21.36563 135.4302 20.64688 135.88333Q19.92813 136.33646 19.05313 136.33646Q18.068754 136.33646 17.225004 135.78958Q16.381254 135.22708 15.943755 134.16458Q15.49063 133.10208 15.49063 131.78958Q15.49063 130.3677 15.95938 129.27396Q16.412504 128.1802 17.318754 127.58646Q18.20938 126.99271 19.350004 126.96146L19.475004 128.58646Q18.24063 128.72708 17.61563 129.4927Q16.99063 130.2427 16.99063 131.72708Q16.99063 133.27396 17.568754 133.9927Q18.131254 134.69583 18.92813 134.69583Q19.631254 134.69583 20.068754 134.1802Q20.52188 133.69583 20.99063 131.6177Q21.45938 129.53958 21.818754 128.75833Q22.33438 127.63333 23.131254 127.10208Q23.92813 126.57083 24.95938 126.57083Q25.99063 126.57083 26.89688 127.16458Q27.80313 127.74271 28.318754 128.85208Q28.818754 129.94583 28.818754 131.33646Q28.818754 133.08646 28.318754 134.27396Q27.80313 135.44583 26.787504 136.1177Q25.756254 136.78958 24.45938 136.82083ZM23.92813 125.03958Q21.33438 125.03958 20.08438 123.58646Q19.05313 122.38334 19.05313 120.66459Q19.05313 118.72709 20.318754 117.50834Q21.58438 116.28959 23.80313 116.28959Q25.600004 116.28959 26.631254 116.836464Q27.662504 117.367714 28.24063 118.398964Q28.818754 119.430214 28.818754 120.66459Q28.818754 122.617714 27.568754 123.83646Q26.30313 125.03958 23.92813 125.03958ZM23.92813 123.41458Q25.725004 123.41458 26.61563 122.63334Q27.506254 121.85209 27.506254 120.66459Q27.506254 119.47709 26.61563 118.69584Q25.70938 117.91459 23.881254 117.91459Q22.14688 117.91459 21.256254 118.711464Q20.36563 119.492714 20.36563 120.66459Q20.36563 121.85209 21.256254 122.63334Q22.14688 123.41458 23.92813 123.41458ZM16.61563 120.63334L18.100004 121.63334L18.100004 123.44583L15.64688 121.53959L15.64688 119.85209L18.100004 117.88334L18.100004 119.680214L16.61563 120.63334ZM12.537505 120.367714L12.537505 118.242714L15.006255 120.273964L15.006255 121.555214L12.537505 120.367714ZM25.17813 103.35209L25.381254 101.805214Q26.99063 102.055214 27.912504 103.10209Q28.818754 104.148964 28.818754 105.680214Q28.818754 107.60209 27.568754 108.773964Q26.30313 109.930214 23.975004 109.930214Q22.45938 109.930214 21.33438 109.430214Q20.193754 108.930214 19.631254 107.91459Q19.05313 106.88334 19.05313 105.680214Q19.05313 104.148964 19.83438 103.19584Q20.600004 102.22709 22.006254 101.94584L22.24063 103.492714Q21.30313 103.711464 20.83438 104.273964Q20.350004 104.82084 20.350004 105.617714Q20.350004 106.805214 21.20938 107.555214Q22.068754 108.305214 23.92813 108.305214Q25.80313 108.305214 26.662504 107.586464Q27.506254 106.867714 27.506254 105.69584Q27.506254 104.773964 26.943754 104.148964Q26.36563 103.523964 25.17813 103.35209ZM27.443754 94.35209Q28.193754 95.22709 28.506254 96.055214Q28.818754 96.867714 28.818754 97.78959Q28.818754 99.336464 28.068754 100.16459Q27.30313 100.97709 26.131254 100.97709Q25.45938 100.97709 24.89688 100.66459Q24.318754 100.35209 23.975004 99.85209Q23.631254 99.35209 23.45938 98.711464Q23.33438 98.242714 23.225004 97.305214Q22.99063 95.398964 22.67813 94.492714Q22.350004 94.47709 22.256254 94.47709Q21.30313 94.47709 20.89688 94.930214Q20.36563 95.53959 20.36563 96.72709Q20.36563 97.85209 20.756254 98.38334Q21.14688 98.91459 22.14688 99.16459L21.92813 100.711464Q20.92813 100.492714 20.318754 100.023964Q19.70938 99.53959 19.381254 98.63334Q19.05313 97.711464 19.05313 96.492714Q19.05313 95.305214 19.33438 94.555214Q19.61563 93.805214 20.05313 93.461464Q20.475004 93.10209 21.11563 92.961464Q21.52188 92.88334 22.58438 92.88334L24.693754 92.88334Q26.89688 92.88334 27.49063 92.78959Q28.068754 92.680214 28.600004 92.38334L28.600004 94.03959Q28.100004 94.28959 27.443754 94.35209ZM23.912504 94.492714Q24.27188 95.35209 24.506254 97.07084Q24.64688 98.03959 24.83438 98.44584Q25.006254 98.85209 25.350004 99.07084Q25.67813 99.28959 26.100004 99.28959Q26.725004 99.28959 27.14688 98.82084Q27.568754 98.336464 27.568754 97.41459Q27.568754 96.492714 27.17813 95.78959Q26.77188 95.07084 26.08438 94.742714Q25.537504 94.492714 24.49063 94.492714L23.912504 94.492714ZM28.600004 85.430214L15.70938 85.430214L15.70938 83.85209L23.068754 83.85209L19.27188 80.117714L19.27188 78.07084L22.725004 81.63334L28.600004 77.69584L28.600004 79.648964L23.83438 82.742714L24.89688 83.85209L28.600004 83.85209L28.600004 85.430214ZM17.537504 76.430214L15.70938 76.430214L15.70938 74.85209L17.537504 74.85209L17.537504 76.430214ZM28.600004 76.430214L19.27188 76.430214L19.27188 74.85209L28.600004 74.85209L28.600004 76.430214ZM25.600004 66.055214L25.80313 64.41459Q27.225004 64.805214 28.02188 65.85209Q28.818754 66.898964 28.818754 68.523964Q28.818754 70.57084 27.55313 71.773964Q26.287504 72.97709 24.006254 72.97709Q21.662504 72.97709 20.36563 71.773964Q19.05313 70.555214 19.05313 68.617714Q19.05313 66.742714 20.33438 65.555214Q21.600004 64.367714 23.912504 64.367714Q24.05313 64.367714 24.33438 64.38334L24.33438 71.336464Q25.881254 71.25834 26.693754 70.47709Q27.506254 69.680214 27.506254 68.523964Q27.506254 67.648964 27.05313 67.03959Q26.600004 66.41459 25.600004 66.055214ZM23.037504 71.25834L23.037504 66.03959Q21.86563 66.148964 21.27188 66.63334Q20.350004 67.398964 20.350004 68.60209Q20.350004 69.680214 21.08438 70.430214Q21.818754 71.16459 23.037504 71.25834ZM16.61563 68.648964L18.100004 69.648964L18.100004 71.461464L15.64688 69.555214L15.64688 67.867714L18.100004 65.898964L18.100004 67.69584L16.61563 68.648964ZM14.318755 69.16459Q14.27188 68.66459 14.225005 68.523964Q14.11563 68.055214 13.86563 68.03959Q13.662505 68.03959 13.52188 68.28959Q13.318755 68.66459 13.318755 69.461464Q13.318755 69.72709 13.36563 70.28959L12.537505 70.38334Q12.45938 70.03959 12.475005 69.117714Q12.475005 68.03959 12.818755 67.35209Q13.193755 66.60209 13.787505 66.57084Q14.662505 66.53959 14.86563 68.180214L15.30313 68.180214L15.30313 69.16459L14.318755 69.16459ZM28.600004 62.445835L19.27188 62.445835L19.27188 61.02396L20.568754 61.02396Q19.89688 60.58646 19.475004 59.86771Q19.05313 59.133335 19.05313 58.195835Q19.05313 57.164585 19.49063 56.508335Q19.912504 55.83646 20.693754 55.570835Q19.05313 54.46146 19.05313 52.68021Q19.05313 51.289585 19.83438 50.55521Q20.600004 49.80521 22.193754 49.80521L28.600004 49.80521L28.600004 51.36771L22.725004 51.36771Q21.77188 51.36771 21.350004 51.52396Q20.92813 51.68021 20.67813 52.08646Q20.42813 52.49271 20.42813 53.039585Q20.42813 54.02396 21.08438 54.68021Q21.74063 55.320835 23.17813 55.320835L28.600004 55.320835L28.600004 56.89896L22.537504 56.89896Q21.475004 56.89896 20.95938 57.289585Q20.42813 57.68021 20.42813 58.55521Q20.42813 59.227085 20.787504 59.789585Q21.131254 60.352085 21.80313 60.61771Q22.475004 60.86771 23.756254 60.86771L28.600004 60.86771L28.600004 62.445835ZM27.17813 39.99271L28.58438 39.758335Q28.725004 40.43021 28.725004 40.96146Q28.725004 41.820835 28.45938 42.30521Q28.17813 42.77396 27.74063 42.96146Q27.287504 43.14896 25.86563 43.14896L20.49063 43.14896L20.49063 44.320835L19.27188 44.320835L19.27188 43.14896L16.95938 43.14896L16.006254 41.58646L19.27188 41.58646L19.27188 39.99271L20.49063 39.99271L20.49063 41.58646L25.95938 41.58646Q26.631254 41.58646 26.83438 41.508335Q27.02188 41.414585 27.131254 41.227085Q27.24063 41.039585 27.24063 40.68021Q27.24063 40.43021 27.17813 39.99271ZM28.600004 38.445835L15.70938 38.445835L15.70938 36.86771L20.33438 36.86771Q19.05313 35.758335 19.05313 34.070835Q19.05313 33.039585 19.45938 32.27396Q19.86563 31.508335 20.600004 31.18021Q21.318754 30.83646 22.67813 30.83646L28.600004 30.83646L28.600004 32.43021L22.67813 32.43021Q21.49063 32.43021 20.95938 32.945835Q20.412504 33.46146 20.412504 34.39896Q20.412504 35.102085 20.787504 35.727085Q21.14688 36.33646 21.77188 36.602085Q22.39688 36.86771 23.49063 36.86771L28.600004 36.86771L28.600004 38.445835ZM21.100004 19.820835L19.27188 19.820835L19.27188 18.133335L20.70938 18.133335Q22.100004 18.133335 22.64688 18.445835Q24.05313 19.258335 24.225004 20.914585L28.600004 20.914585L28.600004 22.33646L27.225004 22.33646Q28.818754 23.414585 28.818754 25.289585Q28.818754 26.102085 28.506254 26.820835Q28.193754 27.539585 27.70938 27.89896Q27.225004 28.24271 26.52188 28.383335Q26.05313 28.477085 25.05313 28.477085L19.27188 28.477085L19.27188 26.89896L24.443754 26.89896Q25.693754 26.89896 26.11563 26.80521Q27.443754 26.49271 27.443754 24.977085Q27.443754 24.24271 27.08438 23.633335Q26.70938 23.008335 26.08438 22.758335Q25.45938 22.49271 24.27188 22.49271L19.27188 22.49271L19.27188 20.914585L23.55313 20.914585Q23.36563 19.80521 22.506254 19.24271Q22.14688 18.99271 21.100004 18.99271L21.100004 19.820835ZM17.05313 25.195835Q16.99063 24.695835 16.95938 24.55521Q16.80313 24.08646 16.45938 24.08646Q16.256254 24.070835 16.11563 24.320835Q15.912505 24.695835 15.912505 25.49271Q15.912505 25.77396 15.95938 26.320835L15.05313 26.414585Q14.99063 26.070835 14.99063 25.14896Q15.006255 24.070835 15.350005 23.383335Q15.70938 22.633335 16.381254 22.61771Q17.45938 22.570835 17.662504 24.21146L18.100004 24.21146L18.100004 25.195835L17.05313 25.195835Z" fill-rule="nonzero"/><path fill="#000000" d="M74.1 136.4323Q74.1 134.90105 74.4125 133.97917Q74.725 133.04167 75.33437 132.54167Q75.95937 132.04167 76.89687 132.04167Q77.58437 132.04167 78.1 132.32292Q78.63125 132.60417 78.975 133.13542Q79.31875 133.65105 79.50625 134.40105Q79.69375 135.15105 79.69375 136.4323Q79.69375 137.94792 79.38125 138.8698Q79.08437 139.79167 78.45937 140.3073Q77.85 140.8073 76.89687 140.8073Q75.6625 140.8073 74.94375 139.91667Q74.1 138.85417 74.1 136.4323ZM75.17812 136.4323Q75.17812 138.54167 75.67812 139.2448Q76.17812 139.94792 76.89687 139.94792Q77.63125 139.94792 78.11562 139.2448Q78.61562 138.54167 78.61562 136.4323Q78.61562 134.3073 78.11562 133.6198Q77.63125 132.91667 76.88125 132.91667Q76.1625 132.91667 75.725 133.52605Q75.17812 134.3073 75.17812 136.4323Z" fill-rule="nonzero"/><path fill="#000000" d="M74.1 108.9L75.20937 108.80625Q75.33437 109.61875 75.77187 110.025Q76.225 110.43125 76.86562 110.43125Q77.61562 110.43125 78.14687 109.85313Q78.67812 109.275 78.67812 108.3375Q78.67812 107.43125 78.1625 106.91563Q77.6625 106.38438 76.83437 106.38438Q76.33437 106.38438 75.9125 106.61875Q75.50625 106.85313 75.27187 107.2125L74.2875 107.0875L75.11562 102.68125L79.39687 102.68125L79.39687 103.68125L75.95937 103.68125L75.50625 105.99375Q76.27187 105.44688 77.11562 105.44688Q78.24062 105.44688 79.00625 106.22813Q79.7875 107.00938 79.7875 108.24375Q79.7875 109.4 79.11562 110.25938Q78.2875 111.29063 76.86562 111.29063Q75.69375 111.29063 74.94375 110.63438Q74.20937 109.97813 74.1 108.9Z" fill-rule="nonzero"/><path fill="#000000" d="M71.06875 81.63333L70.02187 81.63333L70.02187 74.91458Q69.63125 75.27396 69.00625 75.64896Q68.39687 76.00833 67.9125 76.18021L67.9125 75.16458Q68.7875 74.74271 69.44375 74.16458Q70.11562 73.57083 70.39687 73.00833L71.06875 73.00833L71.06875 81.63333ZM74.1 77.39896Q74.1 75.86771 74.4125 74.94583Q74.725 74.00833 75.33437 73.50833Q75.95937 73.00833 76.89687 73.00833Q77.58437 73.00833 78.1 73.28958Q78.63125 73.57083 78.975 74.10208Q79.31875 74.61771 79.50625 75.36771Q79.69375 76.11771 79.69375 77.39896Q79.69375 78.91458 79.38125 79.83646Q79.08437 80.75833 78.45937 81.27396Q77.85 81.77396 76.89687 81.77396Q75.6625 81.77396 74.94375 80.88333Q74.1 79.82083 74.1 77.39896ZM75.17812 77.39896Q75.17812 79.50833 75.67812 80.21146Q76.17812 80.91458 76.89687 80.91458Q77.63125 80.91458 78.11562 80.21146Q78.61562 79.50833 78.61562 77.39896Q78.61562 75.27396 78.11562 74.58646Q77.63125 73.88333 76.88125 73.88333Q76.1625 73.88333 75.725 74.49271Q75.17812 75.27396 75.17812 77.39896Z" fill-rule="nonzero"/><path fill="#000000" d="M71.06875 52.116665L70.02187 52.116665L70.02187 45.397915Q69.63125 45.75729 69.00625 46.13229Q68.39687 46.491665 67.9125 46.66354L67.9125 45.647915Q68.7875 45.22604 69.44375 44.647915Q70.11562 44.054165 70.39687 43.491665L71.06875 43.491665L71.06875 52.116665ZM74.1 49.866665L75.20937 49.772915Q75.33437 50.585415 75.77187 50.991665Q76.225 51.397915 76.86562 51.397915Q77.61562 51.397915 78.14687 50.81979Q78.67812 50.241665 78.67812 49.304165Q78.67812 48.397915 78.1625 47.88229Q77.6625 47.35104 76.83437 47.35104Q76.33437 47.35104 75.9125 47.585415Q75.50625 47.81979 75.27187 48.179165L74.2875 48.054165L75.11562 43.647915L79.39687 43.647915L79.39687 44.647915L75.95937 44.647915L75.50625 46.960415Q76.27187 46.41354 77.11562 46.41354Q78.24062 46.41354 79.00625 47.19479Q79.7875 47.97604 79.7875 49.210415Q79.7875 50.366665 79.11562 51.22604Q78.2875 52.25729 76.86562 52.25729Q75.69375 52.25729 74.94375 51.60104Q74.20937 50.94479 74.1 49.866665Z" fill-rule="nonzero"/><path fill="#000000" d="M72.64687 21.584375L72.64687 22.6L66.95937 22.6Q66.95937 22.225 67.08437 21.865625Q67.30312 21.2875 67.77187 20.725Q68.25625 20.1625 69.1625 19.428125Q70.56875 18.271875 71.05312 17.6Q71.55312 16.928125 71.55312 16.334375Q71.55312 15.709375 71.1 15.2875Q70.64687 14.85 69.92812 14.85Q69.1625 14.85 68.70937 15.303125Q68.25625 15.75625 68.24062 16.56875L67.1625 16.459375Q67.27187 15.240625 67.99062 14.615625Q68.725 13.975 69.95937 13.975Q71.19375 13.975 71.9125 14.6625Q72.63125 15.35 72.63125 16.365625Q72.63125 16.88125 72.4125 17.38125Q72.20937 17.865625 71.70937 18.428125Q71.225 18.975 70.1 19.928125Q69.14687 20.725 68.86562 21.021875Q68.6 21.303125 68.42812 21.584375L72.64687 21.584375ZM74.1 18.365625Q74.1 16.834375 74.4125 15.9125Q74.725 14.975 75.33437 14.475Q75.95937 13.975 76.89687 13.975Q77.58437 13.975 78.1 14.25625Q78.63125 14.5375 78.975 15.06875Q79.31875 15.584375 79.50625 16.334375Q79.69375 17.084375 79.69375 18.365625Q79.69375 19.88125 79.38125 20.803125Q79.08437 21.725 78.45937 22.240625Q77.85 22.740625 76.89687 22.740625Q75.6625 22.740625 74.94375 21.85Q74.1 20.7875 74.1 18.365625ZM75.17812 18.365625Q75.17812 20.475 75.67812 21.178125Q76.17812 21.88125 76.89687 21.88125Q77.63125 21.88125 78.11562 21.178125Q78.61562 20.475 78.61562 18.365625Q78.61562 16.240625 78.11562 15.553125Q77.63125 14.85 76.88125 14.85Q76.1625 14.85 75.725 15.459375Q75.17812 16.240625 75.17812 18.365625Z" fill-rule="nonzero"/><path stroke="#ff0000" stroke-width="4.0" stroke-linecap="butt" stroke-dasharray="13.0,9.0" d="M284.5 209.9L319.5 209.9" fill-rule="nonzero"/><path fill="#1a1a1a" d="M328.89062 216.4L328.89062 203.50937L333.75 203.50937Q335.03125 203.50937 335.70312 203.63437Q336.65625 203.79062 337.29688 204.24374Q337.9375 204.68124 338.32812 205.49374Q338.71875 206.29062 338.71875 207.24374Q338.71875 208.88437 337.67188 210.025Q336.625 211.16562 333.90625 211.16562L330.59375 211.16562L330.59375 216.4L328.89062 216.4ZM330.59375 209.63437L333.92188 209.63437Q335.57812 209.63437 336.26562 209.025Q336.96875 208.41562 336.96875 207.29062Q336.96875 206.47812 336.5625 205.91562Q336.15625 205.3375 335.48438 205.15Q335.04688 205.04062 333.89062 205.04062L330.59375 205.04062L330.59375 209.63437ZM340.6875 216.4L340.6875 203.50937L342.26562 203.50937L342.26562 208.13437Q343.375 206.85312 345.0625 206.85312Q346.09375 206.85312 346.85938 207.25937Q347.625 207.66562 347.95312 208.4Q348.29688 209.11874 348.29688 210.47812L348.29688 216.4L346.70312 216.4L346.70312 210.47812Q346.70312 209.29062 346.1875 208.75937Q345.67188 208.2125 344.73438 208.2125Q344.03125 208.2125 343.40625 208.5875Q342.79688 208.94687 342.53125 209.57187Q342.26562 210.19687 342.26562 211.29062L342.26562 216.4L340.6875 216.4ZM359.3125 208.9L359.3125 207.07187L361.0 207.07187L361.0 208.50937Q361.0 209.9 360.6875 210.44687Q359.875 211.85312 358.21875 212.025L358.21875 216.4L356.79688 216.4L356.79688 215.025Q355.71875 216.61874 353.84375 216.61874Q353.03125 216.61874 352.3125 216.30624Q351.59375 215.99374 351.23438 215.50937Q350.89062 215.025 350.75 214.32187Q350.65625 213.85312 350.65625 212.85312L350.65625 207.07187L352.23438 207.07187L352.23438 212.24374Q352.23438 213.49374 352.32812 213.91562Q352.64062 215.24374 354.15625 215.24374Q354.89062 215.24374 355.5 214.88437Q356.125 214.50937 356.375 213.88437Q356.64062 213.25937 356.64062 212.07187L356.64062 207.07187L358.21875 207.07187L358.21875 211.35312Q359.32812 211.16562 359.89062 210.30624Q360.14062 209.94687 360.14062 208.9L359.3125 208.9ZM363.71875 211.72812Q363.71875 213.4625 364.5 214.41562Q365.25 215.30624 366.46875 215.30624Q367.70312 215.30624 368.4375 214.41562Q369.21875 213.4625 369.21875 211.68124Q369.21875 209.99374 368.42188 209.05624Q367.6875 208.16562 366.46875 208.16562Q365.23438 208.16562 364.5 209.05624Q363.71875 209.99374 363.71875 211.72812ZM371.04688 208.68124L371.04688 206.8375L372.75 206.8375L372.75 208.29062Q372.75 209.38437 372.42188 209.9625Q371.98438 210.7125 370.84375 211.35312Q370.84375 211.4625 370.84375 211.60312Q370.84375 214.86874 368.73438 216.04062Q367.70312 216.61874 366.46875 216.61874Q364.46875 216.61874 363.29688 215.35312Q362.09375 214.05624 362.09375 211.72812Q362.09375 209.13437 363.54688 207.88437Q364.75 206.85312 366.46875 206.85312Q368.40625 206.85312 369.625 208.11874Q370.54688 209.07187 370.76562 210.5875Q371.375 210.2125 371.625 209.82187Q371.89062 209.41562 371.875 208.68124L371.04688 208.68124ZM374.6875 216.4L374.6875 207.07187L376.10938 207.07187L376.10938 208.4Q377.14062 206.85312 379.07812 206.85312Q379.92188 206.85312 380.625 207.16562Q381.34375 207.4625 381.6875 207.9625Q382.04688 208.44687 382.1875 209.11874Q382.26562 209.55624 382.26562 210.66562L382.26562 216.4L380.6875 216.4L380.6875 210.72812Q380.6875 209.75937 380.5 209.275Q380.32812 208.79062 379.84375 208.50937Q379.375 208.22812 378.75 208.22812Q377.73438 208.22812 377.0 208.86874Q376.26562 209.50937 376.26562 211.30624L376.26562 216.4L374.6875 216.4ZM384.39062 217.18124L385.9375 217.4Q386.03125 218.11874 386.46875 218.44687Q387.0625 218.88437 388.07812 218.88437Q389.17188 218.88437 389.76562 218.43124Q390.375 217.99374 390.57812 217.2125Q390.70312 216.72812 390.70312 215.18124Q389.65625 216.4 388.10938 216.4Q386.1875 216.4 385.125 215.00937Q384.07812 213.61874 384.07812 211.68124Q384.07812 210.3375 384.5625 209.2125Q385.04688 208.0875 385.96875 207.47812Q386.89062 206.85312 388.125 206.85312Q389.78125 206.85312 390.84375 208.19687L390.84375 207.07187L392.3125 207.07187L392.3125 215.13437Q392.3125 217.32187 391.85938 218.22812Q391.42188 219.13437 390.45312 219.65Q389.5 220.18124 388.09375 220.18124Q386.42188 220.18124 385.39062 219.43124Q384.35938 218.68124 384.39062 217.18124ZM385.70312 211.57187Q385.70312 213.4 386.4375 214.24374Q387.17188 215.0875 388.26562 215.0875Q389.35938 215.0875 390.09375 214.25937Q390.82812 213.41562 390.82812 211.61874Q390.82812 209.9 390.0625 209.04062Q389.3125 208.16562 388.23438 208.16562Q387.1875 208.16562 386.4375 209.025Q385.70312 209.88437 385.70312 211.57187ZM399.6875 219.97812L399.6875 207.07187L401.125 207.07187L401.125 208.275Q401.64062 207.57187 402.28125 207.2125Q402.92188 206.85312 403.82812 206.85312Q405.03125 206.85312 405.9375 207.47812Q406.85938 208.0875 407.32812 209.2125Q407.79688 210.32187 407.79688 211.66562Q407.79688 213.0875 407.28125 214.24374Q406.76562 215.38437 405.78125 216.00937Q404.79688 216.61874 403.71875 216.61874Q402.9375 216.61874 402.29688 216.29062Q401.67188 215.94687 401.26562 215.43124L401.26562 219.97812L399.6875 219.97812ZM401.125 211.79062Q401.125 213.5875 401.84375 214.44687Q402.57812 215.30624 403.60938 215.30624Q404.67188 215.30624 405.42188 214.41562Q406.17188 213.525 406.17188 211.65Q406.17188 209.86874 405.4375 208.97812Q404.70312 208.0875 403.6875 208.0875Q402.67188 208.0875 401.89062 209.04062Q401.125 209.97812 401.125 211.79062ZM409.6875 216.4L409.6875 203.50937L411.26562 203.50937L411.26562 208.13437Q412.375 206.85312 414.0625 206.85312Q415.09375 206.85312 415.85938 207.25937Q416.625 207.66562 416.95312 208.4Q417.29688 209.11874 417.29688 210.47812L417.29688 216.4L415.70312 216.4L415.70312 210.47812Q415.70312 209.29062 415.1875 208.75937Q414.67188 208.2125 413.73438 208.2125Q413.03125 208.2125 412.40625 208.5875Q411.79688 208.94687 411.53125 209.57187Q411.26562 210.19687 411.26562 211.29062L411.26562 216.4L409.6875 216.4ZM425.78125 215.24374Q424.90625 215.99374 424.07812 216.30624Q423.26562 216.61874 422.34375 216.61874Q420.79688 216.61874 419.96875 215.86874Q419.15625 215.10312 419.15625 213.93124Q419.15625 213.25937 419.46875 212.69687Q419.78125 212.11874 420.28125 211.775Q420.78125 211.43124 421.42188 211.25937Q421.89062 211.13437 422.82812 211.025Q424.73438 210.79062 425.64062 210.47812Q425.65625 210.15 425.65625 210.05624Q425.65625 209.10312 425.20312 208.69687Q424.59375 208.16562 423.40625 208.16562Q422.28125 208.16562 421.75 208.55624Q421.21875 208.94687 420.96875 209.94687L419.42188 209.72812Q419.64062 208.72812 420.10938 208.11874Q420.59375 207.50937 421.5 207.18124Q422.42188 206.85312 423.64062 206.85312Q424.82812 206.85312 425.57812 207.13437Q426.32812 207.41562 426.67188 207.85312Q427.03125 208.275 427.17188 208.91562Q427.25 209.32187 427.25 210.38437L427.25 212.49374Q427.25 214.69687 427.34375 215.29062Q427.45312 215.86874 427.75 216.4L426.09375 216.4Q425.84375 215.9 425.78125 215.24374ZM425.64062 211.7125Q424.78125 212.07187 423.0625 212.30624Q422.09375 212.44687 421.6875 212.63437Q421.28125 212.80624 421.0625 213.15Q420.84375 213.47812 420.84375 213.9Q420.84375 214.525 421.3125 214.94687Q421.79688 215.36874 422.71875 215.36874Q423.64062 215.36874 424.34375 214.97812Q425.0625 214.57187 425.39062 213.88437Q425.64062 213.3375 425.64062 212.29062L425.64062 211.7125ZM422.57812 205.9L423.75 203.44687L425.8125 203.44687L423.89062 205.9L422.57812 205.9ZM429.6875 219.97812L429.6875 207.07187L431.125 207.07187L431.125 208.275Q431.64062 207.57187 432.28125 207.2125Q432.92188 206.85312 433.82812 206.85312Q435.03125 206.85312 435.9375 207.47812Q436.85938 208.0875 437.32812 209.2125Q437.79688 210.32187 437.79688 211.66562Q437.79688 213.0875 437.28125 214.24374Q436.76562 215.38437 435.78125 216.00937Q434.79688 216.61874 433.71875 216.61874Q432.9375 216.61874 432.29688 216.29062Q431.67188 215.94687 431.26562 215.43124L431.26562 219.97812L429.6875 219.97812ZM431.125 211.79062Q431.125 213.5875 431.84375 214.44687Q432.57812 215.30624 433.60938 215.30624Q434.67188 215.30624 435.42188 214.41562Q436.17188 213.525 436.17188 211.65Q436.17188 209.86874 435.4375 208.97812Q434.70312 208.0875 433.6875 208.0875Q432.67188 208.0875 431.89062 209.04062Q431.125 209.97812 431.125 211.79062ZM448.14062 214.97812L448.375 216.38437Q447.70312 216.525 447.17188 216.525Q446.3125 216.525 445.82812 216.25937Q445.35938 215.97812 445.17188 215.54062Q444.98438 215.0875 444.98438 213.66562L444.98438 208.29062L443.8125 208.29062L443.8125 207.07187L444.98438 207.07187L444.98438 204.75937L446.54688 203.80624L446.54688 207.07187L448.14062 207.07187L448.14062 208.29062L446.54688 208.29062L446.54688 213.75937Q446.54688 214.43124 446.625 214.63437Q446.71875 214.82187 446.90625 214.93124Q447.09375 215.04062 447.45312 215.04062Q447.70312 215.04062 448.14062 214.97812ZM449.67188 216.4L449.67188 207.07187L451.09375 207.07187L451.09375 208.47812Q451.64062 207.49374 452.09375 207.18124Q452.5625 206.85312 453.10938 206.85312Q453.92188 206.85312 454.73438 207.36874L454.20312 208.8375Q453.60938 208.49374 453.03125 208.49374Q452.51562 208.49374 452.09375 208.80624Q451.6875 209.11874 451.51562 209.66562Q451.25 210.50937 451.25 211.50937L451.25 216.4L449.67188 216.4ZM461.79688 216.4L461.79688 215.025Q460.71875 216.61874 458.84375 216.61874Q458.01562 216.61874 457.29688 216.30624Q456.57812 215.97812 456.23438 215.50937Q455.89062 215.025 455.75 214.32187Q455.65625 213.85312 455.65625 212.85312L455.65625 207.07187L457.23438 207.07187L457.23438 212.24374Q457.23438 213.47812 457.32812 213.91562Q457.48438 214.54062 457.96875 214.9Q458.45312 215.24374 459.15625 215.24374Q459.875 215.24374 460.5 214.88437Q461.125 214.525 461.375 213.9Q461.64062 213.25937 461.64062 212.07187L461.64062 207.07187L463.21875 207.07187L463.21875 216.4L461.79688 216.4ZM465.60938 219.99374L465.4375 218.50937Q465.95312 218.65 466.34375 218.65Q466.875 218.65 467.1875 218.47812Q467.5 218.30624 467.70312 217.97812Q467.85938 217.74374 468.1875 216.80624Q468.23438 216.66562 468.32812 216.41562L464.79688 207.07187L466.5 207.07187L468.4375 212.47812Q468.8125 213.49374 469.10938 214.63437Q469.39062 213.54062 469.76562 212.50937L471.76562 207.07187L473.34375 207.07187L469.79688 216.55624Q469.21875 218.10312 468.90625 218.68124Q468.48438 219.4625 467.9375 219.82187Q467.39062 220.18124 466.64062 220.18124Q466.17188 220.18124 465.60938 219.99374ZM481.07812 213.4L482.71875 213.60312Q482.32812 215.025 481.28125 215.82187Q480.23438 216.61874 478.60938 216.61874Q476.5625 216.61874 475.35938 215.35312Q474.15625 214.0875 474.15625 211.80624Q474.15625 209.4625 475.35938 208.16562Q476.57812 206.85312 478.51562 206.85312Q480.39062 206.85312 481.57812 208.13437Q482.76562 209.4 482.76562 211.7125Q482.76562 211.85312 482.75 212.13437L475.79688 212.13437Q475.875 213.68124 476.65625 214.49374Q477.45312 215.30624 478.60938 215.30624Q479.48438 215.30624 480.09375 214.85312Q480.71875 214.4 481.07812 213.4ZM475.875 210.8375L481.09375 210.8375Q480.98438 209.66562 480.5 209.07187Q479.73438 208.15 478.53125 208.15Q477.45312 208.15 476.70312 208.88437Q475.96875 209.61874 475.875 210.8375ZM478.48438 204.41562L477.48438 205.9L475.67188 205.9L477.57812 203.44687L479.26562 203.44687L481.23438 205.9L479.4375 205.9L478.48438 204.41562ZM479.26562 202.80624L478.0 202.80624L475.96875 200.3375L478.07812 200.3375L479.26562 202.80624ZM484.6875 216.4L484.6875 207.07187L486.10938 207.07187L486.10938 208.4Q487.14062 206.85312 489.07812 206.85312Q489.92188 206.85312 490.625 207.16562Q491.34375 207.4625 491.6875 207.9625Q492.04688 208.44687 492.1875 209.11874Q492.26562 209.55624 492.26562 210.66562L492.26562 216.4L490.6875 216.4L490.6875 210.72812Q490.6875 209.75937 490.5 209.275Q490.32812 208.79062 489.84375 208.50937Q489.375 208.22812 488.75 208.22812Q487.73438 208.22812 487.0 208.86874Q486.26562 209.50937 486.26562 211.30624L486.26562 216.4L484.6875 216.4ZM503.14062 214.97812L503.375 216.38437Q502.70312 216.525 502.17188 216.525Q501.3125 216.525 500.82812 216.25937Q500.35938 215.97812 500.17188 215.54062Q499.98438 215.0875 499.98438 213.66562L499.98438 208.29062L498.8125 208.29062L498.8125 207.07187L499.98438 207.07187L499.98438 204.75937L501.54688 203.80624L501.54688 207.07187L503.14062 207.07187L503.14062 208.29062L501.54688 208.29062L501.54688 213.75937Q501.54688 214.43124 501.625 214.63437Q501.71875 214.82187 501.90625 214.93124Q502.09375 215.04062 502.45312 215.04062Q502.70312 215.04062 503.14062 214.97812ZM504.6875 216.4L504.6875 203.50937L506.26562 203.50937L506.26562 208.13437Q507.375 206.85312 509.0625 206.85312Q510.09375 206.85312 510.85938 207.25937Q511.625 207.66562 511.95312 208.4Q512.2969 209.11874 512.2969 210.47812L512.2969 216.4L510.70312 216.4L510.70312 210.47812Q510.70312 209.29062 510.1875 208.75937Q509.67188 208.2125 508.73438 208.2125Q508.03125 208.2125 507.40625 208.5875Q506.79688 208.94687 506.53125 209.57187Q506.26562 210.19687 506.26562 211.29062L506.26562 216.4L504.6875 216.4ZM514.09375 211.72812Q514.09375 209.13437 515.5469 207.88437Q516.75 206.85312 518.46875 206.85312Q520.40625 206.85312 521.625 208.11874Q522.84375 209.38437 522.84375 211.60312Q522.84375 213.4 522.2969 214.43124Q521.7656 215.4625 520.7344 216.04062Q519.7031 216.61874 518.46875 216.61874Q516.5156 216.61874 515.2969 215.36874Q514.09375 214.10312 514.09375 211.72812ZM515.71875 211.72812Q515.71875 213.525 516.5 214.41562Q517.28125 215.30624 518.46875 215.30624Q519.65625 215.30624 520.4375 214.41562Q521.21875 213.50937 521.21875 211.68124Q521.21875 209.94687 520.4219 209.05624Q519.6406 208.16562 518.46875 208.16562Q517.28125 208.16562 516.5 209.05624Q515.71875 209.94687 515.71875 211.72812ZM518.5 204.41562L517.5 205.9L515.6875 205.9L517.59375 203.44687L519.28125 203.44687L521.25 205.9L519.4531 205.9L518.5 204.41562ZM518.7656 200.3375L520.8906 200.3375L518.8594 202.80624L517.5781 202.80624L518.7656 200.3375ZM524.6875 216.4L524.6875 207.07187L526.1094 207.07187L526.1094 208.4Q527.1406 206.85312 529.0781 206.85312Q529.9219 206.85312 530.625 207.16562Q531.34375 207.4625 531.6875 207.9625Q532.0469 208.44687 532.1875 209.11874Q532.2656 209.55624 532.2656 210.66562L532.2656 216.4L530.6875 216.4L530.6875 210.72812Q530.6875 209.75937 530.5 209.275Q530.3281 208.79062 529.84375 208.50937Q529.375 208.22812 528.75 208.22812Q527.7344 208.22812 527.0 208.86874Q526.2656 209.50937 526.2656 211.30624L526.2656 216.4L524.6875 216.4ZM534.3906 217.18124L535.9375 217.4Q536.03125 218.11874 536.46875 218.44687Q537.0625 218.88437 538.0781 218.88437Q539.1719 218.88437 539.7656 218.43124Q540.375 217.99374 540.5781 217.2125Q540.7031 216.72812 540.7031 215.18124Q539.65625 216.4 538.1094 216.4Q536.1875 216.4 535.125 215.00937Q534.0781 213.61874 534.0781 211.68124Q534.0781 210.3375 534.5625 209.2125Q535.0469 208.0875 535.96875 207.47812Q536.8906 206.85312 538.125 206.85312Q539.78125 206.85312 540.84375 208.19687L540.84375 207.07187L542.3125 207.07187L542.3125 215.13437Q542.3125 217.32187 541.8594 218.22812Q541.4219 219.13437 540.4531 219.65Q539.5 220.18124 538.09375 220.18124Q536.4219 220.18124 535.3906 219.43124Q534.3594 218.68124 534.3906 217.18124ZM535.7031 211.57187Q535.7031 213.4 536.4375 214.24374Q537.1719 215.0875 538.2656 215.0875Q539.3594 215.0875 540.09375 214.25937Q540.8281 213.41562 540.8281 211.61874Q540.8281 209.9 540.0625 209.04062Q539.3125 208.16562 538.2344 208.16562Q537.1875 208.16562 536.4375 209.025Q535.7031 209.88437 535.7031 211.57187Z" fill-rule="nonzero"/><path stroke="#0000ff" stroke-width="4.0" stroke-linecap="butt" d="M559.5 209.9L571.5 209.9" fill-rule="nonzero"/><path fill="#1a1a1a" d="M580.8906 216.4L580.8906 203.50937L585.75 203.50937Q587.03125 203.50937 587.7031 203.63437Q588.65625 203.79062 589.2969 204.24374Q589.9375 204.68124 590.3281 205.49374Q590.71875 206.29062 590.71875 207.24374Q590.71875 208.88437 589.6719 210.025Q588.625 211.16562 585.90625 211.16562L582.59375 211.16562L582.59375 216.4L580.8906 216.4ZM582.59375 209.63437L585.9219 209.63437Q587.5781 209.63437 588.2656 209.025Q588.96875 208.41562 588.96875 207.29062Q588.96875 206.47812 588.5625 205.91562Q588.15625 205.3375 587.4844 205.15Q587.0469 205.04062 585.8906 205.04062L582.59375 205.04062L582.59375 209.63437ZM592.6875 216.4L592.6875 203.50937L594.2656 203.50937L594.2656 208.13437Q595.375 206.85312 597.0625 206.85312Q598.09375 206.85312 598.8594 207.25937Q599.625 207.66562 599.9531 208.4Q600.2969 209.11874 600.2969 210.47812L600.2969 216.4L598.7031 216.4L598.7031 210.47812Q598.7031 209.29062 598.1875 208.75937Q597.6719 208.2125 596.7344 208.2125Q596.03125 208.2125 595.40625 208.5875Q594.7969 208.94687 594.53125 209.57187Q594.2656 210.19687 594.2656 211.29062L594.2656 216.4L592.6875 216.4ZM611.3125 208.9L611.3125 207.07187L613.0 207.07187L613.0 208.50937Q613.0 209.9 612.6875 210.44687Q611.875 211.85312 610.21875 212.025L610.21875 216.4L608.7969 216.4L608.7969 215.025Q607.71875 216.61874 605.84375 216.61874Q605.03125 216.61874 604.3125 216.30624Q603.59375 215.99374 603.2344 215.50937Q602.8906 215.025 602.75 214.32187Q602.65625 213.85312 602.65625 212.85312L602.65625 207.07187L604.2344 207.07187L604.2344 212.24374Q604.2344 213.49374 604.3281 213.91562Q604.6406 215.24374 606.15625 215.24374Q606.8906 215.24374 607.5 214.88437Q608.125 214.50937 608.375 213.88437Q608.6406 213.25937 608.6406 212.07187L608.6406 207.07187L610.21875 207.07187L610.21875 211.35312Q611.3281 211.16562 611.8906 210.30624Q612.1406 209.94687 612.1406 208.9L611.3125 208.9ZM615.71875 211.72812Q615.71875 213.4625 616.5 214.41562Q617.25 215.30624 618.46875 215.30624Q619.7031 215.30624 620.4375 214.41562Q621.21875 213.4625 621.21875 211.68124Q621.21875 209.99374 620.4219 209.05624Q619.6875 208.16562 618.46875 208.16562Q617.2344 208.16562 616.5 209.05624Q615.71875 209.99374 615.71875 211.72812ZM623.0469 208.68124L623.0469 206.8375L624.75 206.8375L624.75 208.29062Q624.75 209.38437 624.4219 209.9625Q623.9844 210.7125 622.84375 211.35312Q622.84375 211.4625 622.84375 211.60312Q622.84375 214.86874 620.7344 216.04062Q619.7031 216.61874 618.46875 216.61874Q616.46875 216.61874 615.2969 215.35312Q614.09375 214.05624 614.09375 211.72812Q614.09375 209.13437 615.5469 207.88437Q616.75 206.85312 618.46875 206.85312Q620.40625 206.85312 621.625 208.11874Q622.5469 209.07187 622.7656 210.5875Q623.375 210.2125 623.625 209.82187Q623.8906 209.41562 623.875 208.68124L623.0469 208.68124ZM626.6875 216.4L626.6875 207.07187L628.1094 207.07187L628.1094 208.4Q629.1406 206.85312 631.0781 206.85312Q631.9219 206.85312 632.625 207.16562Q633.34375 207.4625 633.6875 207.9625Q634.0469 208.44687 634.1875 209.11874Q634.2656 209.55624 634.2656 210.66562L634.2656 216.4L632.6875 216.4L632.6875 210.72812Q632.6875 209.75937 632.5 209.275Q632.3281 208.79062 631.84375 208.50937Q631.375 208.22812 630.75 208.22812Q629.7344 208.22812 629.0 208.86874Q628.2656 209.50937 628.2656 211.30624L628.2656 216.4L626.6875 216.4ZM636.3906 217.18124L637.9375 217.4Q638.03125 218.11874 638.46875 218.44687Q639.0625 218.88437 640.0781 218.88437Q641.1719 218.88437 641.7656 218.43124Q642.375 217.99374 642.5781 217.2125Q642.7031 216.72812 642.7031 215.18124Q641.65625 216.4 640.1094 216.4Q638.1875 216.4 637.125 215.00937Q636.0781 213.61874 636.0781 211.68124Q636.0781 210.3375 636.5625 209.2125Q637.0469 208.0875 637.96875 207.47812Q638.8906 206.85312 640.125 206.85312Q641.78125 206.85312 642.84375 208.19687L642.84375 207.07187L644.3125 207.07187L644.3125 215.13437Q644.3125 217.32187 643.8594 218.22812Q643.4219 219.13437 642.4531 219.65Q641.5 220.18124 640.09375 220.18124Q638.4219 220.18124 637.3906 219.43124Q636.3594 218.68124 636.3906 217.18124ZM637.7031 211.57187Q637.7031 213.4 638.4375 214.24374Q639.1719 215.0875 640.2656 215.0875Q641.3594 215.0875 642.09375 214.25937Q642.8281 213.41562 642.8281 211.61874Q642.8281 209.9 642.0625 209.04062Q641.3125 208.16562 640.2344 208.16562Q639.1875 208.16562 638.4375 209.025Q637.7031 209.88437 637.7031 211.57187ZM651.6875 219.97812L651.6875 207.07187L653.125 207.07187L653.125 208.275Q653.6406 207.57187 654.28125 207.2125Q654.9219 206.85312 655.8281 206.85312Q657.03125 206.85312 657.9375 207.47812Q658.8594 208.0875 659.3281 209.2125Q659.7969 210.32187 659.7969 211.66562Q659.7969 213.0875 659.28125 214.24374Q658.7656 215.38437 657.78125 216.00937Q656.7969 216.61874 655.71875 216.61874Q654.9375 216.61874 654.2969 216.29062Q653.6719 215.94687 653.2656 215.43124L653.2656 219.97812L651.6875 219.97812ZM653.125 211.79062Q653.125 213.5875 653.84375 214.44687Q654.5781 215.30624 655.6094 215.30624Q656.6719 215.30624 657.4219 214.41562Q658.1719 213.525 658.1719 211.65Q658.1719 209.86874 657.4375 208.97812Q656.7031 208.0875 655.6875 208.0875Q654.6719 208.0875 653.8906 209.04062Q653.125 209.97812 653.125 211.79062ZM661.6875 216.4L661.6875 203.50937L663.2656 203.50937L663.2656 208.13437Q664.375 206.85312 666.0625 206.85312Q667.09375 206.85312 667.8594 207.25937Q668.625 207.66562 668.9531 208.4Q669.2969 209.11874 669.2969 210.47812L669.2969 216.4L667.7031 216.4L667.7031 210.47812Q667.7031 209.29062 667.1875 208.75937Q666.6719 208.2125 665.7344 208.2125Q665.03125 208.2125 664.40625 208.5875Q663.7969 208.94687 663.53125 209.57187Q663.2656 210.19687 663.2656 211.29062L663.2656 216.4L661.6875 216.4ZM677.78125 215.24374Q676.90625 215.99374 676.0781 216.30624Q675.2656 216.61874 674.34375 216.61874Q672.7969 216.61874 671.96875 215.86874Q671.15625 215.10312 671.15625 213.93124Q671.15625 213.25937 671.46875 212.69687Q671.78125 212.11874 672.28125 211.775Q672.78125 211.43124 673.4219 211.25937Q673.8906 211.13437 674.8281 211.025Q676.7344 210.79062 677.6406 210.47812Q677.65625 210.15 677.65625 210.05624Q677.65625 209.10312 677.2031 208.69687Q676.59375 208.16562 675.40625 208.16562Q674.28125 208.16562 673.75 208.55624Q673.21875 208.94687 672.96875 209.94687L671.4219 209.72812Q671.6406 208.72812 672.1094 208.11874Q672.59375 207.50937 673.5 207.18124Q674.4219 206.85312 675.6406 206.85312Q676.8281 206.85312 677.5781 207.13437Q678.3281 207.41562 678.6719 207.85312Q679.03125 208.275 679.1719 208.91562Q679.25 209.32187 679.25 210.38437L679.25 212.49374Q679.25 214.69687 679.34375 215.29062Q679.4531 215.86874 679.75 216.4L678.09375 216.4Q677.84375 215.9 677.78125 215.24374ZM677.6406 211.7125Q676.78125 212.07187 675.0625 212.30624Q674.09375 212.44687 673.6875 212.63437Q673.28125 212.80624 673.0625 213.15Q672.84375 213.47812 672.84375 213.9Q672.84375 214.525 673.3125 214.94687Q673.7969 215.36874 674.71875 215.36874Q675.6406 215.36874 676.34375 214.97812Q677.0625 214.57187 677.3906 213.88437Q677.6406 213.3375 677.6406 212.29062L677.6406 211.7125ZM674.5781 205.9L675.75 203.44687L677.8125 203.44687L675.8906 205.9L674.5781 205.9ZM681.6875 219.97812L681.6875 207.07187L683.125 207.07187L683.125 208.275Q683.6406 207.57187 684.28125 207.2125Q684.9219 206.85312 685.8281 206.85312Q687.03125 206.85312 687.9375 207.47812Q688.8594 208.0875 689.3281 209.2125Q689.7969 210.32187 689.7969 211.66562Q689.7969 213.0875 689.28125 214.24374Q688.7656 215.38437 687.78125 216.00937Q686.7969 216.61874 685.71875 216.61874Q684.9375 216.61874 684.2969 216.29062Q683.6719 215.94687 683.2656 215.43124L683.2656 219.97812L681.6875 219.97812ZM683.125 211.79062Q683.125 213.5875 683.84375 214.44687Q684.5781 215.30624 685.6094 215.30624Q686.6719 215.30624 687.4219 214.41562Q688.1719 213.525 688.1719 211.65Q688.1719 209.86874 687.4375 208.97812Q686.7031 208.0875 685.6875 208.0875Q684.6719 208.0875 683.8906 209.04062Q683.125 209.97812 683.125 211.79062ZM702.6406 205.68124L699.59375 205.68124L699.59375 204.525L702.6406 204.525L702.6406 203.50937L704.2031 203.50937L704.2031 204.525L705.4844 204.525L705.4844 205.68124L704.2031 205.68124L704.2031 216.4L702.75 216.4L702.75 215.22812Q701.8594 216.61874 700.125 216.61874Q699.0156 216.61874 698.0781 216.00937Q697.1406 215.38437 696.625 214.29062Q696.1094 213.18124 696.1094 211.74374Q696.1094 210.3375 696.5781 209.2125Q697.0469 208.07187 697.96875 207.4625Q698.90625 206.85312 700.0625 206.85312Q700.90625 206.85312 701.5625 207.2125Q702.21875 207.57187 702.6406 208.13437L702.6406 205.68124ZM697.7344 211.74374Q697.7344 213.54062 698.4844 214.43124Q699.25 215.30624 700.28125 215.30624Q701.3125 215.30624 702.03125 214.4625Q702.7656 213.61874 702.7656 211.86874Q702.7656 209.9625 702.03125 209.07187Q701.2969 208.16562 700.21875 208.16562Q699.15625 208.16562 698.4375 209.025Q697.7344 209.88437 697.7344 211.74374ZM713.0781 213.4L714.71875 213.60312Q714.3281 215.025 713.28125 215.82187Q712.2344 216.61874 710.6094 216.61874Q708.5625 216.61874 707.3594 215.35312Q706.15625 214.0875 706.15625 211.80624Q706.15625 209.4625 707.3594 208.16562Q708.5781 206.85312 710.5156 206.85312Q712.3906 206.85312 713.5781 208.13437Q714.7656 209.4 714.7656 211.7125Q714.7656 211.85312 714.75 212.13437L707.7969 212.13437Q707.875 213.68124 708.65625 214.49374Q709.4531 215.30624 710.6094 215.30624Q711.4844 215.30624 712.09375 214.85312Q712.71875 214.4 713.0781 213.4ZM707.875 210.8375L713.09375 210.8375Q712.9844 209.66562 712.5 209.07187Q711.7344 208.15 710.53125 208.15Q709.4531 208.15 708.7031 208.88437Q707.96875 209.61874 707.875 210.8375ZM710.4844 204.41562L709.4844 205.9L707.6719 205.9L709.5781 203.44687L711.2656 203.44687L713.2344 205.9L711.4375 205.9L710.4844 204.41562ZM711.2656 202.80624L710.0 202.80624L707.96875 200.3375L710.0781 200.3375L711.2656 202.80624ZM720.625 216.4L724.0469 211.54062L720.8906 207.07187L722.8594 207.07187L724.2969 209.25937Q724.7031 209.88437 724.9531 210.30624Q725.3281 209.7125 725.65625 209.275L727.2344 207.07187L729.125 207.07187L725.8906 211.4625L729.375 216.4L727.4219 216.4L725.5156 213.49374L725.0 212.7125L722.5469 216.4L720.625 216.4ZM735.7969 216.4L735.7969 215.025Q734.71875 216.61874 732.84375 216.61874Q732.0156 216.61874 731.2969 216.30624Q730.5781 215.97812 730.2344 215.50937Q729.8906 215.025 729.75 214.32187Q729.65625 213.85312 729.65625 212.85312L729.65625 207.07187L731.2344 207.07187L731.2344 212.24374Q731.2344 213.47812 731.3281 213.91562Q731.4844 214.54062 731.96875 214.9Q732.4531 215.24374 733.15625 215.24374Q733.875 215.24374 734.5 214.88437Q735.125 214.525 735.375 213.9Q735.6406 213.25937 735.6406 212.07187L735.6406 207.07187L737.21875 207.07187L737.21875 216.4L735.7969 216.4ZM745.78125 215.24374Q744.90625 215.99374 744.0781 216.30624Q743.2656 216.61874 742.34375 216.61874Q740.7969 216.61874 739.96875 215.86874Q739.15625 215.10312 739.15625 213.93124Q739.15625 213.25937 739.46875 212.69687Q739.78125 212.11874 740.28125 211.775Q740.78125 211.43124 741.4219 211.25937Q741.8906 211.13437 742.8281 211.025Q744.7344 210.79062 745.6406 210.47812Q745.65625 210.15 745.65625 210.05624Q745.65625 209.10312 745.2031 208.69687Q744.59375 208.16562 743.40625 208.16562Q742.28125 208.16562 741.75 208.55624Q741.21875 208.94687 740.96875 209.94687L739.4219 209.72812Q739.6406 208.72812 740.1094 208.11874Q740.59375 207.50937 741.5 207.18124Q742.4219 206.85312 743.6406 206.85312Q744.8281 206.85312 745.5781 207.13437Q746.3281 207.41562 746.6719 207.85312Q747.03125 208.275 747.1719 208.91562Q747.25 209.32187 747.25 210.38437L747.25 212.49374Q747.25 214.69687 747.34375 215.29062Q747.4531 215.86874 747.75 216.4L746.09375 216.4Q745.84375 215.9 745.78125 215.24374ZM745.6406 211.7125Q744.78125 212.07187 743.0625 212.30624Q742.09375 212.44687 741.6875 212.63437Q741.28125 212.80624 741.0625 213.15Q740.84375 213.47812 740.84375 213.9Q740.84375 214.525 741.3125 214.94687Q741.7969 215.36874 742.71875 215.36874Q743.6406 215.36874 744.34375 214.97812Q745.0625 214.57187 745.3906 213.88437Q745.6406 213.3375 745.6406 212.29062L745.6406 211.7125ZM743.4844 204.41562L742.4844 205.9L740.6719 205.9L742.5781 203.44687L744.2656 203.44687L746.2344 205.9L744.4375 205.9L743.4844 204.41562ZM743.75 200.3375L745.875 200.3375L743.84375 202.80624L742.5625 202.80624L743.75 200.3375ZM753.1406 214.97812L753.375 216.38437Q752.7031 216.525 752.1719 216.525Q751.3125 216.525 750.8281 216.25937Q750.3594 215.97812 750.1719 215.54062Q749.9844 215.0875 749.9844 213.66562L749.9844 208.29062L748.8125 208.29062L748.8125 207.07187L749.9844 207.07187L749.9844 204.75937L751.5469 203.80624L751.5469 207.07187L753.1406 207.07187L753.1406 208.29062L751.5469 208.29062L751.5469 213.75937Q751.5469 214.43124 751.625 214.63437Q751.71875 214.82187 751.90625 214.93124Q752.09375 215.04062 752.4531 215.04062Q752.7031 215.04062 753.1406 214.97812Z" fill-rule="nonzero"/></svg>