<svg version="1.1" viewBox="0.0 0.0 1038.0 232.0" fill="none" stroke="none" stroke-linecap="square" stroke-miterlimit="10" width="1038" height="232" xmlns:xlink="http://www.w3.org/1999/xlink" xmlns="http://www.w3.org/2000/svg"><path fill="#ffffff" d="M0 0L1038.0 0L1038.0 232.0L0 232.0L0 0Z" fill-rule="nonzero"/><path stroke="#333333" stroke-width="1.0" stroke-linecap="butt" d="M86.5 136.5L1026.5 136.5" fill-rule="nonzero"/><path stroke="#cccccc" stroke-width="1.0" stroke-linecap="butt" d="M86.5 107.5L1026.5 107.5" fill-rule="nonzero"/><path stroke="#cccccc" stroke-width="1.0" stroke-linecap="butt" d="M86.5 77.5L1026.5 77.5" fill-rule="nonzero"/><path stroke="#cccccc" stroke-width="1.0" stroke-linecap="butt" d="M86.5 48.5L1026.5 48.5" fill-rule="nonzero"/><path stroke="#cccccc" stroke-width="1.0" stroke-linecap="butt" d="M86.5 18.5L1026.5 18.5" fill-rule="nonzero"/><clipPath id="id_0"><path d="M86.6 18.6L1026.4 18.6L1026.4 136.66667L86.6 136.66667L86.6 18.6Z" clip-rule="nonzero"/></clipPath><path stroke="#ff0000" stroke-width="2.0" stroke-linecap="butt" stroke-dasharray="8.0,6.0" clip-path="url(#id_0)" d="M107.95909 107.15L150.67728 124.86L193.39546 130.76334L236.11363 95.34333L278.83182 54.02L321.55 130.76334L364.2682 48.116665L406.98636 130.76334L449.70456 42.213333L492.42273 130.76334L535.1409 107.15L577.8591 130.76334L620.5773 130.76334L663.2955 124.86L706.0136 118.956665L748.7318 107.15L791.45 124.86L834.16815 77.63333L876.88635 107.15L919.60455 77.63333L962.32275 118.956665L1005.0409 124.86" fill-rule="nonzero"/><path stroke="#0000ff" stroke-width="2.0" stroke-linecap="butt" clip-path="url(#id_0)" d="M107.95909 124.86L150.67728 101.246666L193.39546 101.246666L236.11363 95.34333L278.83182 101.246666L321.55 130.76334L364.2682 118.956665L406.98636 130.76334L449.70456 59.923332L492.42273 130.76334L535.1409 113.05334L577.8591 130.76334L620.5773 130.76334L663.2955 118.956665L706.0136 118.956665L748.7318 124.86L791.45 124.86L834.16815 118.956665L876.88635 118.956665L919.60455 18.6L962.32275 118.956665L1005.0409 83.53667" fill-rule="nonzero"/><path fill="#000000" fill-opacity="0.0" clip-path="url(#id_0)" d="M110.95909 107.15C110.95909 108.806854 109.615944 110.15 107.95909 110.15C106.30224 110.15 104.95909 108.806854 104.95909 107.15C104.95909 105.49315 106.30224 104.15 107.95909 104.15C109.615944 104.15 110.95909 105.49315 110.95909 107.15Z" fill-rule="nonzero"/><path fill="#000000" fill-opacity="0.0" clip-path="url(#id_0)" d="M153.67728 124.86C153.67728 126.51685 152.33412 127.86 150.67728 127.86C149.02042 127.86 147.67728 126.51685 147.67728 124.86C147.67728 123.20315 149.02042 121.86 150.67728 121.86C152.33412 121.86 153.67728 123.20315 153.67728 124.86Z" fill-rule="nonzero"/><path fill="#000000" fill-opacity="0.0" clip-path="url(#id_0)" d="M196.39546 130.76334C196.39546 132.42018 195.0523 133.76334 193.39546 133.76334C191.7386 133.76334 190.39546 132.42018 190.39546 130.76334C190.39546 129.10648 191.7386 127.763336 193.39546 127.763336C195.0523 127.763336 196.39546 129.10648 196.39546 130.76334Z" fill-rule="nonzero"/><path fill="#000000" fill-opacity="0.0" clip-path="url(#id_0)" d="M239.11363 95.34333C239.11363 97.00019 237.7705 98.34333 236.11363 98.34333C234.45679 98.34333 233.11363 97.00019 233.11363 95.34333C233.11363 93.68648 234.45679 92.34333 236.11363 92.34333C237.7705 92.34333 239.11363 93.68648 239.11363 95.34333Z" fill-rule="nonzero"/><path fill="#000000" fill-opacity="0.0" clip-path="url(#id_0)" d="M281.83182 54.02C281.83182 55.676853 280.48868 57.02 278.83182 57.02C277.17496 57.02 275.83182 55.676853 275.83182 54.02C275.83182 52.363144 277.17496 51.02 278.83182 51.02C280.48868 51.02 281.83182 52.363144 281.83182 54.02Z" fill-rule="nonzero"/><path fill="#000000" fill-opacity="0.0" clip-path="url(#id_0)" d="M324.55 130.76334C324.55 132.42018 323.20685 133.76334 321.55 133.76334C319.89316 133.76334 318.55 132.42018 318.55 130.76334C318.55 129.10648 319.89316 127.763336 321.55 127.763336C323.20685 127.763336 324.55 129.10648 324.55 130.76334Z" fill-rule="nonzero"/><path fill="#000000" fill-opacity="0.0" clip-path="url(#id_0)" d="M367.2682 48.116665C367.2682 49.77352 365.92505 51.116665 364.2682 51.116665C362.61133 51.116665 361.2682 49.77352 361.2682 48.116665C361.2682 46.459812 362.61133 45.116665 364.2682 45.116665C365.92505 45.116665 367.2682 46.459812 367.2682 48.116665Z" fill-rule="nonzero"/><path fill="#000000" fill-opacity="0.0" clip-path="url(#id_0)" d="M409.98636 130.76334C409.98636 132.42018 408.64322 133.76334 406.98636 133.76334C405.3295 133.76334 403.98636 132.42018 403.98636 130.76334C403.98636 129.10648 405.3295 127.763336 406.98636 127.763336C408.64322 127.763336 409.98636 129.10648 409.98636 130.76334Z" fill-rule="nonzero"/><path fill="#000000" fill-opacity="0.0" clip-path="url(#id_0)" d="M452.70456 42.213333C452.70456 43.870186 451.3614 45.213333 449.70456 45.213333C448.0477 45.213333 446.70456 43.870186 446.70456 42.213333C446.70456 40.55648 448.0477 39.213333 449.70456 39.213333C451.3614 39.213333 452.70456 40.55648 452.70456 42.213333Z" fill-rule="nonzero"/><path fill="#000000" fill-opacity="0.0" clip-path="url(#id_0)" d="M495.42273 130.76334C495.42273 132.42018 494.0796 133.76334 492.42273 133.76334C490.76587 133.76334 489.42273 132.42018 489.42273 130.76334C489.42273 129.10648 490.76587 127.763336 492.42273 127.763336C494.0796 127.763336 495.42273 129.10648 495.42273 130.76334Z" fill-rule="nonzero"/><path fill="#000000" fill-opacity="0.0" clip-path="url(#id_0)" d="M538.1409 107.15C538.1409 108.806854 536.7978 110.15 535.1409 110.15C533.4841 110.15 532.1409 108.806854 532.1409 107.15C532.1409 105.49315 533.4841 104.15 535.1409 104.15C536.7978 104.15 538.1409 105.49315 538.1409 107.15Z" fill-rule="nonzero"/><path fill="#000000" fill-opacity="0.0" clip-path="url(#id_0)" d="M580.8591 130.76334C580.8591 132.42018 579.5159 133.76334 577.8591 133.76334C576.2022 133.76334 574.8591 132.42018 574.8591 130.76334C574.8591 129.10648 576.2022 127.763336 577.8591 127.763336C579.5159 127.763336 580.8591 129.10648 580.8591 130.76334Z" fill-rule="nonzero"/><path fill="#000000" fill-opacity="0.0" clip-path="url(#id_0)" d="M623.5773 130.76334C623.5773 132.42018 622.23413 133.76334 620.5773 133.76334C618.9204 133.76334 617.5773 132.42018 617.5773 130.76334C617.5773 129.10648 618.9204 127.763336 620.5773 127.763336C622.23413 127.763336 623.5773 129.10648 623.5773 130.76334Z" fill-rule="nonzero"/><path fill="#000000" fill-opacity="0.0" clip-path="url(#id_0)" d="M666.2955 124.86C666.2955 126.51685 664.95233 127.86 663.2955 127.86C661.6386 127.86 660.2955 126.51685 660.2955 124.86C660.2955 123.20315 661.6386 121.86 663.2955 121.86C664.95233 121.86 666.2955 123.20315 666.2955 124.86Z" fill-rule="nonzero"/><path fill="#000000" fill-opacity="0.0" clip-path="url(#id_0)" d="M709.0136 118.956665C709.0136 120.61352 707.6705 121.956665 706.0136 121.956665C704.3568 121.956665 703.0136 120.61352 703.0136 118.956665C703.0136 117.29981 704.3568 115.956665 706.0136 115.956665C707.6705 115.956665 709.0136 117.29981 709.0136 118.956665Z" fill-rule="nonzero"/><path fill="#000000" fill-opacity="0.0" clip-path="url(#id_0)" d="M751.7318 107.15C751.7318 108.806854 750.3887 110.15 748.7318 110.15C747.07495 110.15 745.7318 108.806854 745.7318 107.15C745.7318 105.49315 747.07495 104.15 748.7318 104.15C750.3887 104.15 751.7318 105.49315 751.7318 107.15Z" fill-rule="nonzero"/><path fill="#000000" fill-opacity="0.0" clip-path="url(#id_0)" d="M794.45 124.86C794.45 126.51685 793.1069 127.86 791.45 127.86C789.79315 127.86 788.45 126.51685 788.45 124.86C788.45 123.20315 789.79315 121.86 791.45 121.86C793.1069 121.86 794.45 123.20315 794.45 124.86Z" fill-rule="nonzero"/><path fill="#000000" fill-opacity="0.0" clip-path="url(#id_0)" d="M837.16815 77.63333C837.16815 79.290184 835.825 80.63333 834.16815 80.63333C832.51135 80.63333 831.16815 79.290184 831.16815 77.63333C831.16815 75.97648 832.51135 74.63333 834.16815 74.63333C835.825 74.63333 837.16815 75.97648 837.16815 77.63333Z" fill-rule="nonzero"/><path fill="#000000" fill-opacity="0.0" clip-path="url(#id_0)" d="M879.88635 107.15C879.88635 108.806854 878.5432 110.15 876.88635 110.15C875.2295 110.15 873.88635 108.806854 873.88635 107.15C873.88635 105.49315 875.2295 104.15 876.88635 104.15C878.5432 104.15 879.88635 105.49315 879.88635 107.15Z" fill-rule="nonzero"/><path fill="#000000" fill-opacity="0.0" clip-path="url(#id_0)" d="M922.60455 77.63333C922.60455 79.290184 921.2614 80.63333 919.60455 80.63333C917.9477 80.63333 916.60455 79.290184 916.60455 77.63333C916.60455 75.97648 917.9477 74.63333 919.60455 74.63333C921.2614 74.63333 922.60455 75.97648 922.60455 77.63333Z" fill-rule="nonzero"/><path fill="#000000" fill-opacity="0.0" clip-path="url(#id_0)" d="M965.32275 118.956665C965.32275 120.61352 963.97955 121.956665 962.32275 121.956665C960.6659 121.956665 959.32275 120.61352 959.32275 118.956665C959.32275 117.29981 960.6659 115.956665 962.32275 115.956665C963.97955 115.956665 965.32275 117.29981 965.32275 118.956665Z" fill-rule="nonzero"/><path fill="#000000" fill-opacity="0.0" clip-path="url(#id_0)" d="M1008.0409 124.86C1008.0409 126.51685 1006.69775 127.86 1005.0409 127.86C1003.38403 127.86 1002.0409 126.51685 1002.0409 124.86C1002.0409 123.20315 1003.38403 121.86 1005.0409 121.86C1006.69775 121.86 1008.0409 123.20315 1008.0409 124.86Z" fill-rule="nonzero"/><path fill="#000000" fill-opacity="0.0" clip-path="url(#id_0)" d="M110.95909 124.86C110.95909 126.51685 109.615944 127.86 107.95909 127.86C106.30224 127.86 104.95909 126.51685 104.95909 124.86C104.95909 123.20315 106.30224 121.86 107.95909 121.86C109.615944 121.86 110.95909 123.20315 110.95909 124.86Z" fill-rule="nonzero"/><path fill="#000000" fill-opacity="0.0" clip-path="url(#id_0)" d="M153.67728 101.246666C153.67728 102.90352 152.33412 104.246666 150.67728 104.246666C149.02042 104.246666 147.67728 102.90352 147.67728 101.246666C147.67728 99.58981 149.02042 98.246666 150.67728 98.246666C152.33412 98.246666 153.67728 99.58981 153.67728 101.246666Z" fill-rule="nonzero"/><path fill="#000000" fill-opacity="0.0" clip-path="url(#id_0)" d="M196.39546 101.246666C196.39546 102.90352 195.0523 104.246666 193.39546 104.246666C191.7386 104.246666 190.39546 102.90352 190.39546 101.246666C190.39546 99.58981 191.7386 98.246666 193.39546 98.246666C195.0523 98.246666 196.39546 99.58981 196.39546 101.246666Z" fill-rule="nonzero"/><path fill="#000000" fill-opacity="0.0" clip-path="url(#id_0)" d="M239.11363 95.34333C239.11363 97.00019 237.7705 98.34333 236.11363 98.34333C234.45679 98.34333 233.11363 97.00019 233.11363 95.34333C233.11363 93.68648 234.45679 92.34333 236.11363 92.34333C237.7705 92.34333 239.11363 93.68648 239.11363 95.34333Z" fill-rule="nonzero"/><path fill="#000000" fill-opacity="0.0" clip-path="url(#id_0)" d="M281.83182 101.246666C281.83182 102.90352 280.48868 104.246666 278.83182 104.246666C277.17496 104.246666 275.83182 102.90352 275.83182 101.246666C275.83182 99.58981 277.17496 98.246666 278.83182 98.246666C280.48868 98.246666 281.83182 99.58981 281.83182 101.246666Z" fill-rule="nonzero"/><path fill="#000000" fill-opacity="0.0" clip-path="url(#id_0)" d="M324.55 130.76334C324.55 132.42018 323.20685 133.76334 321.55 133.76334C319.89316 133.76334 318.55 132.42018 318.55 130.76334C318.55 129.10648 319.89316 127.763336 321.55 127.763336C323.20685 127.763336 324.55 129.10648 324.55 130.76334Z" fill-rule="nonzero"/><path fill="#000000" fill-opacity="0.0" clip-path="url(#id_0)" d="M367.2682 118.956665C367.2682 120.61352 365.92505 121.956665 364.2682 121.956665C362.61133 121.956665 361.2682 120.61352 361.2682 118.956665C361.2682 117.29981 362.61133 115.956665 364.2682 115.956665C365.92505 115.956665 367.2682 117.29981 367.2682 118.956665Z" fill-rule="nonzero"/><path fill="#000000" fill-opacity="0.0" clip-path="url(#id_0)" d="M409.98636 130.76334C409.98636 132.42018 408.64322 133.76334 406.98636 133.76334C405.3295 133.76334 403.98636 132.42018 403.98636 130.76334C403.98636 129.10648 405.3295 127.763336 406.98636 127.763336C408.64322 127.763336 409.98636 129.10648 409.98636 130.76334Z" fill-rule="nonzero"/><path fill="#000000" fill-opacity="0.0" clip-path="url(#id_0)" d="M452.70456 59.923332C452.70456 61.58019 451.3614 62.923332 449.70456 62.923332C448.0477 62.923332 446.70456 61.58019 446.70456 59.923332C446.70456 58.26648 448.0477 56.923332 449.70456 56.923332C451.3614 56.923332 452.70456 58.26648 452.70456 59.923332Z" fill-rule="nonzero"/><path fill="#000000" fill-opacity="0.0" clip-path="url(#id_0)" d="M495.42273 130.76334C495.42273 132.42018 494.0796 133.76334 492.42273 133.76334C490.76587 133.76334 489.42273 132.42018 489.42273 130.76334C489.42273 129.10648 490.76587 127.763336 492.42273 127.763336C494.0796 127.763336 495.42273 129.10648 495.42273 130.76334Z" fill-rule="nonzero"/><path fill="#000000" fill-opacity="0.0" clip-path="url(#id_0)" d="M538.1409 113.05334C538.1409 114.71019 536.7978 116.05334 535.1409 116.05334C533.4841 116.05334 532.1409 114.71019 532.1409 113.05334C532.1409 111.39648 533.4841 110.05334 535.1409 110.05334C536.7978 110.05334 538.1409 111.39648 538.1409 113.05334Z" fill-rule="nonzero"/><path fill="#000000" fill-opacity="0.0" clip-path="url(#id_0)" d="M580.8591 130.76334C580.8591 132.42018 579.5159 133.76334 577.8591 133.76334C576.2022 133.76334 574.8591 132.42018 574.8591 130.76334C574.8591 129.10648 576.2022 127.763336 577.8591 127.763336C579.5159 127.763336 580.8591 129.10648 580.8591 130.76334Z" fill-rule="nonzero"/><path fill="#000000" fill-opacity="0.0" clip-path="url(#id_0)" d="M623.5773 130.76334C623.5773 132.42018 622.23413 133.76334 620.5773 133.76334C618.9204 133.76334 617.5773 132.42018 617.5773 130.76334C617.5773 129.10648 618.9204 127.763336 620.5773 127.763336C622.23413 127.763336 623.5773 129.10648 623.5773 130.76334Z" fill-rule="nonzero"/><path fill="#000000" fill-opacity="0.0" clip-path="url(#id_0)" d="M666.2955 118.956665C666.2955 120.61352 664.95233 121.956665 663.2955 121.956665C661.6386 121.956665 660.2955 120.61352 660.2955 118.956665C660.2955 117.29981 661.6386 115.956665 663.2955 115.956665C664.95233 115.956665 666.2955 117.29981 666.2955 118.956665Z" fill-rule="nonzero"/><path fill="#000000" fill-opacity="0.0" clip-path="url(#id_0)" d="M709.0136 118.956665C709.0136 120.61352 707.6705 121.956665 706.0136 121.956665C704.3568 121.956665 703.0136 120.61352 703.0136 118.956665C703.0136 117.29981 704.3568 115.956665 706.0136 115.956665C707.6705 115.956665 709.0136 117.29981 709.0136 118.956665Z" fill-rule="nonzero"/><path fill="#000000" fill-opacity="0.0" clip-path="url(#id_0)" d="M751.7318 124.86C751.7318 126.51685 750.3887 127.86 748.7318 127.86C747.07495 127.86 745.7318 126.51685 745.7318 124.86C745.7318 123.20315 747.07495 121.86 748.7318 121.86C750.3887 121.86 751.7318 123.20315 751.7318 124.86Z" fill-rule="nonzero"/><path fill="#000000" fill-opacity="0.0" clip-path="url(#id_0)" d="M794.45 124.86C794.45 126.51685 793.1069 127.86 791.45 127.86C789.79315 127.86 788.45 126.51685 788.45 124.86C788.45 123.20315 789.79315 121.86 791.45 121.86C793.1069 121.86 794.45 123.20315 794.45 124.86Z" fill-rule="nonzero"/><path fill="#000000" fill-opacity="0.0" clip-path="url(#id_0)" d="M837.16815 118.956665C837.16815 120.61352 835.825 121.956665 834.16815 121.956665C832.51135 121.956665 831.16815 120.61352 831.16815 118.956665C831.16815 117.29981 832.51135 115.956665 834.16815 115.956665C835.825 115.956665 837.16815 117.29981 837.16815 118.956665Z" fill-rule="nonzero"/><path fill="#000000" fill-opacity="0.0" clip-path="url(#id_0)" d="M879.88635 118.956665C879.88635 120.61352 878.5432 121.956665 876.88635 121.956665C875.2295 121.956665 873.88635 120.61352 873.88635 118.956665C873.88635 117.29981 875.2295 115.956665 876.88635 115.956665C878.5432 115.956665 879.88635 117.29981 879.88635 118.956665Z" fill-rule="nonzero"/><path fill="#000000" fill-opacity="0.0" clip-path="url(#id_0)" d="M922.60455 18.6C922.60455 20.256855 921.2614 21.6 919.60455 21.6C917.9477 21.6 916.60455 20.256855 916.60455 18.6C916.60455 16.943146 917.9477 15.6 919.60455 15.6C921.2614 15.6 922.60455 16.943146 922.60455 18.6Z" fill-rule="nonzero"/><path fill="#000000" fill-opacity="0.0" clip-path="url(#id_0)" d="M965.32275 118.956665C965.32275 120.61352 963.97955 121.956665 962.32275 121.956665C960.6659 121.956665 959.32275 120.61352 959.32275 118.956665C959.32275 117.29981 960.6659 115.956665 962.32275 115.956665C963.97955 115.956665 965.32275 117.29981 965.32275 118.956665Z" fill-rule="nonzero"/><path fill="#000000" fill-opacity="0.0" clip-path="url(#id_0)" d="M1008.0409 83.53667C1008.0409 85.19352 1006.69775 86.53667 1005.0409 86.53667C1003.38403 86.53667 1002.0409 85.19352 1002.0409 83.53667C1002.0409 81.879814 1003.38403 80.53667 1005.0409 80.53667C1006.69775 80.53667 1008.0409 81.879814 1008.0409 83.53667Z" fill-rule="nonzero"/><path fill="#000000" d="M494.39062 187.66667L494.39062 181.8073L492.96875 181.8073L492.96875 180.65105L494.39062 180.65105L494.39062 174.77605L498.84375 174.77605Q500.32812 174.77605 501.125 174.96355Q502.23438 175.21355 503.01562 175.88542Q504.03125 176.7448 504.53125 178.08855Q505.04688 179.4323 505.04688 181.15105Q505.04688 183.1198 504.42188 184.54167Q503.79688 185.96355 502.92188 186.60417Q502.04688 187.2448 500.92188 187.51042Q500.29688 187.66667 499.03125 187.66667L494.39062 187.66667ZM496.09375 186.15105L498.84375 186.15105Q500.125 186.15105 500.84375 185.91667Q501.5625 185.66667 501.98438 185.2448Q502.59375 184.63542 502.9375 183.6198Q503.28125 182.60417 503.28125 181.13542Q503.28125 179.6198 502.9375 178.71355Q502.60938 177.8073 502.0625 177.27605Q501.51562 176.72917 500.84375 176.52605Q500.1875 176.3073 498.79688 176.3073L496.09375 176.3073L496.09375 180.65105L499.64062 180.65105L499.64062 181.8073L496.09375 181.8073L496.09375 186.15105ZM508.21875 182.9948Q508.21875 184.72917 509.0 185.6823Q509.75 186.57292 510.96875 186.57292Q512.2031 186.57292 512.9375 185.6823Q513.71875 184.72917 513.71875 182.94792Q513.71875 181.26042 512.9219 180.32292Q512.1875 179.4323 510.96875 179.4323Q509.73438 179.4323 509.0 180.32292Q508.21875 181.26042 508.21875 182.9948ZM515.5469 179.94792L515.5469 178.10417L517.25 178.10417L517.25 179.5573Q517.25 180.65105 516.9219 181.22917Q516.4844 181.97917 515.34375 182.6198Q515.34375 182.72917 515.34375 182.8698Q515.34375 186.13542 513.2344 187.3073Q512.2031 187.88542 510.96875 187.88542Q508.96875 187.88542 507.79688 186.6198Q506.59375 185.32292 506.59375 182.9948Q506.59375 180.40105 508.04688 179.15105Q509.25 178.1198 510.96875 178.1198Q512.90625 178.1198 514.125 179.38542Q515.0469 180.33855 515.2656 181.85417Q515.875 181.47917 516.125 181.08855Q516.3906 180.6823 516.375 179.94792L515.5469 179.94792ZM519.1875 187.66667L519.1875 178.33855L520.6094 178.33855L520.6094 179.66667Q521.6406 178.1198 523.5781 178.1198Q524.4219 178.1198 525.125 178.4323Q525.84375 178.72917 526.1875 179.22917Q526.5469 179.71355 526.6875 180.38542Q526.7656 180.82292 526.7656 181.9323L526.7656 187.66667L525.1875 187.66667L525.1875 181.9948Q525.1875 181.02605 525.0 180.54167Q524.8281 180.0573 524.34375 179.77605Q523.875 179.4948 523.25 179.4948Q522.2344 179.4948 521.5 180.13542Q520.7656 180.77605 520.7656 182.57292L520.7656 187.66667L519.1875 187.66667ZM536.78125 187.66667L533.2344 178.33855L534.90625 178.33855L536.90625 183.91667Q537.2344 184.82292 537.5 185.8073Q537.71875 185.0573 538.09375 184.02605L540.15625 178.33855L541.7969 178.33855L538.25 187.66667L536.78125 187.66667ZM543.2031 176.60417L543.2031 174.77605L544.78125 174.77605L544.78125 176.60417L543.2031 176.60417ZM543.2031 187.66667L543.2031 178.33855L544.78125 178.33855L544.78125 187.66667L543.2031 187.66667ZM543.09375 190.52605L543.09375 188.72917L544.8906 188.72917L544.8906 190.52605L543.09375 190.52605ZM552.2031 187.66667L552.2031 174.77605L553.78125 174.77605L553.78125 182.13542L557.5156 178.33855L559.5625 178.33855L556.0 181.79167L559.9375 187.66667L557.9844 187.66667L554.8906 182.90105L553.78125 183.96355L553.78125 187.66667L552.2031 187.66667ZM561.2031 176.60417L561.2031 174.77605L562.78125 174.77605L562.78125 176.60417L561.2031 176.60417ZM561.2031 187.66667L561.2031 178.33855L562.78125 178.33855L562.78125 187.66667L561.2031 187.66667ZM571.5781 184.66667L573.21875 184.8698Q572.8281 186.29167 571.78125 187.08855Q570.7344 187.88542 569.1094 187.88542Q567.0625 187.88542 565.8594 186.6198Q564.65625 185.35417 564.65625 183.07292Q564.65625 180.72917 565.8594 179.4323Q567.0781 178.1198 569.0156 178.1198Q570.8906 178.1198 572.0781 179.40105Q573.2656 180.66667 573.2656 182.97917Q573.2656 183.1198 573.25 183.40105L566.2969 183.40105Q566.375 184.94792 567.15625 185.76042Q567.9531 186.57292 569.1094 186.57292Q569.9844 186.57292 570.59375 186.1198Q571.21875 185.66667 571.5781 184.66667ZM566.375 182.10417L571.59375 182.10417Q571.4844 180.9323 571.0 180.33855Q570.2344 179.41667 569.03125 179.41667Q567.9531 179.41667 567.2031 180.15105Q566.46875 180.88542 566.375 182.10417ZM568.9844 175.6823L567.9844 177.16667L566.1719 177.16667L568.0781 174.71355L569.7656 174.71355L571.7344 177.16667L569.9375 177.16667L568.9844 175.6823ZM568.46875 173.38542Q568.96875 173.33855 569.1094 173.29167Q569.5781 173.1823 569.59375 172.9323Q569.59375 172.72917 569.34375 172.58855Q568.96875 172.38542 568.1719 172.38542Q567.90625 172.38542 567.34375 172.4323L567.25 171.60417Q567.59375 171.52605 568.5156 171.54167Q569.59375 171.54167 570.28125 171.88542Q571.03125 172.26042 571.0625 172.85417Q571.09375 173.72917 569.4531 173.9323L569.4531 174.3698L568.46875 174.3698L568.46875 173.38542ZM575.1875 187.66667L575.1875 178.33855L576.6094 178.33855L576.6094 179.63542Q577.0469 178.96355 577.7656 178.54167Q578.5 178.1198 579.4375 178.1198Q580.46875 178.1198 581.125 178.5573Q581.7969 178.97917 582.0625 179.76042Q583.1719 178.1198 584.9531 178.1198Q586.34375 178.1198 587.0781 178.90105Q587.8281 179.66667 587.8281 181.26042L587.8281 187.66667L586.2656 187.66667L586.2656 181.79167Q586.2656 180.83855 586.1094 180.41667Q585.9531 179.9948 585.5469 179.7448Q585.1406 179.4948 584.59375 179.4948Q583.6094 179.4948 582.9531 180.15105Q582.3125 180.8073 582.3125 182.2448L582.3125 187.66667L580.7344 187.66667L580.7344 181.60417Q580.7344 180.54167 580.34375 180.02605Q579.9531 179.4948 579.0781 179.4948Q578.40625 179.4948 577.84375 179.85417Q577.28125 180.19792 577.0156 180.8698Q576.7656 181.54167 576.7656 182.82292L576.7656 187.66667L575.1875 187.66667ZM597.6406 186.2448L597.875 187.65105Q597.2031 187.79167 596.6719 187.79167Q595.8125 187.79167 595.3281 187.52605Q594.8594 187.2448 594.6719 186.8073Q594.4844 186.35417 594.4844 184.9323L594.4844 179.5573L593.3125 179.5573L593.3125 178.33855L594.4844 178.33855L594.4844 176.02605L596.0469 175.07292L596.0469 178.33855L597.6406 178.33855L597.6406 179.5573L596.0469 179.5573L596.0469 185.02605Q596.0469 185.69792 596.125 185.90105Q596.21875 186.08855 596.40625 186.19792Q596.59375 186.3073 596.9531 186.3073Q597.2031 186.3073 597.6406 186.2448ZM599.1875 187.66667L599.1875 174.77605L600.7656 174.77605L600.7656 179.40105Q601.875 178.1198 603.5625 178.1198Q604.59375 178.1198 605.3594 178.52605Q606.125 178.9323 606.4531 179.66667Q606.7969 180.38542 606.7969 181.7448L606.7969 187.66667L605.2031 187.66667L605.2031 181.7448Q605.2031 180.5573 604.6875 180.02605Q604.1719 179.47917 603.2344 179.47917Q602.53125 179.47917 601.90625 179.85417Q601.2969 180.21355 601.03125 180.83855Q600.7656 181.46355 600.7656 182.5573L600.7656 187.66667L599.1875 187.66667ZM617.8125 180.16667L617.8125 178.33855L619.5 178.33855L619.5 179.77605Q619.5 181.16667 619.1875 181.71355Q618.375 183.1198 616.71875 183.29167L616.71875 187.66667L615.2969 187.66667L615.2969 186.29167Q614.21875 187.88542 612.34375 187.88542Q611.53125 187.88542 610.8125 187.57292Q610.09375 187.26042 609.7344 186.77605Q609.3906 186.29167 609.25 185.58855Q609.15625 185.1198 609.15625 184.1198L609.15625 178.33855L610.7344 178.33855L610.7344 183.51042Q610.7344 184.76042 610.8281 185.1823Q611.1406 186.51042 612.65625 186.51042Q613.3906 186.51042 614.0 186.15105Q614.625 185.77605 614.875 185.15105Q615.1406 184.52605 615.1406 183.33855L615.1406 178.33855L616.71875 178.33855L616.71875 182.6198Q617.8281 182.4323 618.3906 181.57292Q618.6406 181.21355 618.6406 180.16667L617.8125 180.16667ZM612.4375 176.1198Q612.9375 176.0573 613.0781 176.02605Q613.5469 175.8698 613.5469 175.52605Q613.5625 175.32292 613.3125 175.1823Q612.9375 174.97917 612.1406 174.97917Q611.8594 174.97917 611.3125 175.02605L611.21875 174.1198Q611.5625 174.0573 612.4844 174.0573Q613.5625 174.07292 614.25 174.41667Q615.0 174.77605 615.0156 175.44792Q615.0625 176.52605 613.4219 176.72917L613.4219 177.16667L612.4375 177.16667L612.4375 176.1198Z" fill-rule="nonzero"/><path fill="#000000" d="M24.45938 136.82083L24.318754 135.21146Q25.287504 135.10208 25.912504 134.69583Q26.52188 134.27396 26.912504 133.39896Q27.287504 132.50833 27.287504 131.41458Q27.287504 130.4302 27.006254 129.69583Q26.70938 128.94583 26.20938 128.58646Q25.693754 128.21146 25.100004 128.21146Q24.49063 128.21146 24.037504 128.57083Q23.58438 128.91458 23.287504 129.72708Q23.08438 130.2427 22.662504 132.02396Q22.225004 133.78958 21.850004 134.50833Q21.36563 135.4302 20.64688 135.88333Q19.92813 136.33646 19.05313 136.33646Q18.068754 136.33646 17.225004 135.78958Q16.381254 135.22708 15.943755 134.16458Q15.49063 133.10208 15.49063 131.78958Q15.49063 130.3677 15.95938 129.27396Q16.412504 128.1802 17.318754 127.58646Q18.20938 126.99271 19.350004 126.96146L19.475004 128.58646Q18.24063 128.72708 17.61563 129.4927Q16.99063 130.2427 16.99063 131.72708Q16.99063 133.27396 17.568754 133.9927Q18.131254 134.69583 18.92813 134.69583Q19.631254 134.69583 20.068754 134.1802Q20.52188 133.69583 20.99063 131.6177Q21.45938 129.53958 21.818754 128.75833Q22.33438 127.63333 23.131254 127.10208Q23.92813 126.57083 24.95938 126.57083Q25.99063 126.57083 26.89688 127.16458Q27.80313 127.74271 28.318754 128.85208Q28.818754 129.94583 28.818754 131.33646Q28.818754 133.08646 28.318754 134.27396Q27.80313 135.44583 26.787504 136.1177Q25.756254 136.78958 24.45938 136.82083ZM23.92813 125.03958Q21.33438 125.03958 20.08438 123.58646Q19.05313 122.38334 19.05313 120.66459Q19.05313 118.72709 20.318754 117.50834Q21.58438 116.28959 23.80313 116.28959Q25.600004 116.28959 26.631254 116.836464Q27.662504 117.367714 28.24063 118.398964Q28.818754 119.430214 28.818754 120.66459Q28.818754 122.617714 27.568754 123.83646Q26.30313 125.03958 23.92813 125.03958ZM23.92813 123.41458Q25.725004 123.41458 26.61563 122.63334Q27.506254 121.85209 27.506254 120.66459Q27.506254 119.47709 26.61563 118.69584Q25.70938 117.91459 23.881254 117.91459Q22.14688 117.91459 21.256254 118.711464Q20.36563 119.492714 20.36563 120.66459Q20.36563 121.85209 21.256254 122.63334Q22.14688 123.41458 23.92813 123.41458ZM16.61563 120.63334L18.100004 121.63334L18.100004 123.44583L15.64688 121.53959L15.64688 119.85209L18.100004 117.88334L18.100004 119.680214L16.61563 120.63334ZM12.537505 120.367714L12.537505 118.242714L15.006255 120.273964L15.006255 121.555214L12.537505 120.367714ZM25.17813 103.35209L25.381254 101.805214Q26.99063 102.055214 27.912504 103.10209Q28.818754 104.148964 28.818754 105.680214Q28.818754 107.60209 27.568754 108.773964Q26.30313 109.930214 23.975004 109.930214Q22.45938 109.930214 21.33438 109.430214Q20.193754 108.930214 19.631254 107.91459Q19.05313 106.88334 19.05313 105.680214Q19.05313 104.148964 19.83438 103.19584Q20.600004 102.22709 22.006254 101.94584L22.24063 103.492714Q21.30313 103.711464 20.83438 104.273964Q20.350004 104.82084 20.350004 105.617714Q20.350004 106.805214 21.20938 107.555214Q22.068754 108.305214 23.92813 108.305214Q25.80313 108.305214 26.662504 107.586464Q27.506254 106.867714 27.506254 105.69584Q27.506254 104.773964 26.943754 104.148964Q26.36563 103.523964 25.17813 103.35209ZM27.443754 94.35209Q28.193754 95.22709 28.506254 96.055214Q28.818754 96.867714 28.818754 97.78959Q28.818754 99.336464 28.068754 100.16459Q27.30313 100.97709 26.131254 100.97709Q25.45938 100.97709 24.89688 100.66459Q24.318754 100.35209 23.975004 99.85209Q23.631254 99.35209 23.45938 98.711464Q23.33438 98.242714 23.225004 97.305214Q22.99063 95.398964 22.67813 94.492714Q22.350004 94.47709 22.256254 94.47709Q21.30313 94.47709 20.89688 94.930214Q20.36563 95.53959 20.36563 96.72709Q20.36563 97.85209 20.756254 98.38334Q21.14688 98.91459 22.14688 99.16459L21.92813 100.711464Q20.92813 100.492714 20.318754 100.023964Q19.70938 99.53959 19.381254 98.63334Q19.05313 97.711464 19.05313 96.492714Q19.05313 95.305214 19.33438 94.555214Q19.61563 93.805214 20.05313 93.461464Q20.475004 93.10209 21.11563 92.961464Q21.52188 92.88334 22.58438 92.88334L24.693754 92.88334Q26.89688 92.88334 27.49063 92.78959Q28.068754 92.680214 28.600004 92.38334L28.600004 94.03959Q28.100004 94.28959 27.443754 94.35209ZM23.912504 94.492714Q24.27188 95.35209 24.506254 97.07084Q24.64688 98.03959 24.83438 98.44584Q25.006254 98.85209 25.350004 99.07084Q25.67813 99.28959 26.100004 99.28959Q26.725004 99.28959 27.14688 98.82084Q27.568754 98.336464 27.568754 97.41459Q27.568754 96.492714 27.17813 95.78959Q26.77188 95.07084 26.08438 94.742714Q25.537504 94.492714 24.49063 94.492714L23.912504 94.492714ZM28.600004 85.430214L15.70938 85.430214L15.70938 83.85209L23.068754 83.85209L19.27188 80.117714L19.27188 78.07084L22.725004 81.63334L28.600004 77.69584L28.600004 79.648964L23.83438 82.742714L24.89688 83.85209L28.600004 83.85209L28.600004 85.430214ZM17.537504 76.430214L15.70938 76.430214L15.70938 74.85209L17.537504 74.85209L17.537504 76.430214ZM28.600004 76.430214L19.27188 76.430214L19.27188 74.85209L28.600004 74.85209L28.600004 76.430214ZM25.600004 66.055214L25.80313 64.41459Q27.225004 64.805214 28.02188 65.85209Q28.818754 66.898964 28.818754 68.523964Q28.818754 70.57084 27.55313 71.773964Q26.287504 72.97709 24.006254 72.97709Q21.662504 72.97709 20.36563 71.773964Q19.05313 70.555214 19.05313 68.617714Q19.05313 66.742714 20.33438 65.555214Q21.600004 64.367714 23.912504 64.367714Q24.05313 64.367714 24.33438 64.38334L24.33438 71.336464Q25.881254 71.25834 26.693754 70.47709Q27.506254 69.680214 27.506254 68.523964Q27.506254 67.648964 27.05313 67.03959Q26.600004 66.41459 25.600004 66.055214ZM23.037504 71.25834L23.037504 66.03959Q21.86563 66.148964 21.27188 66.63334Q20.350004 67.398964 20.350004 68.60209Q20.350004 69.680214 21.08438 70.430214Q21.818754 71.16459 23.037504 71.25834ZM16.61563 68.648964L18.100004 69.648964L18.100004 71.461464L15.64688 69.555214L15.64688 67.867714L18.100004 65.898964L18.100004 67.69584L16.61563 68.648964ZM14.318755 69.16459Q14.27188 68.66459 14.225005 68.523964Q14.11563 68.055214 13.86563 68.03959Q13.662505 68.03959 13.52188 68.28959Q13.318755 68.66459 13.318755 69.461464Q13.318755 69.72709 13.36563 70.28959L12.537505 70.38334Q12.45938 70.03959 12.475005 69.117714Q12.475005 68.03959 12.818755 67.35209Q13.193755 66.60209 13.787505 66.57084Q14.662505 66.53959 14.86563 68.180214L15.30313 68.180214L15.30313 69.16459L14.318755 69.16459ZM28.600004 62.445835L19.27188 62.445835L19.27188 61.02396L20.568754 61.02396Q19.89688 60.58646 19.475004 59.86771Q19.05313 59.133335 19.05313 58.195835Q19.05313 57.164585 19.49063 56.508335Q19.912504 55.83646 20.693754 55.570835Q19.05313 54.46146 19.05313 52.68021Q19.05313 51.289585 19.83438 50.55521Q20.600004 49.80521 22.193754 49.80521L28.600004 49.80521L28.600004 51.36771L22.725004 51.36771Q21.77188 51.36771 21.350004 51.52396Q20.92813 51.68021 20.67813 52.08646Q20.42813 52.49271 20.42813 53.039585Q20.42813 54.02396 21.08438 54.68021Q21.74063 55.320835 23.17813 55.320835L28.600004 55.320835L28.600004 56.89896L22.537504 56.89896Q21.475004 56.89896 20.95938 57.289585Q20.42813 57.68021 20.42813 58.55521Q20.42813 59.227085 20.787504 59.789585Q21.131254 60.352085 21.80313 60.61771Q22.475004 60.86771 23.756254 60.86771L28.600004 60.86771L28.600004 62.445835ZM27.17813 39.99271L28.58438 39.758335Q28.725004 40.43021 28.725004 40.96146Q28.725004 41.820835 28.45938 42.30521Q28.17813 42.77396 27.74063 42.96146Q27.287504 43.14896 25.86563 43.14896L20.49063 43.14896L20.49063 44.320835L19.27188 44.320835L19.27188 43.14896L16.95938 43.14896L16.006254 41.58646L19.27188 41.58646L19.27188 39.99271L20.49063 39.99271L20.49063 41.58646L25.95938 41.58646Q26.631254 41.58646 26.83438 41.508335Q27.02188 41.414585 27.131254 41.227085Q27.24063 41.039585 27.24063 40.68021Q27.24063 40.43021 27.17813 39.99271ZM28.600004 38.445835L15.70938 38.445835L15.70938 36.86771L20.33438 36.86771Q19.05313 35.758335 19.05313 34.070835Q19.05313 33.039585 19.45938 32.27396Q19.86563 31.508335 20.600004 31.18021Q21.318754 30.83646 22.67813 30.83646L28.600004 30.83646L28.600004 32.43021L22.67813 32.43021Q21.49063 32.43021 20.95938 32.945835Q20.412504 33.46146 20.412504 34.39896Q20.412504 35.102085 20.787504 35.727085Q21.14688 36.33646 21.77188 36.602085Q22.39688 36.86771 23.49063 36.86771L28.600004 36.86771L28.600004 38.445835ZM21.100004 19.820835L19.27188 19.820835L19.27188 18.133335L20.70938 18.133335Q22.100004 18.133335 22.64688 18.445835Q24.05313 19.258335 24.225004 20.914585L28.600004 20.914585L28.600004 22.33646L27.225004 22.33646Q28.818754 23.414585 28.818754 25.289585Q28.818754 26.102085 28.506254 26.820835Q28.193754 27.539585 27.70938 27.89896Q27.225004 28.24271 26.52188 28.383335Q26.05313 28.477085 25.05313 28.477085L19.27188 28.477085L19.27188 26.89896L24.443754 26.89896Q25.693754 26.89896 26.11563 26.80521Q27.443754 26.49271 27.443754 24.977085Q27.443754 24.24271 27.08438 23.633335Q26.70938 23.008335 26.08438 22.758335Q25.45938 22.49271 24.27188 22.49271L19.27188 22.49271L19.27188 20.914585L23.55313 20.914585Q23.36563 19.80521 22.506254 19.24271Q22.14688 18.99271 21.100004 18.99271L21.100004 19.820835ZM17.05313 25.195835Q16.99063 24.695835 16.95938 24.55521Q16.80313 24.08646 16.45938 24.08646Q16.256254 24.070835 16.11563 24.320835Q15.912505 24.695835 15.912505 25.49271Q15.912505 25.77396 15.95938 26.320835L15.05313 26.414585Q14.99063 26.070835 14.99063 25.14896Q15.006255 24.070835 15.350005 23.383335Q15.70938 22.633335 16.381254 22.61771Q17.45938 22.570835 17.662504 24.21146L18.100004 24.21146L18.100004 25.195835L17.05313 25.195835Z" fill-rule="nonzero"/><path fill="#000000" d="M74.1 136.4323Q74.1 134.90105 74.4125 133.97917Q74.725 133.04167 75.33437 132.54167Q75.95937 132.04167 76.89687 132.04167Q77.58437 132.04167 78.1 132.32292Q78.63125 132.60417 78.975 133.13542Q79.31875 133.65105 79.50625 134.40105Q79.69375 135.15105 79.69375 136.4323Q79.69375 137.94792 79.38125 138.8698Q79.08437 139.79167 78.45937 140.3073Q77.85 140.8073 76.89687 140.8073Q75.6625 140.8073 74.94375 139.91667Q74.1 138.85417 74.1 136.4323ZM75.17812 136.4323Q75.17812 138.54167 75.67812 139.2448Q76.17812 139.94792 76.89687 139.94792Q77.63125 139.94792 78.11562 139.2448Q78.61562 138.54167 78.61562 136.4323Q78.61562 134.3073 78.11562 133.6198Q77.63125 132.91667 76.88125 132.91667Q76.1625 132.91667 75.725 133.52605Q75.17812 134.3073 75.17812 136.4323Z" fill-rule="nonzero"/><path fill="#000000" d="M74.1 108.9L75.20937 108.80625Q75.33437 109.61875 75.77187 110.025Q76.225 110.43125 76.86562 110.43125Q77.61562 110.43125 78.14687 109.85313Q78.67812 109.275 78.67812 108.3375Q78.67812 107.43125 78.1625 106.91563Q77.6625 106.38438 76.83437 106.38438Q76.33437 106.38438 75.9125 106.61875Q75.50625 106.85313 75.27187 107.2125L74.2875 107.0875L75.11562 102.68125L79.39687 102.68125L79.39687 103.68125L75.95937 103.68125L75.50625 105.99375Q76.27187 105.44688 77.11562 105.44688Q78.24062 105.44688 79.00625 106.22813Q79.7875 107.00938 79.7875 108.24375Q79.7875 109.4 79.11562 110.25938Q78.2875 111.29063 76.86562 111.29063Q75.69375 111.29063 74.94375 110.63438Q74.20937 109.97813 74.1 108.9Z" fill-rule="nonzero"/><path fill="#000000" d="M71.06875 81.63333L70.02187 81.63333L70.02187 74.91458Q69.63125 75.27396 69.00625 75.64896Q68.39687 76.00833 67.9125 76.18021L67.9125 75.16458Q68.7875 74.74271 69.44375 74.16458Q70.11562 73.57083 70.39687 73.00833L71.06875 73.00833L71.06875 81.63333ZM74.1 77.39896Q74.1 75.86771 74.4125 74.94583Q74.725 74.00833 75.33437 73.50833Q75.95937 73.00833 76.89687 73.00833Q77.58437 73.00833 78.1 73.28958Q78.63125 73.57083 78.975 74.10208Q79.31875 74.61771 79.50625 75.36771Q79.69375 76.11771 79.69375 77.39896Q79.69375 78.91458 79.38125 79.83646Q79.08437 80.75833 78.45937 81.27396Q77.85 81.77396 76.89687 81.77396Q75.6625 81.77396 74.94375 80.88333Q74.1 79.82083 74.1 77.39896ZM75.17812 77.39896Q75.17812 79.50833 75.67812 80.21146Q76.17812 80.91458 76.89687 80.91458Q77.63125 80.91458 78.11562 80.21146Q78.61562 79.50833 78.61562 77.39896Q78.61562 75.27396 78.11562 74.58646Q77.63125 73.88333 76.88125 73.88333Q76.1625 73.88333 75.725 74.49271Q75.17812 75.27396 75.17812 77.39896Z" fill-rule="nonzero"/><path fill="#000000" d="M71.06875 52.116665L70.02187 52.116665L70.02187 45.397915Q69.63125 45.75729 69.00625 46.13229Q68.39687 46.491665 67.9125 46.66354L67.9125 45.647915Q68.7875 45.22604 69.44375 44.647915Q70.11562 44.054165 70.39687 43.491665L71.06875 43.491665L71.06875 52.116665ZM74.1 49.866665L75.20937 49.772915Q75.33437 50.585415 75.77187 50.991665Q76.225 51.397915 76.86562 51.397915Q77.61562 51.397915 78.14687 50.81979Q78.67812 50.241665 78.67812 49.304165Q78.67812 48.397915 78.1625 47.88229Q77.6625 47.35104 76.83437 47.35104Q76.33437 47.35104 75.9125 47.585415Q75.50625 47.81979 75.27187 48.179165L74.2875 48.054165L75.11562 43.647915L79.39687 43.647915L79.39687 44.647915L75.95937 44.647915L75.50625 46.960415Q76.27187 46.41354 77.11562 46.41354Q78.24062 46.41354 79.00625 47.19479Q79.7875 47.97604 79.7875 49.210415Q79.7875 50.366665 79.11562 51.22604Q78.2875 52.25729 76.86562 52.25729Q75.69375 52.25729 74.94375 51.60104Q74.20937 50.94479 74.1 49.866665Z" fill-rule="nonzero"/><path fill="#000000" d="M72.64687 21.584375L72.64687 22.6L66.95937 22.6Q66.95937 22.225 67.08437 21.865625Q67.30312 21.2875 67.77187 20.725Q68.25625 20.1625 69.1625 19.428125Q70.56875 18.271875 71.05312 17.6Q71.55312 16.928125 71.55312 16.334375Q71.55312 15.709375 71.1 15.2875Q70.64687 14.85 69.92812 14.85Q69.1625 14.85 68.70937 15.303125Q68.25625 15.75625 68.24062 16.56875L67.1625 16.459375Q67.27187 15.240625 67.99062 14.615625Q68.725 13.975 69.95937 13.975Q71.19375 13.975 71.9125 14.6625Q72.63125 15.35 72.63125 16.365625Q72.63125 16.88125 72.4125 17.38125Q72.20937 17.865625 71.70937 18.428125Q71.225 18.975 70.1 19.928125Q69.14687 20.725 68.86562 21.021875Q68.6 21.303125 68.42812 21.584375L72.64687 21.584375ZM74.1 18.365625Q74.1 16.834375 74.4125 15.9125Q74.725 14.975 75.33437 14.475Q75.95937 13.975 76.89687 13.975Q77.58437 13.975 78.1 14.25625Q78.63125 14.5375 78.975 15.06875Q79.31875 15.584375 79.50625 16.334375Q79.69375 17.084375 79.69375 18.365625Q79.69375 19.88125 79.38125 20.803125Q79.08437 21.725 78.45937 22.240625Q77.85 22.740625 76.89687 22.740625Q75.6625 22.740625 74.94375 21.85Q74.1 20.7875 74.1 18.365625ZM75.17812 18.365625Q75.17812 20.475 75.67812 21.178125Q76.17812 21.88125 76.89687 21.88125Q77.63125 21.88125 78.11562 21.178125Q78.61562 20.475 78.61562 18.365625Q78.61562 16.240625 78.11562 15.553125Q77.63125 14.85 76.88125 14.85Q76.1625 14.85 75.725 15.459375Q75.17812 16.240625 75.17812 18.365625Z" fill-rule="nonzero"/><path stroke="#ff0000" stroke-width="4.0" stroke-linecap="butt" stroke-dasharray="13.0,9.0" d="M280.0 209.9L315.0 209.9" fill-rule="nonzero"/><path fill="#1a1a1a" d="M324.39062 216.4L324.39062 203.50937L329.25 203.50937Q330.53125 203.50937 331.20312 203.63437Q332.15625 203.79062 332.79688 204.24374Q333.4375 204.68124 333.82812 205.49374Q334.21875 206.29062 334.21875 207.24374Q334.21875 208.88437 333.17188 210.025Q332.125 211.16562 329.40625 211.16562L326.09375 211.16562L326.09375 216.4L324.39062 216.4ZM326.09375 209.63437L329.42188 209.63437Q331.07812 209.63437 331.76562 209.025Q332.46875 208.41562 332.46875 207.29062Q332.46875 206.47812 332.0625 205.91562Q331.65625 205.3375 330.98438 205.15Q330.54688 205.04062 329.39062 205.04062L326.09375 205.04062L326.09375 209.63437ZM336.1875 216.4L336.1875 203.50937L337.76562 203.50937L337.76562 208.13437Q338.875 206.85312 340.5625 206.85312Q341.59375 206.85312 342.35938 207.25937Q343.125 207.66562 343.45312 208.4Q343.79688 209.11874 343.79688 210.47812L343.79688 216.4L342.20312 216.4L342.20312 210.47812Q342.20312 209.29062 341.6875 208.75937Q341.17188 208.2125 340.23438 208.2125Q339.53125 208.2125 338.90625 208.5875Q338.29688 208.94687 338.03125 209.57187Q337.76562 210.19687 337.76562 211.29062L337.76562 216.4L336.1875 216.4ZM354.8125 208.9L354.8125 207.07187L356.5 207.07187L356.5 208.50937Q356.5 209.9 356.1875 210.44687Q355.375 211.85312 353.71875 212.025L353.71875 216.4L352.29688 216.4L352.29688 215.025Q351.21875 216.61874 349.34375 216.61874Q348.53125 216.61874 347.8125 216.30624Q347.09375 215.99374 346.73438 215.50937Q346.39062 215.025 346.25 214.32187Q346.15625 213.85312 346.15625 212.85312L346.15625 207.07187L347.73438 207.07187L347.73438 212.24374Q347.73438 213.49374 347.82812 213.91562Q348.14062 215.24374 349.65625 215.24374Q350.39062 215.24374 351.0 214.88437Q351.625 214.50937 351.875 213.88437Q352.14062 213.25937 352.14062 212.07187L352.14062 207.07187L353.71875 207.07187L353.71875 211.35312Q354.82812 211.16562 355.39062 210.30624Q355.64062 209.94687 355.64062 208.9L354.8125 208.9ZM359.21875 211.72812Q359.21875 213.4625 360.0 214.41562Q360.75 215.30624 361.96875 215.30624Q363.20312 215.30624 363.9375 214.41562Q364.71875 213.4625 364.71875 211.68124Q364.71875 209.99374 363.92188 209.05624Q363.1875 208.16562 361.96875 208.16562Q360.73438 208.16562 360.0 209.05624Q359.21875 209.99374 359.21875 211.72812ZM366.54688 208.68124L366.54688 206.8375L368.25 206.8375L368.25 208.29062Q368.25 209.38437 367.92188 209.9625Q367.48438 210.7125 366.34375 211.35312Q366.34375 211.4625 366.34375 211.60312Q366.34375 214.86874 364.23438 216.04062Q363.20312 216.61874 361.96875 216.61874Q359.96875 216.61874 358.79688 215.35312Q357.59375 214.05624 357.59375 211.72812Q357.59375 209.13437 359.04688 207.88437Q360.25 206.85312 361.96875 206.85312Q363.90625 206.85312 365.125 208.11874Q366.04688 209.07187 366.26562 210.5875Q366.875 210.2125 367.125 209.82187Q367.39062 209.41562 367.375 208.68124L366.54688 208.68124ZM370.1875 216.4L370.1875 207.07187L371.60938 207.07187L371.60938 208.4Q372.64062 206.85312 374.57812 206.85312Q375.42188 206.85312 376.125 207.16562Q376.84375 207.4625 377.1875 207.9625Q377.54688 208.44687 377.6875 209.11874Q377.76562 209.55624 377.76562 210.66562L377.76562 216.4L376.1875 216.4L376.1875 210.72812Q376.1875 209.75937 376.0 209.275Q375.82812 208.79062 375.34375 208.50937Q374.875 208.22812 374.25 208.22812Q373.23438 208.22812 372.5 208.86874Q371.76562 209.50937 371.76562 211.30624L371.76562 216.4L370.1875 216.4ZM379.89062 217.18124L381.4375 217.4Q381.53125 218.11874 381.96875 218.44687Q382.5625 218.88437 383.57812 218.88437Q384.67188 218.88437 385.26562 218.43124Q385.875 217.99374 386.07812 217.2125Q386.20312 216.72812 386.20312 215.18124Q385.15625 216.4 383.60938 216.4Q381.6875 216.4 380.625 215.00937Q379.57812 213.61874 379.57812 211.68124Q379.57812 210.3375 380.0625 209.2125Q380.54688 208.0875 381.46875 207.47812Q382.39062 206.85312 383.625 206.85312Q385.28125 206.85312 386.34375 208.19687L386.34375 207.07187L387.8125 207.07187L387.8125 215.13437Q387.8125 217.32187 387.35938 218.22812Q386.92188 219.13437 385.95312 219.65Q385.0 220.18124 383.59375 220.18124Q381.92188 220.18124 380.89062 219.43124Q379.85938 218.68124 379.89062 217.18124ZM381.20312 211.57187Q381.20312 213.4 381.9375 214.24374Q382.67188 215.0875 383.76562 215.0875Q384.85938 215.0875 385.59375 214.25937Q386.32812 213.41562 386.32812 211.61874Q386.32812 209.9 385.5625 209.04062Q384.8125 208.16562 383.73438 208.16562Q382.6875 208.16562 381.9375 209.025Q381.20312 209.88437 381.20312 211.57187ZM395.1875 219.97812L395.1875 207.07187L396.625 207.07187L396.625 208.275Q397.14062 207.57187 397.78125 207.2125Q398.42188 206.85312 399.32812 206.85312Q400.53125 206.85312 401.4375 207.47812Q402.35938 208.0875 402.82812 209.2125Q403.29688 210.32187 403.29688 211.66562Q403.29688 213.0875 402.78125 214.24374Q402.26562 215.38437 401.28125 216.00937Q400.29688 216.61874 399.21875 216.61874Q398.4375 216.61874 397.79688 216.29062Q397.17188 215.94687 396.76562 215.43124L396.76562 219.97812L395.1875 219.97812ZM396.625 211.79062Q396.625 213.5875 397.34375 214.44687Q398.07812 215.30624 399.10938 215.30624Q400.17188 215.30624 400.92188 214.41562Q401.67188 213.525 401.67188 211.65Q401.67188 209.86874 400.9375 208.97812Q400.20312 208.0875 399.1875 208.0875Q398.17188 208.0875 397.39062 209.04062Q396.625 209.97812 396.625 211.79062ZM405.1875 216.4L405.1875 203.50937L406.76562 203.50937L406.76562 208.13437Q407.875 206.85312 409.5625 206.85312Q410.59375 206.85312 411.35938 207.25937Q412.125 207.66562 412.45312 208.4Q412.79688 209.11874 412.79688 210.47812L412.79688 216.4L411.20312 216.4L411.20312 210.47812Q411.20312 209.29062 410.6875 208.75937Q410.17188 208.2125 409.23438 208.2125Q408.53125 208.2125 407.90625 208.5875Q407.29688 208.94687 407.03125 209.57187Q406.76562 210.19687 406.76562 211.29062L406.76562 216.4L405.1875 216.4ZM421.28125 215.24374Q420.40625 215.99374 419.57812 216.30624Q418.76562 216.61874 417.84375 216.61874Q416.29688 216.61874 415.46875 215.86874Q414.65625 215.10312 414.65625 213.93124Q414.65625 213.25937 414.96875 212.69687Q415.28125 212.11874 415.78125 211.775Q416.28125 211.43124 416.92188 211.25937Q417.39062 211.13437 418.32812 211.025Q420.23438 210.79062 421.14062 210.47812Q421.15625 210.15 421.15625 210.05624Q421.15625 209.10312 420.70312 208.69687Q420.09375 208.16562 418.90625 208.16562Q417.78125 208.16562 417.25 208.55624Q416.71875 208.94687 416.46875 209.94687L414.92188 209.72812Q415.14062 208.72812 415.60938 208.11874Q416.09375 207.50937 417.0 207.18124Q417.92188 206.85312 419.14062 206.85312Q420.32812 206.85312 421.07812 207.13437Q421.82812 207.41562 422.17188 207.85312Q422.53125 208.275 422.67188 208.91562Q422.75 209.32187 422.75 210.38437L422.75 212.49374Q422.75 214.69687 422.84375 215.29062Q422.95312 215.86874 423.25 216.4L421.59375 216.4Q421.34375 215.9 421.28125 215.24374ZM421.14062 211.7125Q420.28125 212.07187 418.5625 212.30624Q417.59375 212.44687 417.1875 212.63437Q416.78125 212.80624 416.5625 213.15Q416.34375 213.47812 416.34375 213.9Q416.34375 214.525 416.8125 214.94687Q417.29688 215.36874 418.21875 215.36874Q419.14062 215.36874 419.84375 214.97812Q420.5625 214.57187 420.89062 213.88437Q421.14062 213.3375 421.14062 212.29062L421.14062 211.7125ZM418.07812 205.9L419.25 203.44687L421.3125 203.44687L419.39062 205.9L418.07812 205.9ZM425.1875 219.97812L425.1875 207.07187L426.625 207.07187L426.625 208.275Q427.14062 207.57187 427.78125 207.2125Q428.42188 206.85312 429.32812 206.85312Q430.53125 206.85312 431.4375 207.47812Q432.35938 208.0875 432.82812 209.2125Q433.29688 210.32187 433.29688 211.66562Q433.29688 213.0875 432.78125 214.24374Q432.26562 215.38437 431.28125 216.00937Q430.29688 216.61874 429.21875 216.61874Q428.4375 216.61874 427.79688 216.29062Q427.17188 215.94687 426.76562 215.43124L426.76562 219.97812L425.1875 219.97812ZM426.625 211.79062Q426.625 213.5875 427.34375 214.44687Q428.07812 215.30624 429.10938 215.30624Q430.17188 215.30624 430.92188 214.41562Q431.67188 213.525 431.67188 211.65Q431.67188 209.86874 430.9375 208.97812Q430.20312 208.0875 429.1875 208.0875Q428.17188 208.0875 427.39062 209.04062Q426.625 209.97812 426.625 211.79062ZM438.96875 216.4L443.92188 203.50937L445.76562 203.50937L451.03125 216.4L449.09375 216.4L447.59375 212.49374L442.20312 212.49374L440.78125 216.4L438.96875 216.4ZM442.6875 211.10312L447.0625 211.10312L445.71875 207.54062Q445.09375 205.91562 444.79688 204.86874Q444.5625 206.10312 444.10938 207.32187L442.6875 211.10312ZM451.3125 216.4L451.3125 203.50937L453.03125 203.50937L453.03125 209.9L459.42188 203.50937L461.73438 203.50937L456.32812 208.72812L461.96875 216.4L459.71875 216.4L455.14062 209.88437L453.03125 211.93124L453.03125 216.4L451.3125 216.4ZM461.96875 216.4L466.92188 203.50937L468.76562 203.50937L474.03125 216.4L472.09375 216.4L470.59375 212.49374L465.20312 212.49374L463.78125 216.4L461.96875 216.4ZM465.6875 211.10312L470.0625 211.10312L468.71875 207.54062Q468.09375 205.91562 467.79688 204.86874Q467.5625 206.10312 467.10938 207.32187L465.6875 211.10312ZM482.84375 203.50937L484.54688 203.50937L484.54688 210.9625Q484.54688 212.9 484.10938 214.04062Q483.67188 215.18124 482.51562 215.9Q481.375 216.61874 479.51562 216.61874Q477.70312 216.61874 476.54688 215.99374Q475.40625 215.36874 474.90625 214.19687Q474.42188 213.00937 474.42188 210.9625L474.42188 203.50937L476.125 203.50937L476.125 210.94687Q476.125 212.63437 476.4375 213.43124Q476.75 214.2125 477.5 214.65Q478.26562 215.0875 479.35938 215.0875Q481.25 215.0875 482.04688 214.22812Q482.84375 213.36874 482.84375 210.94687L482.84375 203.50937ZM490.67188 216.4L490.67188 205.04062L486.42188 205.04062L486.42188 203.50937L496.64062 203.50937L496.64062 205.04062L492.375 205.04062L492.375 216.4L490.67188 216.4ZM497.96875 216.4L502.92188 203.50937L504.76562 203.50937L510.03125 216.4L508.09375 216.4L506.59375 212.49374L501.20312 212.49374L499.78125 216.4L497.96875 216.4ZM501.6875 211.10312L506.0625 211.10312L504.71875 207.54062Q504.09375 205.91562 503.79688 204.86874Q503.5625 206.10312 503.10938 207.32187L501.6875 211.10312ZM518.84375 203.50937L520.5469 203.50937L520.5469 210.9625Q520.5469 212.9 520.1094 214.04062Q519.6719 215.18124 518.5156 215.9Q517.375 216.61874 515.5156 216.61874Q513.7031 216.61874 512.5469 215.99374Q511.40625 215.36874 510.90625 214.19687Q510.42188 213.00937 510.42188 210.9625L510.42188 203.50937L512.125 203.50937L512.125 210.94687Q512.125 212.63437 512.4375 213.43124Q512.75 214.2125 513.5 214.65Q514.2656 215.0875 515.3594 215.0875Q517.25 215.0875 518.0469 214.22812Q518.84375 213.36874 518.84375 210.94687L518.84375 203.50937ZM526.6719 216.4L526.6719 205.04062L522.4219 205.04062L522.4219 203.50937L532.6406 203.50937L532.6406 205.04062L528.375 205.04062L528.375 216.4L526.6719 216.4ZM534.875 210.11874Q534.875 206.91562 536.59375 205.10312Q538.3125 203.29062 541.0469 203.29062Q542.8281 203.29062 544.25 204.15Q545.6875 204.99374 546.4375 206.525Q547.1875 208.04062 547.1875 209.97812Q547.1875 211.93124 546.3906 213.47812Q545.6094 215.025 544.15625 215.82187Q542.7031 216.61874 541.03125 216.61874Q539.21875 216.61874 537.78125 215.74374Q536.34375 214.86874 535.6094 213.35312Q534.875 211.82187 534.875 210.11874ZM536.625 210.15Q536.625 212.47812 537.875 213.82187Q539.1406 215.16562 541.0156 215.16562Q542.9531 215.16562 544.1875 213.80624Q545.4375 212.44687 545.4375 209.9625Q545.4375 208.4 544.90625 207.22812Q544.375 206.04062 543.34375 205.4Q542.3281 204.75937 541.0469 204.75937Q539.2344 204.75937 537.9219 206.00937Q536.625 207.24374 536.625 210.15Z" fill-rule="nonzero"/><path stroke="#0000ff" stroke-width="4.0" stroke-linecap="butt" d="M564.0 209.9L576.0 209.9" fill-rule="nonzero"/><path fill="#1a1a1a" d="M585.3906 216.4L585.3906 203.50937L590.25 203.50937Q591.53125 203.50937 592.2031 203.63437Q593.15625 203.79062 593.7969 204.24374Q594.4375 204.68124 594.8281 205.49374Q595.21875 206.29062 595.21875 207.24374Q595.21875 208.88437 594.1719 210.025Q593.125 211.16562 590.40625 211.16562L587.09375 211.16562L587.09375 216.4L585.3906 216.4ZM587.09375 209.63437L590.4219 209.63437Q592.0781 209.63437 592.7656 209.025Q593.46875 208.41562 593.46875 207.29062Q593.46875 206.47812 593.0625 205.91562Q592.65625 205.3375 591.9844 205.15Q591.5469 205.04062 590.3906 205.04062L587.09375 205.04062L587.09375 209.63437ZM597.1875 216.4L597.1875 203.50937L598.7656 203.50937L598.7656 208.13437Q599.875 206.85312 601.5625 206.85312Q602.59375 206.85312 603.3594 207.25937Q604.125 207.66562 604.4531 208.4Q604.7969 209.11874 604.7969 210.47812L604.7969 216.4L603.2031 216.4L603.2031 210.47812Q603.2031 209.29062 602.6875 208.75937Q602.1719 208.2125 601.2344 208.2125Q600.53125 208.2125 599.90625 208.5875Q599.2969 208.94687 599.03125 209.57187Q598.7656 210.19687 598.7656 211.29062L598.7656 216.4L597.1875 216.4ZM615.8125 208.9L615.8125 207.07187L617.5 207.07187L617.5 208.50937Q617.5 209.9 617.1875 210.44687Q616.375 211.85312 614.71875 212.025L614.71875 216.4L613.2969 216.4L613.2969 215.025Q612.21875 216.61874 610.34375 216.61874Q609.53125 216.61874 608.8125 216.30624Q608.09375 215.99374 607.7344 215.50937Q607.3906 215.025 607.25 214.32187Q607.15625 213.85312 607.15625 212.85312L607.15625 207.07187L608.7344 207.07187L608.7344 212.24374Q608.7344 213.49374 608.8281 213.91562Q609.1406 215.24374 610.65625 215.24374Q611.3906 215.24374 612.0 214.88437Q612.625 214.50937 612.875 213.88437Q613.1406 213.25937 613.1406 212.07187L613.1406 207.07187L614.71875 207.07187L614.71875 211.35312Q615.8281 211.16562 616.3906 210.30624Q616.6406 209.94687 616.6406 208.9L615.8125 208.9ZM620.21875 211.72812Q620.21875 213.4625 621.0 214.41562Q621.75 215.30624 622.96875 215.30624Q624.2031 215.30624 624.9375 214.41562Q625.71875 213.4625 625.71875 211.68124Q625.71875 209.99374 624.9219 209.05624Q624.1875 208.16562 622.96875 208.16562Q621.7344 208.16562 621.0 209.05624Q620.21875 209.99374 620.21875 211.72812ZM627.5469 208.68124L627.5469 206.8375L629.25 206.8375L629.25 208.29062Q629.25 209.38437 628.9219 209.9625Q628.4844 210.7125 627.34375 211.35312Q627.34375 211.4625 627.34375 211.60312Q627.34375 214.86874 625.2344 216.04062Q624.2031 216.61874 622.96875 216.61874Q620.96875 216.61874 619.7969 215.35312Q618.59375 214.05624 618.59375 211.72812Q618.59375 209.13437 620.0469 207.88437Q621.25 206.85312 622.96875 206.85312Q624.90625 206.85312 626.125 208.11874Q627.0469 209.07187 627.2656 210.5875Q627.875 210.2125 628.125 209.82187Q628.3906 209.41562 628.375 208.68124L627.5469 208.68124ZM631.1875 216.4L631.1875 207.07187L632.6094 207.07187L632.6094 208.4Q633.6406 206.85312 635.5781 206.85312Q636.4219 206.85312 637.125 207.16562Q637.84375 207.4625 638.1875 207.9625Q638.5469 208.44687 638.6875 209.11874Q638.7656 209.55624 638.7656 210.66562L638.7656 216.4L637.1875 216.4L637.1875 210.72812Q637.1875 209.75937 637.0 209.275Q636.8281 208.79062 636.34375 208.50937Q635.875 208.22812 635.25 208.22812Q634.2344 208.22812 633.5 208.86874Q632.7656 209.50937 632.7656 211.30624L632.7656 216.4L631.1875 216.4ZM640.8906 217.18124L642.4375 217.4Q642.53125 218.11874 642.96875 218.44687Q643.5625 218.88437 644.5781 218.88437Q645.6719 218.88437 646.2656 218.43124Q646.875 217.99374 647.0781 217.2125Q647.2031 216.72812 647.2031 215.18124Q646.15625 216.4 644.6094 216.4Q642.6875 216.4 641.625 215.00937Q640.5781 213.61874 640.5781 211.68124Q640.5781 210.3375 641.0625 209.2125Q641.5469 208.0875 642.46875 207.47812Q643.3906 206.85312 644.625 206.85312Q646.28125 206.85312 647.34375 208.19687L647.34375 207.07187L648.8125 207.07187L648.8125 215.13437Q648.8125 217.32187 648.3594 218.22812Q647.9219 219.13437 646.9531 219.65Q646.0 220.18124 644.59375 220.18124Q642.9219 220.18124 641.8906 219.43124Q640.8594 218.68124 640.8906 217.18124ZM642.2031 211.57187Q642.2031 213.4 642.9375 214.24374Q643.6719 215.0875 644.7656 215.0875Q645.8594 215.0875 646.59375 214.25937Q647.3281 213.41562 647.3281 211.61874Q647.3281 209.9 646.5625 209.04062Q645.8125 208.16562 644.7344 208.16562Q643.6875 208.16562 642.9375 209.025Q642.2031 209.88437 642.2031 211.57187ZM656.1875 219.97812L656.1875 207.07187L657.625 207.07187L657.625 208.275Q658.1406 207.57187 658.78125 207.2125Q659.4219 206.85312 660.3281 206.85312Q661.53125 206.85312 662.4375 207.47812Q663.3594 208.0875 663.8281 209.2125Q664.2969 210.32187 664.2969 211.66562Q664.2969 213.0875 663.78125 214.24374Q663.2656 215.38437 662.28125 216.00937Q661.2969 216.61874 660.21875 216.61874Q659.4375 216.61874 658.7969 216.29062Q658.1719 215.94687 657.7656 215.43124L657.7656 219.97812L656.1875 219.97812ZM657.625 211.79062Q657.625 213.5875 658.34375 214.44687Q659.0781 215.30624 660.1094 215.30624Q661.1719 215.30624 661.9219 214.41562Q662.6719 213.525 662.6719 211.65Q662.6719 209.86874 661.9375 208.97812Q661.2031 208.0875 660.1875 208.0875Q659.1719 208.0875 658.3906 209.04062Q657.625 209.97812 657.625 211.79062ZM666.1875 216.4L666.1875 203.50937L667.7656 203.50937L667.7656 208.13437Q668.875 206.85312 670.5625 206.85312Q671.59375 206.85312 672.3594 207.25937Q673.125 207.66562 673.4531 208.4Q673.7969 209.11874 673.7969 210.47812L673.7969 216.4L672.2031 216.4L672.2031 210.47812Q672.2031 209.29062 671.6875 208.75937Q671.1719 208.2125 670.2344 208.2125Q669.53125 208.2125 668.90625 208.5875Q668.2969 208.94687 668.03125 209.57187Q667.7656 210.19687 667.7656 211.29062L667.7656 216.4L666.1875 216.4ZM682.28125 215.24374Q681.40625 215.99374 680.5781 216.30624Q679.7656 216.61874 678.84375 216.61874Q677.2969 216.61874 676.46875 215.86874Q675.65625 215.10312 675.65625 213.93124Q675.65625 213.25937 675.96875 212.69687Q676.28125 212.11874 676.78125 211.775Q677.28125 211.43124 677.9219 211.25937Q678.3906 211.13437 679.3281 211.025Q681.2344 210.79062 682.1406 210.47812Q682.15625 210.15 682.15625 210.05624Q682.15625 209.10312 681.7031 208.69687Q681.09375 208.16562 679.90625 208.16562Q678.78125 208.16562 678.25 208.55624Q677.71875 208.94687 677.46875 209.94687L675.9219 209.72812Q676.1406 208.72812 676.6094 208.11874Q677.09375 207.50937 678.0 207.18124Q678.9219 206.85312 680.1406 206.85312Q681.3281 206.85312 682.0781 207.13437Q682.8281 207.41562 683.1719 207.85312Q683.53125 208.275 683.6719 208.91562Q683.75 209.32187 683.75 210.38437L683.75 212.49374Q683.75 214.69687 683.84375 215.29062Q683.9531 215.86874 684.25 216.4L682.59375 216.4Q682.34375 215.9 682.28125 215.24374ZM682.1406 211.7125Q681.28125 212.07187 679.5625 212.30624Q678.59375 212.44687 678.1875 212.63437Q677.78125 212.80624 677.5625 213.15Q677.34375 213.47812 677.34375 213.9Q677.34375 214.525 677.8125 214.94687Q678.2969 215.36874 679.21875 215.36874Q680.1406 215.36874 680.84375 214.97812Q681.5625 214.57187 681.8906 213.88437Q682.1406 213.3375 682.1406 212.29062L682.1406 211.7125ZM679.0781 205.9L680.25 203.44687L682.3125 203.44687L680.3906 205.9L679.0781 205.9ZM686.1875 219.97812L686.1875 207.07187L687.625 207.07187L687.625 208.275Q688.1406 207.57187 688.78125 207.2125Q689.4219 206.85312 690.3281 206.85312Q691.53125 206.85312 692.4375 207.47812Q693.3594 208.0875 693.8281 209.2125Q694.2969 210.32187 694.2969 211.66562Q694.2969 213.0875 693.78125 214.24374Q693.2656 215.38437 692.28125 216.00937Q691.2969 216.61874 690.21875 216.61874Q689.4375 216.61874 688.7969 216.29062Q688.1719 215.94687 687.7656 215.43124L687.7656 219.97812L686.1875 219.97812ZM687.625 211.79062Q687.625 213.5875 688.34375 214.44687Q689.0781 215.30624 690.1094 215.30624Q691.1719 215.30624 691.9219 214.41562Q692.6719 213.525 692.6719 211.65Q692.6719 209.86874 691.9375 208.97812Q691.2031 208.0875 690.1875 208.0875Q689.1719 208.0875 688.3906 209.04062Q687.625 209.97812 687.625 211.79062ZM707.1406 205.68124L704.09375 205.68124L704.09375 204.525L707.1406 204.525L707.1406 203.50937L708.7031 203.50937L708.7031 204.525L709.9844 204.525L709.9844 205.68124L708.7031 205.68124L708.7031 216.4L707.25 216.4L707.25 215.22812Q706.3594 216.61874 704.625 216.61874Q703.5156 216.61874 702.5781 216.00937Q701.6406 215.38437 701.125 214.29062Q700.6094 213.18124 700.6094 211.74374Q700.6094 210.3375 701.0781 209.2125Q701.5469 208.07187 702.46875 207.4625Q703.40625 206.85312 704.5625 206.85312Q705.40625 206.85312 706.0625 207.2125Q706.71875 207.57187 707.1406 208.13437L707.1406 205.68124ZM702.2344 211.74374Q702.2344 213.54062 702.9844 214.43124Q703.75 215.30624 704.78125 215.30624Q705.8125 215.30624 706.53125 214.4625Q707.2656 213.61874 707.2656 211.86874Q707.2656 209.9625 706.53125 209.07187Q705.7969 208.16562 704.71875 208.16562Q703.65625 208.16562 702.9375 209.025Q702.2344 209.88437 702.2344 211.74374ZM717.5781 213.4L719.21875 213.60312Q718.8281 215.025 717.78125 215.82187Q716.7344 216.61874 715.1094 216.61874Q713.0625 216.61874 711.8594 215.35312Q710.65625 214.0875 710.65625 211.80624Q710.65625 209.4625 711.8594 208.16562Q713.0781 206.85312 715.0156 206.85312Q716.8906 206.85312 718.0781 208.13437Q719.2656 209.4 719.2656 211.7125Q719.2656 211.85312 719.25 212.13437L712.2969 212.13437Q712.375 213.68124 713.15625 214.49374Q713.9531 215.30624 715.1094 215.30624Q715.9844 215.30624 716.59375 214.85312Q717.21875 214.4 717.5781 213.4ZM712.375 210.8375L717.59375 210.8375Q717.4844 209.66562 717.0 209.07187Q716.2344 208.15 715.03125 208.15Q713.9531 208.15 713.2031 208.88437Q712.46875 209.61874 712.375 210.8375ZM714.9844 204.41562L713.9844 205.9L712.1719 205.9L714.0781 203.44687L715.7656 203.44687L717.7344 205.9L715.9375 205.9L714.9844 204.41562ZM715.7656 202.80624L714.5 202.80624L712.46875 200.3375L714.5781 200.3375L715.7656 202.80624ZM725.125 216.4L728.5469 211.54062L725.3906 207.07187L727.3594 207.07187L728.7969 209.25937Q729.2031 209.88437 729.4531 210.30624Q729.8281 209.7125 730.15625 209.275L731.7344 207.07187L733.625 207.07187L730.3906 211.4625L733.875 216.4L731.9219 216.4L730.0156 213.49374L729.5 212.7125L727.0469 216.4L725.125 216.4ZM740.2969 216.4L740.2969 215.025Q739.21875 216.61874 737.34375 216.61874Q736.5156 216.61874 735.7969 216.30624Q735.0781 215.97812 734.7344 215.50937Q734.3906 215.025 734.25 214.32187Q734.15625 213.85312 734.15625 212.85312L734.15625 207.07187L735.7344 207.07187L735.7344 212.24374Q735.7344 213.47812 735.8281 213.91562Q735.9844 214.54062 736.46875 214.9Q736.9531 215.24374 737.65625 215.24374Q738.375 215.24374 739.0 214.88437Q739.625 214.525 739.875 213.9Q740.1406 213.25937 740.1406 212.07187L740.1406 207.07187L741.71875 207.07187L741.71875 216.4L740.2969 216.4ZM750.28125 215.24374Q749.40625 215.99374 748.5781 216.30624Q747.7656 216.61874 746.84375 216.61874Q745.2969 216.61874 744.46875 215.86874Q743.65625 215.10312 743.65625 213.93124Q743.65625 213.25937 743.96875 212.69687Q744.28125 212.11874 744.78125 211.775Q745.28125 211.43124 745.9219 211.25937Q746.3906 211.13437 747.3281 211.025Q749.2344 210.79062 750.1406 210.47812Q750.15625 210.15 750.15625 210.05624Q750.15625 209.10312 749.7031 208.69687Q749.09375 208.16562 747.90625 208.16562Q746.78125 208.16562 746.25 208.55624Q745.71875 208.94687 745.46875 209.94687L743.9219 209.72812Q744.1406 208.72812 744.6094 208.11874Q745.09375 207.50937 746.0 207.18124Q746.9219 206.85312 748.1406 206.85312Q749.3281 206.85312 750.0781 207.13437Q750.8281 207.41562 751.1719 207.85312Q751.53125 208.275 751.6719 208.91562Q751.75 209.32187 751.75 210.38437L751.75 212.49374Q751.75 214.69687 751.84375 215.29062Q751.9531 215.86874 752.25 216.4L750.59375 216.4Q750.34375 215.9 750.28125 215.24374ZM750.1406 211.7125Q749.28125 212.07187 747.5625 212.30624Q746.59375 212.44687 746.1875 212.63437Q745.78125 212.80624 745.5625 213.15Q745.34375 213.47812 745.34375 213.9Q745.34375 214.525 745.8125 214.94687Q746.2969 215.36874 747.21875 215.36874Q748.1406 215.36874 748.84375 214.97812Q749.5625 214.57187 749.8906 213.88437Q750.1406 213.3375 750.1406 212.29062L750.1406 211.7125ZM747.9844 204.41562L746.9844 205.9L745.1719 205.9L747.0781 203.44687L748.7656 203.44687L750.7344 205.9L748.9375 205.9L747.9844 204.41562ZM748.25 200.3375L750.375 200.3375L748.34375 202.80624L747.0625 202.80624L748.25 200.3375ZM757.6406 214.97812L757.875 216.38437Q757.2031 216.525 756.6719 216.525Q755.8125 216.525 755.3281 216.25937Q754.8594 215.97812 754.6719 215.54062Q754.4844 215.0875 754.4844 213.66562L754.4844 208.29062L753.3125 208.29062L753.3125 207.07187L754.4844 207.07187L754.4844 204.75937L756.0469 203.80624L756.0469 207.07187L757.6406 207.07187L757.6406 208.29062L756.0469 208.29062L756.0469 213.75937Q756.0469 214.43124 756.125 214.63437Q756.21875 214.82187 756.40625 214.93124Q756.59375 215.04062 756.9531 215.04062Q757.2031 215.04062 757.6406 214.97812Z" fill-rule="nonzero"/></svg>