<svg version="1.1" viewBox="0.0 0.0 1038.0 232.0" fill="none" stroke="none" stroke-linecap="square" stroke-miterlimit="10" width="1038" height="232" xmlns:xlink="http://www.w3.org/1999/xlink" xmlns="http://www.w3.org/2000/svg"><path fill="#ffffff" d="M0 0L1038.0 0L1038.0 232.0L0 232.0L0 0Z" fill-rule="nonzero"/><path stroke="#333333" stroke-width="1.0" stroke-linecap="butt" d="M75.5 154.5L1026.5 154.5" fill-rule="nonzero"/><path stroke="#cccccc" stroke-width="1.0" stroke-linecap="butt" d="M75.5 120.5L1026.5 120.5" fill-rule="nonzero"/><path stroke="#cccccc" stroke-width="1.0" stroke-linecap="butt" d="M75.5 86.5L1026.5 86.5" fill-rule="nonzero"/><path stroke="#cccccc" stroke-width="1.0" stroke-linecap="butt" d="M75.5 52.5L1026.5 52.5" fill-rule="nonzero"/><path stroke="#cccccc" stroke-width="1.0" stroke-linecap="butt" d="M75.5 18.5L1026.5 18.5" fill-rule="nonzero"/><clipPath id="id_0"><path d="M75.6 18.6L1026.4 18.6L1026.4 154.66667L75.6 154.66667L75.6 18.6Z" clip-rule="nonzero"/></clipPath><path stroke="#ff0000" stroke-width="2.0" stroke-linecap="butt" stroke-dasharray="2.0,3.0" clip-path="url(#id_0)" d="M97.20909 132.98463L140.42728 118.76267L183.64546 152.14622L226.86363 123.634735L270.08182 80.207565L313.3 150.14621L356.5182 78.34856L399.73636 148.85254L442.95456 152.74217L486.17273 148.75746L529.3909 89.64891L572.6091 147.82983L615.8273 146.42868L659.0455 143.54321L702.2636 137.59166L745.4818 139.25032L788.7 129.93246L831.91815 21.257042L875.13635 91.31624L918.35455 144.30467L961.57275 151.497L1004.7909 121.539024" fill-rule="nonzero"/><path stroke="#0000ff" stroke-width="2.0" stroke-linecap="butt" clip-path="url(#id_0)" d="M97.20909 148.11081L140.42728 135.45406L183.64546 135.74881L226.86363 134.3565L270.08182 135.33516L313.3 151.37488L356.5182 143.04352L399.73636 148.58856L442.95456 58.838825L486.17273 150.99883L529.3909 137.94135L572.6091 148.17L615.8273 148.69777L659.0455 140.82138L702.2636 141.61804L745.4818 142.4831L788.7 146.68874L831.91815 141.07309L875.13635 141.58862L918.35455 66.6965L961.57275 133.36237L1004.7909 129.3729" fill-rule="nonzero"/><path fill="#000000" fill-opacity="0.0" clip-path="url(#id_0)" d="M100.20909 132.98463C100.20909 134.6415 98.865944 135.98463 97.20909 135.98463C95.55224 135.98463 94.20909 134.6415 94.20909 132.98463C94.20909 131.32779 95.55224 129.98463 97.20909 129.98463C98.865944 129.98463 100.20909 131.32779 100.20909 132.98463Z" fill-rule="nonzero"/><path fill="#000000" fill-opacity="0.0" clip-path="url(#id_0)" d="M143.42728 118.76267C143.42728 120.419525 142.08412 121.76267 140.42728 121.76267C138.77042 121.76267 137.42728 120.419525 137.42728 118.76267C137.42728 117.10581 138.77042 115.76267 140.42728 115.76267C142.08412 115.76267 143.42728 117.10581 143.42728 118.76267Z" fill-rule="nonzero"/><path fill="#000000" fill-opacity="0.0" clip-path="url(#id_0)" d="M186.64546 152.14622C186.64546 153.80307 185.3023 155.14622 183.64546 155.14622C181.9886 155.14622 180.64546 153.80307 180.64546 152.14622C180.64546 150.48936 181.9886 149.14622 183.64546 149.14622C185.3023 149.14622 186.64546 150.48936 186.64546 152.14622Z" fill-rule="nonzero"/><path fill="#000000" fill-opacity="0.0" clip-path="url(#id_0)" d="M229.86363 123.634735C229.86363 125.29159 228.5205 126.634735 226.86363 126.634735C225.20679 126.634735 223.86363 125.29159 223.86363 123.634735C223.86363 121.97788 225.20679 120.634735 226.86363 120.634735C228.5205 120.634735 229.86363 121.97788 229.86363 123.634735Z" fill-rule="nonzero"/><path fill="#000000" fill-opacity="0.0" clip-path="url(#id_0)" d="M273.08182 80.207565C273.08182 81.864426 271.73868 83.207565 270.08182 83.207565C268.42496 83.207565 267.08182 81.864426 267.08182 80.207565C267.08182 78.55071 268.42496 77.207565 270.08182 77.207565C271.73868 77.207565 273.08182 78.55071 273.08182 80.207565Z" fill-rule="nonzero"/><path fill="#000000" fill-opacity="0.0" clip-path="url(#id_0)" d="M316.3 150.14621C316.3 151.80307 314.95685 153.14621 313.3 153.14621C311.64316 153.14621 310.3 151.80307 310.3 150.14621C310.3 148.48936 311.64316 147.14621 313.3 147.14621C314.95685 147.14621 316.3 148.48936 316.3 150.14621Z" fill-rule="nonzero"/><path fill="#000000" fill-opacity="0.0" clip-path="url(#id_0)" d="M359.5182 78.34856C359.5182 80.00541 358.17505 81.34856 356.5182 81.34856C354.86133 81.34856 353.5182 80.00541 353.5182 78.34856C353.5182 76.6917 354.86133 75.34856 356.5182 75.34856C358.17505 75.34856 359.5182 76.6917 359.5182 78.34856Z" fill-rule="nonzero"/><path fill="#000000" fill-opacity="0.0" clip-path="url(#id_0)" d="M402.73636 148.85254C402.73636 150.5094 401.39322 151.85254 399.73636 151.85254C398.0795 151.85254 396.73636 150.5094 396.73636 148.85254C396.73636 147.19568 398.0795 145.85254 399.73636 145.85254C401.39322 145.85254 402.73636 147.19568 402.73636 148.85254Z" fill-rule="nonzero"/><path fill="#000000" fill-opacity="0.0" clip-path="url(#id_0)" d="M445.95456 152.74217C445.95456 154.39903 444.6114 155.74217 442.95456 155.74217C441.2977 155.74217 439.95456 154.39903 439.95456 152.74217C439.95456 151.08531 441.2977 149.74217 442.95456 149.74217C444.6114 149.74217 445.95456 151.08531 445.95456 152.74217Z" fill-rule="nonzero"/><path fill="#000000" fill-opacity="0.0" clip-path="url(#id_0)" d="M489.17273 148.75746C489.17273 150.41432 487.8296 151.75746 486.17273 151.75746C484.51587 151.75746 483.17273 150.41432 483.17273 148.75746C483.17273 147.1006 484.51587 145.75746 486.17273 145.75746C487.8296 145.75746 489.17273 147.1006 489.17273 148.75746Z" fill-rule="nonzero"/><path fill="#000000" fill-opacity="0.0" clip-path="url(#id_0)" d="M532.3909 89.64891C532.3909 91.30576 531.0478 92.64891 529.3909 92.64891C527.7341 92.64891 526.3909 91.30576 526.3909 89.64891C526.3909 87.99206 527.7341 86.64891 529.3909 86.64891C531.0478 86.64891 532.3909 87.99206 532.3909 89.64891Z" fill-rule="nonzero"/><path fill="#000000" fill-opacity="0.0" clip-path="url(#id_0)" d="M575.6091 147.82983C575.6091 149.48668 574.2659 150.82983 572.6091 150.82983C570.9522 150.82983 569.6091 149.48668 569.6091 147.82983C569.6091 146.17297 570.9522 144.82983 572.6091 144.82983C574.2659 144.82983 575.6091 146.17297 575.6091 147.82983Z" fill-rule="nonzero"/><path fill="#000000" fill-opacity="0.0" clip-path="url(#id_0)" d="M618.8273 146.42868C618.8273 148.08554 617.48413 149.42868 615.8273 149.42868C614.1704 149.42868 612.8273 148.08554 612.8273 146.42868C612.8273 144.77182 614.1704 143.42868 615.8273 143.42868C617.48413 143.42868 618.8273 144.77182 618.8273 146.42868Z" fill-rule="nonzero"/><path fill="#000000" fill-opacity="0.0" clip-path="url(#id_0)" d="M662.0455 143.54321C662.0455 145.20007 660.70233 146.54321 659.0455 146.54321C657.3886 146.54321 656.0455 145.20007 656.0455 143.54321C656.0455 141.88637 657.3886 140.54321 659.0455 140.54321C660.70233 140.54321 662.0455 141.88637 662.0455 143.54321Z" fill-rule="nonzero"/><path fill="#000000" fill-opacity="0.0" clip-path="url(#id_0)" d="M705.2636 137.59166C705.2636 139.24852 703.9205 140.59166 702.2636 140.59166C700.6068 140.59166 699.2636 139.24852 699.2636 137.59166C699.2636 135.9348 700.6068 134.59166 702.2636 134.59166C703.9205 134.59166 705.2636 135.9348 705.2636 137.59166Z" fill-rule="nonzero"/><path fill="#000000" fill-opacity="0.0" clip-path="url(#id_0)" d="M748.4818 139.25032C748.4818 140.90717 747.1387 142.25032 745.4818 142.25032C743.82495 142.25032 742.4818 140.90717 742.4818 139.25032C742.4818 137.59346 743.82495 136.25032 745.4818 136.25032C747.1387 136.25032 748.4818 137.59346 748.4818 139.25032Z" fill-rule="nonzero"/><path fill="#000000" fill-opacity="0.0" clip-path="url(#id_0)" d="M791.7 129.93246C791.7 131.58932 790.3569 132.93246 788.7 132.93246C787.04315 132.93246 785.7 131.58932 785.7 129.93246C785.7 128.27562 787.04315 126.932465 788.7 126.932465C790.3569 126.932465 791.7 128.27562 791.7 129.93246Z" fill-rule="nonzero"/><path fill="#000000" fill-opacity="0.0" clip-path="url(#id_0)" d="M834.91815 21.257042C834.91815 22.913897 833.575 24.257042 831.91815 24.257042C830.26135 24.257042 828.91815 22.913897 828.91815 21.257042C828.91815 19.600187 830.26135 18.257042 831.91815 18.257042C833.575 18.257042 834.91815 19.600187 834.91815 21.257042Z" fill-rule="nonzero"/><path fill="#000000" fill-opacity="0.0" clip-path="url(#id_0)" d="M878.13635 91.31624C878.13635 92.97309 876.7932 94.31624 875.13635 94.31624C873.4795 94.31624 872.13635 92.97309 872.13635 91.31624C872.13635 89.659386 873.4795 88.31624 875.13635 88.31624C876.7932 88.31624 878.13635 89.659386 878.13635 91.31624Z" fill-rule="nonzero"/><path fill="#000000" fill-opacity="0.0" clip-path="url(#id_0)" d="M921.35455 144.30467C921.35455 145.96153 920.0114 147.30467 918.35455 147.30467C916.6977 147.30467 915.35455 145.96153 915.35455 144.30467C915.35455 142.64783 916.6977 141.30467 918.35455 141.30467C920.0114 141.30467 921.35455 142.64783 921.35455 144.30467Z" fill-rule="nonzero"/><path fill="#000000" fill-opacity="0.0" clip-path="url(#id_0)" d="M964.57275 151.497C964.57275 153.15385 963.22955 154.497 961.57275 154.497C959.9159 154.497 958.57275 153.15385 958.57275 151.497C958.57275 149.84013 959.9159 148.497 961.57275 148.497C963.22955 148.497 964.57275 149.84013 964.57275 151.497Z" fill-rule="nonzero"/><path fill="#000000" fill-opacity="0.0" clip-path="url(#id_0)" d="M1007.7909 121.539024C1007.7909 123.19588 1006.44775 124.539024 1004.7909 124.539024C1003.13403 124.539024 1001.7909 123.19588 1001.7909 121.539024C1001.7909 119.88217 1003.13403 118.539024 1004.7909 118.539024C1006.44775 118.539024 1007.7909 119.88217 1007.7909 121.539024Z" fill-rule="nonzero"/><path fill="#000000" fill-opacity="0.0" clip-path="url(#id_0)" d="M100.20909 148.11081C100.20909 149.76765 98.865944 151.11081 97.20909 151.11081C95.55224 151.11081 94.20909 149.76765 94.20909 148.11081C94.20909 146.45395 95.55224 145.11081 97.20909 145.11081C98.865944 145.11081 100.20909 146.45395 100.20909 148.11081Z" fill-rule="nonzero"/><path fill="#000000" fill-opacity="0.0" clip-path="url(#id_0)" d="M143.42728 135.45406C143.42728 137.1109 142.08412 138.45406 140.42728 138.45406C138.77042 138.45406 137.42728 137.1109 137.42728 135.45406C137.42728 133.7972 138.77042 132.45406 140.42728 132.45406C142.08412 132.45406 143.42728 133.7972 143.42728 135.45406Z" fill-rule="nonzero"/><path fill="#000000" fill-opacity="0.0" clip-path="url(#id_0)" d="M186.64546 135.74881C186.64546 137.40565 185.3023 138.74881 183.64546 138.74881C181.9886 138.74881 180.64546 137.40565 180.64546 135.74881C180.64546 134.09195 181.9886 132.74881 183.64546 132.74881C185.3023 132.74881 186.64546 134.09195 186.64546 135.74881Z" fill-rule="nonzero"/><path fill="#000000" fill-opacity="0.0" clip-path="url(#id_0)" d="M229.86363 134.3565C229.86363 136.01337 228.5205 137.3565 226.86363 137.3565C225.20679 137.3565 223.86363 136.01337 223.86363 134.3565C223.86363 132.69965 225.20679 131.3565 226.86363 131.3565C228.5205 131.3565 229.86363 132.69965 229.86363 134.3565Z" fill-rule="nonzero"/><path fill="#000000" fill-opacity="0.0" clip-path="url(#id_0)" d="M273.08182 135.33516C273.08182 136.99202 271.73868 138.33516 270.08182 138.33516C268.42496 138.33516 267.08182 136.99202 267.08182 135.33516C267.08182 133.67831 268.42496 132.33516 270.08182 132.33516C271.73868 132.33516 273.08182 133.67831 273.08182 135.33516Z" fill-rule="nonzero"/><path fill="#000000" fill-opacity="0.0" clip-path="url(#id_0)" d="M316.3 151.37488C316.3 153.03172 314.95685 154.37488 313.3 154.37488C311.64316 154.37488 310.3 153.03172 310.3 151.37488C310.3 149.71802 311.64316 148.37488 313.3 148.37488C314.95685 148.37488 316.3 149.71802 316.3 151.37488Z" fill-rule="nonzero"/><path fill="#000000" fill-opacity="0.0" clip-path="url(#id_0)" d="M359.5182 143.04352C359.5182 144.70036 358.17505 146.04352 356.5182 146.04352C354.86133 146.04352 353.5182 144.70036 353.5182 143.04352C353.5182 141.38666 354.86133 140.04352 356.5182 140.04352C358.17505 140.04352 359.5182 141.38666 359.5182 143.04352Z" fill-rule="nonzero"/><path fill="#000000" fill-opacity="0.0" clip-path="url(#id_0)" d="M402.73636 148.58856C402.73636 150.24542 401.39322 151.58856 399.73636 151.58856C398.0795 151.58856 396.73636 150.24542 396.73636 148.58856C396.73636 146.93172 398.0795 145.58856 399.73636 145.58856C401.39322 145.58856 402.73636 146.93172 402.73636 148.58856Z" fill-rule="nonzero"/><path fill="#000000" fill-opacity="0.0" clip-path="url(#id_0)" d="M445.95456 58.838825C445.95456 60.495678 444.6114 61.838825 442.95456 61.838825C441.2977 61.838825 439.95456 60.495678 439.95456 58.838825C439.95456 57.181973 441.2977 55.838825 442.95456 55.838825C444.6114 55.838825 445.95456 57.181973 445.95456 58.838825Z" fill-rule="nonzero"/><path fill="#000000" fill-opacity="0.0" clip-path="url(#id_0)" d="M489.17273 150.99883C489.17273 152.65567 487.8296 153.99883 486.17273 153.99883C484.51587 153.99883 483.17273 152.65567 483.17273 150.99883C483.17273 149.34196 484.51587 147.99883 486.17273 147.99883C487.8296 147.99883 489.17273 149.34196 489.17273 150.99883Z" fill-rule="nonzero"/><path fill="#000000" fill-opacity="0.0" clip-path="url(#id_0)" d="M532.3909 137.94135C532.3909 139.5982 531.0478 140.94135 529.3909 140.94135C527.7341 140.94135 526.3909 139.5982 526.3909 137.94135C526.3909 136.2845 527.7341 134.94135 529.3909 134.94135C531.0478 134.94135 532.3909 136.2845 532.3909 137.94135Z" fill-rule="nonzero"/><path fill="#000000" fill-opacity="0.0" clip-path="url(#id_0)" d="M575.6091 148.17C575.6091 149.82684 574.2659 151.17 572.6091 151.17C570.9522 151.17 569.6091 149.82684 569.6091 148.17C569.6091 146.51314 570.9522 145.17 572.6091 145.17C574.2659 145.17 575.6091 146.51314 575.6091 148.17Z" fill-rule="nonzero"/><path fill="#000000" fill-opacity="0.0" clip-path="url(#id_0)" d="M618.8273 148.69777C618.8273 150.35461 617.48413 151.69777 615.8273 151.69777C614.1704 151.69777 612.8273 150.35461 612.8273 148.69777C612.8273 147.04091 614.1704 145.69777 615.8273 145.69777C617.48413 145.69777 618.8273 147.04091 618.8273 148.69777Z" fill-rule="nonzero"/><path fill="#000000" fill-opacity="0.0" clip-path="url(#id_0)" d="M662.0455 140.82138C662.0455 142.47823 660.70233 143.82138 659.0455 143.82138C657.3886 143.82138 656.0455 142.47823 656.0455 140.82138C656.0455 139.16452 657.3886 137.82138 659.0455 137.82138C660.70233 137.82138 662.0455 139.16452 662.0455 140.82138Z" fill-rule="nonzero"/><path fill="#000000" fill-opacity="0.0" clip-path="url(#id_0)" d="M705.2636 141.61804C705.2636 143.2749 703.9205 144.61804 702.2636 144.61804C700.6068 144.61804 699.2636 143.2749 699.2636 141.61804C699.2636 139.96118 700.6068 138.61804 702.2636 138.61804C703.9205 138.61804 705.2636 139.96118 705.2636 141.61804Z" fill-rule="nonzero"/><path fill="#000000" fill-opacity="0.0" clip-path="url(#id_0)" d="M748.4818 142.4831C748.4818 144.13994 747.1387 145.4831 745.4818 145.4831C743.82495 145.4831 742.4818 144.13994 742.4818 142.4831C742.4818 140.82623 743.82495 139.4831 745.4818 139.4831C747.1387 139.4831 748.4818 140.82623 748.4818 142.4831Z" fill-rule="nonzero"/><path fill="#000000" fill-opacity="0.0" clip-path="url(#id_0)" d="M791.7 146.68874C791.7 148.3456 790.3569 149.68874 788.7 149.68874C787.04315 149.68874 785.7 148.3456 785.7 146.68874C785.7 145.03189 787.04315 143.68874 788.7 143.68874C790.3569 143.68874 791.7 145.03189 791.7 146.68874Z" fill-rule="nonzero"/><path fill="#000000" fill-opacity="0.0" clip-path="url(#id_0)" d="M834.91815 141.07309C834.91815 142.72995 833.575 144.07309 831.91815 144.07309C830.26135 144.07309 828.91815 142.72995 828.91815 141.07309C828.91815 139.41624 830.26135 138.07309 831.91815 138.07309C833.575 138.07309 834.91815 139.41624 834.91815 141.07309Z" fill-rule="nonzero"/><path fill="#000000" fill-opacity="0.0" clip-path="url(#id_0)" d="M878.13635 141.58862C878.13635 143.24547 876.7932 144.58862 875.13635 144.58862C873.4795 144.58862 872.13635 143.24547 872.13635 141.58862C872.13635 139.93176 873.4795 138.58862 875.13635 138.58862C876.7932 138.58862 878.13635 139.93176 878.13635 141.58862Z" fill-rule="nonzero"/><path fill="#000000" fill-opacity="0.0" clip-path="url(#id_0)" d="M921.35455 66.6965C921.35455 68.35336 920.0114 69.6965 918.35455 69.6965C916.6977 69.6965 915.35455 68.35336 915.35455 66.6965C915.35455 65.03965 916.6977 63.696507 918.35455 63.696507C920.0114 63.696507 921.35455 65.03965 921.35455 66.6965Z" fill-rule="nonzero"/><path fill="#000000" fill-opacity="0.0" clip-path="url(#id_0)" d="M964.57275 133.36237C964.57275 135.01923 963.22955 136.36237 961.57275 136.36237C959.9159 136.36237 958.57275 135.01923 958.57275 133.36237C958.57275 131.70552 959.9159 130.36237 961.57275 130.36237C963.22955 130.36237 964.57275 131.70552 964.57275 133.36237Z" fill-rule="nonzero"/><path fill="#000000" fill-opacity="0.0" clip-path="url(#id_0)" d="M1007.7909 129.3729C1007.7909 131.02975 1006.44775 132.3729 1004.7909 132.3729C1003.13403 132.3729 1001.7909 131.02975 1001.7909 129.3729C1001.7909 127.71604 1003.13403 126.372894 1004.7909 126.372894C1006.44775 126.372894 1007.7909 127.71604 1007.7909 129.3729Z" fill-rule="nonzero"/><path fill="#000000" d="M502.57812 195.66667L502.57812 191.10417L501.48438 191.10417L501.48438 190.19792L502.57812 190.19792L502.57812 185.65105L506.04688 185.65105Q507.20312 185.65105 507.8125 185.79167Q508.67188 185.97917 509.28125 186.51042Q510.07812 187.1823 510.46875 188.22917Q510.85938 189.26042 510.85938 190.60417Q510.85938 192.13542 510.375 193.2448Q509.89062 194.33855 509.21875 194.83855Q508.54688 195.33855 507.65625 195.5573Q507.17188 195.66667 506.20312 195.66667L502.57812 195.66667ZM503.90625 194.47917L506.04688 194.47917Q507.04688 194.47917 507.60938 194.3073Q508.17188 194.1198 508.5 193.79167Q508.96875 193.3073 509.23438 192.52605Q509.5 191.72917 509.5 190.58855Q509.5 189.41667 509.23438 188.71355Q508.96875 188.01042 508.54688 187.58855Q508.125 187.15105 507.59375 186.9948Q507.07812 186.82292 506.01562 186.82292L503.90625 186.82292L503.90625 190.19792L506.67188 190.19792L506.67188 191.10417L503.90625 191.10417L503.90625 194.47917ZM513.2344 192.04167Q513.2344 193.38542 513.84375 194.1198Q514.40625 194.82292 515.375 194.82292Q516.3281 194.82292 516.8906 194.1198Q517.5 193.3698 517.5 191.9948Q517.5 190.6823 516.8906 189.96355Q516.3125 189.26042 515.375 189.26042Q514.40625 189.26042 513.84375 189.94792Q513.2344 190.6823 513.2344 192.04167ZM518.9375 189.65105L518.9375 188.22917L520.25 188.22917L520.25 189.35417Q520.25 190.19792 519.9844 190.65105Q519.65625 191.2448 518.7656 191.72917Q518.7656 191.83855 518.7656 191.9323Q518.7656 194.47917 517.125 195.38542Q516.3125 195.83855 515.375 195.83855Q513.8125 195.83855 512.90625 194.85417Q511.96875 193.83855 511.96875 192.04167Q511.96875 190.02605 513.09375 189.04167Q514.0156 188.2448 515.375 188.2448Q516.8594 188.2448 517.8125 189.21355Q518.53125 189.96355 518.71875 191.13542Q519.1719 190.85417 519.375 190.5573Q519.5781 190.2448 519.5781 189.65105L518.9375 189.65105ZM521.4219 195.66667L521.4219 188.40105L522.53125 188.40105L522.53125 189.4323Q523.3281 188.2448 524.84375 188.2448Q525.5 188.2448 526.0469 188.47917Q526.59375 188.71355 526.8594 189.10417Q527.1406 189.47917 527.25 190.01042Q527.3281 190.35417 527.3281 191.19792L527.3281 195.66667L526.09375 195.66667L526.09375 191.2448Q526.09375 190.4948 525.9531 190.13542Q525.8125 189.76042 525.4375 189.54167Q525.0781 189.3073 524.5781 189.3073Q523.7969 189.3073 523.21875 189.8073Q522.65625 190.3073 522.65625 191.69792L522.65625 195.66667L521.4219 195.66667ZM535.4375 195.66667L532.6719 188.40105L533.9844 188.40105L535.53125 192.76042Q535.78125 193.46355 536.0 194.21355Q536.1719 193.63542 536.4531 192.83855L538.0781 188.40105L539.34375 188.40105L536.59375 195.66667L535.4375 195.66667ZM540.4375 187.0573L540.4375 185.65105L541.65625 185.65105L541.65625 187.0573L540.4375 187.0573ZM540.4375 195.66667L540.4375 188.40105L541.65625 188.40105L541.65625 195.66667L540.4375 195.66667ZM540.34375 197.88542L540.34375 196.4948L541.75 196.4948L541.75 197.88542L540.34375 197.88542ZM547.4375 195.66667L547.4375 185.65105L548.65625 185.65105L548.65625 191.35417L551.5781 188.40105L553.1719 188.40105L550.3906 191.10417L553.4531 195.66667L551.9219 195.66667L549.53125 191.94792L548.65625 192.79167L548.65625 195.66667L547.4375 195.66667ZM554.4375 187.0573L554.4375 185.65105L555.65625 185.65105L555.65625 187.0573L554.4375 187.0573ZM554.4375 195.66667L554.4375 188.40105L555.65625 188.40105L555.65625 195.66667L554.4375 195.66667ZM562.3906 193.32292L563.6719 193.47917Q563.3594 194.60417 562.5469 195.22917Q561.7344 195.83855 560.46875 195.83855Q558.875 195.83855 557.9375 194.85417Q557.0156 193.8698 557.0156 192.10417Q557.0156 190.26042 557.9531 189.26042Q558.90625 188.2448 560.40625 188.2448Q561.8594 188.2448 562.78125 189.2448Q563.7031 190.22917 563.7031 192.02605Q563.7031 192.13542 563.7031 192.35417L558.28125 192.35417Q558.3594 193.54167 558.9531 194.1823Q559.5625 194.82292 560.4844 194.82292Q561.15625 194.82292 561.625 194.46355Q562.1094 194.10417 562.3906 193.32292ZM558.3594 191.33855L562.40625 191.33855Q562.3281 190.41667 561.9375 189.96355Q561.3594 189.26042 560.4219 189.26042Q559.5625 189.26042 558.9844 189.82292Q558.4219 190.38542 558.3594 191.33855ZM560.3906 186.33855L559.6094 187.51042L558.2031 187.51042L559.6719 185.58855L560.9844 185.58855L562.53125 187.51042L561.1406 187.51042L560.3906 186.33855ZM559.9844 184.5573Q560.375 184.52605 560.4844 184.4948Q560.84375 184.40105 560.84375 184.21355Q560.8594 184.0573 560.65625 183.94792Q560.375 183.79167 559.75 183.79167Q559.53125 183.79167 559.1094 183.8073L559.03125 183.16667Q559.2969 183.1198 560.0156 183.1198Q560.8594 183.13542 561.3906 183.40105Q561.96875 183.6823 561.9844 184.13542Q562.0156 184.83855 560.75 184.9948L560.75 185.32292L559.9844 185.32292L559.9844 184.5573ZM565.4219 195.66667L565.4219 188.40105L566.53125 188.40105L566.53125 189.4323Q566.8594 188.88542 567.4219 188.57292Q568.0 188.2448 568.71875 188.2448Q569.53125 188.2448 570.0469 188.58855Q570.5625 188.91667 570.78125 189.51042Q571.6406 188.2448 573.0156 188.2448Q574.09375 188.2448 574.6719 188.83855Q575.2656 189.4323 575.2656 190.6823L575.2656 195.66667L574.03125 195.66667L574.03125 191.08855Q574.03125 190.35417 573.90625 190.02605Q573.7969 189.69792 573.4844 189.51042Q573.1719 189.3073 572.75 189.3073Q571.9844 189.3073 571.46875 189.82292Q570.96875 190.32292 570.96875 191.44792L570.96875 195.66667L569.7344 195.66667L569.7344 190.94792Q569.7344 190.13542 569.4375 189.72917Q569.1406 189.3073 568.4531 189.3073Q567.9375 189.3073 567.4844 189.58855Q567.0469 189.85417 566.84375 190.38542Q566.65625 190.90105 566.65625 191.90105L566.65625 195.66667L565.4219 195.66667ZM583.1094 194.57292L583.28125 195.65105Q582.7656 195.76042 582.3594 195.76042Q581.6875 195.76042 581.3125 195.5573Q580.9531 195.33855 580.7969 194.9948Q580.65625 194.65105 580.65625 193.54167L580.65625 189.3698L579.75 189.3698L579.75 188.40105L580.65625 188.40105L580.65625 186.60417L581.875 185.8698L581.875 188.40105L583.1094 188.40105L583.1094 189.3698L581.875 189.3698L581.875 193.60417Q581.875 194.13542 581.9375 194.29167Q582.0 194.4323 582.1406 194.52605Q582.2969 194.6198 582.5625 194.6198Q582.78125 194.6198 583.1094 194.57292ZM584.4219 195.66667L584.4219 185.65105L585.65625 185.65105L585.65625 189.2448Q586.5156 188.2448 587.8281 188.2448Q588.6406 188.2448 589.2344 188.57292Q589.8281 188.88542 590.0781 189.44792Q590.34375 189.9948 590.34375 191.07292L590.34375 195.66667L589.1094 195.66667L589.1094 191.07292Q589.1094 190.13542 588.7031 189.72917Q588.3125 189.3073 587.5781 189.3073Q587.03125 189.3073 586.5469 189.58855Q586.0625 189.8698 585.8594 190.35417Q585.65625 190.83855 585.65625 191.69792L585.65625 195.66667L584.4219 195.66667ZM599.125 189.83855L599.125 188.40105L600.4531 188.40105L600.4531 189.54167Q600.4531 190.60417 600.2031 191.02605Q599.5781 192.1198 598.28125 192.26042L598.28125 195.66667L597.1875 195.66667L597.1875 194.60417Q596.3281 195.83855 594.875 195.83855Q594.2344 195.83855 593.6719 195.58855Q593.125 195.33855 592.84375 194.96355Q592.5781 194.58855 592.46875 194.0573Q592.3906 193.6823 592.3906 192.90105L592.3906 188.40105L593.625 188.40105L593.625 192.4323Q593.625 193.41667 593.7031 193.72917Q593.9375 194.77605 595.125 194.77605Q595.6875 194.77605 596.1719 194.4948Q596.65625 194.19792 596.84375 193.71355Q597.0469 193.22917 597.0469 192.29167L597.0469 188.40105L598.28125 188.40105L598.28125 191.7448Q599.15625 191.58855 599.5781 190.9323Q599.7656 190.63542 599.7656 189.83855L599.125 189.83855ZM594.9531 186.6823Q595.34375 186.63542 595.4531 186.60417Q595.8125 186.47917 595.8281 186.22917Q595.8281 186.07292 595.625 185.96355Q595.34375 185.8073 594.71875 185.8073Q594.5156 185.8073 594.0781 185.82292L594.0 185.13542Q594.2656 185.07292 594.9844 185.08855Q595.8281 185.08855 596.3594 185.35417Q596.9531 185.65105 596.96875 186.15105Q597.0 187.01042 595.71875 187.16667L595.71875 187.51042L594.9531 187.51042L594.9531 186.6823Z" fill-rule="nonzero"/><path fill="#000000" d="M24.600004 133.00833L15.756255 133.00833L15.756255 136.3052L14.58438 136.3052L14.58438 128.3677L15.756255 128.3677L15.756255 131.6802L24.600004 131.6802L24.600004 133.00833ZM24.600004 126.71146L14.58438 126.71146L14.58438 125.47708L18.17813 125.47708Q17.17813 124.61771 17.17813 123.30521Q17.17813 122.49271 17.506254 121.89896Q17.818754 121.30521 18.381254 121.05521Q18.92813 120.78958 20.006254 120.78958L24.600004 120.78958L24.600004 122.02396L20.006254 122.02396Q19.068754 122.02396 18.662504 122.43021Q18.24063 122.82083 18.24063 123.55521Q18.24063 124.10208 18.52188 124.58646Q18.80313 125.07083 19.287504 125.27396Q19.77188 125.47708 20.631254 125.47708L24.600004 125.47708L24.600004 126.71146ZM20.975004 117.89896Q22.318754 117.89896 23.05313 117.28958Q23.756254 116.72708 23.756254 115.75833Q23.756254 114.80521 23.05313 114.24271Q22.30313 113.63333 20.92813 113.63333Q19.61563 113.63333 18.89688 114.24271Q18.193754 114.82083 18.193754 115.75833Q18.193754 116.72708 18.881254 117.28958Q19.61563 117.89896 20.975004 117.89896ZM18.58438 112.19583L17.162504 112.19583L17.162504 110.88333L18.287504 110.88333Q19.131254 110.88333 19.58438 111.14896Q20.17813 111.47708 20.662504 112.36771Q20.77188 112.36771 20.86563 112.36771Q23.412504 112.36771 24.318754 114.00833Q24.77188 114.82083 24.77188 115.75833Q24.77188 117.32083 23.787504 118.22708Q22.77188 119.16458 20.975004 119.16458Q18.95938 119.16458 17.975004 118.03958Q17.17813 117.11771 17.17813 115.75833Q17.17813 114.27396 18.14688 113.32083Q18.89688 112.60208 20.068754 112.41458Q19.787504 111.96146 19.49063 111.75833Q19.17813 111.55521 18.58438 111.55521L18.58438 112.19583ZM16.443754 114.94583L16.443754 115.93021L14.52188 117.50833L14.52188 115.86771L16.443754 114.94583ZM15.99063 109.69583L14.58438 109.69583L14.58438 108.47709L15.99063 108.47709L15.99063 109.69583ZM24.600004 109.69583L17.33438 109.69583L17.33438 108.47709L24.600004 108.47709L24.600004 109.69583ZM25.20938 102.930214L25.381254 101.742714Q25.92813 101.66459 26.193754 101.32084Q26.52188 100.867714 26.52188 100.07084Q26.52188 99.211464 26.17813 98.75834Q25.850004 98.28959 25.225004 98.117714Q24.850004 98.023964 23.64688 98.03959Q24.600004 98.836464 24.600004 100.03959Q24.600004 101.53959 23.52188 102.367714Q22.443754 103.180214 20.92813 103.180214Q19.89688 103.180214 19.02188 102.805214Q18.131254 102.430214 17.662504 101.72709Q17.17813 101.00834 17.17813 100.03959Q17.17813 98.75834 18.20938 97.91459L17.33438 97.91459L17.33438 96.78959L23.61563 96.78959Q25.318754 96.78959 26.02188 97.13334Q26.725004 97.47709 27.131254 98.22709Q27.55313 98.97709 27.55313 100.07084Q27.55313 101.367714 26.95938 102.16459Q26.381254 102.961464 25.20938 102.930214ZM20.83438 101.91459Q22.27188 101.91459 22.92813 101.35209Q23.58438 100.78959 23.58438 99.930214Q23.58438 99.086464 22.92813 98.50834Q22.27188 97.930214 20.881254 97.930214Q19.55313 97.930214 18.881254 98.523964Q18.193754 99.117714 18.193754 99.94584Q18.193754 100.773964 18.86563 101.35209Q19.52188 101.91459 20.83438 101.91459ZM15.99063 94.69584L14.58438 94.69584L14.58438 93.47709L15.99063 93.47709L15.99063 94.69584ZM24.600004 94.69584L17.33438 94.69584L17.33438 93.47709L24.600004 93.47709L24.600004 94.69584ZM23.70938 86.97709Q24.287504 87.648964 24.537504 88.28959Q24.77188 88.91459 24.77188 89.648964Q24.77188 90.836464 24.193754 91.492714Q23.600004 92.13334 22.67813 92.13334Q22.14688 92.13334 21.70938 91.898964Q21.27188 91.648964 21.006254 91.25834Q20.74063 90.85209 20.600004 90.367714Q20.506254 90.00834 20.412504 89.273964Q20.24063 87.773964 19.99063 87.07084Q19.74063 87.07084 19.67813 87.07084Q18.912504 87.07084 18.61563 87.41459Q18.193754 87.88334 18.193754 88.82084Q18.193754 89.680214 18.506254 90.10209Q18.80313 90.50834 19.568754 90.711464L19.412504 91.91459Q18.631254 91.75834 18.162504 91.38334Q17.693754 90.992714 17.443754 90.28959Q17.17813 89.57084 17.17813 88.63334Q17.17813 87.711464 17.39688 87.13334Q17.61563 86.555214 17.943754 86.28959Q18.27188 86.00834 18.787504 85.898964Q19.100004 85.836464 19.912504 85.836464L21.55313 85.836464Q23.27188 85.836464 23.725004 85.75834Q24.17813 85.680214 24.600004 85.44584L24.600004 86.72709Q24.20938 86.91459 23.70938 86.97709ZM20.95938 87.07084Q21.225004 87.742714 21.42813 89.086464Q21.537504 89.836464 21.67813 90.16459Q21.80313 90.47709 22.068754 90.648964Q22.33438 90.82084 22.64688 90.82084Q23.14688 90.82084 23.475004 90.44584Q23.80313 90.07084 23.80313 89.35209Q23.80313 88.63334 23.49063 88.086464Q23.17813 87.53959 22.631254 87.273964Q22.225004 87.07084 21.412504 87.07084L20.95938 87.07084ZM24.600004 83.711464L17.33438 83.711464L17.33438 82.60209L18.36563 82.60209Q17.17813 81.805214 17.17813 80.28959Q17.17813 79.63334 17.412504 79.086464Q17.64688 78.53959 18.037504 78.273964Q18.412504 77.992714 18.943754 77.88334Q19.287504 77.805214 20.131254 77.805214L24.600004 77.805214L24.600004 79.03959L20.17813 79.03959Q19.42813 79.03959 19.068754 79.180214Q18.693754 79.32084 18.475004 79.69584Q18.24063 80.055214 18.24063 80.555214Q18.24063 81.336464 18.74063 81.91459Q19.24063 82.47709 20.631254 82.47709L24.600004 82.47709L24.600004 83.711464ZM27.55313 69.35209Q26.256254 70.38334 24.537504 71.086464Q22.818754 71.78959 20.975004 71.78959Q19.350004 71.78959 17.850004 71.25834Q16.11563 70.648964 14.412505 69.35209L14.412505 68.47709Q15.83438 69.305214 16.443754 69.57084Q17.381254 69.992714 18.412504 70.22709Q19.67813 70.523964 20.975004 70.523964Q24.27188 70.523964 27.55313 68.47709L27.55313 69.35209ZM25.20938 66.930214L25.381254 65.742714Q25.92813 65.66459 26.193754 65.32084Q26.52188 64.867714 26.52188 64.07084Q26.52188 63.21146 26.17813 62.758335Q25.850004 62.289585 25.225004 62.11771Q24.850004 62.02396 23.64688 62.039585Q24.600004 62.83646 24.600004 64.03959Q24.600004 65.53959 23.52188 66.367714Q22.443754 67.180214 20.92813 67.180214Q19.89688 67.180214 19.02188 66.805214Q18.131254 66.430214 17.662504 65.72709Q17.17813 65.00834 17.17813 64.03959Q17.17813 62.758335 18.20938 61.914585L17.33438 61.914585L17.33438 60.789585L23.61563 60.789585Q25.318754 60.789585 26.02188 61.133335Q26.725004 61.477085 27.131254 62.227085Q27.55313 62.977085 27.55313 64.07084Q27.55313 65.367714 26.95938 66.16459Q26.381254 66.961464 25.20938 66.930214ZM20.83438 65.91459Q22.27188 65.91459 22.92813 65.35209Q23.58438 64.78959 23.58438 63.93021Q23.58438 63.08646 22.92813 62.508335Q22.27188 61.93021 20.881254 61.93021Q19.55313 61.93021 18.881254 62.52396Q18.193754 63.11771 18.193754 63.945835Q18.193754 64.773964 18.86563 65.35209Q19.52188 65.91459 20.83438 65.91459ZM15.99063 58.695835L14.58438 58.695835L14.58438 57.477085L15.99063 57.477085L15.99063 58.695835ZM24.600004 58.695835L17.33438 58.695835L17.33438 57.477085L24.600004 57.477085L24.600004 58.695835ZM23.70938 50.977085Q24.287504 51.64896 24.537504 52.289585Q24.77188 52.914585 24.77188 53.64896Q24.77188 54.83646 24.193754 55.49271Q23.600004 56.133335 22.67813 56.133335Q22.14688 56.133335 21.70938 55.89896Q21.27188 55.64896 21.006254 55.258335Q20.74063 54.852085 20.600004 54.36771Q20.506254 54.008335 20.412504 53.27396Q20.24063 51.77396 19.99063 51.070835Q19.74063 51.070835 19.67813 51.070835Q18.912504 51.070835 18.61563 51.414585Q18.193754 51.883335 18.193754 52.820835Q18.193754 53.68021 18.506254 54.102085Q18.80313 54.508335 19.568754 54.71146L19.412504 55.914585Q18.631254 55.758335 18.162504 55.383335Q17.693754 54.99271 17.443754 54.289585Q17.17813 53.570835 17.17813 52.633335Q17.17813 51.71146 17.39688 51.133335Q17.61563 50.55521 17.943754 50.289585Q18.27188 50.008335 18.787504 49.89896Q19.100004 49.83646 19.912504 49.83646L21.55313 49.83646Q23.27188 49.83646 23.725004 49.758335Q24.17813 49.68021 24.600004 49.445835L24.600004 50.727085Q24.20938 50.914585 23.70938 50.977085ZM20.95938 51.070835Q21.225004 51.74271 21.42813 53.08646Q21.537504 53.83646 21.67813 54.164585Q21.80313 54.477085 22.068754 54.64896Q22.33438 54.820835 22.64688 54.820835Q23.14688 54.820835 23.475004 54.445835Q23.80313 54.070835 23.80313 53.352085Q23.80313 52.633335 23.49063 52.08646Q23.17813 51.539585 22.631254 51.27396Q22.225004 51.070835 21.412504 51.070835L20.95938 51.070835ZM15.27188 52.758335L16.443754 53.539585L16.443754 54.945835L14.52188 53.477085L14.52188 52.164585L16.443754 50.61771L16.443754 52.008335L15.27188 52.758335ZM27.39688 47.758335L26.24063 47.89896Q26.350004 47.49271 26.350004 47.195835Q26.350004 46.789585 26.20938 46.539585Q26.08438 46.289585 25.83438 46.133335Q25.64688 46.02396 24.912504 45.758335Q24.818754 45.727085 24.61563 45.64896L17.33438 48.414585L17.33438 47.08646L21.537504 45.570835Q22.350004 45.27396 23.225004 45.039585Q22.381254 44.83646 21.568754 44.539585L17.33438 42.99271L17.33438 41.758335L24.725004 44.52396Q25.912504 44.96146 26.36563 45.21146Q26.975004 45.539585 27.256254 45.96146Q27.55313 46.383335 27.55313 46.977085Q27.55313 47.320835 27.39688 47.758335ZM27.55313 39.89896L27.55313 40.789585Q24.27188 38.74271 20.975004 38.74271Q19.693754 38.74271 18.42813 39.039585Q17.39688 39.27396 16.45938 39.68021Q15.850005 39.945835 14.412505 40.789585L14.412505 39.89896Q16.11563 38.61771 17.850004 38.008335Q19.350004 37.477085 20.975004 37.477085Q22.818754 37.477085 24.537504 38.195835Q26.256254 38.89896 27.55313 39.89896Z" fill-rule="nonzero"/><path fill="#000000" d="M63.1 154.4323Q63.1 152.90105 63.4125 151.97917Q63.725 151.04167 64.33437 150.54167Q64.95937 150.04167 65.89687 150.04167Q66.58437 150.04167 67.1 150.32292Q67.63125 150.60417 67.975 151.13542Q68.31875 151.65105 68.50625 152.40105Q68.69375 153.15105 68.69375 154.4323Q68.69375 155.94792 68.38125 156.8698Q68.08437 157.79167 67.45937 158.3073Q66.85 158.8073 65.89687 158.8073Q64.6625 158.8073 63.94375 157.91667Q63.1 156.85417 63.1 154.4323ZM64.17812 154.4323Q64.17812 156.54167 64.67812 157.2448Q65.17812 157.94792 65.89687 157.94792Q66.63125 157.94792 67.11562 157.2448Q67.61562 156.54167 67.61562 154.4323Q67.61562 152.3073 67.11562 151.6198Q66.63125 150.91667 65.88125 150.91667Q65.1625 150.91667 64.725 151.52605Q64.17812 152.3073 64.17812 154.4323Z" fill-rule="nonzero"/><path fill="#000000" d="M54.646873 123.63438L54.646873 124.65L48.959373 124.65Q48.959373 124.275 49.084373 123.91563Q49.303123 123.3375 49.771873 122.775Q50.25625 122.2125 51.1625 121.47813Q52.56875 120.32188 53.053123 119.65Q53.553123 118.97813 53.553123 118.38438Q53.553123 117.75938 53.1 117.3375Q52.646873 116.9 51.928123 116.9Q51.1625 116.9 50.709373 117.35313Q50.25625 117.80625 50.240623 118.61875L49.1625 118.50938Q49.271873 117.29063 49.990623 116.66563Q50.725 116.025 51.959373 116.025Q53.19375 116.025 53.9125 116.7125Q54.63125 117.4 54.63125 118.41563Q54.63125 118.93125 54.4125 119.43125Q54.209373 119.91563 53.709373 120.47813Q53.225 121.025 52.1 121.97813Q51.146873 122.775 50.865623 123.07188Q50.6 123.35313 50.428123 123.63438L54.646873 123.63438ZM56.1 120.41563Q56.1 118.88438 56.4125 117.9625Q56.725 117.025 57.334373 116.525Q57.959373 116.025 58.896873 116.025Q59.584373 116.025 60.1 116.30625Q60.63125 116.5875 60.975 117.11875Q61.31875 117.63438 61.50625 118.38438Q61.69375 119.13438 61.69375 120.41563Q61.69375 121.93125 61.38125 122.85313Q61.084373 123.775 60.459373 124.29063Q59.85 124.79063 58.896873 124.79063Q57.6625 124.79063 56.94375 123.9Q56.1 122.8375 56.1 120.41563ZM57.178123 120.41563Q57.178123 122.525 57.678123 123.22813Q58.178123 123.93125 58.896873 123.93125Q59.63125 123.93125 60.115623 123.22813Q60.615623 122.525 60.615623 120.41563Q60.615623 118.29063 60.115623 117.60313Q59.63125 116.9 58.88125 116.9Q58.1625 116.9 57.725 117.50938Q57.178123 118.29063 57.178123 120.41563ZM63.1 120.41563Q63.1 118.88438 63.4125 117.9625Q63.725 117.025 64.33437 116.525Q64.95937 116.025 65.89687 116.025Q66.58437 116.025 67.1 116.30625Q67.63125 116.5875 67.975 117.11875Q68.31875 117.63438 68.50625 118.38438Q68.69375 119.13438 68.69375 120.41563Q68.69375 121.93125 68.38125 122.85313Q68.08437 123.775 67.45937 124.29063Q66.85 124.79063 65.89687 124.79063Q64.6625 124.79063 63.94375 123.9Q63.1 122.8375 63.1 120.41563ZM64.17812 120.41563Q64.17812 122.525 64.67812 123.22813Q65.17812 123.93125 65.89687 123.93125Q66.63125 123.93125 67.11562 123.22813Q67.61562 122.525 67.61562 120.41563Q67.61562 118.29063 67.11562 117.60313Q66.63125 116.9 65.88125 116.9Q65.1625 116.9 64.725 117.50938Q64.17812 118.29063 64.17812 120.41563Z" fill-rule="nonzero"/><path fill="#000000" d="M52.475 90.63333L52.475 88.57083L48.75625 88.57083L48.75625 87.60208L52.678123 82.03958L53.5375 82.03958L53.5375 87.60208L54.69375 87.60208L54.69375 88.57083L53.5375 88.57083L53.5375 90.63333L52.475 90.63333ZM52.475 87.60208L52.475 83.74271L49.7875 87.60208L52.475 87.60208ZM56.1 86.39896Q56.1 84.86771 56.4125 83.94583Q56.725 83.00833 57.334373 82.50833Q57.959373 82.00833 58.896873 82.00833Q59.584373 82.00833 60.1 82.28958Q60.63125 82.57083 60.975 83.10208Q61.31875 83.61771 61.50625 84.36771Q61.69375 85.11771 61.69375 86.39896Q61.69375 87.91458 61.38125 88.83646Q61.084373 89.75833 60.459373 90.27396Q59.85 90.77396 58.896873 90.77396Q57.6625 90.77396 56.94375 89.88333Q56.1 88.82083 56.1 86.39896ZM57.178123 86.39896Q57.178123 88.50833 57.678123 89.21146Q58.178123 89.91458 58.896873 89.91458Q59.63125 89.91458 60.115623 89.21146Q60.615623 88.50833 60.615623 86.39896Q60.615623 84.27396 60.115623 83.58646Q59.63125 82.88333 58.88125 82.88333Q58.1625 82.88333 57.725 83.49271Q57.178123 84.27396 57.178123 86.39896ZM63.1 86.39896Q63.1 84.86771 63.4125 83.94583Q63.725 83.00833 64.33437 82.50833Q64.95937 82.00833 65.89687 82.00833Q66.58437 82.00833 67.1 82.28958Q67.63125 82.57083 67.975 83.10208Q68.31875 83.61771 68.50625 84.36771Q68.69375 85.11771 68.69375 86.39896Q68.69375 87.91458 68.38125 88.83646Q68.08437 89.75833 67.45937 90.27396Q66.85 90.77396 65.89687 90.77396Q64.6625 90.77396 63.94375 89.88333Q63.1 88.82083 63.1 86.39896ZM64.17812 86.39896Q64.17812 88.50833 64.67812 89.21146Q65.17812 89.91458 65.89687 89.91458Q66.63125 89.91458 67.11562 89.21146Q67.61562 88.50833 67.61562 86.39896Q67.61562 84.27396 67.11562 83.58646Q66.63125 82.88333 65.88125 82.88333Q65.1625 82.88333 64.725 83.49271Q64.17812 84.27396 64.17812 86.39896Z" fill-rule="nonzero"/><path fill="#000000" d="M54.56875 50.13229L53.521873 50.210415Q53.38125 49.585415 53.13125 49.304165Q52.69375 48.85104 52.06875 48.85104Q51.56875 48.85104 51.178123 49.13229Q50.69375 49.50729 50.396873 50.210415Q50.115623 50.897915 50.1 52.179165Q50.475 51.60104 51.021873 51.31979Q51.584373 51.03854 52.19375 51.03854Q53.240623 51.03854 53.975 51.81979Q54.725 52.60104 54.725 53.81979Q54.725 54.63229 54.365623 55.335415Q54.021873 56.022915 53.4125 56.397915Q52.803123 56.75729 52.0375 56.75729Q50.709373 56.75729 49.88125 55.78854Q49.053123 54.81979 49.053123 52.60104Q49.053123 50.10104 49.975 48.97604Q50.771873 47.991665 52.13125 47.991665Q53.146873 47.991665 53.7875 48.56979Q54.44375 49.13229 54.56875 50.13229ZM50.271873 53.835415Q50.271873 54.38229 50.490623 54.88229Q50.725 55.366665 51.13125 55.63229Q51.553123 55.897915 52.021873 55.897915Q52.678123 55.897915 53.1625 55.366665Q53.646873 54.81979 53.646873 53.897915Q53.646873 53.00729 53.1625 52.491665Q52.69375 51.97604 51.975 51.97604Q51.25625 51.97604 50.75625 52.491665Q50.271873 53.00729 50.271873 53.835415ZM56.1 52.38229Q56.1 50.85104 56.4125 49.929165Q56.725 48.991665 57.334373 48.491665Q57.959373 47.991665 58.896873 47.991665Q59.584373 47.991665 60.1 48.272915Q60.63125 48.554165 60.975 49.085415Q61.31875 49.60104 61.50625 50.35104Q61.69375 51.10104 61.69375 52.38229Q61.69375 53.897915 61.38125 54.81979Q61.084373 55.741665 60.459373 56.25729Q59.85 56.75729 58.896873 56.75729Q57.6625 56.75729 56.94375 55.866665Q56.1 54.804165 56.1 52.38229ZM57.178123 52.38229Q57.178123 54.491665 57.678123 55.19479Q58.178123 55.897915 58.896873 55.897915Q59.63125 55.897915 60.115623 55.19479Q60.615623 54.491665 60.615623 52.38229Q60.615623 50.25729 60.115623 49.56979Q59.63125 48.866665 58.88125 48.866665Q58.1625 48.866665 57.725 49.47604Q57.178123 50.25729 57.178123 52.38229ZM63.1 52.38229Q63.1 50.85104 63.4125 49.929165Q63.725 48.991665 64.33437 48.491665Q64.95937 47.991665 65.89687 47.991665Q66.58437 47.991665 67.1 48.272915Q67.63125 48.554165 67.975 49.085415Q68.31875 49.60104 68.50625 50.35104Q68.69375 51.10104 68.69375 52.38229Q68.69375 53.897915 68.38125 54.81979Q68.08437 55.741665 67.45937 56.25729Q66.85 56.75729 65.89687 56.75729Q64.6625 56.75729 63.94375 55.866665Q63.1 54.804165 63.1 52.38229ZM64.17812 52.38229Q64.17812 54.491665 64.67812 55.19479Q65.17812 55.897915 65.89687 55.897915Q66.63125 55.897915 67.11562 55.19479Q67.61562 54.491665 67.61562 52.38229Q67.61562 50.25729 67.11562 49.56979Q66.63125 48.866665 65.88125 48.866665Q65.1625 48.866665 64.725 49.47604Q64.17812 50.25729 64.17812 52.38229Z" fill-rule="nonzero"/><path fill="#000000" d="M50.725 17.94375Q50.06875 17.69375 49.740623 17.25625Q49.428123 16.803125 49.428123 16.19375Q49.428123 15.25625 50.1 14.615625Q50.7875 13.975 51.896873 13.975Q53.021873 13.975 53.709373 14.63125Q54.396873 15.2875 54.396873 16.225Q54.396873 16.81875 54.084373 17.25625Q53.771873 17.69375 53.13125 17.94375Q53.928123 18.19375 54.334373 18.771875Q54.740623 19.35 54.740623 20.146875Q54.740623 21.240625 53.959373 21.990625Q53.19375 22.740625 51.9125 22.740625Q50.646873 22.740625 49.865623 21.990625Q49.084373 21.240625 49.084373 20.115625Q49.084373 19.271875 49.50625 18.709375Q49.94375 18.146875 50.725 17.94375ZM50.50625 16.146875Q50.50625 16.75625 50.896873 17.146875Q51.303123 17.5375 51.928123 17.5375Q52.5375 17.5375 52.928123 17.1625Q53.31875 16.771875 53.31875 16.209375Q53.31875 15.63125 52.9125 15.240625Q52.50625 14.834375 51.9125 14.834375Q51.303123 14.834375 50.896873 15.225Q50.50625 15.615625 50.50625 16.146875ZM50.178123 20.115625Q50.178123 20.56875 50.38125 20.990625Q50.6 21.4125 51.021873 21.646875Q51.44375 21.88125 51.928123 21.88125Q52.678123 21.88125 53.1625 21.396875Q53.6625 20.9125 53.6625 20.1625Q53.6625 19.396875 53.1625 18.896875Q52.6625 18.396875 51.896873 18.396875Q51.146873 18.396875 50.6625 18.896875Q50.178123 19.38125 50.178123 20.115625ZM56.1 18.365625Q56.1 16.834375 56.4125 15.9125Q56.725 14.975 57.334373 14.475Q57.959373 13.975 58.896873 13.975Q59.584373 13.975 60.1 14.25625Q60.63125 14.5375 60.975 15.06875Q61.31875 15.584375 61.50625 16.334375Q61.69375 17.084375 61.69375 18.365625Q61.69375 19.88125 61.38125 20.803125Q61.084373 21.725 60.459373 22.240625Q59.85 22.740625 58.896873 22.740625Q57.6625 22.740625 56.94375 21.85Q56.1 20.7875 56.1 18.365625ZM57.178123 18.365625Q57.178123 20.475 57.678123 21.178125Q58.178123 21.88125 58.896873 21.88125Q59.63125 21.88125 60.115623 21.178125Q60.615623 20.475 60.615623 18.365625Q60.615623 16.240625 60.115623 15.553125Q59.63125 14.85 58.88125 14.85Q58.1625 14.85 57.725 15.459375Q57.178123 16.240625 57.178123 18.365625ZM63.1 18.365625Q63.1 16.834375 63.4125 15.9125Q63.725 14.975 64.33437 14.475Q64.95937 13.975 65.89687 13.975Q66.58437 13.975 67.1 14.25625Q67.63125 14.5375 67.975 15.06875Q68.31875 15.584375 68.50625 16.334375Q68.69375 17.084375 68.69375 18.365625Q68.69375 19.88125 68.38125 20.803125Q68.08437 21.725 67.45937 22.240625Q66.85 22.740625 65.89687 22.740625Q64.6625 22.740625 63.94375 21.85Q63.1 20.7875 63.1 18.365625ZM64.17812 18.365625Q64.17812 20.475 64.67812 21.178125Q65.17812 21.88125 65.89687 21.88125Q66.63125 21.88125 67.11562 21.178125Q67.61562 20.475 67.61562 18.365625Q67.61562 16.240625 67.11562 15.553125Q66.63125 14.85 65.88125 14.85Q65.1625 14.85 64.725 15.459375Q64.17812 16.240625 64.17812 18.365625Z" fill-rule="nonzero"/><path stroke="#ff0000" stroke-width="4.0" stroke-linecap="butt" stroke-dasharray="4.0,5.0" d="M358.5 213.4L371.5 213.4" fill-rule="nonzero"/><path fill="#1a1a1a" d="M380.42188 217.4L380.42188 208.80624L383.67188 208.80624Q384.51562 208.80624 384.96875 208.88437Q385.60938 208.99374 386.03125 209.29062Q386.46875 209.5875 386.71875 210.11874Q386.98438 210.65 386.98438 211.29062Q386.98438 212.38437 386.28125 213.15Q385.59375 213.9 383.76562 213.9L381.5625 213.9L381.5625 217.4L380.42188 217.4ZM381.5625 212.9L383.78125 212.9Q384.89062 212.9 385.34375 212.49374Q385.8125 212.07187 385.8125 211.32187Q385.8125 210.79062 385.53125 210.41562Q385.26562 210.025 384.82812 209.9Q384.53125 209.82187 383.76562 209.82187L381.5625 209.82187L381.5625 212.9ZM388.29688 217.4L388.29688 208.80624L389.34375 208.80624L389.34375 211.88437Q390.07812 211.04062 391.20312 211.04062Q391.90625 211.04062 392.40625 211.32187Q392.92188 211.5875 393.14062 212.07187Q393.35938 212.54062 393.35938 213.4625L393.35938 217.4L392.3125 217.4L392.3125 213.4625Q392.3125 212.66562 391.96875 212.30624Q391.625 211.94687 391.0 211.94687Q390.53125 211.94687 390.10938 212.19687Q389.70312 212.43124 389.51562 212.85312Q389.34375 213.25937 389.34375 213.99374L389.34375 217.4L388.29688 217.4ZM401.04688 212.4L401.04688 211.18124L402.17188 211.18124L402.17188 212.15Q402.17188 213.05624 401.95312 213.43124Q401.42188 214.36874 400.3125 214.47812L400.3125 217.4L399.375 217.4L399.375 216.47812Q398.64062 217.54062 397.39062 217.54062Q396.84375 217.54062 396.35938 217.3375Q395.89062 217.11874 395.65625 216.80624Q395.42188 216.47812 395.32812 216.00937Q395.26562 215.69687 395.26562 215.025L395.26562 211.18124L396.32812 211.18124L396.32812 214.63437Q396.32812 215.4625 396.39062 215.74374Q396.59375 216.63437 397.60938 216.63437Q398.09375 216.63437 398.5 216.38437Q398.92188 216.13437 399.09375 215.72812Q399.26562 215.30624 399.26562 214.50937L399.26562 211.18124L400.3125 211.18124L400.3125 214.04062Q401.0625 213.9 401.42188 213.3375Q401.59375 213.0875 401.59375 212.4L401.04688 212.4ZM403.98438 214.29062Q403.98438 215.44687 404.5 216.07187Q405.0 216.66562 405.8125 216.66562Q406.64062 216.66562 407.125 216.07187Q407.64062 215.43124 407.64062 214.25937Q407.64062 213.13437 407.125 212.50937Q406.625 211.91562 405.8125 211.91562Q404.98438 211.91562 404.5 212.49374Q403.98438 213.13437 403.98438 214.29062ZM408.875 212.24374L408.875 211.025L410.0 211.025L410.0 211.99374Q410.0 212.7125 409.78125 213.10312Q409.48438 213.60312 408.73438 214.025Q408.73438 214.11874 408.73438 214.19687Q408.73438 216.38437 407.32812 217.16562Q406.625 217.54062 405.8125 217.54062Q404.48438 217.54062 403.70312 216.69687Q402.90625 215.8375 402.90625 214.29062Q402.90625 212.55624 403.85938 211.72812Q404.65625 211.04062 405.8125 211.04062Q407.09375 211.04062 407.92188 211.86874Q408.53125 212.50937 408.6875 213.525Q409.07812 213.275 409.25 213.00937Q409.42188 212.74374 409.42188 212.24374L408.875 212.24374ZM411.29688 217.4L411.29688 211.18124L412.23438 211.18124L412.23438 212.05624Q412.92188 211.04062 414.21875 211.04062Q414.78125 211.04062 415.25 211.24374Q415.73438 211.44687 415.96875 211.775Q416.20312 212.10312 416.29688 212.54062Q416.34375 212.8375 416.34375 213.57187L416.34375 217.4L415.29688 217.4L415.29688 213.61874Q415.29688 212.9625 415.17188 212.65Q415.04688 212.3375 414.73438 212.15Q414.42188 211.94687 414.0 211.94687Q413.32812 211.94687 412.82812 212.38437Q412.34375 212.80624 412.34375 213.99374L412.34375 217.4L411.29688 217.4ZM418.09375 217.91562L419.125 218.07187Q419.1875 218.54062 419.48438 218.75937Q419.875 219.05624 420.54688 219.05624Q421.28125 219.05624 421.67188 218.75937Q422.07812 218.4625 422.21875 217.94687Q422.3125 217.61874 422.29688 216.5875Q421.60938 217.4 420.57812 217.4Q419.29688 217.4 418.59375 216.47812Q417.89062 215.54062 417.89062 214.25937Q417.89062 213.36874 418.20312 212.61874Q418.53125 211.85312 419.14062 211.44687Q419.75 211.04062 420.57812 211.04062Q421.6875 211.04062 422.40625 211.93124L422.40625 211.18124L423.375 211.18124L423.375 216.55624Q423.375 218.00937 423.07812 218.61874Q422.78125 219.22812 422.14062 219.57187Q421.5 219.93124 420.5625 219.93124Q419.45312 219.93124 418.76562 219.43124Q418.07812 218.93124 418.09375 217.91562ZM418.96875 214.18124Q418.96875 215.4 419.45312 215.9625Q419.9375 216.525 420.67188 216.525Q421.40625 216.525 421.89062 215.9625Q422.39062 215.4 422.39062 214.2125Q422.39062 213.07187 421.875 212.49374Q421.375 211.91562 420.65625 211.91562Q419.95312 211.91562 419.45312 212.49374Q418.96875 213.05624 418.96875 214.18124ZM428.29688 219.79062L428.29688 211.18124L429.25 211.18124L429.25 211.97812Q429.59375 211.50937 430.01562 211.275Q430.45312 211.04062 431.0625 211.04062Q431.85938 211.04062 432.46875 211.44687Q433.07812 211.85312 433.375 212.60312Q433.6875 213.35312 433.6875 214.24374Q433.6875 215.19687 433.34375 215.9625Q433.01562 216.72812 432.35938 217.13437Q431.70312 217.54062 430.98438 217.54062Q430.45312 217.54062 430.03125 217.32187Q429.60938 217.0875 429.34375 216.75937L429.34375 219.79062L428.29688 219.79062ZM429.25 214.32187Q429.25 215.525 429.73438 216.10312Q430.21875 216.66562 430.90625 216.66562Q431.60938 216.66562 432.10938 216.07187Q432.60938 215.47812 432.60938 214.22812Q432.60938 213.04062 432.125 212.4625Q431.64062 211.86874 430.95312 211.86874Q430.28125 211.86874 429.76562 212.49374Q429.25 213.11874 429.25 214.32187ZM435.29688 217.4L435.29688 208.80624L436.34375 208.80624L436.34375 211.88437Q437.07812 211.04062 438.20312 211.04062Q438.90625 211.04062 439.40625 211.32187Q439.92188 211.5875 440.14062 212.07187Q440.35938 212.54062 440.35938 213.4625L440.35938 217.4L439.3125 217.4L439.3125 213.4625Q439.3125 212.66562 438.96875 212.30624Q438.625 211.94687 438.0 211.94687Q437.53125 211.94687 437.10938 212.19687Q436.70312 212.43124 436.51562 212.85312Q436.34375 213.25937 436.34375 213.99374L436.34375 217.4L435.29688 217.4ZM446.35938 216.63437Q445.76562 217.13437 445.21875 217.3375Q444.6875 217.54062 444.0625 217.54062Q443.03125 217.54062 442.48438 217.04062Q441.9375 216.54062 441.9375 215.75937Q441.9375 215.30624 442.14062 214.93124Q442.34375 214.54062 442.6875 214.32187Q443.03125 214.0875 443.45312 213.97812Q443.75 213.88437 444.39062 213.80624Q445.65625 213.66562 446.26562 213.44687Q446.26562 213.22812 446.26562 213.18124Q446.26562 212.525 445.96875 212.25937Q445.5625 211.91562 444.76562 211.91562Q444.03125 211.91562 443.67188 212.18124Q443.3125 212.43124 443.14062 213.0875L442.10938 212.94687Q442.25 212.29062 442.57812 211.88437Q442.90625 211.47812 443.51562 211.25937Q444.125 211.04062 444.92188 211.04062Q445.71875 211.04062 446.21875 211.22812Q446.71875 211.41562 446.95312 211.69687Q447.1875 211.97812 447.28125 212.41562Q447.32812 212.68124 447.32812 213.38437L447.32812 214.79062Q447.32812 216.25937 447.39062 216.65Q447.46875 217.04062 447.67188 217.4L446.5625 217.4Q446.40625 217.07187 446.35938 216.63437ZM446.26562 214.275Q445.6875 214.50937 444.54688 214.68124Q443.89062 214.775 443.625 214.9Q443.35938 215.00937 443.20312 215.22812Q443.0625 215.44687 443.0625 215.72812Q443.0625 216.15 443.375 216.43124Q443.70312 216.7125 444.3125 216.7125Q444.92188 216.7125 445.39062 216.44687Q445.875 216.18124 446.09375 215.7125Q446.26562 215.35312 446.26562 214.66562L446.26562 214.275ZM444.20312 210.4L444.98438 208.75937L446.375 208.75937L445.07812 210.4L444.20312 210.4ZM449.29688 219.79062L449.29688 211.18124L450.25 211.18124L450.25 211.97812Q450.59375 211.50937 451.01562 211.275Q451.45312 211.04062 452.0625 211.04062Q452.85938 211.04062 453.46875 211.44687Q454.07812 211.85312 454.375 212.60312Q454.6875 213.35312 454.6875 214.24374Q454.6875 215.19687 454.34375 215.9625Q454.01562 216.72812 453.35938 217.13437Q452.70312 217.54062 451.98438 217.54062Q451.45312 217.54062 451.03125 217.32187Q450.60938 217.0875 450.34375 216.75937L450.34375 219.79062L449.29688 219.79062ZM450.25 214.32187Q450.25 215.525 450.73438 216.10312Q451.21875 216.66562 451.90625 216.66562Q452.60938 216.66562 453.10938 216.07187Q453.60938 215.47812 453.60938 214.22812Q453.60938 213.04062 453.125 212.4625Q452.64062 211.86874 451.95312 211.86874Q451.28125 211.86874 450.76562 212.49374Q450.25 213.11874 450.25 214.32187ZM461.59375 216.4625L461.75 217.38437Q461.29688 217.47812 460.95312 217.47812Q460.375 217.47812 460.0625 217.30624Q459.75 217.11874 459.60938 216.82187Q459.48438 216.525 459.48438 215.57187L459.48438 211.99374L458.71875 211.99374L458.71875 211.18124L459.48438 211.18124L459.48438 209.63437L460.53125 209.00937L460.53125 211.18124L461.59375 211.18124L461.59375 211.99374L460.53125 211.99374L460.53125 215.63437Q460.53125 216.0875 460.57812 216.2125Q460.64062 216.3375 460.76562 216.41562Q460.89062 216.49374 461.125 216.49374Q461.3125 216.49374 461.59375 216.4625ZM462.28125 217.4L462.28125 211.18124L463.23438 211.18124L463.23438 212.11874Q463.59375 211.4625 463.89062 211.25937Q464.20312 211.04062 464.57812 211.04062Q465.10938 211.04062 465.65625 211.36874L465.29688 212.35312Q464.90625 212.11874 464.53125 212.11874Q464.17188 212.11874 463.89062 212.3375Q463.625 212.54062 463.51562 212.91562Q463.32812 213.47812 463.32812 214.13437L463.32812 217.4L462.28125 217.4ZM470.375 217.4L470.375 216.47812Q469.64062 217.54062 468.39062 217.54062Q467.84375 217.54062 467.35938 217.3375Q466.89062 217.11874 466.65625 216.80624Q466.42188 216.47812 466.32812 216.00937Q466.26562 215.7125 466.26562 215.025L466.26562 211.18124L467.32812 211.18124L467.32812 214.63437Q467.32812 215.44687 467.39062 215.74374Q467.48438 216.15 467.79688 216.4Q468.125 216.63437 468.60938 216.63437Q469.07812 216.63437 469.48438 216.4Q469.90625 216.15 470.07812 215.72812Q470.26562 215.30624 470.26562 214.50937L470.26562 211.18124L471.3125 211.18124L471.3125 217.4L470.375 217.4ZM473.25 219.79062L473.125 218.80624Q473.46875 218.9 473.73438 218.9Q474.07812 218.9 474.28125 218.775Q474.5 218.66562 474.64062 218.4625Q474.73438 218.29062 474.96875 217.66562Q474.98438 217.5875 475.0625 217.41562L472.6875 211.18124L473.82812 211.18124L475.125 214.775Q475.375 215.4625 475.57812 216.22812Q475.76562 215.49374 476.01562 214.80624L477.34375 211.18124L478.39062 211.18124L476.03125 217.50937Q475.64062 218.525 475.4375 218.91562Q475.15625 219.44687 474.78125 219.68124Q474.42188 219.93124 473.92188 219.93124Q473.625 219.93124 473.25 219.79062ZM482.54688 215.4L483.64062 215.525Q483.39062 216.47812 482.6875 217.00937Q481.98438 217.54062 480.90625 217.54062Q479.54688 217.54062 478.73438 216.69687Q477.9375 215.85312 477.9375 214.3375Q477.9375 212.775 478.75 211.91562Q479.5625 211.04062 480.84375 211.04062Q482.09375 211.04062 482.875 211.88437Q483.67188 212.72812 483.67188 214.275Q483.67188 214.36874 483.67188 214.55624L479.03125 214.55624Q479.09375 215.5875 479.60938 216.13437Q480.125 216.66562 480.90625 216.66562Q481.48438 216.66562 481.89062 216.36874Q482.3125 216.05624 482.54688 215.4ZM479.09375 213.69687L482.5625 213.69687Q482.5 212.9 482.17188 212.50937Q481.65625 211.9 480.85938 211.9Q480.125 211.9 479.625 212.38437Q479.14062 212.86874 479.09375 213.69687ZM480.82812 209.4L480.17188 210.4L478.95312 210.4L480.21875 208.75937L481.34375 208.75937L482.67188 210.4L481.46875 210.4L480.82812 209.4ZM481.34375 208.3375L480.48438 208.3375L479.14062 206.69687L480.54688 206.69687L481.34375 208.3375ZM485.29688 217.4L485.29688 211.18124L486.23438 211.18124L486.23438 212.05624Q486.92188 211.04062 488.21875 211.04062Q488.78125 211.04062 489.25 211.24374Q489.73438 211.44687 489.96875 211.775Q490.20312 212.10312 490.29688 212.54062Q490.34375 212.8375 490.34375 213.57187L490.34375 217.4L489.29688 217.4L489.29688 213.61874Q489.29688 212.9625 489.17188 212.65Q489.04688 212.3375 488.73438 212.15Q488.42188 211.94687 488.0 211.94687Q487.32812 211.94687 486.82812 212.38437Q486.34375 212.80624 486.34375 213.99374L486.34375 217.4L485.29688 217.4ZM497.59375 216.4625L497.75 217.38437Q497.29688 217.47812 496.95312 217.47812Q496.375 217.47812 496.0625 217.30624Q495.75 217.11874 495.60938 216.82187Q495.48438 216.525 495.48438 215.57187L495.48438 211.99374L494.71875 211.99374L494.71875 211.18124L495.48438 211.18124L495.48438 209.63437L496.53125 209.00937L496.53125 211.18124L497.59375 211.18124L497.59375 211.99374L496.53125 211.99374L496.53125 215.63437Q496.53125 216.0875 496.57812 216.2125Q496.64062 216.3375 496.76562 216.41562Q496.89062 216.49374 497.125 216.49374Q497.3125 216.49374 497.59375 216.4625ZM498.29688 217.4L498.29688 208.80624L499.34375 208.80624L499.34375 211.88437Q500.07812 211.04062 501.20312 211.04062Q501.90625 211.04062 502.40625 211.32187Q502.92188 211.5875 503.14062 212.07187Q503.35938 212.54062 503.35938 213.4625L503.35938 217.4L502.3125 217.4L502.3125 213.4625Q502.3125 212.66562 501.96875 212.30624Q501.625 211.94687 501.0 211.94687Q500.53125 211.94687 500.10938 212.19687Q499.70312 212.43124 499.51562 212.85312Q499.34375 213.25937 499.34375 213.99374L499.34375 217.4L498.29688 217.4ZM504.90625 214.29062Q504.90625 212.55624 505.85938 211.72812Q506.65625 211.04062 507.8125 211.04062Q509.09375 211.04062 509.90625 211.88437Q510.73438 212.7125 510.73438 214.19687Q510.73438 215.4 510.375 216.0875Q510.01562 216.775 509.3125 217.16562Q508.625 217.54062 507.8125 217.54062Q506.51562 217.54062 505.70312 216.7125Q504.90625 215.86874 504.90625 214.29062ZM505.98438 214.29062Q505.98438 215.47812 506.5 216.07187Q507.03125 216.66562 507.8125 216.66562Q508.60938 216.66562 509.125 216.07187Q509.64062 215.47812 509.64062 214.25937Q509.64062 213.10312 509.10938 212.50937Q508.59375 211.91562 507.8125 211.91562Q507.03125 211.91562 506.5 212.50937Q505.98438 213.0875 505.98438 214.29062ZM507.82812 209.4L507.17188 210.4L505.95312 210.4L507.21875 208.75937L508.34375 208.75937L509.67188 210.4L508.46875 210.4L507.82812 209.4ZM508.01562 206.69687L509.42188 206.69687L508.07812 208.3375L507.21875 208.3375L508.01562 206.69687ZM512.2969 217.4L512.2969 211.18124L513.2344 211.18124L513.2344 212.05624Q513.9219 211.04062 515.21875 211.04062Q515.78125 211.04062 516.25 211.24374Q516.7344 211.44687 516.96875 211.775Q517.2031 212.10312 517.2969 212.54062Q517.34375 212.8375 517.34375 213.57187L517.34375 217.4L516.2969 217.4L516.2969 213.61874Q516.2969 212.9625 516.1719 212.65Q516.0469 212.3375 515.7344 212.15Q515.4219 211.94687 515.0 211.94687Q514.3281 211.94687 513.8281 212.38437Q513.34375 212.80624 513.34375 213.99374L513.34375 217.4L512.2969 217.4ZM519.09375 217.91562L520.125 218.07187Q520.1875 218.54062 520.4844 218.75937Q520.875 219.05624 521.5469 219.05624Q522.28125 219.05624 522.6719 218.75937Q523.0781 218.4625 523.21875 217.94687Q523.3125 217.61874 523.2969 216.5875Q522.6094 217.4 521.5781 217.4Q520.2969 217.4 519.59375 216.47812Q518.8906 215.54062 518.8906 214.25937Q518.8906 213.36874 519.2031 212.61874Q519.53125 211.85312 520.1406 211.44687Q520.75 211.04062 521.5781 211.04062Q522.6875 211.04062 523.40625 211.93124L523.40625 211.18124L524.375 211.18124L524.375 216.55624Q524.375 218.00937 524.0781 218.61874Q523.78125 219.22812 523.1406 219.57187Q522.5 219.93124 521.5625 219.93124Q520.4531 219.93124 519.7656 219.43124Q519.0781 218.93124 519.09375 217.91562ZM519.96875 214.18124Q519.96875 215.4 520.4531 215.9625Q520.9375 216.525 521.6719 216.525Q522.40625 216.525 522.8906 215.9625Q523.3906 215.4 523.3906 214.2125Q523.3906 213.07187 522.875 212.49374Q522.375 211.91562 521.65625 211.91562Q520.9531 211.91562 520.4531 212.49374Q519.96875 213.05624 519.96875 214.18124Z" fill-rule="nonzero"/><path stroke="#0000ff" stroke-width="4.0" stroke-linecap="butt" d="M541.5 213.4L553.5 213.4" fill-rule="nonzero"/><path fill="#1a1a1a" d="M562.4219 217.4L562.4219 208.80624L565.6719 208.80624Q566.5156 208.80624 566.96875 208.88437Q567.6094 208.99374 568.03125 209.29062Q568.46875 209.5875 568.71875 210.11874Q568.9844 210.65 568.9844 211.29062Q568.9844 212.38437 568.28125 213.15Q567.59375 213.9 565.7656 213.9L563.5625 213.9L563.5625 217.4L562.4219 217.4ZM563.5625 212.9L565.78125 212.9Q566.8906 212.9 567.34375 212.49374Q567.8125 212.07187 567.8125 211.32187Q567.8125 210.79062 567.53125 210.41562Q567.2656 210.025 566.8281 209.9Q566.53125 209.82187 565.7656 209.82187L563.5625 209.82187L563.5625 212.9ZM570.2969 217.4L570.2969 208.80624L571.34375 208.80624L571.34375 211.88437Q572.0781 211.04062 573.2031 211.04062Q573.90625 211.04062 574.40625 211.32187Q574.9219 211.5875 575.1406 212.07187Q575.3594 212.54062 575.3594 213.4625L575.3594 217.4L574.3125 217.4L574.3125 213.4625Q574.3125 212.66562 573.96875 212.30624Q573.625 211.94687 573.0 211.94687Q572.53125 211.94687 572.1094 212.19687Q571.7031 212.43124 571.5156 212.85312Q571.34375 213.25937 571.34375 213.99374L571.34375 217.4L570.2969 217.4ZM583.0469 212.4L583.0469 211.18124L584.1719 211.18124L584.1719 212.15Q584.1719 213.05624 583.9531 213.43124Q583.4219 214.36874 582.3125 214.47812L582.3125 217.4L581.375 217.4L581.375 216.47812Q580.6406 217.54062 579.3906 217.54062Q578.84375 217.54062 578.3594 217.3375Q577.8906 217.11874 577.65625 216.80624Q577.4219 216.47812 577.3281 216.00937Q577.2656 215.69687 577.2656 215.025L577.2656 211.18124L578.3281 211.18124L578.3281 214.63437Q578.3281 215.4625 578.3906 215.74374Q578.59375 216.63437 579.6094 216.63437Q580.09375 216.63437 580.5 216.38437Q580.9219 216.13437 581.09375 215.72812Q581.2656 215.30624 581.2656 214.50937L581.2656 211.18124L582.3125 211.18124L582.3125 214.04062Q583.0625 213.9 583.4219 213.3375Q583.59375 213.0875 583.59375 212.4L583.0469 212.4ZM585.9844 214.29062Q585.9844 215.44687 586.5 216.07187Q587.0 216.66562 587.8125 216.66562Q588.6406 216.66562 589.125 216.07187Q589.6406 215.43124 589.6406 214.25937Q589.6406 213.13437 589.125 212.50937Q588.625 211.91562 587.8125 211.91562Q586.9844 211.91562 586.5 212.49374Q585.9844 213.13437 585.9844 214.29062ZM590.875 212.24374L590.875 211.025L592.0 211.025L592.0 211.99374Q592.0 212.7125 591.78125 213.10312Q591.4844 213.60312 590.7344 214.025Q590.7344 214.11874 590.7344 214.19687Q590.7344 216.38437 589.3281 217.16562Q588.625 217.54062 587.8125 217.54062Q586.4844 217.54062 585.7031 216.69687Q584.90625 215.8375 584.90625 214.29062Q584.90625 212.55624 585.8594 211.72812Q586.65625 211.04062 587.8125 211.04062Q589.09375 211.04062 589.9219 211.86874Q590.53125 212.50937 590.6875 213.525Q591.0781 213.275 591.25 213.00937Q591.4219 212.74374 591.4219 212.24374L590.875 212.24374ZM593.2969 217.4L593.2969 211.18124L594.2344 211.18124L594.2344 212.05624Q594.9219 211.04062 596.21875 211.04062Q596.78125 211.04062 597.25 211.24374Q597.7344 211.44687 597.96875 211.775Q598.2031 212.10312 598.2969 212.54062Q598.34375 212.8375 598.34375 213.57187L598.34375 217.4L597.2969 217.4L597.2969 213.61874Q597.2969 212.9625 597.1719 212.65Q597.0469 212.3375 596.7344 212.15Q596.4219 211.94687 596.0 211.94687Q595.3281 211.94687 594.8281 212.38437Q594.34375 212.80624 594.34375 213.99374L594.34375 217.4L593.2969 217.4ZM600.09375 217.91562L601.125 218.07187Q601.1875 218.54062 601.4844 218.75937Q601.875 219.05624 602.5469 219.05624Q603.28125 219.05624 603.6719 218.75937Q604.0781 218.4625 604.21875 217.94687Q604.3125 217.61874 604.2969 216.5875Q603.6094 217.4 602.5781 217.4Q601.2969 217.4 600.59375 216.47812Q599.8906 215.54062 599.8906 214.25937Q599.8906 213.36874 600.2031 212.61874Q600.53125 211.85312 601.1406 211.44687Q601.75 211.04062 602.5781 211.04062Q603.6875 211.04062 604.40625 211.93124L604.40625 211.18124L605.375 211.18124L605.375 216.55624Q605.375 218.00937 605.0781 218.61874Q604.78125 219.22812 604.1406 219.57187Q603.5 219.93124 602.5625 219.93124Q601.4531 219.93124 600.7656 219.43124Q600.0781 218.93124 600.09375 217.91562ZM600.96875 214.18124Q600.96875 215.4 601.4531 215.9625Q601.9375 216.525 602.6719 216.525Q603.40625 216.525 603.8906 215.9625Q604.3906 215.4 604.3906 214.2125Q604.3906 213.07187 603.875 212.49374Q603.375 211.91562 602.65625 211.91562Q601.9531 211.91562 601.4531 212.49374Q600.96875 213.05624 600.96875 214.18124ZM610.2969 219.79062L610.2969 211.18124L611.25 211.18124L611.25 211.97812Q611.59375 211.50937 612.0156 211.275Q612.4531 211.04062 613.0625 211.04062Q613.8594 211.04062 614.46875 211.44687Q615.0781 211.85312 615.375 212.60312Q615.6875 213.35312 615.6875 214.24374Q615.6875 215.19687 615.34375 215.9625Q615.0156 216.72812 614.3594 217.13437Q613.7031 217.54062 612.9844 217.54062Q612.4531 217.54062 612.03125 217.32187Q611.6094 217.0875 611.34375 216.75937L611.34375 219.79062L610.2969 219.79062ZM611.25 214.32187Q611.25 215.525 611.7344 216.10312Q612.21875 216.66562 612.90625 216.66562Q613.6094 216.66562 614.1094 216.07187Q614.6094 215.47812 614.6094 214.22812Q614.6094 213.04062 614.125 212.4625Q613.6406 211.86874 612.9531 211.86874Q612.28125 211.86874 611.7656 212.49374Q611.25 213.11874 611.25 214.32187ZM617.2969 217.4L617.2969 208.80624L618.34375 208.80624L618.34375 211.88437Q619.0781 211.04062 620.2031 211.04062Q620.90625 211.04062 621.40625 211.32187Q621.9219 211.5875 622.1406 212.07187Q622.3594 212.54062 622.3594 213.4625L622.3594 217.4L621.3125 217.4L621.3125 213.4625Q621.3125 212.66562 620.96875 212.30624Q620.625 211.94687 620.0 211.94687Q619.53125 211.94687 619.1094 212.19687Q618.7031 212.43124 618.5156 212.85312Q618.34375 213.25937 618.34375 213.99374L618.34375 217.4L617.2969 217.4ZM628.3594 216.63437Q627.7656 217.13437 627.21875 217.3375Q626.6875 217.54062 626.0625 217.54062Q625.03125 217.54062 624.4844 217.04062Q623.9375 216.54062 623.9375 215.75937Q623.9375 215.30624 624.1406 214.93124Q624.34375 214.54062 624.6875 214.32187Q625.03125 214.0875 625.4531 213.97812Q625.75 213.88437 626.3906 213.80624Q627.65625 213.66562 628.2656 213.44687Q628.2656 213.22812 628.2656 213.18124Q628.2656 212.525 627.96875 212.25937Q627.5625 211.91562 626.7656 211.91562Q626.03125 211.91562 625.6719 212.18124Q625.3125 212.43124 625.1406 213.0875L624.1094 212.94687Q624.25 212.29062 624.5781 211.88437Q624.90625 211.47812 625.5156 211.25937Q626.125 211.04062 626.9219 211.04062Q627.71875 211.04062 628.21875 211.22812Q628.71875 211.41562 628.9531 211.69687Q629.1875 211.97812 629.28125 212.41562Q629.3281 212.68124 629.3281 213.38437L629.3281 214.79062Q629.3281 216.25937 629.3906 216.65Q629.46875 217.04062 629.6719 217.4L628.5625 217.4Q628.40625 217.07187 628.3594 216.63437ZM628.2656 214.275Q627.6875 214.50937 626.5469 214.68124Q625.8906 214.775 625.625 214.9Q625.3594 215.00937 625.2031 215.22812Q625.0625 215.44687 625.0625 215.72812Q625.0625 216.15 625.375 216.43124Q625.7031 216.7125 626.3125 216.7125Q626.9219 216.7125 627.3906 216.44687Q627.875 216.18124 628.09375 215.7125Q628.2656 215.35312 628.2656 214.66562L628.2656 214.275ZM626.2031 210.4L626.9844 208.75937L628.375 208.75937L627.0781 210.4L626.2031 210.4ZM631.2969 219.79062L631.2969 211.18124L632.25 211.18124L632.25 211.97812Q632.59375 211.50937 633.0156 211.275Q633.4531 211.04062 634.0625 211.04062Q634.8594 211.04062 635.46875 211.44687Q636.0781 211.85312 636.375 212.60312Q636.6875 213.35312 636.6875 214.24374Q636.6875 215.19687 636.34375 215.9625Q636.0156 216.72812 635.3594 217.13437Q634.7031 217.54062 633.9844 217.54062Q633.4531 217.54062 633.03125 217.32187Q632.6094 217.0875 632.34375 216.75937L632.34375 219.79062L631.2969 219.79062ZM632.25 214.32187Q632.25 215.525 632.7344 216.10312Q633.21875 216.66562 633.90625 216.66562Q634.6094 216.66562 635.1094 216.07187Q635.6094 215.47812 635.6094 214.22812Q635.6094 213.04062 635.125 212.4625Q634.6406 211.86874 633.9531 211.86874Q633.28125 211.86874 632.7656 212.49374Q632.25 213.11874 632.25 214.32187ZM645.2656 210.25937L643.2344 210.25937L643.2344 209.47812L645.2656 209.47812L645.2656 208.80624L646.3125 208.80624L646.3125 209.47812L647.15625 209.47812L647.15625 210.25937L646.3125 210.25937L646.3125 217.4L645.3281 217.4L645.3281 216.61874Q644.7344 217.54062 643.59375 217.54062Q642.84375 217.54062 642.21875 217.13437Q641.59375 216.7125 641.25 215.97812Q640.90625 215.24374 640.90625 214.29062Q640.90625 213.36874 641.21875 212.60312Q641.53125 211.8375 642.15625 211.44687Q642.78125 211.04062 643.5469 211.04062Q644.1094 211.04062 644.5469 211.275Q644.9844 211.50937 645.2656 211.88437L645.2656 210.25937ZM642.0 214.29062Q642.0 215.49374 642.5 216.0875Q643.0 216.66562 643.6875 216.66562Q644.375 216.66562 644.8594 216.10312Q645.34375 215.54062 645.34375 214.38437Q645.34375 213.10312 644.84375 212.50937Q644.3594 211.91562 643.6406 211.91562Q642.9375 211.91562 642.46875 212.49374Q642.0 213.05624 642.0 214.29062ZM652.5469 215.4L653.6406 215.525Q653.3906 216.47812 652.6875 217.00937Q651.9844 217.54062 650.90625 217.54062Q649.5469 217.54062 648.7344 216.69687Q647.9375 215.85312 647.9375 214.3375Q647.9375 212.775 648.75 211.91562Q649.5625 211.04062 650.84375 211.04062Q652.09375 211.04062 652.875 211.88437Q653.6719 212.72812 653.6719 214.275Q653.6719 214.36874 653.6719 214.55624L649.03125 214.55624Q649.09375 215.5875 649.6094 216.13437Q650.125 216.66562 650.90625 216.66562Q651.4844 216.66562 651.8906 216.36874Q652.3125 216.05624 652.5469 215.4ZM649.09375 213.69687L652.5625 213.69687Q652.5 212.9 652.1719 212.50937Q651.65625 211.9 650.8594 211.9Q650.125 211.9 649.625 212.38437Q649.1406 212.86874 649.09375 213.69687ZM650.8281 209.4L650.1719 210.4L648.9531 210.4L650.21875 208.75937L651.34375 208.75937L652.6719 210.4L651.46875 210.4L650.8281 209.4ZM651.34375 208.3375L650.4844 208.3375L649.1406 206.69687L650.5469 206.69687L651.34375 208.3375ZM657.59375 217.4L659.8594 214.16562L657.7656 211.18124L659.0781 211.18124L660.03125 212.63437Q660.2969 213.05624 660.46875 213.3375Q660.71875 212.94687 660.9375 212.65L661.9844 211.18124L663.25 211.18124L661.09375 214.10312L663.40625 217.4L662.125 217.4L660.84375 215.4625L660.5 214.94687L658.8594 217.4L657.59375 217.4ZM667.375 217.4L667.375 216.47812Q666.6406 217.54062 665.3906 217.54062Q664.84375 217.54062 664.3594 217.3375Q663.8906 217.11874 663.65625 216.80624Q663.4219 216.47812 663.3281 216.00937Q663.2656 215.7125 663.2656 215.025L663.2656 211.18124L664.3281 211.18124L664.3281 214.63437Q664.3281 215.44687 664.3906 215.74374Q664.4844 216.15 664.7969 216.4Q665.125 216.63437 665.6094 216.63437Q666.0781 216.63437 666.4844 216.4Q666.90625 216.15 667.0781 215.72812Q667.2656 215.30624 667.2656 214.50937L667.2656 211.18124L668.3125 211.18124L668.3125 217.4L667.375 217.4ZM674.3594 216.63437Q673.7656 217.13437 673.21875 217.3375Q672.6875 217.54062 672.0625 217.54062Q671.03125 217.54062 670.4844 217.04062Q669.9375 216.54062 669.9375 215.75937Q669.9375 215.30624 670.1406 214.93124Q670.34375 214.54062 670.6875 214.32187Q671.03125 214.0875 671.4531 213.97812Q671.75 213.88437 672.3906 213.80624Q673.65625 213.66562 674.2656 213.44687Q674.2656 213.22812 674.2656 213.18124Q674.2656 212.525 673.96875 212.25937Q673.5625 211.91562 672.7656 211.91562Q672.03125 211.91562 671.6719 212.18124Q671.3125 212.43124 671.1406 213.0875L670.1094 212.94687Q670.25 212.29062 670.5781 211.88437Q670.90625 211.47812 671.5156 211.25937Q672.125 211.04062 672.9219 211.04062Q673.71875 211.04062 674.21875 211.22812Q674.71875 211.41562 674.9531 211.69687Q675.1875 211.97812 675.28125 212.41562Q675.3281 212.68124 675.3281 213.38437L675.3281 214.79062Q675.3281 216.25937 675.3906 216.65Q675.46875 217.04062 675.6719 217.4L674.5625 217.4Q674.40625 217.07187 674.3594 216.63437ZM674.2656 214.275Q673.6875 214.50937 672.5469 214.68124Q671.8906 214.775 671.625 214.9Q671.3594 215.00937 671.2031 215.22812Q671.0625 215.44687 671.0625 215.72812Q671.0625 216.15 671.375 216.43124Q671.7031 216.7125 672.3125 216.7125Q672.9219 216.7125 673.3906 216.44687Q673.875 216.18124 674.09375 215.7125Q674.2656 215.35312 674.2656 214.66562L674.2656 214.275ZM672.8125 209.4L672.15625 210.4L670.9375 210.4L672.2031 208.75937L673.3281 208.75937L674.65625 210.4L673.4531 210.4L672.8125 209.4ZM673.0 206.69687L674.40625 206.69687L673.0625 208.3375L672.2031 208.3375L673.0 206.69687ZM679.59375 216.4625L679.75 217.38437Q679.2969 217.47812 678.9531 217.47812Q678.375 217.47812 678.0625 217.30624Q677.75 217.11874 677.6094 216.82187Q677.4844 216.525 677.4844 215.57187L677.4844 211.99374L676.71875 211.99374L676.71875 211.18124L677.4844 211.18124L677.4844 209.63437L678.53125 209.00937L678.53125 211.18124L679.59375 211.18124L679.59375 211.99374L678.53125 211.99374L678.53125 215.63437Q678.53125 216.0875 678.5781 216.2125Q678.6406 216.3375 678.7656 216.41562Q678.8906 216.49374 679.125 216.49374Q679.3125 216.49374 679.59375 216.4625Z" fill-rule="nonzero"/></svg>