<svg version="1.1" viewBox="0.0 0.0 1038.0 232.0" fill="none" stroke="none" stroke-linecap="square" stroke-miterlimit="10" width="1038" height="232" xmlns:xlink="http://www.w3.org/1999/xlink" xmlns="http://www.w3.org/2000/svg"><path fill="#ffffff" d="M0 0L1038.0 0L1038.0 232.0L0 232.0L0 0Z" fill-rule="nonzero"/><path stroke="#333333" stroke-width="1.0" stroke-linecap="butt" d="M86.5 136.5L1026.5 136.5" fill-rule="nonzero"/><path stroke="#cccccc" stroke-width="1.0" stroke-linecap="butt" d="M86.5 107.5L1026.5 107.5" fill-rule="nonzero"/><path stroke="#cccccc" stroke-width="1.0" stroke-linecap="butt" d="M86.5 77.5L1026.5 77.5" fill-rule="nonzero"/><path stroke="#cccccc" stroke-width="1.0" stroke-linecap="butt" d="M86.5 48.5L1026.5 48.5" fill-rule="nonzero"/><path stroke="#cccccc" stroke-width="1.0" stroke-linecap="butt" d="M86.5 18.5L1026.5 18.5" fill-rule="nonzero"/><clipPath id="id_0"><path d="M86.6 18.6L1026.4 18.6L1026.4 136.66667L86.6 136.66667L86.6 18.6Z" clip-rule="nonzero"/></clipPath><path stroke="#ff0000" stroke-width="2.0" stroke-linecap="butt" stroke-dasharray="8.0,6.0" clip-path="url(#id_0)" d="M107.95909 117.85291L150.67728 105.512344L193.39546 134.47964L236.11363 109.73989L278.83182 72.05762L321.55 132.74422L364.2682 70.444534L406.98636 131.62167L449.70456 134.99677L492.42273 131.53918L535.1409 80.249985L577.8591 130.73425L620.5773 129.51846L663.2955 127.01472L706.0136 121.85048L748.7318 123.28971L791.45 115.204506L834.16815 20.905546L876.88635 81.69675L919.60455 127.675446L962.32275 133.9163L1005.0409 107.92142" fill-rule="nonzero"/><path stroke="#0000ff" stroke-width="2.0" stroke-linecap="butt" clip-path="url(#id_0)" d="M107.95909 130.97807L150.67728 119.99565L193.39546 120.25141L236.11363 119.0433L278.83182 119.892494L321.55 133.81033L364.2682 126.581116L406.98636 131.39262L449.70456 53.51571L492.42273 133.48404L535.1409 122.153915L577.8591 131.02942L620.5773 131.48738L663.2955 124.65294L706.0136 125.34422L748.7318 126.09483L791.45 129.74413L834.16815 124.87136L876.88635 125.31869L919.60455 60.33391L962.32275 118.18067L1005.0409 114.718956" fill-rule="nonzero"/><path fill="#ff0000" clip-path="url(#id_0)" d="M107.95909 117.85291C107.95909 117.85291 107.95909 117.85291 107.95909 117.85291C107.95909 117.85291 107.95909 117.85291 107.95909 117.85291C107.95909 117.85291 107.95909 117.85291 107.95909 117.85291C107.95909 117.85291 107.95909 117.85291 107.95909 117.85291Z" fill-rule="nonzero"/><path fill="#ff0000" clip-path="url(#id_0)" d="M150.67728 105.512344C150.67728 105.512344 150.67728 105.512344 150.67728 105.512344C150.67728 105.512344 150.67728 105.512344 150.67728 105.512344C150.67728 105.512344 150.67728 105.512344 150.67728 105.512344C150.67728 105.512344 150.67728 105.512344 150.67728 105.512344Z" fill-rule="nonzero"/><path fill="#ff0000" clip-path="url(#id_0)" d="M193.39546 134.47964C193.39546 134.47964 193.39546 134.47964 193.39546 134.47964C193.39546 134.47964 193.39546 134.47964 193.39546 134.47964C193.39546 134.47964 193.39546 134.47964 193.39546 134.47964C193.39546 134.47964 193.39546 134.47964 193.39546 134.47964Z" fill-rule="nonzero"/><path fill="#ff0000" clip-path="url(#id_0)" d="M236.11363 109.73989C236.11363 109.73989 236.11363 109.73989 236.11363 109.73989C236.11363 109.73989 236.11363 109.73989 236.11363 109.73989C236.11363 109.73989 236.11363 109.73989 236.11363 109.73989C236.11363 109.73989 236.11363 109.73989 236.11363 109.73989Z" fill-rule="nonzero"/><path fill="#ff0000" clip-path="url(#id_0)" d="M278.83182 72.05762C278.83182 72.05762 278.83182 72.05762 278.83182 72.05762C278.83182 72.05762 278.83182 72.05762 278.83182 72.05762C278.83182 72.05762 278.83182 72.05762 278.83182 72.05762C278.83182 72.05762 278.83182 72.05762 278.83182 72.05762Z" fill-rule="nonzero"/><path fill="#ff0000" clip-path="url(#id_0)" d="M321.55 132.74422C321.55 132.74422 321.55 132.74422 321.55 132.74422C321.55 132.74422 321.55 132.74422 321.55 132.74422C321.55 132.74422 321.55 132.74422 321.55 132.74422C321.55 132.74422 321.55 132.74422 321.55 132.74422Z" fill-rule="nonzero"/><path fill="#ff0000" clip-path="url(#id_0)" d="M364.2682 70.444534C364.2682 70.444534 364.2682 70.444534 364.2682 70.444534C364.2682 70.444534 364.2682 70.444534 364.2682 70.444534C364.2682 70.444534 364.2682 70.444534 364.2682 70.444534C364.2682 70.444534 364.2682 70.444534 364.2682 70.444534Z" fill-rule="nonzero"/><path fill="#ff0000" clip-path="url(#id_0)" d="M406.98636 131.62167C406.98636 131.62167 406.98636 131.62167 406.98636 131.62167C406.98636 131.62167 406.98636 131.62167 406.98636 131.62167C406.98636 131.62167 406.98636 131.62167 406.98636 131.62167C406.98636 131.62167 406.98636 131.62167 406.98636 131.62167Z" fill-rule="nonzero"/><path fill="#ff0000" clip-path="url(#id_0)" d="M449.70456 134.99677C449.70456 134.99677 449.70456 134.99677 449.70456 134.99677C449.70456 134.99677 449.70456 134.99677 449.70456 134.99677C449.70456 134.99677 449.70456 134.99677 449.70456 134.99677C449.70456 134.99677 449.70456 134.99677 449.70456 134.99677Z" fill-rule="nonzero"/><path fill="#ff0000" clip-path="url(#id_0)" d="M492.42273 131.53918C492.42273 131.53918 492.42273 131.53918 492.42273 131.53918C492.42273 131.53918 492.42273 131.53918 492.42273 131.53918C492.42273 131.53918 492.42273 131.53918 492.42273 131.53918C492.42273 131.53918 492.42273 131.53918 492.42273 131.53918Z" fill-rule="nonzero"/><path fill="#ff0000" clip-path="url(#id_0)" d="M535.1409 80.249985C535.1409 80.249985 535.1409 80.249985 535.1409 80.249985C535.1409 80.249985 535.1409 80.249985 535.1409 80.249985C535.1409 80.249985 535.1409 80.249985 535.1409 80.249985C535.1409 80.249985 535.1409 80.249985 535.1409 80.249985Z" fill-rule="nonzero"/><path fill="#ff0000" clip-path="url(#id_0)" d="M577.8591 130.73425C577.8591 130.73425 577.8591 130.73425 577.8591 130.73425C577.8591 130.73425 577.8591 130.73425 577.8591 130.73425C577.8591 130.73425 577.8591 130.73425 577.8591 130.73425C577.8591 130.73425 577.8591 130.73425 577.8591 130.73425Z" fill-rule="nonzero"/><path fill="#ff0000" clip-path="url(#id_0)" d="M620.5773 129.51846C620.5773 129.51846 620.5773 129.51846 620.5773 129.51846C620.5773 129.51846 620.5773 129.51846 620.5773 129.51846C620.5773 129.51846 620.5773 129.51846 620.5773 129.51846C620.5773 129.51846 620.5773 129.51846 620.5773 129.51846Z" fill-rule="nonzero"/><path fill="#ff0000" clip-path="url(#id_0)" d="M663.2955 127.01472C663.2955 127.01472 663.2955 127.01472 663.2955 127.01472C663.2955 127.01472 663.2955 127.01472 663.2955 127.01472C663.2955 127.01472 663.2955 127.01472 663.2955 127.01472C663.2955 127.01472 663.2955 127.01472 663.2955 127.01472Z" fill-rule="nonzero"/><path fill="#ff0000" clip-path="url(#id_0)" d="M706.0136 121.85048C706.0136 121.85048 706.0136 121.85048 706.0136 121.85048C706.0136 121.85048 706.0136 121.85048 706.0136 121.85048C706.0136 121.85048 706.0136 121.85048 706.0136 121.85048C706.0136 121.85048 706.0136 121.85048 706.0136 121.85048Z" fill-rule="nonzero"/><path fill="#ff0000" clip-path="url(#id_0)" d="M748.7318 123.28971C748.7318 123.28971 748.7318 123.28971 748.7318 123.28971C748.7318 123.28971 748.7318 123.28971 748.7318 123.28971C748.7318 123.28971 748.7318 123.28971 748.7318 123.28971C748.7318 123.28971 748.7318 123.28971 748.7318 123.28971Z" fill-rule="nonzero"/><path fill="#ff0000" clip-path="url(#id_0)" d="M791.45 115.204506C791.45 115.204506 791.45 115.204506 791.45 115.204506C791.45 115.204506 791.45 115.204506 791.45 115.204506C791.45 115.204506 791.45 115.204506 791.45 115.204506C791.45 115.204506 791.45 115.204506 791.45 115.204506Z" fill-rule="nonzero"/><path fill="#ff0000" clip-path="url(#id_0)" d="M834.16815 20.905546C834.16815 20.905546 834.16815 20.905546 834.16815 20.905546C834.16815 20.905546 834.16815 20.905546 834.16815 20.905546C834.16815 20.905546 834.16815 20.905546 834.16815 20.905546C834.16815 20.905546 834.16815 20.905546 834.16815 20.905546Z" fill-rule="nonzero"/><path fill="#ff0000" clip-path="url(#id_0)" d="M876.88635 81.69675C876.88635 81.69675 876.88635 81.69675 876.88635 81.69675C876.88635 81.69675 876.88635 81.69675 876.88635 81.69675C876.88635 81.69675 876.88635 81.69675 876.88635 81.69675C876.88635 81.69675 876.88635 81.69675 876.88635 81.69675Z" fill-rule="nonzero"/><path fill="#ff0000" clip-path="url(#id_0)" d="M919.60455 127.675446C919.60455 127.675446 919.60455 127.675446 919.60455 127.675446C919.60455 127.675446 919.60455 127.675446 919.60455 127.675446C919.60455 127.675446 919.60455 127.675446 919.60455 127.675446C919.60455 127.675446 919.60455 127.675446 919.60455 127.675446Z" fill-rule="nonzero"/><path fill="#ff0000" clip-path="url(#id_0)" d="M962.32275 133.9163C962.32275 133.9163 962.32275 133.9163 962.32275 133.9163C962.32275 133.9163 962.32275 133.9163 962.32275 133.9163C962.32275 133.9163 962.32275 133.9163 962.32275 133.9163C962.32275 133.9163 962.32275 133.9163 962.32275 133.9163Z" fill-rule="nonzero"/><path fill="#ff0000" clip-path="url(#id_0)" d="M1005.0409 107.92142C1005.0409 107.92142 1005.0409 107.92142 1005.0409 107.92142C1005.0409 107.92142 1005.0409 107.92142 1005.0409 107.92142C1005.0409 107.92142 1005.0409 107.92142 1005.0409 107.92142C1005.0409 107.92142 1005.0409 107.92142 1005.0409 107.92142Z" fill-rule="nonzero"/><path fill="#000000" fill-opacity="0.0" clip-path="url(#id_0)" d="M110.95909 130.97807C110.95909 132.63492 109.615944 133.97807 107.95909 133.97807C106.30224 133.97807 104.95909 132.63492 104.95909 130.97807C104.95909 129.32121 106.30224 127.978065 107.95909 127.978065C109.615944 127.978065 110.95909 129.32121 110.95909 130.97807Z" fill-rule="nonzero"/><path fill="#000000" fill-opacity="0.0" clip-path="url(#id_0)" d="M153.67728 119.99565C153.67728 121.652504 152.33412 122.99565 150.67728 122.99565C149.02042 122.99565 147.67728 121.652504 147.67728 119.99565C147.67728 118.3388 149.02042 116.99565 150.67728 116.99565C152.33412 116.99565 153.67728 118.3388 153.67728 119.99565Z" fill-rule="nonzero"/><path fill="#000000" fill-opacity="0.0" clip-path="url(#id_0)" d="M196.39546 120.25141C196.39546 121.90827 195.0523 123.25141 193.39546 123.25141C191.7386 123.25141 190.39546 121.90827 190.39546 120.25141C190.39546 118.59456 191.7386 117.25141 193.39546 117.25141C195.0523 117.25141 196.39546 118.59456 196.39546 120.25141Z" fill-rule="nonzero"/><path fill="#000000" fill-opacity="0.0" clip-path="url(#id_0)" d="M239.11363 119.0433C239.11363 120.70015 237.7705 122.0433 236.11363 122.0433C234.45679 122.0433 233.11363 120.70015 233.11363 119.0433C233.11363 117.386444 234.45679 116.0433 236.11363 116.0433C237.7705 116.0433 239.11363 117.386444 239.11363 119.0433Z" fill-rule="nonzero"/><path fill="#000000" fill-opacity="0.0" clip-path="url(#id_0)" d="M281.83182 119.892494C281.83182 121.54935 280.48868 122.892494 278.83182 122.892494C277.17496 122.892494 275.83182 121.54935 275.83182 119.892494C275.83182 118.23564 277.17496 116.892494 278.83182 116.892494C280.48868 116.892494 281.83182 118.23564 281.83182 119.892494Z" fill-rule="nonzero"/><path fill="#000000" fill-opacity="0.0" clip-path="url(#id_0)" d="M324.55 133.81033C324.55 135.4672 323.20685 136.81033 321.55 136.81033C319.89316 136.81033 318.55 135.4672 318.55 133.81033C318.55 132.15349 319.89316 130.81033 321.55 130.81033C323.20685 130.81033 324.55 132.15349 324.55 133.81033Z" fill-rule="nonzero"/><path fill="#000000" fill-opacity="0.0" clip-path="url(#id_0)" d="M367.2682 126.581116C367.2682 128.23798 365.92505 129.58112 364.2682 129.58112C362.61133 129.58112 361.2682 128.23798 361.2682 126.581116C361.2682 124.92426 362.61133 123.581116 364.2682 123.581116C365.92505 123.581116 367.2682 124.92426 367.2682 126.581116Z" fill-rule="nonzero"/><path fill="#000000" fill-opacity="0.0" clip-path="url(#id_0)" d="M409.98636 131.39262C409.98636 133.04948 408.64322 134.39262 406.98636 134.39262C405.3295 134.39262 403.98636 133.04948 403.98636 131.39262C403.98636 129.73578 405.3295 128.39262 406.98636 128.39262C408.64322 128.39262 409.98636 129.73578 409.98636 131.39262Z" fill-rule="nonzero"/><path fill="#000000" fill-opacity="0.0" clip-path="url(#id_0)" d="M452.70456 53.51571C452.70456 55.17256 451.3614 56.51571 449.70456 56.51571C448.0477 56.51571 446.70456 55.17256 446.70456 53.51571C446.70456 51.858852 448.0477 50.51571 449.70456 50.51571C451.3614 50.51571 452.70456 51.858852 452.70456 53.51571Z" fill-rule="nonzero"/><path fill="#000000" fill-opacity="0.0" clip-path="url(#id_0)" d="M495.42273 133.48404C495.42273 135.14088 494.0796 136.48404 492.42273 136.48404C490.76587 136.48404 489.42273 135.14088 489.42273 133.48404C489.42273 131.82718 490.76587 130.48404 492.42273 130.48404C494.0796 130.48404 495.42273 131.82718 495.42273 133.48404Z" fill-rule="nonzero"/><path fill="#000000" fill-opacity="0.0" clip-path="url(#id_0)" d="M538.1409 122.153915C538.1409 123.81077 536.7978 125.153915 535.1409 125.153915C533.4841 125.153915 532.1409 123.81077 532.1409 122.153915C532.1409 120.497055 533.4841 119.153915 535.1409 119.153915C536.7978 119.153915 538.1409 120.497055 538.1409 122.153915Z" fill-rule="nonzero"/><path fill="#000000" fill-opacity="0.0" clip-path="url(#id_0)" d="M580.8591 131.02942C580.8591 132.68628 579.5159 134.02942 577.8591 134.02942C576.2022 134.02942 574.8591 132.68628 574.8591 131.02942C574.8591 129.37257 576.2022 128.02942 577.8591 128.02942C579.5159 128.02942 580.8591 129.37257 580.8591 131.02942Z" fill-rule="nonzero"/><path fill="#000000" fill-opacity="0.0" clip-path="url(#id_0)" d="M623.5773 131.48738C623.5773 133.14423 622.23413 134.48738 620.5773 134.48738C618.9204 134.48738 617.5773 133.14423 617.5773 131.48738C617.5773 129.83052 618.9204 128.48738 620.5773 128.48738C622.23413 128.48738 623.5773 129.83052 623.5773 131.48738Z" fill-rule="nonzero"/><path fill="#000000" fill-opacity="0.0" clip-path="url(#id_0)" d="M666.2955 124.65294C666.2955 126.30979 664.95233 127.65294 663.2955 127.65294C661.6386 127.65294 660.2955 126.30979 660.2955 124.65294C660.2955 122.996086 661.6386 121.65294 663.2955 121.65294C664.95233 121.65294 666.2955 122.996086 666.2955 124.65294Z" fill-rule="nonzero"/><path fill="#000000" fill-opacity="0.0" clip-path="url(#id_0)" d="M709.0136 125.34422C709.0136 127.001076 707.6705 128.34422 706.0136 128.34422C704.3568 128.34422 703.0136 127.001076 703.0136 125.34422C703.0136 123.68737 704.3568 122.34422 706.0136 122.34422C707.6705 122.34422 709.0136 123.68737 709.0136 125.34422Z" fill-rule="nonzero"/><path fill="#000000" fill-opacity="0.0" clip-path="url(#id_0)" d="M751.7318 126.09483C751.7318 127.751686 750.3887 129.09483 748.7318 129.09483C747.07495 129.09483 745.7318 127.751686 745.7318 126.09483C745.7318 124.43797 747.07495 123.09483 748.7318 123.09483C750.3887 123.09483 751.7318 124.43797 751.7318 126.09483Z" fill-rule="nonzero"/><path fill="#000000" fill-opacity="0.0" clip-path="url(#id_0)" d="M794.45 129.74413C794.45 131.40097 793.1069 132.74413 791.45 132.74413C789.79315 132.74413 788.45 131.40097 788.45 129.74413C788.45 128.08727 789.79315 126.744125 791.45 126.744125C793.1069 126.744125 794.45 128.08727 794.45 129.74413Z" fill-rule="nonzero"/><path fill="#000000" fill-opacity="0.0" clip-path="url(#id_0)" d="M837.16815 124.87136C837.16815 126.52822 835.825 127.87136 834.16815 127.87136C832.51135 127.87136 831.16815 126.52822 831.16815 124.87136C831.16815 123.21451 832.51135 121.87136 834.16815 121.87136C835.825 121.87136 837.16815 123.21451 837.16815 124.87136Z" fill-rule="nonzero"/><path fill="#000000" fill-opacity="0.0" clip-path="url(#id_0)" d="M879.88635 125.31869C879.88635 126.97554 878.5432 128.3187 876.88635 128.3187C875.2295 128.3187 873.88635 126.97554 873.88635 125.31869C873.88635 123.661835 875.2295 122.31869 876.88635 122.31869C878.5432 122.31869 879.88635 123.661835 879.88635 125.31869Z" fill-rule="nonzero"/><path fill="#000000" fill-opacity="0.0" clip-path="url(#id_0)" d="M922.60455 60.33391C922.60455 61.990765 921.2614 63.33391 919.60455 63.33391C917.9477 63.33391 916.60455 61.990765 916.60455 60.33391C916.60455 58.677055 917.9477 57.33391 919.60455 57.33391C921.2614 57.33391 922.60455 58.677055 922.60455 60.33391Z" fill-rule="nonzero"/><path fill="#000000" fill-opacity="0.0" clip-path="url(#id_0)" d="M965.32275 118.18067C965.32275 119.837524 963.97955 121.18067 962.32275 121.18067C960.6659 121.18067 959.32275 119.837524 959.32275 118.18067C959.32275 116.52382 960.6659 115.18067 962.32275 115.18067C963.97955 115.18067 965.32275 116.52382 965.32275 118.18067Z" fill-rule="nonzero"/><path fill="#000000" fill-opacity="0.0" clip-path="url(#id_0)" d="M1008.0409 114.718956C1008.0409 116.37582 1006.69775 117.718956 1005.0409 117.718956C1003.38403 117.718956 1002.0409 116.37582 1002.0409 114.718956C1002.0409 113.0621 1003.38403 111.718956 1005.0409 111.718956C1006.69775 111.718956 1008.0409 113.0621 1008.0409 114.718956Z" fill-rule="nonzero"/><path fill="#000000" d="M494.39062 187.66667L494.39062 181.8073L492.96875 181.8073L492.96875 180.65105L494.39062 180.65105L494.39062 174.77605L498.84375 174.77605Q500.32812 174.77605 501.125 174.96355Q502.23438 175.21355 503.01562 175.88542Q504.03125 176.7448 504.53125 178.08855Q505.04688 179.4323 505.04688 181.15105Q505.04688 183.1198 504.42188 184.54167Q503.79688 185.96355 502.92188 186.60417Q502.04688 187.2448 500.92188 187.51042Q500.29688 187.66667 499.03125 187.66667L494.39062 187.66667ZM496.09375 186.15105L498.84375 186.15105Q500.125 186.15105 500.84375 185.91667Q501.5625 185.66667 501.98438 185.2448Q502.59375 184.63542 502.9375 183.6198Q503.28125 182.60417 503.28125 181.13542Q503.28125 179.6198 502.9375 178.71355Q502.60938 177.8073 502.0625 177.27605Q501.51562 176.72917 500.84375 176.52605Q500.1875 176.3073 498.79688 176.3073L496.09375 176.3073L496.09375 180.65105L499.64062 180.65105L499.64062 181.8073L496.09375 181.8073L496.09375 186.15105ZM508.21875 182.9948Q508.21875 184.72917 509.0 185.6823Q509.75 186.57292 510.96875 186.57292Q512.2031 186.57292 512.9375 185.6823Q513.71875 184.72917 513.71875 182.94792Q513.71875 181.26042 512.9219 180.32292Q512.1875 179.4323 510.96875 179.4323Q509.73438 179.4323 509.0 180.32292Q508.21875 181.26042 508.21875 182.9948ZM515.5469 179.94792L515.5469 178.10417L517.25 178.10417L517.25 179.5573Q517.25 180.65105 516.9219 181.22917Q516.4844 181.97917 515.34375 182.6198Q515.34375 182.72917 515.34375 182.8698Q515.34375 186.13542 513.2344 187.3073Q512.2031 187.88542 510.96875 187.88542Q508.96875 187.88542 507.79688 186.6198Q506.59375 185.32292 506.59375 182.9948Q506.59375 180.40105 508.04688 179.15105Q509.25 178.1198 510.96875 178.1198Q512.90625 178.1198 514.125 179.38542Q515.0469 180.33855 515.2656 181.85417Q515.875 181.47917 516.125 181.08855Q516.3906 180.6823 516.375 179.94792L515.5469 179.94792ZM519.1875 187.66667L519.1875 178.33855L520.6094 178.33855L520.6094 179.66667Q521.6406 178.1198 523.5781 178.1198Q524.4219 178.1198 525.125 178.4323Q525.84375 178.72917 526.1875 179.22917Q526.5469 179.71355 526.6875 180.38542Q526.7656 180.82292 526.7656 181.9323L526.7656 187.66667L525.1875 187.66667L525.1875 181.9948Q525.1875 181.02605 525.0 180.54167Q524.8281 180.0573 524.34375 179.77605Q523.875 179.4948 523.25 179.4948Q522.2344 179.4948 521.5 180.13542Q520.7656 180.77605 520.7656 182.57292L520.7656 187.66667L519.1875 187.66667ZM536.78125 187.66667L533.2344 178.33855L534.90625 178.33855L536.90625 183.91667Q537.2344 184.82292 537.5 185.8073Q537.71875 185.0573 538.09375 184.02605L540.15625 178.33855L541.7969 178.33855L538.25 187.66667L536.78125 187.66667ZM543.2031 176.60417L543.2031 174.77605L544.78125 174.77605L544.78125 176.60417L543.2031 176.60417ZM543.2031 187.66667L543.2031 178.33855L544.78125 178.33855L544.78125 187.66667L543.2031 187.66667ZM543.09375 190.52605L543.09375 188.72917L544.8906 188.72917L544.8906 190.52605L543.09375 190.52605ZM552.2031 187.66667L552.2031 174.77605L553.78125 174.77605L553.78125 182.13542L557.5156 178.33855L559.5625 178.33855L556.0 181.79167L559.9375 187.66667L557.9844 187.66667L554.8906 182.90105L553.78125 183.96355L553.78125 187.66667L552.2031 187.66667ZM561.2031 176.60417L561.2031 174.77605L562.78125 174.77605L562.78125 176.60417L561.2031 176.60417ZM561.2031 187.66667L561.2031 178.33855L562.78125 178.33855L562.78125 187.66667L561.2031 187.66667ZM571.5781 184.66667L573.21875 184.8698Q572.8281 186.29167 571.78125 187.08855Q570.7344 187.88542 569.1094 187.88542Q567.0625 187.88542 565.8594 186.6198Q564.65625 185.35417 564.65625 183.07292Q564.65625 180.72917 565.8594 179.4323Q567.0781 178.1198 569.0156 178.1198Q570.8906 178.1198 572.0781 179.40105Q573.2656 180.66667 573.2656 182.97917Q573.2656 183.1198 573.25 183.40105L566.2969 183.40105Q566.375 184.94792 567.15625 185.76042Q567.9531 186.57292 569.1094 186.57292Q569.9844 186.57292 570.59375 186.1198Q571.21875 185.66667 571.5781 184.66667ZM566.375 182.10417L571.59375 182.10417Q571.4844 180.9323 571.0 180.33855Q570.2344 179.41667 569.03125 179.41667Q567.9531 179.41667 567.2031 180.15105Q566.46875 180.88542 566.375 182.10417ZM568.9844 175.6823L567.9844 177.16667L566.1719 177.16667L568.0781 174.71355L569.7656 174.71355L571.7344 177.16667L569.9375 177.16667L568.9844 175.6823ZM568.46875 173.38542Q568.96875 173.33855 569.1094 173.29167Q569.5781 173.1823 569.59375 172.9323Q569.59375 172.72917 569.34375 172.58855Q568.96875 172.38542 568.1719 172.38542Q567.90625 172.38542 567.34375 172.4323L567.25 171.60417Q567.59375 171.52605 568.5156 171.54167Q569.59375 171.54167 570.28125 171.88542Q571.03125 172.26042 571.0625 172.85417Q571.09375 173.72917 569.4531 173.9323L569.4531 174.3698L568.46875 174.3698L568.46875 173.38542ZM575.1875 187.66667L575.1875 178.33855L576.6094 178.33855L576.6094 179.63542Q577.0469 178.96355 577.7656 178.54167Q578.5 178.1198 579.4375 178.1198Q580.46875 178.1198 581.125 178.5573Q581.7969 178.97917 582.0625 179.76042Q583.1719 178.1198 584.9531 178.1198Q586.34375 178.1198 587.0781 178.90105Q587.8281 179.66667 587.8281 181.26042L587.8281 187.66667L586.2656 187.66667L586.2656 181.79167Q586.2656 180.83855 586.1094 180.41667Q585.9531 179.9948 585.5469 179.7448Q585.1406 179.4948 584.59375 179.4948Q583.6094 179.4948 582.9531 180.15105Q582.3125 180.8073 582.3125 182.2448L582.3125 187.66667L580.7344 187.66667L580.7344 181.60417Q580.7344 180.54167 580.34375 180.02605Q579.9531 179.4948 579.0781 179.4948Q578.40625 179.4948 577.84375 179.85417Q577.28125 180.19792 577.0156 180.8698Q576.7656 181.54167 576.7656 182.82292L576.7656 187.66667L575.1875 187.66667ZM597.6406 186.2448L597.875 187.65105Q597.2031 187.79167 596.6719 187.79167Q595.8125 187.79167 595.3281 187.52605Q594.8594 187.2448 594.6719 186.8073Q594.4844 186.35417 594.4844 184.9323L594.4844 179.5573L593.3125 179.5573L593.3125 178.33855L594.4844 178.33855L594.4844 176.02605L596.0469 175.07292L596.0469 178.33855L597.6406 178.33855L597.6406 179.5573L596.0469 179.5573L596.0469 185.02605Q596.0469 185.69792 596.125 185.90105Q596.21875 186.08855 596.40625 186.19792Q596.59375 186.3073 596.9531 186.3073Q597.2031 186.3073 597.6406 186.2448ZM599.1875 187.66667L599.1875 174.77605L600.7656 174.77605L600.7656 179.40105Q601.875 178.1198 603.5625 178.1198Q604.59375 178.1198 605.3594 178.52605Q606.125 178.9323 606.4531 179.66667Q606.7969 180.38542 606.7969 181.7448L606.7969 187.66667L605.2031 187.66667L605.2031 181.7448Q605.2031 180.5573 604.6875 180.02605Q604.1719 179.47917 603.2344 179.47917Q602.53125 179.47917 601.90625 179.85417Q601.2969 180.21355 601.03125 180.83855Q600.7656 181.46355 600.7656 182.5573L600.7656 187.66667L599.1875 187.66667ZM617.8125 180.16667L617.8125 178.33855L619.5 178.33855L619.5 179.77605Q619.5 181.16667 619.1875 181.71355Q618.375 183.1198 616.71875 183.29167L616.71875 187.66667L615.2969 187.66667L615.2969 186.29167Q614.21875 187.88542 612.34375 187.88542Q611.53125 187.88542 610.8125 187.57292Q610.09375 187.26042 609.7344 186.77605Q609.3906 186.29167 609.25 185.58855Q609.15625 185.1198 609.15625 184.1198L609.15625 178.33855L610.7344 178.33855L610.7344 183.51042Q610.7344 184.76042 610.8281 185.1823Q611.1406 186.51042 612.65625 186.51042Q613.3906 186.51042 614.0 186.15105Q614.625 185.77605 614.875 185.15105Q615.1406 184.52605 615.1406 183.33855L615.1406 178.33855L616.71875 178.33855L616.71875 182.6198Q617.8281 182.4323 618.3906 181.57292Q618.6406 181.21355 618.6406 180.16667L617.8125 180.16667ZM612.4375 176.1198Q612.9375 176.0573 613.0781 176.02605Q613.5469 175.8698 613.5469 175.52605Q613.5625 175.32292 613.3125 175.1823Q612.9375 174.97917 612.1406 174.97917Q611.8594 174.97917 611.3125 175.02605L611.21875 174.1198Q611.5625 174.0573 612.4844 174.0573Q613.5625 174.07292 614.25 174.41667Q615.0 174.77605 615.0156 175.44792Q615.0625 176.52605 613.4219 176.72917L613.4219 177.16667L612.4375 177.16667L612.4375 176.1198Z" fill-rule="nonzero"/><path fill="#000000" d="M28.600004 136.46146L17.24063 136.46146L17.24063 140.71146L15.70938 140.71146L15.70938 130.4927L17.24063 130.4927L17.24063 134.75833L28.600004 134.75833L28.600004 136.46146ZM28.600004 127.94583L15.70938 127.94583L15.70938 126.36771L20.33438 126.36771Q19.05313 125.25833 19.05313 123.57083Q19.05313 122.53959 19.45938 121.773964Q19.86563 121.00834 20.600004 120.680214Q21.318754 120.336464 22.67813 120.336464L28.600004 120.336464L28.600004 121.930214L22.67813 121.930214Q21.49063 121.930214 20.95938 122.44584Q20.412504 122.961464 20.412504 123.89896Q20.412504 124.60208 20.787504 125.22708Q21.14688 125.83646 21.77188 126.10208Q22.39688 126.36771 23.49063 126.36771L28.600004 126.36771L28.600004 127.94583ZM23.92813 116.91459Q25.662504 116.91459 26.61563 116.13334Q27.506254 115.38334 27.506254 114.16459Q27.506254 112.930214 26.61563 112.19584Q25.662504 111.41459 23.881254 111.41459Q22.193754 111.41459 21.256254 112.211464Q20.36563 112.94584 20.36563 114.16459Q20.36563 115.398964 21.256254 116.13334Q22.193754 116.91459 23.92813 116.91459ZM20.881254 109.586464L19.037504 109.586464L19.037504 107.88334L20.49063 107.88334Q21.58438 107.88334 22.162504 108.211464Q22.912504 108.648964 23.55313 109.78959Q23.662504 109.78959 23.80313 109.78959Q27.068754 109.78959 28.24063 111.898964Q28.818754 112.930214 28.818754 114.16459Q28.818754 116.16459 27.55313 117.336464Q26.256254 118.53959 23.92813 118.53959Q21.33438 118.53959 20.08438 117.086464Q19.05313 115.88334 19.05313 114.16459Q19.05313 112.22709 20.318754 111.00834Q21.27188 110.086464 22.787504 109.867714Q22.412504 109.25834 22.02188 109.00834Q21.61563 108.742714 20.881254 108.75834L20.881254 109.586464ZM18.100004 113.086464L18.100004 114.367714L15.64688 116.398964L15.64688 114.273964L18.100004 113.086464ZM17.537504 105.930214L15.70938 105.930214L15.70938 104.35209L17.537504 104.35209L17.537504 105.930214ZM28.600004 105.930214L19.27188 105.930214L19.27188 104.35209L28.600004 104.35209L28.600004 105.930214ZM29.381254 97.242714L29.600004 95.69584Q30.318754 95.60209 30.64688 95.16459Q31.08438 94.57084 31.08438 93.555214Q31.08438 92.461464 30.631254 91.867714Q30.193754 91.25834 29.412504 91.055214Q28.92813 90.930214 27.381254 90.930214Q28.600004 91.97709 28.600004 93.523964Q28.600004 95.44584 27.20938 96.50834Q25.818754 97.555214 23.881254 97.555214Q22.537504 97.555214 21.412504 97.07084Q20.287504 96.586464 19.67813 95.66459Q19.05313 94.742714 19.05313 93.50834Q19.05313 91.85209 20.39688 90.78959L19.27188 90.78959L19.27188 89.32084L27.33438 89.32084Q29.52188 89.32084 30.42813 89.773964Q31.33438 90.211464 31.850004 91.180214Q32.381256 92.13334 32.381256 93.53959Q32.381256 95.211464 31.631254 96.242714Q30.881254 97.273964 29.381254 97.242714ZM23.77188 95.930214Q25.600004 95.930214 26.443754 95.19584Q27.287504 94.461464 27.287504 93.367714Q27.287504 92.273964 26.45938 91.53959Q25.61563 90.805214 23.818754 90.805214Q22.100004 90.805214 21.24063 91.57084Q20.36563 92.32084 20.36563 93.398964Q20.36563 94.44584 21.225004 95.19584Q22.08438 95.930214 23.77188 95.930214ZM17.537504 86.930214L15.70938 86.930214L15.70938 85.35209L17.537504 85.35209L17.537504 86.930214ZM28.600004 86.930214L19.27188 86.930214L19.27188 85.35209L28.600004 85.35209L28.600004 86.930214ZM27.443754 76.85209Q28.193754 77.72709 28.506254 78.555214Q28.818754 79.367714 28.818754 80.28959Q28.818754 81.836464 28.068754 82.66459Q27.30313 83.47709 26.131254 83.47709Q25.45938 83.47709 24.89688 83.16459Q24.318754 82.85209 23.975004 82.35209Q23.631254 81.85209 23.45938 81.211464Q23.33438 80.742714 23.225004 79.805214Q22.99063 77.898964 22.67813 76.992714Q22.350004 76.97709 22.256254 76.97709Q21.30313 76.97709 20.89688 77.430214Q20.36563 78.03959 20.36563 79.22709Q20.36563 80.35209 20.756254 80.88334Q21.14688 81.41459 22.14688 81.66459L21.92813 83.211464Q20.92813 82.992714 20.318754 82.523964Q19.70938 82.03959 19.381254 81.13334Q19.05313 80.211464 19.05313 78.992714Q19.05313 77.805214 19.33438 77.055214Q19.61563 76.305214 20.05313 75.961464Q20.475004 75.60209 21.11563 75.461464Q21.52188 75.38334 22.58438 75.38334L24.693754 75.38334Q26.89688 75.38334 27.49063 75.28959Q28.068754 75.180214 28.600004 74.88334L28.600004 76.53959Q28.100004 76.78959 27.443754 76.85209ZM23.912504 76.992714Q24.27188 77.85209 24.506254 79.57084Q24.64688 80.53959 24.83438 80.94584Q25.006254 81.35209 25.350004 81.57084Q25.67813 81.78959 26.100004 81.78959Q26.725004 81.78959 27.14688 81.32084Q27.568754 80.836464 27.568754 79.91459Q27.568754 78.992714 27.17813 78.28959Q26.77188 77.57084 26.08438 77.242714Q25.537504 76.992714 24.49063 76.992714L23.912504 76.992714ZM28.600004 72.94584L19.27188 72.94584L19.27188 71.523964L20.600004 71.523964Q19.05313 70.492714 19.05313 68.555214Q19.05313 67.711464 19.36563 67.00834Q19.662504 66.28959 20.162504 65.94584Q20.64688 65.586464 21.318754 65.44584Q21.756254 65.367714 22.86563 65.367714L28.600004 65.367714L28.600004 66.94584L22.92813 66.94584Q21.95938 66.94584 21.475004 67.13334Q20.99063 67.305214 20.70938 67.78959Q20.42813 68.25834 20.42813 68.88334Q20.42813 69.898964 21.068754 70.63334Q21.70938 71.367714 23.506254 71.367714L28.600004 71.367714L28.600004 72.94584ZM32.381256 54.93021Q30.74063 56.227085 28.52188 57.133335Q26.30313 58.039585 23.92813 58.039585Q21.83438 58.039585 19.92813 57.36771Q17.693754 56.570835 15.49063 54.93021L15.49063 53.789585Q17.318754 54.852085 18.100004 55.195835Q19.318754 55.727085 20.631254 56.039585Q22.287504 56.414585 23.943754 56.414585Q28.162504 56.414585 32.381256 53.789585L32.381256 54.93021ZM29.381254 52.24271L29.600004 50.695835Q30.318754 50.602085 30.64688 50.164585Q31.08438 49.570835 31.08438 48.55521Q31.08438 47.46146 30.631254 46.86771Q30.193754 46.258335 29.412504 46.05521Q28.92813 45.93021 27.381254 45.93021Q28.600004 46.977085 28.600004 48.52396Q28.600004 50.445835 27.20938 51.508335Q25.818754 52.55521 23.881254 52.55521Q22.537504 52.55521 21.412504 52.070835Q20.287504 51.58646 19.67813 50.664585Q19.05313 49.74271 19.05313 48.508335Q19.05313 46.852085 20.39688 45.789585L19.27188 45.789585L19.27188 44.320835L27.33438 44.320835Q29.52188 44.320835 30.42813 44.77396Q31.33438 45.21146 31.850004 46.18021Q32.381256 47.133335 32.381256 48.539585Q32.381256 50.21146 31.631254 51.24271Q30.881254 52.27396 29.381254 52.24271ZM23.77188 50.93021Q25.600004 50.93021 26.443754 50.195835Q27.287504 49.46146 27.287504 48.36771Q27.287504 47.27396 26.45938 46.539585Q25.61563 45.80521 23.818754 45.80521Q22.100004 45.80521 21.24063 46.570835Q20.36563 47.320835 20.36563 48.39896Q20.36563 49.445835 21.225004 50.195835Q22.08438 50.93021 23.77188 50.93021ZM17.537504 41.93021L15.70938 41.93021L15.70938 40.352085L17.537504 40.352085L17.537504 41.93021ZM28.600004 41.93021L19.27188 41.93021L19.27188 40.352085L28.600004 40.352085L28.600004 41.93021ZM27.443754 31.852085Q28.193754 32.727085 28.506254 33.55521Q28.818754 34.36771 28.818754 35.289585Q28.818754 36.83646 28.068754 37.664585Q27.30313 38.477085 26.131254 38.477085Q25.45938 38.477085 24.89688 38.164585Q24.318754 37.852085 23.975004 37.352085Q23.631254 36.852085 23.45938 36.21146Q23.33438 35.74271 23.225004 34.80521Q22.99063 32.89896 22.67813 31.99271Q22.350004 31.977085 22.256254 31.977085Q21.30313 31.977085 20.89688 32.43021Q20.36563 33.039585 20.36563 34.227085Q20.36563 35.352085 20.756254 35.883335Q21.14688 36.414585 22.14688 36.664585L21.92813 38.21146Q20.92813 37.99271 20.318754 37.52396Q19.70938 37.039585 19.381254 36.133335Q19.05313 35.21146 19.05313 33.99271Q19.05313 32.80521 19.33438 32.05521Q19.61563 31.30521 20.05313 30.96146Q20.475004 30.602085 21.11563 30.46146Q21.52188 30.383335 22.58438 30.383335L24.693754 30.383335Q26.89688 30.383335 27.49063 30.289585Q28.068754 30.18021 28.600004 29.883335L28.600004 31.539585Q28.100004 31.789585 27.443754 31.852085ZM23.912504 31.99271Q24.27188 32.852085 24.506254 34.570835Q24.64688 35.539585 24.83438 35.945835Q25.006254 36.352085 25.350004 36.570835Q25.67813 36.789585 26.100004 36.789585Q26.725004 36.789585 27.14688 36.320835Q27.568754 35.83646 27.568754 34.914585Q27.568754 33.99271 27.17813 33.289585Q26.77188 32.570835 26.08438 32.24271Q25.537504 31.99271 24.49063 31.99271L23.912504 31.99271ZM16.61563 34.14896L18.100004 35.14896L18.100004 36.96146L15.64688 35.05521L15.64688 33.36771L18.100004 31.39896L18.100004 33.195835L16.61563 34.14896ZM32.193756 28.02396L30.70938 28.195835Q30.850004 27.68021 30.850004 27.289585Q30.850004 26.758335 30.67813 26.445835Q30.506254 26.133335 30.17813 25.93021Q29.943754 25.77396 29.006254 25.445835Q28.86563 25.39896 28.61563 25.30521L19.27188 28.83646L19.27188 27.133335L24.67813 25.195835Q25.693754 24.820835 26.83438 24.52396Q25.74063 24.24271 24.70938 23.86771L19.27188 21.86771L19.27188 20.289585L28.756254 23.83646Q30.30313 24.414585 30.881254 24.727085Q31.662504 25.14896 32.02188 25.695835Q32.381256 26.24271 32.381256 26.99271Q32.381256 27.46146 32.193756 28.02396ZM32.381256 17.914585L32.381256 19.039585Q28.162504 16.414585 23.943754 16.414585Q22.287504 16.414585 20.662504 16.789585Q19.350004 17.08646 18.131254 17.633335Q17.33438 17.977085 15.49063 19.039585L15.49063 17.914585Q17.693754 16.258335 19.92813 15.46146Q21.83438 14.789585 23.92813 14.789585Q26.30313 14.789585 28.52188 15.695835Q30.74063 16.602085 32.381256 17.914585Z" fill-rule="nonzero"/><path fill="#000000" d="M74.1 136.4323Q74.1 134.90105 74.4125 133.97917Q74.725 133.04167 75.33437 132.54167Q75.95937 132.04167 76.89687 132.04167Q77.58437 132.04167 78.1 132.32292Q78.63125 132.60417 78.975 133.13542Q79.31875 133.65105 79.50625 134.40105Q79.69375 135.15105 79.69375 136.4323Q79.69375 137.94792 79.38125 138.8698Q79.08437 139.79167 78.45937 140.3073Q77.85 140.8073 76.89687 140.8073Q75.6625 140.8073 74.94375 139.91667Q74.1 138.85417 74.1 136.4323ZM75.17812 136.4323Q75.17812 138.54167 75.67812 139.2448Q76.17812 139.94792 76.89687 139.94792Q77.63125 139.94792 78.11562 139.2448Q78.61562 138.54167 78.61562 136.4323Q78.61562 134.3073 78.11562 133.6198Q77.63125 132.91667 76.88125 132.91667Q76.1625 132.91667 75.725 133.52605Q75.17812 134.3073 75.17812 136.4323Z" fill-rule="nonzero"/><path fill="#000000" d="M65.64687 110.13438L65.64687 111.15L59.959373 111.15Q59.959373 110.775 60.084373 110.41563Q60.303123 109.8375 60.771873 109.275Q61.25625 108.7125 62.1625 107.97813Q63.56875 106.82188 64.05312 106.15Q64.55312 105.47813 64.55312 104.88438Q64.55312 104.25938 64.1 103.8375Q63.646873 103.4 62.928123 103.4Q62.1625 103.4 61.709373 103.85313Q61.25625 104.30625 61.240623 105.11875L60.1625 105.00938Q60.271873 103.79063 60.990623 103.16563Q61.725 102.525 62.959373 102.525Q64.19375 102.525 64.9125 103.2125Q65.63125 103.9 65.63125 104.91563Q65.63125 105.43125 65.4125 105.93125Q65.20937 106.41563 64.70937 106.97813Q64.225 107.525 63.1 108.47813Q62.146873 109.275 61.865623 109.57188Q61.6 109.85313 61.428123 110.13438L65.64687 110.13438ZM67.1 106.91563Q67.1 105.38438 67.4125 104.4625Q67.725 103.525 68.33437 103.025Q68.95937 102.525 69.89687 102.525Q70.58437 102.525 71.1 102.80625Q71.63125 103.0875 71.975 103.61875Q72.31875 104.13438 72.50625 104.88438Q72.69375 105.63438 72.69375 106.91563Q72.69375 108.43125 72.38125 109.35313Q72.08437 110.275 71.45937 110.79063Q70.85 111.29063 69.89687 111.29063Q68.6625 111.29063 67.94375 110.4Q67.1 109.3375 67.1 106.91563ZM68.17812 106.91563Q68.17812 109.025 68.67812 109.72813Q69.17812 110.43125 69.89687 110.43125Q70.63125 110.43125 71.11562 109.72813Q71.61562 109.025 71.61562 106.91563Q71.61562 104.79063 71.11562 104.10313Q70.63125 103.4 69.88125 103.4Q69.1625 103.4 68.725 104.00938Q68.17812 104.79063 68.17812 106.91563ZM74.1 106.91563Q74.1 105.38438 74.4125 104.4625Q74.725 103.525 75.33437 103.025Q75.95937 102.525 76.89687 102.525Q77.58437 102.525 78.1 102.80625Q78.63125 103.0875 78.975 103.61875Q79.31875 104.13438 79.50625 104.88438Q79.69375 105.63438 79.69375 106.91563Q79.69375 108.43125 79.38125 109.35313Q79.08437 110.275 78.45937 110.79063Q77.85 111.29063 76.89687 111.29063Q75.6625 111.29063 74.94375 110.4Q74.1 109.3375 74.1 106.91563ZM75.17812 106.91563Q75.17812 109.025 75.67812 109.72813Q76.17812 110.43125 76.89687 110.43125Q77.63125 110.43125 78.11562 109.72813Q78.61562 109.025 78.61562 106.91563Q78.61562 104.79063 78.11562 104.10313Q77.63125 103.4 76.88125 103.4Q76.1625 103.4 75.725 104.00938Q75.17812 104.79063 75.17812 106.91563Z" fill-rule="nonzero"/><path fill="#000000" d="M63.475 81.63333L63.475 79.57083L59.75625 79.57083L59.75625 78.60208L63.678123 73.03958L64.5375 73.03958L64.5375 78.60208L65.69375 78.60208L65.69375 79.57083L64.5375 79.57083L64.5375 81.63333L63.475 81.63333ZM63.475 78.60208L63.475 74.74271L60.7875 78.60208L63.475 78.60208ZM67.1 77.39896Q67.1 75.86771 67.4125 74.94583Q67.725 74.00833 68.33437 73.50833Q68.95937 73.00833 69.89687 73.00833Q70.58437 73.00833 71.1 73.28958Q71.63125 73.57083 71.975 74.10208Q72.31875 74.61771 72.50625 75.36771Q72.69375 76.11771 72.69375 77.39896Q72.69375 78.91458 72.38125 79.83646Q72.08437 80.75833 71.45937 81.27396Q70.85 81.77396 69.89687 81.77396Q68.6625 81.77396 67.94375 80.88333Q67.1 79.82083 67.1 77.39896ZM68.17812 77.39896Q68.17812 79.50833 68.67812 80.21146Q69.17812 80.91458 69.89687 80.91458Q70.63125 80.91458 71.11562 80.21146Q71.61562 79.50833 71.61562 77.39896Q71.61562 75.27396 71.11562 74.58646Q70.63125 73.88333 69.88125 73.88333Q69.1625 73.88333 68.725 74.49271Q68.17812 75.27396 68.17812 77.39896ZM74.1 77.39896Q74.1 75.86771 74.4125 74.94583Q74.725 74.00833 75.33437 73.50833Q75.95937 73.00833 76.89687 73.00833Q77.58437 73.00833 78.1 73.28958Q78.63125 73.57083 78.975 74.10208Q79.31875 74.61771 79.50625 75.36771Q79.69375 76.11771 79.69375 77.39896Q79.69375 78.91458 79.38125 79.83646Q79.08437 80.75833 78.45937 81.27396Q77.85 81.77396 76.89687 81.77396Q75.6625 81.77396 74.94375 80.88333Q74.1 79.82083 74.1 77.39896ZM75.17812 77.39896Q75.17812 79.50833 75.67812 80.21146Q76.17812 80.91458 76.89687 80.91458Q77.63125 80.91458 78.11562 80.21146Q78.61562 79.50833 78.61562 77.39896Q78.61562 75.27396 78.11562 74.58646Q77.63125 73.88333 76.88125 73.88333Q76.1625 73.88333 75.725 74.49271Q75.17812 75.27396 75.17812 77.39896Z" fill-rule="nonzero"/><path fill="#000000" d="M65.56875 45.63229L64.52187 45.710415Q64.38125 45.085415 64.13125 44.804165Q63.69375 44.35104 63.06875 44.35104Q62.56875 44.35104 62.178123 44.63229Q61.69375 45.00729 61.396873 45.710415Q61.115623 46.397915 61.1 47.679165Q61.475 47.10104 62.021873 46.81979Q62.584373 46.53854 63.19375 46.53854Q64.24062 46.53854 64.975 47.31979Q65.725 48.10104 65.725 49.31979Q65.725 50.13229 65.36562 50.835415Q65.02187 51.522915 64.4125 51.897915Q63.803123 52.25729 63.0375 52.25729Q61.709373 52.25729 60.88125 51.28854Q60.053123 50.31979 60.053123 48.10104Q60.053123 45.60104 60.975 44.47604Q61.771873 43.491665 63.13125 43.491665Q64.14687 43.491665 64.7875 44.06979Q65.44375 44.63229 65.56875 45.63229ZM61.271873 49.335415Q61.271873 49.88229 61.490623 50.38229Q61.725 50.866665 62.13125 51.13229Q62.553123 51.397915 63.021873 51.397915Q63.678123 51.397915 64.1625 50.866665Q64.64687 50.31979 64.64687 49.397915Q64.64687 48.50729 64.1625 47.991665Q63.69375 47.47604 62.975 47.47604Q62.25625 47.47604 61.75625 47.991665Q61.271873 48.50729 61.271873 49.335415ZM67.1 47.88229Q67.1 46.35104 67.4125 45.429165Q67.725 44.491665 68.33437 43.991665Q68.95937 43.491665 69.89687 43.491665Q70.58437 43.491665 71.1 43.772915Q71.63125 44.054165 71.975 44.585415Q72.31875 45.10104 72.50625 45.85104Q72.69375 46.60104 72.69375 47.88229Q72.69375 49.397915 72.38125 50.31979Q72.08437 51.241665 71.45937 51.75729Q70.85 52.25729 69.89687 52.25729Q68.6625 52.25729 67.94375 51.366665Q67.1 50.304165 67.1 47.88229ZM68.17812 47.88229Q68.17812 49.991665 68.67812 50.69479Q69.17812 51.397915 69.89687 51.397915Q70.63125 51.397915 71.11562 50.69479Q71.61562 49.991665 71.61562 47.88229Q71.61562 45.75729 71.11562 45.06979Q70.63125 44.366665 69.88125 44.366665Q69.1625 44.366665 68.725 44.97604Q68.17812 45.75729 68.17812 47.88229ZM74.1 47.88229Q74.1 46.35104 74.4125 45.429165Q74.725 44.491665 75.33437 43.991665Q75.95937 43.491665 76.89687 43.491665Q77.58437 43.491665 78.1 43.772915Q78.63125 44.054165 78.975 44.585415Q79.31875 45.10104 79.50625 45.85104Q79.69375 46.60104 79.69375 47.88229Q79.69375 49.397915 79.38125 50.31979Q79.08437 51.241665 78.45937 51.75729Q77.85 52.25729 76.89687 52.25729Q75.6625 52.25729 74.94375 51.366665Q74.1 50.304165 74.1 47.88229ZM75.17812 47.88229Q75.17812 49.991665 75.67812 50.69479Q76.17812 51.397915 76.89687 51.397915Q77.63125 51.397915 78.11562 50.69479Q78.61562 49.991665 78.61562 47.88229Q78.61562 45.75729 78.11562 45.06979Q77.63125 44.366665 76.88125 44.366665Q76.1625 44.366665 75.725 44.97604Q75.17812 45.75729 75.17812 47.88229Z" fill-rule="nonzero"/><path fill="#000000" d="M61.725 17.94375Q61.06875 17.69375 60.740623 17.25625Q60.428123 16.803125 60.428123 16.19375Q60.428123 15.25625 61.1 14.615625Q61.7875 13.975 62.896873 13.975Q64.02187 13.975 64.70937 14.63125Q65.39687 15.2875 65.39687 16.225Q65.39687 16.81875 65.08437 17.25625Q64.77187 17.69375 64.13125 17.94375Q64.92812 18.19375 65.33437 18.771875Q65.74062 19.35 65.74062 20.146875Q65.74062 21.240625 64.95937 21.990625Q64.19375 22.740625 62.9125 22.740625Q61.646873 22.740625 60.865623 21.990625Q60.084373 21.240625 60.084373 20.115625Q60.084373 19.271875 60.50625 18.709375Q60.94375 18.146875 61.725 17.94375ZM61.50625 16.146875Q61.50625 16.75625 61.896873 17.146875Q62.303123 17.5375 62.928123 17.5375Q63.5375 17.5375 63.928123 17.1625Q64.31875 16.771875 64.31875 16.209375Q64.31875 15.63125 63.9125 15.240625Q63.50625 14.834375 62.9125 14.834375Q62.303123 14.834375 61.896873 15.225Q61.50625 15.615625 61.50625 16.146875ZM61.178123 20.115625Q61.178123 20.56875 61.38125 20.990625Q61.6 21.4125 62.021873 21.646875Q62.44375 21.88125 62.928123 21.88125Q63.678123 21.88125 64.1625 21.396875Q64.6625 20.9125 64.6625 20.1625Q64.6625 19.396875 64.1625 18.896875Q63.6625 18.396875 62.896873 18.396875Q62.146873 18.396875 61.6625 18.896875Q61.178123 19.38125 61.178123 20.115625ZM67.1 18.365625Q67.1 16.834375 67.4125 15.9125Q67.725 14.975 68.33437 14.475Q68.95937 13.975 69.89687 13.975Q70.58437 13.975 71.1 14.25625Q71.63125 14.5375 71.975 15.06875Q72.31875 15.584375 72.50625 16.334375Q72.69375 17.084375 72.69375 18.365625Q72.69375 19.88125 72.38125 20.803125Q72.08437 21.725 71.45937 22.240625Q70.85 22.740625 69.89687 22.740625Q68.6625 22.740625 67.94375 21.85Q67.1 20.7875 67.1 18.365625ZM68.17812 18.365625Q68.17812 20.475 68.67812 21.178125Q69.17812 21.88125 69.89687 21.88125Q70.63125 21.88125 71.11562 21.178125Q71.61562 20.475 71.61562 18.365625Q71.61562 16.240625 71.11562 15.553125Q70.63125 14.85 69.88125 14.85Q69.1625 14.85 68.725 15.459375Q68.17812 16.240625 68.17812 18.365625ZM74.1 18.365625Q74.1 16.834375 74.4125 15.9125Q74.725 14.975 75.33437 14.475Q75.95937 13.975 76.89687 13.975Q77.58437 13.975 78.1 14.25625Q78.63125 14.5375 78.975 15.06875Q79.31875 15.584375 79.50625 16.334375Q79.69375 17.084375 79.69375 18.365625Q79.69375 19.88125 79.38125 20.803125Q79.08437 21.725 78.45937 22.240625Q77.85 22.740625 76.89687 22.740625Q75.6625 22.740625 74.94375 21.85Q74.1 20.7875 74.1 18.365625ZM75.17812 18.365625Q75.17812 20.475 75.67812 21.178125Q76.17812 21.88125 76.89687 21.88125Q77.63125 21.88125 78.11562 21.178125Q78.61562 20.475 78.61562 18.365625Q78.61562 16.240625 78.11562 15.553125Q77.63125 14.85 76.88125 14.85Q76.1625 14.85 75.725 15.459375Q75.17812 16.240625 75.17812 18.365625Z" fill-rule="nonzero"/><path stroke="#ff0000" stroke-width="4.0" stroke-linecap="butt" stroke-dasharray="13.0,9.0" d="M280.0 209.9L315.0 209.9" fill-rule="nonzero"/><path fill="#1a1a1a" d="M324.39062 216.4L324.39062 203.50937L329.25 203.50937Q330.53125 203.50937 331.20312 203.63437Q332.15625 203.79062 332.79688 204.24374Q333.4375 204.68124 333.82812 205.49374Q334.21875 206.29062 334.21875 207.24374Q334.21875 208.88437 333.17188 210.025Q332.125 211.16562 329.40625 211.16562L326.09375 211.16562L326.09375 216.4L324.39062 216.4ZM326.09375 209.63437L329.42188 209.63437Q331.07812 209.63437 331.76562 209.025Q332.46875 208.41562 332.46875 207.29062Q332.46875 206.47812 332.0625 205.91562Q331.65625 205.3375 330.98438 205.15Q330.54688 205.04062 329.39062 205.04062L326.09375 205.04062L326.09375 209.63437ZM336.1875 216.4L336.1875 203.50937L337.76562 203.50937L337.76562 208.13437Q338.875 206.85312 340.5625 206.85312Q341.59375 206.85312 342.35938 207.25937Q343.125 207.66562 343.45312 208.4Q343.79688 209.11874 343.79688 210.47812L343.79688 216.4L342.20312 216.4L342.20312 210.47812Q342.20312 209.29062 341.6875 208.75937Q341.17188 208.2125 340.23438 208.2125Q339.53125 208.2125 338.90625 208.5875Q338.29688 208.94687 338.03125 209.57187Q337.76562 210.19687 337.76562 211.29062L337.76562 216.4L336.1875 216.4ZM354.8125 208.9L354.8125 207.07187L356.5 207.07187L356.5 208.50937Q356.5 209.9 356.1875 210.44687Q355.375 211.85312 353.71875 212.025L353.71875 216.4L352.29688 216.4L352.29688 215.025Q351.21875 216.61874 349.34375 216.61874Q348.53125 216.61874 347.8125 216.30624Q347.09375 215.99374 346.73438 215.50937Q346.39062 215.025 346.25 214.32187Q346.15625 213.85312 346.15625 212.85312L346.15625 207.07187L347.73438 207.07187L347.73438 212.24374Q347.73438 213.49374 347.82812 213.91562Q348.14062 215.24374 349.65625 215.24374Q350.39062 215.24374 351.0 214.88437Q351.625 214.50937 351.875 213.88437Q352.14062 213.25937 352.14062 212.07187L352.14062 207.07187L353.71875 207.07187L353.71875 211.35312Q354.82812 211.16562 355.39062 210.30624Q355.64062 209.94687 355.64062 208.9L354.8125 208.9ZM359.21875 211.72812Q359.21875 213.4625 360.0 214.41562Q360.75 215.30624 361.96875 215.30624Q363.20312 215.30624 363.9375 214.41562Q364.71875 213.4625 364.71875 211.68124Q364.71875 209.99374 363.92188 209.05624Q363.1875 208.16562 361.96875 208.16562Q360.73438 208.16562 360.0 209.05624Q359.21875 209.99374 359.21875 211.72812ZM366.54688 208.68124L366.54688 206.8375L368.25 206.8375L368.25 208.29062Q368.25 209.38437 367.92188 209.9625Q367.48438 210.7125 366.34375 211.35312Q366.34375 211.4625 366.34375 211.60312Q366.34375 214.86874 364.23438 216.04062Q363.20312 216.61874 361.96875 216.61874Q359.96875 216.61874 358.79688 215.35312Q357.59375 214.05624 357.59375 211.72812Q357.59375 209.13437 359.04688 207.88437Q360.25 206.85312 361.96875 206.85312Q363.90625 206.85312 365.125 208.11874Q366.04688 209.07187 366.26562 210.5875Q366.875 210.2125 367.125 209.82187Q367.39062 209.41562 367.375 208.68124L366.54688 208.68124ZM370.1875 216.4L370.1875 207.07187L371.60938 207.07187L371.60938 208.4Q372.64062 206.85312 374.57812 206.85312Q375.42188 206.85312 376.125 207.16562Q376.84375 207.4625 377.1875 207.9625Q377.54688 208.44687 377.6875 209.11874Q377.76562 209.55624 377.76562 210.66562L377.76562 216.4L376.1875 216.4L376.1875 210.72812Q376.1875 209.75937 376.0 209.275Q375.82812 208.79062 375.34375 208.50937Q374.875 208.22812 374.25 208.22812Q373.23438 208.22812 372.5 208.86874Q371.76562 209.50937 371.76562 211.30624L371.76562 216.4L370.1875 216.4ZM379.89062 217.18124L381.4375 217.4Q381.53125 218.11874 381.96875 218.44687Q382.5625 218.88437 383.57812 218.88437Q384.67188 218.88437 385.26562 218.43124Q385.875 217.99374 386.07812 217.2125Q386.20312 216.72812 386.20312 215.18124Q385.15625 216.4 383.60938 216.4Q381.6875 216.4 380.625 215.00937Q379.57812 213.61874 379.57812 211.68124Q379.57812 210.3375 380.0625 209.2125Q380.54688 208.0875 381.46875 207.47812Q382.39062 206.85312 383.625 206.85312Q385.28125 206.85312 386.34375 208.19687L386.34375 207.07187L387.8125 207.07187L387.8125 215.13437Q387.8125 217.32187 387.35938 218.22812Q386.92188 219.13437 385.95312 219.65Q385.0 220.18124 383.59375 220.18124Q381.92188 220.18124 380.89062 219.43124Q379.85938 218.68124 379.89062 217.18124ZM381.20312 211.57187Q381.20312 213.4 381.9375 214.24374Q382.67188 215.0875 383.76562 215.0875Q384.85938 215.0875 385.59375 214.25937Q386.32812 213.41562 386.32812 211.61874Q386.32812 209.9 385.5625 209.04062Q384.8125 208.16562 383.73438 208.16562Q382.6875 208.16562 381.9375 209.025Q381.20312 209.88437 381.20312 211.57187ZM395.1875 219.97812L395.1875 207.07187L396.625 207.07187L396.625 208.275Q397.14062 207.57187 397.78125 207.2125Q398.42188 206.85312 399.32812 206.85312Q400.53125 206.85312 401.4375 207.47812Q402.35938 208.0875 402.82812 209.2125Q403.29688 210.32187 403.29688 211.66562Q403.29688 213.0875 402.78125 214.24374Q402.26562 215.38437 401.28125 216.00937Q400.29688 216.61874 399.21875 216.61874Q398.4375 216.61874 397.79688 216.29062Q397.17188 215.94687 396.76562 215.43124L396.76562 219.97812L395.1875 219.97812ZM396.625 211.79062Q396.625 213.5875 397.34375 214.44687Q398.07812 215.30624 399.10938 215.30624Q400.17188 215.30624 400.92188 214.41562Q401.67188 213.525 401.67188 211.65Q401.67188 209.86874 400.9375 208.97812Q400.20312 208.0875 399.1875 208.0875Q398.17188 208.0875 397.39062 209.04062Q396.625 209.97812 396.625 211.79062ZM405.1875 216.4L405.1875 203.50937L406.76562 203.50937L406.76562 208.13437Q407.875 206.85312 409.5625 206.85312Q410.59375 206.85312 411.35938 207.25937Q412.125 207.66562 412.45312 208.4Q412.79688 209.11874 412.79688 210.47812L412.79688 216.4L411.20312 216.4L411.20312 210.47812Q411.20312 209.29062 410.6875 208.75937Q410.17188 208.2125 409.23438 208.2125Q408.53125 208.2125 407.90625 208.5875Q407.29688 208.94687 407.03125 209.57187Q406.76562 210.19687 406.76562 211.29062L406.76562 216.4L405.1875 216.4ZM421.28125 215.24374Q420.40625 215.99374 419.57812 216.30624Q418.76562 216.61874 417.84375 216.61874Q416.29688 216.61874 415.46875 215.86874Q414.65625 215.10312 414.65625 213.93124Q414.65625 213.25937 414.96875 212.69687Q415.28125 212.11874 415.78125 211.775Q416.28125 211.43124 416.92188 211.25937Q417.39062 211.13437 418.32812 211.025Q420.23438 210.79062 421.14062 210.47812Q421.15625 210.15 421.15625 210.05624Q421.15625 209.10312 420.70312 208.69687Q420.09375 208.16562 418.90625 208.16562Q417.78125 208.16562 417.25 208.55624Q416.71875 208.94687 416.46875 209.94687L414.92188 209.72812Q415.14062 208.72812 415.60938 208.11874Q416.09375 207.50937 417.0 207.18124Q417.92188 206.85312 419.14062 206.85312Q420.32812 206.85312 421.07812 207.13437Q421.82812 207.41562 422.17188 207.85312Q422.53125 208.275 422.67188 208.91562Q422.75 209.32187 422.75 210.38437L422.75 212.49374Q422.75 214.69687 422.84375 215.29062Q422.95312 215.86874 423.25 216.4L421.59375 216.4Q421.34375 215.9 421.28125 215.24374ZM421.14062 211.7125Q420.28125 212.07187 418.5625 212.30624Q417.59375 212.44687 417.1875 212.63437Q416.78125 212.80624 416.5625 213.15Q416.34375 213.47812 416.34375 213.9Q416.34375 214.525 416.8125 214.94687Q417.29688 215.36874 418.21875 215.36874Q419.14062 215.36874 419.84375 214.97812Q420.5625 214.57187 420.89062 213.88437Q421.14062 213.3375 421.14062 212.29062L421.14062 211.7125ZM418.07812 205.9L419.25 203.44687L421.3125 203.44687L419.39062 205.9L418.07812 205.9ZM425.1875 219.97812L425.1875 207.07187L426.625 207.07187L426.625 208.275Q427.14062 207.57187 427.78125 207.2125Q428.42188 206.85312 429.32812 206.85312Q430.53125 206.85312 431.4375 207.47812Q432.35938 208.0875 432.82812 209.2125Q433.29688 210.32187 433.29688 211.66562Q433.29688 213.0875 432.78125 214.24374Q432.26562 215.38437 431.28125 216.00937Q430.29688 216.61874 429.21875 216.61874Q428.4375 216.61874 427.79688 216.29062Q427.17188 215.94687 426.76562 215.43124L426.76562 219.97812L425.1875 219.97812ZM426.625 211.79062Q426.625 213.5875 427.34375 214.44687Q428.07812 215.30624 429.10938 215.30624Q430.17188 215.30624 430.92188 214.41562Q431.67188 213.525 431.67188 211.65Q431.67188 209.86874 430.9375 208.97812Q430.20312 208.0875 429.1875 208.0875Q428.17188 208.0875 427.39062 209.04062Q426.625 209.97812 426.625 211.79062ZM438.96875 216.4L443.92188 203.50937L445.76562 203.50937L451.03125 216.4L449.09375 216.4L447.59375 212.49374L442.20312 212.49374L440.78125 216.4L438.96875 216.4ZM442.6875 211.10312L447.0625 211.10312L445.71875 207.54062Q445.09375 205.91562 444.79688 204.86874Q444.5625 206.10312 444.10938 207.32187L442.6875 211.10312ZM451.3125 216.4L451.3125 203.50937L453.03125 203.50937L453.03125 209.9L459.42188 203.50937L461.73438 203.50937L456.32812 208.72812L461.96875 216.4L459.71875 216.4L455.14062 209.88437L453.03125 211.93124L453.03125 216.4L451.3125 216.4ZM461.96875 216.4L466.92188 203.50937L468.76562 203.50937L474.03125 216.4L472.09375 216.4L470.59375 212.49374L465.20312 212.49374L463.78125 216.4L461.96875 216.4ZM465.6875 211.10312L470.0625 211.10312L468.71875 207.54062Q468.09375 205.91562 467.79688 204.86874Q467.5625 206.10312 467.10938 207.32187L465.6875 211.10312ZM482.84375 203.50937L484.54688 203.50937L484.54688 210.9625Q484.54688 212.9 484.10938 214.04062Q483.67188 215.18124 482.51562 215.9Q481.375 216.61874 479.51562 216.61874Q477.70312 216.61874 476.54688 215.99374Q475.40625 215.36874 474.90625 214.19687Q474.42188 213.00937 474.42188 210.9625L474.42188 203.50937L476.125 203.50937L476.125 210.94687Q476.125 212.63437 476.4375 213.43124Q476.75 214.2125 477.5 214.65Q478.26562 215.0875 479.35938 215.0875Q481.25 215.0875 482.04688 214.22812Q482.84375 213.36874 482.84375 210.94687L482.84375 203.50937ZM490.67188 216.4L490.67188 205.04062L486.42188 205.04062L486.42188 203.50937L496.64062 203.50937L496.64062 205.04062L492.375 205.04062L492.375 216.4L490.67188 216.4ZM497.96875 216.4L502.92188 203.50937L504.76562 203.50937L510.03125 216.4L508.09375 216.4L506.59375 212.49374L501.20312 212.49374L499.78125 216.4L497.96875 216.4ZM501.6875 211.10312L506.0625 211.10312L504.71875 207.54062Q504.09375 205.91562 503.79688 204.86874Q503.5625 206.10312 503.10938 207.32187L501.6875 211.10312ZM518.84375 203.50937L520.5469 203.50937L520.5469 210.9625Q520.5469 212.9 520.1094 214.04062Q519.6719 215.18124 518.5156 215.9Q517.375 216.61874 515.5156 216.61874Q513.7031 216.61874 512.5469 215.99374Q511.40625 215.36874 510.90625 214.19687Q510.42188 213.00937 510.42188 210.9625L510.42188 203.50937L512.125 203.50937L512.125 210.94687Q512.125 212.63437 512.4375 213.43124Q512.75 214.2125 513.5 214.65Q514.2656 215.0875 515.3594 215.0875Q517.25 215.0875 518.0469 214.22812Q518.84375 213.36874 518.84375 210.94687L518.84375 203.50937ZM526.6719 216.4L526.6719 205.04062L522.4219 205.04062L522.4219 203.50937L532.6406 203.50937L532.6406 205.04062L528.375 205.04062L528.375 216.4L526.6719 216.4ZM534.875 210.11874Q534.875 206.91562 536.59375 205.10312Q538.3125 203.29062 541.0469 203.29062Q542.8281 203.29062 544.25 204.15Q545.6875 204.99374 546.4375 206.525Q547.1875 208.04062 547.1875 209.97812Q547.1875 211.93124 546.3906 213.47812Q545.6094 215.025 544.15625 215.82187Q542.7031 216.61874 541.03125 216.61874Q539.21875 216.61874 537.78125 215.74374Q536.34375 214.86874 535.6094 213.35312Q534.875 211.82187 534.875 210.11874ZM536.625 210.15Q536.625 212.47812 537.875 213.82187Q539.1406 215.16562 541.0156 215.16562Q542.9531 215.16562 544.1875 213.80624Q545.4375 212.44687 545.4375 209.9625Q545.4375 208.4 544.90625 207.22812Q544.375 206.04062 543.34375 205.4Q542.3281 204.75937 541.0469 204.75937Q539.2344 204.75937 537.9219 206.00937Q536.625 207.24374 536.625 210.15Z" fill-rule="nonzero"/><path stroke="#0000ff" stroke-width="4.0" stroke-linecap="butt" d="M564.0 209.9L576.0 209.9" fill-rule="nonzero"/><path fill="#1a1a1a" d="M585.3906 216.4L585.3906 203.50937L590.25 203.50937Q591.53125 203.50937 592.2031 203.63437Q593.15625 203.79062 593.7969 204.24374Q594.4375 204.68124 594.8281 205.49374Q595.21875 206.29062 595.21875 207.24374Q595.21875 208.88437 594.1719 210.025Q593.125 211.16562 590.40625 211.16562L587.09375 211.16562L587.09375 216.4L585.3906 216.4ZM587.09375 209.63437L590.4219 209.63437Q592.0781 209.63437 592.7656 209.025Q593.46875 208.41562 593.46875 207.29062Q593.46875 206.47812 593.0625 205.91562Q592.65625 205.3375 591.9844 205.15Q591.5469 205.04062 590.3906 205.04062L587.09375 205.04062L587.09375 209.63437ZM597.1875 216.4L597.1875 203.50937L598.7656 203.50937L598.7656 208.13437Q599.875 206.85312 601.5625 206.85312Q602.59375 206.85312 603.3594 207.25937Q604.125 207.66562 604.4531 208.4Q604.7969 209.11874 604.7969 210.47812L604.7969 216.4L603.2031 216.4L603.2031 210.47812Q603.2031 209.29062 602.6875 208.75937Q602.1719 208.2125 601.2344 208.2125Q600.53125 208.2125 599.90625 208.5875Q599.2969 208.94687 599.03125 209.57187Q598.7656 210.19687 598.7656 211.29062L598.7656 216.4L597.1875 216.4ZM615.8125 208.9L615.8125 207.07187L617.5 207.07187L617.5 208.50937Q617.5 209.9 617.1875 210.44687Q616.375 211.85312 614.71875 212.025L614.71875 216.4L613.2969 216.4L613.2969 215.025Q612.21875 216.61874 610.34375 216.61874Q609.53125 216.61874 608.8125 216.30624Q608.09375 215.99374 607.7344 215.50937Q607.3906 215.025 607.25 214.32187Q607.15625 213.85312 607.15625 212.85312L607.15625 207.07187L608.7344 207.07187L608.7344 212.24374Q608.7344 213.49374 608.8281 213.91562Q609.1406 215.24374 610.65625 215.24374Q611.3906 215.24374 612.0 214.88437Q612.625 214.50937 612.875 213.88437Q613.1406 213.25937 613.1406 212.07187L613.1406 207.07187L614.71875 207.07187L614.71875 211.35312Q615.8281 211.16562 616.3906 210.30624Q616.6406 209.94687 616.6406 208.9L615.8125 208.9ZM620.21875 211.72812Q620.21875 213.4625 621.0 214.41562Q621.75 215.30624 622.96875 215.30624Q624.2031 215.30624 624.9375 214.41562Q625.71875 213.4625 625.71875 211.68124Q625.71875 209.99374 624.9219 209.05624Q624.1875 208.16562 622.96875 208.16562Q621.7344 208.16562 621.0 209.05624Q620.21875 209.99374 620.21875 211.72812ZM627.5469 208.68124L627.5469 206.8375L629.25 206.8375L629.25 208.29062Q629.25 209.38437 628.9219 209.9625Q628.4844 210.7125 627.34375 211.35312Q627.34375 211.4625 627.34375 211.60312Q627.34375 214.86874 625.2344 216.04062Q624.2031 216.61874 622.96875 216.61874Q620.96875 216.61874 619.7969 215.35312Q618.59375 214.05624 618.59375 211.72812Q618.59375 209.13437 620.0469 207.88437Q621.25 206.85312 622.96875 206.85312Q624.90625 206.85312 626.125 208.11874Q627.0469 209.07187 627.2656 210.5875Q627.875 210.2125 628.125 209.82187Q628.3906 209.41562 628.375 208.68124L627.5469 208.68124ZM631.1875 216.4L631.1875 207.07187L632.6094 207.07187L632.6094 208.4Q633.6406 206.85312 635.5781 206.85312Q636.4219 206.85312 637.125 207.16562Q637.84375 207.4625 638.1875 207.9625Q638.5469 208.44687 638.6875 209.11874Q638.7656 209.55624 638.7656 210.66562L638.7656 216.4L637.1875 216.4L637.1875 210.72812Q637.1875 209.75937 637.0 209.275Q636.8281 208.79062 636.34375 208.50937Q635.875 208.22812 635.25 208.22812Q634.2344 208.22812 633.5 208.86874Q632.7656 209.50937 632.7656 211.30624L632.7656 216.4L631.1875 216.4ZM640.8906 217.18124L642.4375 217.4Q642.53125 218.11874 642.96875 218.44687Q643.5625 218.88437 644.5781 218.88437Q645.6719 218.88437 646.2656 218.43124Q646.875 217.99374 647.0781 217.2125Q647.2031 216.72812 647.2031 215.18124Q646.15625 216.4 644.6094 216.4Q642.6875 216.4 641.625 215.00937Q640.5781 213.61874 640.5781 211.68124Q640.5781 210.3375 641.0625 209.2125Q641.5469 208.0875 642.46875 207.47812Q643.3906 206.85312 644.625 206.85312Q646.28125 206.85312 647.34375 208.19687L647.34375 207.07187L648.8125 207.07187L648.8125 215.13437Q648.8125 217.32187 648.3594 218.22812Q647.9219 219.13437 646.9531 219.65Q646.0 220.18124 644.59375 220.18124Q642.9219 220.18124 641.8906 219.43124Q640.8594 218.68124 640.8906 217.18124ZM642.2031 211.57187Q642.2031 213.4 642.9375 214.24374Q643.6719 215.0875 644.7656 215.0875Q645.8594 215.0875 646.59375 214.25937Q647.3281 213.41562 647.3281 211.61874Q647.3281 209.9 646.5625 209.04062Q645.8125 208.16562 644.7344 208.16562Q643.6875 208.16562 642.9375 209.025Q642.2031 209.88437 642.2031 211.57187ZM656.1875 219.97812L656.1875 207.07187L657.625 207.07187L657.625 208.275Q658.1406 207.57187 658.78125 207.2125Q659.4219 206.85312 660.3281 206.85312Q661.53125 206.85312 662.4375 207.47812Q663.3594 208.0875 663.8281 209.2125Q664.2969 210.32187 664.2969 211.66562Q664.2969 213.0875 663.78125 214.24374Q663.2656 215.38437 662.28125 216.00937Q661.2969 216.61874 660.21875 216.61874Q659.4375 216.61874 658.7969 216.29062Q658.1719 215.94687 657.7656 215.43124L657.7656 219.97812L656.1875 219.97812ZM657.625 211.79062Q657.625 213.5875 658.34375 214.44687Q659.0781 215.30624 660.1094 215.30624Q661.1719 215.30624 661.9219 214.41562Q662.6719 213.525 662.6719 211.65Q662.6719 209.86874 661.9375 208.97812Q661.2031 208.0875 660.1875 208.0875Q659.1719 208.0875 658.3906 209.04062Q657.625 209.97812 657.625 211.79062ZM666.1875 216.4L666.1875 203.50937L667.7656 203.50937L667.7656 208.13437Q668.875 206.85312 670.5625 206.85312Q671.59375 206.85312 672.3594 207.25937Q673.125 207.66562 673.4531 208.4Q673.7969 209.11874 673.7969 210.47812L673.7969 216.4L672.2031 216.4L672.2031 210.47812Q672.2031 209.29062 671.6875 208.75937Q671.1719 208.2125 670.2344 208.2125Q669.53125 208.2125 668.90625 208.5875Q668.2969 208.94687 668.03125 209.57187Q667.7656 210.19687 667.7656 211.29062L667.7656 216.4L666.1875 216.4ZM682.28125 215.24374Q681.40625 215.99374 680.5781 216.30624Q679.7656 216.61874 678.84375 216.61874Q677.2969 216.61874 676.46875 215.86874Q675.65625 215.10312 675.65625 213.93124Q675.65625 213.25937 675.96875 212.69687Q676.28125 212.11874 676.78125 211.775Q677.28125 211.43124 677.9219 211.25937Q678.3906 211.13437 679.3281 211.025Q681.2344 210.79062 682.1406 210.47812Q682.15625 210.15 682.15625 210.05624Q682.15625 209.10312 681.7031 208.69687Q681.09375 208.16562 679.90625 208.16562Q678.78125 208.16562 678.25 208.55624Q677.71875 208.94687 677.46875 209.94687L675.9219 209.72812Q676.1406 208.72812 676.6094 208.11874Q677.09375 207.50937 678.0 207.18124Q678.9219 206.85312 680.1406 206.85312Q681.3281 206.85312 682.0781 207.13437Q682.8281 207.41562 683.1719 207.85312Q683.53125 208.275 683.6719 208.91562Q683.75 209.32187 683.75 210.38437L683.75 212.49374Q683.75 214.69687 683.84375 215.29062Q683.9531 215.86874 684.25 216.4L682.59375 216.4Q682.34375 215.9 682.28125 215.24374ZM682.1406 211.7125Q681.28125 212.07187 679.5625 212.30624Q678.59375 212.44687 678.1875 212.63437Q677.78125 212.80624 677.5625 213.15Q677.34375 213.47812 677.34375 213.9Q677.34375 214.525 677.8125 214.94687Q678.2969 215.36874 679.21875 215.36874Q680.1406 215.36874 680.84375 214.97812Q681.5625 214.57187 681.8906 213.88437Q682.1406 213.3375 682.1406 212.29062L682.1406 211.7125ZM679.0781 205.9L680.25 203.44687L682.3125 203.44687L680.3906 205.9L679.0781 205.9ZM686.1875 219.97812L686.1875 207.07187L687.625 207.07187L687.625 208.275Q688.1406 207.57187 688.78125 207.2125Q689.4219 206.85312 690.3281 206.85312Q691.53125 206.85312 692.4375 207.47812Q693.3594 208.0875 693.8281 209.2125Q694.2969 210.32187 694.2969 211.66562Q694.2969 213.0875 693.78125 214.24374Q693.2656 215.38437 692.28125 216.00937Q691.2969 216.61874 690.21875 216.61874Q689.4375 216.61874 688.7969 216.29062Q688.1719 215.94687 687.7656 215.43124L687.7656 219.97812L686.1875 219.97812ZM687.625 211.79062Q687.625 213.5875 688.34375 214.44687Q689.0781 215.30624 690.1094 215.30624Q691.1719 215.30624 691.9219 214.41562Q692.6719 213.525 692.6719 211.65Q692.6719 209.86874 691.9375 208.97812Q691.2031 208.0875 690.1875 208.0875Q689.1719 208.0875 688.3906 209.04062Q687.625 209.97812 687.625 211.79062ZM707.1406 205.68124L704.09375 205.68124L704.09375 204.525L707.1406 204.525L707.1406 203.50937L708.7031 203.50937L708.7031 204.525L709.9844 204.525L709.9844 205.68124L708.7031 205.68124L708.7031 216.4L707.25 216.4L707.25 215.22812Q706.3594 216.61874 704.625 216.61874Q703.5156 216.61874 702.5781 216.00937Q701.6406 215.38437 701.125 214.29062Q700.6094 213.18124 700.6094 211.74374Q700.6094 210.3375 701.0781 209.2125Q701.5469 208.07187 702.46875 207.4625Q703.40625 206.85312 704.5625 206.85312Q705.40625 206.85312 706.0625 207.2125Q706.71875 207.57187 707.1406 208.13437L707.1406 205.68124ZM702.2344 211.74374Q702.2344 213.54062 702.9844 214.43124Q703.75 215.30624 704.78125 215.30624Q705.8125 215.30624 706.53125 214.4625Q707.2656 213.61874 707.2656 211.86874Q707.2656 209.9625 706.53125 209.07187Q705.7969 208.16562 704.71875 208.16562Q703.65625 208.16562 702.9375 209.025Q702.2344 209.88437 702.2344 211.74374ZM717.5781 213.4L719.21875 213.60312Q718.8281 215.025 717.78125 215.82187Q716.7344 216.61874 715.1094 216.61874Q713.0625 216.61874 711.8594 215.35312Q710.65625 214.0875 710.65625 211.80624Q710.65625 209.4625 711.8594 208.16562Q713.0781 206.85312 715.0156 206.85312Q716.8906 206.85312 718.0781 208.13437Q719.2656 209.4 719.2656 211.7125Q719.2656 211.85312 719.25 212.13437L712.2969 212.13437Q712.375 213.68124 713.15625 214.49374Q713.9531 215.30624 715.1094 215.30624Q715.9844 215.30624 716.59375 214.85312Q717.21875 214.4 717.5781 213.4ZM712.375 210.8375L717.59375 210.8375Q717.4844 209.66562 717.0 209.07187Q716.2344 208.15 715.03125 208.15Q713.9531 208.15 713.2031 208.88437Q712.46875 209.61874 712.375 210.8375ZM714.9844 204.41562L713.9844 205.9L712.1719 205.9L714.0781 203.44687L715.7656 203.44687L717.7344 205.9L715.9375 205.9L714.9844 204.41562ZM715.7656 202.80624L714.5 202.80624L712.46875 200.3375L714.5781 200.3375L715.7656 202.80624ZM725.125 216.4L728.5469 211.54062L725.3906 207.07187L727.3594 207.07187L728.7969 209.25937Q729.2031 209.88437 729.4531 210.30624Q729.8281 209.7125 730.15625 209.275L731.7344 207.07187L733.625 207.07187L730.3906 211.4625L733.875 216.4L731.9219 216.4L730.0156 213.49374L729.5 212.7125L727.0469 216.4L725.125 216.4ZM740.2969 216.4L740.2969 215.025Q739.21875 216.61874 737.34375 216.61874Q736.5156 216.61874 735.7969 216.30624Q735.0781 215.97812 734.7344 215.50937Q734.3906 215.025 734.25 214.32187Q734.15625 213.85312 734.15625 212.85312L734.15625 207.07187L735.7344 207.07187L735.7344 212.24374Q735.7344 213.47812 735.8281 213.91562Q735.9844 214.54062 736.46875 214.9Q736.9531 215.24374 737.65625 215.24374Q738.375 215.24374 739.0 214.88437Q739.625 214.525 739.875 213.9Q740.1406 213.25937 740.1406 212.07187L740.1406 207.07187L741.71875 207.07187L741.71875 216.4L740.2969 216.4ZM750.28125 215.24374Q749.40625 215.99374 748.5781 216.30624Q747.7656 216.61874 746.84375 216.61874Q745.2969 216.61874 744.46875 215.86874Q743.65625 215.10312 743.65625 213.93124Q743.65625 213.25937 743.96875 212.69687Q744.28125 212.11874 744.78125 211.775Q745.28125 211.43124 745.9219 211.25937Q746.3906 211.13437 747.3281 211.025Q749.2344 210.79062 750.1406 210.47812Q750.15625 210.15 750.15625 210.05624Q750.15625 209.10312 749.7031 208.69687Q749.09375 208.16562 747.90625 208.16562Q746.78125 208.16562 746.25 208.55624Q745.71875 208.94687 745.46875 209.94687L743.9219 209.72812Q744.1406 208.72812 744.6094 208.11874Q745.09375 207.50937 746.0 207.18124Q746.9219 206.85312 748.1406 206.85312Q749.3281 206.85312 750.0781 207.13437Q750.8281 207.41562 751.1719 207.85312Q751.53125 208.275 751.6719 208.91562Q751.75 209.32187 751.75 210.38437L751.75 212.49374Q751.75 214.69687 751.84375 215.29062Q751.9531 215.86874 752.25 216.4L750.59375 216.4Q750.34375 215.9 750.28125 215.24374ZM750.1406 211.7125Q749.28125 212.07187 747.5625 212.30624Q746.59375 212.44687 746.1875 212.63437Q745.78125 212.80624 745.5625 213.15Q745.34375 213.47812 745.34375 213.9Q745.34375 214.525 745.8125 214.94687Q746.2969 215.36874 747.21875 215.36874Q748.1406 215.36874 748.84375 214.97812Q749.5625 214.57187 749.8906 213.88437Q750.1406 213.3375 750.1406 212.29062L750.1406 211.7125ZM747.9844 204.41562L746.9844 205.9L745.1719 205.9L747.0781 203.44687L748.7656 203.44687L750.7344 205.9L748.9375 205.9L747.9844 204.41562ZM748.25 200.3375L750.375 200.3375L748.34375 202.80624L747.0625 202.80624L748.25 200.3375ZM757.6406 214.97812L757.875 216.38437Q757.2031 216.525 756.6719 216.525Q755.8125 216.525 755.3281 216.25937Q754.8594 215.97812 754.6719 215.54062Q754.4844 215.0875 754.4844 213.66562L754.4844 208.29062L753.3125 208.29062L753.3125 207.07187L754.4844 207.07187L754.4844 204.75937L756.0469 203.80624L756.0469 207.07187L757.6406 207.07187L757.6406 208.29062L756.0469 208.29062L756.0469 213.75937Q756.0469 214.43124 756.125 214.63437Q756.21875 214.82187 756.40625 214.93124Q756.59375 215.04062 756.9531 215.04062Q757.2031 215.04062 757.6406 214.97812Z" fill-rule="nonzero"/></svg>