<svg version="1.1" viewBox="0.0 0.0 1038.0 232.0" fill="none" stroke="none" stroke-linecap="square" stroke-miterlimit="10" width="1038" height="232" xmlns:xlink="http://www.w3.org/1999/xlink" xmlns="http://www.w3.org/2000/svg"><path fill="#ffffff" d="M0 0L1038.0 0L1038.0 232.0L0 232.0L0 0Z" fill-rule="nonzero"/><path stroke="#333333" stroke-width="1.0" stroke-linecap="butt" d="M92.5 133.5L1026.5 133.5" fill-rule="nonzero"/><path stroke="#cccccc" stroke-width="1.0" stroke-linecap="butt" d="M92.5 104.5L1026.5 104.5" fill-rule="nonzero"/><path stroke="#cccccc" stroke-width="1.0" stroke-linecap="butt" d="M92.5 76.5L1026.5 76.5" fill-rule="nonzero"/><path stroke="#cccccc" stroke-width="1.0" stroke-linecap="butt" d="M92.5 47.5L1026.5 47.5" fill-rule="nonzero"/><path stroke="#cccccc" stroke-width="1.0" stroke-linecap="butt" d="M92.5 18.5L1026.5 18.5" fill-rule="nonzero"/><clipPath id="id_0"><path d="M92.6 18.6L1026.4 18.6L1026.4 133.66667L92.6 133.66667L92.6 18.6Z" clip-rule="nonzero"/></clipPath><path stroke="#ff0000" stroke-width="2.0" stroke-linecap="butt" stroke-dasharray="8.0,6.0" clip-path="url(#id_0)" d="M113.82273 115.33096L156.26819 103.303955L198.71364 131.53522L241.15909 107.42408L283.60455 70.699295L326.05 129.84389L368.49545 69.1272L410.94092 128.74986L453.38635 132.0392L495.83182 128.66946L538.2773 78.683495L580.7227 127.884995L623.16815 126.700096L665.61365 124.259964L708.0591 119.22695L750.5045 120.629616L792.95 112.74985L835.39545 20.846964L877.8409 80.0935L920.2864 124.90391L962.7318 130.98619L1005.17725 105.65182" fill-rule="nonzero"/><path stroke="#0000ff" stroke-width="2.0" stroke-linecap="butt" clip-path="url(#id_0)" d="M113.82273 128.1226L156.26819 117.41925L198.71364 117.66852L241.15909 116.4911L283.60455 117.31871L326.05 130.88292L368.49545 123.83739L410.94092 128.52664L453.38635 52.62852L495.83182 130.5649L538.2773 119.522675L580.7227 128.17267L623.16815 128.61897L665.61365 121.9582L708.0591 122.63192L750.5045 123.36346L792.95 126.92002L835.39545 122.171074L877.8409 122.60703L920.2864 59.27348L962.7318 115.65039L1005.17725 112.276634" fill-rule="nonzero"/><path fill="#ff0000" clip-path="url(#id_0)" d="M113.82273 115.33096C113.82273 115.33096 113.82273 115.33096 113.82273 115.33096C113.82273 115.33096 113.82273 115.33096 113.82273 115.33096C113.82273 115.33096 113.82273 115.33096 113.82273 115.33096C113.82273 115.33096 113.82273 115.33096 113.82273 115.33096Z" fill-rule="nonzero"/><path fill="#ff0000" clip-path="url(#id_0)" d="M156.26819 103.303955C156.26819 103.303955 156.26819 103.303955 156.26819 103.303955C156.26819 103.303955 156.26819 103.303955 156.26819 103.303955C156.26819 103.303955 156.26819 103.303955 156.26819 103.303955C156.26819 103.303955 156.26819 103.303955 156.26819 103.303955Z" fill-rule="nonzero"/><path fill="#ff0000" clip-path="url(#id_0)" d="M198.71364 131.53522C198.71364 131.53522 198.71364 131.53522 198.71364 131.53522C198.71364 131.53522 198.71364 131.53522 198.71364 131.53522C198.71364 131.53522 198.71364 131.53522 198.71364 131.53522C198.71364 131.53522 198.71364 131.53522 198.71364 131.53522Z" fill-rule="nonzero"/><path fill="#ff0000" clip-path="url(#id_0)" d="M241.15909 107.42408C241.15909 107.42408 241.15909 107.42408 241.15909 107.42408C241.15909 107.42408 241.15909 107.42408 241.15909 107.42408C241.15909 107.42408 241.15909 107.42408 241.15909 107.42408C241.15909 107.42408 241.15909 107.42408 241.15909 107.42408Z" fill-rule="nonzero"/><path fill="#ff0000" clip-path="url(#id_0)" d="M283.60455 70.699295C283.60455 70.699295 283.60455 70.699295 283.60455 70.699295C283.60455 70.699295 283.60455 70.699295 283.60455 70.699295C283.60455 70.699295 283.60455 70.699295 283.60455 70.699295C283.60455 70.699295 283.60455 70.699295 283.60455 70.699295Z" fill-rule="nonzero"/><path fill="#ff0000" clip-path="url(#id_0)" d="M326.05 129.84389C326.05 129.84389 326.05 129.84389 326.05 129.84389C326.05 129.84389 326.05 129.84389 326.05 129.84389C326.05 129.84389 326.05 129.84389 326.05 129.84389C326.05 129.84389 326.05 129.84389 326.05 129.84389Z" fill-rule="nonzero"/><path fill="#ff0000" clip-path="url(#id_0)" d="M368.49545 69.1272C368.49545 69.1272 368.49545 69.1272 368.49545 69.1272C368.49545 69.1272 368.49545 69.1272 368.49545 69.1272C368.49545 69.1272 368.49545 69.1272 368.49545 69.1272C368.49545 69.1272 368.49545 69.1272 368.49545 69.1272Z" fill-rule="nonzero"/><path fill="#ff0000" clip-path="url(#id_0)" d="M410.94092 128.74986C410.94092 128.74986 410.94092 128.74986 410.94092 128.74986C410.94092 128.74986 410.94092 128.74986 410.94092 128.74986C410.94092 128.74986 410.94092 128.74986 410.94092 128.74986C410.94092 128.74986 410.94092 128.74986 410.94092 128.74986Z" fill-rule="nonzero"/><path fill="#ff0000" clip-path="url(#id_0)" d="M453.38635 132.0392C453.38635 132.0392 453.38635 132.0392 453.38635 132.0392C453.38635 132.0392 453.38635 132.0392 453.38635 132.0392C453.38635 132.0392 453.38635 132.0392 453.38635 132.0392C453.38635 132.0392 453.38635 132.0392 453.38635 132.0392Z" fill-rule="nonzero"/><path fill="#ff0000" clip-path="url(#id_0)" d="M495.83182 128.66946C495.83182 128.66946 495.83182 128.66946 495.83182 128.66946C495.83182 128.66946 495.83182 128.66946 495.83182 128.66946C495.83182 128.66946 495.83182 128.66946 495.83182 128.66946C495.83182 128.66946 495.83182 128.66946 495.83182 128.66946Z" fill-rule="nonzero"/><path fill="#ff0000" clip-path="url(#id_0)" d="M538.2773 78.683495C538.2773 78.683495 538.2773 78.683495 538.2773 78.683495C538.2773 78.683495 538.2773 78.683495 538.2773 78.683495C538.2773 78.683495 538.2773 78.683495 538.2773 78.683495C538.2773 78.683495 538.2773 78.683495 538.2773 78.683495Z" fill-rule="nonzero"/><path fill="#ff0000" clip-path="url(#id_0)" d="M580.7227 127.884995C580.7227 127.884995 580.7227 127.884995 580.7227 127.884995C580.7227 127.884995 580.7227 127.884995 580.7227 127.884995C580.7227 127.884995 580.7227 127.884995 580.7227 127.884995C580.7227 127.884995 580.7227 127.884995 580.7227 127.884995Z" fill-rule="nonzero"/><path fill="#ff0000" clip-path="url(#id_0)" d="M623.16815 126.700096C623.16815 126.700096 623.16815 126.700096 623.16815 126.700096C623.16815 126.700096 623.16815 126.700096 623.16815 126.700096C623.16815 126.700096 623.16815 126.700096 623.16815 126.700096C623.16815 126.700096 623.16815 126.700096 623.16815 126.700096Z" fill-rule="nonzero"/><path fill="#ff0000" clip-path="url(#id_0)" d="M665.61365 124.259964C665.61365 124.259964 665.61365 124.259964 665.61365 124.259964C665.61365 124.259964 665.61365 124.259964 665.61365 124.259964C665.61365 124.259964 665.61365 124.259964 665.61365 124.259964C665.61365 124.259964 665.61365 124.259964 665.61365 124.259964Z" fill-rule="nonzero"/><path fill="#ff0000" clip-path="url(#id_0)" d="M708.0591 119.22695C708.0591 119.22695 708.0591 119.22695 708.0591 119.22695C708.0591 119.22695 708.0591 119.22695 708.0591 119.22695C708.0591 119.22695 708.0591 119.22695 708.0591 119.22695C708.0591 119.22695 708.0591 119.22695 708.0591 119.22695Z" fill-rule="nonzero"/><path fill="#ff0000" clip-path="url(#id_0)" d="M750.5045 120.629616C750.5045 120.629616 750.5045 120.629616 750.5045 120.629616C750.5045 120.629616 750.5045 120.629616 750.5045 120.629616C750.5045 120.629616 750.5045 120.629616 750.5045 120.629616C750.5045 120.629616 750.5045 120.629616 750.5045 120.629616Z" fill-rule="nonzero"/><path fill="#ff0000" clip-path="url(#id_0)" d="M792.95 112.74985C792.95 112.74985 792.95 112.74985 792.95 112.74985C792.95 112.74985 792.95 112.74985 792.95 112.74985C792.95 112.74985 792.95 112.74985 792.95 112.74985C792.95 112.74985 792.95 112.74985 792.95 112.74985Z" fill-rule="nonzero"/><path fill="#ff0000" clip-path="url(#id_0)" d="M835.39545 20.846964C835.39545 20.846964 835.39545 20.846964 835.39545 20.846964C835.39545 20.846964 835.39545 20.846964 835.39545 20.846964C835.39545 20.846964 835.39545 20.846964 835.39545 20.846964C835.39545 20.846964 835.39545 20.846964 835.39545 20.846964Z" fill-rule="nonzero"/><path fill="#ff0000" clip-path="url(#id_0)" d="M877.8409 80.0935C877.8409 80.0935 877.8409 80.0935 877.8409 80.0935C877.8409 80.0935 877.8409 80.0935 877.8409 80.0935C877.8409 80.0935 877.8409 80.0935 877.8409 80.0935C877.8409 80.0935 877.8409 80.0935 877.8409 80.0935Z" fill-rule="nonzero"/><path fill="#ff0000" clip-path="url(#id_0)" d="M920.2864 124.90391C920.2864 124.90391 920.2864 124.90391 920.2864 124.90391C920.2864 124.90391 920.2864 124.90391 920.2864 124.90391C920.2864 124.90391 920.2864 124.90391 920.2864 124.90391C920.2864 124.90391 920.2864 124.90391 920.2864 124.90391Z" fill-rule="nonzero"/><path fill="#ff0000" clip-path="url(#id_0)" d="M962.7318 130.98619C962.7318 130.98619 962.7318 130.98619 962.7318 130.98619C962.7318 130.98619 962.7318 130.98619 962.7318 130.98619C962.7318 130.98619 962.7318 130.98619 962.7318 130.98619C962.7318 130.98619 962.7318 130.98619 962.7318 130.98619Z" fill-rule="nonzero"/><path fill="#ff0000" clip-path="url(#id_0)" d="M1005.17725 105.65182C1005.17725 105.65182 1005.17725 105.65182 1005.17725 105.65182C1005.17725 105.65182 1005.17725 105.65182 1005.17725 105.65182C1005.17725 105.65182 1005.17725 105.65182 1005.17725 105.65182C1005.17725 105.65182 1005.17725 105.65182 1005.17725 105.65182Z" fill-rule="nonzero"/><path fill="#000000" fill-opacity="0.0" clip-path="url(#id_0)" d="M116.82273 128.1226C116.82273 129.77946 115.47958 131.1226 113.82273 131.1226C112.16587 131.1226 110.82273 129.77946 110.82273 128.1226C110.82273 126.46576 112.16587 125.12261 113.82273 125.12261C115.47958 125.12261 116.82273 126.46576 116.82273 128.1226Z" fill-rule="nonzero"/><path fill="#000000" fill-opacity="0.0" clip-path="url(#id_0)" d="M159.26819 117.41925C159.26819 119.07611 157.92503 120.41925 156.26819 120.41925C154.61133 120.41925 153.26819 119.07611 153.26819 117.41925C153.26819 115.7624 154.61133 114.41925 156.26819 114.41925C157.92503 114.41925 159.26819 115.7624 159.26819 117.41925Z" fill-rule="nonzero"/><path fill="#000000" fill-opacity="0.0" clip-path="url(#id_0)" d="M201.71364 117.66852C201.71364 119.32537 200.37048 120.66852 198.71364 120.66852C197.05678 120.66852 195.71364 119.32537 195.71364 117.66852C195.71364 116.011665 197.05678 114.66852 198.71364 114.66852C200.37048 114.66852 201.71364 116.011665 201.71364 117.66852Z" fill-rule="nonzero"/><path fill="#000000" fill-opacity="0.0" clip-path="url(#id_0)" d="M244.15909 116.4911C244.15909 118.14795 242.81595 119.4911 241.15909 119.4911C239.50224 119.4911 238.15909 118.14795 238.15909 116.4911C238.15909 114.83424 239.50224 113.4911 241.15909 113.4911C242.81595 113.4911 244.15909 114.83424 244.15909 116.4911Z" fill-rule="nonzero"/><path fill="#000000" fill-opacity="0.0" clip-path="url(#id_0)" d="M286.60455 117.31871C286.60455 118.97557 285.2614 120.31871 283.60455 120.31871C281.9477 120.31871 280.60455 118.97557 280.60455 117.31871C280.60455 115.66186 281.9477 114.31871 283.60455 114.31871C285.2614 114.31871 286.60455 115.66186 286.60455 117.31871Z" fill-rule="nonzero"/><path fill="#000000" fill-opacity="0.0" clip-path="url(#id_0)" d="M329.05 130.88292C329.05 132.53976 327.70685 133.88292 326.05 133.88292C324.39316 133.88292 323.05 132.53976 323.05 130.88292C323.05 129.22606 324.39316 127.88292 326.05 127.88292C327.70685 127.88292 329.05 129.22606 329.05 130.88292Z" fill-rule="nonzero"/><path fill="#000000" fill-opacity="0.0" clip-path="url(#id_0)" d="M371.49545 123.83739C371.49545 125.49424 370.1523 126.83739 368.49545 126.83739C366.8386 126.83739 365.49545 125.49424 365.49545 123.83739C365.49545 122.18053 366.8386 120.83739 368.49545 120.83739C370.1523 120.83739 371.49545 122.18053 371.49545 123.83739Z" fill-rule="nonzero"/><path fill="#000000" fill-opacity="0.0" clip-path="url(#id_0)" d="M413.94092 128.52664C413.94092 130.18349 412.59778 131.52664 410.94092 131.52664C409.28406 131.52664 407.94092 130.18349 407.94092 128.52664C407.94092 126.86978 409.28406 125.52664 410.94092 125.52664C412.59778 125.52664 413.94092 126.86978 413.94092 128.52664Z" fill-rule="nonzero"/><path fill="#000000" fill-opacity="0.0" clip-path="url(#id_0)" d="M456.38635 52.62852C456.38635 54.285378 455.0432 55.62852 453.38635 55.62852C451.72952 55.62852 450.38635 54.285378 450.38635 52.62852C450.38635 50.97167 451.72952 49.62852 453.38635 49.62852C455.0432 49.62852 456.38635 50.97167 456.38635 52.62852Z" fill-rule="nonzero"/><path fill="#000000" fill-opacity="0.0" clip-path="url(#id_0)" d="M498.83182 130.5649C498.83182 132.22176 497.48868 133.5649 495.83182 133.5649C494.17496 133.5649 492.83182 132.22176 492.83182 130.5649C492.83182 128.90805 494.17496 127.5649 495.83182 127.5649C497.48868 127.5649 498.83182 128.90805 498.83182 130.5649Z" fill-rule="nonzero"/><path fill="#000000" fill-opacity="0.0" clip-path="url(#id_0)" d="M541.2773 119.522675C541.2773 121.17953 539.93414 122.522675 538.2773 122.522675C536.6204 122.522675 535.2773 121.17953 535.2773 119.522675C535.2773 117.865814 536.6204 116.522675 538.2773 116.522675C539.93414 116.522675 541.2773 117.865814 541.2773 119.522675Z" fill-rule="nonzero"/><path fill="#000000" fill-opacity="0.0" clip-path="url(#id_0)" d="M583.7227 128.17267C583.7227 129.82951 582.3796 131.17267 580.7227 131.17267C579.06586 131.17267 577.7227 129.82951 577.7227 128.17267C577.7227 126.51581 579.06586 125.17267 580.7227 125.17267C582.3796 125.17267 583.7227 126.51581 583.7227 128.17267Z" fill-rule="nonzero"/><path fill="#000000" fill-opacity="0.0" clip-path="url(#id_0)" d="M626.16815 128.61897C626.16815 130.27583 624.825 131.61897 623.16815 131.61897C621.51135 131.61897 620.16815 130.27583 620.16815 128.61897C620.16815 126.96213 621.51135 125.61898 623.16815 125.61898C624.825 125.61898 626.16815 126.96213 626.16815 128.61897Z" fill-rule="nonzero"/><path fill="#000000" fill-opacity="0.0" clip-path="url(#id_0)" d="M668.61365 121.9582C668.61365 123.61506 667.2705 124.9582 665.61365 124.9582C663.9568 124.9582 662.61365 123.61506 662.61365 121.9582C662.61365 120.301346 663.9568 118.9582 665.61365 118.9582C667.2705 118.9582 668.61365 120.301346 668.61365 121.9582Z" fill-rule="nonzero"/><path fill="#000000" fill-opacity="0.0" clip-path="url(#id_0)" d="M711.0591 122.63192C711.0591 124.28877 709.71594 125.63192 708.0591 125.63192C706.4022 125.63192 705.0591 124.28877 705.0591 122.63192C705.0591 120.97506 706.4022 119.63192 708.0591 119.63192C709.71594 119.63192 711.0591 120.97506 711.0591 122.63192Z" fill-rule="nonzero"/><path fill="#000000" fill-opacity="0.0" clip-path="url(#id_0)" d="M753.5045 123.36346C753.5045 125.02031 752.1614 126.36346 750.5045 126.36346C748.8477 126.36346 747.5045 125.02031 747.5045 123.36346C747.5045 121.7066 748.8477 120.36346 750.5045 120.36346C752.1614 120.36346 753.5045 121.7066 753.5045 123.36346Z" fill-rule="nonzero"/><path fill="#000000" fill-opacity="0.0" clip-path="url(#id_0)" d="M795.95 126.92002C795.95 128.57687 794.6069 129.92001 792.95 129.92001C791.29315 129.92001 789.95 128.57687 789.95 126.92002C789.95 125.26317 791.29315 123.92002 792.95 123.92002C794.6069 123.92002 795.95 125.26317 795.95 126.92002Z" fill-rule="nonzero"/><path fill="#000000" fill-opacity="0.0" clip-path="url(#id_0)" d="M838.39545 122.171074C838.39545 123.82793 837.0523 125.171074 835.39545 125.171074C833.7386 125.171074 832.39545 123.82793 832.39545 122.171074C832.39545 120.51422 833.7386 119.171074 835.39545 119.171074C837.0523 119.171074 838.39545 120.51422 838.39545 122.171074Z" fill-rule="nonzero"/><path fill="#000000" fill-opacity="0.0" clip-path="url(#id_0)" d="M880.8409 122.60703C880.8409 124.263885 879.49774 125.60703 877.8409 125.60703C876.1841 125.60703 874.8409 124.263885 874.8409 122.60703C874.8409 120.95018 876.1841 119.60703 877.8409 119.60703C879.49774 119.60703 880.8409 120.95018 880.8409 122.60703Z" fill-rule="nonzero"/><path fill="#000000" fill-opacity="0.0" clip-path="url(#id_0)" d="M923.2864 59.27348C923.2864 60.930332 921.94324 62.27348 920.2864 62.27348C918.6295 62.27348 917.2864 60.930332 917.2864 59.27348C917.2864 57.616623 918.6295 56.27348 920.2864 56.27348C921.94324 56.27348 923.2864 57.616623 923.2864 59.27348Z" fill-rule="nonzero"/><path fill="#000000" fill-opacity="0.0" clip-path="url(#id_0)" d="M965.7318 115.65039C965.7318 117.30724 964.3887 118.65039 962.7318 118.65039C961.07495 118.65039 959.7318 117.30724 959.7318 115.65039C959.7318 113.99354 961.07495 112.65039 962.7318 112.65039C964.3887 112.65039 965.7318 113.99354 965.7318 115.65039Z" fill-rule="nonzero"/><path fill="#000000" fill-opacity="0.0" clip-path="url(#id_0)" d="M1008.17725 112.276634C1008.17725 113.93349 1006.8341 115.276634 1005.17725 115.276634C1003.52045 115.276634 1002.17725 113.93349 1002.17725 112.276634C1002.17725 110.61978 1003.52045 109.276634 1005.17725 109.276634C1006.8341 109.276634 1008.17725 110.61978 1008.17725 112.276634Z" fill-rule="nonzero"/><path fill="#000000" d="M497.39062 184.66667L497.39062 178.8073L495.96875 178.8073L495.96875 177.65105L497.39062 177.65105L497.39062 171.77605L501.84375 171.77605Q503.32812 171.77605 504.125 171.96355Q505.23438 172.21355 506.01562 172.88542Q507.03125 173.7448 507.53125 175.08855Q508.04688 176.4323 508.04688 178.15105Q508.04688 180.1198 507.42188 181.54167Q506.79688 182.96355 505.92188 183.60417Q505.04688 184.2448 503.92188 184.51042Q503.29688 184.66667 502.03125 184.66667L497.39062 184.66667ZM499.09375 183.15105L501.84375 183.15105Q503.125 183.15105 503.84375 182.91667Q504.5625 182.66667 504.98438 182.2448Q505.59375 181.63542 505.9375 180.6198Q506.28125 179.60417 506.28125 178.13542Q506.28125 176.6198 505.9375 175.71355Q505.60938 174.8073 505.0625 174.27605Q504.51562 173.72917 503.84375 173.52605Q503.1875 173.3073 501.79688 173.3073L499.09375 173.3073L499.09375 177.65105L502.64062 177.65105L502.64062 178.8073L499.09375 178.8073L499.09375 183.15105ZM511.21875 179.9948Q511.21875 181.72917 512.0 182.6823Q512.75 183.57292 513.96875 183.57292Q515.2031 183.57292 515.9375 182.6823Q516.71875 181.72917 516.71875 179.94792Q516.71875 178.26042 515.9219 177.32292Q515.1875 176.4323 513.96875 176.4323Q512.7344 176.4323 512.0 177.32292Q511.21875 178.26042 511.21875 179.9948ZM518.5469 176.94792L518.5469 175.10417L520.25 175.10417L520.25 176.5573Q520.25 177.65105 519.9219 178.22917Q519.4844 178.97917 518.34375 179.6198Q518.34375 179.72917 518.34375 179.8698Q518.34375 183.13542 516.2344 184.3073Q515.2031 184.88542 513.96875 184.88542Q511.96875 184.88542 510.79688 183.6198Q509.59375 182.32292 509.59375 179.9948Q509.59375 177.40105 511.04688 176.15105Q512.25 175.1198 513.96875 175.1198Q515.90625 175.1198 517.125 176.38542Q518.0469 177.33855 518.2656 178.85417Q518.875 178.47917 519.125 178.08855Q519.3906 177.6823 519.375 176.94792L518.5469 176.94792ZM522.1875 184.66667L522.1875 175.33855L523.6094 175.33855L523.6094 176.66667Q524.6406 175.1198 526.5781 175.1198Q527.4219 175.1198 528.125 175.4323Q528.84375 175.72917 529.1875 176.22917Q529.5469 176.71355 529.6875 177.38542Q529.7656 177.82292 529.7656 178.9323L529.7656 184.66667L528.1875 184.66667L528.1875 178.9948Q528.1875 178.02605 528.0 177.54167Q527.8281 177.0573 527.34375 176.77605Q526.875 176.4948 526.25 176.4948Q525.2344 176.4948 524.5 177.13542Q523.7656 177.77605 523.7656 179.57292L523.7656 184.66667L522.1875 184.66667ZM539.78125 184.66667L536.2344 175.33855L537.90625 175.33855L539.90625 180.91667Q540.2344 181.82292 540.5 182.8073Q540.71875 182.0573 541.09375 181.02605L543.15625 175.33855L544.7969 175.33855L541.25 184.66667L539.78125 184.66667ZM546.2031 173.60417L546.2031 171.77605L547.78125 171.77605L547.78125 173.60417L546.2031 173.60417ZM546.2031 184.66667L546.2031 175.33855L547.78125 175.33855L547.78125 184.66667L546.2031 184.66667ZM546.09375 187.52605L546.09375 185.72917L547.8906 185.72917L547.8906 187.52605L546.09375 187.52605ZM555.2031 184.66667L555.2031 171.77605L556.78125 171.77605L556.78125 179.13542L560.5156 175.33855L562.5625 175.33855L559.0 178.79167L562.9375 184.66667L560.9844 184.66667L557.8906 179.90105L556.78125 180.96355L556.78125 184.66667L555.2031 184.66667ZM564.2031 173.60417L564.2031 171.77605L565.78125 171.77605L565.78125 173.60417L564.2031 173.60417ZM564.2031 184.66667L564.2031 175.33855L565.78125 175.33855L565.78125 184.66667L564.2031 184.66667ZM574.5781 181.66667L576.21875 181.8698Q575.8281 183.29167 574.78125 184.08855Q573.7344 184.88542 572.1094 184.88542Q570.0625 184.88542 568.8594 183.6198Q567.65625 182.35417 567.65625 180.07292Q567.65625 177.72917 568.8594 176.4323Q570.0781 175.1198 572.0156 175.1198Q573.8906 175.1198 575.0781 176.40105Q576.2656 177.66667 576.2656 179.97917Q576.2656 180.1198 576.25 180.40105L569.2969 180.40105Q569.375 181.94792 570.15625 182.76042Q570.9531 183.57292 572.1094 183.57292Q572.9844 183.57292 573.59375 183.1198Q574.21875 182.66667 574.5781 181.66667ZM569.375 179.10417L574.59375 179.10417Q574.4844 177.9323 574.0 177.33855Q573.2344 176.41667 572.03125 176.41667Q570.9531 176.41667 570.2031 177.15105Q569.46875 177.88542 569.375 179.10417ZM571.9844 172.6823L570.9844 174.16667L569.1719 174.16667L571.0781 171.71355L572.7656 171.71355L574.7344 174.16667L572.9375 174.16667L571.9844 172.6823ZM571.46875 170.38542Q571.96875 170.33855 572.1094 170.29167Q572.5781 170.1823 572.59375 169.9323Q572.59375 169.72917 572.34375 169.58855Q571.96875 169.38542 571.1719 169.38542Q570.90625 169.38542 570.34375 169.4323L570.25 168.60417Q570.59375 168.52605 571.5156 168.54167Q572.59375 168.54167 573.28125 168.88542Q574.03125 169.26042 574.0625 169.85417Q574.09375 170.72917 572.4531 170.9323L572.4531 171.3698L571.46875 171.3698L571.46875 170.38542ZM578.1875 184.66667L578.1875 175.33855L579.6094 175.33855L579.6094 176.63542Q580.0469 175.96355 580.7656 175.54167Q581.5 175.1198 582.4375 175.1198Q583.46875 175.1198 584.125 175.5573Q584.7969 175.97917 585.0625 176.76042Q586.1719 175.1198 587.9531 175.1198Q589.34375 175.1198 590.0781 175.90105Q590.8281 176.66667 590.8281 178.26042L590.8281 184.66667L589.2656 184.66667L589.2656 178.79167Q589.2656 177.83855 589.1094 177.41667Q588.9531 176.9948 588.5469 176.7448Q588.1406 176.4948 587.59375 176.4948Q586.6094 176.4948 585.9531 177.15105Q585.3125 177.8073 585.3125 179.2448L585.3125 184.66667L583.7344 184.66667L583.7344 178.60417Q583.7344 177.54167 583.34375 177.02605Q582.9531 176.4948 582.0781 176.4948Q581.40625 176.4948 580.84375 176.85417Q580.28125 177.19792 580.0156 177.8698Q579.7656 178.54167 579.7656 179.82292L579.7656 184.66667L578.1875 184.66667ZM600.6406 183.2448L600.875 184.65105Q600.2031 184.79167 599.6719 184.79167Q598.8125 184.79167 598.3281 184.52605Q597.8594 184.2448 597.6719 183.8073Q597.4844 183.35417 597.4844 181.9323L597.4844 176.5573L596.3125 176.5573L596.3125 175.33855L597.4844 175.33855L597.4844 173.02605L599.0469 172.07292L599.0469 175.33855L600.6406 175.33855L600.6406 176.5573L599.0469 176.5573L599.0469 182.02605Q599.0469 182.69792 599.125 182.90105Q599.21875 183.08855 599.40625 183.19792Q599.59375 183.3073 599.9531 183.3073Q600.2031 183.3073 600.6406 183.2448ZM602.1875 184.66667L602.1875 171.77605L603.7656 171.77605L603.7656 176.40105Q604.875 175.1198 606.5625 175.1198Q607.59375 175.1198 608.3594 175.52605Q609.125 175.9323 609.4531 176.66667Q609.7969 177.38542 609.7969 178.7448L609.7969 184.66667L608.2031 184.66667L608.2031 178.7448Q608.2031 177.5573 607.6875 177.02605Q607.1719 176.47917 606.2344 176.47917Q605.53125 176.47917 604.90625 176.85417Q604.2969 177.21355 604.03125 177.83855Q603.7656 178.46355 603.7656 179.5573L603.7656 184.66667L602.1875 184.66667ZM620.8125 177.16667L620.8125 175.33855L622.5 175.33855L622.5 176.77605Q622.5 178.16667 622.1875 178.71355Q621.375 180.1198 619.71875 180.29167L619.71875 184.66667L618.2969 184.66667L618.2969 183.29167Q617.21875 184.88542 615.34375 184.88542Q614.53125 184.88542 613.8125 184.57292Q613.09375 184.26042 612.7344 183.77605Q612.3906 183.29167 612.25 182.58855Q612.15625 182.1198 612.15625 181.1198L612.15625 175.33855L613.7344 175.33855L613.7344 180.51042Q613.7344 181.76042 613.8281 182.1823Q614.1406 183.51042 615.65625 183.51042Q616.3906 183.51042 617.0 183.15105Q617.625 182.77605 617.875 182.15105Q618.1406 181.52605 618.1406 180.33855L618.1406 175.33855L619.71875 175.33855L619.71875 179.6198Q620.8281 179.4323 621.3906 178.57292Q621.6406 178.21355 621.6406 177.16667L620.8125 177.16667ZM615.4375 173.1198Q615.9375 173.0573 616.0781 173.02605Q616.5469 172.8698 616.5469 172.52605Q616.5625 172.32292 616.3125 172.1823Q615.9375 171.97917 615.1406 171.97917Q614.8594 171.97917 614.3125 172.02605L614.21875 171.1198Q614.5625 171.0573 615.4844 171.0573Q616.5625 171.07292 617.25 171.41667Q618.0 171.77605 618.0156 172.44792Q618.0625 173.52605 616.4219 173.72917L616.4219 174.16667L615.4375 174.16667L615.4375 173.1198Z" fill-rule="nonzero"/><path fill="#000000" d="M30.600004 111.44583L17.975004 111.44583L17.975004 116.16458L16.287504 116.16458L16.287504 104.82083L17.975004 104.82083L17.975004 109.55521L30.600004 109.55521L30.600004 111.44583ZM30.600004 103.32083L16.287504 103.32083L16.287504 101.55521L21.412504 101.55521Q19.99063 100.32083 19.99063 98.44583Q19.99063 97.30521 20.443754 96.46146Q20.89688 95.60208 21.70938 95.24271Q22.506254 94.86771 24.02188 94.86771L30.600004 94.86771L30.600004 96.61771L24.02188 96.61771Q22.70938 96.61771 22.11563 97.19583Q21.506254 97.77396 21.506254 98.80521Q21.506254 99.58646 21.912504 100.28958Q22.318754 100.97708 23.02188 101.27396Q23.70938 101.55521 24.92813 101.55521L30.600004 101.55521L30.600004 103.32083ZM25.412504 92.16458Q27.33438 92.16458 28.39688 91.28958Q29.381254 90.47708 29.381254 89.10208Q29.381254 87.742714 28.39688 86.930214Q27.33438 86.055214 25.350004 86.055214Q23.49063 86.055214 22.443754 86.930214Q21.443754 87.75834 21.443754 89.10208Q21.443754 90.47708 22.42813 91.28958Q23.49063 92.16458 25.412504 92.16458ZM22.02188 84.023964L19.975004 84.023964L19.975004 82.13334L21.58438 82.13334Q22.80313 82.13334 23.443754 82.50834Q24.287504 82.97709 24.99063 84.25834Q25.11563 84.25834 25.27188 84.25834Q28.89688 84.25834 30.193754 86.60209Q30.83438 87.742714 30.83438 89.10208Q30.83438 91.33646 29.443754 92.63333Q27.99063 93.96146 25.412504 93.96146Q22.537504 93.96146 21.14688 92.36771Q19.99063 91.02396 19.99063 89.10208Q19.99063 86.961464 21.39688 85.60209Q22.45938 84.586464 24.131254 84.336464Q23.725004 83.66459 23.287504 83.38334Q22.850004 83.086464 22.02188 83.10209L22.02188 84.023964ZM18.943754 87.91459L18.943754 89.33646L16.20938 91.58646L16.20938 89.24271L18.943754 87.91459ZM18.30313 80.305214L16.287504 80.305214L16.287504 78.53959L18.30313 78.53959L18.30313 80.305214ZM30.600004 80.305214L20.225004 80.305214L20.225004 78.53959L30.600004 78.53959L30.600004 80.305214ZM31.45938 70.63334L31.70938 68.930214Q32.506256 68.82084 32.86563 68.336464Q33.350006 67.680214 33.350006 66.53959Q33.350006 65.32084 32.86563 64.66459Q32.381256 63.99271 31.506254 63.758335Q30.95938 63.61771 29.24063 63.633335Q30.600004 64.78959 30.600004 66.50834Q30.600004 68.648964 29.05313 69.82084Q27.506254 70.992714 25.350004 70.992714Q23.86563 70.992714 22.61563 70.461464Q21.36563 69.91459 20.67813 68.898964Q19.99063 67.867714 19.99063 66.492714Q19.99063 64.66459 21.475004 63.46146L20.225004 63.46146L20.225004 61.852085L29.193754 61.852085Q31.61563 61.852085 32.61563 62.352085Q33.631256 62.83646 34.20938 63.914585Q34.80313 64.97709 34.80313 66.53959Q34.80313 68.38334 33.975006 69.53959Q33.14688 70.680214 31.45938 70.63334ZM25.225004 69.180214Q27.27188 69.180214 28.20938 68.367714Q29.14688 67.555214 29.14688 66.336464Q29.14688 65.13334 28.20938 64.32084Q27.27188 63.49271 25.287504 63.49271Q23.381254 63.49271 22.412504 64.336464Q21.443754 65.180214 21.443754 66.367714Q21.443754 67.53959 22.39688 68.367714Q23.350004 69.180214 25.225004 69.180214ZM18.30313 59.30521L16.287504 59.30521L16.287504 57.539585L18.30313 57.539585L18.30313 59.30521ZM30.600004 59.30521L20.225004 59.30521L20.225004 57.539585L30.600004 57.539585L30.600004 59.30521ZM29.318754 48.539585Q30.14688 49.52396 30.49063 50.43021Q30.83438 51.33646 30.83438 52.36771Q30.83438 54.070835 30.006254 54.99271Q29.162504 55.914585 27.86563 55.914585Q27.100004 55.914585 26.475004 55.570835Q25.850004 55.21146 25.475004 54.64896Q25.08438 54.08646 24.881254 53.383335Q24.756254 52.86771 24.61563 51.820835Q24.36563 49.695835 24.02188 48.695835Q23.662504 48.68021 23.55313 48.68021Q22.49063 48.68021 22.037504 49.18021Q21.443754 49.852085 21.443754 51.18021Q21.443754 52.43021 21.881254 53.02396Q22.318754 53.602085 23.42813 53.883335L23.193754 55.602085Q22.08438 55.36771 21.412504 54.83646Q20.725004 54.30521 20.36563 53.289585Q19.99063 52.27396 19.99063 50.93021Q19.99063 49.602085 20.30313 48.77396Q20.61563 47.945835 21.100004 47.55521Q21.568754 47.164585 22.287504 47.008335Q22.74063 46.914585 23.912504 46.914585L26.256254 46.914585Q28.70938 46.914585 29.36563 46.80521Q30.006254 46.695835 30.600004 46.352085L30.600004 48.195835Q30.05313 48.46146 29.318754 48.539585ZM25.39688 48.695835Q25.787504 49.64896 26.05313 51.570835Q26.20938 52.64896 26.412504 53.102085Q26.600004 53.539585 26.975004 53.789585Q27.350004 54.039585 27.818754 54.039585Q28.52188 54.039585 28.99063 53.508335Q29.45938 52.977085 29.45938 51.945835Q29.45938 50.93021 29.02188 50.14896Q28.568754 49.352085 27.80313 48.977085Q27.193754 48.695835 26.037504 48.695835L25.39688 48.695835ZM30.600004 44.320835L20.225004 44.320835L20.225004 42.727085L21.70938 42.727085Q19.99063 41.58646 19.99063 39.43021Q19.99063 38.49271 20.33438 37.71146Q20.662504 36.914585 21.20938 36.52396Q21.756254 36.133335 22.506254 35.977085Q23.006254 35.883335 24.225004 35.883335L30.600004 35.883335L30.600004 37.64896L24.287504 37.64896Q23.20938 37.64896 22.67813 37.852085Q22.14688 38.05521 21.83438 38.58646Q21.52188 39.102085 21.52188 39.80521Q21.52188 40.93021 22.24063 41.74271Q22.943754 42.55521 24.92813 42.55521L30.600004 42.55521L30.600004 44.320835Z" fill-rule="nonzero"/><path fill="#000000" d="M80.1 133.4323Q80.1 131.90105 80.4125 130.97917Q80.725 130.04167 81.33437 129.54167Q81.95937 129.04167 82.89687 129.04167Q83.58437 129.04167 84.1 129.32292Q84.63125 129.60417 84.975 130.13542Q85.31875 130.65105 85.50625 131.40105Q85.69375 132.15105 85.69375 133.4323Q85.69375 134.94792 85.38125 135.8698Q85.08437 136.79167 84.45937 137.3073Q83.85 137.8073 82.89687 137.8073Q81.6625 137.8073 80.94375 136.91667Q80.1 135.85417 80.1 133.4323ZM81.17812 133.4323Q81.17812 135.54167 81.67812 136.2448Q82.17812 136.94792 82.89687 136.94792Q83.63125 136.94792 84.11562 136.2448Q84.61562 135.54167 84.61562 133.4323Q84.61562 131.3073 84.11562 130.6198Q83.63125 129.91667 82.88125 129.91667Q82.1625 129.91667 81.725 130.52605Q81.17812 131.3073 81.17812 133.4323Z" fill-rule="nonzero"/><path fill="#000000" d="M71.64687 107.88438L71.64687 108.9L65.95937 108.9Q65.95937 108.525 66.08437 108.16563Q66.30312 107.5875 66.77187 107.025Q67.25625 106.4625 68.1625 105.72813Q69.56875 104.57188 70.05312 103.9Q70.55312 103.22813 70.55312 102.63438Q70.55312 102.00938 70.1 101.5875Q69.64687 101.15 68.92812 101.15Q68.1625 101.15 67.70937 101.60313Q67.25625 102.05625 67.24062 102.86875L66.1625 102.75938Q66.27187 101.54063 66.99062 100.91563Q67.725 100.275 68.95937 100.275Q70.19375 100.275 70.9125 100.9625Q71.63125 101.65 71.63125 102.66563Q71.63125 103.18125 71.4125 103.68125Q71.20937 104.16563 70.70937 104.72813Q70.225 105.275 69.1 106.22813Q68.14687 107.025 67.86562 107.32188Q67.6 107.60313 67.42812 107.88438L71.64687 107.88438ZM73.1 104.66563Q73.1 103.13438 73.4125 102.2125Q73.725 101.275 74.33437 100.775Q74.95937 100.275 75.89687 100.275Q76.58437 100.275 77.1 100.55625Q77.63125 100.8375 77.975 101.36875Q78.31875 101.88438 78.50625 102.63438Q78.69375 103.38438 78.69375 104.66563Q78.69375 106.18125 78.38125 107.10313Q78.08437 108.025 77.45937 108.54063Q76.85 109.04063 75.89687 109.04063Q74.6625 109.04063 73.94375 108.15Q73.1 107.0875 73.1 104.66563ZM74.17812 104.66563Q74.17812 106.775 74.67812 107.47813Q75.17812 108.18125 75.89687 108.18125Q76.63125 108.18125 77.11562 107.47813Q77.61562 106.775 77.61562 104.66563Q77.61562 102.54063 77.11562 101.85313Q76.63125 101.15 75.88125 101.15Q75.1625 101.15 74.725 101.75938Q74.17812 102.54063 74.17812 104.66563ZM80.1 104.66563Q80.1 103.13438 80.4125 102.2125Q80.725 101.275 81.33437 100.775Q81.95937 100.275 82.89687 100.275Q83.58437 100.275 84.1 100.55625Q84.63125 100.8375 84.975 101.36875Q85.31875 101.88438 85.50625 102.63438Q85.69375 103.38438 85.69375 104.66563Q85.69375 106.18125 85.38125 107.10313Q85.08437 108.025 84.45937 108.54063Q83.85 109.04063 82.89687 109.04063Q81.6625 109.04063 80.94375 108.15Q80.1 107.0875 80.1 104.66563ZM81.17812 104.66563Q81.17812 106.775 81.67812 107.47813Q82.17812 108.18125 82.89687 108.18125Q83.63125 108.18125 84.11562 107.47813Q84.61562 106.775 84.61562 104.66563Q84.61562 102.54063 84.11562 101.85313Q83.63125 101.15 82.88125 101.15Q82.1625 101.15 81.725 101.75938Q81.17812 102.54063 81.17812 104.66563Z" fill-rule="nonzero"/><path fill="#000000" d="M69.475 80.13333L69.475 78.07083L65.75625 78.07083L65.75625 77.10208L69.67812 71.53958L70.5375 71.53958L70.5375 77.10208L71.69375 77.10208L71.69375 78.07083L70.5375 78.07083L70.5375 80.13333L69.475 80.13333ZM69.475 77.10208L69.475 73.24271L66.7875 77.10208L69.475 77.10208ZM73.1 75.89896Q73.1 74.36771 73.4125 73.44583Q73.725 72.50833 74.33437 72.00833Q74.95937 71.50833 75.89687 71.50833Q76.58437 71.50833 77.1 71.78958Q77.63125 72.07083 77.975 72.60208Q78.31875 73.11771 78.50625 73.86771Q78.69375 74.61771 78.69375 75.89896Q78.69375 77.41458 78.38125 78.33646Q78.08437 79.25833 77.45937 79.77396Q76.85 80.27396 75.89687 80.27396Q74.6625 80.27396 73.94375 79.38333Q73.1 78.32083 73.1 75.89896ZM74.17812 75.89896Q74.17812 78.00833 74.67812 78.71146Q75.17812 79.41458 75.89687 79.41458Q76.63125 79.41458 77.11562 78.71146Q77.61562 78.00833 77.61562 75.89896Q77.61562 73.77396 77.11562 73.08646Q76.63125 72.38333 75.88125 72.38333Q75.1625 72.38333 74.725 72.99271Q74.17812 73.77396 74.17812 75.89896ZM80.1 75.89896Q80.1 74.36771 80.4125 73.44583Q80.725 72.50833 81.33437 72.00833Q81.95937 71.50833 82.89687 71.50833Q83.58437 71.50833 84.1 71.78958Q84.63125 72.07083 84.975 72.60208Q85.31875 73.11771 85.50625 73.86771Q85.69375 74.61771 85.69375 75.89896Q85.69375 77.41458 85.38125 78.33646Q85.08437 79.25833 84.45937 79.77396Q83.85 80.27396 82.89687 80.27396Q81.6625 80.27396 80.94375 79.38333Q80.1 78.32083 80.1 75.89896ZM81.17812 75.89896Q81.17812 78.00833 81.67812 78.71146Q82.17812 79.41458 82.89687 79.41458Q83.63125 79.41458 84.11562 78.71146Q84.61562 78.00833 84.61562 75.89896Q84.61562 73.77396 84.11562 73.08646Q83.63125 72.38333 82.88125 72.38333Q82.1625 72.38333 81.725 72.99271Q81.17812 73.77396 81.17812 75.89896Z" fill-rule="nonzero"/><path fill="#000000" d="M71.56875 44.88229L70.52187 44.960415Q70.38125 44.335415 70.13125 44.054165Q69.69375 43.60104 69.06875 43.60104Q68.56875 43.60104 68.17812 43.88229Q67.69375 44.25729 67.39687 44.960415Q67.11562 45.647915 67.1 46.929165Q67.475 46.35104 68.02187 46.06979Q68.58437 45.78854 69.19375 45.78854Q70.24062 45.78854 70.975 46.56979Q71.725 47.35104 71.725 48.56979Q71.725 49.38229 71.36562 50.085415Q71.02187 50.772915 70.4125 51.147915Q69.80312 51.50729 69.0375 51.50729Q67.70937 51.50729 66.88125 50.53854Q66.05312 49.56979 66.05312 47.35104Q66.05312 44.85104 66.975 43.72604Q67.77187 42.741665 69.13125 42.741665Q70.14687 42.741665 70.7875 43.31979Q71.44375 43.88229 71.56875 44.88229ZM67.27187 48.585415Q67.27187 49.13229 67.49062 49.63229Q67.725 50.116665 68.13125 50.38229Q68.55312 50.647915 69.02187 50.647915Q69.67812 50.647915 70.1625 50.116665Q70.64687 49.56979 70.64687 48.647915Q70.64687 47.75729 70.1625 47.241665Q69.69375 46.72604 68.975 46.72604Q68.25625 46.72604 67.75625 47.241665Q67.27187 47.75729 67.27187 48.585415ZM73.1 47.13229Q73.1 45.60104 73.4125 44.679165Q73.725 43.741665 74.33437 43.241665Q74.95937 42.741665 75.89687 42.741665Q76.58437 42.741665 77.1 43.022915Q77.63125 43.304165 77.975 43.835415Q78.31875 44.35104 78.50625 45.10104Q78.69375 45.85104 78.69375 47.13229Q78.69375 48.647915 78.38125 49.56979Q78.08437 50.491665 77.45937 51.00729Q76.85 51.50729 75.89687 51.50729Q74.6625 51.50729 73.94375 50.616665Q73.1 49.554165 73.1 47.13229ZM74.17812 47.13229Q74.17812 49.241665 74.67812 49.94479Q75.17812 50.647915 75.89687 50.647915Q76.63125 50.647915 77.11562 49.94479Q77.61562 49.241665 77.61562 47.13229Q77.61562 45.00729 77.11562 44.31979Q76.63125 43.616665 75.88125 43.616665Q75.1625 43.616665 74.725 44.22604Q74.17812 45.00729 74.17812 47.13229ZM80.1 47.13229Q80.1 45.60104 80.4125 44.679165Q80.725 43.741665 81.33437 43.241665Q81.95937 42.741665 82.89687 42.741665Q83.58437 42.741665 84.1 43.022915Q84.63125 43.304165 84.975 43.835415Q85.31875 44.35104 85.50625 45.10104Q85.69375 45.85104 85.69375 47.13229Q85.69375 48.647915 85.38125 49.56979Q85.08437 50.491665 84.45937 51.00729Q83.85 51.50729 82.89687 51.50729Q81.6625 51.50729 80.94375 50.616665Q80.1 49.554165 80.1 47.13229ZM81.17812 47.13229Q81.17812 49.241665 81.67812 49.94479Q82.17812 50.647915 82.89687 50.647915Q83.63125 50.647915 84.11562 49.94479Q84.61562 49.241665 84.61562 47.13229Q84.61562 45.00729 84.11562 44.31979Q83.63125 43.616665 82.88125 43.616665Q82.1625 43.616665 81.725 44.22604Q81.17812 45.00729 81.17812 47.13229Z" fill-rule="nonzero"/><path fill="#000000" d="M67.725 17.94375Q67.06875 17.69375 66.74062 17.25625Q66.42812 16.803125 66.42812 16.19375Q66.42812 15.25625 67.1 14.615625Q67.7875 13.975 68.89687 13.975Q70.02187 13.975 70.70937 14.63125Q71.39687 15.2875 71.39687 16.225Q71.39687 16.81875 71.08437 17.25625Q70.77187 17.69375 70.13125 17.94375Q70.92812 18.19375 71.33437 18.771875Q71.74062 19.35 71.74062 20.146875Q71.74062 21.240625 70.95937 21.990625Q70.19375 22.740625 68.9125 22.740625Q67.64687 22.740625 66.86562 21.990625Q66.08437 21.240625 66.08437 20.115625Q66.08437 19.271875 66.50625 18.709375Q66.94375 18.146875 67.725 17.94375ZM67.50625 16.146875Q67.50625 16.75625 67.89687 17.146875Q68.30312 17.5375 68.92812 17.5375Q69.5375 17.5375 69.92812 17.1625Q70.31875 16.771875 70.31875 16.209375Q70.31875 15.63125 69.9125 15.240625Q69.50625 14.834375 68.9125 14.834375Q68.30312 14.834375 67.89687 15.225Q67.50625 15.615625 67.50625 16.146875ZM67.17812 20.115625Q67.17812 20.56875 67.38125 20.990625Q67.6 21.4125 68.02187 21.646875Q68.44375 21.88125 68.92812 21.88125Q69.67812 21.88125 70.1625 21.396875Q70.6625 20.9125 70.6625 20.1625Q70.6625 19.396875 70.1625 18.896875Q69.6625 18.396875 68.89687 18.396875Q68.14687 18.396875 67.6625 18.896875Q67.17812 19.38125 67.17812 20.115625ZM73.1 18.365625Q73.1 16.834375 73.4125 15.9125Q73.725 14.975 74.33437 14.475Q74.95937 13.975 75.89687 13.975Q76.58437 13.975 77.1 14.25625Q77.63125 14.5375 77.975 15.06875Q78.31875 15.584375 78.50625 16.334375Q78.69375 17.084375 78.69375 18.365625Q78.69375 19.88125 78.38125 20.803125Q78.08437 21.725 77.45937 22.240625Q76.85 22.740625 75.89687 22.740625Q74.6625 22.740625 73.94375 21.85Q73.1 20.7875 73.1 18.365625ZM74.17812 18.365625Q74.17812 20.475 74.67812 21.178125Q75.17812 21.88125 75.89687 21.88125Q76.63125 21.88125 77.11562 21.178125Q77.61562 20.475 77.61562 18.365625Q77.61562 16.240625 77.11562 15.553125Q76.63125 14.85 75.88125 14.85Q75.1625 14.85 74.725 15.459375Q74.17812 16.240625 74.17812 18.365625ZM80.1 18.365625Q80.1 16.834375 80.4125 15.9125Q80.725 14.975 81.33437 14.475Q81.95937 13.975 82.89687 13.975Q83.58437 13.975 84.1 14.25625Q84.63125 14.5375 84.975 15.06875Q85.31875 15.584375 85.50625 16.334375Q85.69375 17.084375 85.69375 18.365625Q85.69375 19.88125 85.38125 20.803125Q85.08437 21.725 84.45937 22.240625Q83.85 22.740625 82.89687 22.740625Q81.6625 22.740625 80.94375 21.85Q80.1 20.7875 80.1 18.365625ZM81.17812 18.365625Q81.17812 20.475 81.67812 21.178125Q82.17812 21.88125 82.89687 21.88125Q83.63125 21.88125 84.11562 21.178125Q84.61562 20.475 84.61562 18.365625Q84.61562 16.240625 84.11562 15.553125Q83.63125 14.85 82.88125 14.85Q82.1625 14.85 81.725 15.459375Q81.17812 16.240625 81.17812 18.365625Z" fill-rule="nonzero"/><path stroke="#ff0000" stroke-width="4.0" stroke-linecap="butt" stroke-dasharray="13.0,9.0" d="M268.5 208.4L303.5 208.4" fill-rule="nonzero"/><path fill="#1a1a1a" d="M313.04688 215.4L313.04688 201.0875L318.4375 201.0875Q319.875 201.0875 320.625 201.2125Q321.67188 201.4 322.39062 201.9Q323.10938 202.38437 323.53125 203.275Q323.96875 204.16562 323.96875 205.22812Q323.96875 207.05624 322.79688 208.32187Q321.64062 209.57187 318.60938 209.57187L314.9375 209.57187L314.9375 215.4L313.04688 215.4ZM314.9375 207.88437L318.64062 207.88437Q320.46875 207.88437 321.23438 207.2125Q322.01562 206.525 322.01562 205.275Q322.01562 204.38437 321.5625 203.74374Q321.10938 203.10312 320.375 202.9Q319.89062 202.775 318.59375 202.775L314.9375 202.775L314.9375 207.88437ZM325.8125 215.4L325.8125 201.0875L327.57812 201.0875L327.57812 206.2125Q328.8125 204.79062 330.6875 204.79062Q331.82812 204.79062 332.67188 205.24374Q333.53125 205.69687 333.89062 206.50937Q334.26562 207.30624 334.26562 208.82187L334.26562 215.4L332.51562 215.4L332.51562 208.82187Q332.51562 207.50937 331.9375 206.91562Q331.35938 206.30624 330.32812 206.30624Q329.54688 206.30624 328.84375 206.7125Q328.15625 207.11874 327.85938 207.82187Q327.57812 208.50937 327.57812 209.72812L327.57812 215.4L325.8125 215.4ZM345.40625 207.07187L345.40625 205.025L347.28125 205.025L347.28125 206.63437Q347.28125 208.16562 346.9375 208.775Q346.03125 210.3375 344.1875 210.54062L344.1875 215.4L342.60938 215.4L342.60938 213.86874Q341.40625 215.63437 339.32812 215.63437Q338.42188 215.63437 337.625 215.29062Q336.82812 214.94687 336.4375 214.41562Q336.04688 213.86874 335.89062 213.0875Q335.78125 212.57187 335.78125 211.44687L335.78125 205.025L337.53125 205.025L337.53125 210.775Q337.53125 212.18124 337.64062 212.63437Q337.98438 214.11874 339.67188 214.11874Q340.48438 214.11874 341.17188 213.7125Q341.85938 213.30624 342.14062 212.61874Q342.4375 211.91562 342.4375 210.5875L342.4375 205.025L344.1875 205.025L344.1875 209.79062Q345.42188 209.57187 346.04688 208.63437Q346.3125 208.22812 346.3125 207.07187L345.40625 207.07187ZM349.96875 210.2125Q349.96875 212.13437 350.84375 213.19687Q351.65625 214.18124 353.03125 214.18124Q354.39062 214.18124 355.20312 213.19687Q356.07812 212.13437 356.07812 210.15Q356.07812 208.29062 355.20312 207.24374Q354.375 206.24374 353.03125 206.24374Q351.65625 206.24374 350.84375 207.22812Q349.96875 208.29062 349.96875 210.2125ZM358.10938 206.82187L358.10938 204.775L360.0 204.775L360.0 206.38437Q360.0 207.60312 359.625 208.24374Q359.15625 209.0875 357.875 209.79062Q357.875 209.91562 357.875 210.07187Q357.875 213.69687 355.53125 214.99374Q354.39062 215.63437 353.03125 215.63437Q350.79688 215.63437 349.5 214.24374Q348.17188 212.79062 348.17188 210.2125Q348.17188 207.3375 349.76562 205.94687Q351.10938 204.79062 353.03125 204.79062Q355.17188 204.79062 356.53125 206.19687Q357.54688 207.25937 357.79688 208.93124Q358.46875 208.525 358.75 208.0875Q359.04688 207.65 359.03125 206.82187L358.10938 206.82187ZM361.8125 215.4L361.8125 205.025L363.40625 205.025L363.40625 206.50937Q364.54688 204.79062 366.70312 204.79062Q367.64062 204.79062 368.42188 205.13437Q369.21875 205.4625 369.60938 206.00937Q370.0 206.55624 370.15625 207.30624Q370.25 207.80624 370.25 209.025L370.25 215.4L368.48438 215.4L368.48438 209.0875Q368.48438 208.00937 368.28125 207.47812Q368.07812 206.94687 367.54688 206.63437Q367.03125 206.32187 366.32812 206.32187Q365.20312 206.32187 364.39062 207.04062Q363.57812 207.74374 363.57812 209.72812L363.57812 215.4L361.8125 215.4ZM371.5 216.25937L373.20312 216.50937Q373.3125 217.30624 373.79688 217.66562Q374.45312 218.15 375.59375 218.15Q376.8125 218.15 377.46875 217.66562Q378.14062 217.18124 378.375 216.30624Q378.51562 215.75937 378.5 214.04062Q377.34375 215.4 375.625 215.4Q373.48438 215.4 372.3125 213.85312Q371.14062 212.30624 371.14062 210.15Q371.14062 208.66562 371.67188 207.41562Q372.21875 206.16562 373.23438 205.47812Q374.26562 204.79062 375.64062 204.79062Q377.46875 204.79062 378.67188 206.275L378.67188 205.025L380.28125 205.025L380.28125 213.99374Q380.28125 216.41562 379.78125 217.41562Q379.29688 218.43124 378.21875 219.00937Q377.15625 219.60312 375.59375 219.60312Q373.75 219.60312 372.59375 218.775Q371.45312 217.94687 371.5 216.25937ZM372.95312 210.025Q372.95312 212.07187 373.76562 213.00937Q374.57812 213.94687 375.79688 213.94687Q377.0 213.94687 377.8125 213.00937Q378.64062 212.07187 378.64062 210.0875Q378.64062 208.18124 377.79688 207.2125Q376.95312 206.24374 375.76562 206.24374Q374.59375 206.24374 373.76562 207.19687Q372.95312 208.15 372.95312 210.025ZM388.8125 219.36874L388.8125 205.025L390.42188 205.025L390.42188 206.36874Q390.98438 205.5875 391.6875 205.19687Q392.40625 204.79062 393.42188 204.79062Q394.75 204.79062 395.76562 205.47812Q396.78125 206.16562 397.29688 207.41562Q397.82812 208.65 397.82812 210.13437Q397.82812 211.72812 397.25 213.00937Q396.6875 214.275 395.59375 214.9625Q394.5 215.63437 393.29688 215.63437Q392.42188 215.63437 391.71875 215.25937Q391.03125 214.88437 390.57812 214.32187L390.57812 219.36874L388.8125 219.36874ZM390.40625 210.275Q390.40625 212.275 391.21875 213.22812Q392.03125 214.18124 393.1875 214.18124Q394.35938 214.18124 395.1875 213.19687Q396.03125 212.2125 396.03125 210.11874Q396.03125 208.15 395.20312 207.16562Q394.39062 206.16562 393.26562 206.16562Q392.14062 206.16562 391.26562 207.22812Q390.40625 208.275 390.40625 210.275ZM399.8125 215.4L399.8125 201.0875L401.57812 201.0875L401.57812 206.2125Q402.8125 204.79062 404.6875 204.79062Q405.82812 204.79062 406.67188 205.24374Q407.53125 205.69687 407.89062 206.50937Q408.26562 207.30624 408.26562 208.82187L408.26562 215.4L406.51562 215.4L406.51562 208.82187Q406.51562 207.50937 405.9375 206.91562Q405.35938 206.30624 404.32812 206.30624Q403.54688 206.30624 402.84375 206.7125Q402.15625 207.11874 401.85938 207.82187Q401.57812 208.50937 401.57812 209.72812L401.57812 215.4L399.8125 215.4ZM416.59375 214.11874Q415.60938 214.94687 414.70312 215.29062Q413.79688 215.63437 412.76562 215.63437Q411.0625 215.63437 410.14062 214.80624Q409.21875 213.9625 409.21875 212.66562Q409.21875 211.9 409.5625 211.275Q409.92188 210.65 410.48438 210.275Q411.04688 209.88437 411.75 209.68124Q412.26562 209.55624 413.3125 209.41562Q415.4375 209.16562 416.4375 208.82187Q416.45312 208.4625 416.45312 208.35312Q416.45312 207.29062 415.95312 206.8375Q415.28125 206.24374 413.95312 206.24374Q412.70312 206.24374 412.10938 206.68124Q411.53125 207.11874 411.25 208.22812L409.53125 207.99374Q409.76562 206.88437 410.29688 206.2125Q410.82812 205.525 411.84375 205.16562Q412.85938 204.79062 414.20312 204.79062Q415.53125 204.79062 416.35938 205.10312Q417.1875 205.41562 417.57812 205.9Q417.96875 206.36874 418.125 207.0875Q418.21875 207.54062 418.21875 208.7125L418.21875 211.05624Q418.21875 213.50937 418.32812 214.16562Q418.4375 214.80624 418.78125 215.4L416.9375 215.4Q416.67188 214.85312 416.59375 214.11874ZM416.4375 210.19687Q415.48438 210.5875 413.5625 210.85312Q412.48438 211.00937 412.03125 211.2125Q411.59375 211.4 411.34375 211.775Q411.09375 212.15 411.09375 212.61874Q411.09375 213.32187 411.625 213.79062Q412.15625 214.25937 413.1875 214.25937Q414.20312 214.25937 414.98438 213.82187Q415.78125 213.36874 416.15625 212.60312Q416.4375 211.99374 416.4375 210.8375L416.4375 210.19687ZM413.03125 203.74374L414.32812 201.00937L416.625 201.00937L414.48438 203.74374L413.03125 203.74374ZM420.8125 219.36874L420.8125 205.025L422.42188 205.025L422.42188 206.36874Q422.98438 205.5875 423.6875 205.19687Q424.40625 204.79062 425.42188 204.79062Q426.75 204.79062 427.76562 205.47812Q428.78125 206.16562 429.29688 207.41562Q429.82812 208.65 429.82812 210.13437Q429.82812 211.72812 429.25 213.00937Q428.6875 214.275 427.59375 214.9625Q426.5 215.63437 425.29688 215.63437Q424.42188 215.63437 423.71875 215.25937Q423.03125 214.88437 422.57812 214.32187L422.57812 219.36874L420.8125 219.36874ZM422.40625 210.275Q422.40625 212.275 423.21875 213.22812Q424.03125 214.18124 425.1875 214.18124Q426.35938 214.18124 427.1875 213.19687Q428.03125 212.2125 428.03125 210.11874Q428.03125 208.15 427.20312 207.16562Q426.39062 206.16562 425.26562 206.16562Q424.14062 206.16562 423.26562 207.22812Q422.40625 208.275 422.40625 210.275ZM441.65625 213.82187L441.90625 215.38437Q441.17188 215.54062 440.57812 215.54062Q439.625 215.54062 439.09375 215.24374Q438.57812 214.93124 438.35938 214.44687Q438.14062 213.94687 438.14062 212.36874L438.14062 206.4L436.85938 206.4L436.85938 205.025L438.14062 205.025L438.14062 202.4625L439.89062 201.4L439.89062 205.025L441.65625 205.025L441.65625 206.4L439.89062 206.4L439.89062 212.4625Q439.89062 213.2125 439.98438 213.43124Q440.07812 213.63437 440.28125 213.775Q440.5 213.9 440.89062 213.9Q441.17188 213.9 441.65625 213.82187ZM443.79688 215.4L443.79688 205.025L445.375 205.025L445.375 206.60312Q445.98438 205.49374 446.5 205.15Q447.01562 204.79062 447.625 204.79062Q448.51562 204.79062 449.4375 205.35312L448.82812 206.99374Q448.1875 206.60312 447.54688 206.60312Q446.96875 206.60312 446.5 206.9625Q446.04688 207.30624 445.84375 207.91562Q445.5625 208.85312 445.5625 209.9625L445.5625 215.4L443.79688 215.4ZM457.60938 215.4L457.60938 213.86874Q456.40625 215.63437 454.32812 215.63437Q453.40625 215.63437 452.60938 215.29062Q451.8125 214.93124 451.42188 214.4Q451.04688 213.86874 450.89062 213.0875Q450.78125 212.57187 450.78125 211.44687L450.78125 205.025L452.53125 205.025L452.53125 210.775Q452.53125 212.15 452.64062 212.63437Q452.8125 213.32187 453.34375 213.72812Q453.89062 214.11874 454.67188 214.11874Q455.46875 214.11874 456.15625 213.7125Q456.85938 213.30624 457.14062 212.61874Q457.4375 211.91562 457.4375 210.5875L457.4375 205.025L459.1875 205.025L459.1875 215.4L457.60938 215.4ZM460.73438 219.4L460.54688 217.74374Q461.125 217.9 461.54688 217.9Q462.14062 217.9 462.48438 217.69687Q462.84375 217.50937 463.0625 217.16562Q463.23438 216.9 463.60938 215.85312Q463.65625 215.69687 463.76562 215.41562L459.82812 205.025L461.71875 205.025L463.875 211.04062Q464.29688 212.18124 464.625 213.43124Q464.9375 212.22812 465.34375 211.07187L467.5625 205.025L469.32812 205.025L465.375 215.57187Q464.75 217.29062 464.39062 217.93124Q463.92188 218.80624 463.3125 219.19687Q462.71875 219.60312 461.875 219.60312Q461.35938 219.60312 460.73438 219.4ZM477.92188 212.05624L479.73438 212.29062Q479.3125 213.86874 478.14062 214.75937Q476.98438 215.63437 475.17188 215.63437Q472.90625 215.63437 471.5625 214.24374Q470.23438 212.8375 470.23438 210.30624Q470.23438 207.68124 471.57812 206.24374Q472.92188 204.79062 475.07812 204.79062Q477.15625 204.79062 478.46875 206.2125Q479.79688 207.61874 479.79688 210.19687Q479.79688 210.35312 479.78125 210.66562L472.04688 210.66562Q472.14062 212.36874 473.01562 213.275Q473.89062 214.18124 475.1875 214.18124Q476.15625 214.18124 476.82812 213.68124Q477.51562 213.16562 477.92188 212.05624ZM472.14062 209.2125L477.9375 209.2125Q477.82812 207.91562 477.28125 207.25937Q476.4375 206.24374 475.09375 206.24374Q473.89062 206.24374 473.0625 207.05624Q472.23438 207.85312 472.14062 209.2125ZM475.03125 202.07187L473.92188 203.74374L471.92188 203.74374L474.03125 201.00937L475.90625 201.00937L478.09375 203.74374L476.10938 203.74374L475.03125 202.07187ZM475.90625 200.29062L474.5 200.29062L472.23438 197.55624L474.59375 197.55624L475.90625 200.29062ZM481.8125 215.4L481.8125 205.025L483.40625 205.025L483.40625 206.50937Q484.54688 204.79062 486.70312 204.79062Q487.64062 204.79062 488.42188 205.13437Q489.21875 205.4625 489.60938 206.00937Q490.0 206.55624 490.15625 207.30624Q490.25 207.80624 490.25 209.025L490.25 215.4L488.48438 215.4L488.48438 209.0875Q488.48438 208.00937 488.28125 207.47812Q488.07812 206.94687 487.54688 206.63437Q487.03125 206.32187 486.32812 206.32187Q485.20312 206.32187 484.39062 207.04062Q483.57812 207.74374 483.57812 209.72812L483.57812 215.4L481.8125 215.4ZM501.65625 213.82187L501.90625 215.38437Q501.17188 215.54062 500.57812 215.54062Q499.625 215.54062 499.09375 215.24374Q498.57812 214.93124 498.35938 214.44687Q498.14062 213.94687 498.14062 212.36874L498.14062 206.4L496.85938 206.4L496.85938 205.025L498.14062 205.025L498.14062 202.4625L499.89062 201.4L499.89062 205.025L501.65625 205.025L501.65625 206.4L499.89062 206.4L499.89062 212.4625Q499.89062 213.2125 499.98438 213.43124Q500.07812 213.63437 500.28125 213.775Q500.5 213.9 500.89062 213.9Q501.17188 213.9 501.65625 213.82187ZM503.8125 215.4L503.8125 201.0875L505.57812 201.0875L505.57812 206.2125Q506.8125 204.79062 508.6875 204.79062Q509.82812 204.79062 510.67188 205.24374Q511.53125 205.69687 511.89062 206.50937Q512.2656 207.30624 512.2656 208.82187L512.2656 215.4L510.51562 215.4L510.51562 208.82187Q510.51562 207.50937 509.9375 206.91562Q509.35938 206.30624 508.32812 206.30624Q507.54688 206.30624 506.84375 206.7125Q506.15625 207.11874 505.85938 207.82187Q505.57812 208.50937 505.57812 209.72812L505.57812 215.4L503.8125 215.4ZM513.1719 210.2125Q513.1719 207.3375 514.7656 205.94687Q516.1094 204.79062 518.03125 204.79062Q520.1719 204.79062 521.5156 206.19687Q522.875 207.60312 522.875 210.07187Q522.875 212.07187 522.28125 213.22812Q521.6875 214.36874 520.53125 215.00937Q519.3906 215.63437 518.03125 215.63437Q515.84375 215.63437 514.5 214.24374Q513.1719 212.8375 513.1719 210.2125ZM514.96875 210.2125Q514.96875 212.2125 515.8281 213.19687Q516.7031 214.18124 518.03125 214.18124Q519.34375 214.18124 520.2031 213.19687Q521.0781 212.19687 521.0781 210.15Q521.0781 208.22812 520.2031 207.24374Q519.3281 206.24374 518.03125 206.24374Q516.7031 206.24374 515.8281 207.24374Q514.96875 208.22812 514.96875 210.2125ZM518.0469 202.07187L516.9375 203.74374L514.9375 203.74374L517.0469 201.00937L518.9219 201.00937L521.1094 203.74374L519.125 203.74374L518.0469 202.07187ZM518.3594 197.55624L520.7031 197.55624L518.4531 200.29062L517.03125 200.29062L518.3594 197.55624ZM524.8125 215.4L524.8125 205.025L526.40625 205.025L526.40625 206.50937Q527.5469 204.79062 529.7031 204.79062Q530.6406 204.79062 531.4219 205.13437Q532.21875 205.4625 532.6094 206.00937Q533.0 206.55624 533.15625 207.30624Q533.25 207.80624 533.25 209.025L533.25 215.4L531.4844 215.4L531.4844 209.0875Q531.4844 208.00937 531.28125 207.47812Q531.0781 206.94687 530.5469 206.63437Q530.03125 206.32187 529.3281 206.32187Q528.2031 206.32187 527.3906 207.04062Q526.5781 207.74374 526.5781 209.72812L526.5781 215.4L524.8125 215.4ZM534.5 216.25937L536.2031 216.50937Q536.3125 217.30624 536.7969 217.66562Q537.4531 218.15 538.59375 218.15Q539.8125 218.15 540.46875 217.66562Q541.1406 217.18124 541.375 216.30624Q541.5156 215.75937 541.5 214.04062Q540.34375 215.4 538.625 215.4Q536.4844 215.4 535.3125 213.85312Q534.1406 212.30624 534.1406 210.15Q534.1406 208.66562 534.6719 207.41562Q535.21875 206.16562 536.2344 205.47812Q537.2656 204.79062 538.6406 204.79062Q540.46875 204.79062 541.6719 206.275L541.6719 205.025L543.28125 205.025L543.28125 213.99374Q543.28125 216.41562 542.78125 217.41562Q542.2969 218.43124 541.21875 219.00937Q540.15625 219.60312 538.59375 219.60312Q536.75 219.60312 535.59375 218.775Q534.4531 217.94687 534.5 216.25937ZM535.9531 210.025Q535.9531 212.07187 536.7656 213.00937Q537.5781 213.94687 538.7969 213.94687Q540.0 213.94687 540.8125 213.00937Q541.6406 212.07187 541.6406 210.0875Q541.6406 208.18124 540.7969 207.2125Q539.9531 206.24374 538.7656 206.24374Q537.59375 206.24374 536.7656 207.19687Q535.9531 208.15 535.9531 210.025Z" fill-rule="nonzero"/><path stroke="#0000ff" stroke-width="4.0" stroke-linecap="butt" d="M560.5 208.4L572.5 208.4" fill-rule="nonzero"/><path fill="#1a1a1a" d="M582.0469 215.4L582.0469 201.0875L587.4375 201.0875Q588.875 201.0875 589.625 201.2125Q590.6719 201.4 591.3906 201.9Q592.1094 202.38437 592.53125 203.275Q592.96875 204.16562 592.96875 205.22812Q592.96875 207.05624 591.7969 208.32187Q590.6406 209.57187 587.6094 209.57187L583.9375 209.57187L583.9375 215.4L582.0469 215.4ZM583.9375 207.88437L587.6406 207.88437Q589.46875 207.88437 590.2344 207.2125Q591.0156 206.525 591.0156 205.275Q591.0156 204.38437 590.5625 203.74374Q590.1094 203.10312 589.375 202.9Q588.8906 202.775 587.59375 202.775L583.9375 202.775L583.9375 207.88437ZM594.8125 215.4L594.8125 201.0875L596.5781 201.0875L596.5781 206.2125Q597.8125 204.79062 599.6875 204.79062Q600.8281 204.79062 601.6719 205.24374Q602.53125 205.69687 602.8906 206.50937Q603.2656 207.30624 603.2656 208.82187L603.2656 215.4L601.5156 215.4L601.5156 208.82187Q601.5156 207.50937 600.9375 206.91562Q600.3594 206.30624 599.3281 206.30624Q598.5469 206.30624 597.84375 206.7125Q597.15625 207.11874 596.8594 207.82187Q596.5781 208.50937 596.5781 209.72812L596.5781 215.4L594.8125 215.4ZM614.40625 207.07187L614.40625 205.025L616.28125 205.025L616.28125 206.63437Q616.28125 208.16562 615.9375 208.775Q615.03125 210.3375 613.1875 210.54062L613.1875 215.4L611.6094 215.4L611.6094 213.86874Q610.40625 215.63437 608.3281 215.63437Q607.4219 215.63437 606.625 215.29062Q605.8281 214.94687 605.4375 214.41562Q605.0469 213.86874 604.8906 213.0875Q604.78125 212.57187 604.78125 211.44687L604.78125 205.025L606.53125 205.025L606.53125 210.775Q606.53125 212.18124 606.6406 212.63437Q606.9844 214.11874 608.6719 214.11874Q609.4844 214.11874 610.1719 213.7125Q610.8594 213.30624 611.1406 212.61874Q611.4375 211.91562 611.4375 210.5875L611.4375 205.025L613.1875 205.025L613.1875 209.79062Q614.4219 209.57187 615.0469 208.63437Q615.3125 208.22812 615.3125 207.07187L614.40625 207.07187ZM618.96875 210.2125Q618.96875 212.13437 619.84375 213.19687Q620.65625 214.18124 622.03125 214.18124Q623.3906 214.18124 624.2031 213.19687Q625.0781 212.13437 625.0781 210.15Q625.0781 208.29062 624.2031 207.24374Q623.375 206.24374 622.03125 206.24374Q620.65625 206.24374 619.84375 207.22812Q618.96875 208.29062 618.96875 210.2125ZM627.1094 206.82187L627.1094 204.775L629.0 204.775L629.0 206.38437Q629.0 207.60312 628.625 208.24374Q628.15625 209.0875 626.875 209.79062Q626.875 209.91562 626.875 210.07187Q626.875 213.69687 624.53125 214.99374Q623.3906 215.63437 622.03125 215.63437Q619.7969 215.63437 618.5 214.24374Q617.1719 212.79062 617.1719 210.2125Q617.1719 207.3375 618.7656 205.94687Q620.1094 204.79062 622.03125 204.79062Q624.1719 204.79062 625.53125 206.19687Q626.5469 207.25937 626.7969 208.93124Q627.46875 208.525 627.75 208.0875Q628.0469 207.65 628.03125 206.82187L627.1094 206.82187ZM630.8125 215.4L630.8125 205.025L632.40625 205.025L632.40625 206.50937Q633.5469 204.79062 635.7031 204.79062Q636.6406 204.79062 637.4219 205.13437Q638.21875 205.4625 638.6094 206.00937Q639.0 206.55624 639.15625 207.30624Q639.25 207.80624 639.25 209.025L639.25 215.4L637.4844 215.4L637.4844 209.0875Q637.4844 208.00937 637.28125 207.47812Q637.0781 206.94687 636.5469 206.63437Q636.03125 206.32187 635.3281 206.32187Q634.2031 206.32187 633.3906 207.04062Q632.5781 207.74374 632.5781 209.72812L632.5781 215.4L630.8125 215.4ZM640.5 216.25937L642.2031 216.50937Q642.3125 217.30624 642.7969 217.66562Q643.4531 218.15 644.59375 218.15Q645.8125 218.15 646.46875 217.66562Q647.1406 217.18124 647.375 216.30624Q647.5156 215.75937 647.5 214.04062Q646.34375 215.4 644.625 215.4Q642.4844 215.4 641.3125 213.85312Q640.1406 212.30624 640.1406 210.15Q640.1406 208.66562 640.6719 207.41562Q641.21875 206.16562 642.2344 205.47812Q643.2656 204.79062 644.6406 204.79062Q646.46875 204.79062 647.6719 206.275L647.6719 205.025L649.28125 205.025L649.28125 213.99374Q649.28125 216.41562 648.78125 217.41562Q648.2969 218.43124 647.21875 219.00937Q646.15625 219.60312 644.59375 219.60312Q642.75 219.60312 641.59375 218.775Q640.4531 217.94687 640.5 216.25937ZM641.9531 210.025Q641.9531 212.07187 642.7656 213.00937Q643.5781 213.94687 644.7969 213.94687Q646.0 213.94687 646.8125 213.00937Q647.6406 212.07187 647.6406 210.0875Q647.6406 208.18124 646.7969 207.2125Q645.9531 206.24374 644.7656 206.24374Q643.59375 206.24374 642.7656 207.19687Q641.9531 208.15 641.9531 210.025ZM657.8125 219.36874L657.8125 205.025L659.4219 205.025L659.4219 206.36874Q659.9844 205.5875 660.6875 205.19687Q661.40625 204.79062 662.4219 204.79062Q663.75 204.79062 664.7656 205.47812Q665.78125 206.16562 666.2969 207.41562Q666.8281 208.65 666.8281 210.13437Q666.8281 211.72812 666.25 213.00937Q665.6875 214.275 664.59375 214.9625Q663.5 215.63437 662.2969 215.63437Q661.4219 215.63437 660.71875 215.25937Q660.03125 214.88437 659.5781 214.32187L659.5781 219.36874L657.8125 219.36874ZM659.40625 210.275Q659.40625 212.275 660.21875 213.22812Q661.03125 214.18124 662.1875 214.18124Q663.3594 214.18124 664.1875 213.19687Q665.03125 212.2125 665.03125 210.11874Q665.03125 208.15 664.2031 207.16562Q663.3906 206.16562 662.2656 206.16562Q661.1406 206.16562 660.2656 207.22812Q659.40625 208.275 659.40625 210.275ZM668.8125 215.4L668.8125 201.0875L670.5781 201.0875L670.5781 206.2125Q671.8125 204.79062 673.6875 204.79062Q674.8281 204.79062 675.6719 205.24374Q676.53125 205.69687 676.8906 206.50937Q677.2656 207.30624 677.2656 208.82187L677.2656 215.4L675.5156 215.4L675.5156 208.82187Q675.5156 207.50937 674.9375 206.91562Q674.3594 206.30624 673.3281 206.30624Q672.5469 206.30624 671.84375 206.7125Q671.15625 207.11874 670.8594 207.82187Q670.5781 208.50937 670.5781 209.72812L670.5781 215.4L668.8125 215.4ZM685.59375 214.11874Q684.6094 214.94687 683.7031 215.29062Q682.7969 215.63437 681.7656 215.63437Q680.0625 215.63437 679.1406 214.80624Q678.21875 213.9625 678.21875 212.66562Q678.21875 211.9 678.5625 211.275Q678.9219 210.65 679.4844 210.275Q680.0469 209.88437 680.75 209.68124Q681.2656 209.55624 682.3125 209.41562Q684.4375 209.16562 685.4375 208.82187Q685.4531 208.4625 685.4531 208.35312Q685.4531 207.29062 684.9531 206.8375Q684.28125 206.24374 682.9531 206.24374Q681.7031 206.24374 681.1094 206.68124Q680.53125 207.11874 680.25 208.22812L678.53125 207.99374Q678.7656 206.88437 679.2969 206.2125Q679.8281 205.525 680.84375 205.16562Q681.8594 204.79062 683.2031 204.79062Q684.53125 204.79062 685.3594 205.10312Q686.1875 205.41562 686.5781 205.9Q686.96875 206.36874 687.125 207.0875Q687.21875 207.54062 687.21875 208.7125L687.21875 211.05624Q687.21875 213.50937 687.3281 214.16562Q687.4375 214.80624 687.78125 215.4L685.9375 215.4Q685.6719 214.85312 685.59375 214.11874ZM685.4375 210.19687Q684.4844 210.5875 682.5625 210.85312Q681.4844 211.00937 681.03125 211.2125Q680.59375 211.4 680.34375 211.775Q680.09375 212.15 680.09375 212.61874Q680.09375 213.32187 680.625 213.79062Q681.15625 214.25937 682.1875 214.25937Q683.2031 214.25937 683.9844 213.82187Q684.78125 213.36874 685.15625 212.60312Q685.4375 211.99374 685.4375 210.8375L685.4375 210.19687ZM682.03125 203.74374L683.3281 201.00937L685.625 201.00937L683.4844 203.74374L682.03125 203.74374ZM689.8125 219.36874L689.8125 205.025L691.4219 205.025L691.4219 206.36874Q691.9844 205.5875 692.6875 205.19687Q693.40625 204.79062 694.4219 204.79062Q695.75 204.79062 696.7656 205.47812Q697.78125 206.16562 698.2969 207.41562Q698.8281 208.65 698.8281 210.13437Q698.8281 211.72812 698.25 213.00937Q697.6875 214.275 696.59375 214.9625Q695.5 215.63437 694.2969 215.63437Q693.4219 215.63437 692.71875 215.25937Q692.03125 214.88437 691.5781 214.32187L691.5781 219.36874L689.8125 219.36874ZM691.40625 210.275Q691.40625 212.275 692.21875 213.22812Q693.03125 214.18124 694.1875 214.18124Q695.3594 214.18124 696.1875 213.19687Q697.03125 212.2125 697.03125 210.11874Q697.03125 208.15 696.2031 207.16562Q695.3906 206.16562 694.2656 206.16562Q693.1406 206.16562 692.2656 207.22812Q691.40625 208.275 691.40625 210.275ZM713.4375 203.49374L710.0469 203.49374L710.0469 202.2125L713.4375 202.2125L713.4375 201.0875L715.1719 201.0875L715.1719 202.2125L716.59375 202.2125L716.59375 203.49374L715.1719 203.49374L715.1719 215.4L713.5469 215.4L713.5469 214.0875Q712.5625 215.63437 710.6406 215.63437Q709.40625 215.63437 708.3594 214.94687Q707.3281 214.25937 706.75 213.04062Q706.1875 211.82187 706.1875 210.22812Q706.1875 208.66562 706.7031 207.4Q707.21875 206.13437 708.25 205.4625Q709.2969 204.79062 710.5625 204.79062Q711.5 204.79062 712.2344 205.19687Q712.96875 205.5875 713.4375 206.2125L713.4375 203.49374ZM707.9844 210.22812Q707.9844 212.2125 708.8281 213.19687Q709.6719 214.18124 710.8125 214.18124Q711.96875 214.18124 712.7656 213.24374Q713.5781 212.30624 713.5781 210.36874Q713.5781 208.24374 712.75 207.24374Q711.9375 206.24374 710.7344 206.24374Q709.5625 206.24374 708.7656 207.2125Q707.9844 208.16562 707.9844 210.22812ZM724.9219 212.05624L726.7344 212.29062Q726.3125 213.86874 725.1406 214.75937Q723.9844 215.63437 722.1719 215.63437Q719.90625 215.63437 718.5625 214.24374Q717.2344 212.8375 717.2344 210.30624Q717.2344 207.68124 718.5781 206.24374Q719.9219 204.79062 722.0781 204.79062Q724.15625 204.79062 725.46875 206.2125Q726.7969 207.61874 726.7969 210.19687Q726.7969 210.35312 726.78125 210.66562L719.0469 210.66562Q719.1406 212.36874 720.0156 213.275Q720.8906 214.18124 722.1875 214.18124Q723.15625 214.18124 723.8281 213.68124Q724.5156 213.16562 724.9219 212.05624ZM719.1406 209.2125L724.9375 209.2125Q724.8281 207.91562 724.28125 207.25937Q723.4375 206.24374 722.09375 206.24374Q720.8906 206.24374 720.0625 207.05624Q719.2344 207.85312 719.1406 209.2125ZM722.03125 202.07187L720.9219 203.74374L718.9219 203.74374L721.03125 201.00937L722.90625 201.00937L725.09375 203.74374L723.1094 203.74374L722.03125 202.07187ZM722.90625 200.29062L721.5 200.29062L719.2344 197.55624L721.59375 197.55624L722.90625 200.29062ZM733.6406 215.4L737.4375 210.00937L733.9375 205.025L736.125 205.025L737.71875 207.4625Q738.1719 208.15 738.4375 208.61874Q738.875 207.97812 739.2344 207.47812L740.9844 205.025L743.0781 205.025L739.5 209.91562L743.3594 215.4L741.2031 215.4L739.0625 212.18124L738.5 211.30624L735.78125 215.4L733.6406 215.4ZM750.6094 215.4L750.6094 213.86874Q749.40625 215.63437 747.3281 215.63437Q746.40625 215.63437 745.6094 215.29062Q744.8125 214.93124 744.4219 214.4Q744.0469 213.86874 743.8906 213.0875Q743.78125 212.57187 743.78125 211.44687L743.78125 205.025L745.53125 205.025L745.53125 210.775Q745.53125 212.15 745.6406 212.63437Q745.8125 213.32187 746.34375 213.72812Q746.8906 214.11874 747.6719 214.11874Q748.46875 214.11874 749.15625 213.7125Q749.8594 213.30624 750.1406 212.61874Q750.4375 211.91562 750.4375 210.5875L750.4375 205.025L752.1875 205.025L752.1875 215.4L750.6094 215.4ZM760.59375 214.11874Q759.6094 214.94687 758.7031 215.29062Q757.7969 215.63437 756.7656 215.63437Q755.0625 215.63437 754.1406 214.80624Q753.21875 213.9625 753.21875 212.66562Q753.21875 211.9 753.5625 211.275Q753.9219 210.65 754.4844 210.275Q755.0469 209.88437 755.75 209.68124Q756.2656 209.55624 757.3125 209.41562Q759.4375 209.16562 760.4375 208.82187Q760.4531 208.4625 760.4531 208.35312Q760.4531 207.29062 759.9531 206.8375Q759.28125 206.24374 757.9531 206.24374Q756.7031 206.24374 756.1094 206.68124Q755.53125 207.11874 755.25 208.22812L753.53125 207.99374Q753.7656 206.88437 754.2969 206.2125Q754.8281 205.525 755.84375 205.16562Q756.8594 204.79062 758.2031 204.79062Q759.53125 204.79062 760.3594 205.10312Q761.1875 205.41562 761.5781 205.9Q761.96875 206.36874 762.125 207.0875Q762.21875 207.54062 762.21875 208.7125L762.21875 211.05624Q762.21875 213.50937 762.3281 214.16562Q762.4375 214.80624 762.78125 215.4L760.9375 215.4Q760.6719 214.85312 760.59375 214.11874ZM760.4375 210.19687Q759.4844 210.5875 757.5625 210.85312Q756.4844 211.00937 756.03125 211.2125Q755.59375 211.4 755.34375 211.775Q755.09375 212.15 755.09375 212.61874Q755.09375 213.32187 755.625 213.79062Q756.15625 214.25937 757.1875 214.25937Q758.2031 214.25937 758.9844 213.82187Q759.78125 213.36874 760.15625 212.60312Q760.4375 211.99374 760.4375 210.8375L760.4375 210.19687ZM758.03125 202.07187L756.9219 203.74374L754.9219 203.74374L757.03125 201.00937L758.90625 201.00937L761.09375 203.74374L759.1094 203.74374L758.03125 202.07187ZM758.34375 197.55624L760.6875 197.55624L758.4375 200.29062L757.0156 200.29062L758.34375 197.55624ZM768.65625 213.82187L768.90625 215.38437Q768.1719 215.54062 767.5781 215.54062Q766.625 215.54062 766.09375 215.24374Q765.5781 214.93124 765.3594 214.44687Q765.1406 213.94687 765.1406 212.36874L765.1406 206.4L763.8594 206.4L763.8594 205.025L765.1406 205.025L765.1406 202.4625L766.8906 201.4L766.8906 205.025L768.65625 205.025L768.65625 206.4L766.8906 206.4L766.8906 212.4625Q766.8906 213.2125 766.9844 213.43124Q767.0781 213.63437 767.28125 213.775Q767.5 213.9 767.8906 213.9Q768.1719 213.9 768.65625 213.82187Z" fill-rule="nonzero"/></svg>