<svg version="1.1" viewBox="0.0 0.0 1038.0 232.0" fill="none" stroke="none" stroke-linecap="square" stroke-miterlimit="10" width="1038" height="232" xmlns:xlink="http://www.w3.org/1999/xlink" xmlns="http://www.w3.org/2000/svg"><path fill="#ffffff" d="M0 0L1038.0 0L1038.0 232.0L0 232.0L0 0Z" fill-rule="nonzero"/><path stroke="#333333" stroke-width="1.0" stroke-linecap="butt" d="M86.5 136.5L1026.5 136.5" fill-rule="nonzero"/><path stroke="#cccccc" stroke-width="1.0" stroke-linecap="butt" d="M86.5 107.5L1026.5 107.5" fill-rule="nonzero"/><path stroke="#cccccc" stroke-width="1.0" stroke-linecap="butt" d="M86.5 77.5L1026.5 77.5" fill-rule="nonzero"/><path stroke="#cccccc" stroke-width="1.0" stroke-linecap="butt" d="M86.5 48.5L1026.5 48.5" fill-rule="nonzero"/><path stroke="#cccccc" stroke-width="1.0" stroke-linecap="butt" d="M86.5 18.5L1026.5 18.5" fill-rule="nonzero"/><clipPath id="id_0"><path d="M86.6 18.6L1026.4 18.6L1026.4 136.66667L86.6 136.66667L86.6 18.6Z" clip-rule="nonzero"/></clipPath><path stroke="#ff0000" stroke-width="2.0" stroke-linecap="butt" stroke-dasharray="8.0,6.0" clip-path="url(#id_0)" d="M99.65278 18.6L125.75833 18.6L151.86389 18.6L177.96945 18.6L204.075 18.6L230.18056 18.6L256.2861 77.63333L282.39166 65.82666L308.49722 18.6L334.60278 18.6L360.70834 18.6L386.8139 18.6L412.91943 18.6L439.025 18.6L465.13055 18.6L491.2361 18.6L517.3417 18.6L543.4472 18.6L569.5528 18.6L595.6583 18.6L621.7639 18.6L647.86945 18.6L673.975 18.6L700.08057 18.6L726.1861 18.6L752.2917 84.19784L778.3972 107.15L804.5028 113.05334L830.60834 18.6L856.71387 65.82667L882.81946 18.6L908.925 77.63333L935.0306 105.17828L961.1361 77.63333L987.24164 77.63333L1013.3472 77.63333" fill-rule="nonzero"/><path stroke="#0000ff" stroke-width="2.0" stroke-linecap="butt" clip-path="url(#id_0)" d="M99.65278 18.6L125.75833 18.6L151.86389 18.6L177.96945 18.6L204.075 18.6L230.18056 18.6L256.2861 18.6L282.39166 27.02996L308.49722 18.6L334.60278 18.6L360.70834 18.6L386.8139 18.6L412.91943 18.6L439.025 18.6L465.13055 18.6L491.2361 18.6L517.3417 18.6L543.4472 18.6L569.5528 18.6L595.6583 18.6L621.7639 18.6L647.86945 18.6L673.975 18.6L700.08057 18.6L726.1861 18.6L752.2917 44.837036L778.3972 18.6L804.5028 18.6L830.60834 18.6L856.71387 65.82666L882.81946 18.6L908.925 77.63333L935.0306 105.18222L961.1361 77.63333L987.24164 77.63333L1013.3472 77.63333" fill-rule="nonzero"/><path fill="#000000" fill-opacity="0.0" clip-path="url(#id_0)" d="M102.65278 18.6C102.65278 20.256855 101.30963 21.6 99.65278 21.6C97.995926 21.6 96.65278 20.256855 96.65278 18.6C96.65278 16.943146 97.995926 15.6 99.65278 15.6C101.30963 15.6 102.65278 16.943146 102.65278 18.6Z" fill-rule="nonzero"/><path fill="#000000" fill-opacity="0.0" clip-path="url(#id_0)" d="M128.75833 18.6C128.75833 20.256855 127.415184 21.6 125.75833 21.6C124.10148 21.6 122.75833 20.256855 122.75833 18.6C122.75833 16.943146 124.10148 15.6 125.75833 15.6C127.415184 15.6 128.75833 16.943146 128.75833 18.6Z" fill-rule="nonzero"/><path fill="#000000" fill-opacity="0.0" clip-path="url(#id_0)" d="M154.86389 18.6C154.86389 20.256855 153.52074 21.6 151.86389 21.6C150.20703 21.6 148.86389 20.256855 148.86389 18.6C148.86389 16.943146 150.20703 15.6 151.86389 15.6C153.52074 15.6 154.86389 16.943146 154.86389 18.6Z" fill-rule="nonzero"/><path fill="#000000" fill-opacity="0.0" clip-path="url(#id_0)" d="M180.96945 18.6C180.96945 20.256855 179.6263 21.6 177.96945 21.6C176.31259 21.6 174.96945 20.256855 174.96945 18.6C174.96945 16.943146 176.31259 15.6 177.96945 15.6C179.6263 15.6 180.96945 16.943146 180.96945 18.6Z" fill-rule="nonzero"/><path fill="#000000" fill-opacity="0.0" clip-path="url(#id_0)" d="M207.075 18.6C207.075 20.256855 205.73186 21.6 204.075 21.6C202.41815 21.6 201.075 20.256855 201.075 18.6C201.075 16.943146 202.41815 15.6 204.075 15.6C205.73186 15.6 207.075 16.943146 207.075 18.6Z" fill-rule="nonzero"/><path fill="#000000" fill-opacity="0.0" clip-path="url(#id_0)" d="M233.18056 18.6C233.18056 20.256855 231.8374 21.6 230.18056 21.6C228.5237 21.6 227.18056 20.256855 227.18056 18.6C227.18056 16.943146 228.5237 15.6 230.18056 15.6C231.8374 15.6 233.18056 16.943146 233.18056 18.6Z" fill-rule="nonzero"/><path fill="#000000" fill-opacity="0.0" clip-path="url(#id_0)" d="M259.2861 77.63333C259.2861 79.290184 257.94296 80.63333 256.2861 80.63333C254.62926 80.63333 253.28612 79.290184 253.28612 77.63333C253.28612 75.97648 254.62926 74.63333 256.2861 74.63333C257.94296 74.63333 259.2861 75.97648 259.2861 77.63333Z" fill-rule="nonzero"/><path fill="#000000" fill-opacity="0.0" clip-path="url(#id_0)" d="M285.39166 65.82666C285.39166 67.48351 284.04852 68.82666 282.39166 68.82666C280.7348 68.82666 279.39166 67.48351 279.39166 65.82666C279.39166 64.16981 280.7348 62.82666 282.39166 62.82666C284.04852 62.82666 285.39166 64.16981 285.39166 65.82666Z" fill-rule="nonzero"/><path fill="#000000" fill-opacity="0.0" clip-path="url(#id_0)" d="M311.49722 18.6C311.49722 20.256855 310.15408 21.6 308.49722 21.6C306.84036 21.6 305.49722 20.256855 305.49722 18.6C305.49722 16.943146 306.84036 15.6 308.49722 15.6C310.15408 15.6 311.49722 16.943146 311.49722 18.6Z" fill-rule="nonzero"/><path fill="#000000" fill-opacity="0.0" clip-path="url(#id_0)" d="M337.60278 18.6C337.60278 20.256855 336.25964 21.6 334.60278 21.6C332.94592 21.6 331.60278 20.256855 331.60278 18.6C331.60278 16.943146 332.94592 15.6 334.60278 15.6C336.25964 15.6 337.60278 16.943146 337.60278 18.6Z" fill-rule="nonzero"/><path fill="#000000" fill-opacity="0.0" clip-path="url(#id_0)" d="M363.70834 18.6C363.70834 20.256855 362.36517 21.6 360.70834 21.6C359.05148 21.6 357.70834 20.256855 357.70834 18.6C357.70834 16.943146 359.05148 15.6 360.70834 15.6C362.36517 15.6 363.70834 16.943146 363.70834 18.6Z" fill-rule="nonzero"/><path fill="#000000" fill-opacity="0.0" clip-path="url(#id_0)" d="M389.8139 18.6C389.8139 20.256855 388.47073 21.6 386.8139 21.6C385.15704 21.6 383.8139 20.256855 383.8139 18.6C383.8139 16.943146 385.15704 15.6 386.8139 15.6C388.47073 15.6 389.8139 16.943146 389.8139 18.6Z" fill-rule="nonzero"/><path fill="#000000" fill-opacity="0.0" clip-path="url(#id_0)" d="M415.91943 18.6C415.91943 20.256855 414.5763 21.6 412.91943 21.6C411.2626 21.6 409.91943 20.256855 409.91943 18.6C409.91943 16.943146 411.2626 15.6 412.91943 15.6C414.5763 15.6 415.91943 16.943146 415.91943 18.6Z" fill-rule="nonzero"/><path fill="#000000" fill-opacity="0.0" clip-path="url(#id_0)" d="M442.025 18.6C442.025 20.256855 440.68185 21.6 439.025 21.6C437.36813 21.6 436.025 20.256855 436.025 18.6C436.025 16.943146 437.36813 15.6 439.025 15.6C440.68185 15.6 442.025 16.943146 442.025 18.6Z" fill-rule="nonzero"/><path fill="#000000" fill-opacity="0.0" clip-path="url(#id_0)" d="M468.13055 18.6C468.13055 20.256855 466.7874 21.6 465.13055 21.6C463.4737 21.6 462.13055 20.256855 462.13055 18.6C462.13055 16.943146 463.4737 15.6 465.13055 15.6C466.7874 15.6 468.13055 16.943146 468.13055 18.6Z" fill-rule="nonzero"/><path fill="#000000" fill-opacity="0.0" clip-path="url(#id_0)" d="M494.2361 18.6C494.2361 20.256855 492.89297 21.6 491.2361 21.6C489.57925 21.6 488.2361 20.256855 488.2361 18.6C488.2361 16.943146 489.57925 15.6 491.2361 15.6C492.89297 15.6 494.2361 16.943146 494.2361 18.6Z" fill-rule="nonzero"/><path fill="#000000" fill-opacity="0.0" clip-path="url(#id_0)" d="M520.3417 18.6C520.3417 20.256855 518.99854 21.6 517.3417 21.6C515.6848 21.6 514.3417 20.256855 514.3417 18.6C514.3417 16.943146 515.6848 15.6 517.3417 15.6C518.99854 15.6 520.3417 16.943146 520.3417 18.6Z" fill-rule="nonzero"/><path fill="#000000" fill-opacity="0.0" clip-path="url(#id_0)" d="M546.4472 18.6C546.4472 20.256855 545.10406 21.6 543.4472 21.6C541.79034 21.6 540.4472 20.256855 540.4472 18.6C540.4472 16.943146 541.79034 15.6 543.4472 15.6C545.10406 15.6 546.4472 16.943146 546.4472 18.6Z" fill-rule="nonzero"/><path fill="#000000" fill-opacity="0.0" clip-path="url(#id_0)" d="M572.5528 18.6C572.5528 20.256855 571.20966 21.6 569.5528 21.6C567.89594 21.6 566.5528 20.256855 566.5528 18.6C566.5528 16.943146 567.89594 15.6 569.5528 15.6C571.20966 15.6 572.5528 16.943146 572.5528 18.6Z" fill-rule="nonzero"/><path fill="#000000" fill-opacity="0.0" clip-path="url(#id_0)" d="M598.6583 18.6C598.6583 20.256855 597.3152 21.6 595.6583 21.6C594.00146 21.6 592.6583 20.256855 592.6583 18.6C592.6583 16.943146 594.00146 15.6 595.6583 15.6C597.3152 15.6 598.6583 16.943146 598.6583 18.6Z" fill-rule="nonzero"/><path fill="#000000" fill-opacity="0.0" clip-path="url(#id_0)" d="M624.7639 18.6C624.7639 20.256855 623.4207 21.6 621.7639 21.6C620.10706 21.6 618.7639 20.256855 618.7639 18.6C618.7639 16.943146 620.10706 15.6 621.7639 15.6C623.4207 15.6 624.7639 16.943146 624.7639 18.6Z" fill-rule="nonzero"/><path fill="#000000" fill-opacity="0.0" clip-path="url(#id_0)" d="M650.86945 18.6C650.86945 20.256855 649.5263 21.6 647.86945 21.6C646.2126 21.6 644.86945 20.256855 644.86945 18.6C644.86945 16.943146 646.2126 15.6 647.86945 15.6C649.5263 15.6 650.86945 16.943146 650.86945 18.6Z" fill-rule="nonzero"/><path fill="#000000" fill-opacity="0.0" clip-path="url(#id_0)" d="M676.975 18.6C676.975 20.256855 675.63184 21.6 673.975 21.6C672.3181 21.6 670.975 20.256855 670.975 18.6C670.975 16.943146 672.3181 15.6 673.975 15.6C675.63184 15.6 676.975 16.943146 676.975 18.6Z" fill-rule="nonzero"/><path fill="#000000" fill-opacity="0.0" clip-path="url(#id_0)" d="M703.08057 18.6C703.08057 20.256855 701.7374 21.6 700.08057 21.6C698.4237 21.6 697.08057 20.256855 697.08057 18.6C697.08057 16.943146 698.4237 15.6 700.08057 15.6C701.7374 15.6 703.08057 16.943146 703.08057 18.6Z" fill-rule="nonzero"/><path fill="#000000" fill-opacity="0.0" clip-path="url(#id_0)" d="M729.1861 18.6C729.1861 20.256855 727.84296 21.6 726.1861 21.6C724.52924 21.6 723.1861 20.256855 723.1861 18.6C723.1861 16.943146 724.52924 15.6 726.1861 15.6C727.84296 15.6 729.1861 16.943146 729.1861 18.6Z" fill-rule="nonzero"/><path fill="#000000" fill-opacity="0.0" clip-path="url(#id_0)" d="M755.2917 84.19784C755.2917 85.85469 753.94855 87.19784 752.2917 87.19784C750.6348 87.19784 749.2917 85.85469 749.2917 84.19784C749.2917 82.540985 750.6348 81.19784 752.2917 81.19784C753.94855 81.19784 755.2917 82.540985 755.2917 84.19784Z" fill-rule="nonzero"/><path fill="#000000" fill-opacity="0.0" clip-path="url(#id_0)" d="M781.3972 107.15C781.3972 108.806854 780.0541 110.15 778.3972 110.15C776.74036 110.15 775.3972 108.806854 775.3972 107.15C775.3972 105.49315 776.74036 104.15 778.3972 104.15C780.0541 104.15 781.3972 105.49315 781.3972 107.15Z" fill-rule="nonzero"/><path fill="#000000" fill-opacity="0.0" clip-path="url(#id_0)" d="M807.5028 113.05334C807.5028 114.71019 806.1596 116.05334 804.5028 116.05334C802.84595 116.05334 801.5028 114.71019 801.5028 113.05334C801.5028 111.39648 802.84595 110.05334 804.5028 110.05334C806.1596 110.05334 807.5028 111.39648 807.5028 113.05334Z" fill-rule="nonzero"/><path fill="#000000" fill-opacity="0.0" clip-path="url(#id_0)" d="M833.60834 18.6C833.60834 20.256855 832.2652 21.6 830.60834 21.6C828.9515 21.6 827.60834 20.256855 827.60834 18.6C827.60834 16.943146 828.9515 15.6 830.60834 15.6C832.2652 15.6 833.60834 16.943146 833.60834 18.6Z" fill-rule="nonzero"/><path fill="#000000" fill-opacity="0.0" clip-path="url(#id_0)" d="M859.71387 65.82667C859.71387 67.48352 858.3707 68.82667 856.71387 68.82667C855.057 68.82667 853.71387 67.48352 853.71387 65.82667C853.71387 64.169815 855.057 62.826668 856.71387 62.826668C858.3707 62.826668 859.71387 64.169815 859.71387 65.82667Z" fill-rule="nonzero"/><path fill="#000000" fill-opacity="0.0" clip-path="url(#id_0)" d="M885.81946 18.6C885.81946 20.256855 884.4763 21.6 882.81946 21.6C881.1626 21.6 879.81946 20.256855 879.81946 18.6C879.81946 16.943146 881.1626 15.6 882.81946 15.6C884.4763 15.6 885.81946 16.943146 885.81946 18.6Z" fill-rule="nonzero"/><path fill="#000000" fill-opacity="0.0" clip-path="url(#id_0)" d="M911.925 77.63333C911.925 79.290184 910.58185 80.63333 908.925 80.63333C907.2681 80.63333 905.925 79.290184 905.925 77.63333C905.925 75.97648 907.2681 74.63333 908.925 74.63333C910.58185 74.63333 911.925 75.97648 911.925 77.63333Z" fill-rule="nonzero"/><path fill="#000000" fill-opacity="0.0" clip-path="url(#id_0)" d="M938.0306 105.17828C938.0306 106.835144 936.68744 108.17828 935.0306 108.17828C933.3737 108.17828 932.0306 106.835144 932.0306 105.17828C932.0306 103.52143 933.3737 102.17828 935.0306 102.17828C936.68744 102.17828 938.0306 103.52143 938.0306 105.17828Z" fill-rule="nonzero"/><path fill="#000000" fill-opacity="0.0" clip-path="url(#id_0)" d="M964.1361 77.63333C964.1361 79.290184 962.79297 80.63333 961.1361 80.63333C959.47925 80.63333 958.1361 79.290184 958.1361 77.63333C958.1361 75.97648 959.47925 74.63333 961.1361 74.63333C962.79297 74.63333 964.1361 75.97648 964.1361 77.63333Z" fill-rule="nonzero"/><path fill="#000000" fill-opacity="0.0" clip-path="url(#id_0)" d="M990.24164 77.63333C990.24164 79.290184 988.8985 80.63333 987.24164 80.63333C985.58484 80.63333 984.24164 79.290184 984.24164 77.63333C984.24164 75.97648 985.58484 74.63333 987.24164 74.63333C988.8985 74.63333 990.24164 75.97648 990.24164 77.63333Z" fill-rule="nonzero"/><path fill="#000000" fill-opacity="0.0" clip-path="url(#id_0)" d="M1016.3472 77.63333C1016.3472 79.290184 1015.0041 80.63333 1013.3472 80.63333C1011.69037 80.63333 1010.3472 79.290184 1010.3472 77.63333C1010.3472 75.97648 1011.69037 74.63333 1013.3472 74.63333C1015.0041 74.63333 1016.3472 75.97648 1016.3472 77.63333Z" fill-rule="nonzero"/><path fill="#000000" fill-opacity="0.0" clip-path="url(#id_0)" d="M102.65278 18.6C102.65278 20.256855 101.30963 21.6 99.65278 21.6C97.995926 21.6 96.65278 20.256855 96.65278 18.6C96.65278 16.943146 97.995926 15.6 99.65278 15.6C101.30963 15.6 102.65278 16.943146 102.65278 18.6Z" fill-rule="nonzero"/><path fill="#000000" fill-opacity="0.0" clip-path="url(#id_0)" d="M128.75833 18.6C128.75833 20.256855 127.415184 21.6 125.75833 21.6C124.10148 21.6 122.75833 20.256855 122.75833 18.6C122.75833 16.943146 124.10148 15.6 125.75833 15.6C127.415184 15.6 128.75833 16.943146 128.75833 18.6Z" fill-rule="nonzero"/><path fill="#000000" fill-opacity="0.0" clip-path="url(#id_0)" d="M154.86389 18.6C154.86389 20.256855 153.52074 21.6 151.86389 21.6C150.20703 21.6 148.86389 20.256855 148.86389 18.6C148.86389 16.943146 150.20703 15.6 151.86389 15.6C153.52074 15.6 154.86389 16.943146 154.86389 18.6Z" fill-rule="nonzero"/><path fill="#000000" fill-opacity="0.0" clip-path="url(#id_0)" d="M180.96945 18.6C180.96945 20.256855 179.6263 21.6 177.96945 21.6C176.31259 21.6 174.96945 20.256855 174.96945 18.6C174.96945 16.943146 176.31259 15.6 177.96945 15.6C179.6263 15.6 180.96945 16.943146 180.96945 18.6Z" fill-rule="nonzero"/><path fill="#000000" fill-opacity="0.0" clip-path="url(#id_0)" d="M207.075 18.6C207.075 20.256855 205.73186 21.6 204.075 21.6C202.41815 21.6 201.075 20.256855 201.075 18.6C201.075 16.943146 202.41815 15.6 204.075 15.6C205.73186 15.6 207.075 16.943146 207.075 18.6Z" fill-rule="nonzero"/><path fill="#000000" fill-opacity="0.0" clip-path="url(#id_0)" d="M233.18056 18.6C233.18056 20.256855 231.8374 21.6 230.18056 21.6C228.5237 21.6 227.18056 20.256855 227.18056 18.6C227.18056 16.943146 228.5237 15.6 230.18056 15.6C231.8374 15.6 233.18056 16.943146 233.18056 18.6Z" fill-rule="nonzero"/><path fill="#000000" fill-opacity="0.0" clip-path="url(#id_0)" d="M259.2861 18.6C259.2861 20.256855 257.94296 21.6 256.2861 21.6C254.62926 21.6 253.28612 20.256855 253.28612 18.6C253.28612 16.943146 254.62926 15.6 256.2861 15.6C257.94296 15.6 259.2861 16.943146 259.2861 18.6Z" fill-rule="nonzero"/><path fill="#000000" fill-opacity="0.0" clip-path="url(#id_0)" d="M285.39166 27.02996C285.39166 28.686813 284.04852 30.02996 282.39166 30.02996C280.7348 30.02996 279.39166 28.686813 279.39166 27.02996C279.39166 25.373106 280.7348 24.02996 282.39166 24.02996C284.04852 24.02996 285.39166 25.373106 285.39166 27.02996Z" fill-rule="nonzero"/><path fill="#000000" fill-opacity="0.0" clip-path="url(#id_0)" d="M311.49722 18.6C311.49722 20.256855 310.15408 21.6 308.49722 21.6C306.84036 21.6 305.49722 20.256855 305.49722 18.6C305.49722 16.943146 306.84036 15.6 308.49722 15.6C310.15408 15.6 311.49722 16.943146 311.49722 18.6Z" fill-rule="nonzero"/><path fill="#000000" fill-opacity="0.0" clip-path="url(#id_0)" d="M337.60278 18.6C337.60278 20.256855 336.25964 21.6 334.60278 21.6C332.94592 21.6 331.60278 20.256855 331.60278 18.6C331.60278 16.943146 332.94592 15.6 334.60278 15.6C336.25964 15.6 337.60278 16.943146 337.60278 18.6Z" fill-rule="nonzero"/><path fill="#000000" fill-opacity="0.0" clip-path="url(#id_0)" d="M363.70834 18.6C363.70834 20.256855 362.36517 21.6 360.70834 21.6C359.05148 21.6 357.70834 20.256855 357.70834 18.6C357.70834 16.943146 359.05148 15.6 360.70834 15.6C362.36517 15.6 363.70834 16.943146 363.70834 18.6Z" fill-rule="nonzero"/><path fill="#000000" fill-opacity="0.0" clip-path="url(#id_0)" d="M389.8139 18.6C389.8139 20.256855 388.47073 21.6 386.8139 21.6C385.15704 21.6 383.8139 20.256855 383.8139 18.6C383.8139 16.943146 385.15704 15.6 386.8139 15.6C388.47073 15.6 389.8139 16.943146 389.8139 18.6Z" fill-rule="nonzero"/><path fill="#000000" fill-opacity="0.0" clip-path="url(#id_0)" d="M415.91943 18.6C415.91943 20.256855 414.5763 21.6 412.91943 21.6C411.2626 21.6 409.91943 20.256855 409.91943 18.6C409.91943 16.943146 411.2626 15.6 412.91943 15.6C414.5763 15.6 415.91943 16.943146 415.91943 18.6Z" fill-rule="nonzero"/><path fill="#000000" fill-opacity="0.0" clip-path="url(#id_0)" d="M442.025 18.6C442.025 20.256855 440.68185 21.6 439.025 21.6C437.36813 21.6 436.025 20.256855 436.025 18.6C436.025 16.943146 437.36813 15.6 439.025 15.6C440.68185 15.6 442.025 16.943146 442.025 18.6Z" fill-rule="nonzero"/><path fill="#000000" fill-opacity="0.0" clip-path="url(#id_0)" d="M468.13055 18.6C468.13055 20.256855 466.7874 21.6 465.13055 21.6C463.4737 21.6 462.13055 20.256855 462.13055 18.6C462.13055 16.943146 463.4737 15.6 465.13055 15.6C466.7874 15.6 468.13055 16.943146 468.13055 18.6Z" fill-rule="nonzero"/><path fill="#000000" fill-opacity="0.0" clip-path="url(#id_0)" d="M494.2361 18.6C494.2361 20.256855 492.89297 21.6 491.2361 21.6C489.57925 21.6 488.2361 20.256855 488.2361 18.6C488.2361 16.943146 489.57925 15.6 491.2361 15.6C492.89297 15.6 494.2361 16.943146 494.2361 18.6Z" fill-rule="nonzero"/><path fill="#000000" fill-opacity="0.0" clip-path="url(#id_0)" d="M520.3417 18.6C520.3417 20.256855 518.99854 21.6 517.3417 21.6C515.6848 21.6 514.3417 20.256855 514.3417 18.6C514.3417 16.943146 515.6848 15.6 517.3417 15.6C518.99854 15.6 520.3417 16.943146 520.3417 18.6Z" fill-rule="nonzero"/><path fill="#000000" fill-opacity="0.0" clip-path="url(#id_0)" d="M546.4472 18.6C546.4472 20.256855 545.10406 21.6 543.4472 21.6C541.79034 21.6 540.4472 20.256855 540.4472 18.6C540.4472 16.943146 541.79034 15.6 543.4472 15.6C545.10406 15.6 546.4472 16.943146 546.4472 18.6Z" fill-rule="nonzero"/><path fill="#000000" fill-opacity="0.0" clip-path="url(#id_0)" d="M572.5528 18.6C572.5528 20.256855 571.20966 21.6 569.5528 21.6C567.89594 21.6 566.5528 20.256855 566.5528 18.6C566.5528 16.943146 567.89594 15.6 569.5528 15.6C571.20966 15.6 572.5528 16.943146 572.5528 18.6Z" fill-rule="nonzero"/><path fill="#000000" fill-opacity="0.0" clip-path="url(#id_0)" d="M598.6583 18.6C598.6583 20.256855 597.3152 21.6 595.6583 21.6C594.00146 21.6 592.6583 20.256855 592.6583 18.6C592.6583 16.943146 594.00146 15.6 595.6583 15.6C597.3152 15.6 598.6583 16.943146 598.6583 18.6Z" fill-rule="nonzero"/><path fill="#000000" fill-opacity="0.0" clip-path="url(#id_0)" d="M624.7639 18.6C624.7639 20.256855 623.4207 21.6 621.7639 21.6C620.10706 21.6 618.7639 20.256855 618.7639 18.6C618.7639 16.943146 620.10706 15.6 621.7639 15.6C623.4207 15.6 624.7639 16.943146 624.7639 18.6Z" fill-rule="nonzero"/><path fill="#000000" fill-opacity="0.0" clip-path="url(#id_0)" d="M650.86945 18.6C650.86945 20.256855 649.5263 21.6 647.86945 21.6C646.2126 21.6 644.86945 20.256855 644.86945 18.6C644.86945 16.943146 646.2126 15.6 647.86945 15.6C649.5263 15.6 650.86945 16.943146 650.86945 18.6Z" fill-rule="nonzero"/><path fill="#000000" fill-opacity="0.0" clip-path="url(#id_0)" d="M676.975 18.6C676.975 20.256855 675.63184 21.6 673.975 21.6C672.3181 21.6 670.975 20.256855 670.975 18.6C670.975 16.943146 672.3181 15.6 673.975 15.6C675.63184 15.6 676.975 16.943146 676.975 18.6Z" fill-rule="nonzero"/><path fill="#000000" fill-opacity="0.0" clip-path="url(#id_0)" d="M703.08057 18.6C703.08057 20.256855 701.7374 21.6 700.08057 21.6C698.4237 21.6 697.08057 20.256855 697.08057 18.6C697.08057 16.943146 698.4237 15.6 700.08057 15.6C701.7374 15.6 703.08057 16.943146 703.08057 18.6Z" fill-rule="nonzero"/><path fill="#000000" fill-opacity="0.0" clip-path="url(#id_0)" d="M729.1861 18.6C729.1861 20.256855 727.84296 21.6 726.1861 21.6C724.52924 21.6 723.1861 20.256855 723.1861 18.6C723.1861 16.943146 724.52924 15.6 726.1861 15.6C727.84296 15.6 729.1861 16.943146 729.1861 18.6Z" fill-rule="nonzero"/><path fill="#000000" fill-opacity="0.0" clip-path="url(#id_0)" d="M755.2917 44.837036C755.2917 46.49389 753.94855 47.837036 752.2917 47.837036C750.6348 47.837036 749.2917 46.49389 749.2917 44.837036C749.2917 43.18018 750.6348 41.837036 752.2917 41.837036C753.94855 41.837036 755.2917 43.18018 755.2917 44.837036Z" fill-rule="nonzero"/><path fill="#000000" fill-opacity="0.0" clip-path="url(#id_0)" d="M781.3972 18.6C781.3972 20.256855 780.0541 21.6 778.3972 21.6C776.74036 21.6 775.3972 20.256855 775.3972 18.6C775.3972 16.943146 776.74036 15.6 778.3972 15.6C780.0541 15.6 781.3972 16.943146 781.3972 18.6Z" fill-rule="nonzero"/><path fill="#000000" fill-opacity="0.0" clip-path="url(#id_0)" d="M807.5028 18.6C807.5028 20.256855 806.1596 21.6 804.5028 21.6C802.84595 21.6 801.5028 20.256855 801.5028 18.6C801.5028 16.943146 802.84595 15.6 804.5028 15.6C806.1596 15.6 807.5028 16.943146 807.5028 18.6Z" fill-rule="nonzero"/><path fill="#000000" fill-opacity="0.0" clip-path="url(#id_0)" d="M833.60834 18.6C833.60834 20.256855 832.2652 21.6 830.60834 21.6C828.9515 21.6 827.60834 20.256855 827.60834 18.6C827.60834 16.943146 828.9515 15.6 830.60834 15.6C832.2652 15.6 833.60834 16.943146 833.60834 18.6Z" fill-rule="nonzero"/><path fill="#000000" fill-opacity="0.0" clip-path="url(#id_0)" d="M859.71387 65.82666C859.71387 67.48351 858.3707 68.82666 856.71387 68.82666C855.057 68.82666 853.71387 67.48351 853.71387 65.82666C853.71387 64.16981 855.057 62.82666 856.71387 62.82666C858.3707 62.82666 859.71387 64.16981 859.71387 65.82666Z" fill-rule="nonzero"/><path fill="#000000" fill-opacity="0.0" clip-path="url(#id_0)" d="M885.81946 18.6C885.81946 20.256855 884.4763 21.6 882.81946 21.6C881.1626 21.6 879.81946 20.256855 879.81946 18.6C879.81946 16.943146 881.1626 15.6 882.81946 15.6C884.4763 15.6 885.81946 16.943146 885.81946 18.6Z" fill-rule="nonzero"/><path fill="#000000" fill-opacity="0.0" clip-path="url(#id_0)" d="M911.925 77.63333C911.925 79.290184 910.58185 80.63333 908.925 80.63333C907.2681 80.63333 905.925 79.290184 905.925 77.63333C905.925 75.97648 907.2681 74.63333 908.925 74.63333C910.58185 74.63333 911.925 75.97648 911.925 77.63333Z" fill-rule="nonzero"/><path fill="#000000" fill-opacity="0.0" clip-path="url(#id_0)" d="M938.0306 105.18222C938.0306 106.83907 936.68744 108.18222 935.0306 108.18222C933.3737 108.18222 932.0306 106.83907 932.0306 105.18222C932.0306 103.52537 933.3737 102.18222 935.0306 102.18222C936.68744 102.18222 938.0306 103.52537 938.0306 105.18222Z" fill-rule="nonzero"/><path fill="#000000" fill-opacity="0.0" clip-path="url(#id_0)" d="M964.1361 77.63333C964.1361 79.290184 962.79297 80.63333 961.1361 80.63333C959.47925 80.63333 958.1361 79.290184 958.1361 77.63333C958.1361 75.97648 959.47925 74.63333 961.1361 74.63333C962.79297 74.63333 964.1361 75.97648 964.1361 77.63333Z" fill-rule="nonzero"/><path fill="#000000" fill-opacity="0.0" clip-path="url(#id_0)" d="M990.24164 77.63333C990.24164 79.290184 988.8985 80.63333 987.24164 80.63333C985.58484 80.63333 984.24164 79.290184 984.24164 77.63333C984.24164 75.97648 985.58484 74.63333 987.24164 74.63333C988.8985 74.63333 990.24164 75.97648 990.24164 77.63333Z" fill-rule="nonzero"/><path fill="#000000" fill-opacity="0.0" clip-path="url(#id_0)" d="M1016.3472 77.63333C1016.3472 79.290184 1015.0041 80.63333 1013.3472 80.63333C1011.69037 80.63333 1010.3472 79.290184 1010.3472 77.63333C1010.3472 75.97648 1011.69037 74.63333 1013.3472 74.63333C1015.0041 74.63333 1016.3472 75.97648 1016.3472 77.63333Z" fill-rule="nonzero"/><path fill="#000000" d="M494.39062 187.66667L494.39062 181.8073L492.96875 181.8073L492.96875 180.65105L494.39062 180.65105L494.39062 174.77605L498.84375 174.77605Q500.32812 174.77605 501.125 174.96355Q502.23438 175.21355 503.01562 175.88542Q504.03125 176.7448 504.53125 178.08855Q505.04688 179.4323 505.04688 181.15105Q505.04688 183.1198 504.42188 184.54167Q503.79688 185.96355 502.92188 186.60417Q502.04688 187.2448 500.92188 187.51042Q500.29688 187.66667 499.03125 187.66667L494.39062 187.66667ZM496.09375 186.15105L498.84375 186.15105Q500.125 186.15105 500.84375 185.91667Q501.5625 185.66667 501.98438 185.2448Q502.59375 184.63542 502.9375 183.6198Q503.28125 182.60417 503.28125 181.13542Q503.28125 179.6198 502.9375 178.71355Q502.60938 177.8073 502.0625 177.27605Q501.51562 176.72917 500.84375 176.52605Q500.1875 176.3073 498.79688 176.3073L496.09375 176.3073L496.09375 180.65105L499.64062 180.65105L499.64062 181.8073L496.09375 181.8073L496.09375 186.15105ZM508.21875 182.9948Q508.21875 184.72917 509.0 185.6823Q509.75 186.57292 510.96875 186.57292Q512.2031 186.57292 512.9375 185.6823Q513.71875 184.72917 513.71875 182.94792Q513.71875 181.26042 512.9219 180.32292Q512.1875 179.4323 510.96875 179.4323Q509.73438 179.4323 509.0 180.32292Q508.21875 181.26042 508.21875 182.9948ZM515.5469 179.94792L515.5469 178.10417L517.25 178.10417L517.25 179.5573Q517.25 180.65105 516.9219 181.22917Q516.4844 181.97917 515.34375 182.6198Q515.34375 182.72917 515.34375 182.8698Q515.34375 186.13542 513.2344 187.3073Q512.2031 187.88542 510.96875 187.88542Q508.96875 187.88542 507.79688 186.6198Q506.59375 185.32292 506.59375 182.9948Q506.59375 180.40105 508.04688 179.15105Q509.25 178.1198 510.96875 178.1198Q512.90625 178.1198 514.125 179.38542Q515.0469 180.33855 515.2656 181.85417Q515.875 181.47917 516.125 181.08855Q516.3906 180.6823 516.375 179.94792L515.5469 179.94792ZM519.1875 187.66667L519.1875 178.33855L520.6094 178.33855L520.6094 179.66667Q521.6406 178.1198 523.5781 178.1198Q524.4219 178.1198 525.125 178.4323Q525.84375 178.72917 526.1875 179.22917Q526.5469 179.71355 526.6875 180.38542Q526.7656 180.82292 526.7656 181.9323L526.7656 187.66667L525.1875 187.66667L525.1875 181.9948Q525.1875 181.02605 525.0 180.54167Q524.8281 180.0573 524.34375 179.77605Q523.875 179.4948 523.25 179.4948Q522.2344 179.4948 521.5 180.13542Q520.7656 180.77605 520.7656 182.57292L520.7656 187.66667L519.1875 187.66667ZM536.78125 187.66667L533.2344 178.33855L534.90625 178.33855L536.90625 183.91667Q537.2344 184.82292 537.5 185.8073Q537.71875 185.0573 538.09375 184.02605L540.15625 178.33855L541.7969 178.33855L538.25 187.66667L536.78125 187.66667ZM543.2031 176.60417L543.2031 174.77605L544.78125 174.77605L544.78125 176.60417L543.2031 176.60417ZM543.2031 187.66667L543.2031 178.33855L544.78125 178.33855L544.78125 187.66667L543.2031 187.66667ZM543.09375 190.52605L543.09375 188.72917L544.8906 188.72917L544.8906 190.52605L543.09375 190.52605ZM552.2031 187.66667L552.2031 174.77605L553.78125 174.77605L553.78125 182.13542L557.5156 178.33855L559.5625 178.33855L556.0 181.79167L559.9375 187.66667L557.9844 187.66667L554.8906 182.90105L553.78125 183.96355L553.78125 187.66667L552.2031 187.66667ZM561.2031 176.60417L561.2031 174.77605L562.78125 174.77605L562.78125 176.60417L561.2031 176.60417ZM561.2031 187.66667L561.2031 178.33855L562.78125 178.33855L562.78125 187.66667L561.2031 187.66667ZM571.5781 184.66667L573.21875 184.8698Q572.8281 186.29167 571.78125 187.08855Q570.7344 187.88542 569.1094 187.88542Q567.0625 187.88542 565.8594 186.6198Q564.65625 185.35417 564.65625 183.07292Q564.65625 180.72917 565.8594 179.4323Q567.0781 178.1198 569.0156 178.1198Q570.8906 178.1198 572.0781 179.40105Q573.2656 180.66667 573.2656 182.97917Q573.2656 183.1198 573.25 183.40105L566.2969 183.40105Q566.375 184.94792 567.15625 185.76042Q567.9531 186.57292 569.1094 186.57292Q569.9844 186.57292 570.59375 186.1198Q571.21875 185.66667 571.5781 184.66667ZM566.375 182.10417L571.59375 182.10417Q571.4844 180.9323 571.0 180.33855Q570.2344 179.41667 569.03125 179.41667Q567.9531 179.41667 567.2031 180.15105Q566.46875 180.88542 566.375 182.10417ZM568.9844 175.6823L567.9844 177.16667L566.1719 177.16667L568.0781 174.71355L569.7656 174.71355L571.7344 177.16667L569.9375 177.16667L568.9844 175.6823ZM568.46875 173.38542Q568.96875 173.33855 569.1094 173.29167Q569.5781 173.1823 569.59375 172.9323Q569.59375 172.72917 569.34375 172.58855Q568.96875 172.38542 568.1719 172.38542Q567.90625 172.38542 567.34375 172.4323L567.25 171.60417Q567.59375 171.52605 568.5156 171.54167Q569.59375 171.54167 570.28125 171.88542Q571.03125 172.26042 571.0625 172.85417Q571.09375 173.72917 569.4531 173.9323L569.4531 174.3698L568.46875 174.3698L568.46875 173.38542ZM575.1875 187.66667L575.1875 178.33855L576.6094 178.33855L576.6094 179.63542Q577.0469 178.96355 577.7656 178.54167Q578.5 178.1198 579.4375 178.1198Q580.46875 178.1198 581.125 178.5573Q581.7969 178.97917 582.0625 179.76042Q583.1719 178.1198 584.9531 178.1198Q586.34375 178.1198 587.0781 178.90105Q587.8281 179.66667 587.8281 181.26042L587.8281 187.66667L586.2656 187.66667L586.2656 181.79167Q586.2656 180.83855 586.1094 180.41667Q585.9531 179.9948 585.5469 179.7448Q585.1406 179.4948 584.59375 179.4948Q583.6094 179.4948 582.9531 180.15105Q582.3125 180.8073 582.3125 182.2448L582.3125 187.66667L580.7344 187.66667L580.7344 181.60417Q580.7344 180.54167 580.34375 180.02605Q579.9531 179.4948 579.0781 179.4948Q578.40625 179.4948 577.84375 179.85417Q577.28125 180.19792 577.0156 180.8698Q576.7656 181.54167 576.7656 182.82292L576.7656 187.66667L575.1875 187.66667ZM597.6406 186.2448L597.875 187.65105Q597.2031 187.79167 596.6719 187.79167Q595.8125 187.79167 595.3281 187.52605Q594.8594 187.2448 594.6719 186.8073Q594.4844 186.35417 594.4844 184.9323L594.4844 179.5573L593.3125 179.5573L593.3125 178.33855L594.4844 178.33855L594.4844 176.02605L596.0469 175.07292L596.0469 178.33855L597.6406 178.33855L597.6406 179.5573L596.0469 179.5573L596.0469 185.02605Q596.0469 185.69792 596.125 185.90105Q596.21875 186.08855 596.40625 186.19792Q596.59375 186.3073 596.9531 186.3073Q597.2031 186.3073 597.6406 186.2448ZM599.1875 187.66667L599.1875 174.77605L600.7656 174.77605L600.7656 179.40105Q601.875 178.1198 603.5625 178.1198Q604.59375 178.1198 605.3594 178.52605Q606.125 178.9323 606.4531 179.66667Q606.7969 180.38542 606.7969 181.7448L606.7969 187.66667L605.2031 187.66667L605.2031 181.7448Q605.2031 180.5573 604.6875 180.02605Q604.1719 179.47917 603.2344 179.47917Q602.53125 179.47917 601.90625 179.85417Q601.2969 180.21355 601.03125 180.83855Q600.7656 181.46355 600.7656 182.5573L600.7656 187.66667L599.1875 187.66667ZM617.8125 180.16667L617.8125 178.33855L619.5 178.33855L619.5 179.77605Q619.5 181.16667 619.1875 181.71355Q618.375 183.1198 616.71875 183.29167L616.71875 187.66667L615.2969 187.66667L615.2969 186.29167Q614.21875 187.88542 612.34375 187.88542Q611.53125 187.88542 610.8125 187.57292Q610.09375 187.26042 609.7344 186.77605Q609.3906 186.29167 609.25 185.58855Q609.15625 185.1198 609.15625 184.1198L609.15625 178.33855L610.7344 178.33855L610.7344 183.51042Q610.7344 184.76042 610.8281 185.1823Q611.1406 186.51042 612.65625 186.51042Q613.3906 186.51042 614.0 186.15105Q614.625 185.77605 614.875 185.15105Q615.1406 184.52605 615.1406 183.33855L615.1406 178.33855L616.71875 178.33855L616.71875 182.6198Q617.8281 182.4323 618.3906 181.57292Q618.6406 181.21355 618.6406 180.16667L617.8125 180.16667ZM612.4375 176.1198Q612.9375 176.0573 613.0781 176.02605Q613.5469 175.8698 613.5469 175.52605Q613.5625 175.32292 613.3125 175.1823Q612.9375 174.97917 612.1406 174.97917Q611.8594 174.97917 611.3125 175.02605L611.21875 174.1198Q611.5625 174.0573 612.4844 174.0573Q613.5625 174.07292 614.25 174.41667Q615.0 174.77605 615.0156 175.44792Q615.0625 176.52605 613.4219 176.72917L613.4219 177.16667L612.4375 177.16667L612.4375 176.1198Z" fill-rule="nonzero"/><path fill="#000000" d="M28.600004 135.7427L22.74063 135.7427L22.74063 137.16458L21.58438 137.16458L21.58438 135.7427L15.70938 135.7427L15.70938 131.28958Q15.70938 129.8052 15.89688 129.00833Q16.14688 127.89896 16.818754 127.11771Q17.67813 126.10208 19.02188 125.60208Q20.36563 125.08646 22.08438 125.08646Q24.05313 125.08646 25.475004 125.71146Q26.89688 126.33646 27.537504 127.21146Q28.17813 128.08646 28.443754 129.21146Q28.600004 129.83646 28.600004 131.10208L28.600004 135.7427ZM27.08438 134.03958L27.08438 131.28958Q27.08438 130.00833 26.850004 129.28958Q26.600004 128.57083 26.17813 128.14896Q25.568754 127.53958 24.55313 127.19583Q23.537504 126.85208 22.068754 126.85208Q20.55313 126.85208 19.64688 127.19583Q18.74063 127.52396 18.20938 128.07083Q17.662504 128.6177 17.45938 129.28958Q17.24063 129.94583 17.24063 131.33646L17.24063 134.03958L21.58438 134.03958L21.58438 130.4927L22.74063 130.4927L22.74063 134.03958L27.08438 134.03958ZM23.92813 123.53958Q21.33438 123.53958 20.08438 122.086464Q19.05313 120.88334 19.05313 119.16459Q19.05313 117.22709 20.318754 116.00834Q21.58438 114.78959 23.80313 114.78959Q25.600004 114.78959 26.631254 115.336464Q27.662504 115.867714 28.24063 116.898964Q28.818754 117.930214 28.818754 119.16459Q28.818754 121.117714 27.568754 122.336464Q26.30313 123.53958 23.92813 123.53958ZM23.92813 121.91459Q25.725004 121.91459 26.61563 121.13334Q27.506254 120.35209 27.506254 119.16459Q27.506254 117.97709 26.61563 117.19584Q25.70938 116.41459 23.881254 116.41459Q22.14688 116.41459 21.256254 117.211464Q20.36563 117.992714 20.36563 119.16459Q20.36563 120.35209 21.256254 121.13334Q22.14688 121.91459 23.92813 121.91459ZM16.61563 119.13334L18.100004 120.13334L18.100004 121.94584L15.64688 120.03959L15.64688 118.35209L18.100004 116.38334L18.100004 118.180214L16.61563 119.13334ZM31.45938 120.13334L29.662504 120.13334L29.662504 118.336464L31.45938 118.336464L31.45938 120.13334ZM32.17813 107.94584L19.27188 107.94584L19.27188 106.50834L20.475004 106.50834Q19.77188 105.992714 19.412504 105.35209Q19.05313 104.711464 19.05313 103.805214Q19.05313 102.60209 19.67813 101.69584Q20.287504 100.773964 21.412504 100.305214Q22.52188 99.836464 23.86563 99.836464Q25.287504 99.836464 26.443754 100.35209Q27.58438 100.867714 28.20938 101.85209Q28.818754 102.836464 28.818754 103.91459Q28.818754 104.69584 28.49063 105.336464Q28.14688 105.961464 27.631254 106.367714L32.17813 106.367714L32.17813 107.94584ZM23.99063 106.50834Q25.787504 106.50834 26.64688 105.78959Q27.506254 105.055214 27.506254 104.023964Q27.506254 102.961464 26.61563 102.211464Q25.725004 101.461464 23.850004 101.461464Q22.068754 101.461464 21.17813 102.19584Q20.287504 102.930214 20.287504 103.94584Q20.287504 104.961464 21.24063 105.742714Q22.17813 106.50834 23.99063 106.50834ZM28.600004 97.94584L15.70938 97.94584L15.70938 96.367714L20.33438 96.367714Q19.05313 95.25834 19.05313 93.57084Q19.05313 92.53959 19.45938 91.773964Q19.86563 91.00834 20.600004 90.680214Q21.318754 90.336464 22.67813 90.336464L28.600004 90.336464L28.600004 91.930214L22.67813 91.930214Q21.49063 91.930214 20.95938 92.44584Q20.412504 92.961464 20.412504 93.898964Q20.412504 94.60209 20.787504 95.22709Q21.14688 95.836464 21.77188 96.10209Q22.39688 96.367714 23.49063 96.367714L28.600004 96.367714L28.600004 97.94584ZM28.600004 81.836464L27.225004 81.836464Q28.818754 82.91459 28.818754 84.78959Q28.818754 85.617714 28.506254 86.336464Q28.17813 87.055214 27.70938 87.398964Q27.225004 87.742714 26.52188 87.88334Q26.05313 87.97709 25.05313 87.97709L19.27188 87.97709L19.27188 86.398964L24.443754 86.398964Q25.67813 86.398964 26.11563 86.305214Q26.74063 86.148964 27.100004 85.66459Q27.443754 85.180214 27.443754 84.47709Q27.443754 83.75834 27.08438 83.13334Q26.725004 82.50834 26.100004 82.25834Q25.45938 81.992714 24.27188 81.992714L19.27188 81.992714L19.27188 80.41459L28.600004 80.41459L28.600004 81.836464ZM17.05313 84.69584Q16.99063 84.19584 16.95938 84.055214Q16.80313 83.586464 16.45938 83.586464Q16.256254 83.57084 16.11563 83.82084Q15.912505 84.19584 15.912505 84.992714Q15.912505 85.273964 15.95938 85.82084L15.05313 85.91459Q14.99063 85.57084 14.99063 84.648964Q15.006255 83.57084 15.350005 82.88334Q15.70938 82.13334 16.381254 82.117714Q17.45938 82.07084 17.662504 83.711464L18.100004 83.711464L18.100004 84.69584L17.05313 84.69584ZM24.08438 63.55521L24.506254 61.852085Q26.61563 62.383335 27.725004 63.77396Q28.818754 65.16459 28.818754 67.180214Q28.818754 69.25834 27.975004 70.57084Q27.11563 71.867714 25.52188 72.555214Q23.912504 73.242714 22.05313 73.242714Q20.05313 73.242714 18.55313 72.47709Q17.05313 71.69584 16.27188 70.273964Q15.49063 68.85209 15.49063 67.148964Q15.49063 65.22709 16.475004 63.914585Q17.45938 62.58646 19.24063 62.070835L19.64688 63.74271Q18.24063 64.19584 17.600004 65.055214Q16.95938 65.898964 16.95938 67.19584Q16.95938 68.680214 17.67813 69.680214Q18.381254 70.66459 19.58438 71.07084Q20.77188 71.47709 22.05313 71.47709Q23.693754 71.47709 24.92813 71.00834Q26.14688 70.523964 26.756254 69.50834Q27.36563 68.492714 27.36563 67.32084Q27.36563 65.88334 26.537504 64.898964Q25.70938 63.89896 24.08438 63.55521ZM28.600004 54.43021L28.600004 56.008335L18.52188 56.008335Q19.068754 56.58646 19.61563 57.508335Q20.14688 58.43021 20.42813 59.18021L18.89688 59.18021Q18.27188 57.852085 17.381254 56.852085Q16.49063 55.852085 15.662505 55.445835L15.662505 54.43021L28.600004 54.43021ZM32.381256 41.93021Q30.74063 43.227085 28.52188 44.133335Q26.30313 45.039585 23.92813 45.039585Q21.83438 45.039585 19.92813 44.36771Q17.693754 43.570835 15.49063 41.93021L15.49063 40.789585Q17.318754 41.852085 18.100004 42.195835Q19.318754 42.727085 20.631254 43.039585Q22.287504 43.414585 23.943754 43.414585Q28.162504 43.414585 32.381256 40.789585L32.381256 41.93021ZM18.80313 39.08646Q17.42813 39.08646 16.45938 38.39896Q15.49063 37.695835 15.49063 36.383335Q15.49063 35.164585 16.36563 34.36771Q17.225004 33.570835 18.912504 33.570835Q20.537504 33.570835 21.42813 34.383335Q22.30313 35.18021 22.30313 36.36771Q22.30313 37.52396 21.443754 38.30521Q20.568754 39.08646 18.80313 39.08646ZM16.58438 36.33646Q16.58438 36.93021 17.100004 37.320835Q17.600004 37.71146 18.95938 37.71146Q20.20938 37.71146 20.70938 37.320835Q21.20938 36.914585 21.20938 36.33646Q21.20938 35.74271 20.70938 35.352085Q20.193754 34.96146 18.850004 34.96146Q17.600004 34.96146 17.100004 35.352085Q16.58438 35.74271 16.58438 36.33646ZM29.068754 36.320835L15.49063 29.27396L15.49063 27.99271L29.068754 35.02396L29.068754 36.320835ZM25.568754 30.758335Q24.193754 30.758335 23.225004 30.070835Q22.256254 29.36771 22.256254 28.039585Q22.256254 26.820835 23.131254 26.039585Q23.99063 25.24271 25.67813 25.24271Q27.30313 25.24271 28.193754 26.039585Q29.068754 26.83646 29.068754 28.02396Q29.068754 29.195835 28.193754 29.977085Q27.318754 30.758335 25.568754 30.758335ZM23.350004 27.99271Q23.350004 28.58646 23.86563 28.977085Q24.36563 29.36771 25.74063 29.36771Q26.95938 29.36771 27.475004 28.977085Q27.99063 28.58646 27.99063 28.008335Q27.99063 27.39896 27.475004 27.008335Q26.95938 26.61771 25.61563 26.61771Q24.36563 26.61771 23.86563 27.008335Q23.350004 27.39896 23.350004 27.99271ZM32.381256 21.914585L32.381256 23.039585Q28.162504 20.414585 23.943754 20.414585Q22.287504 20.414585 20.662504 20.789585Q19.350004 21.08646 18.131254 21.633335Q17.33438 21.977085 15.49063 23.039585L15.49063 21.914585Q17.693754 20.258335 19.92813 19.46146Q21.83438 18.789585 23.92813 18.789585Q26.30313 18.789585 28.52188 19.695835Q30.74063 20.602085 32.381256 21.914585Z" fill-rule="nonzero"/><path fill="#000000" d="M74.1 136.4323Q74.1 134.90105 74.4125 133.97917Q74.725 133.04167 75.33437 132.54167Q75.95937 132.04167 76.89687 132.04167Q77.58437 132.04167 78.1 132.32292Q78.63125 132.60417 78.975 133.13542Q79.31875 133.65105 79.50625 134.40105Q79.69375 135.15105 79.69375 136.4323Q79.69375 137.94792 79.38125 138.8698Q79.08437 139.79167 78.45937 140.3073Q77.85 140.8073 76.89687 140.8073Q75.6625 140.8073 74.94375 139.91667Q74.1 138.85417 74.1 136.4323ZM75.17812 136.4323Q75.17812 138.54167 75.67812 139.2448Q76.17812 139.94792 76.89687 139.94792Q77.63125 139.94792 78.11562 139.2448Q78.61562 138.54167 78.61562 136.4323Q78.61562 134.3073 78.11562 133.6198Q77.63125 132.91667 76.88125 132.91667Q76.1625 132.91667 75.725 133.52605Q75.17812 134.3073 75.17812 136.4323Z" fill-rule="nonzero"/><path fill="#000000" d="M72.64687 110.13438L72.64687 111.15L66.95937 111.15Q66.95937 110.775 67.08437 110.41563Q67.30312 109.8375 67.77187 109.275Q68.25625 108.7125 69.1625 107.97813Q70.56875 106.82188 71.05312 106.15Q71.55312 105.47813 71.55312 104.88438Q71.55312 104.25938 71.1 103.8375Q70.64687 103.4 69.92812 103.4Q69.1625 103.4 68.70937 103.85313Q68.25625 104.30625 68.24062 105.11875L67.1625 105.00938Q67.27187 103.79063 67.99062 103.16563Q68.725 102.525 69.95937 102.525Q71.19375 102.525 71.9125 103.2125Q72.63125 103.9 72.63125 104.91563Q72.63125 105.43125 72.4125 105.93125Q72.20937 106.41563 71.70937 106.97813Q71.225 107.525 70.1 108.47813Q69.14687 109.275 68.86562 109.57188Q68.6 109.85313 68.42812 110.13438L72.64687 110.13438ZM74.1 108.9L75.20937 108.80625Q75.33437 109.61875 75.77187 110.025Q76.225 110.43125 76.86562 110.43125Q77.61562 110.43125 78.14687 109.85313Q78.67812 109.275 78.67812 108.3375Q78.67812 107.43125 78.1625 106.91563Q77.6625 106.38438 76.83437 106.38438Q76.33437 106.38438 75.9125 106.61875Q75.50625 106.85313 75.27187 107.2125L74.2875 107.0875L75.11562 102.68125L79.39687 102.68125L79.39687 103.68125L75.95937 103.68125L75.50625 105.99375Q76.27187 105.44688 77.11562 105.44688Q78.24062 105.44688 79.00625 106.22813Q79.7875 107.00938 79.7875 108.24375Q79.7875 109.4 79.11562 110.25938Q78.2875 111.29063 76.86562 111.29063Q75.69375 111.29063 74.94375 110.63438Q74.20937 109.97813 74.1 108.9Z" fill-rule="nonzero"/><path fill="#000000" d="M67.1 79.38333L68.20937 79.28958Q68.33437 80.10208 68.77187 80.50833Q69.225 80.91458 69.86562 80.91458Q70.61562 80.91458 71.14687 80.33646Q71.67812 79.75833 71.67812 78.82083Q71.67812 77.91458 71.1625 77.39896Q70.6625 76.86771 69.83437 76.86771Q69.33437 76.86771 68.9125 77.10208Q68.50625 77.33646 68.27187 77.69583L67.2875 77.57083L68.11562 73.16458L72.39687 73.16458L72.39687 74.16458L68.95937 74.16458L68.50625 76.47708Q69.27187 75.93021 70.11562 75.93021Q71.24062 75.93021 72.00625 76.71146Q72.7875 77.49271 72.7875 78.72708Q72.7875 79.88333 72.11562 80.74271Q71.2875 81.77396 69.86562 81.77396Q68.69375 81.77396 67.94375 81.11771Q67.20937 80.46146 67.1 79.38333ZM74.1 77.39896Q74.1 75.86771 74.4125 74.94583Q74.725 74.00833 75.33437 73.50833Q75.95937 73.00833 76.89687 73.00833Q77.58437 73.00833 78.1 73.28958Q78.63125 73.57083 78.975 74.10208Q79.31875 74.61771 79.50625 75.36771Q79.69375 76.11771 79.69375 77.39896Q79.69375 78.91458 79.38125 79.83646Q79.08437 80.75833 78.45937 81.27396Q77.85 81.77396 76.89687 81.77396Q75.6625 81.77396 74.94375 80.88333Q74.1 79.82083 74.1 77.39896ZM75.17812 77.39896Q75.17812 79.50833 75.67812 80.21146Q76.17812 80.91458 76.89687 80.91458Q77.63125 80.91458 78.11562 80.21146Q78.61562 79.50833 78.61562 77.39896Q78.61562 75.27396 78.11562 74.58646Q77.63125 73.88333 76.88125 73.88333Q76.1625 73.88333 75.725 74.49271Q75.17812 75.27396 75.17812 77.39896Z" fill-rule="nonzero"/><path fill="#000000" d="M67.1625 44.647915L67.1625 43.63229L72.725 43.63229L72.725 44.460415Q71.9125 45.335415 71.1 46.78854Q70.30312 48.22604 69.86562 49.75729Q69.5375 50.835415 69.45937 52.116665L68.36562 52.116665Q68.38125 51.10104 68.75625 49.66354Q69.14687 48.22604 69.85 46.897915Q70.56875 45.56979 71.38125 44.647915L67.1625 44.647915ZM74.1 49.866665L75.20937 49.772915Q75.33437 50.585415 75.77187 50.991665Q76.225 51.397915 76.86562 51.397915Q77.61562 51.397915 78.14687 50.81979Q78.67812 50.241665 78.67812 49.304165Q78.67812 48.397915 78.1625 47.88229Q77.6625 47.35104 76.83437 47.35104Q76.33437 47.35104 75.9125 47.585415Q75.50625 47.81979 75.27187 48.179165L74.2875 48.054165L75.11562 43.647915L79.39687 43.647915L79.39687 44.647915L75.95937 44.647915L75.50625 46.960415Q76.27187 46.41354 77.11562 46.41354Q78.24062 46.41354 79.00625 47.19479Q79.7875 47.97604 79.7875 49.210415Q79.7875 50.366665 79.11562 51.22604Q78.2875 52.25729 76.86562 52.25729Q75.69375 52.25729 74.94375 51.60104Q74.20937 50.94479 74.1 49.866665Z" fill-rule="nonzero"/><path fill="#000000" d="M64.06875 22.6L63.021873 22.6L63.021873 15.88125Q62.63125 16.240625 62.00625 16.615625Q61.396873 16.975 60.9125 17.146875L60.9125 16.13125Q61.7875 15.709375 62.44375 15.13125Q63.115623 14.5375 63.396873 13.975L64.06875 13.975L64.06875 22.6ZM67.1 18.365625Q67.1 16.834375 67.4125 15.9125Q67.725 14.975 68.33437 14.475Q68.95937 13.975 69.89687 13.975Q70.58437 13.975 71.1 14.25625Q71.63125 14.5375 71.975 15.06875Q72.31875 15.584375 72.50625 16.334375Q72.69375 17.084375 72.69375 18.365625Q72.69375 19.88125 72.38125 20.803125Q72.08437 21.725 71.45937 22.240625Q70.85 22.740625 69.89687 22.740625Q68.6625 22.740625 67.94375 21.85Q67.1 20.7875 67.1 18.365625ZM68.17812 18.365625Q68.17812 20.475 68.67812 21.178125Q69.17812 21.88125 69.89687 21.88125Q70.63125 21.88125 71.11562 21.178125Q71.61562 20.475 71.61562 18.365625Q71.61562 16.240625 71.11562 15.553125Q70.63125 14.85 69.88125 14.85Q69.1625 14.85 68.725 15.459375Q68.17812 16.240625 68.17812 18.365625ZM74.1 18.365625Q74.1 16.834375 74.4125 15.9125Q74.725 14.975 75.33437 14.475Q75.95937 13.975 76.89687 13.975Q77.58437 13.975 78.1 14.25625Q78.63125 14.5375 78.975 15.06875Q79.31875 15.584375 79.50625 16.334375Q79.69375 17.084375 79.69375 18.365625Q79.69375 19.88125 79.38125 20.803125Q79.08437 21.725 78.45937 22.240625Q77.85 22.740625 76.89687 22.740625Q75.6625 22.740625 74.94375 21.85Q74.1 20.7875 74.1 18.365625ZM75.17812 18.365625Q75.17812 20.475 75.67812 21.178125Q76.17812 21.88125 76.89687 21.88125Q77.63125 21.88125 78.11562 21.178125Q78.61562 20.475 78.61562 18.365625Q78.61562 16.240625 78.11562 15.553125Q77.63125 14.85 76.88125 14.85Q76.1625 14.85 75.725 15.459375Q75.17812 16.240625 75.17812 18.365625Z" fill-rule="nonzero"/><path stroke="#ff0000" stroke-width="4.0" stroke-linecap="butt" stroke-dasharray="13.0,9.0" d="M284.5 209.9L319.5 209.9" fill-rule="nonzero"/><path fill="#1a1a1a" d="M328.89062 216.4L328.89062 203.50937L333.75 203.50937Q335.03125 203.50937 335.70312 203.63437Q336.65625 203.79062 337.29688 204.24374Q337.9375 204.68124 338.32812 205.49374Q338.71875 206.29062 338.71875 207.24374Q338.71875 208.88437 337.67188 210.025Q336.625 211.16562 333.90625 211.16562L330.59375 211.16562L330.59375 216.4L328.89062 216.4ZM330.59375 209.63437L333.92188 209.63437Q335.57812 209.63437 336.26562 209.025Q336.96875 208.41562 336.96875 207.29062Q336.96875 206.47812 336.5625 205.91562Q336.15625 205.3375 335.48438 205.15Q335.04688 205.04062 333.89062 205.04062L330.59375 205.04062L330.59375 209.63437ZM340.6875 216.4L340.6875 203.50937L342.26562 203.50937L342.26562 208.13437Q343.375 206.85312 345.0625 206.85312Q346.09375 206.85312 346.85938 207.25937Q347.625 207.66562 347.95312 208.4Q348.29688 209.11874 348.29688 210.47812L348.29688 216.4L346.70312 216.4L346.70312 210.47812Q346.70312 209.29062 346.1875 208.75937Q345.67188 208.2125 344.73438 208.2125Q344.03125 208.2125 343.40625 208.5875Q342.79688 208.94687 342.53125 209.57187Q342.26562 210.19687 342.26562 211.29062L342.26562 216.4L340.6875 216.4ZM359.3125 208.9L359.3125 207.07187L361.0 207.07187L361.0 208.50937Q361.0 209.9 360.6875 210.44687Q359.875 211.85312 358.21875 212.025L358.21875 216.4L356.79688 216.4L356.79688 215.025Q355.71875 216.61874 353.84375 216.61874Q353.03125 216.61874 352.3125 216.30624Q351.59375 215.99374 351.23438 215.50937Q350.89062 215.025 350.75 214.32187Q350.65625 213.85312 350.65625 212.85312L350.65625 207.07187L352.23438 207.07187L352.23438 212.24374Q352.23438 213.49374 352.32812 213.91562Q352.64062 215.24374 354.15625 215.24374Q354.89062 215.24374 355.5 214.88437Q356.125 214.50937 356.375 213.88437Q356.64062 213.25937 356.64062 212.07187L356.64062 207.07187L358.21875 207.07187L358.21875 211.35312Q359.32812 211.16562 359.89062 210.30624Q360.14062 209.94687 360.14062 208.9L359.3125 208.9ZM363.71875 211.72812Q363.71875 213.4625 364.5 214.41562Q365.25 215.30624 366.46875 215.30624Q367.70312 215.30624 368.4375 214.41562Q369.21875 213.4625 369.21875 211.68124Q369.21875 209.99374 368.42188 209.05624Q367.6875 208.16562 366.46875 208.16562Q365.23438 208.16562 364.5 209.05624Q363.71875 209.99374 363.71875 211.72812ZM371.04688 208.68124L371.04688 206.8375L372.75 206.8375L372.75 208.29062Q372.75 209.38437 372.42188 209.9625Q371.98438 210.7125 370.84375 211.35312Q370.84375 211.4625 370.84375 211.60312Q370.84375 214.86874 368.73438 216.04062Q367.70312 216.61874 366.46875 216.61874Q364.46875 216.61874 363.29688 215.35312Q362.09375 214.05624 362.09375 211.72812Q362.09375 209.13437 363.54688 207.88437Q364.75 206.85312 366.46875 206.85312Q368.40625 206.85312 369.625 208.11874Q370.54688 209.07187 370.76562 210.5875Q371.375 210.2125 371.625 209.82187Q371.89062 209.41562 371.875 208.68124L371.04688 208.68124ZM374.6875 216.4L374.6875 207.07187L376.10938 207.07187L376.10938 208.4Q377.14062 206.85312 379.07812 206.85312Q379.92188 206.85312 380.625 207.16562Q381.34375 207.4625 381.6875 207.9625Q382.04688 208.44687 382.1875 209.11874Q382.26562 209.55624 382.26562 210.66562L382.26562 216.4L380.6875 216.4L380.6875 210.72812Q380.6875 209.75937 380.5 209.275Q380.32812 208.79062 379.84375 208.50937Q379.375 208.22812 378.75 208.22812Q377.73438 208.22812 377.0 208.86874Q376.26562 209.50937 376.26562 211.30624L376.26562 216.4L374.6875 216.4ZM384.39062 217.18124L385.9375 217.4Q386.03125 218.11874 386.46875 218.44687Q387.0625 218.88437 388.07812 218.88437Q389.17188 218.88437 389.76562 218.43124Q390.375 217.99374 390.57812 217.2125Q390.70312 216.72812 390.70312 215.18124Q389.65625 216.4 388.10938 216.4Q386.1875 216.4 385.125 215.00937Q384.07812 213.61874 384.07812 211.68124Q384.07812 210.3375 384.5625 209.2125Q385.04688 208.0875 385.96875 207.47812Q386.89062 206.85312 388.125 206.85312Q389.78125 206.85312 390.84375 208.19687L390.84375 207.07187L392.3125 207.07187L392.3125 215.13437Q392.3125 217.32187 391.85938 218.22812Q391.42188 219.13437 390.45312 219.65Q389.5 220.18124 388.09375 220.18124Q386.42188 220.18124 385.39062 219.43124Q384.35938 218.68124 384.39062 217.18124ZM385.70312 211.57187Q385.70312 213.4 386.4375 214.24374Q387.17188 215.0875 388.26562 215.0875Q389.35938 215.0875 390.09375 214.25937Q390.82812 213.41562 390.82812 211.61874Q390.82812 209.9 390.0625 209.04062Q389.3125 208.16562 388.23438 208.16562Q387.1875 208.16562 386.4375 209.025Q385.70312 209.88437 385.70312 211.57187ZM399.6875 219.97812L399.6875 207.07187L401.125 207.07187L401.125 208.275Q401.64062 207.57187 402.28125 207.2125Q402.92188 206.85312 403.82812 206.85312Q405.03125 206.85312 405.9375 207.47812Q406.85938 208.0875 407.32812 209.2125Q407.79688 210.32187 407.79688 211.66562Q407.79688 213.0875 407.28125 214.24374Q406.76562 215.38437 405.78125 216.00937Q404.79688 216.61874 403.71875 216.61874Q402.9375 216.61874 402.29688 216.29062Q401.67188 215.94687 401.26562 215.43124L401.26562 219.97812L399.6875 219.97812ZM401.125 211.79062Q401.125 213.5875 401.84375 214.44687Q402.57812 215.30624 403.60938 215.30624Q404.67188 215.30624 405.42188 214.41562Q406.17188 213.525 406.17188 211.65Q406.17188 209.86874 405.4375 208.97812Q404.70312 208.0875 403.6875 208.0875Q402.67188 208.0875 401.89062 209.04062Q401.125 209.97812 401.125 211.79062ZM409.6875 216.4L409.6875 203.50937L411.26562 203.50937L411.26562 208.13437Q412.375 206.85312 414.0625 206.85312Q415.09375 206.85312 415.85938 207.25937Q416.625 207.66562 416.95312 208.4Q417.29688 209.11874 417.29688 210.47812L417.29688 216.4L415.70312 216.4L415.70312 210.47812Q415.70312 209.29062 415.1875 208.75937Q414.67188 208.2125 413.73438 208.2125Q413.03125 208.2125 412.40625 208.5875Q411.79688 208.94687 411.53125 209.57187Q411.26562 210.19687 411.26562 211.29062L411.26562 216.4L409.6875 216.4ZM425.78125 215.24374Q424.90625 215.99374 424.07812 216.30624Q423.26562 216.61874 422.34375 216.61874Q420.79688 216.61874 419.96875 215.86874Q419.15625 215.10312 419.15625 213.93124Q419.15625 213.25937 419.46875 212.69687Q419.78125 212.11874 420.28125 211.775Q420.78125 211.43124 421.42188 211.25937Q421.89062 211.13437 422.82812 211.025Q424.73438 210.79062 425.64062 210.47812Q425.65625 210.15 425.65625 210.05624Q425.65625 209.10312 425.20312 208.69687Q424.59375 208.16562 423.40625 208.16562Q422.28125 208.16562 421.75 208.55624Q421.21875 208.94687 420.96875 209.94687L419.42188 209.72812Q419.64062 208.72812 420.10938 208.11874Q420.59375 207.50937 421.5 207.18124Q422.42188 206.85312 423.64062 206.85312Q424.82812 206.85312 425.57812 207.13437Q426.32812 207.41562 426.67188 207.85312Q427.03125 208.275 427.17188 208.91562Q427.25 209.32187 427.25 210.38437L427.25 212.49374Q427.25 214.69687 427.34375 215.29062Q427.45312 215.86874 427.75 216.4L426.09375 216.4Q425.84375 215.9 425.78125 215.24374ZM425.64062 211.7125Q424.78125 212.07187 423.0625 212.30624Q422.09375 212.44687 421.6875 212.63437Q421.28125 212.80624 421.0625 213.15Q420.84375 213.47812 420.84375 213.9Q420.84375 214.525 421.3125 214.94687Q421.79688 215.36874 422.71875 215.36874Q423.64062 215.36874 424.34375 214.97812Q425.0625 214.57187 425.39062 213.88437Q425.64062 213.3375 425.64062 212.29062L425.64062 211.7125ZM422.57812 205.9L423.75 203.44687L425.8125 203.44687L423.89062 205.9L422.57812 205.9ZM429.6875 219.97812L429.6875 207.07187L431.125 207.07187L431.125 208.275Q431.64062 207.57187 432.28125 207.2125Q432.92188 206.85312 433.82812 206.85312Q435.03125 206.85312 435.9375 207.47812Q436.85938 208.0875 437.32812 209.2125Q437.79688 210.32187 437.79688 211.66562Q437.79688 213.0875 437.28125 214.24374Q436.76562 215.38437 435.78125 216.00937Q434.79688 216.61874 433.71875 216.61874Q432.9375 216.61874 432.29688 216.29062Q431.67188 215.94687 431.26562 215.43124L431.26562 219.97812L429.6875 219.97812ZM431.125 211.79062Q431.125 213.5875 431.84375 214.44687Q432.57812 215.30624 433.60938 215.30624Q434.67188 215.30624 435.42188 214.41562Q436.17188 213.525 436.17188 211.65Q436.17188 209.86874 435.4375 208.97812Q434.70312 208.0875 433.6875 208.0875Q432.67188 208.0875 431.89062 209.04062Q431.125 209.97812 431.125 211.79062ZM448.14062 214.97812L448.375 216.38437Q447.70312 216.525 447.17188 216.525Q446.3125 216.525 445.82812 216.25937Q445.35938 215.97812 445.17188 215.54062Q444.98438 215.0875 444.98438 213.66562L444.98438 208.29062L443.8125 208.29062L443.8125 207.07187L444.98438 207.07187L444.98438 204.75937L446.54688 203.80624L446.54688 207.07187L448.14062 207.07187L448.14062 208.29062L446.54688 208.29062L446.54688 213.75937Q446.54688 214.43124 446.625 214.63437Q446.71875 214.82187 446.90625 214.93124Q447.09375 215.04062 447.45312 215.04062Q447.70312 215.04062 448.14062 214.97812ZM449.67188 216.4L449.67188 207.07187L451.09375 207.07187L451.09375 208.47812Q451.64062 207.49374 452.09375 207.18124Q452.5625 206.85312 453.10938 206.85312Q453.92188 206.85312 454.73438 207.36874L454.20312 208.8375Q453.60938 208.49374 453.03125 208.49374Q452.51562 208.49374 452.09375 208.80624Q451.6875 209.11874 451.51562 209.66562Q451.25 210.50937 451.25 211.50937L451.25 216.4L449.67188 216.4ZM461.79688 216.4L461.79688 215.025Q460.71875 216.61874 458.84375 216.61874Q458.01562 216.61874 457.29688 216.30624Q456.57812 215.97812 456.23438 215.50937Q455.89062 215.025 455.75 214.32187Q455.65625 213.85312 455.65625 212.85312L455.65625 207.07187L457.23438 207.07187L457.23438 212.24374Q457.23438 213.47812 457.32812 213.91562Q457.48438 214.54062 457.96875 214.9Q458.45312 215.24374 459.15625 215.24374Q459.875 215.24374 460.5 214.88437Q461.125 214.525 461.375 213.9Q461.64062 213.25937 461.64062 212.07187L461.64062 207.07187L463.21875 207.07187L463.21875 216.4L461.79688 216.4ZM465.60938 219.99374L465.4375 218.50937Q465.95312 218.65 466.34375 218.65Q466.875 218.65 467.1875 218.47812Q467.5 218.30624 467.70312 217.97812Q467.85938 217.74374 468.1875 216.80624Q468.23438 216.66562 468.32812 216.41562L464.79688 207.07187L466.5 207.07187L468.4375 212.47812Q468.8125 213.49374 469.10938 214.63437Q469.39062 213.54062 469.76562 212.50937L471.76562 207.07187L473.34375 207.07187L469.79688 216.55624Q469.21875 218.10312 468.90625 218.68124Q468.48438 219.4625 467.9375 219.82187Q467.39062 220.18124 466.64062 220.18124Q466.17188 220.18124 465.60938 219.99374ZM481.07812 213.4L482.71875 213.60312Q482.32812 215.025 481.28125 215.82187Q480.23438 216.61874 478.60938 216.61874Q476.5625 216.61874 475.35938 215.35312Q474.15625 214.0875 474.15625 211.80624Q474.15625 209.4625 475.35938 208.16562Q476.57812 206.85312 478.51562 206.85312Q480.39062 206.85312 481.57812 208.13437Q482.76562 209.4 482.76562 211.7125Q482.76562 211.85312 482.75 212.13437L475.79688 212.13437Q475.875 213.68124 476.65625 214.49374Q477.45312 215.30624 478.60938 215.30624Q479.48438 215.30624 480.09375 214.85312Q480.71875 214.4 481.07812 213.4ZM475.875 210.8375L481.09375 210.8375Q480.98438 209.66562 480.5 209.07187Q479.73438 208.15 478.53125 208.15Q477.45312 208.15 476.70312 208.88437Q475.96875 209.61874 475.875 210.8375ZM478.48438 204.41562L477.48438 205.9L475.67188 205.9L477.57812 203.44687L479.26562 203.44687L481.23438 205.9L479.4375 205.9L478.48438 204.41562ZM479.26562 202.80624L478.0 202.80624L475.96875 200.3375L478.07812 200.3375L479.26562 202.80624ZM484.6875 216.4L484.6875 207.07187L486.10938 207.07187L486.10938 208.4Q487.14062 206.85312 489.07812 206.85312Q489.92188 206.85312 490.625 207.16562Q491.34375 207.4625 491.6875 207.9625Q492.04688 208.44687 492.1875 209.11874Q492.26562 209.55624 492.26562 210.66562L492.26562 216.4L490.6875 216.4L490.6875 210.72812Q490.6875 209.75937 490.5 209.275Q490.32812 208.79062 489.84375 208.50937Q489.375 208.22812 488.75 208.22812Q487.73438 208.22812 487.0 208.86874Q486.26562 209.50937 486.26562 211.30624L486.26562 216.4L484.6875 216.4ZM503.14062 214.97812L503.375 216.38437Q502.70312 216.525 502.17188 216.525Q501.3125 216.525 500.82812 216.25937Q500.35938 215.97812 500.17188 215.54062Q499.98438 215.0875 499.98438 213.66562L499.98438 208.29062L498.8125 208.29062L498.8125 207.07187L499.98438 207.07187L499.98438 204.75937L501.54688 203.80624L501.54688 207.07187L503.14062 207.07187L503.14062 208.29062L501.54688 208.29062L501.54688 213.75937Q501.54688 214.43124 501.625 214.63437Q501.71875 214.82187 501.90625 214.93124Q502.09375 215.04062 502.45312 215.04062Q502.70312 215.04062 503.14062 214.97812ZM504.6875 216.4L504.6875 203.50937L506.26562 203.50937L506.26562 208.13437Q507.375 206.85312 509.0625 206.85312Q510.09375 206.85312 510.85938 207.25937Q511.625 207.66562 511.95312 208.4Q512.2969 209.11874 512.2969 210.47812L512.2969 216.4L510.70312 216.4L510.70312 210.47812Q510.70312 209.29062 510.1875 208.75937Q509.67188 208.2125 508.73438 208.2125Q508.03125 208.2125 507.40625 208.5875Q506.79688 208.94687 506.53125 209.57187Q506.26562 210.19687 506.26562 211.29062L506.26562 216.4L504.6875 216.4ZM514.09375 211.72812Q514.09375 209.13437 515.5469 207.88437Q516.75 206.85312 518.46875 206.85312Q520.40625 206.85312 521.625 208.11874Q522.84375 209.38437 522.84375 211.60312Q522.84375 213.4 522.2969 214.43124Q521.7656 215.4625 520.7344 216.04062Q519.7031 216.61874 518.46875 216.61874Q516.5156 216.61874 515.2969 215.36874Q514.09375 214.10312 514.09375 211.72812ZM515.71875 211.72812Q515.71875 213.525 516.5 214.41562Q517.28125 215.30624 518.46875 215.30624Q519.65625 215.30624 520.4375 214.41562Q521.21875 213.50937 521.21875 211.68124Q521.21875 209.94687 520.4219 209.05624Q519.6406 208.16562 518.46875 208.16562Q517.28125 208.16562 516.5 209.05624Q515.71875 209.94687 515.71875 211.72812ZM518.5 204.41562L517.5 205.9L515.6875 205.9L517.59375 203.44687L519.28125 203.44687L521.25 205.9L519.4531 205.9L518.5 204.41562ZM518.7656 200.3375L520.8906 200.3375L518.8594 202.80624L517.5781 202.80624L518.7656 200.3375ZM524.6875 216.4L524.6875 207.07187L526.1094 207.07187L526.1094 208.4Q527.1406 206.85312 529.0781 206.85312Q529.9219 206.85312 530.625 207.16562Q531.34375 207.4625 531.6875 207.9625Q532.0469 208.44687 532.1875 209.11874Q532.2656 209.55624 532.2656 210.66562L532.2656 216.4L530.6875 216.4L530.6875 210.72812Q530.6875 209.75937 530.5 209.275Q530.3281 208.79062 529.84375 208.50937Q529.375 208.22812 528.75 208.22812Q527.7344 208.22812 527.0 208.86874Q526.2656 209.50937 526.2656 211.30624L526.2656 216.4L524.6875 216.4ZM534.3906 217.18124L535.9375 217.4Q536.03125 218.11874 536.46875 218.44687Q537.0625 218.88437 538.0781 218.88437Q539.1719 218.88437 539.7656 218.43124Q540.375 217.99374 540.5781 217.2125Q540.7031 216.72812 540.7031 215.18124Q539.65625 216.4 538.1094 216.4Q536.1875 216.4 535.125 215.00937Q534.0781 213.61874 534.0781 211.68124Q534.0781 210.3375 534.5625 209.2125Q535.0469 208.0875 535.96875 207.47812Q536.8906 206.85312 538.125 206.85312Q539.78125 206.85312 540.84375 208.19687L540.84375 207.07187L542.3125 207.07187L542.3125 215.13437Q542.3125 217.32187 541.8594 218.22812Q541.4219 219.13437 540.4531 219.65Q539.5 220.18124 538.09375 220.18124Q536.4219 220.18124 535.3906 219.43124Q534.3594 218.68124 534.3906 217.18124ZM535.7031 211.57187Q535.7031 213.4 536.4375 214.24374Q537.1719 215.0875 538.2656 215.0875Q539.3594 215.0875 540.09375 214.25937Q540.8281 213.41562 540.8281 211.61874Q540.8281 209.9 540.0625 209.04062Q539.3125 208.16562 538.2344 208.16562Q537.1875 208.16562 536.4375 209.025Q535.7031 209.88437 535.7031 211.57187Z" fill-rule="nonzero"/><path stroke="#0000ff" stroke-width="4.0" stroke-linecap="butt" d="M559.5 209.9L571.5 209.9" fill-rule="nonzero"/><path fill="#1a1a1a" d="M580.8906 216.4L580.8906 203.50937L585.75 203.50937Q587.03125 203.50937 587.7031 203.63437Q588.65625 203.79062 589.2969 204.24374Q589.9375 204.68124 590.3281 205.49374Q590.71875 206.29062 590.71875 207.24374Q590.71875 208.88437 589.6719 210.025Q588.625 211.16562 585.90625 211.16562L582.59375 211.16562L582.59375 216.4L580.8906 216.4ZM582.59375 209.63437L585.9219 209.63437Q587.5781 209.63437 588.2656 209.025Q588.96875 208.41562 588.96875 207.29062Q588.96875 206.47812 588.5625 205.91562Q588.15625 205.3375 587.4844 205.15Q587.0469 205.04062 585.8906 205.04062L582.59375 205.04062L582.59375 209.63437ZM592.6875 216.4L592.6875 203.50937L594.2656 203.50937L594.2656 208.13437Q595.375 206.85312 597.0625 206.85312Q598.09375 206.85312 598.8594 207.25937Q599.625 207.66562 599.9531 208.4Q600.2969 209.11874 600.2969 210.47812L600.2969 216.4L598.7031 216.4L598.7031 210.47812Q598.7031 209.29062 598.1875 208.75937Q597.6719 208.2125 596.7344 208.2125Q596.03125 208.2125 595.40625 208.5875Q594.7969 208.94687 594.53125 209.57187Q594.2656 210.19687 594.2656 211.29062L594.2656 216.4L592.6875 216.4ZM611.3125 208.9L611.3125 207.07187L613.0 207.07187L613.0 208.50937Q613.0 209.9 612.6875 210.44687Q611.875 211.85312 610.21875 212.025L610.21875 216.4L608.7969 216.4L608.7969 215.025Q607.71875 216.61874 605.84375 216.61874Q605.03125 216.61874 604.3125 216.30624Q603.59375 215.99374 603.2344 215.50937Q602.8906 215.025 602.75 214.32187Q602.65625 213.85312 602.65625 212.85312L602.65625 207.07187L604.2344 207.07187L604.2344 212.24374Q604.2344 213.49374 604.3281 213.91562Q604.6406 215.24374 606.15625 215.24374Q606.8906 215.24374 607.5 214.88437Q608.125 214.50937 608.375 213.88437Q608.6406 213.25937 608.6406 212.07187L608.6406 207.07187L610.21875 207.07187L610.21875 211.35312Q611.3281 211.16562 611.8906 210.30624Q612.1406 209.94687 612.1406 208.9L611.3125 208.9ZM615.71875 211.72812Q615.71875 213.4625 616.5 214.41562Q617.25 215.30624 618.46875 215.30624Q619.7031 215.30624 620.4375 214.41562Q621.21875 213.4625 621.21875 211.68124Q621.21875 209.99374 620.4219 209.05624Q619.6875 208.16562 618.46875 208.16562Q617.2344 208.16562 616.5 209.05624Q615.71875 209.99374 615.71875 211.72812ZM623.0469 208.68124L623.0469 206.8375L624.75 206.8375L624.75 208.29062Q624.75 209.38437 624.4219 209.9625Q623.9844 210.7125 622.84375 211.35312Q622.84375 211.4625 622.84375 211.60312Q622.84375 214.86874 620.7344 216.04062Q619.7031 216.61874 618.46875 216.61874Q616.46875 216.61874 615.2969 215.35312Q614.09375 214.05624 614.09375 211.72812Q614.09375 209.13437 615.5469 207.88437Q616.75 206.85312 618.46875 206.85312Q620.40625 206.85312 621.625 208.11874Q622.5469 209.07187 622.7656 210.5875Q623.375 210.2125 623.625 209.82187Q623.8906 209.41562 623.875 208.68124L623.0469 208.68124ZM626.6875 216.4L626.6875 207.07187L628.1094 207.07187L628.1094 208.4Q629.1406 206.85312 631.0781 206.85312Q631.9219 206.85312 632.625 207.16562Q633.34375 207.4625 633.6875 207.9625Q634.0469 208.44687 634.1875 209.11874Q634.2656 209.55624 634.2656 210.66562L634.2656 216.4L632.6875 216.4L632.6875 210.72812Q632.6875 209.75937 632.5 209.275Q632.3281 208.79062 631.84375 208.50937Q631.375 208.22812 630.75 208.22812Q629.7344 208.22812 629.0 208.86874Q628.2656 209.50937 628.2656 211.30624L628.2656 216.4L626.6875 216.4ZM636.3906 217.18124L637.9375 217.4Q638.03125 218.11874 638.46875 218.44687Q639.0625 218.88437 640.0781 218.88437Q641.1719 218.88437 641.7656 218.43124Q642.375 217.99374 642.5781 217.2125Q642.7031 216.72812 642.7031 215.18124Q641.65625 216.4 640.1094 216.4Q638.1875 216.4 637.125 215.00937Q636.0781 213.61874 636.0781 211.68124Q636.0781 210.3375 636.5625 209.2125Q637.0469 208.0875 637.96875 207.47812Q638.8906 206.85312 640.125 206.85312Q641.78125 206.85312 642.84375 208.19687L642.84375 207.07187L644.3125 207.07187L644.3125 215.13437Q644.3125 217.32187 643.8594 218.22812Q643.4219 219.13437 642.4531 219.65Q641.5 220.18124 640.09375 220.18124Q638.4219 220.18124 637.3906 219.43124Q636.3594 218.68124 636.3906 217.18124ZM637.7031 211.57187Q637.7031 213.4 638.4375 214.24374Q639.1719 215.0875 640.2656 215.0875Q641.3594 215.0875 642.09375 214.25937Q642.8281 213.41562 642.8281 211.61874Q642.8281 209.9 642.0625 209.04062Q641.3125 208.16562 640.2344 208.16562Q639.1875 208.16562 638.4375 209.025Q637.7031 209.88437 637.7031 211.57187ZM651.6875 219.97812L651.6875 207.07187L653.125 207.07187L653.125 208.275Q653.6406 207.57187 654.28125 207.2125Q654.9219 206.85312 655.8281 206.85312Q657.03125 206.85312 657.9375 207.47812Q658.8594 208.0875 659.3281 209.2125Q659.7969 210.32187 659.7969 211.66562Q659.7969 213.0875 659.28125 214.24374Q658.7656 215.38437 657.78125 216.00937Q656.7969 216.61874 655.71875 216.61874Q654.9375 216.61874 654.2969 216.29062Q653.6719 215.94687 653.2656 215.43124L653.2656 219.97812L651.6875 219.97812ZM653.125 211.79062Q653.125 213.5875 653.84375 214.44687Q654.5781 215.30624 655.6094 215.30624Q656.6719 215.30624 657.4219 214.41562Q658.1719 213.525 658.1719 211.65Q658.1719 209.86874 657.4375 208.97812Q656.7031 208.0875 655.6875 208.0875Q654.6719 208.0875 653.8906 209.04062Q653.125 209.97812 653.125 211.79062ZM661.6875 216.4L661.6875 203.50937L663.2656 203.50937L663.2656 208.13437Q664.375 206.85312 666.0625 206.85312Q667.09375 206.85312 667.8594 207.25937Q668.625 207.66562 668.9531 208.4Q669.2969 209.11874 669.2969 210.47812L669.2969 216.4L667.7031 216.4L667.7031 210.47812Q667.7031 209.29062 667.1875 208.75937Q666.6719 208.2125 665.7344 208.2125Q665.03125 208.2125 664.40625 208.5875Q663.7969 208.94687 663.53125 209.57187Q663.2656 210.19687 663.2656 211.29062L663.2656 216.4L661.6875 216.4ZM677.78125 215.24374Q676.90625 215.99374 676.0781 216.30624Q675.2656 216.61874 674.34375 216.61874Q672.7969 216.61874 671.96875 215.86874Q671.15625 215.10312 671.15625 213.93124Q671.15625 213.25937 671.46875 212.69687Q671.78125 212.11874 672.28125 211.775Q672.78125 211.43124 673.4219 211.25937Q673.8906 211.13437 674.8281 211.025Q676.7344 210.79062 677.6406 210.47812Q677.65625 210.15 677.65625 210.05624Q677.65625 209.10312 677.2031 208.69687Q676.59375 208.16562 675.40625 208.16562Q674.28125 208.16562 673.75 208.55624Q673.21875 208.94687 672.96875 209.94687L671.4219 209.72812Q671.6406 208.72812 672.1094 208.11874Q672.59375 207.50937 673.5 207.18124Q674.4219 206.85312 675.6406 206.85312Q676.8281 206.85312 677.5781 207.13437Q678.3281 207.41562 678.6719 207.85312Q679.03125 208.275 679.1719 208.91562Q679.25 209.32187 679.25 210.38437L679.25 212.49374Q679.25 214.69687 679.34375 215.29062Q679.4531 215.86874 679.75 216.4L678.09375 216.4Q677.84375 215.9 677.78125 215.24374ZM677.6406 211.7125Q676.78125 212.07187 675.0625 212.30624Q674.09375 212.44687 673.6875 212.63437Q673.28125 212.80624 673.0625 213.15Q672.84375 213.47812 672.84375 213.9Q672.84375 214.525 673.3125 214.94687Q673.7969 215.36874 674.71875 215.36874Q675.6406 215.36874 676.34375 214.97812Q677.0625 214.57187 677.3906 213.88437Q677.6406 213.3375 677.6406 212.29062L677.6406 211.7125ZM674.5781 205.9L675.75 203.44687L677.8125 203.44687L675.8906 205.9L674.5781 205.9ZM681.6875 219.97812L681.6875 207.07187L683.125 207.07187L683.125 208.275Q683.6406 207.57187 684.28125 207.2125Q684.9219 206.85312 685.8281 206.85312Q687.03125 206.85312 687.9375 207.47812Q688.8594 208.0875 689.3281 209.2125Q689.7969 210.32187 689.7969 211.66562Q689.7969 213.0875 689.28125 214.24374Q688.7656 215.38437 687.78125 216.00937Q686.7969 216.61874 685.71875 216.61874Q684.9375 216.61874 684.2969 216.29062Q683.6719 215.94687 683.2656 215.43124L683.2656 219.97812L681.6875 219.97812ZM683.125 211.79062Q683.125 213.5875 683.84375 214.44687Q684.5781 215.30624 685.6094 215.30624Q686.6719 215.30624 687.4219 214.41562Q688.1719 213.525 688.1719 211.65Q688.1719 209.86874 687.4375 208.97812Q686.7031 208.0875 685.6875 208.0875Q684.6719 208.0875 683.8906 209.04062Q683.125 209.97812 683.125 211.79062ZM702.6406 205.68124L699.59375 205.68124L699.59375 204.525L702.6406 204.525L702.6406 203.50937L704.2031 203.50937L704.2031 204.525L705.4844 204.525L705.4844 205.68124L704.2031 205.68124L704.2031 216.4L702.75 216.4L702.75 215.22812Q701.8594 216.61874 700.125 216.61874Q699.0156 216.61874 698.0781 216.00937Q697.1406 215.38437 696.625 214.29062Q696.1094 213.18124 696.1094 211.74374Q696.1094 210.3375 696.5781 209.2125Q697.0469 208.07187 697.96875 207.4625Q698.90625 206.85312 700.0625 206.85312Q700.90625 206.85312 701.5625 207.2125Q702.21875 207.57187 702.6406 208.13437L702.6406 205.68124ZM697.7344 211.74374Q697.7344 213.54062 698.4844 214.43124Q699.25 215.30624 700.28125 215.30624Q701.3125 215.30624 702.03125 214.4625Q702.7656 213.61874 702.7656 211.86874Q702.7656 209.9625 702.03125 209.07187Q701.2969 208.16562 700.21875 208.16562Q699.15625 208.16562 698.4375 209.025Q697.7344 209.88437 697.7344 211.74374ZM713.0781 213.4L714.71875 213.60312Q714.3281 215.025 713.28125 215.82187Q712.2344 216.61874 710.6094 216.61874Q708.5625 216.61874 707.3594 215.35312Q706.15625 214.0875 706.15625 211.80624Q706.15625 209.4625 707.3594 208.16562Q708.5781 206.85312 710.5156 206.85312Q712.3906 206.85312 713.5781 208.13437Q714.7656 209.4 714.7656 211.7125Q714.7656 211.85312 714.75 212.13437L707.7969 212.13437Q707.875 213.68124 708.65625 214.49374Q709.4531 215.30624 710.6094 215.30624Q711.4844 215.30624 712.09375 214.85312Q712.71875 214.4 713.0781 213.4ZM707.875 210.8375L713.09375 210.8375Q712.9844 209.66562 712.5 209.07187Q711.7344 208.15 710.53125 208.15Q709.4531 208.15 708.7031 208.88437Q707.96875 209.61874 707.875 210.8375ZM710.4844 204.41562L709.4844 205.9L707.6719 205.9L709.5781 203.44687L711.2656 203.44687L713.2344 205.9L711.4375 205.9L710.4844 204.41562ZM711.2656 202.80624L710.0 202.80624L707.96875 200.3375L710.0781 200.3375L711.2656 202.80624ZM720.625 216.4L724.0469 211.54062L720.8906 207.07187L722.8594 207.07187L724.2969 209.25937Q724.7031 209.88437 724.9531 210.30624Q725.3281 209.7125 725.65625 209.275L727.2344 207.07187L729.125 207.07187L725.8906 211.4625L729.375 216.4L727.4219 216.4L725.5156 213.49374L725.0 212.7125L722.5469 216.4L720.625 216.4ZM735.7969 216.4L735.7969 215.025Q734.71875 216.61874 732.84375 216.61874Q732.0156 216.61874 731.2969 216.30624Q730.5781 215.97812 730.2344 215.50937Q729.8906 215.025 729.75 214.32187Q729.65625 213.85312 729.65625 212.85312L729.65625 207.07187L731.2344 207.07187L731.2344 212.24374Q731.2344 213.47812 731.3281 213.91562Q731.4844 214.54062 731.96875 214.9Q732.4531 215.24374 733.15625 215.24374Q733.875 215.24374 734.5 214.88437Q735.125 214.525 735.375 213.9Q735.6406 213.25937 735.6406 212.07187L735.6406 207.07187L737.21875 207.07187L737.21875 216.4L735.7969 216.4ZM745.78125 215.24374Q744.90625 215.99374 744.0781 216.30624Q743.2656 216.61874 742.34375 216.61874Q740.7969 216.61874 739.96875 215.86874Q739.15625 215.10312 739.15625 213.93124Q739.15625 213.25937 739.46875 212.69687Q739.78125 212.11874 740.28125 211.775Q740.78125 211.43124 741.4219 211.25937Q741.8906 211.13437 742.8281 211.025Q744.7344 210.79062 745.6406 210.47812Q745.65625 210.15 745.65625 210.05624Q745.65625 209.10312 745.2031 208.69687Q744.59375 208.16562 743.40625 208.16562Q742.28125 208.16562 741.75 208.55624Q741.21875 208.94687 740.96875 209.94687L739.4219 209.72812Q739.6406 208.72812 740.1094 208.11874Q740.59375 207.50937 741.5 207.18124Q742.4219 206.85312 743.6406 206.85312Q744.8281 206.85312 745.5781 207.13437Q746.3281 207.41562 746.6719 207.85312Q747.03125 208.275 747.1719 208.91562Q747.25 209.32187 747.25 210.38437L747.25 212.49374Q747.25 214.69687 747.34375 215.29062Q747.4531 215.86874 747.75 216.4L746.09375 216.4Q745.84375 215.9 745.78125 215.24374ZM745.6406 211.7125Q744.78125 212.07187 743.0625 212.30624Q742.09375 212.44687 741.6875 212.63437Q741.28125 212.80624 741.0625 213.15Q740.84375 213.47812 740.84375 213.9Q740.84375 214.525 741.3125 214.94687Q741.7969 215.36874 742.71875 215.36874Q743.6406 215.36874 744.34375 214.97812Q745.0625 214.57187 745.3906 213.88437Q745.6406 213.3375 745.6406 212.29062L745.6406 211.7125ZM743.4844 204.41562L742.4844 205.9L740.6719 205.9L742.5781 203.44687L744.2656 203.44687L746.2344 205.9L744.4375 205.9L743.4844 204.41562ZM743.75 200.3375L745.875 200.3375L743.84375 202.80624L742.5625 202.80624L743.75 200.3375ZM753.1406 214.97812L753.375 216.38437Q752.7031 216.525 752.1719 216.525Q751.3125 216.525 750.8281 216.25937Q750.3594 215.97812 750.1719 215.54062Q749.9844 215.0875 749.9844 213.66562L749.9844 208.29062L748.8125 208.29062L748.8125 207.07187L749.9844 207.07187L749.9844 204.75937L751.5469 203.80624L751.5469 207.07187L753.1406 207.07187L753.1406 208.29062L751.5469 208.29062L751.5469 213.75937Q751.5469 214.43124 751.625 214.63437Q751.71875 214.82187 751.90625 214.93124Q752.09375 215.04062 752.4531 215.04062Q752.7031 215.04062 753.1406 214.97812Z" fill-rule="nonzero"/></svg>