<svg version="1.1" viewBox="0.0 0.0 1038.0 232.0" fill="none" stroke="none" stroke-linecap="square" stroke-miterlimit="10" width="1038" height="232" xmlns:xlink="http://www.w3.org/1999/xlink" xmlns="http://www.w3.org/2000/svg"><path fill="#ffffff" d="M0 0L1038.0 0L1038.0 232.0L0 232.0L0 0Z" fill-rule="nonzero"/><path stroke="#333333" stroke-width="1.0" stroke-linecap="butt" d="M86.5 136.5L1026.5 136.5" fill-rule="nonzero"/><path stroke="#cccccc" stroke-width="1.0" stroke-linecap="butt" d="M86.5 107.5L1026.5 107.5" fill-rule="nonzero"/><path stroke="#cccccc" stroke-width="1.0" stroke-linecap="butt" d="M86.5 77.5L1026.5 77.5" fill-rule="nonzero"/><path stroke="#cccccc" stroke-width="1.0" stroke-linecap="butt" d="M86.5 48.5L1026.5 48.5" fill-rule="nonzero"/><path stroke="#cccccc" stroke-width="1.0" stroke-linecap="butt" d="M86.5 18.5L1026.5 18.5" fill-rule="nonzero"/><clipPath id="id_0"><path d="M86.6 18.6L1026.4 18.6L1026.4 136.66667L86.6 136.66667L86.6 18.6Z" clip-rule="nonzero"/></clipPath><path stroke="#ff0000" stroke-width="2.0" stroke-linecap="butt" stroke-dasharray="8.0,6.0" clip-path="url(#id_0)" d="M107.95909 18.6L150.67728 18.6L193.39546 77.63333L236.11363 77.63333L278.83182 18.6L321.55 38.28171L364.2682 18.6L406.98636 18.6L449.70456 18.6L492.42273 18.6L535.1409 18.6L577.8591 18.6L620.5773 18.6L663.2955 116.984955L706.0136 107.15L748.7318 107.15L791.45 101.246666L834.16815 107.15L876.88635 116.984955L919.60455 97.31505L962.32275 77.63333L1005.0409 97.31505" fill-rule="nonzero"/><path stroke="#0000ff" stroke-width="2.0" stroke-linecap="butt" clip-path="url(#id_0)" d="M107.95909 18.6L150.67728 18.6L193.39546 18.6L236.11363 18.6L278.83182 18.6L321.55 18.6L364.2682 18.6L406.98636 18.6L449.70456 18.6L492.42273 18.6L535.1409 18.6L577.8591 18.6L620.5773 18.6L663.2955 77.63333L706.0136 18.6L748.7318 48.116665L791.45 54.02L834.16815 107.15L876.88635 116.988884L919.60455 97.31111L962.32275 77.63333L1005.0409 97.31111" fill-rule="nonzero"/><path fill="#000000" fill-opacity="0.0" clip-path="url(#id_0)" d="M110.95909 18.6C110.95909 20.256855 109.615944 21.6 107.95909 21.6C106.30224 21.6 104.95909 20.256855 104.95909 18.6C104.95909 16.943146 106.30224 15.6 107.95909 15.6C109.615944 15.6 110.95909 16.943146 110.95909 18.6Z" fill-rule="nonzero"/><path fill="#000000" fill-opacity="0.0" clip-path="url(#id_0)" d="M153.67728 18.6C153.67728 20.256855 152.33412 21.6 150.67728 21.6C149.02042 21.6 147.67728 20.256855 147.67728 18.6C147.67728 16.943146 149.02042 15.6 150.67728 15.6C152.33412 15.6 153.67728 16.943146 153.67728 18.6Z" fill-rule="nonzero"/><path fill="#000000" fill-opacity="0.0" clip-path="url(#id_0)" d="M196.39546 77.63333C196.39546 79.290184 195.0523 80.63333 193.39546 80.63333C191.7386 80.63333 190.39546 79.290184 190.39546 77.63333C190.39546 75.97648 191.7386 74.63333 193.39546 74.63333C195.0523 74.63333 196.39546 75.97648 196.39546 77.63333Z" fill-rule="nonzero"/><path fill="#000000" fill-opacity="0.0" clip-path="url(#id_0)" d="M239.11363 77.63333C239.11363 79.290184 237.7705 80.63333 236.11363 80.63333C234.45679 80.63333 233.11363 79.290184 233.11363 77.63333C233.11363 75.97648 234.45679 74.63333 236.11363 74.63333C237.7705 74.63333 239.11363 75.97648 239.11363 77.63333Z" fill-rule="nonzero"/><path fill="#000000" fill-opacity="0.0" clip-path="url(#id_0)" d="M281.83182 18.6C281.83182 20.256855 280.48868 21.6 278.83182 21.6C277.17496 21.6 275.83182 20.256855 275.83182 18.6C275.83182 16.943146 277.17496 15.6 278.83182 15.6C280.48868 15.6 281.83182 16.943146 281.83182 18.6Z" fill-rule="nonzero"/><path fill="#000000" fill-opacity="0.0" clip-path="url(#id_0)" d="M324.55 38.28171C324.55 39.93857 323.20685 41.28171 321.55 41.28171C319.89316 41.28171 318.55 39.93857 318.55 38.28171C318.55 36.62486 319.89316 35.28171 321.55 35.28171C323.20685 35.28171 324.55 36.62486 324.55 38.28171Z" fill-rule="nonzero"/><path fill="#000000" fill-opacity="0.0" clip-path="url(#id_0)" d="M367.2682 18.6C367.2682 20.256855 365.92505 21.6 364.2682 21.6C362.61133 21.6 361.2682 20.256855 361.2682 18.6C361.2682 16.943146 362.61133 15.6 364.2682 15.6C365.92505 15.6 367.2682 16.943146 367.2682 18.6Z" fill-rule="nonzero"/><path fill="#000000" fill-opacity="0.0" clip-path="url(#id_0)" d="M409.98636 18.6C409.98636 20.256855 408.64322 21.6 406.98636 21.6C405.3295 21.6 403.98636 20.256855 403.98636 18.6C403.98636 16.943146 405.3295 15.6 406.98636 15.6C408.64322 15.6 409.98636 16.943146 409.98636 18.6Z" fill-rule="nonzero"/><path fill="#000000" fill-opacity="0.0" clip-path="url(#id_0)" d="M452.70456 18.6C452.70456 20.256855 451.3614 21.6 449.70456 21.6C448.0477 21.6 446.70456 20.256855 446.70456 18.6C446.70456 16.943146 448.0477 15.6 449.70456 15.6C451.3614 15.6 452.70456 16.943146 452.70456 18.6Z" fill-rule="nonzero"/><path fill="#000000" fill-opacity="0.0" clip-path="url(#id_0)" d="M495.42273 18.6C495.42273 20.256855 494.0796 21.6 492.42273 21.6C490.76587 21.6 489.42273 20.256855 489.42273 18.6C489.42273 16.943146 490.76587 15.6 492.42273 15.6C494.0796 15.6 495.42273 16.943146 495.42273 18.6Z" fill-rule="nonzero"/><path fill="#000000" fill-opacity="0.0" clip-path="url(#id_0)" d="M538.1409 18.6C538.1409 20.256855 536.7978 21.6 535.1409 21.6C533.4841 21.6 532.1409 20.256855 532.1409 18.6C532.1409 16.943146 533.4841 15.6 535.1409 15.6C536.7978 15.6 538.1409 16.943146 538.1409 18.6Z" fill-rule="nonzero"/><path fill="#000000" fill-opacity="0.0" clip-path="url(#id_0)" d="M580.8591 18.6C580.8591 20.256855 579.5159 21.6 577.8591 21.6C576.2022 21.6 574.8591 20.256855 574.8591 18.6C574.8591 16.943146 576.2022 15.6 577.8591 15.6C579.5159 15.6 580.8591 16.943146 580.8591 18.6Z" fill-rule="nonzero"/><path fill="#000000" fill-opacity="0.0" clip-path="url(#id_0)" d="M623.5773 18.6C623.5773 20.256855 622.23413 21.6 620.5773 21.6C618.9204 21.6 617.5773 20.256855 617.5773 18.6C617.5773 16.943146 618.9204 15.6 620.5773 15.6C622.23413 15.6 623.5773 16.943146 623.5773 18.6Z" fill-rule="nonzero"/><path fill="#000000" fill-opacity="0.0" clip-path="url(#id_0)" d="M666.2955 116.984955C666.2955 118.64181 664.95233 119.984955 663.2955 119.984955C661.6386 119.984955 660.2955 118.64181 660.2955 116.984955C660.2955 115.3281 661.6386 113.984955 663.2955 113.984955C664.95233 113.984955 666.2955 115.3281 666.2955 116.984955Z" fill-rule="nonzero"/><path fill="#000000" fill-opacity="0.0" clip-path="url(#id_0)" d="M709.0136 107.15C709.0136 108.806854 707.6705 110.15 706.0136 110.15C704.3568 110.15 703.0136 108.806854 703.0136 107.15C703.0136 105.49315 704.3568 104.15 706.0136 104.15C707.6705 104.15 709.0136 105.49315 709.0136 107.15Z" fill-rule="nonzero"/><path fill="#000000" fill-opacity="0.0" clip-path="url(#id_0)" d="M751.7318 107.15C751.7318 108.806854 750.3887 110.15 748.7318 110.15C747.07495 110.15 745.7318 108.806854 745.7318 107.15C745.7318 105.49315 747.07495 104.15 748.7318 104.15C750.3887 104.15 751.7318 105.49315 751.7318 107.15Z" fill-rule="nonzero"/><path fill="#000000" fill-opacity="0.0" clip-path="url(#id_0)" d="M794.45 101.246666C794.45 102.90352 793.1069 104.246666 791.45 104.246666C789.79315 104.246666 788.45 102.90352 788.45 101.246666C788.45 99.58981 789.79315 98.246666 791.45 98.246666C793.1069 98.246666 794.45 99.58981 794.45 101.246666Z" fill-rule="nonzero"/><path fill="#000000" fill-opacity="0.0" clip-path="url(#id_0)" d="M837.16815 107.15C837.16815 108.806854 835.825 110.15 834.16815 110.15C832.51135 110.15 831.16815 108.806854 831.16815 107.15C831.16815 105.49315 832.51135 104.15 834.16815 104.15C835.825 104.15 837.16815 105.49315 837.16815 107.15Z" fill-rule="nonzero"/><path fill="#000000" fill-opacity="0.0" clip-path="url(#id_0)" d="M879.88635 116.984955C879.88635 118.64181 878.5432 119.984955 876.88635 119.984955C875.2295 119.984955 873.88635 118.64181 873.88635 116.984955C873.88635 115.3281 875.2295 113.984955 876.88635 113.984955C878.5432 113.984955 879.88635 115.3281 879.88635 116.984955Z" fill-rule="nonzero"/><path fill="#000000" fill-opacity="0.0" clip-path="url(#id_0)" d="M922.60455 97.31505C922.60455 98.9719 921.2614 100.31505 919.60455 100.31505C917.9477 100.31505 916.60455 98.9719 916.60455 97.31505C916.60455 95.658195 917.9477 94.31505 919.60455 94.31505C921.2614 94.31505 922.60455 95.658195 922.60455 97.31505Z" fill-rule="nonzero"/><path fill="#000000" fill-opacity="0.0" clip-path="url(#id_0)" d="M965.32275 77.63333C965.32275 79.290184 963.97955 80.63333 962.32275 80.63333C960.6659 80.63333 959.32275 79.290184 959.32275 77.63333C959.32275 75.97648 960.6659 74.63333 962.32275 74.63333C963.97955 74.63333 965.32275 75.97648 965.32275 77.63333Z" fill-rule="nonzero"/><path fill="#000000" fill-opacity="0.0" clip-path="url(#id_0)" d="M1008.0409 97.31505C1008.0409 98.9719 1006.69775 100.31505 1005.0409 100.31505C1003.38403 100.31505 1002.0409 98.9719 1002.0409 97.31505C1002.0409 95.658195 1003.38403 94.31505 1005.0409 94.31505C1006.69775 94.31505 1008.0409 95.658195 1008.0409 97.31505Z" fill-rule="nonzero"/><path fill="#000000" fill-opacity="0.0" clip-path="url(#id_0)" d="M110.95909 18.6C110.95909 20.256855 109.615944 21.6 107.95909 21.6C106.30224 21.6 104.95909 20.256855 104.95909 18.6C104.95909 16.943146 106.30224 15.6 107.95909 15.6C109.615944 15.6 110.95909 16.943146 110.95909 18.6Z" fill-rule="nonzero"/><path fill="#000000" fill-opacity="0.0" clip-path="url(#id_0)" d="M153.67728 18.6C153.67728 20.256855 152.33412 21.6 150.67728 21.6C149.02042 21.6 147.67728 20.256855 147.67728 18.6C147.67728 16.943146 149.02042 15.6 150.67728 15.6C152.33412 15.6 153.67728 16.943146 153.67728 18.6Z" fill-rule="nonzero"/><path fill="#000000" fill-opacity="0.0" clip-path="url(#id_0)" d="M196.39546 18.6C196.39546 20.256855 195.0523 21.6 193.39546 21.6C191.7386 21.6 190.39546 20.256855 190.39546 18.6C190.39546 16.943146 191.7386 15.6 193.39546 15.6C195.0523 15.6 196.39546 16.943146 196.39546 18.6Z" fill-rule="nonzero"/><path fill="#000000" fill-opacity="0.0" clip-path="url(#id_0)" d="M239.11363 18.6C239.11363 20.256855 237.7705 21.6 236.11363 21.6C234.45679 21.6 233.11363 20.256855 233.11363 18.6C233.11363 16.943146 234.45679 15.6 236.11363 15.6C237.7705 15.6 239.11363 16.943146 239.11363 18.6Z" fill-rule="nonzero"/><path fill="#000000" fill-opacity="0.0" clip-path="url(#id_0)" d="M281.83182 18.6C281.83182 20.256855 280.48868 21.6 278.83182 21.6C277.17496 21.6 275.83182 20.256855 275.83182 18.6C275.83182 16.943146 277.17496 15.6 278.83182 15.6C280.48868 15.6 281.83182 16.943146 281.83182 18.6Z" fill-rule="nonzero"/><path fill="#000000" fill-opacity="0.0" clip-path="url(#id_0)" d="M324.55 18.6C324.55 20.256855 323.20685 21.6 321.55 21.6C319.89316 21.6 318.55 20.256855 318.55 18.6C318.55 16.943146 319.89316 15.6 321.55 15.6C323.20685 15.6 324.55 16.943146 324.55 18.6Z" fill-rule="nonzero"/><path fill="#000000" fill-opacity="0.0" clip-path="url(#id_0)" d="M367.2682 18.6C367.2682 20.256855 365.92505 21.6 364.2682 21.6C362.61133 21.6 361.2682 20.256855 361.2682 18.6C361.2682 16.943146 362.61133 15.6 364.2682 15.6C365.92505 15.6 367.2682 16.943146 367.2682 18.6Z" fill-rule="nonzero"/><path fill="#000000" fill-opacity="0.0" clip-path="url(#id_0)" d="M409.98636 18.6C409.98636 20.256855 408.64322 21.6 406.98636 21.6C405.3295 21.6 403.98636 20.256855 403.98636 18.6C403.98636 16.943146 405.3295 15.6 406.98636 15.6C408.64322 15.6 409.98636 16.943146 409.98636 18.6Z" fill-rule="nonzero"/><path fill="#000000" fill-opacity="0.0" clip-path="url(#id_0)" d="M452.70456 18.6C452.70456 20.256855 451.3614 21.6 449.70456 21.6C448.0477 21.6 446.70456 20.256855 446.70456 18.6C446.70456 16.943146 448.0477 15.6 449.70456 15.6C451.3614 15.6 452.70456 16.943146 452.70456 18.6Z" fill-rule="nonzero"/><path fill="#000000" fill-opacity="0.0" clip-path="url(#id_0)" d="M495.42273 18.6C495.42273 20.256855 494.0796 21.6 492.42273 21.6C490.76587 21.6 489.42273 20.256855 489.42273 18.6C489.42273 16.943146 490.76587 15.6 492.42273 15.6C494.0796 15.6 495.42273 16.943146 495.42273 18.6Z" fill-rule="nonzero"/><path fill="#000000" fill-opacity="0.0" clip-path="url(#id_0)" d="M538.1409 18.6C538.1409 20.256855 536.7978 21.6 535.1409 21.6C533.4841 21.6 532.1409 20.256855 532.1409 18.6C532.1409 16.943146 533.4841 15.6 535.1409 15.6C536.7978 15.6 538.1409 16.943146 538.1409 18.6Z" fill-rule="nonzero"/><path fill="#000000" fill-opacity="0.0" clip-path="url(#id_0)" d="M580.8591 18.6C580.8591 20.256855 579.5159 21.6 577.8591 21.6C576.2022 21.6 574.8591 20.256855 574.8591 18.6C574.8591 16.943146 576.2022 15.6 577.8591 15.6C579.5159 15.6 580.8591 16.943146 580.8591 18.6Z" fill-rule="nonzero"/><path fill="#000000" fill-opacity="0.0" clip-path="url(#id_0)" d="M623.5773 18.6C623.5773 20.256855 622.23413 21.6 620.5773 21.6C618.9204 21.6 617.5773 20.256855 617.5773 18.6C617.5773 16.943146 618.9204 15.6 620.5773 15.6C622.23413 15.6 623.5773 16.943146 623.5773 18.6Z" fill-rule="nonzero"/><path fill="#000000" fill-opacity="0.0" clip-path="url(#id_0)" d="M666.2955 77.63333C666.2955 79.290184 664.95233 80.63333 663.2955 80.63333C661.6386 80.63333 660.2955 79.290184 660.2955 77.63333C660.2955 75.97648 661.6386 74.63333 663.2955 74.63333C664.95233 74.63333 666.2955 75.97648 666.2955 77.63333Z" fill-rule="nonzero"/><path fill="#000000" fill-opacity="0.0" clip-path="url(#id_0)" d="M709.0136 18.6C709.0136 20.256855 707.6705 21.6 706.0136 21.6C704.3568 21.6 703.0136 20.256855 703.0136 18.6C703.0136 16.943146 704.3568 15.6 706.0136 15.6C707.6705 15.6 709.0136 16.943146 709.0136 18.6Z" fill-rule="nonzero"/><path fill="#000000" fill-opacity="0.0" clip-path="url(#id_0)" d="M751.7318 48.116665C751.7318 49.77352 750.3887 51.116665 748.7318 51.116665C747.07495 51.116665 745.7318 49.77352 745.7318 48.116665C745.7318 46.459812 747.07495 45.116665 748.7318 45.116665C750.3887 45.116665 751.7318 46.459812 751.7318 48.116665Z" fill-rule="nonzero"/><path fill="#000000" fill-opacity="0.0" clip-path="url(#id_0)" d="M794.45 54.02C794.45 55.676853 793.1069 57.02 791.45 57.02C789.79315 57.02 788.45 55.676853 788.45 54.02C788.45 52.363144 789.79315 51.02 791.45 51.02C793.1069 51.02 794.45 52.363144 794.45 54.02Z" fill-rule="nonzero"/><path fill="#000000" fill-opacity="0.0" clip-path="url(#id_0)" d="M837.16815 107.15C837.16815 108.806854 835.825 110.15 834.16815 110.15C832.51135 110.15 831.16815 108.806854 831.16815 107.15C831.16815 105.49315 832.51135 104.15 834.16815 104.15C835.825 104.15 837.16815 105.49315 837.16815 107.15Z" fill-rule="nonzero"/><path fill="#000000" fill-opacity="0.0" clip-path="url(#id_0)" d="M879.88635 116.988884C879.88635 118.645744 878.5432 119.988884 876.88635 119.988884C875.2295 119.988884 873.88635 118.645744 873.88635 116.988884C873.88635 115.33203 875.2295 113.988884 876.88635 113.988884C878.5432 113.988884 879.88635 115.33203 879.88635 116.988884Z" fill-rule="nonzero"/><path fill="#000000" fill-opacity="0.0" clip-path="url(#id_0)" d="M922.60455 97.31111C922.60455 98.967964 921.2614 100.31111 919.60455 100.31111C917.9477 100.31111 916.60455 98.967964 916.60455 97.31111C916.60455 95.65425 917.9477 94.31111 919.60455 94.31111C921.2614 94.31111 922.60455 95.65425 922.60455 97.31111Z" fill-rule="nonzero"/><path fill="#000000" fill-opacity="0.0" clip-path="url(#id_0)" d="M965.32275 77.63333C965.32275 79.290184 963.97955 80.63333 962.32275 80.63333C960.6659 80.63333 959.32275 79.290184 959.32275 77.63333C959.32275 75.97648 960.6659 74.63333 962.32275 74.63333C963.97955 74.63333 965.32275 75.97648 965.32275 77.63333Z" fill-rule="nonzero"/><path fill="#000000" fill-opacity="0.0" clip-path="url(#id_0)" d="M1008.0409 97.31111C1008.0409 98.967964 1006.69775 100.31111 1005.0409 100.31111C1003.38403 100.31111 1002.0409 98.967964 1002.0409 97.31111C1002.0409 95.65425 1003.38403 94.31111 1005.0409 94.31111C1006.69775 94.31111 1008.0409 95.65425 1008.0409 97.31111Z" fill-rule="nonzero"/><path fill="#000000" d="M494.39062 187.66667L494.39062 181.8073L492.96875 181.8073L492.96875 180.65105L494.39062 180.65105L494.39062 174.77605L498.84375 174.77605Q500.32812 174.77605 501.125 174.96355Q502.23438 175.21355 503.01562 175.88542Q504.03125 176.7448 504.53125 178.08855Q505.04688 179.4323 505.04688 181.15105Q505.04688 183.1198 504.42188 184.54167Q503.79688 185.96355 502.92188 186.60417Q502.04688 187.2448 500.92188 187.51042Q500.29688 187.66667 499.03125 187.66667L494.39062 187.66667ZM496.09375 186.15105L498.84375 186.15105Q500.125 186.15105 500.84375 185.91667Q501.5625 185.66667 501.98438 185.2448Q502.59375 184.63542 502.9375 183.6198Q503.28125 182.60417 503.28125 181.13542Q503.28125 179.6198 502.9375 178.71355Q502.60938 177.8073 502.0625 177.27605Q501.51562 176.72917 500.84375 176.52605Q500.1875 176.3073 498.79688 176.3073L496.09375 176.3073L496.09375 180.65105L499.64062 180.65105L499.64062 181.8073L496.09375 181.8073L496.09375 186.15105ZM508.21875 182.9948Q508.21875 184.72917 509.0 185.6823Q509.75 186.57292 510.96875 186.57292Q512.2031 186.57292 512.9375 185.6823Q513.71875 184.72917 513.71875 182.94792Q513.71875 181.26042 512.9219 180.32292Q512.1875 179.4323 510.96875 179.4323Q509.73438 179.4323 509.0 180.32292Q508.21875 181.26042 508.21875 182.9948ZM515.5469 179.94792L515.5469 178.10417L517.25 178.10417L517.25 179.5573Q517.25 180.65105 516.9219 181.22917Q516.4844 181.97917 515.34375 182.6198Q515.34375 182.72917 515.34375 182.8698Q515.34375 186.13542 513.2344 187.3073Q512.2031 187.88542 510.96875 187.88542Q508.96875 187.88542 507.79688 186.6198Q506.59375 185.32292 506.59375 182.9948Q506.59375 180.40105 508.04688 179.15105Q509.25 178.1198 510.96875 178.1198Q512.90625 178.1198 514.125 179.38542Q515.0469 180.33855 515.2656 181.85417Q515.875 181.47917 516.125 181.08855Q516.3906 180.6823 516.375 179.94792L515.5469 179.94792ZM519.1875 187.66667L519.1875 178.33855L520.6094 178.33855L520.6094 179.66667Q521.6406 178.1198 523.5781 178.1198Q524.4219 178.1198 525.125 178.4323Q525.84375 178.72917 526.1875 179.22917Q526.5469 179.71355 526.6875 180.38542Q526.7656 180.82292 526.7656 181.9323L526.7656 187.66667L525.1875 187.66667L525.1875 181.9948Q525.1875 181.02605 525.0 180.54167Q524.8281 180.0573 524.34375 179.77605Q523.875 179.4948 523.25 179.4948Q522.2344 179.4948 521.5 180.13542Q520.7656 180.77605 520.7656 182.57292L520.7656 187.66667L519.1875 187.66667ZM536.78125 187.66667L533.2344 178.33855L534.90625 178.33855L536.90625 183.91667Q537.2344 184.82292 537.5 185.8073Q537.71875 185.0573 538.09375 184.02605L540.15625 178.33855L541.7969 178.33855L538.25 187.66667L536.78125 187.66667ZM543.2031 176.60417L543.2031 174.77605L544.78125 174.77605L544.78125 176.60417L543.2031 176.60417ZM543.2031 187.66667L543.2031 178.33855L544.78125 178.33855L544.78125 187.66667L543.2031 187.66667ZM543.09375 190.52605L543.09375 188.72917L544.8906 188.72917L544.8906 190.52605L543.09375 190.52605ZM552.2031 187.66667L552.2031 174.77605L553.78125 174.77605L553.78125 182.13542L557.5156 178.33855L559.5625 178.33855L556.0 181.79167L559.9375 187.66667L557.9844 187.66667L554.8906 182.90105L553.78125 183.96355L553.78125 187.66667L552.2031 187.66667ZM561.2031 176.60417L561.2031 174.77605L562.78125 174.77605L562.78125 176.60417L561.2031 176.60417ZM561.2031 187.66667L561.2031 178.33855L562.78125 178.33855L562.78125 187.66667L561.2031 187.66667ZM571.5781 184.66667L573.21875 184.8698Q572.8281 186.29167 571.78125 187.08855Q570.7344 187.88542 569.1094 187.88542Q567.0625 187.88542 565.8594 186.6198Q564.65625 185.35417 564.65625 183.07292Q564.65625 180.72917 565.8594 179.4323Q567.0781 178.1198 569.0156 178.1198Q570.8906 178.1198 572.0781 179.40105Q573.2656 180.66667 573.2656 182.97917Q573.2656 183.1198 573.25 183.40105L566.2969 183.40105Q566.375 184.94792 567.15625 185.76042Q567.9531 186.57292 569.1094 186.57292Q569.9844 186.57292 570.59375 186.1198Q571.21875 185.66667 571.5781 184.66667ZM566.375 182.10417L571.59375 182.10417Q571.4844 180.9323 571.0 180.33855Q570.2344 179.41667 569.03125 179.41667Q567.9531 179.41667 567.2031 180.15105Q566.46875 180.88542 566.375 182.10417ZM568.9844 175.6823L567.9844 177.16667L566.1719 177.16667L568.0781 174.71355L569.7656 174.71355L571.7344 177.16667L569.9375 177.16667L568.9844 175.6823ZM568.46875 173.38542Q568.96875 173.33855 569.1094 173.29167Q569.5781 173.1823 569.59375 172.9323Q569.59375 172.72917 569.34375 172.58855Q568.96875 172.38542 568.1719 172.38542Q567.90625 172.38542 567.34375 172.4323L567.25 171.60417Q567.59375 171.52605 568.5156 171.54167Q569.59375 171.54167 570.28125 171.88542Q571.03125 172.26042 571.0625 172.85417Q571.09375 173.72917 569.4531 173.9323L569.4531 174.3698L568.46875 174.3698L568.46875 173.38542ZM575.1875 187.66667L575.1875 178.33855L576.6094 178.33855L576.6094 179.63542Q577.0469 178.96355 577.7656 178.54167Q578.5 178.1198 579.4375 178.1198Q580.46875 178.1198 581.125 178.5573Q581.7969 178.97917 582.0625 179.76042Q583.1719 178.1198 584.9531 178.1198Q586.34375 178.1198 587.0781 178.90105Q587.8281 179.66667 587.8281 181.26042L587.8281 187.66667L586.2656 187.66667L586.2656 181.79167Q586.2656 180.83855 586.1094 180.41667Q585.9531 179.9948 585.5469 179.7448Q585.1406 179.4948 584.59375 179.4948Q583.6094 179.4948 582.9531 180.15105Q582.3125 180.8073 582.3125 182.2448L582.3125 187.66667L580.7344 187.66667L580.7344 181.60417Q580.7344 180.54167 580.34375 180.02605Q579.9531 179.4948 579.0781 179.4948Q578.40625 179.4948 577.84375 179.85417Q577.28125 180.19792 577.0156 180.8698Q576.7656 181.54167 576.7656 182.82292L576.7656 187.66667L575.1875 187.66667ZM597.6406 186.2448L597.875 187.65105Q597.2031 187.79167 596.6719 187.79167Q595.8125 187.79167 595.3281 187.52605Q594.8594 187.2448 594.6719 186.8073Q594.4844 186.35417 594.4844 184.9323L594.4844 179.5573L593.3125 179.5573L593.3125 178.33855L594.4844 178.33855L594.4844 176.02605L596.0469 175.07292L596.0469 178.33855L597.6406 178.33855L597.6406 179.5573L596.0469 179.5573L596.0469 185.02605Q596.0469 185.69792 596.125 185.90105Q596.21875 186.08855 596.40625 186.19792Q596.59375 186.3073 596.9531 186.3073Q597.2031 186.3073 597.6406 186.2448ZM599.1875 187.66667L599.1875 174.77605L600.7656 174.77605L600.7656 179.40105Q601.875 178.1198 603.5625 178.1198Q604.59375 178.1198 605.3594 178.52605Q606.125 178.9323 606.4531 179.66667Q606.7969 180.38542 606.7969 181.7448L606.7969 187.66667L605.2031 187.66667L605.2031 181.7448Q605.2031 180.5573 604.6875 180.02605Q604.1719 179.47917 603.2344 179.47917Q602.53125 179.47917 601.90625 179.85417Q601.2969 180.21355 601.03125 180.83855Q600.7656 181.46355 600.7656 182.5573L600.7656 187.66667L599.1875 187.66667ZM617.8125 180.16667L617.8125 178.33855L619.5 178.33855L619.5 179.77605Q619.5 181.16667 619.1875 181.71355Q618.375 183.1198 616.71875 183.29167L616.71875 187.66667L615.2969 187.66667L615.2969 186.29167Q614.21875 187.88542 612.34375 187.88542Q611.53125 187.88542 610.8125 187.57292Q610.09375 187.26042 609.7344 186.77605Q609.3906 186.29167 609.25 185.58855Q609.15625 185.1198 609.15625 184.1198L609.15625 178.33855L610.7344 178.33855L610.7344 183.51042Q610.7344 184.76042 610.8281 185.1823Q611.1406 186.51042 612.65625 186.51042Q613.3906 186.51042 614.0 186.15105Q614.625 185.77605 614.875 185.15105Q615.1406 184.52605 615.1406 183.33855L615.1406 178.33855L616.71875 178.33855L616.71875 182.6198Q617.8281 182.4323 618.3906 181.57292Q618.6406 181.21355 618.6406 180.16667L617.8125 180.16667ZM612.4375 176.1198Q612.9375 176.0573 613.0781 176.02605Q613.5469 175.8698 613.5469 175.52605Q613.5625 175.32292 613.3125 175.1823Q612.9375 174.97917 612.1406 174.97917Q611.8594 174.97917 611.3125 175.02605L611.21875 174.1198Q611.5625 174.0573 612.4844 174.0573Q613.5625 174.07292 614.25 174.41667Q615.0 174.77605 615.0156 175.44792Q615.0625 176.52605 613.4219 176.72917L613.4219 177.16667L612.4375 177.16667L612.4375 176.1198Z" fill-rule="nonzero"/><path fill="#000000" d="M28.600004 135.7427L22.74063 135.7427L22.74063 137.16458L21.58438 137.16458L21.58438 135.7427L15.70938 135.7427L15.70938 131.28958Q15.70938 129.8052 15.89688 129.00833Q16.14688 127.89896 16.818754 127.11771Q17.67813 126.10208 19.02188 125.60208Q20.36563 125.08646 22.08438 125.08646Q24.05313 125.08646 25.475004 125.71146Q26.89688 126.33646 27.537504 127.21146Q28.17813 128.08646 28.443754 129.21146Q28.600004 129.83646 28.600004 131.10208L28.600004 135.7427ZM27.08438 134.03958L27.08438 131.28958Q27.08438 130.00833 26.850004 129.28958Q26.600004 128.57083 26.17813 128.14896Q25.568754 127.53958 24.55313 127.19583Q23.537504 126.85208 22.068754 126.85208Q20.55313 126.85208 19.64688 127.19583Q18.74063 127.52396 18.20938 128.07083Q17.662504 128.6177 17.45938 129.28958Q17.24063 129.94583 17.24063 131.33646L17.24063 134.03958L21.58438 134.03958L21.58438 130.4927L22.74063 130.4927L22.74063 134.03958L27.08438 134.03958ZM23.92813 123.53958Q21.33438 123.53958 20.08438 122.086464Q19.05313 120.88334 19.05313 119.16459Q19.05313 117.22709 20.318754 116.00834Q21.58438 114.78959 23.80313 114.78959Q25.600004 114.78959 26.631254 115.336464Q27.662504 115.867714 28.24063 116.898964Q28.818754 117.930214 28.818754 119.16459Q28.818754 121.117714 27.568754 122.336464Q26.30313 123.53958 23.92813 123.53958ZM23.92813 121.91459Q25.725004 121.91459 26.61563 121.13334Q27.506254 120.35209 27.506254 119.16459Q27.506254 117.97709 26.61563 117.19584Q25.70938 116.41459 23.881254 116.41459Q22.14688 116.41459 21.256254 117.211464Q20.36563 117.992714 20.36563 119.16459Q20.36563 120.35209 21.256254 121.13334Q22.14688 121.91459 23.92813 121.91459ZM16.61563 119.13334L18.100004 120.13334L18.100004 121.94584L15.64688 120.03959L15.64688 118.35209L18.100004 116.38334L18.100004 118.180214L16.61563 119.13334ZM31.45938 120.13334L29.662504 120.13334L29.662504 118.336464L31.45938 118.336464L31.45938 120.13334ZM32.17813 107.94584L19.27188 107.94584L19.27188 106.50834L20.475004 106.50834Q19.77188 105.992714 19.412504 105.35209Q19.05313 104.711464 19.05313 103.805214Q19.05313 102.60209 19.67813 101.69584Q20.287504 100.773964 21.412504 100.305214Q22.52188 99.836464 23.86563 99.836464Q25.287504 99.836464 26.443754 100.35209Q27.58438 100.867714 28.20938 101.85209Q28.818754 102.836464 28.818754 103.91459Q28.818754 104.69584 28.49063 105.336464Q28.14688 105.961464 27.631254 106.367714L32.17813 106.367714L32.17813 107.94584ZM23.99063 106.50834Q25.787504 106.50834 26.64688 105.78959Q27.506254 105.055214 27.506254 104.023964Q27.506254 102.961464 26.61563 102.211464Q25.725004 101.461464 23.850004 101.461464Q22.068754 101.461464 21.17813 102.19584Q20.287504 102.930214 20.287504 103.94584Q20.287504 104.961464 21.24063 105.742714Q22.17813 106.50834 23.99063 106.50834ZM28.600004 97.94584L15.70938 97.94584L15.70938 96.367714L20.33438 96.367714Q19.05313 95.25834 19.05313 93.57084Q19.05313 92.53959 19.45938 91.773964Q19.86563 91.00834 20.600004 90.680214Q21.318754 90.336464 22.67813 90.336464L28.600004 90.336464L28.600004 91.930214L22.67813 91.930214Q21.49063 91.930214 20.95938 92.44584Q20.412504 92.961464 20.412504 93.898964Q20.412504 94.60209 20.787504 95.22709Q21.14688 95.836464 21.77188 96.10209Q22.39688 96.367714 23.49063 96.367714L28.600004 96.367714L28.600004 97.94584ZM28.600004 81.836464L27.225004 81.836464Q28.818754 82.91459 28.818754 84.78959Q28.818754 85.617714 28.506254 86.336464Q28.17813 87.055214 27.70938 87.398964Q27.225004 87.742714 26.52188 87.88334Q26.05313 87.97709 25.05313 87.97709L19.27188 87.97709L19.27188 86.398964L24.443754 86.398964Q25.67813 86.398964 26.11563 86.305214Q26.74063 86.148964 27.100004 85.66459Q27.443754 85.180214 27.443754 84.47709Q27.443754 83.75834 27.08438 83.13334Q26.725004 82.50834 26.100004 82.25834Q25.45938 81.992714 24.27188 81.992714L19.27188 81.992714L19.27188 80.41459L28.600004 80.41459L28.600004 81.836464ZM17.05313 84.69584Q16.99063 84.19584 16.95938 84.055214Q16.80313 83.586464 16.45938 83.586464Q16.256254 83.57084 16.11563 83.82084Q15.912505 84.19584 15.912505 84.992714Q15.912505 85.273964 15.95938 85.82084L15.05313 85.91459Q14.99063 85.57084 14.99063 84.648964Q15.006255 83.57084 15.350005 82.88334Q15.70938 82.13334 16.381254 82.117714Q17.45938 82.07084 17.662504 83.711464L18.100004 83.711464L18.100004 84.69584L17.05313 84.69584ZM24.08438 63.55521L24.506254 61.852085Q26.61563 62.383335 27.725004 63.77396Q28.818754 65.16459 28.818754 67.180214Q28.818754 69.25834 27.975004 70.57084Q27.11563 71.867714 25.52188 72.555214Q23.912504 73.242714 22.05313 73.242714Q20.05313 73.242714 18.55313 72.47709Q17.05313 71.69584 16.27188 70.273964Q15.49063 68.85209 15.49063 67.148964Q15.49063 65.22709 16.475004 63.914585Q17.45938 62.58646 19.24063 62.070835L19.64688 63.74271Q18.24063 64.19584 17.600004 65.055214Q16.95938 65.898964 16.95938 67.19584Q16.95938 68.680214 17.67813 69.680214Q18.381254 70.66459 19.58438 71.07084Q20.77188 71.47709 22.05313 71.47709Q23.693754 71.47709 24.92813 71.00834Q26.14688 70.523964 26.756254 69.50834Q27.36563 68.492714 27.36563 67.32084Q27.36563 65.88334 26.537504 64.898964Q25.70938 63.89896 24.08438 63.55521ZM25.193754 60.383335L24.99063 58.789585Q26.33438 58.52396 26.92813 57.86771Q27.52188 57.21146 27.52188 56.27396Q27.52188 55.14896 26.756254 54.383335Q25.975004 53.61771 24.83438 53.61771Q23.74063 53.61771 23.037504 54.33646Q22.318754 55.039585 22.318754 56.133335Q22.318754 56.58646 22.506254 57.258335L21.11563 57.08646Q21.131254 56.93021 21.131254 56.820835Q21.131254 55.820835 20.600004 55.008335Q20.068754 54.195835 18.975004 54.195835Q18.100004 54.195835 17.537504 54.789585Q16.95938 55.383335 16.95938 56.30521Q16.95938 57.227085 17.537504 57.852085Q18.11563 58.46146 19.287504 58.633335L19.006254 60.21146Q17.412504 59.93021 16.537504 58.89896Q15.662505 57.86771 15.662505 56.33646Q15.662505 55.289585 16.11563 54.39896Q16.568754 53.508335 17.350004 53.039585Q18.131254 52.570835 19.006254 52.570835Q19.850004 52.570835 20.537504 53.02396Q21.20938 53.46146 21.61563 54.352085Q21.881254 53.21146 22.725004 52.58646Q23.55313 51.945835 24.787504 51.945835Q26.475004 51.945835 27.662504 53.18021Q28.83438 54.39896 28.83438 56.27396Q28.83438 57.977085 27.818754 59.102085Q26.80313 60.21146 25.193754 60.383335ZM32.381256 41.93021Q30.74063 43.227085 28.52188 44.133335Q26.30313 45.039585 23.92813 45.039585Q21.83438 45.039585 19.92813 44.36771Q17.693754 43.570835 15.49063 41.93021L15.49063 40.789585Q17.318754 41.852085 18.100004 42.195835Q19.318754 42.727085 20.631254 43.039585Q22.287504 43.414585 23.943754 43.414585Q28.162504 43.414585 32.381256 40.789585L32.381256 41.93021ZM18.80313 39.08646Q17.42813 39.08646 16.45938 38.39896Q15.49063 37.695835 15.49063 36.383335Q15.49063 35.164585 16.36563 34.36771Q17.225004 33.570835 18.912504 33.570835Q20.537504 33.570835 21.42813 34.383335Q22.30313 35.18021 22.30313 36.36771Q22.30313 37.52396 21.443754 38.30521Q20.568754 39.08646 18.80313 39.08646ZM16.58438 36.33646Q16.58438 36.93021 17.100004 37.320835Q17.600004 37.71146 18.95938 37.71146Q20.20938 37.71146 20.70938 37.320835Q21.20938 36.914585 21.20938 36.33646Q21.20938 35.74271 20.70938 35.352085Q20.193754 34.96146 18.850004 34.96146Q17.600004 34.96146 17.100004 35.352085Q16.58438 35.74271 16.58438 36.33646ZM29.068754 36.320835L15.49063 29.27396L15.49063 27.99271L29.068754 35.02396L29.068754 36.320835ZM25.568754 30.758335Q24.193754 30.758335 23.225004 30.070835Q22.256254 29.36771 22.256254 28.039585Q22.256254 26.820835 23.131254 26.039585Q23.99063 25.24271 25.67813 25.24271Q27.30313 25.24271 28.193754 26.039585Q29.068754 26.83646 29.068754 28.02396Q29.068754 29.195835 28.193754 29.977085Q27.318754 30.758335 25.568754 30.758335ZM23.350004 27.99271Q23.350004 28.58646 23.86563 28.977085Q24.36563 29.36771 25.74063 29.36771Q26.95938 29.36771 27.475004 28.977085Q27.99063 28.58646 27.99063 28.008335Q27.99063 27.39896 27.475004 27.008335Q26.95938 26.61771 25.61563 26.61771Q24.36563 26.61771 23.86563 27.008335Q23.350004 27.39896 23.350004 27.99271ZM32.381256 21.914585L32.381256 23.039585Q28.162504 20.414585 23.943754 20.414585Q22.287504 20.414585 20.662504 20.789585Q19.350004 21.08646 18.131254 21.633335Q17.33438 21.977085 15.49063 23.039585L15.49063 21.914585Q17.693754 20.258335 19.92813 19.46146Q21.83438 18.789585 23.92813 18.789585Q26.30313 18.789585 28.52188 19.695835Q30.74063 20.602085 32.381256 21.914585Z" fill-rule="nonzero"/><path fill="#000000" d="M74.1 136.4323Q74.1 134.90105 74.4125 133.97917Q74.725 133.04167 75.33437 132.54167Q75.95937 132.04167 76.89687 132.04167Q77.58437 132.04167 78.1 132.32292Q78.63125 132.60417 78.975 133.13542Q79.31875 133.65105 79.50625 134.40105Q79.69375 135.15105 79.69375 136.4323Q79.69375 137.94792 79.38125 138.8698Q79.08437 139.79167 78.45937 140.3073Q77.85 140.8073 76.89687 140.8073Q75.6625 140.8073 74.94375 139.91667Q74.1 138.85417 74.1 136.4323ZM75.17812 136.4323Q75.17812 138.54167 75.67812 139.2448Q76.17812 139.94792 76.89687 139.94792Q77.63125 139.94792 78.11562 139.2448Q78.61562 138.54167 78.61562 136.4323Q78.61562 134.3073 78.11562 133.6198Q77.63125 132.91667 76.88125 132.91667Q76.1625 132.91667 75.725 133.52605Q75.17812 134.3073 75.17812 136.4323Z" fill-rule="nonzero"/><path fill="#000000" d="M72.64687 110.13438L72.64687 111.15L66.95937 111.15Q66.95937 110.775 67.08437 110.41563Q67.30312 109.8375 67.77187 109.275Q68.25625 108.7125 69.1625 107.97813Q70.56875 106.82188 71.05312 106.15Q71.55312 105.47813 71.55312 104.88438Q71.55312 104.25938 71.1 103.8375Q70.64687 103.4 69.92812 103.4Q69.1625 103.4 68.70937 103.85313Q68.25625 104.30625 68.24062 105.11875L67.1625 105.00938Q67.27187 103.79063 67.99062 103.16563Q68.725 102.525 69.95937 102.525Q71.19375 102.525 71.9125 103.2125Q72.63125 103.9 72.63125 104.91563Q72.63125 105.43125 72.4125 105.93125Q72.20937 106.41563 71.70937 106.97813Q71.225 107.525 70.1 108.47813Q69.14687 109.275 68.86562 109.57188Q68.6 109.85313 68.42812 110.13438L72.64687 110.13438ZM74.1 108.9L75.20937 108.80625Q75.33437 109.61875 75.77187 110.025Q76.225 110.43125 76.86562 110.43125Q77.61562 110.43125 78.14687 109.85313Q78.67812 109.275 78.67812 108.3375Q78.67812 107.43125 78.1625 106.91563Q77.6625 106.38438 76.83437 106.38438Q76.33437 106.38438 75.9125 106.61875Q75.50625 106.85313 75.27187 107.2125L74.2875 107.0875L75.11562 102.68125L79.39687 102.68125L79.39687 103.68125L75.95937 103.68125L75.50625 105.99375Q76.27187 105.44688 77.11562 105.44688Q78.24062 105.44688 79.00625 106.22813Q79.7875 107.00938 79.7875 108.24375Q79.7875 109.4 79.11562 110.25938Q78.2875 111.29063 76.86562 111.29063Q75.69375 111.29063 74.94375 110.63438Q74.20937 109.97813 74.1 108.9Z" fill-rule="nonzero"/><path fill="#000000" d="M67.1 79.38333L68.20937 79.28958Q68.33437 80.10208 68.77187 80.50833Q69.225 80.91458 69.86562 80.91458Q70.61562 80.91458 71.14687 80.33646Q71.67812 79.75833 71.67812 78.82083Q71.67812 77.91458 71.1625 77.39896Q70.6625 76.86771 69.83437 76.86771Q69.33437 76.86771 68.9125 77.10208Q68.50625 77.33646 68.27187 77.69583L67.2875 77.57083L68.11562 73.16458L72.39687 73.16458L72.39687 74.16458L68.95937 74.16458L68.50625 76.47708Q69.27187 75.93021 70.11562 75.93021Q71.24062 75.93021 72.00625 76.71146Q72.7875 77.49271 72.7875 78.72708Q72.7875 79.88333 72.11562 80.74271Q71.2875 81.77396 69.86562 81.77396Q68.69375 81.77396 67.94375 81.11771Q67.20937 80.46146 67.1 79.38333ZM74.1 77.39896Q74.1 75.86771 74.4125 74.94583Q74.725 74.00833 75.33437 73.50833Q75.95937 73.00833 76.89687 73.00833Q77.58437 73.00833 78.1 73.28958Q78.63125 73.57083 78.975 74.10208Q79.31875 74.61771 79.50625 75.36771Q79.69375 76.11771 79.69375 77.39896Q79.69375 78.91458 79.38125 79.83646Q79.08437 80.75833 78.45937 81.27396Q77.85 81.77396 76.89687 81.77396Q75.6625 81.77396 74.94375 80.88333Q74.1 79.82083 74.1 77.39896ZM75.17812 77.39896Q75.17812 79.50833 75.67812 80.21146Q76.17812 80.91458 76.89687 80.91458Q77.63125 80.91458 78.11562 80.21146Q78.61562 79.50833 78.61562 77.39896Q78.61562 75.27396 78.11562 74.58646Q77.63125 73.88333 76.88125 73.88333Q76.1625 73.88333 75.725 74.49271Q75.17812 75.27396 75.17812 77.39896Z" fill-rule="nonzero"/><path fill="#000000" d="M67.1625 44.647915L67.1625 43.63229L72.725 43.63229L72.725 44.460415Q71.9125 45.335415 71.1 46.78854Q70.30312 48.22604 69.86562 49.75729Q69.5375 50.835415 69.45937 52.116665L68.36562 52.116665Q68.38125 51.10104 68.75625 49.66354Q69.14687 48.22604 69.85 46.897915Q70.56875 45.56979 71.38125 44.647915L67.1625 44.647915ZM74.1 49.866665L75.20937 49.772915Q75.33437 50.585415 75.77187 50.991665Q76.225 51.397915 76.86562 51.397915Q77.61562 51.397915 78.14687 50.81979Q78.67812 50.241665 78.67812 49.304165Q78.67812 48.397915 78.1625 47.88229Q77.6625 47.35104 76.83437 47.35104Q76.33437 47.35104 75.9125 47.585415Q75.50625 47.81979 75.27187 48.179165L74.2875 48.054165L75.11562 43.647915L79.39687 43.647915L79.39687 44.647915L75.95937 44.647915L75.50625 46.960415Q76.27187 46.41354 77.11562 46.41354Q78.24062 46.41354 79.00625 47.19479Q79.7875 47.97604 79.7875 49.210415Q79.7875 50.366665 79.11562 51.22604Q78.2875 52.25729 76.86562 52.25729Q75.69375 52.25729 74.94375 51.60104Q74.20937 50.94479 74.1 49.866665Z" fill-rule="nonzero"/><path fill="#000000" d="M64.06875 22.6L63.021873 22.6L63.021873 15.88125Q62.63125 16.240625 62.00625 16.615625Q61.396873 16.975 60.9125 17.146875L60.9125 16.13125Q61.7875 15.709375 62.44375 15.13125Q63.115623 14.5375 63.396873 13.975L64.06875 13.975L64.06875 22.6ZM67.1 18.365625Q67.1 16.834375 67.4125 15.9125Q67.725 14.975 68.33437 14.475Q68.95937 13.975 69.89687 13.975Q70.58437 13.975 71.1 14.25625Q71.63125 14.5375 71.975 15.06875Q72.31875 15.584375 72.50625 16.334375Q72.69375 17.084375 72.69375 18.365625Q72.69375 19.88125 72.38125 20.803125Q72.08437 21.725 71.45937 22.240625Q70.85 22.740625 69.89687 22.740625Q68.6625 22.740625 67.94375 21.85Q67.1 20.7875 67.1 18.365625ZM68.17812 18.365625Q68.17812 20.475 68.67812 21.178125Q69.17812 21.88125 69.89687 21.88125Q70.63125 21.88125 71.11562 21.178125Q71.61562 20.475 71.61562 18.365625Q71.61562 16.240625 71.11562 15.553125Q70.63125 14.85 69.88125 14.85Q69.1625 14.85 68.725 15.459375Q68.17812 16.240625 68.17812 18.365625ZM74.1 18.365625Q74.1 16.834375 74.4125 15.9125Q74.725 14.975 75.33437 14.475Q75.95937 13.975 76.89687 13.975Q77.58437 13.975 78.1 14.25625Q78.63125 14.5375 78.975 15.06875Q79.31875 15.584375 79.50625 16.334375Q79.69375 17.084375 79.69375 18.365625Q79.69375 19.88125 79.38125 20.803125Q79.08437 21.725 78.45937 22.240625Q77.85 22.740625 76.89687 22.740625Q75.6625 22.740625 74.94375 21.85Q74.1 20.7875 74.1 18.365625ZM75.17812 18.365625Q75.17812 20.475 75.67812 21.178125Q76.17812 21.88125 76.89687 21.88125Q77.63125 21.88125 78.11562 21.178125Q78.61562 20.475 78.61562 18.365625Q78.61562 16.240625 78.11562 15.553125Q77.63125 14.85 76.88125 14.85Q76.1625 14.85 75.725 15.459375Q75.17812 16.240625 75.17812 18.365625Z" fill-rule="nonzero"/><path stroke="#ff0000" stroke-width="4.0" stroke-linecap="butt" stroke-dasharray="13.0,9.0" d="M280.0 209.9L315.0 209.9" fill-rule="nonzero"/><path fill="#1a1a1a" d="M324.39062 216.4L324.39062 203.50937L329.25 203.50937Q330.53125 203.50937 331.20312 203.63437Q332.15625 203.79062 332.79688 204.24374Q333.4375 204.68124 333.82812 205.49374Q334.21875 206.29062 334.21875 207.24374Q334.21875 208.88437 333.17188 210.025Q332.125 211.16562 329.40625 211.16562L326.09375 211.16562L326.09375 216.4L324.39062 216.4ZM326.09375 209.63437L329.42188 209.63437Q331.07812 209.63437 331.76562 209.025Q332.46875 208.41562 332.46875 207.29062Q332.46875 206.47812 332.0625 205.91562Q331.65625 205.3375 330.98438 205.15Q330.54688 205.04062 329.39062 205.04062L326.09375 205.04062L326.09375 209.63437ZM336.1875 216.4L336.1875 203.50937L337.76562 203.50937L337.76562 208.13437Q338.875 206.85312 340.5625 206.85312Q341.59375 206.85312 342.35938 207.25937Q343.125 207.66562 343.45312 208.4Q343.79688 209.11874 343.79688 210.47812L343.79688 216.4L342.20312 216.4L342.20312 210.47812Q342.20312 209.29062 341.6875 208.75937Q341.17188 208.2125 340.23438 208.2125Q339.53125 208.2125 338.90625 208.5875Q338.29688 208.94687 338.03125 209.57187Q337.76562 210.19687 337.76562 211.29062L337.76562 216.4L336.1875 216.4ZM354.8125 208.9L354.8125 207.07187L356.5 207.07187L356.5 208.50937Q356.5 209.9 356.1875 210.44687Q355.375 211.85312 353.71875 212.025L353.71875 216.4L352.29688 216.4L352.29688 215.025Q351.21875 216.61874 349.34375 216.61874Q348.53125 216.61874 347.8125 216.30624Q347.09375 215.99374 346.73438 215.50937Q346.39062 215.025 346.25 214.32187Q346.15625 213.85312 346.15625 212.85312L346.15625 207.07187L347.73438 207.07187L347.73438 212.24374Q347.73438 213.49374 347.82812 213.91562Q348.14062 215.24374 349.65625 215.24374Q350.39062 215.24374 351.0 214.88437Q351.625 214.50937 351.875 213.88437Q352.14062 213.25937 352.14062 212.07187L352.14062 207.07187L353.71875 207.07187L353.71875 211.35312Q354.82812 211.16562 355.39062 210.30624Q355.64062 209.94687 355.64062 208.9L354.8125 208.9ZM359.21875 211.72812Q359.21875 213.4625 360.0 214.41562Q360.75 215.30624 361.96875 215.30624Q363.20312 215.30624 363.9375 214.41562Q364.71875 213.4625 364.71875 211.68124Q364.71875 209.99374 363.92188 209.05624Q363.1875 208.16562 361.96875 208.16562Q360.73438 208.16562 360.0 209.05624Q359.21875 209.99374 359.21875 211.72812ZM366.54688 208.68124L366.54688 206.8375L368.25 206.8375L368.25 208.29062Q368.25 209.38437 367.92188 209.9625Q367.48438 210.7125 366.34375 211.35312Q366.34375 211.4625 366.34375 211.60312Q366.34375 214.86874 364.23438 216.04062Q363.20312 216.61874 361.96875 216.61874Q359.96875 216.61874 358.79688 215.35312Q357.59375 214.05624 357.59375 211.72812Q357.59375 209.13437 359.04688 207.88437Q360.25 206.85312 361.96875 206.85312Q363.90625 206.85312 365.125 208.11874Q366.04688 209.07187 366.26562 210.5875Q366.875 210.2125 367.125 209.82187Q367.39062 209.41562 367.375 208.68124L366.54688 208.68124ZM370.1875 216.4L370.1875 207.07187L371.60938 207.07187L371.60938 208.4Q372.64062 206.85312 374.57812 206.85312Q375.42188 206.85312 376.125 207.16562Q376.84375 207.4625 377.1875 207.9625Q377.54688 208.44687 377.6875 209.11874Q377.76562 209.55624 377.76562 210.66562L377.76562 216.4L376.1875 216.4L376.1875 210.72812Q376.1875 209.75937 376.0 209.275Q375.82812 208.79062 375.34375 208.50937Q374.875 208.22812 374.25 208.22812Q373.23438 208.22812 372.5 208.86874Q371.76562 209.50937 371.76562 211.30624L371.76562 216.4L370.1875 216.4ZM379.89062 217.18124L381.4375 217.4Q381.53125 218.11874 381.96875 218.44687Q382.5625 218.88437 383.57812 218.88437Q384.67188 218.88437 385.26562 218.43124Q385.875 217.99374 386.07812 217.2125Q386.20312 216.72812 386.20312 215.18124Q385.15625 216.4 383.60938 216.4Q381.6875 216.4 380.625 215.00937Q379.57812 213.61874 379.57812 211.68124Q379.57812 210.3375 380.0625 209.2125Q380.54688 208.0875 381.46875 207.47812Q382.39062 206.85312 383.625 206.85312Q385.28125 206.85312 386.34375 208.19687L386.34375 207.07187L387.8125 207.07187L387.8125 215.13437Q387.8125 217.32187 387.35938 218.22812Q386.92188 219.13437 385.95312 219.65Q385.0 220.18124 383.59375 220.18124Q381.92188 220.18124 380.89062 219.43124Q379.85938 218.68124 379.89062 217.18124ZM381.20312 211.57187Q381.20312 213.4 381.9375 214.24374Q382.67188 215.0875 383.76562 215.0875Q384.85938 215.0875 385.59375 214.25937Q386.32812 213.41562 386.32812 211.61874Q386.32812 209.9 385.5625 209.04062Q384.8125 208.16562 383.73438 208.16562Q382.6875 208.16562 381.9375 209.025Q381.20312 209.88437 381.20312 211.57187ZM395.1875 219.97812L395.1875 207.07187L396.625 207.07187L396.625 208.275Q397.14062 207.57187 397.78125 207.2125Q398.42188 206.85312 399.32812 206.85312Q400.53125 206.85312 401.4375 207.47812Q402.35938 208.0875 402.82812 209.2125Q403.29688 210.32187 403.29688 211.66562Q403.29688 213.0875 402.78125 214.24374Q402.26562 215.38437 401.28125 216.00937Q400.29688 216.61874 399.21875 216.61874Q398.4375 216.61874 397.79688 216.29062Q397.17188 215.94687 396.76562 215.43124L396.76562 219.97812L395.1875 219.97812ZM396.625 211.79062Q396.625 213.5875 397.34375 214.44687Q398.07812 215.30624 399.10938 215.30624Q400.17188 215.30624 400.92188 214.41562Q401.67188 213.525 401.67188 211.65Q401.67188 209.86874 400.9375 208.97812Q400.20312 208.0875 399.1875 208.0875Q398.17188 208.0875 397.39062 209.04062Q396.625 209.97812 396.625 211.79062ZM405.1875 216.4L405.1875 203.50937L406.76562 203.50937L406.76562 208.13437Q407.875 206.85312 409.5625 206.85312Q410.59375 206.85312 411.35938 207.25937Q412.125 207.66562 412.45312 208.4Q412.79688 209.11874 412.79688 210.47812L412.79688 216.4L411.20312 216.4L411.20312 210.47812Q411.20312 209.29062 410.6875 208.75937Q410.17188 208.2125 409.23438 208.2125Q408.53125 208.2125 407.90625 208.5875Q407.29688 208.94687 407.03125 209.57187Q406.76562 210.19687 406.76562 211.29062L406.76562 216.4L405.1875 216.4ZM421.28125 215.24374Q420.40625 215.99374 419.57812 216.30624Q418.76562 216.61874 417.84375 216.61874Q416.29688 216.61874 415.46875 215.86874Q414.65625 215.10312 414.65625 213.93124Q414.65625 213.25937 414.96875 212.69687Q415.28125 212.11874 415.78125 211.775Q416.28125 211.43124 416.92188 211.25937Q417.39062 211.13437 418.32812 211.025Q420.23438 210.79062 421.14062 210.47812Q421.15625 210.15 421.15625 210.05624Q421.15625 209.10312 420.70312 208.69687Q420.09375 208.16562 418.90625 208.16562Q417.78125 208.16562 417.25 208.55624Q416.71875 208.94687 416.46875 209.94687L414.92188 209.72812Q415.14062 208.72812 415.60938 208.11874Q416.09375 207.50937 417.0 207.18124Q417.92188 206.85312 419.14062 206.85312Q420.32812 206.85312 421.07812 207.13437Q421.82812 207.41562 422.17188 207.85312Q422.53125 208.275 422.67188 208.91562Q422.75 209.32187 422.75 210.38437L422.75 212.49374Q422.75 214.69687 422.84375 215.29062Q422.95312 215.86874 423.25 216.4L421.59375 216.4Q421.34375 215.9 421.28125 215.24374ZM421.14062 211.7125Q420.28125 212.07187 418.5625 212.30624Q417.59375 212.44687 417.1875 212.63437Q416.78125 212.80624 416.5625 213.15Q416.34375 213.47812 416.34375 213.9Q416.34375 214.525 416.8125 214.94687Q417.29688 215.36874 418.21875 215.36874Q419.14062 215.36874 419.84375 214.97812Q420.5625 214.57187 420.89062 213.88437Q421.14062 213.3375 421.14062 212.29062L421.14062 211.7125ZM418.07812 205.9L419.25 203.44687L421.3125 203.44687L419.39062 205.9L418.07812 205.9ZM425.1875 219.97812L425.1875 207.07187L426.625 207.07187L426.625 208.275Q427.14062 207.57187 427.78125 207.2125Q428.42188 206.85312 429.32812 206.85312Q430.53125 206.85312 431.4375 207.47812Q432.35938 208.0875 432.82812 209.2125Q433.29688 210.32187 433.29688 211.66562Q433.29688 213.0875 432.78125 214.24374Q432.26562 215.38437 431.28125 216.00937Q430.29688 216.61874 429.21875 216.61874Q428.4375 216.61874 427.79688 216.29062Q427.17188 215.94687 426.76562 215.43124L426.76562 219.97812L425.1875 219.97812ZM426.625 211.79062Q426.625 213.5875 427.34375 214.44687Q428.07812 215.30624 429.10938 215.30624Q430.17188 215.30624 430.92188 214.41562Q431.67188 213.525 431.67188 211.65Q431.67188 209.86874 430.9375 208.97812Q430.20312 208.0875 429.1875 208.0875Q428.17188 208.0875 427.39062 209.04062Q426.625 209.97812 426.625 211.79062ZM438.96875 216.4L443.92188 203.50937L445.76562 203.50937L451.03125 216.4L449.09375 216.4L447.59375 212.49374L442.20312 212.49374L440.78125 216.4L438.96875 216.4ZM442.6875 211.10312L447.0625 211.10312L445.71875 207.54062Q445.09375 205.91562 444.79688 204.86874Q444.5625 206.10312 444.10938 207.32187L442.6875 211.10312ZM451.3125 216.4L451.3125 203.50937L453.03125 203.50937L453.03125 209.9L459.42188 203.50937L461.73438 203.50937L456.32812 208.72812L461.96875 216.4L459.71875 216.4L455.14062 209.88437L453.03125 211.93124L453.03125 216.4L451.3125 216.4ZM461.96875 216.4L466.92188 203.50937L468.76562 203.50937L474.03125 216.4L472.09375 216.4L470.59375 212.49374L465.20312 212.49374L463.78125 216.4L461.96875 216.4ZM465.6875 211.10312L470.0625 211.10312L468.71875 207.54062Q468.09375 205.91562 467.79688 204.86874Q467.5625 206.10312 467.10938 207.32187L465.6875 211.10312ZM482.84375 203.50937L484.54688 203.50937L484.54688 210.9625Q484.54688 212.9 484.10938 214.04062Q483.67188 215.18124 482.51562 215.9Q481.375 216.61874 479.51562 216.61874Q477.70312 216.61874 476.54688 215.99374Q475.40625 215.36874 474.90625 214.19687Q474.42188 213.00937 474.42188 210.9625L474.42188 203.50937L476.125 203.50937L476.125 210.94687Q476.125 212.63437 476.4375 213.43124Q476.75 214.2125 477.5 214.65Q478.26562 215.0875 479.35938 215.0875Q481.25 215.0875 482.04688 214.22812Q482.84375 213.36874 482.84375 210.94687L482.84375 203.50937ZM490.67188 216.4L490.67188 205.04062L486.42188 205.04062L486.42188 203.50937L496.64062 203.50937L496.64062 205.04062L492.375 205.04062L492.375 216.4L490.67188 216.4ZM497.96875 216.4L502.92188 203.50937L504.76562 203.50937L510.03125 216.4L508.09375 216.4L506.59375 212.49374L501.20312 212.49374L499.78125 216.4L497.96875 216.4ZM501.6875 211.10312L506.0625 211.10312L504.71875 207.54062Q504.09375 205.91562 503.79688 204.86874Q503.5625 206.10312 503.10938 207.32187L501.6875 211.10312ZM518.84375 203.50937L520.5469 203.50937L520.5469 210.9625Q520.5469 212.9 520.1094 214.04062Q519.6719 215.18124 518.5156 215.9Q517.375 216.61874 515.5156 216.61874Q513.7031 216.61874 512.5469 215.99374Q511.40625 215.36874 510.90625 214.19687Q510.42188 213.00937 510.42188 210.9625L510.42188 203.50937L512.125 203.50937L512.125 210.94687Q512.125 212.63437 512.4375 213.43124Q512.75 214.2125 513.5 214.65Q514.2656 215.0875 515.3594 215.0875Q517.25 215.0875 518.0469 214.22812Q518.84375 213.36874 518.84375 210.94687L518.84375 203.50937ZM526.6719 216.4L526.6719 205.04062L522.4219 205.04062L522.4219 203.50937L532.6406 203.50937L532.6406 205.04062L528.375 205.04062L528.375 216.4L526.6719 216.4ZM534.875 210.11874Q534.875 206.91562 536.59375 205.10312Q538.3125 203.29062 541.0469 203.29062Q542.8281 203.29062 544.25 204.15Q545.6875 204.99374 546.4375 206.525Q547.1875 208.04062 547.1875 209.97812Q547.1875 211.93124 546.3906 213.47812Q545.6094 215.025 544.15625 215.82187Q542.7031 216.61874 541.03125 216.61874Q539.21875 216.61874 537.78125 215.74374Q536.34375 214.86874 535.6094 213.35312Q534.875 211.82187 534.875 210.11874ZM536.625 210.15Q536.625 212.47812 537.875 213.82187Q539.1406 215.16562 541.0156 215.16562Q542.9531 215.16562 544.1875 213.80624Q545.4375 212.44687 545.4375 209.9625Q545.4375 208.4 544.90625 207.22812Q544.375 206.04062 543.34375 205.4Q542.3281 204.75937 541.0469 204.75937Q539.2344 204.75937 537.9219 206.00937Q536.625 207.24374 536.625 210.15Z" fill-rule="nonzero"/><path stroke="#0000ff" stroke-width="4.0" stroke-linecap="butt" d="M564.0 209.9L576.0 209.9" fill-rule="nonzero"/><path fill="#1a1a1a" d="M585.3906 216.4L585.3906 203.50937L590.25 203.50937Q591.53125 203.50937 592.2031 203.63437Q593.15625 203.79062 593.7969 204.24374Q594.4375 204.68124 594.8281 205.49374Q595.21875 206.29062 595.21875 207.24374Q595.21875 208.88437 594.1719 210.025Q593.125 211.16562 590.40625 211.16562L587.09375 211.16562L587.09375 216.4L585.3906 216.4ZM587.09375 209.63437L590.4219 209.63437Q592.0781 209.63437 592.7656 209.025Q593.46875 208.41562 593.46875 207.29062Q593.46875 206.47812 593.0625 205.91562Q592.65625 205.3375 591.9844 205.15Q591.5469 205.04062 590.3906 205.04062L587.09375 205.04062L587.09375 209.63437ZM597.1875 216.4L597.1875 203.50937L598.7656 203.50937L598.7656 208.13437Q599.875 206.85312 601.5625 206.85312Q602.59375 206.85312 603.3594 207.25937Q604.125 207.66562 604.4531 208.4Q604.7969 209.11874 604.7969 210.47812L604.7969 216.4L603.2031 216.4L603.2031 210.47812Q603.2031 209.29062 602.6875 208.75937Q602.1719 208.2125 601.2344 208.2125Q600.53125 208.2125 599.90625 208.5875Q599.2969 208.94687 599.03125 209.57187Q598.7656 210.19687 598.7656 211.29062L598.7656 216.4L597.1875 216.4ZM615.8125 208.9L615.8125 207.07187L617.5 207.07187L617.5 208.50937Q617.5 209.9 617.1875 210.44687Q616.375 211.85312 614.71875 212.025L614.71875 216.4L613.2969 216.4L613.2969 215.025Q612.21875 216.61874 610.34375 216.61874Q609.53125 216.61874 608.8125 216.30624Q608.09375 215.99374 607.7344 215.50937Q607.3906 215.025 607.25 214.32187Q607.15625 213.85312 607.15625 212.85312L607.15625 207.07187L608.7344 207.07187L608.7344 212.24374Q608.7344 213.49374 608.8281 213.91562Q609.1406 215.24374 610.65625 215.24374Q611.3906 215.24374 612.0 214.88437Q612.625 214.50937 612.875 213.88437Q613.1406 213.25937 613.1406 212.07187L613.1406 207.07187L614.71875 207.07187L614.71875 211.35312Q615.8281 211.16562 616.3906 210.30624Q616.6406 209.94687 616.6406 208.9L615.8125 208.9ZM620.21875 211.72812Q620.21875 213.4625 621.0 214.41562Q621.75 215.30624 622.96875 215.30624Q624.2031 215.30624 624.9375 214.41562Q625.71875 213.4625 625.71875 211.68124Q625.71875 209.99374 624.9219 209.05624Q624.1875 208.16562 622.96875 208.16562Q621.7344 208.16562 621.0 209.05624Q620.21875 209.99374 620.21875 211.72812ZM627.5469 208.68124L627.5469 206.8375L629.25 206.8375L629.25 208.29062Q629.25 209.38437 628.9219 209.9625Q628.4844 210.7125 627.34375 211.35312Q627.34375 211.4625 627.34375 211.60312Q627.34375 214.86874 625.2344 216.04062Q624.2031 216.61874 622.96875 216.61874Q620.96875 216.61874 619.7969 215.35312Q618.59375 214.05624 618.59375 211.72812Q618.59375 209.13437 620.0469 207.88437Q621.25 206.85312 622.96875 206.85312Q624.90625 206.85312 626.125 208.11874Q627.0469 209.07187 627.2656 210.5875Q627.875 210.2125 628.125 209.82187Q628.3906 209.41562 628.375 208.68124L627.5469 208.68124ZM631.1875 216.4L631.1875 207.07187L632.6094 207.07187L632.6094 208.4Q633.6406 206.85312 635.5781 206.85312Q636.4219 206.85312 637.125 207.16562Q637.84375 207.4625 638.1875 207.9625Q638.5469 208.44687 638.6875 209.11874Q638.7656 209.55624 638.7656 210.66562L638.7656 216.4L637.1875 216.4L637.1875 210.72812Q637.1875 209.75937 637.0 209.275Q636.8281 208.79062 636.34375 208.50937Q635.875 208.22812 635.25 208.22812Q634.2344 208.22812 633.5 208.86874Q632.7656 209.50937 632.7656 211.30624L632.7656 216.4L631.1875 216.4ZM640.8906 217.18124L642.4375 217.4Q642.53125 218.11874 642.96875 218.44687Q643.5625 218.88437 644.5781 218.88437Q645.6719 218.88437 646.2656 218.43124Q646.875 217.99374 647.0781 217.2125Q647.2031 216.72812 647.2031 215.18124Q646.15625 216.4 644.6094 216.4Q642.6875 216.4 641.625 215.00937Q640.5781 213.61874 640.5781 211.68124Q640.5781 210.3375 641.0625 209.2125Q641.5469 208.0875 642.46875 207.47812Q643.3906 206.85312 644.625 206.85312Q646.28125 206.85312 647.34375 208.19687L647.34375 207.07187L648.8125 207.07187L648.8125 215.13437Q648.8125 217.32187 648.3594 218.22812Q647.9219 219.13437 646.9531 219.65Q646.0 220.18124 644.59375 220.18124Q642.9219 220.18124 641.8906 219.43124Q640.8594 218.68124 640.8906 217.18124ZM642.2031 211.57187Q642.2031 213.4 642.9375 214.24374Q643.6719 215.0875 644.7656 215.0875Q645.8594 215.0875 646.59375 214.25937Q647.3281 213.41562 647.3281 211.61874Q647.3281 209.9 646.5625 209.04062Q645.8125 208.16562 644.7344 208.16562Q643.6875 208.16562 642.9375 209.025Q642.2031 209.88437 642.2031 211.57187ZM656.1875 219.97812L656.1875 207.07187L657.625 207.07187L657.625 208.275Q658.1406 207.57187 658.78125 207.2125Q659.4219 206.85312 660.3281 206.85312Q661.53125 206.85312 662.4375 207.47812Q663.3594 208.0875 663.8281 209.2125Q664.2969 210.32187 664.2969 211.66562Q664.2969 213.0875 663.78125 214.24374Q663.2656 215.38437 662.28125 216.00937Q661.2969 216.61874 660.21875 216.61874Q659.4375 216.61874 658.7969 216.29062Q658.1719 215.94687 657.7656 215.43124L657.7656 219.97812L656.1875 219.97812ZM657.625 211.79062Q657.625 213.5875 658.34375 214.44687Q659.0781 215.30624 660.1094 215.30624Q661.1719 215.30624 661.9219 214.41562Q662.6719 213.525 662.6719 211.65Q662.6719 209.86874 661.9375 208.97812Q661.2031 208.0875 660.1875 208.0875Q659.1719 208.0875 658.3906 209.04062Q657.625 209.97812 657.625 211.79062ZM666.1875 216.4L666.1875 203.50937L667.7656 203.50937L667.7656 208.13437Q668.875 206.85312 670.5625 206.85312Q671.59375 206.85312 672.3594 207.25937Q673.125 207.66562 673.4531 208.4Q673.7969 209.11874 673.7969 210.47812L673.7969 216.4L672.2031 216.4L672.2031 210.47812Q672.2031 209.29062 671.6875 208.75937Q671.1719 208.2125 670.2344 208.2125Q669.53125 208.2125 668.90625 208.5875Q668.2969 208.94687 668.03125 209.57187Q667.7656 210.19687 667.7656 211.29062L667.7656 216.4L666.1875 216.4ZM682.28125 215.24374Q681.40625 215.99374 680.5781 216.30624Q679.7656 216.61874 678.84375 216.61874Q677.2969 216.61874 676.46875 215.86874Q675.65625 215.10312 675.65625 213.93124Q675.65625 213.25937 675.96875 212.69687Q676.28125 212.11874 676.78125 211.775Q677.28125 211.43124 677.9219 211.25937Q678.3906 211.13437 679.3281 211.025Q681.2344 210.79062 682.1406 210.47812Q682.15625 210.15 682.15625 210.05624Q682.15625 209.10312 681.7031 208.69687Q681.09375 208.16562 679.90625 208.16562Q678.78125 208.16562 678.25 208.55624Q677.71875 208.94687 677.46875 209.94687L675.9219 209.72812Q676.1406 208.72812 676.6094 208.11874Q677.09375 207.50937 678.0 207.18124Q678.9219 206.85312 680.1406 206.85312Q681.3281 206.85312 682.0781 207.13437Q682.8281 207.41562 683.1719 207.85312Q683.53125 208.275 683.6719 208.91562Q683.75 209.32187 683.75 210.38437L683.75 212.49374Q683.75 214.69687 683.84375 215.29062Q683.9531 215.86874 684.25 216.4L682.59375 216.4Q682.34375 215.9 682.28125 215.24374ZM682.1406 211.7125Q681.28125 212.07187 679.5625 212.30624Q678.59375 212.44687 678.1875 212.63437Q677.78125 212.80624 677.5625 213.15Q677.34375 213.47812 677.34375 213.9Q677.34375 214.525 677.8125 214.94687Q678.2969 215.36874 679.21875 215.36874Q680.1406 215.36874 680.84375 214.97812Q681.5625 214.57187 681.8906 213.88437Q682.1406 213.3375 682.1406 212.29062L682.1406 211.7125ZM679.0781 205.9L680.25 203.44687L682.3125 203.44687L680.3906 205.9L679.0781 205.9ZM686.1875 219.97812L686.1875 207.07187L687.625 207.07187L687.625 208.275Q688.1406 207.57187 688.78125 207.2125Q689.4219 206.85312 690.3281 206.85312Q691.53125 206.85312 692.4375 207.47812Q693.3594 208.0875 693.8281 209.2125Q694.2969 210.32187 694.2969 211.66562Q694.2969 213.0875 693.78125 214.24374Q693.2656 215.38437 692.28125 216.00937Q691.2969 216.61874 690.21875 216.61874Q689.4375 216.61874 688.7969 216.29062Q688.1719 215.94687 687.7656 215.43124L687.7656 219.97812L686.1875 219.97812ZM687.625 211.79062Q687.625 213.5875 688.34375 214.44687Q689.0781 215.30624 690.1094 215.30624Q691.1719 215.30624 691.9219 214.41562Q692.6719 213.525 692.6719 211.65Q692.6719 209.86874 691.9375 208.97812Q691.2031 208.0875 690.1875 208.0875Q689.1719 208.0875 688.3906 209.04062Q687.625 209.97812 687.625 211.79062ZM707.1406 205.68124L704.09375 205.68124L704.09375 204.525L707.1406 204.525L707.1406 203.50937L708.7031 203.50937L708.7031 204.525L709.9844 204.525L709.9844 205.68124L708.7031 205.68124L708.7031 216.4L707.25 216.4L707.25 215.22812Q706.3594 216.61874 704.625 216.61874Q703.5156 216.61874 702.5781 216.00937Q701.6406 215.38437 701.125 214.29062Q700.6094 213.18124 700.6094 211.74374Q700.6094 210.3375 701.0781 209.2125Q701.5469 208.07187 702.46875 207.4625Q703.40625 206.85312 704.5625 206.85312Q705.40625 206.85312 706.0625 207.2125Q706.71875 207.57187 707.1406 208.13437L707.1406 205.68124ZM702.2344 211.74374Q702.2344 213.54062 702.9844 214.43124Q703.75 215.30624 704.78125 215.30624Q705.8125 215.30624 706.53125 214.4625Q707.2656 213.61874 707.2656 211.86874Q707.2656 209.9625 706.53125 209.07187Q705.7969 208.16562 704.71875 208.16562Q703.65625 208.16562 702.9375 209.025Q702.2344 209.88437 702.2344 211.74374ZM717.5781 213.4L719.21875 213.60312Q718.8281 215.025 717.78125 215.82187Q716.7344 216.61874 715.1094 216.61874Q713.0625 216.61874 711.8594 215.35312Q710.65625 214.0875 710.65625 211.80624Q710.65625 209.4625 711.8594 208.16562Q713.0781 206.85312 715.0156 206.85312Q716.8906 206.85312 718.0781 208.13437Q719.2656 209.4 719.2656 211.7125Q719.2656 211.85312 719.25 212.13437L712.2969 212.13437Q712.375 213.68124 713.15625 214.49374Q713.9531 215.30624 715.1094 215.30624Q715.9844 215.30624 716.59375 214.85312Q717.21875 214.4 717.5781 213.4ZM712.375 210.8375L717.59375 210.8375Q717.4844 209.66562 717.0 209.07187Q716.2344 208.15 715.03125 208.15Q713.9531 208.15 713.2031 208.88437Q712.46875 209.61874 712.375 210.8375ZM714.9844 204.41562L713.9844 205.9L712.1719 205.9L714.0781 203.44687L715.7656 203.44687L717.7344 205.9L715.9375 205.9L714.9844 204.41562ZM715.7656 202.80624L714.5 202.80624L712.46875 200.3375L714.5781 200.3375L715.7656 202.80624ZM725.125 216.4L728.5469 211.54062L725.3906 207.07187L727.3594 207.07187L728.7969 209.25937Q729.2031 209.88437 729.4531 210.30624Q729.8281 209.7125 730.15625 209.275L731.7344 207.07187L733.625 207.07187L730.3906 211.4625L733.875 216.4L731.9219 216.4L730.0156 213.49374L729.5 212.7125L727.0469 216.4L725.125 216.4ZM740.2969 216.4L740.2969 215.025Q739.21875 216.61874 737.34375 216.61874Q736.5156 216.61874 735.7969 216.30624Q735.0781 215.97812 734.7344 215.50937Q734.3906 215.025 734.25 214.32187Q734.15625 213.85312 734.15625 212.85312L734.15625 207.07187L735.7344 207.07187L735.7344 212.24374Q735.7344 213.47812 735.8281 213.91562Q735.9844 214.54062 736.46875 214.9Q736.9531 215.24374 737.65625 215.24374Q738.375 215.24374 739.0 214.88437Q739.625 214.525 739.875 213.9Q740.1406 213.25937 740.1406 212.07187L740.1406 207.07187L741.71875 207.07187L741.71875 216.4L740.2969 216.4ZM750.28125 215.24374Q749.40625 215.99374 748.5781 216.30624Q747.7656 216.61874 746.84375 216.61874Q745.2969 216.61874 744.46875 215.86874Q743.65625 215.10312 743.65625 213.93124Q743.65625 213.25937 743.96875 212.69687Q744.28125 212.11874 744.78125 211.775Q745.28125 211.43124 745.9219 211.25937Q746.3906 211.13437 747.3281 211.025Q749.2344 210.79062 750.1406 210.47812Q750.15625 210.15 750.15625 210.05624Q750.15625 209.10312 749.7031 208.69687Q749.09375 208.16562 747.90625 208.16562Q746.78125 208.16562 746.25 208.55624Q745.71875 208.94687 745.46875 209.94687L743.9219 209.72812Q744.1406 208.72812 744.6094 208.11874Q745.09375 207.50937 746.0 207.18124Q746.9219 206.85312 748.1406 206.85312Q749.3281 206.85312 750.0781 207.13437Q750.8281 207.41562 751.1719 207.85312Q751.53125 208.275 751.6719 208.91562Q751.75 209.32187 751.75 210.38437L751.75 212.49374Q751.75 214.69687 751.84375 215.29062Q751.9531 215.86874 752.25 216.4L750.59375 216.4Q750.34375 215.9 750.28125 215.24374ZM750.1406 211.7125Q749.28125 212.07187 747.5625 212.30624Q746.59375 212.44687 746.1875 212.63437Q745.78125 212.80624 745.5625 213.15Q745.34375 213.47812 745.34375 213.9Q745.34375 214.525 745.8125 214.94687Q746.2969 215.36874 747.21875 215.36874Q748.1406 215.36874 748.84375 214.97812Q749.5625 214.57187 749.8906 213.88437Q750.1406 213.3375 750.1406 212.29062L750.1406 211.7125ZM747.9844 204.41562L746.9844 205.9L745.1719 205.9L747.0781 203.44687L748.7656 203.44687L750.7344 205.9L748.9375 205.9L747.9844 204.41562ZM748.25 200.3375L750.375 200.3375L748.34375 202.80624L747.0625 202.80624L748.25 200.3375ZM757.6406 214.97812L757.875 216.38437Q757.2031 216.525 756.6719 216.525Q755.8125 216.525 755.3281 216.25937Q754.8594 215.97812 754.6719 215.54062Q754.4844 215.0875 754.4844 213.66562L754.4844 208.29062L753.3125 208.29062L753.3125 207.07187L754.4844 207.07187L754.4844 204.75937L756.0469 203.80624L756.0469 207.07187L757.6406 207.07187L757.6406 208.29062L756.0469 208.29062L756.0469 213.75937Q756.0469 214.43124 756.125 214.63437Q756.21875 214.82187 756.40625 214.93124Q756.59375 215.04062 756.9531 215.04062Q757.2031 215.04062 757.6406 214.97812Z" fill-rule="nonzero"/></svg>