<svg version="1.1" viewBox="0.0 0.0 1038.0 232.0" fill="none" stroke="none" stroke-linecap="square" stroke-miterlimit="10" width="1038" height="232" xmlns:xlink="http://www.w3.org/1999/xlink" xmlns="http://www.w3.org/2000/svg"><path fill="#ffffff" d="M0 0L1038.0 0L1038.0 232.0L0 232.0L0 0Z" fill-rule="nonzero"/><path stroke="#333333" stroke-width="1.0" stroke-linecap="butt" d="M82.5 154.5L1026.5 154.5" fill-rule="nonzero"/><path stroke="#cccccc" stroke-width="1.0" stroke-linecap="butt" d="M82.5 109.5L1026.5 109.5" fill-rule="nonzero"/><path stroke="#cccccc" stroke-width="1.0" stroke-linecap="butt" d="M82.5 63.5L1026.5 63.5" fill-rule="nonzero"/><path stroke="#cccccc" stroke-width="1.0" stroke-linecap="butt" d="M82.5 18.5L1026.5 18.5" fill-rule="nonzero"/><clipPath id="id_0"><path d="M82.6 18.6L1026.4 18.6L1026.4 154.66667L82.6 154.66667L82.6 18.6Z" clip-rule="nonzero"/></clipPath><path stroke="#ff0000" stroke-width="2.0" stroke-linecap="butt" stroke-dasharray="2.0,3.0" clip-path="url(#id_0)" d="M95.708336 121.11897L121.925 82.30664L148.14166 110.73727L174.35834 92.437294L200.575 113.570435L226.79167 92.10452L253.00833 137.36649L279.225 138.64095L305.44168 135.5519L331.65833 101.86263L357.875 110.5709L384.09167 134.89706L410.30832 143.7294L436.525 95.56878L462.74167 132.66461L488.95834 137.75613L515.175 140.37326L541.39166 141.01756L567.60834 141.4505L593.825 149.5253L620.0417 152.31996L646.25836 152.30714L672.475 152.28195L698.69165 151.06232L724.9083 149.45078L751.125 139.29825L777.3417 139.10347L803.55835 150.90942L829.775 143.58417L855.99164 132.2133L882.2083 98.59227L908.425 65.652336L934.64166 30.93082L960.85834 43.7757L987.075 115.36668L1013.2917 128.83043" fill-rule="nonzero"/><path stroke="#0000ff" stroke-width="2.0" stroke-linecap="butt" clip-path="url(#id_0)" d="M95.708336 134.57773L121.925 132.1218L148.14166 140.5018L174.35834 137.2135L200.575 145.9568L226.79167 142.25905L253.00833 45.930466L279.225 98.4555L305.44168 143.68176L331.65833 131.22737L357.875 87.516174L384.09167 124.805855L410.30832 138.78845L436.525 143.99367L462.74167 150.44266L488.95834 151.01227L515.175 114.78627L541.39166 151.5001L567.60834 151.44319L593.825 148.4612L620.0417 151.4714L646.25836 150.63663L672.475 149.39961L698.69165 152.89548L724.9083 150.86887L751.125 143.54015L777.3417 150.40816L803.55835 148.05583L829.775 149.43994L855.99164 146.62047L882.2083 153.186L908.425 141.34697L934.64166 142.03764L960.85834 141.64488L987.075 145.94301L1013.2917 148.67838" fill-rule="nonzero"/><path fill="#000000" fill-opacity="0.0" clip-path="url(#id_0)" d="M98.708336 121.11897C98.708336 122.775826 97.36519 124.11897 95.708336 124.11897C94.051476 124.11897 92.708336 122.775826 92.708336 121.11897C92.708336 119.46211 94.051476 118.11897 95.708336 118.11897C97.36519 118.11897 98.708336 119.46211 98.708336 121.11897Z" fill-rule="nonzero"/><path fill="#000000" fill-opacity="0.0" clip-path="url(#id_0)" d="M124.925 82.30664C124.925 83.96349 123.581856 85.30664 121.925 85.30664C120.26814 85.30664 118.925 83.96349 118.925 82.30664C118.925 80.64979 120.26814 79.30664 121.925 79.30664C123.581856 79.30664 124.925 80.64979 124.925 82.30664Z" fill-rule="nonzero"/><path fill="#000000" fill-opacity="0.0" clip-path="url(#id_0)" d="M151.14166 110.73727C151.14166 112.39412 149.79852 113.73727 148.14166 113.73727C146.48482 113.73727 145.14166 112.39412 145.14166 110.73727C145.14166 109.080414 146.48482 107.73727 148.14166 107.73727C149.79852 107.73727 151.14166 109.080414 151.14166 110.73727Z" fill-rule="nonzero"/><path fill="#000000" fill-opacity="0.0" clip-path="url(#id_0)" d="M177.35834 92.437294C177.35834 94.09415 176.01518 95.437294 174.35834 95.437294C172.70148 95.437294 171.35834 94.09415 171.35834 92.437294C171.35834 90.78044 172.70148 89.437294 174.35834 89.437294C176.01518 89.437294 177.35834 90.78044 177.35834 92.437294Z" fill-rule="nonzero"/><path fill="#000000" fill-opacity="0.0" clip-path="url(#id_0)" d="M203.575 113.570435C203.575 115.22729 202.23186 116.570435 200.575 116.570435C198.91815 116.570435 197.575 115.22729 197.575 113.570435C197.575 111.91358 198.91815 110.570435 200.575 110.570435C202.23186 110.570435 203.575 111.91358 203.575 113.570435Z" fill-rule="nonzero"/><path fill="#000000" fill-opacity="0.0" clip-path="url(#id_0)" d="M229.79167 92.10452C229.79167 93.761375 228.44852 95.10452 226.79167 95.10452C225.13481 95.10452 223.79167 93.761375 223.79167 92.10452C223.79167 90.44767 225.13481 89.10452 226.79167 89.10452C228.44852 89.10452 229.79167 90.44767 229.79167 92.10452Z" fill-rule="nonzero"/><path fill="#000000" fill-opacity="0.0" clip-path="url(#id_0)" d="M256.00833 137.36649C256.00833 139.02335 254.66519 140.36649 253.00833 140.36649C251.35149 140.36649 250.00833 139.02335 250.00833 137.36649C250.00833 135.70964 251.35149 134.36649 253.00833 134.36649C254.66519 134.36649 256.00833 135.70964 256.00833 137.36649Z" fill-rule="nonzero"/><path fill="#000000" fill-opacity="0.0" clip-path="url(#id_0)" d="M282.225 138.64095C282.225 140.29779 280.88187 141.64095 279.225 141.64095C277.56815 141.64095 276.225 140.29779 276.225 138.64095C276.225 136.98409 277.56815 135.64095 279.225 135.64095C280.88187 135.64095 282.225 136.98409 282.225 138.64095Z" fill-rule="nonzero"/><path fill="#000000" fill-opacity="0.0" clip-path="url(#id_0)" d="M308.44168 135.5519C308.44168 137.20874 307.0985 138.5519 305.44168 138.5519C303.78482 138.5519 302.44168 137.20874 302.44168 135.5519C302.44168 133.89503 303.78482 132.5519 305.44168 132.5519C307.0985 132.5519 308.44168 133.89503 308.44168 135.5519Z" fill-rule="nonzero"/><path fill="#000000" fill-opacity="0.0" clip-path="url(#id_0)" d="M334.65833 101.86263C334.65833 103.519485 333.3152 104.86263 331.65833 104.86263C330.00146 104.86263 328.65833 103.519485 328.65833 101.86263C328.65833 100.20578 330.00146 98.86263 331.65833 98.86263C333.3152 98.86263 334.65833 100.20578 334.65833 101.86263Z" fill-rule="nonzero"/><path fill="#000000" fill-opacity="0.0" clip-path="url(#id_0)" d="M360.875 110.5709C360.875 112.22775 359.53186 113.5709 357.875 113.5709C356.21814 113.5709 354.875 112.22775 354.875 110.5709C354.875 108.91405 356.21814 107.5709 357.875 107.5709C359.53186 107.5709 360.875 108.91405 360.875 110.5709Z" fill-rule="nonzero"/><path fill="#000000" fill-opacity="0.0" clip-path="url(#id_0)" d="M387.09167 134.89706C387.09167 136.55392 385.74854 137.89706 384.09167 137.89706C382.4348 137.89706 381.09167 136.55392 381.09167 134.89706C381.09167 133.24022 382.4348 131.89706 384.09167 131.89706C385.74854 131.89706 387.09167 133.24022 387.09167 134.89706Z" fill-rule="nonzero"/><path fill="#000000" fill-opacity="0.0" clip-path="url(#id_0)" d="M413.30832 143.7294C413.30832 145.38626 411.96518 146.7294 410.30832 146.7294C408.6515 146.7294 407.30832 145.38626 407.30832 143.7294C407.30832 142.07254 408.6515 140.7294 410.30832 140.7294C411.96518 140.7294 413.30832 142.07254 413.30832 143.7294Z" fill-rule="nonzero"/><path fill="#000000" fill-opacity="0.0" clip-path="url(#id_0)" d="M439.525 95.56878C439.525 97.22563 438.18185 98.56878 436.525 98.56878C434.86813 98.56878 433.525 97.22563 433.525 95.56878C433.525 93.91192 434.86813 92.56878 436.525 92.56878C438.18185 92.56878 439.525 93.91192 439.525 95.56878Z" fill-rule="nonzero"/><path fill="#000000" fill-opacity="0.0" clip-path="url(#id_0)" d="M465.74167 132.66461C465.74167 134.32147 464.39853 135.66461 462.74167 135.66461C461.0848 135.66461 459.74167 134.32147 459.74167 132.66461C459.74167 131.00777 461.0848 129.66461 462.74167 129.66461C464.39853 129.66461 465.74167 131.00777 465.74167 132.66461Z" fill-rule="nonzero"/><path fill="#000000" fill-opacity="0.0" clip-path="url(#id_0)" d="M491.95834 137.75613C491.95834 139.41298 490.61517 140.75613 488.95834 140.75613C487.30148 140.75613 485.95834 139.41298 485.95834 137.75613C485.95834 136.09927 487.30148 134.75613 488.95834 134.75613C490.61517 134.75613 491.95834 136.09927 491.95834 137.75613Z" fill-rule="nonzero"/><path fill="#000000" fill-opacity="0.0" clip-path="url(#id_0)" d="M518.175 140.37326C518.175 142.03012 516.83185 143.37326 515.175 143.37326C513.5181 143.37326 512.175 142.03012 512.175 140.37326C512.175 138.71642 513.5181 137.37326 515.175 137.37326C516.83185 137.37326 518.175 138.71642 518.175 140.37326Z" fill-rule="nonzero"/><path fill="#000000" fill-opacity="0.0" clip-path="url(#id_0)" d="M544.39166 141.01756C544.39166 142.67442 543.0485 144.01756 541.39166 144.01756C539.7348 144.01756 538.39166 142.67442 538.39166 141.01756C538.39166 139.36072 539.7348 138.01756 541.39166 138.01756C543.0485 138.01756 544.39166 139.36072 544.39166 141.01756Z" fill-rule="nonzero"/><path fill="#000000" fill-opacity="0.0" clip-path="url(#id_0)" d="M570.60834 141.4505C570.60834 143.10736 569.2652 144.4505 567.60834 144.4505C565.9515 144.4505 564.60834 143.10736 564.60834 141.4505C564.60834 139.79366 565.9515 138.4505 567.60834 138.4505C569.2652 138.4505 570.60834 139.79366 570.60834 141.4505Z" fill-rule="nonzero"/><path fill="#000000" fill-opacity="0.0" clip-path="url(#id_0)" d="M596.825 149.5253C596.825 151.18216 595.4819 152.5253 593.825 152.5253C592.16815 152.5253 590.825 151.18216 590.825 149.5253C590.825 147.86844 592.16815 146.5253 593.825 146.5253C595.4819 146.5253 596.825 147.86844 596.825 149.5253Z" fill-rule="nonzero"/><path fill="#000000" fill-opacity="0.0" clip-path="url(#id_0)" d="M623.0417 152.31996C623.0417 153.9768 621.69855 155.31996 620.0417 155.31996C618.3848 155.31996 617.0417 153.9768 617.0417 152.31996C617.0417 150.6631 618.3848 149.31996 620.0417 149.31996C621.69855 149.31996 623.0417 150.6631 623.0417 152.31996Z" fill-rule="nonzero"/><path fill="#000000" fill-opacity="0.0" clip-path="url(#id_0)" d="M649.25836 152.30714C649.25836 153.96399 647.91516 155.30714 646.25836 155.30714C644.6015 155.30714 643.25836 153.96399 643.25836 152.30714C643.25836 150.65028 644.6015 149.30714 646.25836 149.30714C647.91516 149.30714 649.25836 150.65028 649.25836 152.30714Z" fill-rule="nonzero"/><path fill="#000000" fill-opacity="0.0" clip-path="url(#id_0)" d="M675.475 152.28195C675.475 153.93881 674.13184 155.28195 672.475 155.28195C670.8181 155.28195 669.475 153.93881 669.475 152.28195C669.475 150.6251 670.8181 149.28195 672.475 149.28195C674.13184 149.28195 675.475 150.6251 675.475 152.28195Z" fill-rule="nonzero"/><path fill="#000000" fill-opacity="0.0" clip-path="url(#id_0)" d="M701.69165 151.06232C701.69165 152.71918 700.3485 154.06232 698.69165 154.06232C697.0348 154.06232 695.69165 152.71918 695.69165 151.06232C695.69165 149.40546 697.0348 148.06232 698.69165 148.06232C700.3485 148.06232 701.69165 149.40546 701.69165 151.06232Z" fill-rule="nonzero"/><path fill="#000000" fill-opacity="0.0" clip-path="url(#id_0)" d="M727.9083 149.45078C727.9083 151.10764 726.5652 152.45078 724.9083 152.45078C723.25146 152.45078 721.9083 151.10764 721.9083 149.45078C721.9083 147.79393 723.25146 146.45078 724.9083 146.45078C726.5652 146.45078 727.9083 147.79393 727.9083 149.45078Z" fill-rule="nonzero"/><path fill="#000000" fill-opacity="0.0" clip-path="url(#id_0)" d="M754.125 139.29825C754.125 140.9551 752.78186 142.29825 751.125 142.29825C749.46814 142.29825 748.125 140.9551 748.125 139.29825C748.125 137.64139 749.46814 136.29825 751.125 136.29825C752.78186 136.29825 754.125 137.64139 754.125 139.29825Z" fill-rule="nonzero"/><path fill="#000000" fill-opacity="0.0" clip-path="url(#id_0)" d="M780.3417 139.10347C780.3417 140.76031 778.99854 142.10347 777.3417 142.10347C775.6848 142.10347 774.3417 140.76031 774.3417 139.10347C774.3417 137.44661 775.6848 136.10347 777.3417 136.10347C778.99854 136.10347 780.3417 137.44661 780.3417 139.10347Z" fill-rule="nonzero"/><path fill="#000000" fill-opacity="0.0" clip-path="url(#id_0)" d="M806.55835 150.90942C806.55835 152.56627 805.2152 153.90942 803.55835 153.90942C801.9015 153.90942 800.55835 152.56627 800.55835 150.90942C800.55835 149.25256 801.9015 147.90942 803.55835 147.90942C805.2152 147.90942 806.55835 149.25256 806.55835 150.90942Z" fill-rule="nonzero"/><path fill="#000000" fill-opacity="0.0" clip-path="url(#id_0)" d="M832.775 143.58417C832.775 145.24101 831.4319 146.58417 829.775 146.58417C828.11816 146.58417 826.775 145.24101 826.775 143.58417C826.775 141.9273 828.11816 140.58417 829.775 140.58417C831.4319 140.58417 832.775 141.9273 832.775 143.58417Z" fill-rule="nonzero"/><path fill="#000000" fill-opacity="0.0" clip-path="url(#id_0)" d="M858.99164 132.2133C858.99164 133.87015 857.6485 135.2133 855.99164 135.2133C854.33484 135.2133 852.99164 133.87015 852.99164 132.2133C852.99164 130.55644 854.33484 129.2133 855.99164 129.2133C857.6485 129.2133 858.99164 130.55644 858.99164 132.2133Z" fill-rule="nonzero"/><path fill="#000000" fill-opacity="0.0" clip-path="url(#id_0)" d="M885.2083 98.59227C885.2083 100.24913 883.8652 101.59227 882.2083 101.59227C880.55145 101.59227 879.2083 100.24913 879.2083 98.59227C879.2083 96.93542 880.55145 95.59227 882.2083 95.59227C883.8652 95.59227 885.2083 96.93542 885.2083 98.59227Z" fill-rule="nonzero"/><path fill="#000000" fill-opacity="0.0" clip-path="url(#id_0)" d="M911.425 65.652336C911.425 67.30919 910.08185 68.652336 908.425 68.652336C906.7681 68.652336 905.425 67.30919 905.425 65.652336C905.425 63.995483 906.7681 62.652336 908.425 62.652336C910.08185 62.652336 911.425 63.995483 911.425 65.652336Z" fill-rule="nonzero"/><path fill="#000000" fill-opacity="0.0" clip-path="url(#id_0)" d="M937.64166 30.93082C937.64166 32.587673 936.2985 33.93082 934.64166 33.93082C932.9848 33.93082 931.64166 32.587673 931.64166 30.93082C931.64166 29.273966 932.9848 27.93082 934.64166 27.93082C936.2985 27.93082 937.64166 29.273966 937.64166 30.93082Z" fill-rule="nonzero"/><path fill="#000000" fill-opacity="0.0" clip-path="url(#id_0)" d="M963.85834 43.7757C963.85834 45.432552 962.5152 46.7757 960.85834 46.7757C959.2015 46.7757 957.85834 45.432552 957.85834 43.7757C957.85834 42.118847 959.2015 40.7757 960.85834 40.7757C962.5152 40.7757 963.85834 42.118847 963.85834 43.7757Z" fill-rule="nonzero"/><path fill="#000000" fill-opacity="0.0" clip-path="url(#id_0)" d="M990.075 115.36668C990.075 117.02353 988.7319 118.36668 987.075 118.36668C985.41815 118.36668 984.075 117.02353 984.075 115.36668C984.075 113.70982 985.41815 112.36668 987.075 112.36668C988.7319 112.36668 990.075 113.70982 990.075 115.36668Z" fill-rule="nonzero"/><path fill="#000000" fill-opacity="0.0" clip-path="url(#id_0)" d="M1016.2917 128.83043C1016.2917 130.48729 1014.94855 131.83043 1013.2917 131.83043C1011.6348 131.83043 1010.2917 130.48729 1010.2917 128.83043C1010.2917 127.17358 1011.6348 125.83043 1013.2917 125.83043C1014.94855 125.83043 1016.2917 127.17358 1016.2917 128.83043Z" fill-rule="nonzero"/><path fill="#000000" fill-opacity="0.0" clip-path="url(#id_0)" d="M98.708336 134.57773C98.708336 136.23457 97.36519 137.57773 95.708336 137.57773C94.051476 137.57773 92.708336 136.23457 92.708336 134.57773C92.708336 132.92087 94.051476 131.57773 95.708336 131.57773C97.36519 131.57773 98.708336 132.92087 98.708336 134.57773Z" fill-rule="nonzero"/><path fill="#000000" fill-opacity="0.0" clip-path="url(#id_0)" d="M124.925 132.1218C124.925 133.77864 123.581856 135.1218 121.925 135.1218C120.26814 135.1218 118.925 133.77864 118.925 132.1218C118.925 130.46494 120.26814 129.1218 121.925 129.1218C123.581856 129.1218 124.925 130.46494 124.925 132.1218Z" fill-rule="nonzero"/><path fill="#000000" fill-opacity="0.0" clip-path="url(#id_0)" d="M151.14166 140.5018C151.14166 142.15866 149.79852 143.5018 148.14166 143.5018C146.48482 143.5018 145.14166 142.15866 145.14166 140.5018C145.14166 138.84496 146.48482 137.5018 148.14166 137.5018C149.79852 137.5018 151.14166 138.84496 151.14166 140.5018Z" fill-rule="nonzero"/><path fill="#000000" fill-opacity="0.0" clip-path="url(#id_0)" d="M177.35834 137.2135C177.35834 138.87036 176.01518 140.2135 174.35834 140.2135C172.70148 140.2135 171.35834 138.87036 171.35834 137.2135C171.35834 135.55666 172.70148 134.2135 174.35834 134.2135C176.01518 134.2135 177.35834 135.55666 177.35834 137.2135Z" fill-rule="nonzero"/><path fill="#000000" fill-opacity="0.0" clip-path="url(#id_0)" d="M203.575 145.9568C203.575 147.61366 202.23186 148.9568 200.575 148.9568C198.91815 148.9568 197.575 147.61366 197.575 145.9568C197.575 144.29996 198.91815 142.9568 200.575 142.9568C202.23186 142.9568 203.575 144.29996 203.575 145.9568Z" fill-rule="nonzero"/><path fill="#000000" fill-opacity="0.0" clip-path="url(#id_0)" d="M229.79167 142.25905C229.79167 143.9159 228.44852 145.25905 226.79167 145.25905C225.13481 145.25905 223.79167 143.9159 223.79167 142.25905C223.79167 140.60219 225.13481 139.25905 226.79167 139.25905C228.44852 139.25905 229.79167 140.60219 229.79167 142.25905Z" fill-rule="nonzero"/><path fill="#000000" fill-opacity="0.0" clip-path="url(#id_0)" d="M256.00833 45.930466C256.00833 47.58732 254.66519 48.930466 253.00833 48.930466C251.35149 48.930466 250.00833 47.58732 250.00833 45.930466C250.00833 44.27361 251.35149 42.930466 253.00833 42.930466C254.66519 42.930466 256.00833 44.27361 256.00833 45.930466Z" fill-rule="nonzero"/><path fill="#000000" fill-opacity="0.0" clip-path="url(#id_0)" d="M282.225 98.4555C282.225 100.11235 280.88187 101.4555 279.225 101.4555C277.56815 101.4555 276.225 100.11235 276.225 98.4555C276.225 96.798645 277.56815 95.4555 279.225 95.4555C280.88187 95.4555 282.225 96.798645 282.225 98.4555Z" fill-rule="nonzero"/><path fill="#000000" fill-opacity="0.0" clip-path="url(#id_0)" d="M308.44168 143.68176C308.44168 145.33862 307.0985 146.68176 305.44168 146.68176C303.78482 146.68176 302.44168 145.33862 302.44168 143.68176C302.44168 142.0249 303.78482 140.68176 305.44168 140.68176C307.0985 140.68176 308.44168 142.0249 308.44168 143.68176Z" fill-rule="nonzero"/><path fill="#000000" fill-opacity="0.0" clip-path="url(#id_0)" d="M334.65833 131.22737C334.65833 132.88422 333.3152 134.22737 331.65833 134.22737C330.00146 134.22737 328.65833 132.88422 328.65833 131.22737C328.65833 129.57051 330.00146 128.22737 331.65833 128.22737C333.3152 128.22737 334.65833 129.57051 334.65833 131.22737Z" fill-rule="nonzero"/><path fill="#000000" fill-opacity="0.0" clip-path="url(#id_0)" d="M360.875 87.516174C360.875 89.17303 359.53186 90.516174 357.875 90.516174C356.21814 90.516174 354.875 89.17303 354.875 87.516174C354.875 85.85932 356.21814 84.516174 357.875 84.516174C359.53186 84.516174 360.875 85.85932 360.875 87.516174Z" fill-rule="nonzero"/><path fill="#000000" fill-opacity="0.0" clip-path="url(#id_0)" d="M387.09167 124.805855C387.09167 126.462715 385.74854 127.805855 384.09167 127.805855C382.4348 127.805855 381.09167 126.462715 381.09167 124.805855C381.09167 123.149 382.4348 121.805855 384.09167 121.805855C385.74854 121.805855 387.09167 123.149 387.09167 124.805855Z" fill-rule="nonzero"/><path fill="#000000" fill-opacity="0.0" clip-path="url(#id_0)" d="M413.30832 138.78845C413.30832 140.44531 411.96518 141.78845 410.30832 141.78845C408.6515 141.78845 407.30832 140.44531 407.30832 138.78845C407.30832 137.1316 408.6515 135.78845 410.30832 135.78845C411.96518 135.78845 413.30832 137.1316 413.30832 138.78845Z" fill-rule="nonzero"/><path fill="#000000" fill-opacity="0.0" clip-path="url(#id_0)" d="M439.525 143.99367C439.525 145.65053 438.18185 146.99367 436.525 146.99367C434.86813 146.99367 433.525 145.65053 433.525 143.99367C433.525 142.33682 434.86813 140.99367 436.525 140.99367C438.18185 140.99367 439.525 142.33682 439.525 143.99367Z" fill-rule="nonzero"/><path fill="#000000" fill-opacity="0.0" clip-path="url(#id_0)" d="M465.74167 150.44266C465.74167 152.09952 464.39853 153.44266 462.74167 153.44266C461.0848 153.44266 459.74167 152.09952 459.74167 150.44266C459.74167 148.78581 461.0848 147.44266 462.74167 147.44266C464.39853 147.44266 465.74167 148.78581 465.74167 150.44266Z" fill-rule="nonzero"/><path fill="#000000" fill-opacity="0.0" clip-path="url(#id_0)" d="M491.95834 151.01227C491.95834 152.66913 490.61517 154.01227 488.95834 154.01227C487.30148 154.01227 485.95834 152.66913 485.95834 151.01227C485.95834 149.35541 487.30148 148.01227 488.95834 148.01227C490.61517 148.01227 491.95834 149.35541 491.95834 151.01227Z" fill-rule="nonzero"/><path fill="#000000" fill-opacity="0.0" clip-path="url(#id_0)" d="M518.175 114.78627C518.175 116.44312 516.83185 117.78627 515.175 117.78627C513.5181 117.78627 512.175 116.44312 512.175 114.78627C512.175 113.12941 513.5181 111.78627 515.175 111.78627C516.83185 111.78627 518.175 113.12941 518.175 114.78627Z" fill-rule="nonzero"/><path fill="#000000" fill-opacity="0.0" clip-path="url(#id_0)" d="M544.39166 151.5001C544.39166 153.15695 543.0485 154.5001 541.39166 154.5001C539.7348 154.5001 538.39166 153.15695 538.39166 151.5001C538.39166 149.84325 539.7348 148.5001 541.39166 148.5001C543.0485 148.5001 544.39166 149.84325 544.39166 151.5001Z" fill-rule="nonzero"/><path fill="#000000" fill-opacity="0.0" clip-path="url(#id_0)" d="M570.60834 151.44319C570.60834 153.10004 569.2652 154.44319 567.60834 154.44319C565.9515 154.44319 564.60834 153.10004 564.60834 151.44319C564.60834 149.78633 565.9515 148.44319 567.60834 148.44319C569.2652 148.44319 570.60834 149.78633 570.60834 151.44319Z" fill-rule="nonzero"/><path fill="#000000" fill-opacity="0.0" clip-path="url(#id_0)" d="M596.825 148.4612C596.825 150.11804 595.4819 151.4612 593.825 151.4612C592.16815 151.4612 590.825 150.11804 590.825 148.4612C590.825 146.80434 592.16815 145.4612 593.825 145.4612C595.4819 145.4612 596.825 146.80434 596.825 148.4612Z" fill-rule="nonzero"/><path fill="#000000" fill-opacity="0.0" clip-path="url(#id_0)" d="M623.0417 151.4714C623.0417 153.12825 621.69855 154.4714 620.0417 154.4714C618.3848 154.4714 617.0417 153.12825 617.0417 151.4714C617.0417 149.81454 618.3848 148.4714 620.0417 148.4714C621.69855 148.4714 623.0417 149.81454 623.0417 151.4714Z" fill-rule="nonzero"/><path fill="#000000" fill-opacity="0.0" clip-path="url(#id_0)" d="M649.25836 150.63663C649.25836 152.29347 647.91516 153.63663 646.25836 153.63663C644.6015 153.63663 643.25836 152.29347 643.25836 150.63663C643.25836 148.97977 644.6015 147.63663 646.25836 147.63663C647.91516 147.63663 649.25836 148.97977 649.25836 150.63663Z" fill-rule="nonzero"/><path fill="#000000" fill-opacity="0.0" clip-path="url(#id_0)" d="M675.475 149.39961C675.475 151.05647 674.13184 152.39961 672.475 152.39961C670.8181 152.39961 669.475 151.05647 669.475 149.39961C669.475 147.74277 670.8181 146.39961 672.475 146.39961C674.13184 146.39961 675.475 147.74277 675.475 149.39961Z" fill-rule="nonzero"/><path fill="#000000" fill-opacity="0.0" clip-path="url(#id_0)" d="M701.69165 152.89548C701.69165 154.55232 700.3485 155.89548 698.69165 155.89548C697.0348 155.89548 695.69165 154.55232 695.69165 152.89548C695.69165 151.23862 697.0348 149.89548 698.69165 149.89548C700.3485 149.89548 701.69165 151.23862 701.69165 152.89548Z" fill-rule="nonzero"/><path fill="#000000" fill-opacity="0.0" clip-path="url(#id_0)" d="M727.9083 150.86887C727.9083 152.52573 726.5652 153.86887 724.9083 153.86887C723.25146 153.86887 721.9083 152.52573 721.9083 150.86887C721.9083 149.21202 723.25146 147.86887 724.9083 147.86887C726.5652 147.86887 727.9083 149.21202 727.9083 150.86887Z" fill-rule="nonzero"/><path fill="#000000" fill-opacity="0.0" clip-path="url(#id_0)" d="M754.125 143.54015C754.125 145.19699 752.78186 146.54015 751.125 146.54015C749.46814 146.54015 748.125 145.19699 748.125 143.54015C748.125 141.88329 749.46814 140.54015 751.125 140.54015C752.78186 140.54015 754.125 141.88329 754.125 143.54015Z" fill-rule="nonzero"/><path fill="#000000" fill-opacity="0.0" clip-path="url(#id_0)" d="M780.3417 150.40816C780.3417 152.06502 778.99854 153.40816 777.3417 153.40816C775.6848 153.40816 774.3417 152.06502 774.3417 150.40816C774.3417 148.75131 775.6848 147.40816 777.3417 147.40816C778.99854 147.40816 780.3417 148.75131 780.3417 150.40816Z" fill-rule="nonzero"/><path fill="#000000" fill-opacity="0.0" clip-path="url(#id_0)" d="M806.55835 148.05583C806.55835 149.71268 805.2152 151.05583 803.55835 151.05583C801.9015 151.05583 800.55835 149.71268 800.55835 148.05583C800.55835 146.39897 801.9015 145.05583 803.55835 145.05583C805.2152 145.05583 806.55835 146.39897 806.55835 148.05583Z" fill-rule="nonzero"/><path fill="#000000" fill-opacity="0.0" clip-path="url(#id_0)" d="M832.775 149.43994C832.775 151.0968 831.4319 152.43994 829.775 152.43994C828.11816 152.43994 826.775 151.0968 826.775 149.43994C826.775 147.7831 828.11816 146.43994 829.775 146.43994C831.4319 146.43994 832.775 147.7831 832.775 149.43994Z" fill-rule="nonzero"/><path fill="#000000" fill-opacity="0.0" clip-path="url(#id_0)" d="M858.99164 146.62047C858.99164 148.27731 857.6485 149.62047 855.99164 149.62047C854.33484 149.62047 852.99164 148.27731 852.99164 146.62047C852.99164 144.96361 854.33484 143.62047 855.99164 143.62047C857.6485 143.62047 858.99164 144.96361 858.99164 146.62047Z" fill-rule="nonzero"/><path fill="#000000" fill-opacity="0.0" clip-path="url(#id_0)" d="M885.2083 153.186C885.2083 154.84286 883.8652 156.186 882.2083 156.186C880.55145 156.186 879.2083 154.84286 879.2083 153.186C879.2083 151.52916 880.55145 150.186 882.2083 150.186C883.8652 150.186 885.2083 151.52916 885.2083 153.186Z" fill-rule="nonzero"/><path fill="#000000" fill-opacity="0.0" clip-path="url(#id_0)" d="M911.425 141.34697C911.425 143.00383 910.08185 144.34697 908.425 144.34697C906.7681 144.34697 905.425 143.00383 905.425 141.34697C905.425 139.69012 906.7681 138.34697 908.425 138.34697C910.08185 138.34697 911.425 139.69012 911.425 141.34697Z" fill-rule="nonzero"/><path fill="#000000" fill-opacity="0.0" clip-path="url(#id_0)" d="M937.64166 142.03764C937.64166 143.6945 936.2985 145.03764 934.64166 145.03764C932.9848 145.03764 931.64166 143.6945 931.64166 142.03764C931.64166 140.3808 932.9848 139.03764 934.64166 139.03764C936.2985 139.03764 937.64166 140.3808 937.64166 142.03764Z" fill-rule="nonzero"/><path fill="#000000" fill-opacity="0.0" clip-path="url(#id_0)" d="M963.85834 141.64488C963.85834 143.30174 962.5152 144.64488 960.85834 144.64488C959.2015 144.64488 957.85834 143.30174 957.85834 141.64488C957.85834 139.98802 959.2015 138.64488 960.85834 138.64488C962.5152 138.64488 963.85834 139.98802 963.85834 141.64488Z" fill-rule="nonzero"/><path fill="#000000" fill-opacity="0.0" clip-path="url(#id_0)" d="M990.075 145.94301C990.075 147.59987 988.7319 148.94301 987.075 148.94301C985.41815 148.94301 984.075 147.59987 984.075 145.94301C984.075 144.28615 985.41815 142.94301 987.075 142.94301C988.7319 142.94301 990.075 144.28615 990.075 145.94301Z" fill-rule="nonzero"/><path fill="#000000" fill-opacity="0.0" clip-path="url(#id_0)" d="M1016.2917 148.67838C1016.2917 150.33524 1014.94855 151.67838 1013.2917 151.67838C1011.6348 151.67838 1010.2917 150.33524 1010.2917 148.67838C1010.2917 147.02153 1011.6348 145.67838 1013.2917 145.67838C1014.94855 145.67838 1016.2917 147.02153 1016.2917 148.67838Z" fill-rule="nonzero"/><path fill="#000000" d="M506.07812 195.66667L506.07812 191.10417L504.98438 191.10417L504.98438 190.19792L506.07812 190.19792L506.07812 185.65105L509.54688 185.65105Q510.70312 185.65105 511.3125 185.79167Q512.1719 185.97917 512.78125 186.51042Q513.5781 187.1823 513.96875 188.22917Q514.3594 189.26042 514.3594 190.60417Q514.3594 192.13542 513.875 193.2448Q513.3906 194.33855 512.71875 194.83855Q512.0469 195.33855 511.15625 195.5573Q510.67188 195.66667 509.70312 195.66667L506.07812 195.66667ZM507.40625 194.47917L509.54688 194.47917Q510.54688 194.47917 511.10938 194.3073Q511.67188 194.1198 512.0 193.79167Q512.46875 193.3073 512.7344 192.52605Q513.0 191.72917 513.0 190.58855Q513.0 189.41667 512.7344 188.71355Q512.46875 188.01042 512.0469 187.58855Q511.625 187.15105 511.09375 186.9948Q510.57812 186.82292 509.51562 186.82292L507.40625 186.82292L507.40625 190.19792L510.17188 190.19792L510.17188 191.10417L507.40625 191.10417L507.40625 194.47917ZM516.7344 192.04167Q516.7344 193.38542 517.34375 194.1198Q517.90625 194.82292 518.875 194.82292Q519.8281 194.82292 520.3906 194.1198Q521.0 193.3698 521.0 191.9948Q521.0 190.6823 520.3906 189.96355Q519.8125 189.26042 518.875 189.26042Q517.90625 189.26042 517.34375 189.94792Q516.7344 190.6823 516.7344 192.04167ZM522.4375 189.65105L522.4375 188.22917L523.75 188.22917L523.75 189.35417Q523.75 190.19792 523.4844 190.65105Q523.15625 191.2448 522.2656 191.72917Q522.2656 191.83855 522.2656 191.9323Q522.2656 194.47917 520.625 195.38542Q519.8125 195.83855 518.875 195.83855Q517.3125 195.83855 516.40625 194.85417Q515.46875 193.83855 515.46875 192.04167Q515.46875 190.02605 516.59375 189.04167Q517.5156 188.2448 518.875 188.2448Q520.3594 188.2448 521.3125 189.21355Q522.03125 189.96355 522.21875 191.13542Q522.6719 190.85417 522.875 190.5573Q523.0781 190.2448 523.0781 189.65105L522.4375 189.65105ZM524.9219 195.66667L524.9219 188.40105L526.03125 188.40105L526.03125 189.4323Q526.8281 188.2448 528.34375 188.2448Q529.0 188.2448 529.5469 188.47917Q530.09375 188.71355 530.3594 189.10417Q530.6406 189.47917 530.75 190.01042Q530.8281 190.35417 530.8281 191.19792L530.8281 195.66667L529.59375 195.66667L529.59375 191.2448Q529.59375 190.4948 529.4531 190.13542Q529.3125 189.76042 528.9375 189.54167Q528.5781 189.3073 528.0781 189.3073Q527.2969 189.3073 526.71875 189.8073Q526.15625 190.3073 526.15625 191.69792L526.15625 195.66667L524.9219 195.66667ZM538.9375 195.66667L536.1719 188.40105L537.4844 188.40105L539.03125 192.76042Q539.28125 193.46355 539.5 194.21355Q539.6719 193.63542 539.9531 192.83855L541.5781 188.40105L542.84375 188.40105L540.09375 195.66667L538.9375 195.66667ZM543.9375 187.0573L543.9375 185.65105L545.15625 185.65105L545.15625 187.0573L543.9375 187.0573ZM543.9375 195.66667L543.9375 188.40105L545.15625 188.40105L545.15625 195.66667L543.9375 195.66667ZM543.84375 197.88542L543.84375 196.4948L545.25 196.4948L545.25 197.88542L543.84375 197.88542ZM550.9375 195.66667L550.9375 185.65105L552.15625 185.65105L552.15625 191.35417L555.0781 188.40105L556.6719 188.40105L553.8906 191.10417L556.9531 195.66667L555.4219 195.66667L553.03125 191.94792L552.15625 192.79167L552.15625 195.66667L550.9375 195.66667ZM557.9375 187.0573L557.9375 185.65105L559.15625 185.65105L559.15625 187.0573L557.9375 187.0573ZM557.9375 195.66667L557.9375 188.40105L559.15625 188.40105L559.15625 195.66667L557.9375 195.66667ZM565.8906 193.32292L567.1719 193.47917Q566.8594 194.60417 566.0469 195.22917Q565.2344 195.83855 563.96875 195.83855Q562.375 195.83855 561.4375 194.85417Q560.5156 193.8698 560.5156 192.10417Q560.5156 190.26042 561.4531 189.26042Q562.40625 188.2448 563.90625 188.2448Q565.3594 188.2448 566.28125 189.2448Q567.2031 190.22917 567.2031 192.02605Q567.2031 192.13542 567.2031 192.35417L561.78125 192.35417Q561.8594 193.54167 562.4531 194.1823Q563.0625 194.82292 563.9844 194.82292Q564.65625 194.82292 565.125 194.46355Q565.6094 194.10417 565.8906 193.32292ZM561.8594 191.33855L565.90625 191.33855Q565.8281 190.41667 565.4375 189.96355Q564.8594 189.26042 563.9219 189.26042Q563.0625 189.26042 562.4844 189.82292Q561.9219 190.38542 561.8594 191.33855ZM563.8906 186.33855L563.1094 187.51042L561.7031 187.51042L563.1719 185.58855L564.4844 185.58855L566.03125 187.51042L564.6406 187.51042L563.8906 186.33855ZM563.4844 184.5573Q563.875 184.52605 563.9844 184.4948Q564.34375 184.40105 564.34375 184.21355Q564.3594 184.0573 564.15625 183.94792Q563.875 183.79167 563.25 183.79167Q563.03125 183.79167 562.6094 183.8073L562.53125 183.16667Q562.7969 183.1198 563.5156 183.1198Q564.3594 183.13542 564.8906 183.40105Q565.46875 183.6823 565.4844 184.13542Q565.5156 184.83855 564.25 184.9948L564.25 185.32292L563.4844 185.32292L563.4844 184.5573ZM568.9219 195.66667L568.9219 188.40105L570.03125 188.40105L570.03125 189.4323Q570.3594 188.88542 570.9219 188.57292Q571.5 188.2448 572.21875 188.2448Q573.03125 188.2448 573.5469 188.58855Q574.0625 188.91667 574.28125 189.51042Q575.1406 188.2448 576.5156 188.2448Q577.59375 188.2448 578.1719 188.83855Q578.7656 189.4323 578.7656 190.6823L578.7656 195.66667L577.53125 195.66667L577.53125 191.08855Q577.53125 190.35417 577.40625 190.02605Q577.2969 189.69792 576.9844 189.51042Q576.6719 189.3073 576.25 189.3073Q575.4844 189.3073 574.96875 189.82292Q574.46875 190.32292 574.46875 191.44792L574.46875 195.66667L573.2344 195.66667L573.2344 190.94792Q573.2344 190.13542 572.9375 189.72917Q572.6406 189.3073 571.9531 189.3073Q571.4375 189.3073 570.9844 189.58855Q570.5469 189.85417 570.34375 190.38542Q570.15625 190.90105 570.15625 191.90105L570.15625 195.66667L568.9219 195.66667ZM586.6094 194.57292L586.78125 195.65105Q586.2656 195.76042 585.8594 195.76042Q585.1875 195.76042 584.8125 195.5573Q584.4531 195.33855 584.2969 194.9948Q584.15625 194.65105 584.15625 193.54167L584.15625 189.3698L583.25 189.3698L583.25 188.40105L584.15625 188.40105L584.15625 186.60417L585.375 185.8698L585.375 188.40105L586.6094 188.40105L586.6094 189.3698L585.375 189.3698L585.375 193.60417Q585.375 194.13542 585.4375 194.29167Q585.5 194.4323 585.6406 194.52605Q585.7969 194.6198 586.0625 194.6198Q586.28125 194.6198 586.6094 194.57292ZM587.9219 195.66667L587.9219 185.65105L589.15625 185.65105L589.15625 189.2448Q590.0156 188.2448 591.3281 188.2448Q592.1406 188.2448 592.7344 188.57292Q593.3281 188.88542 593.5781 189.44792Q593.84375 189.9948 593.84375 191.07292L593.84375 195.66667L592.6094 195.66667L592.6094 191.07292Q592.6094 190.13542 592.2031 189.72917Q591.8125 189.3073 591.0781 189.3073Q590.53125 189.3073 590.0469 189.58855Q589.5625 189.8698 589.3594 190.35417Q589.15625 190.83855 589.15625 191.69792L589.15625 195.66667L587.9219 195.66667ZM602.625 189.83855L602.625 188.40105L603.9531 188.40105L603.9531 189.54167Q603.9531 190.60417 603.7031 191.02605Q603.0781 192.1198 601.78125 192.26042L601.78125 195.66667L600.6875 195.66667L600.6875 194.60417Q599.8281 195.83855 598.375 195.83855Q597.7344 195.83855 597.1719 195.58855Q596.625 195.33855 596.34375 194.96355Q596.0781 194.58855 595.96875 194.0573Q595.8906 193.6823 595.8906 192.90105L595.8906 188.40105L597.125 188.40105L597.125 192.4323Q597.125 193.41667 597.2031 193.72917Q597.4375 194.77605 598.625 194.77605Q599.1875 194.77605 599.6719 194.4948Q600.15625 194.19792 600.34375 193.71355Q600.5469 193.22917 600.5469 192.29167L600.5469 188.40105L601.78125 188.40105L601.78125 191.7448Q602.65625 191.58855 603.0781 190.9323Q603.2656 190.63542 603.2656 189.83855L602.625 189.83855ZM598.4531 186.6823Q598.84375 186.63542 598.9531 186.60417Q599.3125 186.47917 599.3281 186.22917Q599.3281 186.07292 599.125 185.96355Q598.84375 185.8073 598.21875 185.8073Q598.0156 185.8073 597.5781 185.82292L597.5 185.13542Q597.7656 185.07292 598.4844 185.08855Q599.3281 185.08855 599.8594 185.35417Q600.4531 185.65105 600.46875 186.15105Q600.5 187.01042 599.21875 187.16667L599.21875 187.51042L598.4531 187.51042L598.4531 186.6823Z" fill-rule="nonzero"/><path fill="#000000" d="M24.600004 152.60208L14.58438 152.60208L14.58438 148.85208Q14.58438 147.69583 14.89688 147.00833Q15.193755 146.3052 15.818755 145.91458Q16.443754 145.52396 17.14688 145.52396Q17.787504 145.52396 18.350004 145.88333Q18.912504 146.22708 19.27188 146.9302Q19.537504 146.02396 20.17813 145.53958Q20.818754 145.03958 21.693754 145.03958Q22.39688 145.03958 23.006254 145.33646Q23.61563 145.63333 23.943754 146.07083Q24.27188 146.50833 24.443754 147.1802Q24.600004 147.83646 24.600004 148.78958L24.600004 152.60208ZM18.787504 151.27396L18.787504 149.1177Q18.787504 148.22708 18.67813 147.85208Q18.52188 147.33646 18.17813 147.08646Q17.818754 146.83646 17.30313 146.83646Q16.80313 146.83646 16.42813 147.07083Q16.037504 147.3052 15.89688 147.75833Q15.756255 148.19583 15.756255 149.27396L15.756255 151.27396L18.787504 151.27396ZM23.412504 151.27396L23.412504 148.78958Q23.412504 148.14896 23.36563 147.88333Q23.287504 147.4302 23.100004 147.1177Q22.89688 146.8052 22.537504 146.6177Q22.17813 146.41458 21.693754 146.41458Q21.131254 146.41458 20.725004 146.71146Q20.30313 146.9927 20.14688 147.50833Q19.975004 148.00833 19.975004 148.96146L19.975004 151.27396L23.412504 151.27396ZM20.975004 144.16458Q18.95938 144.16458 17.975004 143.03958Q17.17813 142.1177 17.17813 140.75833Q17.17813 139.27396 18.162504 138.32083Q19.131254 137.3677 20.86563 137.3677Q22.27188 137.3677 23.08438 137.78958Q23.881254 138.21146 24.33438 139.02396Q24.77188 139.82083 24.77188 140.75833Q24.77188 142.28958 23.787504 143.22708Q22.80313 144.16458 20.975004 144.16458ZM20.975004 142.89896Q22.36563 142.89896 23.068754 142.28958Q23.756254 141.6802 23.756254 140.75833Q23.756254 139.85208 23.05313 139.2427Q22.350004 138.63333 20.92813 138.63333Q19.58438 138.63333 18.89688 139.2427Q18.193754 139.85208 18.193754 140.75833Q18.193754 141.6802 18.881254 142.28958Q19.568754 142.89896 20.975004 142.89896ZM15.27188 140.7427L16.443754 141.52396L16.443754 142.9302L14.52188 141.46146L14.52188 140.14896L16.443754 138.60208L16.443754 139.9927L15.27188 140.7427ZM26.818754 141.50833L25.42813 141.50833L25.42813 140.10208L26.818754 140.10208L26.818754 141.50833ZM24.600004 131.71146L17.33438 131.71146L17.33438 130.60208L18.36563 130.60208Q17.17813 129.8052 17.17813 128.28958Q17.17813 127.63334 17.412504 127.086464Q17.64688 126.53959 18.037504 126.273964Q18.412504 125.992714 18.943754 125.88334Q19.287504 125.805214 20.131254 125.805214L24.600004 125.805214L24.600004 127.03959L20.17813 127.03959Q19.42813 127.03959 19.068754 127.180214Q18.693754 127.32084 18.475004 127.69584Q18.24063 128.0552 18.24063 128.5552Q18.24063 129.33646 18.74063 129.91458Q19.24063 130.47708 20.631254 130.47708L24.600004 130.47708L24.600004 131.71146ZM24.600004 123.711464L14.58438 123.711464L14.58438 122.47709L18.17813 122.47709Q17.17813 121.617714 17.17813 120.305214Q17.17813 119.492714 17.506254 118.898964Q17.818754 118.305214 18.381254 118.055214Q18.92813 117.78959 20.006254 117.78959L24.600004 117.78959L24.600004 119.023964L20.006254 119.023964Q19.068754 119.023964 18.662504 119.430214Q18.24063 119.82084 18.24063 120.555214Q18.24063 121.10209 18.52188 121.586464Q18.80313 122.07084 19.287504 122.273964Q19.77188 122.47709 20.631254 122.47709L24.600004 122.47709L24.600004 123.711464ZM20.975004 114.898964Q22.318754 114.898964 23.05313 114.28959Q23.756254 113.72709 23.756254 112.75834Q23.756254 111.805214 23.05313 111.242714Q22.30313 110.63334 20.92813 110.63334Q19.61563 110.63334 18.89688 111.242714Q18.193754 111.82084 18.193754 112.75834Q18.193754 113.72709 18.881254 114.28959Q19.61563 114.898964 20.975004 114.898964ZM18.58438 109.19584L17.162504 109.19584L17.162504 107.88334L18.287504 107.88334Q19.131254 107.88334 19.58438 108.148964Q20.17813 108.47709 20.662504 109.367714Q20.77188 109.367714 20.86563 109.367714Q23.412504 109.367714 24.318754 111.00834Q24.77188 111.82084 24.77188 112.75834Q24.77188 114.32084 23.787504 115.22709Q22.77188 116.16459 20.975004 116.16459Q18.95938 116.16459 17.975004 115.03959Q17.17813 114.117714 17.17813 112.75834Q17.17813 111.273964 18.14688 110.32084Q18.89688 109.60209 20.068754 109.41459Q19.787504 108.961464 19.49063 108.75834Q19.17813 108.555214 18.58438 108.555214L18.58438 109.19584ZM16.443754 113.44584L14.52188 112.53959L14.52188 110.91459L16.443754 112.430214L16.443754 113.44584ZM22.42813 103.19584L22.24063 101.992714Q22.975004 101.88334 23.36563 101.41459Q23.756254 100.94584 23.756254 100.10209Q23.756254 99.25834 23.412504 98.85209Q23.068754 98.430214 22.600004 98.430214Q22.17813 98.430214 21.943754 98.805214Q21.77188 99.055214 21.52188 100.055214Q21.17813 101.41459 20.92813 101.94584Q20.67813 102.461464 20.24063 102.72709Q19.80313 102.992714 19.27188 102.992714Q18.787504 102.992714 18.381254 102.773964Q17.95938 102.555214 17.67813 102.16459Q17.475004 101.88334 17.33438 101.398964Q17.17813 100.898964 17.17813 100.32084Q17.17813 99.47709 17.42813 98.836464Q17.662504 98.180214 18.08438 97.867714Q18.506254 97.555214 19.20938 97.44584L19.381254 98.648964Q18.818754 98.72709 18.506254 99.13334Q18.193754 99.523964 18.193754 100.242714Q18.193754 101.086464 18.475004 101.44584Q18.74063 101.805214 19.131254 101.805214Q19.36563 101.805214 19.55313 101.66459Q19.756254 101.50834 19.881254 101.180214Q19.943754 101.00834 20.193754 100.10209Q20.55313 98.78959 20.77188 98.273964Q20.99063 97.75834 21.412504 97.47709Q21.83438 97.180214 22.45938 97.180214Q23.08438 97.180214 23.631254 97.53959Q24.162504 97.88334 24.475004 98.57084Q24.77188 99.242714 24.77188 100.10209Q24.77188 101.50834 24.17813 102.25834Q23.58438 102.992714 22.42813 103.19584ZM18.77188 89.00834L17.33438 89.00834L17.33438 87.680214L18.475004 87.680214Q19.537504 87.680214 19.95938 87.930214Q21.05313 88.555214 21.193754 89.85209L24.600004 89.85209L24.600004 90.94584L23.537504 90.94584Q24.77188 91.805214 24.77188 93.25834Q24.77188 93.898964 24.52188 94.461464Q24.27188 95.00834 23.89688 95.28959Q23.52188 95.555214 22.99063 95.66459Q22.61563 95.742714 21.83438 95.742714L17.33438 95.742714L17.33438 94.50834L21.36563 94.50834Q22.350004 94.50834 22.662504 94.430214Q23.70938 94.19584 23.70938 93.00834Q23.70938 92.44584 23.42813 91.961464Q23.131254 91.47709 22.64688 91.28959Q22.162504 91.086464 21.225004 91.086464L17.33438 91.086464L17.33438 89.85209L20.67813 89.85209Q20.52188 88.97709 19.86563 88.555214Q19.568754 88.367714 18.77188 88.367714L18.77188 89.00834ZM15.61563 93.180214Q15.568755 92.78959 15.537505 92.680214Q15.412505 92.32084 15.162505 92.305214Q15.006255 92.305214 14.89688 92.50834Q14.74063 92.78959 14.74063 93.41459Q14.74063 93.617714 14.756255 94.055214L14.068755 94.13334Q14.006255 93.867714 14.02188 93.148964Q14.02188 92.305214 14.287505 91.773964Q14.58438 91.180214 15.08438 91.16459Q15.943755 91.13334 16.100004 92.41459L16.443754 92.41459L16.443754 93.180214L15.61563 93.180214ZM24.600004 77.992714L23.67813 77.992714Q24.77188 78.69584 24.77188 80.023964Q24.77188 80.898964 24.287504 81.63334Q23.80313 82.35209 22.943754 82.75834Q22.08438 83.148964 20.975004 83.148964Q19.89688 83.148964 19.006254 82.78959Q18.11563 82.430214 17.64688 81.711464Q17.17813 80.97709 17.17813 80.086464Q17.17813 79.430214 17.45938 78.91459Q17.725004 78.398964 18.17813 78.086464L14.58438 78.086464L14.58438 76.85209L24.600004 76.85209L24.600004 77.992714ZM20.975004 81.88334Q22.36563 81.88334 23.068754 81.305214Q23.756254 80.711464 23.756254 79.91459Q23.756254 79.10209 23.100004 78.53959Q22.42813 77.97709 21.08438 77.97709Q19.58438 77.97709 18.89688 78.555214Q18.193754 79.13334 18.193754 79.961464Q18.193754 80.78959 18.86563 81.336464Q19.537504 81.88334 20.975004 81.88334ZM24.600004 69.94584L23.537504 69.94584Q24.77188 70.805214 24.77188 72.25834Q24.77188 72.898964 24.52188 73.461464Q24.27188 74.00834 23.89688 74.28959Q23.52188 74.555214 22.99063 74.66459Q22.631254 74.742714 21.83438 74.742714L17.33438 74.742714L17.33438 73.50834L21.36563 73.50834Q22.33438 73.50834 22.662504 73.430214Q23.14688 73.32084 23.42813 72.94584Q23.70938 72.57084 23.70938 72.00834Q23.70938 71.461464 23.42813 70.97709Q23.131254 70.492714 22.64688 70.28959Q22.162504 70.086464 21.225004 70.086464L17.33438 70.086464L17.33438 68.85209L24.600004 68.85209L24.600004 69.94584ZM26.818754 72.711464L25.42813 72.711464L25.42813 71.305214L26.818754 71.305214L26.818754 72.711464ZM24.600004 66.711464L17.33438 66.711464L17.33438 65.60209L18.36563 65.60209Q17.17813 64.805214 17.17813 63.289585Q17.17813 62.633335 17.412504 62.08646Q17.64688 61.539585 18.037504 61.27396Q18.412504 60.99271 18.943754 60.883335Q19.287504 60.80521 20.131254 60.80521L24.600004 60.80521L24.600004 62.039585L20.17813 62.039585Q19.42813 62.039585 19.068754 62.18021Q18.693754 62.320835 18.475004 62.695835Q18.24063 63.05521 18.24063 63.55521Q18.24063 64.336464 18.74063 64.91459Q19.24063 65.47709 20.631254 65.47709L24.600004 65.47709L24.600004 66.711464ZM25.20938 58.93021L25.381254 57.74271Q25.92813 57.664585 26.193754 57.320835Q26.52188 56.86771 26.52188 56.070835Q26.52188 55.21146 26.17813 54.758335Q25.850004 54.289585 25.225004 54.11771Q24.850004 54.02396 23.64688 54.039585Q24.600004 54.83646 24.600004 56.039585Q24.600004 57.539585 23.52188 58.36771Q22.443754 59.18021 20.92813 59.18021Q19.89688 59.18021 19.02188 58.80521Q18.131254 58.43021 17.662504 57.727085Q17.17813 57.008335 17.17813 56.039585Q17.17813 54.758335 18.20938 53.914585L17.33438 53.914585L17.33438 52.789585L23.61563 52.789585Q25.318754 52.789585 26.02188 53.133335Q26.725004 53.477085 27.131254 54.227085Q27.55313 54.977085 27.55313 56.070835Q27.55313 57.36771 26.95938 58.164585Q26.381254 58.96146 25.20938 58.93021ZM20.83438 57.914585Q22.27188 57.914585 22.92813 57.352085Q23.58438 56.789585 23.58438 55.93021Q23.58438 55.08646 22.92813 54.508335Q22.27188 53.93021 20.881254 53.93021Q19.55313 53.93021 18.881254 54.52396Q18.193754 55.11771 18.193754 55.945835Q18.193754 56.77396 18.86563 57.352085Q19.52188 57.914585 20.83438 57.914585ZM27.55313 44.352085Q26.256254 45.383335 24.537504 46.08646Q22.818754 46.789585 20.975004 46.789585Q19.350004 46.789585 17.850004 46.258335Q16.11563 45.64896 14.412505 44.352085L14.412505 43.477085Q15.83438 44.30521 16.443754 44.570835Q17.381254 44.99271 18.412504 45.227085Q19.67813 45.52396 20.975004 45.52396Q24.27188 45.52396 27.55313 43.477085L27.55313 44.352085ZM24.600004 41.602085L14.58438 41.602085L14.58438 40.27396L19.55313 40.27396L14.58438 35.30521L14.58438 33.508335L18.631254 37.71146L24.600004 33.320835L24.600004 35.070835L19.52188 38.633335L21.131254 40.27396L24.600004 40.27396L24.600004 41.602085ZM24.600004 32.602085L14.58438 32.602085L14.58438 28.852085Q14.58438 27.695835 14.89688 27.008335Q15.193755 26.30521 15.818755 25.914585Q16.443754 25.52396 17.14688 25.52396Q17.787504 25.52396 18.350004 25.883335Q18.912504 26.227085 19.27188 26.93021Q19.537504 26.02396 20.17813 25.539585Q20.818754 25.039585 21.693754 25.039585Q22.39688 25.039585 23.006254 25.33646Q23.61563 25.633335 23.943754 26.070835Q24.27188 26.508335 24.443754 27.18021Q24.600004 27.83646 24.600004 28.789585L24.600004 32.602085ZM18.787504 31.27396L18.787504 29.11771Q18.787504 28.227085 18.67813 27.852085Q18.52188 27.33646 18.17813 27.08646Q17.818754 26.83646 17.30313 26.83646Q16.80313 26.83646 16.42813 27.070835Q16.037504 27.30521 15.89688 27.758335Q15.756255 28.195835 15.756255 29.27396L15.756255 31.27396L18.787504 31.27396ZM23.412504 31.27396L23.412504 28.789585Q23.412504 28.14896 23.36563 27.883335Q23.287504 27.43021 23.100004 27.11771Q22.89688 26.80521 22.537504 26.61771Q22.17813 26.414585 21.693754 26.414585Q21.131254 26.414585 20.725004 26.71146Q20.30313 26.99271 20.14688 27.508335Q19.975004 28.008335 19.975004 28.96146L19.975004 31.27396L23.412504 31.27396ZM27.55313 22.89896L27.55313 23.789585Q24.27188 21.74271 20.975004 21.74271Q19.693754 21.74271 18.42813 22.039585Q17.39688 22.27396 16.45938 22.68021Q15.850005 22.945835 14.412505 23.789585L14.412505 22.89896Q16.11563 21.61771 17.850004 21.008335Q19.350004 20.477085 20.975004 20.477085Q22.818754 20.477085 24.537504 21.195835Q26.256254 21.89896 27.55313 22.89896Z" fill-rule="nonzero"/><path fill="#000000" d="M70.1 154.4323Q70.1 152.90105 70.4125 151.97917Q70.725 151.04167 71.33437 150.54167Q71.95937 150.04167 72.89687 150.04167Q73.58437 150.04167 74.1 150.32292Q74.63125 150.60417 74.975 151.13542Q75.31875 151.65105 75.50625 152.40105Q75.69375 153.15105 75.69375 154.4323Q75.69375 155.94792 75.38125 156.8698Q75.08437 157.79167 74.45937 158.3073Q73.85 158.8073 72.89687 158.8073Q71.6625 158.8073 70.94375 157.91667Q70.1 156.85417 70.1 154.4323ZM71.17812 154.4323Q71.17812 156.54167 71.67812 157.2448Q72.17812 157.94792 72.89687 157.94792Q73.63125 157.94792 74.11562 157.2448Q74.61562 156.54167 74.61562 154.4323Q74.61562 152.3073 74.11562 151.6198Q73.63125 150.91667 72.88125 150.91667Q72.1625 150.91667 71.725 151.52605Q71.17812 152.3073 71.17812 154.4323Z" fill-rule="nonzero"/><path fill="#000000" d="M54.646873 112.29549L54.646873 113.31111L48.959373 113.31111Q48.959373 112.93611 49.084373 112.57674Q49.303123 111.99861 49.771873 111.43611Q50.25625 110.87361 51.1625 110.13924Q52.56875 108.98299 53.053123 108.31111Q53.553123 107.63924 53.553123 107.04549Q53.553123 106.42049 53.1 105.99861Q52.646873 105.56111 51.928123 105.56111Q51.1625 105.56111 50.709373 106.01424Q50.25625 106.46736 50.240623 107.27986L49.1625 107.17049Q49.271873 105.95174 49.990623 105.32674Q50.725 104.68611 51.959373 104.68611Q53.19375 104.68611 53.9125 105.37361Q54.63125 106.06111 54.63125 107.07674Q54.63125 107.59236 54.4125 108.09236Q54.209373 108.57674 53.709373 109.13924Q53.225 109.68611 52.1 110.63924Q51.146873 111.43611 50.865623 111.73299Q50.6 112.01424 50.428123 112.29549L54.646873 112.29549ZM56.1 109.07674Q56.1 107.54549 56.4125 106.62361Q56.725 105.68611 57.334373 105.18611Q57.959373 104.68611 58.896873 104.68611Q59.584373 104.68611 60.1 104.96736Q60.63125 105.24861 60.975 105.77986Q61.31875 106.29549 61.50625 107.04549Q61.69375 107.79549 61.69375 109.07674Q61.69375 110.59236 61.38125 111.51424Q61.084373 112.43611 60.459373 112.95174Q59.85 113.45174 58.896873 113.45174Q57.6625 113.45174 56.94375 112.56111Q56.1 111.49861 56.1 109.07674ZM57.178123 109.07674Q57.178123 111.18611 57.678123 111.88924Q58.178123 112.59236 58.896873 112.59236Q59.63125 112.59236 60.115623 111.88924Q60.615623 111.18611 60.615623 109.07674Q60.615623 106.95174 60.115623 106.26424Q59.63125 105.56111 58.88125 105.56111Q58.1625 105.56111 57.725 106.17049Q57.178123 106.95174 57.178123 109.07674ZM63.1 109.07674Q63.1 107.54549 63.4125 106.62361Q63.725 105.68611 64.33437 105.18611Q64.95937 104.68611 65.89687 104.68611Q66.58437 104.68611 67.1 104.96736Q67.63125 105.24861 67.975 105.77986Q68.31875 106.29549 68.50625 107.04549Q68.69375 107.79549 68.69375 109.07674Q68.69375 110.59236 68.38125 111.51424Q68.08437 112.43611 67.45937 112.95174Q66.85 113.45174 65.89687 113.45174Q64.6625 113.45174 63.94375 112.56111Q63.1 111.49861 63.1 109.07674ZM64.17812 109.07674Q64.17812 111.18611 64.67812 111.88924Q65.17812 112.59236 65.89687 112.59236Q66.63125 112.59236 67.11562 111.88924Q67.61562 111.18611 67.61562 109.07674Q67.61562 106.95174 67.11562 106.26424Q66.63125 105.56111 65.88125 105.56111Q65.1625 105.56111 64.725 106.17049Q64.17812 106.95174 64.17812 109.07674ZM70.1 109.07674Q70.1 107.54549 70.4125 106.62361Q70.725 105.68611 71.33437 105.18611Q71.95937 104.68611 72.89687 104.68611Q73.58437 104.68611 74.1 104.96736Q74.63125 105.24861 74.975 105.77986Q75.31875 106.29549 75.50625 107.04549Q75.69375 107.79549 75.69375 109.07674Q75.69375 110.59236 75.38125 111.51424Q75.08437 112.43611 74.45937 112.95174Q73.85 113.45174 72.89687 113.45174Q71.6625 113.45174 70.94375 112.56111Q70.1 111.49861 70.1 109.07674ZM71.17812 109.07674Q71.17812 111.18611 71.67812 111.88924Q72.17812 112.59236 72.89687 112.59236Q73.63125 112.59236 74.11562 111.88924Q74.61562 111.18611 74.61562 109.07674Q74.61562 106.95174 74.11562 106.26424Q73.63125 105.56111 72.88125 105.56111Q72.1625 105.56111 71.725 106.17049Q71.17812 106.95174 71.17812 109.07674Z" fill-rule="nonzero"/><path fill="#000000" d="M52.475 67.95556L52.475 65.89306L48.75625 65.89306L48.75625 64.92431L52.678123 59.36181L53.5375 59.36181L53.5375 64.92431L54.69375 64.92431L54.69375 65.89306L53.5375 65.89306L53.5375 67.95556L52.475 67.95556ZM52.475 64.92431L52.475 61.064934L49.7875 64.92431L52.475 64.92431ZM56.1 63.721184Q56.1 62.189934 56.4125 61.26806Q56.725 60.33056 57.334373 59.83056Q57.959373 59.33056 58.896873 59.33056Q59.584373 59.33056 60.1 59.61181Q60.63125 59.89306 60.975 60.42431Q61.31875 60.939934 61.50625 61.689934Q61.69375 62.439934 61.69375 63.721184Q61.69375 65.23681 61.38125 66.15868Q61.084373 67.08056 60.459373 67.59618Q59.85 68.09618 58.896873 68.09618Q57.6625 68.09618 56.94375 67.20556Q56.1 66.14306 56.1 63.721184ZM57.178123 63.721184Q57.178123 65.83056 57.678123 66.53368Q58.178123 67.23681 58.896873 67.23681Q59.63125 67.23681 60.115623 66.53368Q60.615623 65.83056 60.615623 63.721184Q60.615623 61.596184 60.115623 60.908684Q59.63125 60.20556 58.88125 60.20556Q58.1625 60.20556 57.725 60.814934Q57.178123 61.596184 57.178123 63.721184ZM63.1 63.721184Q63.1 62.189934 63.4125 61.26806Q63.725 60.33056 64.33437 59.83056Q64.95937 59.33056 65.89687 59.33056Q66.58437 59.33056 67.1 59.61181Q67.63125 59.89306 67.975 60.42431Q68.31875 60.939934 68.50625 61.689934Q68.69375 62.439934 68.69375 63.721184Q68.69375 65.23681 68.38125 66.15868Q68.08437 67.08056 67.45937 67.59618Q66.85 68.09618 65.89687 68.09618Q64.6625 68.09618 63.94375 67.20556Q63.1 66.14306 63.1 63.721184ZM64.17812 63.721184Q64.17812 65.83056 64.67812 66.53368Q65.17812 67.23681 65.89687 67.23681Q66.63125 67.23681 67.11562 66.53368Q67.61562 65.83056 67.61562 63.721184Q67.61562 61.596184 67.11562 60.908684Q66.63125 60.20556 65.88125 60.20556Q65.1625 60.20556 64.725 60.814934Q64.17812 61.596184 64.17812 63.721184ZM70.1 63.721184Q70.1 62.189934 70.4125 61.26806Q70.725 60.33056 71.33437 59.83056Q71.95937 59.33056 72.89687 59.33056Q73.58437 59.33056 74.1 59.61181Q74.63125 59.89306 74.975 60.42431Q75.31875 60.939934 75.50625 61.689934Q75.69375 62.439934 75.69375 63.721184Q75.69375 65.23681 75.38125 66.15868Q75.08437 67.08056 74.45937 67.59618Q73.85 68.09618 72.89687 68.09618Q71.6625 68.09618 70.94375 67.20556Q70.1 66.14306 70.1 63.721184ZM71.17812 63.721184Q71.17812 65.83056 71.67812 66.53368Q72.17812 67.23681 72.89687 67.23681Q73.63125 67.23681 74.11562 66.53368Q74.61562 65.83056 74.61562 63.721184Q74.61562 61.596184 74.11562 60.908684Q73.63125 60.20556 72.88125 60.20556Q72.1625 60.20556 71.725 60.814934Q71.17812 61.596184 71.17812 63.721184Z" fill-rule="nonzero"/><path fill="#000000" d="M54.56875 16.115625L53.521873 16.19375Q53.38125 15.56875 53.13125 15.2875Q52.69375 14.834375 52.06875 14.834375Q51.56875 14.834375 51.178123 15.115625Q50.69375 15.490625 50.396873 16.19375Q50.115623 16.88125 50.1 18.1625Q50.475 17.584375 51.021873 17.303125Q51.584373 17.021875 52.19375 17.021875Q53.240623 17.021875 53.975 17.803125Q54.725 18.584375 54.725 19.803125Q54.725 20.615625 54.365623 21.31875Q54.021873 22.00625 53.4125 22.38125Q52.803123 22.740625 52.0375 22.740625Q50.709373 22.740625 49.88125 21.771875Q49.053123 20.803125 49.053123 18.584375Q49.053123 16.084375 49.975 14.959375Q50.771873 13.975 52.13125 13.975Q53.146873 13.975 53.7875 14.553125Q54.44375 15.115625 54.56875 16.115625ZM50.271873 19.81875Q50.271873 20.365625 50.490623 20.865625Q50.725 21.35 51.13125 21.615625Q51.553123 21.88125 52.021873 21.88125Q52.678123 21.88125 53.1625 21.35Q53.646873 20.803125 53.646873 19.88125Q53.646873 18.990625 53.1625 18.475Q52.69375 17.959375 51.975 17.959375Q51.25625 17.959375 50.75625 18.475Q50.271873 18.990625 50.271873 19.81875ZM56.1 18.365625Q56.1 16.834375 56.4125 15.9125Q56.725 14.975 57.334373 14.475Q57.959373 13.975 58.896873 13.975Q59.584373 13.975 60.1 14.25625Q60.63125 14.5375 60.975 15.06875Q61.31875 15.584375 61.50625 16.334375Q61.69375 17.084375 61.69375 18.365625Q61.69375 19.88125 61.38125 20.803125Q61.084373 21.725 60.459373 22.240625Q59.85 22.740625 58.896873 22.740625Q57.6625 22.740625 56.94375 21.85Q56.1 20.7875 56.1 18.365625ZM57.178123 18.365625Q57.178123 20.475 57.678123 21.178125Q58.178123 21.88125 58.896873 21.88125Q59.63125 21.88125 60.115623 21.178125Q60.615623 20.475 60.615623 18.365625Q60.615623 16.240625 60.115623 15.553125Q59.63125 14.85 58.88125 14.85Q58.1625 14.85 57.725 15.459375Q57.178123 16.240625 57.178123 18.365625ZM63.1 18.365625Q63.1 16.834375 63.4125 15.9125Q63.725 14.975 64.33437 14.475Q64.95937 13.975 65.89687 13.975Q66.58437 13.975 67.1 14.25625Q67.63125 14.5375 67.975 15.06875Q68.31875 15.584375 68.50625 16.334375Q68.69375 17.084375 68.69375 18.365625Q68.69375 19.88125 68.38125 20.803125Q68.08437 21.725 67.45937 22.240625Q66.85 22.740625 65.89687 22.740625Q64.6625 22.740625 63.94375 21.85Q63.1 20.7875 63.1 18.365625ZM64.17812 18.365625Q64.17812 20.475 64.67812 21.178125Q65.17812 21.88125 65.89687 21.88125Q66.63125 21.88125 67.11562 21.178125Q67.61562 20.475 67.61562 18.365625Q67.61562 16.240625 67.11562 15.553125Q66.63125 14.85 65.88125 14.85Q65.1625 14.85 64.725 15.459375Q64.17812 16.240625 64.17812 18.365625ZM70.1 18.365625Q70.1 16.834375 70.4125 15.9125Q70.725 14.975 71.33437 14.475Q71.95937 13.975 72.89687 13.975Q73.58437 13.975 74.1 14.25625Q74.63125 14.5375 74.975 15.06875Q75.31875 15.584375 75.50625 16.334375Q75.69375 17.084375 75.69375 18.365625Q75.69375 19.88125 75.38125 20.803125Q75.08437 21.725 74.45937 22.240625Q73.85 22.740625 72.89687 22.740625Q71.6625 22.740625 70.94375 21.85Q70.1 20.7875 70.1 18.365625ZM71.17812 18.365625Q71.17812 20.475 71.67812 21.178125Q72.17812 21.88125 72.89687 21.88125Q73.63125 21.88125 74.11562 21.178125Q74.61562 20.475 74.61562 18.365625Q74.61562 16.240625 74.11562 15.553125Q73.63125 14.85 72.88125 14.85Q72.1625 14.85 71.725 15.459375Q71.17812 16.240625 71.17812 18.365625Z" fill-rule="nonzero"/><path stroke="#ff0000" stroke-width="4.0" stroke-linecap="butt" stroke-dasharray="4.0,5.0" d="M358.5 213.4L371.5 213.4" fill-rule="nonzero"/><path fill="#1a1a1a" d="M380.42188 217.4L380.42188 208.80624L383.67188 208.80624Q384.51562 208.80624 384.96875 208.88437Q385.60938 208.99374 386.03125 209.29062Q386.46875 209.5875 386.71875 210.11874Q386.98438 210.65 386.98438 211.29062Q386.98438 212.38437 386.28125 213.15Q385.59375 213.9 383.76562 213.9L381.5625 213.9L381.5625 217.4L380.42188 217.4ZM381.5625 212.9L383.78125 212.9Q384.89062 212.9 385.34375 212.49374Q385.8125 212.07187 385.8125 211.32187Q385.8125 210.79062 385.53125 210.41562Q385.26562 210.025 384.82812 209.9Q384.53125 209.82187 383.76562 209.82187L381.5625 209.82187L381.5625 212.9ZM388.29688 217.4L388.29688 208.80624L389.34375 208.80624L389.34375 211.88437Q390.07812 211.04062 391.20312 211.04062Q391.90625 211.04062 392.40625 211.32187Q392.92188 211.5875 393.14062 212.07187Q393.35938 212.54062 393.35938 213.4625L393.35938 217.4L392.3125 217.4L392.3125 213.4625Q392.3125 212.66562 391.96875 212.30624Q391.625 211.94687 391.0 211.94687Q390.53125 211.94687 390.10938 212.19687Q389.70312 212.43124 389.51562 212.85312Q389.34375 213.25937 389.34375 213.99374L389.34375 217.4L388.29688 217.4ZM401.04688 212.4L401.04688 211.18124L402.17188 211.18124L402.17188 212.15Q402.17188 213.05624 401.95312 213.43124Q401.42188 214.36874 400.3125 214.47812L400.3125 217.4L399.375 217.4L399.375 216.47812Q398.64062 217.54062 397.39062 217.54062Q396.84375 217.54062 396.35938 217.3375Q395.89062 217.11874 395.65625 216.80624Q395.42188 216.47812 395.32812 216.00937Q395.26562 215.69687 395.26562 215.025L395.26562 211.18124L396.32812 211.18124L396.32812 214.63437Q396.32812 215.4625 396.39062 215.74374Q396.59375 216.63437 397.60938 216.63437Q398.09375 216.63437 398.5 216.38437Q398.92188 216.13437 399.09375 215.72812Q399.26562 215.30624 399.26562 214.50937L399.26562 211.18124L400.3125 211.18124L400.3125 214.04062Q401.0625 213.9 401.42188 213.3375Q401.59375 213.0875 401.59375 212.4L401.04688 212.4ZM403.98438 214.29062Q403.98438 215.44687 404.5 216.07187Q405.0 216.66562 405.8125 216.66562Q406.64062 216.66562 407.125 216.07187Q407.64062 215.43124 407.64062 214.25937Q407.64062 213.13437 407.125 212.50937Q406.625 211.91562 405.8125 211.91562Q404.98438 211.91562 404.5 212.49374Q403.98438 213.13437 403.98438 214.29062ZM408.875 212.24374L408.875 211.025L410.0 211.025L410.0 211.99374Q410.0 212.7125 409.78125 213.10312Q409.48438 213.60312 408.73438 214.025Q408.73438 214.11874 408.73438 214.19687Q408.73438 216.38437 407.32812 217.16562Q406.625 217.54062 405.8125 217.54062Q404.48438 217.54062 403.70312 216.69687Q402.90625 215.8375 402.90625 214.29062Q402.90625 212.55624 403.85938 211.72812Q404.65625 211.04062 405.8125 211.04062Q407.09375 211.04062 407.92188 211.86874Q408.53125 212.50937 408.6875 213.525Q409.07812 213.275 409.25 213.00937Q409.42188 212.74374 409.42188 212.24374L408.875 212.24374ZM411.29688 217.4L411.29688 211.18124L412.23438 211.18124L412.23438 212.05624Q412.92188 211.04062 414.21875 211.04062Q414.78125 211.04062 415.25 211.24374Q415.73438 211.44687 415.96875 211.775Q416.20312 212.10312 416.29688 212.54062Q416.34375 212.8375 416.34375 213.57187L416.34375 217.4L415.29688 217.4L415.29688 213.61874Q415.29688 212.9625 415.17188 212.65Q415.04688 212.3375 414.73438 212.15Q414.42188 211.94687 414.0 211.94687Q413.32812 211.94687 412.82812 212.38437Q412.34375 212.80624 412.34375 213.99374L412.34375 217.4L411.29688 217.4ZM418.09375 217.91562L419.125 218.07187Q419.1875 218.54062 419.48438 218.75937Q419.875 219.05624 420.54688 219.05624Q421.28125 219.05624 421.67188 218.75937Q422.07812 218.4625 422.21875 217.94687Q422.3125 217.61874 422.29688 216.5875Q421.60938 217.4 420.57812 217.4Q419.29688 217.4 418.59375 216.47812Q417.89062 215.54062 417.89062 214.25937Q417.89062 213.36874 418.20312 212.61874Q418.53125 211.85312 419.14062 211.44687Q419.75 211.04062 420.57812 211.04062Q421.6875 211.04062 422.40625 211.93124L422.40625 211.18124L423.375 211.18124L423.375 216.55624Q423.375 218.00937 423.07812 218.61874Q422.78125 219.22812 422.14062 219.57187Q421.5 219.93124 420.5625 219.93124Q419.45312 219.93124 418.76562 219.43124Q418.07812 218.93124 418.09375 217.91562ZM418.96875 214.18124Q418.96875 215.4 419.45312 215.9625Q419.9375 216.525 420.67188 216.525Q421.40625 216.525 421.89062 215.9625Q422.39062 215.4 422.39062 214.2125Q422.39062 213.07187 421.875 212.49374Q421.375 211.91562 420.65625 211.91562Q419.95312 211.91562 419.45312 212.49374Q418.96875 213.05624 418.96875 214.18124ZM428.29688 219.79062L428.29688 211.18124L429.25 211.18124L429.25 211.97812Q429.59375 211.50937 430.01562 211.275Q430.45312 211.04062 431.0625 211.04062Q431.85938 211.04062 432.46875 211.44687Q433.07812 211.85312 433.375 212.60312Q433.6875 213.35312 433.6875 214.24374Q433.6875 215.19687 433.34375 215.9625Q433.01562 216.72812 432.35938 217.13437Q431.70312 217.54062 430.98438 217.54062Q430.45312 217.54062 430.03125 217.32187Q429.60938 217.0875 429.34375 216.75937L429.34375 219.79062L428.29688 219.79062ZM429.25 214.32187Q429.25 215.525 429.73438 216.10312Q430.21875 216.66562 430.90625 216.66562Q431.60938 216.66562 432.10938 216.07187Q432.60938 215.47812 432.60938 214.22812Q432.60938 213.04062 432.125 212.4625Q431.64062 211.86874 430.95312 211.86874Q430.28125 211.86874 429.76562 212.49374Q429.25 213.11874 429.25 214.32187ZM435.29688 217.4L435.29688 208.80624L436.34375 208.80624L436.34375 211.88437Q437.07812 211.04062 438.20312 211.04062Q438.90625 211.04062 439.40625 211.32187Q439.92188 211.5875 440.14062 212.07187Q440.35938 212.54062 440.35938 213.4625L440.35938 217.4L439.3125 217.4L439.3125 213.4625Q439.3125 212.66562 438.96875 212.30624Q438.625 211.94687 438.0 211.94687Q437.53125 211.94687 437.10938 212.19687Q436.70312 212.43124 436.51562 212.85312Q436.34375 213.25937 436.34375 213.99374L436.34375 217.4L435.29688 217.4ZM446.35938 216.63437Q445.76562 217.13437 445.21875 217.3375Q444.6875 217.54062 444.0625 217.54062Q443.03125 217.54062 442.48438 217.04062Q441.9375 216.54062 441.9375 215.75937Q441.9375 215.30624 442.14062 214.93124Q442.34375 214.54062 442.6875 214.32187Q443.03125 214.0875 443.45312 213.97812Q443.75 213.88437 444.39062 213.80624Q445.65625 213.66562 446.26562 213.44687Q446.26562 213.22812 446.26562 213.18124Q446.26562 212.525 445.96875 212.25937Q445.5625 211.91562 444.76562 211.91562Q444.03125 211.91562 443.67188 212.18124Q443.3125 212.43124 443.14062 213.0875L442.10938 212.94687Q442.25 212.29062 442.57812 211.88437Q442.90625 211.47812 443.51562 211.25937Q444.125 211.04062 444.92188 211.04062Q445.71875 211.04062 446.21875 211.22812Q446.71875 211.41562 446.95312 211.69687Q447.1875 211.97812 447.28125 212.41562Q447.32812 212.68124 447.32812 213.38437L447.32812 214.79062Q447.32812 216.25937 447.39062 216.65Q447.46875 217.04062 447.67188 217.4L446.5625 217.4Q446.40625 217.07187 446.35938 216.63437ZM446.26562 214.275Q445.6875 214.50937 444.54688 214.68124Q443.89062 214.775 443.625 214.9Q443.35938 215.00937 443.20312 215.22812Q443.0625 215.44687 443.0625 215.72812Q443.0625 216.15 443.375 216.43124Q443.70312 216.7125 444.3125 216.7125Q444.92188 216.7125 445.39062 216.44687Q445.875 216.18124 446.09375 215.7125Q446.26562 215.35312 446.26562 214.66562L446.26562 214.275ZM444.20312 210.4L444.98438 208.75937L446.375 208.75937L445.07812 210.4L444.20312 210.4ZM449.29688 219.79062L449.29688 211.18124L450.25 211.18124L450.25 211.97812Q450.59375 211.50937 451.01562 211.275Q451.45312 211.04062 452.0625 211.04062Q452.85938 211.04062 453.46875 211.44687Q454.07812 211.85312 454.375 212.60312Q454.6875 213.35312 454.6875 214.24374Q454.6875 215.19687 454.34375 215.9625Q454.01562 216.72812 453.35938 217.13437Q452.70312 217.54062 451.98438 217.54062Q451.45312 217.54062 451.03125 217.32187Q450.60938 217.0875 450.34375 216.75937L450.34375 219.79062L449.29688 219.79062ZM450.25 214.32187Q450.25 215.525 450.73438 216.10312Q451.21875 216.66562 451.90625 216.66562Q452.60938 216.66562 453.10938 216.07187Q453.60938 215.47812 453.60938 214.22812Q453.60938 213.04062 453.125 212.4625Q452.64062 211.86874 451.95312 211.86874Q451.28125 211.86874 450.76562 212.49374Q450.25 213.11874 450.25 214.32187ZM461.59375 216.4625L461.75 217.38437Q461.29688 217.47812 460.95312 217.47812Q460.375 217.47812 460.0625 217.30624Q459.75 217.11874 459.60938 216.82187Q459.48438 216.525 459.48438 215.57187L459.48438 211.99374L458.71875 211.99374L458.71875 211.18124L459.48438 211.18124L459.48438 209.63437L460.53125 209.00937L460.53125 211.18124L461.59375 211.18124L461.59375 211.99374L460.53125 211.99374L460.53125 215.63437Q460.53125 216.0875 460.57812 216.2125Q460.64062 216.3375 460.76562 216.41562Q460.89062 216.49374 461.125 216.49374Q461.3125 216.49374 461.59375 216.4625ZM462.28125 217.4L462.28125 211.18124L463.23438 211.18124L463.23438 212.11874Q463.59375 211.4625 463.89062 211.25937Q464.20312 211.04062 464.57812 211.04062Q465.10938 211.04062 465.65625 211.36874L465.29688 212.35312Q464.90625 212.11874 464.53125 212.11874Q464.17188 212.11874 463.89062 212.3375Q463.625 212.54062 463.51562 212.91562Q463.32812 213.47812 463.32812 214.13437L463.32812 217.4L462.28125 217.4ZM470.375 217.4L470.375 216.47812Q469.64062 217.54062 468.39062 217.54062Q467.84375 217.54062 467.35938 217.3375Q466.89062 217.11874 466.65625 216.80624Q466.42188 216.47812 466.32812 216.00937Q466.26562 215.7125 466.26562 215.025L466.26562 211.18124L467.32812 211.18124L467.32812 214.63437Q467.32812 215.44687 467.39062 215.74374Q467.48438 216.15 467.79688 216.4Q468.125 216.63437 468.60938 216.63437Q469.07812 216.63437 469.48438 216.4Q469.90625 216.15 470.07812 215.72812Q470.26562 215.30624 470.26562 214.50937L470.26562 211.18124L471.3125 211.18124L471.3125 217.4L470.375 217.4ZM473.25 219.79062L473.125 218.80624Q473.46875 218.9 473.73438 218.9Q474.07812 218.9 474.28125 218.775Q474.5 218.66562 474.64062 218.4625Q474.73438 218.29062 474.96875 217.66562Q474.98438 217.5875 475.0625 217.41562L472.6875 211.18124L473.82812 211.18124L475.125 214.775Q475.375 215.4625 475.57812 216.22812Q475.76562 215.49374 476.01562 214.80624L477.34375 211.18124L478.39062 211.18124L476.03125 217.50937Q475.64062 218.525 475.4375 218.91562Q475.15625 219.44687 474.78125 219.68124Q474.42188 219.93124 473.92188 219.93124Q473.625 219.93124 473.25 219.79062ZM482.54688 215.4L483.64062 215.525Q483.39062 216.47812 482.6875 217.00937Q481.98438 217.54062 480.90625 217.54062Q479.54688 217.54062 478.73438 216.69687Q477.9375 215.85312 477.9375 214.3375Q477.9375 212.775 478.75 211.91562Q479.5625 211.04062 480.84375 211.04062Q482.09375 211.04062 482.875 211.88437Q483.67188 212.72812 483.67188 214.275Q483.67188 214.36874 483.67188 214.55624L479.03125 214.55624Q479.09375 215.5875 479.60938 216.13437Q480.125 216.66562 480.90625 216.66562Q481.48438 216.66562 481.89062 216.36874Q482.3125 216.05624 482.54688 215.4ZM479.09375 213.69687L482.5625 213.69687Q482.5 212.9 482.17188 212.50937Q481.65625 211.9 480.85938 211.9Q480.125 211.9 479.625 212.38437Q479.14062 212.86874 479.09375 213.69687ZM480.82812 209.4L480.17188 210.4L478.95312 210.4L480.21875 208.75937L481.34375 208.75937L482.67188 210.4L481.46875 210.4L480.82812 209.4ZM481.34375 208.3375L480.48438 208.3375L479.14062 206.69687L480.54688 206.69687L481.34375 208.3375ZM485.29688 217.4L485.29688 211.18124L486.23438 211.18124L486.23438 212.05624Q486.92188 211.04062 488.21875 211.04062Q488.78125 211.04062 489.25 211.24374Q489.73438 211.44687 489.96875 211.775Q490.20312 212.10312 490.29688 212.54062Q490.34375 212.8375 490.34375 213.57187L490.34375 217.4L489.29688 217.4L489.29688 213.61874Q489.29688 212.9625 489.17188 212.65Q489.04688 212.3375 488.73438 212.15Q488.42188 211.94687 488.0 211.94687Q487.32812 211.94687 486.82812 212.38437Q486.34375 212.80624 486.34375 213.99374L486.34375 217.4L485.29688 217.4ZM497.59375 216.4625L497.75 217.38437Q497.29688 217.47812 496.95312 217.47812Q496.375 217.47812 496.0625 217.30624Q495.75 217.11874 495.60938 216.82187Q495.48438 216.525 495.48438 215.57187L495.48438 211.99374L494.71875 211.99374L494.71875 211.18124L495.48438 211.18124L495.48438 209.63437L496.53125 209.00937L496.53125 211.18124L497.59375 211.18124L497.59375 211.99374L496.53125 211.99374L496.53125 215.63437Q496.53125 216.0875 496.57812 216.2125Q496.64062 216.3375 496.76562 216.41562Q496.89062 216.49374 497.125 216.49374Q497.3125 216.49374 497.59375 216.4625ZM498.29688 217.4L498.29688 208.80624L499.34375 208.80624L499.34375 211.88437Q500.07812 211.04062 501.20312 211.04062Q501.90625 211.04062 502.40625 211.32187Q502.92188 211.5875 503.14062 212.07187Q503.35938 212.54062 503.35938 213.4625L503.35938 217.4L502.3125 217.4L502.3125 213.4625Q502.3125 212.66562 501.96875 212.30624Q501.625 211.94687 501.0 211.94687Q500.53125 211.94687 500.10938 212.19687Q499.70312 212.43124 499.51562 212.85312Q499.34375 213.25937 499.34375 213.99374L499.34375 217.4L498.29688 217.4ZM504.90625 214.29062Q504.90625 212.55624 505.85938 211.72812Q506.65625 211.04062 507.8125 211.04062Q509.09375 211.04062 509.90625 211.88437Q510.73438 212.7125 510.73438 214.19687Q510.73438 215.4 510.375 216.0875Q510.01562 216.775 509.3125 217.16562Q508.625 217.54062 507.8125 217.54062Q506.51562 217.54062 505.70312 216.7125Q504.90625 215.86874 504.90625 214.29062ZM505.98438 214.29062Q505.98438 215.47812 506.5 216.07187Q507.03125 216.66562 507.8125 216.66562Q508.60938 216.66562 509.125 216.07187Q509.64062 215.47812 509.64062 214.25937Q509.64062 213.10312 509.10938 212.50937Q508.59375 211.91562 507.8125 211.91562Q507.03125 211.91562 506.5 212.50937Q505.98438 213.0875 505.98438 214.29062ZM507.82812 209.4L507.17188 210.4L505.95312 210.4L507.21875 208.75937L508.34375 208.75937L509.67188 210.4L508.46875 210.4L507.82812 209.4ZM508.01562 206.69687L509.42188 206.69687L508.07812 208.3375L507.21875 208.3375L508.01562 206.69687ZM512.2969 217.4L512.2969 211.18124L513.2344 211.18124L513.2344 212.05624Q513.9219 211.04062 515.21875 211.04062Q515.78125 211.04062 516.25 211.24374Q516.7344 211.44687 516.96875 211.775Q517.2031 212.10312 517.2969 212.54062Q517.34375 212.8375 517.34375 213.57187L517.34375 217.4L516.2969 217.4L516.2969 213.61874Q516.2969 212.9625 516.1719 212.65Q516.0469 212.3375 515.7344 212.15Q515.4219 211.94687 515.0 211.94687Q514.3281 211.94687 513.8281 212.38437Q513.34375 212.80624 513.34375 213.99374L513.34375 217.4L512.2969 217.4ZM519.09375 217.91562L520.125 218.07187Q520.1875 218.54062 520.4844 218.75937Q520.875 219.05624 521.5469 219.05624Q522.28125 219.05624 522.6719 218.75937Q523.0781 218.4625 523.21875 217.94687Q523.3125 217.61874 523.2969 216.5875Q522.6094 217.4 521.5781 217.4Q520.2969 217.4 519.59375 216.47812Q518.8906 215.54062 518.8906 214.25937Q518.8906 213.36874 519.2031 212.61874Q519.53125 211.85312 520.1406 211.44687Q520.75 211.04062 521.5781 211.04062Q522.6875 211.04062 523.40625 211.93124L523.40625 211.18124L524.375 211.18124L524.375 216.55624Q524.375 218.00937 524.0781 218.61874Q523.78125 219.22812 523.1406 219.57187Q522.5 219.93124 521.5625 219.93124Q520.4531 219.93124 519.7656 219.43124Q519.0781 218.93124 519.09375 217.91562ZM519.96875 214.18124Q519.96875 215.4 520.4531 215.9625Q520.9375 216.525 521.6719 216.525Q522.40625 216.525 522.8906 215.9625Q523.3906 215.4 523.3906 214.2125Q523.3906 213.07187 522.875 212.49374Q522.375 211.91562 521.65625 211.91562Q520.9531 211.91562 520.4531 212.49374Q519.96875 213.05624 519.96875 214.18124Z" fill-rule="nonzero"/><path stroke="#0000ff" stroke-width="4.0" stroke-linecap="butt" d="M541.5 213.4L553.5 213.4" fill-rule="nonzero"/><path fill="#1a1a1a" d="M562.4219 217.4L562.4219 208.80624L565.6719 208.80624Q566.5156 208.80624 566.96875 208.88437Q567.6094 208.99374 568.03125 209.29062Q568.46875 209.5875 568.71875 210.11874Q568.9844 210.65 568.9844 211.29062Q568.9844 212.38437 568.28125 213.15Q567.59375 213.9 565.7656 213.9L563.5625 213.9L563.5625 217.4L562.4219 217.4ZM563.5625 212.9L565.78125 212.9Q566.8906 212.9 567.34375 212.49374Q567.8125 212.07187 567.8125 211.32187Q567.8125 210.79062 567.53125 210.41562Q567.2656 210.025 566.8281 209.9Q566.53125 209.82187 565.7656 209.82187L563.5625 209.82187L563.5625 212.9ZM570.2969 217.4L570.2969 208.80624L571.34375 208.80624L571.34375 211.88437Q572.0781 211.04062 573.2031 211.04062Q573.90625 211.04062 574.40625 211.32187Q574.9219 211.5875 575.1406 212.07187Q575.3594 212.54062 575.3594 213.4625L575.3594 217.4L574.3125 217.4L574.3125 213.4625Q574.3125 212.66562 573.96875 212.30624Q573.625 211.94687 573.0 211.94687Q572.53125 211.94687 572.1094 212.19687Q571.7031 212.43124 571.5156 212.85312Q571.34375 213.25937 571.34375 213.99374L571.34375 217.4L570.2969 217.4ZM583.0469 212.4L583.0469 211.18124L584.1719 211.18124L584.1719 212.15Q584.1719 213.05624 583.9531 213.43124Q583.4219 214.36874 582.3125 214.47812L582.3125 217.4L581.375 217.4L581.375 216.47812Q580.6406 217.54062 579.3906 217.54062Q578.84375 217.54062 578.3594 217.3375Q577.8906 217.11874 577.65625 216.80624Q577.4219 216.47812 577.3281 216.00937Q577.2656 215.69687 577.2656 215.025L577.2656 211.18124L578.3281 211.18124L578.3281 214.63437Q578.3281 215.4625 578.3906 215.74374Q578.59375 216.63437 579.6094 216.63437Q580.09375 216.63437 580.5 216.38437Q580.9219 216.13437 581.09375 215.72812Q581.2656 215.30624 581.2656 214.50937L581.2656 211.18124L582.3125 211.18124L582.3125 214.04062Q583.0625 213.9 583.4219 213.3375Q583.59375 213.0875 583.59375 212.4L583.0469 212.4ZM585.9844 214.29062Q585.9844 215.44687 586.5 216.07187Q587.0 216.66562 587.8125 216.66562Q588.6406 216.66562 589.125 216.07187Q589.6406 215.43124 589.6406 214.25937Q589.6406 213.13437 589.125 212.50937Q588.625 211.91562 587.8125 211.91562Q586.9844 211.91562 586.5 212.49374Q585.9844 213.13437 585.9844 214.29062ZM590.875 212.24374L590.875 211.025L592.0 211.025L592.0 211.99374Q592.0 212.7125 591.78125 213.10312Q591.4844 213.60312 590.7344 214.025Q590.7344 214.11874 590.7344 214.19687Q590.7344 216.38437 589.3281 217.16562Q588.625 217.54062 587.8125 217.54062Q586.4844 217.54062 585.7031 216.69687Q584.90625 215.8375 584.90625 214.29062Q584.90625 212.55624 585.8594 211.72812Q586.65625 211.04062 587.8125 211.04062Q589.09375 211.04062 589.9219 211.86874Q590.53125 212.50937 590.6875 213.525Q591.0781 213.275 591.25 213.00937Q591.4219 212.74374 591.4219 212.24374L590.875 212.24374ZM593.2969 217.4L593.2969 211.18124L594.2344 211.18124L594.2344 212.05624Q594.9219 211.04062 596.21875 211.04062Q596.78125 211.04062 597.25 211.24374Q597.7344 211.44687 597.96875 211.775Q598.2031 212.10312 598.2969 212.54062Q598.34375 212.8375 598.34375 213.57187L598.34375 217.4L597.2969 217.4L597.2969 213.61874Q597.2969 212.9625 597.1719 212.65Q597.0469 212.3375 596.7344 212.15Q596.4219 211.94687 596.0 211.94687Q595.3281 211.94687 594.8281 212.38437Q594.34375 212.80624 594.34375 213.99374L594.34375 217.4L593.2969 217.4ZM600.09375 217.91562L601.125 218.07187Q601.1875 218.54062 601.4844 218.75937Q601.875 219.05624 602.5469 219.05624Q603.28125 219.05624 603.6719 218.75937Q604.0781 218.4625 604.21875 217.94687Q604.3125 217.61874 604.2969 216.5875Q603.6094 217.4 602.5781 217.4Q601.2969 217.4 600.59375 216.47812Q599.8906 215.54062 599.8906 214.25937Q599.8906 213.36874 600.2031 212.61874Q600.53125 211.85312 601.1406 211.44687Q601.75 211.04062 602.5781 211.04062Q603.6875 211.04062 604.40625 211.93124L604.40625 211.18124L605.375 211.18124L605.375 216.55624Q605.375 218.00937 605.0781 218.61874Q604.78125 219.22812 604.1406 219.57187Q603.5 219.93124 602.5625 219.93124Q601.4531 219.93124 600.7656 219.43124Q600.0781 218.93124 600.09375 217.91562ZM600.96875 214.18124Q600.96875 215.4 601.4531 215.9625Q601.9375 216.525 602.6719 216.525Q603.40625 216.525 603.8906 215.9625Q604.3906 215.4 604.3906 214.2125Q604.3906 213.07187 603.875 212.49374Q603.375 211.91562 602.65625 211.91562Q601.9531 211.91562 601.4531 212.49374Q600.96875 213.05624 600.96875 214.18124ZM610.2969 219.79062L610.2969 211.18124L611.25 211.18124L611.25 211.97812Q611.59375 211.50937 612.0156 211.275Q612.4531 211.04062 613.0625 211.04062Q613.8594 211.04062 614.46875 211.44687Q615.0781 211.85312 615.375 212.60312Q615.6875 213.35312 615.6875 214.24374Q615.6875 215.19687 615.34375 215.9625Q615.0156 216.72812 614.3594 217.13437Q613.7031 217.54062 612.9844 217.54062Q612.4531 217.54062 612.03125 217.32187Q611.6094 217.0875 611.34375 216.75937L611.34375 219.79062L610.2969 219.79062ZM611.25 214.32187Q611.25 215.525 611.7344 216.10312Q612.21875 216.66562 612.90625 216.66562Q613.6094 216.66562 614.1094 216.07187Q614.6094 215.47812 614.6094 214.22812Q614.6094 213.04062 614.125 212.4625Q613.6406 211.86874 612.9531 211.86874Q612.28125 211.86874 611.7656 212.49374Q611.25 213.11874 611.25 214.32187ZM617.2969 217.4L617.2969 208.80624L618.34375 208.80624L618.34375 211.88437Q619.0781 211.04062 620.2031 211.04062Q620.90625 211.04062 621.40625 211.32187Q621.9219 211.5875 622.1406 212.07187Q622.3594 212.54062 622.3594 213.4625L622.3594 217.4L621.3125 217.4L621.3125 213.4625Q621.3125 212.66562 620.96875 212.30624Q620.625 211.94687 620.0 211.94687Q619.53125 211.94687 619.1094 212.19687Q618.7031 212.43124 618.5156 212.85312Q618.34375 213.25937 618.34375 213.99374L618.34375 217.4L617.2969 217.4ZM628.3594 216.63437Q627.7656 217.13437 627.21875 217.3375Q626.6875 217.54062 626.0625 217.54062Q625.03125 217.54062 624.4844 217.04062Q623.9375 216.54062 623.9375 215.75937Q623.9375 215.30624 624.1406 214.93124Q624.34375 214.54062 624.6875 214.32187Q625.03125 214.0875 625.4531 213.97812Q625.75 213.88437 626.3906 213.80624Q627.65625 213.66562 628.2656 213.44687Q628.2656 213.22812 628.2656 213.18124Q628.2656 212.525 627.96875 212.25937Q627.5625 211.91562 626.7656 211.91562Q626.03125 211.91562 625.6719 212.18124Q625.3125 212.43124 625.1406 213.0875L624.1094 212.94687Q624.25 212.29062 624.5781 211.88437Q624.90625 211.47812 625.5156 211.25937Q626.125 211.04062 626.9219 211.04062Q627.71875 211.04062 628.21875 211.22812Q628.71875 211.41562 628.9531 211.69687Q629.1875 211.97812 629.28125 212.41562Q629.3281 212.68124 629.3281 213.38437L629.3281 214.79062Q629.3281 216.25937 629.3906 216.65Q629.46875 217.04062 629.6719 217.4L628.5625 217.4Q628.40625 217.07187 628.3594 216.63437ZM628.2656 214.275Q627.6875 214.50937 626.5469 214.68124Q625.8906 214.775 625.625 214.9Q625.3594 215.00937 625.2031 215.22812Q625.0625 215.44687 625.0625 215.72812Q625.0625 216.15 625.375 216.43124Q625.7031 216.7125 626.3125 216.7125Q626.9219 216.7125 627.3906 216.44687Q627.875 216.18124 628.09375 215.7125Q628.2656 215.35312 628.2656 214.66562L628.2656 214.275ZM626.2031 210.4L626.9844 208.75937L628.375 208.75937L627.0781 210.4L626.2031 210.4ZM631.2969 219.79062L631.2969 211.18124L632.25 211.18124L632.25 211.97812Q632.59375 211.50937 633.0156 211.275Q633.4531 211.04062 634.0625 211.04062Q634.8594 211.04062 635.46875 211.44687Q636.0781 211.85312 636.375 212.60312Q636.6875 213.35312 636.6875 214.24374Q636.6875 215.19687 636.34375 215.9625Q636.0156 216.72812 635.3594 217.13437Q634.7031 217.54062 633.9844 217.54062Q633.4531 217.54062 633.03125 217.32187Q632.6094 217.0875 632.34375 216.75937L632.34375 219.79062L631.2969 219.79062ZM632.25 214.32187Q632.25 215.525 632.7344 216.10312Q633.21875 216.66562 633.90625 216.66562Q634.6094 216.66562 635.1094 216.07187Q635.6094 215.47812 635.6094 214.22812Q635.6094 213.04062 635.125 212.4625Q634.6406 211.86874 633.9531 211.86874Q633.28125 211.86874 632.7656 212.49374Q632.25 213.11874 632.25 214.32187ZM645.2656 210.25937L643.2344 210.25937L643.2344 209.47812L645.2656 209.47812L645.2656 208.80624L646.3125 208.80624L646.3125 209.47812L647.15625 209.47812L647.15625 210.25937L646.3125 210.25937L646.3125 217.4L645.3281 217.4L645.3281 216.61874Q644.7344 217.54062 643.59375 217.54062Q642.84375 217.54062 642.21875 217.13437Q641.59375 216.7125 641.25 215.97812Q640.90625 215.24374 640.90625 214.29062Q640.90625 213.36874 641.21875 212.60312Q641.53125 211.8375 642.15625 211.44687Q642.78125 211.04062 643.5469 211.04062Q644.1094 211.04062 644.5469 211.275Q644.9844 211.50937 645.2656 211.88437L645.2656 210.25937ZM642.0 214.29062Q642.0 215.49374 642.5 216.0875Q643.0 216.66562 643.6875 216.66562Q644.375 216.66562 644.8594 216.10312Q645.34375 215.54062 645.34375 214.38437Q645.34375 213.10312 644.84375 212.50937Q644.3594 211.91562 643.6406 211.91562Q642.9375 211.91562 642.46875 212.49374Q642.0 213.05624 642.0 214.29062ZM652.5469 215.4L653.6406 215.525Q653.3906 216.47812 652.6875 217.00937Q651.9844 217.54062 650.90625 217.54062Q649.5469 217.54062 648.7344 216.69687Q647.9375 215.85312 647.9375 214.3375Q647.9375 212.775 648.75 211.91562Q649.5625 211.04062 650.84375 211.04062Q652.09375 211.04062 652.875 211.88437Q653.6719 212.72812 653.6719 214.275Q653.6719 214.36874 653.6719 214.55624L649.03125 214.55624Q649.09375 215.5875 649.6094 216.13437Q650.125 216.66562 650.90625 216.66562Q651.4844 216.66562 651.8906 216.36874Q652.3125 216.05624 652.5469 215.4ZM649.09375 213.69687L652.5625 213.69687Q652.5 212.9 652.1719 212.50937Q651.65625 211.9 650.8594 211.9Q650.125 211.9 649.625 212.38437Q649.1406 212.86874 649.09375 213.69687ZM650.8281 209.4L650.1719 210.4L648.9531 210.4L650.21875 208.75937L651.34375 208.75937L652.6719 210.4L651.46875 210.4L650.8281 209.4ZM651.34375 208.3375L650.4844 208.3375L649.1406 206.69687L650.5469 206.69687L651.34375 208.3375ZM657.59375 217.4L659.8594 214.16562L657.7656 211.18124L659.0781 211.18124L660.03125 212.63437Q660.2969 213.05624 660.46875 213.3375Q660.71875 212.94687 660.9375 212.65L661.9844 211.18124L663.25 211.18124L661.09375 214.10312L663.40625 217.4L662.125 217.4L660.84375 215.4625L660.5 214.94687L658.8594 217.4L657.59375 217.4ZM667.375 217.4L667.375 216.47812Q666.6406 217.54062 665.3906 217.54062Q664.84375 217.54062 664.3594 217.3375Q663.8906 217.11874 663.65625 216.80624Q663.4219 216.47812 663.3281 216.00937Q663.2656 215.7125 663.2656 215.025L663.2656 211.18124L664.3281 211.18124L664.3281 214.63437Q664.3281 215.44687 664.3906 215.74374Q664.4844 216.15 664.7969 216.4Q665.125 216.63437 665.6094 216.63437Q666.0781 216.63437 666.4844 216.4Q666.90625 216.15 667.0781 215.72812Q667.2656 215.30624 667.2656 214.50937L667.2656 211.18124L668.3125 211.18124L668.3125 217.4L667.375 217.4ZM674.3594 216.63437Q673.7656 217.13437 673.21875 217.3375Q672.6875 217.54062 672.0625 217.54062Q671.03125 217.54062 670.4844 217.04062Q669.9375 216.54062 669.9375 215.75937Q669.9375 215.30624 670.1406 214.93124Q670.34375 214.54062 670.6875 214.32187Q671.03125 214.0875 671.4531 213.97812Q671.75 213.88437 672.3906 213.80624Q673.65625 213.66562 674.2656 213.44687Q674.2656 213.22812 674.2656 213.18124Q674.2656 212.525 673.96875 212.25937Q673.5625 211.91562 672.7656 211.91562Q672.03125 211.91562 671.6719 212.18124Q671.3125 212.43124 671.1406 213.0875L670.1094 212.94687Q670.25 212.29062 670.5781 211.88437Q670.90625 211.47812 671.5156 211.25937Q672.125 211.04062 672.9219 211.04062Q673.71875 211.04062 674.21875 211.22812Q674.71875 211.41562 674.9531 211.69687Q675.1875 211.97812 675.28125 212.41562Q675.3281 212.68124 675.3281 213.38437L675.3281 214.79062Q675.3281 216.25937 675.3906 216.65Q675.46875 217.04062 675.6719 217.4L674.5625 217.4Q674.40625 217.07187 674.3594 216.63437ZM674.2656 214.275Q673.6875 214.50937 672.5469 214.68124Q671.8906 214.775 671.625 214.9Q671.3594 215.00937 671.2031 215.22812Q671.0625 215.44687 671.0625 215.72812Q671.0625 216.15 671.375 216.43124Q671.7031 216.7125 672.3125 216.7125Q672.9219 216.7125 673.3906 216.44687Q673.875 216.18124 674.09375 215.7125Q674.2656 215.35312 674.2656 214.66562L674.2656 214.275ZM672.8125 209.4L672.15625 210.4L670.9375 210.4L672.2031 208.75937L673.3281 208.75937L674.65625 210.4L673.4531 210.4L672.8125 209.4ZM673.0 206.69687L674.40625 206.69687L673.0625 208.3375L672.2031 208.3375L673.0 206.69687ZM679.59375 216.4625L679.75 217.38437Q679.2969 217.47812 678.9531 217.47812Q678.375 217.47812 678.0625 217.30624Q677.75 217.11874 677.6094 216.82187Q677.4844 216.525 677.4844 215.57187L677.4844 211.99374L676.71875 211.99374L676.71875 211.18124L677.4844 211.18124L677.4844 209.63437L678.53125 209.00937L678.53125 211.18124L679.59375 211.18124L679.59375 211.99374L678.53125 211.99374L678.53125 215.63437Q678.53125 216.0875 678.5781 216.2125Q678.6406 216.3375 678.7656 216.41562Q678.8906 216.49374 679.125 216.49374Q679.3125 216.49374 679.59375 216.4625Z" fill-rule="nonzero"/></svg>