<svg version="1.1" viewBox="0.0 0.0 1038.0 281.0" fill="none" stroke="none" stroke-linecap="square" stroke-miterlimit="10" width="1038" height="281" xmlns:xlink="http://www.w3.org/1999/xlink" xmlns="http://www.w3.org/2000/svg"><path fill="#ffffff" d="M0 0L1038.0 0L1038.0 281.0L0 281.0L0 0Z" fill-rule="nonzero"/><path stroke="#333333" stroke-width="1.0" stroke-linecap="butt" d="M96.5 181.5L1023.5 181.5" fill-rule="nonzero"/><path stroke="#cccccc" stroke-width="1.0" stroke-linecap="butt" d="M96.5 128.5L1023.5 128.5" fill-rule="nonzero"/><path stroke="#cccccc" stroke-width="1.0" stroke-linecap="butt" d="M96.5 74.5L1023.5 74.5" fill-rule="nonzero"/><path stroke="#cccccc" stroke-width="1.0" stroke-linecap="butt" d="M96.5 21.5L1023.5 21.5" fill-rule="nonzero"/><clipPath id="id_0"><path d="M96.05 21.05L1023.95 21.05L1023.95 181.58333L96.05 181.58333L96.05 21.05Z" clip-rule="nonzero"/></clipPath><path stroke="#ff0000" stroke-width="2.0" stroke-linecap="butt" stroke-dasharray="8.0,6.0" clip-path="url(#id_0)" d="M108.9375 142.0033L134.7125 96.211975L160.4875 129.75482L186.2625 108.16426L212.0375 133.09743L237.8125 107.77165L263.5875 161.17235L289.3625 162.67596L315.1375 159.03146L340.9125 119.28441L366.6875 129.55855L392.4625 158.2589L418.2375 168.6794L444.0125 111.858826L469.7875 155.62502L495.5625 161.63205L521.3375 164.71979L547.1125 165.47993L572.8875 165.99072L598.6625 175.51747L624.4375 178.81465L650.2125 178.79953L675.9875 178.76982L701.7625 177.33087L727.5375 175.42955L753.3125 163.45145L779.0875 163.22165L804.8625 177.15048L830.6375 168.50804L856.4125 155.09254L882.1875 115.42599L907.9625 76.562996L933.7375 35.598072L959.5125 50.75264L985.2875 135.21666L1011.0625 151.1014" fill-rule="nonzero"/><path stroke="#0000ff" stroke-width="2.0" stroke-linecap="butt" clip-path="url(#id_0)" d="M108.9375 157.88211L134.7125 154.98457L160.4875 164.87143L186.2625 160.99185L212.0375 171.30731L237.8125 166.94464L263.5875 53.29486L289.3625 115.26462L315.1375 168.6232L340.9125 153.92932L366.6875 102.35825L392.4625 146.35313L418.2375 162.85L444.0125 168.99118L469.7875 176.5998L495.5625 177.27182L521.3375 134.53189L547.1125 177.84738L572.8875 177.78023L598.6625 174.26202L624.4375 177.81352L650.2125 176.82863L675.9875 175.3692L701.7625 179.49365L727.5375 177.10265L753.3125 168.4561L779.0875 176.55908L804.8625 173.78378L830.6375 175.41678L856.4125 172.09032L882.1875 179.83644L907.9625 165.86858L933.7375 166.68344L959.5125 166.22005L985.2875 171.29105L1011.0625 174.51828" fill-rule="nonzero"/><path fill="#000000" fill-opacity="0.0" clip-path="url(#id_0)" d="M111.9375 142.0033C111.9375 143.66016 110.59435 145.0033 108.9375 145.0033C107.28065 145.0033 105.9375 143.66016 105.9375 142.0033C105.9375 140.34644 107.28065 139.0033 108.9375 139.0033C110.59435 139.0033 111.9375 140.34644 111.9375 142.0033Z" fill-rule="nonzero"/><path fill="#000000" fill-opacity="0.0" clip-path="url(#id_0)" d="M137.7125 96.211975C137.7125 97.86883 136.36935 99.211975 134.7125 99.211975C133.05565 99.211975 131.7125 97.86883 131.7125 96.211975C131.7125 94.55512 133.05565 93.211975 134.7125 93.211975C136.36935 93.211975 137.7125 94.55512 137.7125 96.211975Z" fill-rule="nonzero"/><path fill="#000000" fill-opacity="0.0" clip-path="url(#id_0)" d="M163.4875 129.75482C163.4875 131.41167 162.14435 132.75482 160.4875 132.75482C158.83064 132.75482 157.4875 131.41167 157.4875 129.75482C157.4875 128.09796 158.83064 126.754814 160.4875 126.754814C162.14435 126.754814 163.4875 128.09796 163.4875 129.75482Z" fill-rule="nonzero"/><path fill="#000000" fill-opacity="0.0" clip-path="url(#id_0)" d="M189.2625 108.16426C189.2625 109.82111 187.91936 111.16426 186.2625 111.16426C184.60565 111.16426 183.2625 109.82111 183.2625 108.16426C183.2625 106.50741 184.60565 105.16426 186.2625 105.16426C187.91936 105.16426 189.2625 106.50741 189.2625 108.16426Z" fill-rule="nonzero"/><path fill="#000000" fill-opacity="0.0" clip-path="url(#id_0)" d="M215.0375 133.09743C215.0375 134.75429 213.69435 136.09743 212.0375 136.09743C210.38065 136.09743 209.0375 134.75429 209.0375 133.09743C209.0375 131.44058 210.38065 130.09743 212.0375 130.09743C213.69435 130.09743 215.0375 131.44058 215.0375 133.09743Z" fill-rule="nonzero"/><path fill="#000000" fill-opacity="0.0" clip-path="url(#id_0)" d="M240.8125 107.77165C240.8125 109.428505 239.46936 110.77165 237.8125 110.77165C236.15564 110.77165 234.8125 109.428505 234.8125 107.77165C234.8125 106.1148 236.15564 104.77165 237.8125 104.77165C239.46936 104.77165 240.8125 106.1148 240.8125 107.77165Z" fill-rule="nonzero"/><path fill="#000000" fill-opacity="0.0" clip-path="url(#id_0)" d="M266.5875 161.17235C266.5875 162.8292 265.24435 164.17235 263.5875 164.17235C261.93063 164.17235 260.5875 162.8292 260.5875 161.17235C260.5875 159.51549 261.93063 158.17235 263.5875 158.17235C265.24435 158.17235 266.5875 159.51549 266.5875 161.17235Z" fill-rule="nonzero"/><path fill="#000000" fill-opacity="0.0" clip-path="url(#id_0)" d="M292.3625 162.67596C292.3625 164.33281 291.01935 165.67596 289.3625 165.67596C287.70566 165.67596 286.3625 164.33281 286.3625 162.67596C286.3625 161.0191 287.70566 159.67596 289.3625 159.67596C291.01935 159.67596 292.3625 161.0191 292.3625 162.67596Z" fill-rule="nonzero"/><path fill="#000000" fill-opacity="0.0" clip-path="url(#id_0)" d="M318.1375 159.03146C318.1375 160.68831 316.79434 162.03146 315.1375 162.03146C313.48065 162.03146 312.1375 160.68831 312.1375 159.03146C312.1375 157.3746 313.48065 156.03146 315.1375 156.03146C316.79434 156.03146 318.1375 157.3746 318.1375 159.03146Z" fill-rule="nonzero"/><path fill="#000000" fill-opacity="0.0" clip-path="url(#id_0)" d="M343.9125 119.28441C343.9125 120.94126 342.56937 122.28441 340.9125 122.28441C339.25565 122.28441 337.9125 120.94126 337.9125 119.28441C337.9125 117.627556 339.25565 116.28441 340.9125 116.28441C342.56937 116.28441 343.9125 117.627556 343.9125 119.28441Z" fill-rule="nonzero"/><path fill="#000000" fill-opacity="0.0" clip-path="url(#id_0)" d="M369.6875 129.55855C369.6875 131.2154 368.34436 132.55855 366.6875 132.55855C365.03064 132.55855 363.6875 131.2154 363.6875 129.55855C363.6875 127.90169 365.03064 126.55854 366.6875 126.55854C368.34436 126.55854 369.6875 127.90169 369.6875 129.55855Z" fill-rule="nonzero"/><path fill="#000000" fill-opacity="0.0" clip-path="url(#id_0)" d="M395.4625 158.2589C395.4625 159.91574 394.11935 161.2589 392.4625 161.2589C390.80563 161.2589 389.4625 159.91574 389.4625 158.2589C389.4625 156.60204 390.80563 155.2589 392.4625 155.2589C394.11935 155.2589 395.4625 156.60204 395.4625 158.2589Z" fill-rule="nonzero"/><path fill="#000000" fill-opacity="0.0" clip-path="url(#id_0)" d="M421.2375 168.6794C421.2375 170.33624 419.89435 171.6794 418.2375 171.6794C416.58066 171.6794 415.2375 170.33624 415.2375 168.6794C415.2375 167.02254 416.58066 165.6794 418.2375 165.6794C419.89435 165.6794 421.2375 167.02254 421.2375 168.6794Z" fill-rule="nonzero"/><path fill="#000000" fill-opacity="0.0" clip-path="url(#id_0)" d="M447.0125 111.858826C447.0125 113.51568 445.66934 114.858826 444.0125 114.858826C442.35565 114.858826 441.0125 113.51568 441.0125 111.858826C441.0125 110.20197 442.35565 108.858826 444.0125 108.858826C445.66934 108.858826 447.0125 110.20197 447.0125 111.858826Z" fill-rule="nonzero"/><path fill="#000000" fill-opacity="0.0" clip-path="url(#id_0)" d="M472.7875 155.62502C472.7875 157.28186 471.44437 158.62502 469.7875 158.62502C468.13065 158.62502 466.7875 157.28186 466.7875 155.62502C466.7875 153.96815 468.13065 152.62502 469.7875 152.62502C471.44437 152.62502 472.7875 153.96815 472.7875 155.62502Z" fill-rule="nonzero"/><path fill="#000000" fill-opacity="0.0" clip-path="url(#id_0)" d="M498.5625 161.63205C498.5625 163.28891 497.21936 164.63205 495.5625 164.63205C493.90564 164.63205 492.5625 163.28891 492.5625 161.63205C492.5625 159.97519 493.90564 158.63205 495.5625 158.63205C497.21936 158.63205 498.5625 159.97519 498.5625 161.63205Z" fill-rule="nonzero"/><path fill="#000000" fill-opacity="0.0" clip-path="url(#id_0)" d="M524.3375 164.71979C524.3375 166.37663 522.9944 167.71979 521.3375 167.71979C519.68066 167.71979 518.3375 166.37663 518.3375 164.71979C518.3375 163.06293 519.68066 161.71979 521.3375 161.71979C522.9944 161.71979 524.3375 163.06293 524.3375 164.71979Z" fill-rule="nonzero"/><path fill="#000000" fill-opacity="0.0" clip-path="url(#id_0)" d="M550.1125 165.47993C550.1125 167.1368 548.76935 168.47993 547.1125 168.47993C545.4556 168.47993 544.1125 167.1368 544.1125 165.47993C544.1125 163.82309 545.4556 162.47993 547.1125 162.47993C548.76935 162.47993 550.1125 163.82309 550.1125 165.47993Z" fill-rule="nonzero"/><path fill="#000000" fill-opacity="0.0" clip-path="url(#id_0)" d="M575.8875 165.99072C575.8875 167.64758 574.5444 168.99072 572.8875 168.99072C571.23065 168.99072 569.8875 167.64758 569.8875 165.99072C569.8875 164.33386 571.23065 162.99072 572.8875 162.99072C574.5444 162.99072 575.8875 164.33386 575.8875 165.99072Z" fill-rule="nonzero"/><path fill="#000000" fill-opacity="0.0" clip-path="url(#id_0)" d="M601.6625 175.51747C601.6625 177.17433 600.31934 178.51747 598.6625 178.51747C597.0056 178.51747 595.6625 177.17433 595.6625 175.51747C595.6625 173.86063 597.0056 172.51747 598.6625 172.51747C600.31934 172.51747 601.6625 173.86063 601.6625 175.51747Z" fill-rule="nonzero"/><path fill="#000000" fill-opacity="0.0" clip-path="url(#id_0)" d="M627.4375 178.81465C627.4375 180.47151 626.09436 181.81465 624.4375 181.81465C622.78064 181.81465 621.4375 180.47151 621.4375 178.81465C621.4375 177.1578 622.78064 175.81465 624.4375 175.81465C626.09436 175.81465 627.4375 177.1578 627.4375 178.81465Z" fill-rule="nonzero"/><path fill="#000000" fill-opacity="0.0" clip-path="url(#id_0)" d="M653.2125 178.79953C653.2125 180.45638 651.8694 181.79953 650.2125 181.79953C648.55566 181.79953 647.2125 180.45638 647.2125 178.79953C647.2125 177.14267 648.55566 175.79953 650.2125 175.79953C651.8694 175.79953 653.2125 177.14267 653.2125 178.79953Z" fill-rule="nonzero"/><path fill="#000000" fill-opacity="0.0" clip-path="url(#id_0)" d="M678.9875 178.76982C678.9875 180.42667 677.64435 181.76982 675.9875 181.76982C674.3306 181.76982 672.9875 180.42667 672.9875 178.76982C672.9875 177.11296 674.3306 175.76982 675.9875 175.76982C677.64435 175.76982 678.9875 177.11296 678.9875 178.76982Z" fill-rule="nonzero"/><path fill="#000000" fill-opacity="0.0" clip-path="url(#id_0)" d="M704.7625 177.33087C704.7625 178.98773 703.4194 180.33087 701.7625 180.33087C700.10565 180.33087 698.7625 178.98773 698.7625 177.33087C698.7625 175.67401 700.10565 174.33087 701.7625 174.33087C703.4194 174.33087 704.7625 175.67401 704.7625 177.33087Z" fill-rule="nonzero"/><path fill="#000000" fill-opacity="0.0" clip-path="url(#id_0)" d="M730.5375 175.42955C730.5375 177.08641 729.19434 178.42955 727.5375 178.42955C725.8806 178.42955 724.5375 177.08641 724.5375 175.42955C724.5375 173.7727 725.8806 172.42955 727.5375 172.42955C729.19434 172.42955 730.5375 173.7727 730.5375 175.42955Z" fill-rule="nonzero"/><path fill="#000000" fill-opacity="0.0" clip-path="url(#id_0)" d="M756.3125 163.45145C756.3125 165.1083 754.96936 166.45145 753.3125 166.45145C751.65564 166.45145 750.3125 165.1083 750.3125 163.45145C750.3125 161.7946 751.65564 160.45145 753.3125 160.45145C754.96936 160.45145 756.3125 161.7946 756.3125 163.45145Z" fill-rule="nonzero"/><path fill="#000000" fill-opacity="0.0" clip-path="url(#id_0)" d="M782.0875 163.22165C782.0875 164.87851 780.7444 166.22165 779.0875 166.22165C777.43066 166.22165 776.0875 164.87851 776.0875 163.22165C776.0875 161.5648 777.43066 160.22165 779.0875 160.22165C780.7444 160.22165 782.0875 161.5648 782.0875 163.22165Z" fill-rule="nonzero"/><path fill="#000000" fill-opacity="0.0" clip-path="url(#id_0)" d="M807.8625 177.15048C807.8625 178.80734 806.51935 180.15048 804.8625 180.15048C803.2056 180.15048 801.8625 178.80734 801.8625 177.15048C801.8625 175.49362 803.2056 174.15048 804.8625 174.15048C806.51935 174.15048 807.8625 175.49362 807.8625 177.15048Z" fill-rule="nonzero"/><path fill="#000000" fill-opacity="0.0" clip-path="url(#id_0)" d="M833.6375 168.50804C833.6375 170.1649 832.2944 171.50804 830.6375 171.50804C828.98065 171.50804 827.6375 170.1649 827.6375 168.50804C827.6375 166.8512 828.98065 165.50804 830.6375 165.50804C832.2944 165.50804 833.6375 166.8512 833.6375 168.50804Z" fill-rule="nonzero"/><path fill="#000000" fill-opacity="0.0" clip-path="url(#id_0)" d="M859.4125 155.09254C859.4125 156.74939 858.06934 158.09254 856.4125 158.09254C854.7556 158.09254 853.4125 156.74939 853.4125 155.09254C853.4125 153.43568 854.7556 152.09254 856.4125 152.09254C858.06934 152.09254 859.4125 153.43568 859.4125 155.09254Z" fill-rule="nonzero"/><path fill="#000000" fill-opacity="0.0" clip-path="url(#id_0)" d="M885.1875 115.42599C885.1875 117.08284 883.84436 118.42599 882.1875 118.42599C880.53064 118.42599 879.1875 117.08284 879.1875 115.42599C879.1875 113.769135 880.53064 112.42599 882.1875 112.42599C883.84436 112.42599 885.1875 113.769135 885.1875 115.42599Z" fill-rule="nonzero"/><path fill="#000000" fill-opacity="0.0" clip-path="url(#id_0)" d="M910.9625 76.562996C910.9625 78.21985 909.6194 79.562996 907.9625 79.562996C906.30566 79.562996 904.9625 78.21985 904.9625 76.562996C904.9625 74.90614 906.30566 73.562996 907.9625 73.562996C909.6194 73.562996 910.9625 74.90614 910.9625 76.562996Z" fill-rule="nonzero"/><path fill="#000000" fill-opacity="0.0" clip-path="url(#id_0)" d="M936.7375 35.598072C936.7375 37.254925 935.39435 38.598072 933.7375 38.598072C932.0806 38.598072 930.7375 37.254925 930.7375 35.598072C930.7375 33.94122 932.0806 32.598072 933.7375 32.598072C935.39435 32.598072 936.7375 33.94122 936.7375 35.598072Z" fill-rule="nonzero"/><path fill="#000000" fill-opacity="0.0" clip-path="url(#id_0)" d="M962.5125 50.75264C962.5125 52.409492 961.1694 53.75264 959.5125 53.75264C957.85565 53.75264 956.5125 52.409492 956.5125 50.75264C956.5125 49.095783 957.85565 47.75264 959.5125 47.75264C961.1694 47.75264 962.5125 49.095783 962.5125 50.75264Z" fill-rule="nonzero"/><path fill="#000000" fill-opacity="0.0" clip-path="url(#id_0)" d="M988.2875 135.21666C988.2875 136.87352 986.94434 138.21666 985.2875 138.21666C983.6306 138.21666 982.2875 136.87352 982.2875 135.21666C982.2875 133.5598 983.6306 132.21666 985.2875 132.21666C986.94434 132.21666 988.2875 133.5598 988.2875 135.21666Z" fill-rule="nonzero"/><path fill="#000000" fill-opacity="0.0" clip-path="url(#id_0)" d="M1014.0625 151.1014C1014.0625 152.75824 1012.71936 154.1014 1011.0625 154.1014C1009.40564 154.1014 1008.0625 152.75824 1008.0625 151.1014C1008.0625 149.44453 1009.40564 148.1014 1011.0625 148.1014C1012.71936 148.1014 1014.0625 149.44453 1014.0625 151.1014Z" fill-rule="nonzero"/><path fill="#000000" fill-opacity="0.0" clip-path="url(#id_0)" d="M111.9375 157.88211C111.9375 159.53897 110.59435 160.88211 108.9375 160.88211C107.28065 160.88211 105.9375 159.53897 105.9375 157.88211C105.9375 156.22527 107.28065 154.88211 108.9375 154.88211C110.59435 154.88211 111.9375 156.22527 111.9375 157.88211Z" fill-rule="nonzero"/><path fill="#000000" fill-opacity="0.0" clip-path="url(#id_0)" d="M137.7125 154.98457C137.7125 156.64143 136.36935 157.98457 134.7125 157.98457C133.05565 157.98457 131.7125 156.64143 131.7125 154.98457C131.7125 153.32771 133.05565 151.98457 134.7125 151.98457C136.36935 151.98457 137.7125 153.32771 137.7125 154.98457Z" fill-rule="nonzero"/><path fill="#000000" fill-opacity="0.0" clip-path="url(#id_0)" d="M163.4875 164.87143C163.4875 166.52829 162.14435 167.87143 160.4875 167.87143C158.83064 167.87143 157.4875 166.52829 157.4875 164.87143C157.4875 163.21458 158.83064 161.87143 160.4875 161.87143C162.14435 161.87143 163.4875 163.21458 163.4875 164.87143Z" fill-rule="nonzero"/><path fill="#000000" fill-opacity="0.0" clip-path="url(#id_0)" d="M189.2625 160.99185C189.2625 162.6487 187.91936 163.99185 186.2625 163.99185C184.60565 163.99185 183.2625 162.6487 183.2625 160.99185C183.2625 159.33499 184.60565 157.99185 186.2625 157.99185C187.91936 157.99185 189.2625 159.33499 189.2625 160.99185Z" fill-rule="nonzero"/><path fill="#000000" fill-opacity="0.0" clip-path="url(#id_0)" d="M215.0375 171.30731C215.0375 172.96417 213.69435 174.30731 212.0375 174.30731C210.38065 174.30731 209.0375 172.96417 209.0375 171.30731C209.0375 169.65047 210.38065 168.30731 212.0375 168.30731C213.69435 168.30731 215.0375 169.65047 215.0375 171.30731Z" fill-rule="nonzero"/><path fill="#000000" fill-opacity="0.0" clip-path="url(#id_0)" d="M240.8125 166.94464C240.8125 168.6015 239.46936 169.94464 237.8125 169.94464C236.15564 169.94464 234.8125 168.6015 234.8125 166.94464C234.8125 165.2878 236.15564 163.94464 237.8125 163.94464C239.46936 163.94464 240.8125 165.2878 240.8125 166.94464Z" fill-rule="nonzero"/><path fill="#000000" fill-opacity="0.0" clip-path="url(#id_0)" d="M266.5875 53.29486C266.5875 54.951714 265.24435 56.29486 263.5875 56.29486C261.93063 56.29486 260.5875 54.951714 260.5875 53.29486C260.5875 51.638004 261.93063 50.29486 263.5875 50.29486C265.24435 50.29486 266.5875 51.638004 266.5875 53.29486Z" fill-rule="nonzero"/><path fill="#000000" fill-opacity="0.0" clip-path="url(#id_0)" d="M292.3625 115.26462C292.3625 116.92147 291.01935 118.26462 289.3625 118.26462C287.70566 118.26462 286.3625 116.92147 286.3625 115.26462C286.3625 113.607765 287.70566 112.26462 289.3625 112.26462C291.01935 112.26462 292.3625 113.607765 292.3625 115.26462Z" fill-rule="nonzero"/><path fill="#000000" fill-opacity="0.0" clip-path="url(#id_0)" d="M318.1375 168.6232C318.1375 170.28004 316.79434 171.6232 315.1375 171.6232C313.48065 171.6232 312.1375 170.28004 312.1375 168.6232C312.1375 166.96634 313.48065 165.6232 315.1375 165.6232C316.79434 165.6232 318.1375 166.96634 318.1375 168.6232Z" fill-rule="nonzero"/><path fill="#000000" fill-opacity="0.0" clip-path="url(#id_0)" d="M343.9125 153.92932C343.9125 155.58618 342.56937 156.92932 340.9125 156.92932C339.25565 156.92932 337.9125 155.58618 337.9125 153.92932C337.9125 152.27248 339.25565 150.92932 340.9125 150.92932C342.56937 150.92932 343.9125 152.27248 343.9125 153.92932Z" fill-rule="nonzero"/><path fill="#000000" fill-opacity="0.0" clip-path="url(#id_0)" d="M369.6875 102.35825C369.6875 104.01511 368.34436 105.35825 366.6875 105.35825C365.03064 105.35825 363.6875 104.01511 363.6875 102.35825C363.6875 100.7014 365.03064 99.35825 366.6875 99.35825C368.34436 99.35825 369.6875 100.7014 369.6875 102.35825Z" fill-rule="nonzero"/><path fill="#000000" fill-opacity="0.0" clip-path="url(#id_0)" d="M395.4625 146.35313C395.4625 148.01 394.11935 149.35313 392.4625 149.35313C390.80563 149.35313 389.4625 148.01 389.4625 146.35313C389.4625 144.69629 390.80563 143.35313 392.4625 143.35313C394.11935 143.35313 395.4625 144.69629 395.4625 146.35313Z" fill-rule="nonzero"/><path fill="#000000" fill-opacity="0.0" clip-path="url(#id_0)" d="M421.2375 162.85C421.2375 164.50685 419.89435 165.85 418.2375 165.85C416.58066 165.85 415.2375 164.50685 415.2375 162.85C415.2375 161.19315 416.58066 159.85 418.2375 159.85C419.89435 159.85 421.2375 161.19315 421.2375 162.85Z" fill-rule="nonzero"/><path fill="#000000" fill-opacity="0.0" clip-path="url(#id_0)" d="M447.0125 168.99118C447.0125 170.64804 445.66934 171.99118 444.0125 171.99118C442.35565 171.99118 441.0125 170.64804 441.0125 168.99118C441.0125 167.33434 442.35565 165.99118 444.0125 165.99118C445.66934 165.99118 447.0125 167.33434 447.0125 168.99118Z" fill-rule="nonzero"/><path fill="#000000" fill-opacity="0.0" clip-path="url(#id_0)" d="M472.7875 176.5998C472.7875 178.25665 471.44437 179.5998 469.7875 179.5998C468.13065 179.5998 466.7875 178.25665 466.7875 176.5998C466.7875 174.94295 468.13065 173.5998 469.7875 173.5998C471.44437 173.5998 472.7875 174.94295 472.7875 176.5998Z" fill-rule="nonzero"/><path fill="#000000" fill-opacity="0.0" clip-path="url(#id_0)" d="M498.5625 177.27182C498.5625 178.92868 497.21936 180.27182 495.5625 180.27182C493.90564 180.27182 492.5625 178.92868 492.5625 177.27182C492.5625 175.61497 493.90564 174.27182 495.5625 174.27182C497.21936 174.27182 498.5625 175.61497 498.5625 177.27182Z" fill-rule="nonzero"/><path fill="#000000" fill-opacity="0.0" clip-path="url(#id_0)" d="M524.3375 134.53189C524.3375 136.18874 522.9944 137.53189 521.3375 137.53189C519.68066 137.53189 518.3375 136.18874 518.3375 134.53189C518.3375 132.87503 519.68066 131.53189 521.3375 131.53189C522.9944 131.53189 524.3375 132.87503 524.3375 134.53189Z" fill-rule="nonzero"/><path fill="#000000" fill-opacity="0.0" clip-path="url(#id_0)" d="M550.1125 177.84738C550.1125 179.50423 548.76935 180.84738 547.1125 180.84738C545.4556 180.84738 544.1125 179.50423 544.1125 177.84738C544.1125 176.19052 545.4556 174.84738 547.1125 174.84738C548.76935 174.84738 550.1125 176.19052 550.1125 177.84738Z" fill-rule="nonzero"/><path fill="#000000" fill-opacity="0.0" clip-path="url(#id_0)" d="M575.8875 177.78023C575.8875 179.43709 574.5444 180.78023 572.8875 180.78023C571.23065 180.78023 569.8875 179.43709 569.8875 177.78023C569.8875 176.12338 571.23065 174.78023 572.8875 174.78023C574.5444 174.78023 575.8875 176.12338 575.8875 177.78023Z" fill-rule="nonzero"/><path fill="#000000" fill-opacity="0.0" clip-path="url(#id_0)" d="M601.6625 174.26202C601.6625 175.91888 600.31934 177.26202 598.6625 177.26202C597.0056 177.26202 595.6625 175.91888 595.6625 174.26202C595.6625 172.60518 597.0056 171.26202 598.6625 171.26202C600.31934 171.26202 601.6625 172.60518 601.6625 174.26202Z" fill-rule="nonzero"/><path fill="#000000" fill-opacity="0.0" clip-path="url(#id_0)" d="M627.4375 177.81352C627.4375 179.47037 626.09436 180.81352 624.4375 180.81352C622.78064 180.81352 621.4375 179.47037 621.4375 177.81352C621.4375 176.15666 622.78064 174.81352 624.4375 174.81352C626.09436 174.81352 627.4375 176.15666 627.4375 177.81352Z" fill-rule="nonzero"/><path fill="#000000" fill-opacity="0.0" clip-path="url(#id_0)" d="M653.2125 176.82863C653.2125 178.48549 651.8694 179.82863 650.2125 179.82863C648.55566 179.82863 647.2125 178.48549 647.2125 176.82863C647.2125 175.17178 648.55566 173.82863 650.2125 173.82863C651.8694 173.82863 653.2125 175.17178 653.2125 176.82863Z" fill-rule="nonzero"/><path fill="#000000" fill-opacity="0.0" clip-path="url(#id_0)" d="M678.9875 175.3692C678.9875 177.02605 677.64435 178.3692 675.9875 178.3692C674.3306 178.3692 672.9875 177.02605 672.9875 175.3692C672.9875 173.71234 674.3306 172.3692 675.9875 172.3692C677.64435 172.3692 678.9875 173.71234 678.9875 175.3692Z" fill-rule="nonzero"/><path fill="#000000" fill-opacity="0.0" clip-path="url(#id_0)" d="M704.7625 179.49365C704.7625 181.15051 703.4194 182.49365 701.7625 182.49365C700.10565 182.49365 698.7625 181.15051 698.7625 179.49365C698.7625 177.8368 700.10565 176.49365 701.7625 176.49365C703.4194 176.49365 704.7625 177.8368 704.7625 179.49365Z" fill-rule="nonzero"/><path fill="#000000" fill-opacity="0.0" clip-path="url(#id_0)" d="M730.5375 177.10265C730.5375 178.75949 729.19434 180.10265 727.5375 180.10265C725.8806 180.10265 724.5375 178.75949 724.5375 177.10265C724.5375 175.44579 725.8806 174.10265 727.5375 174.10265C729.19434 174.10265 730.5375 175.44579 730.5375 177.10265Z" fill-rule="nonzero"/><path fill="#000000" fill-opacity="0.0" clip-path="url(#id_0)" d="M756.3125 168.4561C756.3125 170.11296 754.96936 171.4561 753.3125 171.4561C751.65564 171.4561 750.3125 170.11296 750.3125 168.4561C750.3125 166.79924 751.65564 165.4561 753.3125 165.4561C754.96936 165.4561 756.3125 166.79924 756.3125 168.4561Z" fill-rule="nonzero"/><path fill="#000000" fill-opacity="0.0" clip-path="url(#id_0)" d="M782.0875 176.55908C782.0875 178.21594 780.7444 179.55908 779.0875 179.55908C777.43066 179.55908 776.0875 178.21594 776.0875 176.55908C776.0875 174.90224 777.43066 173.55908 779.0875 173.55908C780.7444 173.55908 782.0875 174.90224 782.0875 176.55908Z" fill-rule="nonzero"/><path fill="#000000" fill-opacity="0.0" clip-path="url(#id_0)" d="M807.8625 173.78378C807.8625 175.44063 806.51935 176.78378 804.8625 176.78378C803.2056 176.78378 801.8625 175.44063 801.8625 173.78378C801.8625 172.12692 803.2056 170.78378 804.8625 170.78378C806.51935 170.78378 807.8625 172.12692 807.8625 173.78378Z" fill-rule="nonzero"/><path fill="#000000" fill-opacity="0.0" clip-path="url(#id_0)" d="M833.6375 175.41678C833.6375 177.07364 832.2944 178.41678 830.6375 178.41678C828.98065 178.41678 827.6375 177.07364 827.6375 175.41678C827.6375 173.75992 828.98065 172.41678 830.6375 172.41678C832.2944 172.41678 833.6375 173.75992 833.6375 175.41678Z" fill-rule="nonzero"/><path fill="#000000" fill-opacity="0.0" clip-path="url(#id_0)" d="M859.4125 172.09032C859.4125 173.74716 858.06934 175.09032 856.4125 175.09032C854.7556 175.09032 853.4125 173.74716 853.4125 172.09032C853.4125 170.43346 854.7556 169.09032 856.4125 169.09032C858.06934 169.09032 859.4125 170.43346 859.4125 172.09032Z" fill-rule="nonzero"/><path fill="#000000" fill-opacity="0.0" clip-path="url(#id_0)" d="M885.1875 179.83644C885.1875 181.49329 883.84436 182.83644 882.1875 182.83644C880.53064 182.83644 879.1875 181.49329 879.1875 179.83644C879.1875 178.17958 880.53064 176.83644 882.1875 176.83644C883.84436 176.83644 885.1875 178.17958 885.1875 179.83644Z" fill-rule="nonzero"/><path fill="#000000" fill-opacity="0.0" clip-path="url(#id_0)" d="M910.9625 165.86858C910.9625 167.52542 909.6194 168.86858 907.9625 168.86858C906.30566 168.86858 904.9625 167.52542 904.9625 165.86858C904.9625 164.21172 906.30566 162.86858 907.9625 162.86858C909.6194 162.86858 910.9625 164.21172 910.9625 165.86858Z" fill-rule="nonzero"/><path fill="#000000" fill-opacity="0.0" clip-path="url(#id_0)" d="M936.7375 166.68344C936.7375 168.3403 935.39435 169.68344 933.7375 169.68344C932.0806 169.68344 930.7375 168.3403 930.7375 166.68344C930.7375 165.02658 932.0806 163.68344 933.7375 163.68344C935.39435 163.68344 936.7375 165.02658 936.7375 166.68344Z" fill-rule="nonzero"/><path fill="#000000" fill-opacity="0.0" clip-path="url(#id_0)" d="M962.5125 166.22005C962.5125 167.8769 961.1694 169.22005 959.5125 169.22005C957.85565 169.22005 956.5125 167.8769 956.5125 166.22005C956.5125 164.5632 957.85565 163.22005 959.5125 163.22005C961.1694 163.22005 962.5125 164.5632 962.5125 166.22005Z" fill-rule="nonzero"/><path fill="#000000" fill-opacity="0.0" clip-path="url(#id_0)" d="M988.2875 171.29105C988.2875 172.94789 986.94434 174.29105 985.2875 174.29105C983.6306 174.29105 982.2875 172.94789 982.2875 171.29105C982.2875 169.63419 983.6306 168.29105 985.2875 168.29105C986.94434 168.29105 988.2875 169.63419 988.2875 171.29105Z" fill-rule="nonzero"/><path fill="#000000" fill-opacity="0.0" clip-path="url(#id_0)" d="M1014.0625 174.51828C1014.0625 176.17513 1012.71936 177.51828 1011.0625 177.51828C1009.40564 177.51828 1008.0625 176.17513 1008.0625 174.51828C1008.0625 172.86142 1009.40564 171.51828 1011.0625 171.51828C1012.71936 171.51828 1014.0625 172.86142 1014.0625 174.51828Z" fill-rule="nonzero"/><path fill="#000000" d="M497.89062 232.58333L497.89062 226.72395L496.46875 226.72395L496.46875 225.5677L497.89062 225.5677L497.89062 219.6927L502.34375 219.6927Q503.82812 219.6927 504.625 219.8802Q505.73438 220.1302 506.51562 220.80208Q507.53125 221.66145 508.03125 223.0052Q508.54688 224.34895 508.54688 226.0677Q508.54688 228.03645 507.92188 229.45833Q507.29688 230.8802 506.42188 231.52083Q505.54688 232.16145 504.42188 232.42708Q503.79688 232.58333 502.53125 232.58333L497.89062 232.58333ZM499.59375 231.0677L502.34375 231.0677Q503.625 231.0677 504.34375 230.83333Q505.0625 230.58333 505.48438 230.16145Q506.09375 229.55208 506.4375 228.53645Q506.78125 227.52083 506.78125 226.05208Q506.78125 224.53645 506.4375 223.6302Q506.10938 222.72395 505.5625 222.1927Q505.01562 221.64583 504.34375 221.4427Q503.6875 221.22395 502.29688 221.22395L499.59375 221.22395L499.59375 225.5677L503.14062 225.5677L503.14062 226.72395L499.59375 226.72395L499.59375 231.0677ZM511.71875 227.91145Q511.71875 229.64583 512.5 230.59895Q513.25 231.48958 514.46875 231.48958Q515.7031 231.48958 516.4375 230.59895Q517.21875 229.64583 517.21875 227.86458Q517.21875 226.17708 516.4219 225.23958Q515.6875 224.34895 514.46875 224.34895Q513.2344 224.34895 512.5 225.23958Q511.71875 226.17708 511.71875 227.91145ZM519.0469 224.86458L519.0469 223.02083L520.75 223.02083L520.75 224.47395Q520.75 225.5677 520.4219 226.14583Q519.9844 226.89583 518.84375 227.53645Q518.84375 227.64583 518.84375 227.78645Q518.84375 231.05208 516.7344 232.22395Q515.7031 232.80208 514.46875 232.80208Q512.46875 232.80208 511.29688 231.53645Q510.09375 230.23958 510.09375 227.91145Q510.09375 225.3177 511.54688 224.0677Q512.75 223.03645 514.46875 223.03645Q516.40625 223.03645 517.625 224.30208Q518.5469 225.2552 518.7656 226.77083Q519.375 226.39583 519.625 226.0052Q519.8906 225.59895 519.875 224.86458L519.0469 224.86458ZM522.6875 232.58333L522.6875 223.2552L524.1094 223.2552L524.1094 224.58333Q525.1406 223.03645 527.0781 223.03645Q527.9219 223.03645 528.625 223.34895Q529.34375 223.64583 529.6875 224.14583Q530.0469 224.6302 530.1875 225.30208Q530.2656 225.73958 530.2656 226.84895L530.2656 232.58333L528.6875 232.58333L528.6875 226.91145Q528.6875 225.9427 528.5 225.45833Q528.3281 224.97395 527.84375 224.6927Q527.375 224.41145 526.75 224.41145Q525.7344 224.41145 525.0 225.05208Q524.2656 225.6927 524.2656 227.48958L524.2656 232.58333L522.6875 232.58333ZM540.28125 232.58333L536.7344 223.2552L538.40625 223.2552L540.40625 228.83333Q540.7344 229.73958 541.0 230.72395Q541.21875 229.97395 541.59375 228.9427L543.65625 223.2552L545.2969 223.2552L541.75 232.58333L540.28125 232.58333ZM546.7031 221.52083L546.7031 219.6927L548.28125 219.6927L548.28125 221.52083L546.7031 221.52083ZM546.7031 232.58333L546.7031 223.2552L548.28125 223.2552L548.28125 232.58333L546.7031 232.58333ZM546.59375 235.4427L546.59375 233.64583L548.3906 233.64583L548.3906 235.4427L546.59375 235.4427ZM555.7031 232.58333L555.7031 219.6927L557.28125 219.6927L557.28125 227.05208L561.0156 223.2552L563.0625 223.2552L559.5 226.70833L563.4375 232.58333L561.4844 232.58333L558.3906 227.8177L557.28125 228.8802L557.28125 232.58333L555.7031 232.58333ZM564.7031 221.52083L564.7031 219.6927L566.28125 219.6927L566.28125 221.52083L564.7031 221.52083ZM564.7031 232.58333L564.7031 223.2552L566.28125 223.2552L566.28125 232.58333L564.7031 232.58333ZM575.0781 229.58333L576.71875 229.78645Q576.3281 231.20833 575.28125 232.0052Q574.2344 232.80208 572.6094 232.80208Q570.5625 232.80208 569.3594 231.53645Q568.15625 230.27083 568.15625 227.98958Q568.15625 225.64583 569.3594 224.34895Q570.5781 223.03645 572.5156 223.03645Q574.3906 223.03645 575.5781 224.3177Q576.7656 225.58333 576.7656 227.89583Q576.7656 228.03645 576.75 228.3177L569.7969 228.3177Q569.875 229.86458 570.65625 230.67708Q571.4531 231.48958 572.6094 231.48958Q573.4844 231.48958 574.09375 231.03645Q574.71875 230.58333 575.0781 229.58333ZM569.875 227.02083L575.09375 227.02083Q574.9844 225.84895 574.5 225.2552Q573.7344 224.33333 572.53125 224.33333Q571.4531 224.33333 570.7031 225.0677Q569.96875 225.80208 569.875 227.02083ZM572.4844 220.59895L571.4844 222.08333L569.6719 222.08333L571.5781 219.6302L573.2656 219.6302L575.2344 222.08333L573.4375 222.08333L572.4844 220.59895ZM571.96875 218.30208Q572.46875 218.2552 572.6094 218.20833Q573.0781 218.09895 573.09375 217.84895Q573.09375 217.64583 572.84375 217.5052Q572.46875 217.30208 571.6719 217.30208Q571.40625 217.30208 570.84375 217.34895L570.75 216.52083Q571.09375 216.4427 572.0156 216.45833Q573.09375 216.45833 573.78125 216.80208Q574.53125 217.17708 574.5625 217.77083Q574.59375 218.64583 572.9531 218.84895L572.9531 219.28645L571.96875 219.28645L571.96875 218.30208ZM578.6875 232.58333L578.6875 223.2552L580.1094 223.2552L580.1094 224.55208Q580.5469 223.8802 581.2656 223.45833Q582.0 223.03645 582.9375 223.03645Q583.96875 223.03645 584.625 223.47395Q585.2969 223.89583 585.5625 224.67708Q586.6719 223.03645 588.4531 223.03645Q589.84375 223.03645 590.5781 223.8177Q591.3281 224.58333 591.3281 226.17708L591.3281 232.58333L589.7656 232.58333L589.7656 226.70833Q589.7656 225.7552 589.6094 225.33333Q589.4531 224.91145 589.0469 224.66145Q588.6406 224.41145 588.09375 224.41145Q587.1094 224.41145 586.4531 225.0677Q585.8125 225.72395 585.8125 227.16145L585.8125 232.58333L584.2344 232.58333L584.2344 226.52083Q584.2344 225.45833 583.84375 224.9427Q583.4531 224.41145 582.5781 224.41145Q581.90625 224.41145 581.34375 224.77083Q580.78125 225.11458 580.5156 225.78645Q580.2656 226.45833 580.2656 227.73958L580.2656 232.58333L578.6875 232.58333ZM601.1406 231.16145L601.375 232.5677Q600.7031 232.70833 600.1719 232.70833Q599.3125 232.70833 598.8281 232.4427Q598.3594 232.16145 598.1719 231.72395Q597.9844 231.27083 597.9844 229.84895L597.9844 224.47395L596.8125 224.47395L596.8125 223.2552L597.9844 223.2552L597.9844 220.9427L599.5469 219.98958L599.5469 223.2552L601.1406 223.2552L601.1406 224.47395L599.5469 224.47395L599.5469 229.9427Q599.5469 230.61458 599.625 230.8177Q599.71875 231.0052 599.90625 231.11458Q600.09375 231.22395 600.4531 231.22395Q600.7031 231.22395 601.1406 231.16145ZM602.6875 232.58333L602.6875 219.6927L604.2656 219.6927L604.2656 224.3177Q605.375 223.03645 607.0625 223.03645Q608.09375 223.03645 608.8594 223.4427Q609.625 223.84895 609.9531 224.58333Q610.2969 225.30208 610.2969 226.66145L610.2969 232.58333L608.7031 232.58333L608.7031 226.66145Q608.7031 225.47395 608.1875 224.9427Q607.6719 224.39583 606.7344 224.39583Q606.03125 224.39583 605.40625 224.77083Q604.7969 225.1302 604.53125 225.7552Q604.2656 226.3802 604.2656 227.47395L604.2656 232.58333L602.6875 232.58333ZM621.3125 225.08333L621.3125 223.2552L623.0 223.2552L623.0 224.6927Q623.0 226.08333 622.6875 226.6302Q621.875 228.03645 620.21875 228.20833L620.21875 232.58333L618.7969 232.58333L618.7969 231.20833Q617.71875 232.80208 615.84375 232.80208Q615.03125 232.80208 614.3125 232.48958Q613.59375 232.17708 613.2344 231.6927Q612.8906 231.20833 612.75 230.5052Q612.65625 230.03645 612.65625 229.03645L612.65625 223.2552L614.2344 223.2552L614.2344 228.42708Q614.2344 229.67708 614.3281 230.09895Q614.6406 231.42708 616.15625 231.42708Q616.8906 231.42708 617.5 231.0677Q618.125 230.6927 618.375 230.0677Q618.6406 229.4427 618.6406 228.2552L618.6406 223.2552L620.21875 223.2552L620.21875 227.53645Q621.3281 227.34895 621.8906 226.48958Q622.1406 226.1302 622.1406 225.08333L621.3125 225.08333ZM615.9375 221.03645Q616.4375 220.97395 616.5781 220.9427Q617.0469 220.78645 617.0469 220.4427Q617.0625 220.23958 616.8125 220.09895Q616.4375 219.89583 615.6406 219.89583Q615.3594 219.89583 614.8125 219.9427L614.71875 219.03645Q615.0625 218.97395 615.9844 218.97395Q617.0625 218.98958 617.75 219.33333Q618.5 219.6927 618.5156 220.36458Q618.5625 221.4427 616.9219 221.64583L616.9219 222.08333L615.9375 222.08333L615.9375 221.03645Z" fill-rule="nonzero"/><path fill="#000000" d="M31.049995 185.50417L18.15937 185.50417L18.15937 180.66042Q18.15937 179.19167 18.549995 178.30104Q18.94062 177.41042 19.75312 176.91042Q20.56562 176.39479 21.456245 176.39479Q22.28437 176.39479 23.018745 176.84792Q23.75312 177.28542 24.19062 178.19167Q24.53437 177.01979 25.362495 176.39479Q26.19062 175.76979 27.31562 175.76979Q28.22187 175.76979 29.00312 176.16042Q29.768745 176.53542 30.19062 177.09792Q30.612495 177.66042 30.831245 178.50417Q31.049995 179.34792 31.049995 180.58229L31.049995 185.50417ZM23.581245 183.78542L23.581245 181.00417Q23.581245 179.87917 23.424995 179.37917Q23.237495 178.72292 22.799995 178.39479Q22.34687 178.06667 21.65937 178.06667Q21.018745 178.06667 20.53437 178.37917Q20.049995 178.69167 19.87812 179.26979Q19.69062 179.83229 19.69062 181.22292L19.69062 183.78542L23.581245 183.78542ZM29.53437 183.78542L29.53437 180.58229Q29.53437 179.75417 29.47187 179.42604Q29.362495 178.83229 29.112495 178.44167Q28.862495 178.05104 28.393745 177.80104Q27.924995 177.53542 27.31562 177.53542Q26.59687 177.53542 26.06562 177.91042Q25.53437 178.26979 25.31562 178.92604Q25.09687 179.58229 25.09687 180.81667L25.09687 183.78542L29.53437 183.78542ZM26.37812 174.22292Q23.78437 174.22292 22.53437 172.76979Q21.50312 171.56667 21.50312 169.84792Q21.50312 167.91042 22.768745 166.69167Q24.03437 165.47292 26.25312 165.47292Q28.049995 165.47292 29.081245 166.01979Q30.112495 166.55104 30.69062 167.58229Q31.268745 168.61354 31.268745 169.84792Q31.268745 171.80104 30.018745 173.01979Q28.75312 174.22292 26.37812 174.22292ZM26.37812 172.59792Q28.174995 172.59792 29.06562 171.81667Q29.956245 171.03542 29.956245 169.84792Q29.956245 168.66042 29.06562 167.87917Q28.15937 167.09792 26.331245 167.09792Q24.59687 167.09792 23.706245 167.89479Q22.81562 168.67604 22.81562 169.84792Q22.81562 171.03542 23.706245 171.81667Q24.59687 172.59792 26.37812 172.59792ZM19.06562 169.81667L20.549995 170.81667L20.549995 172.62917L18.09687 170.72292L18.09687 169.03542L20.549995 167.06667L20.549995 168.86354L19.06562 169.81667ZM33.90937 170.81667L32.112495 170.81667L32.112495 169.01979L33.90937 169.01979L33.90937 170.81667ZM31.049995 158.62917L21.72187 158.62917L21.72187 157.20729L23.049995 157.20729Q21.50312 156.17604 21.50312 154.23854Q21.50312 153.39479 21.81562 152.69167Q22.112495 151.97292 22.612495 151.62917Q23.09687 151.26979 23.768745 151.12917Q24.206245 151.05104 25.31562 151.05104L31.049995 151.05104L31.049995 152.62917L25.37812 152.62917Q24.40937 152.62917 23.924995 152.81667Q23.44062 152.98854 23.15937 153.47292Q22.87812 153.94167 22.87812 154.56667Q22.87812 155.58229 23.518745 156.31667Q24.15937 157.05104 25.956245 157.05104L31.049995 157.05104L31.049995 158.62917ZM31.049995 148.62917L18.15937 148.62917L18.15937 147.05104L22.78437 147.05104Q21.50312 145.94167 21.50312 144.25417Q21.50312 143.22292 21.90937 142.45729Q22.31562 141.69167 23.049995 141.36354Q23.768745 141.01979 25.12812 141.01979L31.049995 141.01979L31.049995 142.61354L25.12812 142.61354Q23.94062 142.61354 23.40937 143.12917Q22.862495 143.64479 22.862495 144.58229Q22.862495 145.28542 23.237495 145.91042Q23.59687 146.51979 24.22187 146.78542Q24.84687 147.05104 25.94062 147.05104L31.049995 147.05104L31.049995 148.62917ZM26.37812 137.59792Q28.112495 137.59792 29.06562 136.81667Q29.956245 136.06667 29.956245 134.84792Q29.956245 133.61354 29.06562 132.87917Q28.112495 132.09792 26.331245 132.09792Q24.643745 132.09792 23.706245 132.89479Q22.81562 133.62917 22.81562 134.84792Q22.81562 136.08229 23.706245 136.81667Q24.643745 137.59792 26.37812 137.59792ZM23.331245 130.26979L21.487495 130.26979L21.487495 128.56667L22.94062 128.56667Q24.03437 128.56667 24.612495 128.89479Q25.362495 129.33229 26.00312 130.47292Q26.112495 130.47292 26.25312 130.47292Q29.518745 130.47292 30.69062 132.58229Q31.268745 133.61354 31.268745 134.84792Q31.268745 136.84792 30.00312 138.01979Q28.706245 139.22292 26.37812 139.22292Q23.78437 139.22292 22.53437 137.76979Q21.50312 136.56667 21.50312 134.84792Q21.50312 132.91042 22.768745 131.69167Q23.72187 130.76979 25.237495 130.55104Q24.862495 129.94167 24.47187 129.69167Q24.06562 129.42604 23.331245 129.44167L23.331245 130.26979ZM20.549995 135.72292L18.09687 134.55104L18.09687 132.48854L20.549995 134.41042L20.549995 135.72292ZM28.268745 122.26979L28.018745 120.691666Q28.956245 120.566666 29.456245 119.972916Q29.956245 119.36354 29.956245 118.285416Q29.956245 117.191666 29.518745 116.660416Q29.06562 116.129166 28.47187 116.129166Q27.94062 116.129166 27.62812 116.597916Q27.424995 116.92604 27.09687 118.222916Q26.65937 119.95729 26.34687 120.629166Q26.018745 121.30104 25.456245 121.660416Q24.87812 122.004166 24.19062 122.004166Q23.56562 122.004166 23.03437 121.722916Q22.50312 121.42604 22.15937 120.941666Q21.87812 120.566666 21.69062 119.92604Q21.50312 119.285416 21.50312 118.566666Q21.50312 117.45729 21.831245 116.629166Q22.143745 115.80104 22.69062 115.410416Q23.22187 115.004166 24.12812 114.86354L24.331245 116.410416Q23.612495 116.51979 23.206245 117.01979Q22.799995 117.51979 22.799995 118.441666Q22.799995 119.535416 23.15937 120.004166Q23.518745 120.472916 24.00312 120.472916Q24.31562 120.472916 24.56562 120.26979Q24.81562 120.08229 24.987495 119.67604Q25.06562 119.42604 25.393745 118.26979Q25.831245 116.597916 26.12812 115.941666Q26.40937 115.26979 26.956245 114.89479Q27.50312 114.504166 28.299995 114.504166Q29.09687 114.504166 29.799995 114.972916Q30.50312 115.42604 30.893745 116.30104Q31.268745 117.17604 31.268745 118.26979Q31.268745 120.097916 30.518745 121.05104Q29.75312 122.004166 28.268745 122.26979ZM23.549995 104.004166L21.72187 104.004166L21.72187 102.316666L23.15937 102.316666Q24.549995 102.316666 25.09687 102.629166Q26.50312 103.441666 26.674995 105.097916L31.049995 105.097916L31.049995 106.51979L29.674995 106.51979Q31.268745 107.597916 31.268745 109.472916Q31.268745 110.285416 30.956245 111.004166Q30.643745 111.722916 30.15937 112.08229Q29.674995 112.42604 28.97187 112.566666Q28.50312 112.660416 27.50312 112.660416L21.72187 112.660416L21.72187 111.08229L26.893745 111.08229Q28.143745 111.08229 28.56562 110.98854Q29.893745 110.67604 29.893745 109.160416Q29.893745 108.42604 29.53437 107.816666Q29.15937 107.191666 28.53437 106.941666Q27.90937 106.67604 26.72187 106.67604L21.72187 106.67604L21.72187 105.097916L26.00312 105.097916Q25.81562 103.98854 24.956245 103.42604Q24.59687 103.17604 23.549995 103.17604L23.549995 104.004166ZM19.50312 109.379166Q19.44062 108.879166 19.40937 108.73854Q19.25312 108.26979 18.90937 108.26979Q18.706245 108.254166 18.56562 108.504166Q18.362495 108.879166 18.362495 109.67604Q18.362495 109.95729 18.40937 110.504166L17.50312 110.597916Q17.44062 110.254166 17.44062 109.33229Q17.456245 108.254166 17.799995 107.566666Q18.15937 106.816666 18.831245 106.80104Q19.90937 106.754166 20.112495 108.39479L20.549995 108.39479L20.549995 109.379166L19.50312 109.379166ZM31.049995 89.566666L29.87812 89.566666Q31.268745 90.45729 31.268745 92.191666Q31.268745 93.30104 30.65937 94.23854Q30.03437 95.17604 28.94062 95.691666Q27.831245 96.20729 26.393745 96.20729Q24.987495 96.20729 23.862495 95.73854Q22.72187 95.26979 22.112495 94.347916Q21.50312 93.410416 21.50312 92.254166Q21.50312 91.410416 21.862495 90.754166Q22.22187 90.097916 22.78437 89.67604L18.15937 89.67604L18.15937 88.11354L31.049995 88.11354L31.049995 89.566666ZM26.393745 94.58229Q28.19062 94.58229 29.081245 93.83229Q29.956245 93.066666 29.956245 92.035416Q29.956245 91.004166 29.112495 90.285416Q28.268745 89.55104 26.518745 89.55104Q24.612495 89.55104 23.72187 90.285416Q22.81562 91.01979 22.81562 92.097916Q22.81562 93.160416 23.674995 93.879166Q24.53437 94.58229 26.393745 94.58229ZM31.049995 79.51979L29.674995 79.51979Q31.268745 80.597916 31.268745 82.472916Q31.268745 83.30104 30.956245 84.01979Q30.62812 84.73854 30.15937 85.08229Q29.674995 85.42604 28.97187 85.566666Q28.50312 85.660416 27.50312 85.660416L21.72187 85.660416L21.72187 84.08229L26.893745 84.08229Q28.12812 84.08229 28.56562 83.98854Q29.19062 83.83229 29.549995 83.347916Q29.893745 82.86354 29.893745 82.160416Q29.893745 81.441666 29.53437 80.816666Q29.174995 80.191666 28.549995 79.941666Q27.90937 79.67604 26.72187 79.67604L21.72187 79.67604L21.72187 78.097916L31.049995 78.097916L31.049995 79.51979ZM33.90937 83.066666L32.112495 83.066666L32.112495 81.26979L33.90937 81.26979L33.90937 83.066666ZM31.049995 75.629166L21.72187 75.629166L21.72187 74.20729L23.049995 74.20729Q21.50312 73.17604 21.50312 71.23854Q21.50312 70.39479 21.81562 69.691666Q22.112495 68.972916 22.612495 68.629166Q23.09687 68.26979 23.768745 68.129166Q24.206245 68.05104 25.31562 68.05104L31.049995 68.05104L31.049995 69.629166L25.37812 69.629166Q24.40937 69.629166 23.924995 69.816666Q23.44062 69.98854 23.15937 70.472916Q22.87812 70.941666 22.87812 71.566666Q22.87812 72.58229 23.518745 73.316666Q24.15937 74.05104 25.956245 74.05104L31.049995 74.05104L31.049995 75.629166ZM31.831245 65.92604L32.049995 64.379166Q32.768745 64.285416 33.09687 63.84792Q33.53437 63.25417 33.53437 62.238544Q33.53437 61.144794 33.081245 60.551044Q32.643745 59.94167 31.862495 59.738544Q31.37812 59.613544 29.831245 59.613544Q31.049995 60.66042 31.049995 62.207294Q31.049995 64.129166 29.65937 65.191666Q28.268745 66.23854 26.331245 66.23854Q24.987495 66.23854 23.862495 65.754166Q22.737495 65.26979 22.12812 64.347916Q21.50312 63.426044 21.50312 62.19167Q21.50312 60.53542 22.84687 59.47292L21.72187 59.47292L21.72187 58.00417L29.78437 58.00417Q31.97187 58.00417 32.87812 58.457294Q33.78437 58.894794 34.299995 59.863544Q34.831245 60.81667 34.831245 62.22292Q34.831245 63.894794 34.081245 64.92604Q33.331245 65.95729 31.831245 65.92604ZM26.22187 64.61354Q28.049995 64.61354 28.893745 63.87917Q29.737495 63.144794 29.737495 62.051044Q29.737495 60.957294 28.90937 60.22292Q28.06562 59.488544 26.268745 59.488544Q24.549995 59.488544 23.69062 60.25417Q22.81562 61.00417 22.81562 62.082294Q22.81562 63.12917 23.674995 63.87917Q24.53437 64.61354 26.22187 64.61354ZM34.831245 47.613544Q33.19062 48.91042 30.97187 49.81667Q28.75312 50.72292 26.37812 50.72292Q24.28437 50.72292 22.37812 50.051044Q20.143745 49.25417 17.94062 47.613544L17.94062 46.47292Q19.768745 47.53542 20.549995 47.87917Q21.768745 48.41042 23.081245 48.72292Q24.737495 49.09792 26.393745 49.09792Q30.612495 49.09792 34.831245 46.47292L34.831245 47.613544ZM31.049995 44.50417L18.15937 44.50417L18.15937 42.78542L24.549995 42.78542L18.15937 36.394794L18.15937 34.082294L23.37812 39.488544L31.049995 33.84792L31.049995 36.09792L24.53437 40.676044L26.581245 42.78542L31.049995 42.78542L31.049995 44.50417ZM31.049995 32.50417L18.15937 32.50417L18.15937 27.660418Q18.15937 26.191668 18.549995 25.301043Q18.94062 24.410418 19.75312 23.910418Q20.56562 23.394793 21.456245 23.394793Q22.28437 23.394793 23.018745 23.847918Q23.75312 24.285418 24.19062 25.191668Q24.53437 24.019793 25.362495 23.394793Q26.19062 22.769793 27.31562 22.769793Q28.22187 22.769793 29.00312 23.160418Q29.768745 23.535418 30.19062 24.097918Q30.612495 24.660418 30.831245 25.504168Q31.049995 26.347918 31.049995 27.582293L31.049995 32.50417ZM23.581245 30.785418L23.581245 28.004168Q23.581245 26.879168 23.424995 26.379168Q23.237495 25.722918 22.799995 25.394793Q22.34687 25.066668 21.65937 25.066668Q21.018745 25.066668 20.53437 25.379168Q20.049995 25.691668 19.87812 26.269793Q19.69062 26.832293 19.69062 28.222918L19.69062 30.785418L23.581245 30.785418ZM29.53437 30.785418L29.53437 27.582293Q29.53437 26.754168 29.47187 26.426043Q29.362495 25.832293 29.112495 25.441668Q28.862495 25.051043 28.393745 24.801043Q27.924995 24.535418 27.31562 24.535418Q26.59687 24.535418 26.06562 24.910418Q25.53437 25.269793 25.31562 25.926043Q25.09687 26.582293 25.09687 27.816668L25.09687 30.785418L29.53437 30.785418ZM34.831245 19.597918L34.831245 20.722918Q30.612495 18.097918 26.393745 18.097918Q24.737495 18.097918 23.112495 18.472918Q21.799995 18.769793 20.581245 19.316668Q19.78437 19.660418 17.94062 20.722918L17.94062 19.597918Q20.143745 17.941668 22.37812 17.144793Q24.28437 16.472918 26.37812 16.472918Q28.75312 16.472918 30.97187 17.379168Q33.19062 18.285418 34.831245 19.597918Z" fill-rule="nonzero"/><path fill="#000000" d="M83.55 181.34895Q83.55 179.8177 83.8625 178.89583Q84.175 177.95833 84.78438 177.45833Q85.40938 176.95833 86.34688 176.95833Q87.03438 176.95833 87.55 177.23958Q88.08125 177.52083 88.425 178.05208Q88.76875 178.5677 88.95625 179.3177Q89.14375 180.0677 89.14375 181.34895Q89.14375 182.86458 88.83125 183.78645Q88.53438 184.70833 87.90938 185.22395Q87.3 185.72395 86.34688 185.72395Q85.1125 185.72395 84.39375 184.83333Q83.55 183.77083 83.55 181.34895ZM84.62813 181.34895Q84.62813 183.45833 85.12813 184.16145Q85.62813 184.86458 86.34688 184.86458Q87.08125 184.86458 87.56563 184.16145Q88.06563 183.45833 88.06563 181.34895Q88.06563 179.22395 87.56563 178.53645Q87.08125 177.83333 86.33125 177.83333Q85.6125 177.83333 85.175 178.4427Q84.62813 179.22395 84.62813 181.34895Z" fill-rule="nonzero"/><path fill="#000000" d="M68.09688 131.0566L68.09688 132.07222L62.409374 132.07222Q62.409374 131.69722 62.534374 131.33784Q62.753124 130.75972 63.221874 130.19722Q63.70625 129.63472 64.6125 128.90034Q66.01875 127.744095 66.50313 127.07222Q67.00313 126.400345 67.00313 125.806595Q67.00313 125.181595 66.55 124.75972Q66.09688 124.32222 65.37813 124.32222Q64.6125 124.32222 64.15938 124.775345Q63.70625 125.22847 63.690624 126.04097L62.6125 125.931595Q62.721874 124.712845 63.440624 124.087845Q64.175 123.44722 65.40938 123.44722Q66.64375 123.44722 67.3625 124.13472Q68.08125 124.82222 68.08125 125.837845Q68.08125 126.35347 67.8625 126.85347Q67.65938 127.337845 67.15938 127.900345Q66.675 128.44722 65.55 129.40034Q64.59688 130.19722 64.31563 130.4941Q64.05 130.77534 63.878124 131.0566L68.09688 131.0566ZM69.55 127.837845Q69.55 126.306595 69.8625 125.38472Q70.175 124.44722 70.78438 123.94722Q71.40938 123.44722 72.34688 123.44722Q73.03438 123.44722 73.55 123.72847Q74.08125 124.00972 74.425 124.54097Q74.76875 125.056595 74.95625 125.806595Q75.14375 126.556595 75.14375 127.837845Q75.14375 129.35347 74.83125 130.27534Q74.53438 131.19722 73.90938 131.71284Q73.3 132.21284 72.34688 132.21284Q71.1125 132.21284 70.39375 131.32222Q69.55 130.25972 69.55 127.837845ZM70.62813 127.837845Q70.62813 129.94722 71.12813 130.65034Q71.62813 131.35347 72.34688 131.35347Q73.08125 131.35347 73.56563 130.65034Q74.06563 129.94722 74.06563 127.837845Q74.06563 125.712845 73.56563 125.025345Q73.08125 124.32222 72.33125 124.32222Q71.6125 124.32222 71.175 124.931595Q70.62813 125.712845 70.62813 127.837845ZM76.55 127.837845Q76.55 126.306595 76.8625 125.38472Q77.175 124.44722 77.78438 123.94722Q78.40938 123.44722 79.34688 123.44722Q80.03438 123.44722 80.55 123.72847Q81.08125 124.00972 81.425 124.54097Q81.76875 125.056595 81.95625 125.806595Q82.14375 126.556595 82.14375 127.837845Q82.14375 129.35347 81.83125 130.27534Q81.53438 131.19722 80.90938 131.71284Q80.3 132.21284 79.34688 132.21284Q78.1125 132.21284 77.39375 131.32222Q76.55 130.25972 76.55 127.837845ZM77.62813 127.837845Q77.62813 129.94722 78.12813 130.65034Q78.62813 131.35347 79.34688 131.35347Q80.08125 131.35347 80.56563 130.65034Q81.06563 129.94722 81.06563 127.837845Q81.06563 125.712845 80.56563 125.025345Q80.08125 124.32222 79.33125 124.32222Q78.6125 124.32222 78.175 124.931595Q77.62813 125.712845 77.62813 127.837845ZM83.55 127.837845Q83.55 126.306595 83.8625 125.38472Q84.175 124.44722 84.78438 123.94722Q85.40938 123.44722 86.34688 123.44722Q87.03438 123.44722 87.55 123.72847Q88.08125 124.00972 88.425 124.54097Q88.76875 125.056595 88.95625 125.806595Q89.14375 126.556595 89.14375 127.837845Q89.14375 129.35347 88.83125 130.27534Q88.53438 131.19722 87.90938 131.71284Q87.3 132.21284 86.34688 132.21284Q85.1125 132.21284 84.39375 131.32222Q83.55 130.25972 83.55 127.837845ZM84.62813 127.837845Q84.62813 129.94722 85.12813 130.65034Q85.62813 131.35347 86.34688 131.35347Q87.08125 131.35347 87.56563 130.65034Q88.06563 129.94722 88.06563 127.837845Q88.06563 125.712845 87.56563 125.025345Q87.08125 124.32222 86.33125 124.32222Q85.6125 124.32222 85.175 124.931595Q84.62813 125.712845 84.62813 127.837845Z" fill-rule="nonzero"/><path fill="#000000" d="M65.925 78.56111L65.925 76.49861L62.20625 76.49861L62.20625 75.52986L66.12813 69.96736L66.9875 69.96736L66.9875 75.52986L68.14375 75.52986L68.14375 76.49861L66.9875 76.49861L66.9875 78.56111L65.925 78.56111ZM65.925 75.52986L65.925 71.67049L63.2375 75.52986L65.925 75.52986ZM69.55 74.32674Q69.55 72.79549 69.8625 71.87361Q70.175 70.93611 70.78438 70.43611Q71.40938 69.93611 72.34688 69.93611Q73.03438 69.93611 73.55 70.21736Q74.08125 70.49861 74.425 71.02986Q74.76875 71.54549 74.95625 72.29549Q75.14375 73.04549 75.14375 74.32674Q75.14375 75.84236 74.83125 76.76424Q74.53438 77.68611 73.90938 78.20174Q73.3 78.70174 72.34688 78.70174Q71.1125 78.70174 70.39375 77.81111Q69.55 76.74861 69.55 74.32674ZM70.62813 74.32674Q70.62813 76.43611 71.12813 77.13924Q71.62813 77.84236 72.34688 77.84236Q73.08125 77.84236 73.56563 77.13924Q74.06563 76.43611 74.06563 74.32674Q74.06563 72.20174 73.56563 71.51424Q73.08125 70.81111 72.33125 70.81111Q71.6125 70.81111 71.175 71.42049Q70.62813 72.20174 70.62813 74.32674ZM76.55 74.32674Q76.55 72.79549 76.8625 71.87361Q77.175 70.93611 77.78438 70.43611Q78.40938 69.93611 79.34688 69.93611Q80.03438 69.93611 80.55 70.21736Q81.08125 70.49861 81.425 71.02986Q81.76875 71.54549 81.95625 72.29549Q82.14375 73.04549 82.14375 74.32674Q82.14375 75.84236 81.83125 76.76424Q81.53438 77.68611 80.90938 78.20174Q80.3 78.70174 79.34688 78.70174Q78.1125 78.70174 77.39375 77.81111Q76.55 76.74861 76.55 74.32674ZM77.62813 74.32674Q77.62813 76.43611 78.12813 77.13924Q78.62813 77.84236 79.34688 77.84236Q80.08125 77.84236 80.56563 77.13924Q81.06563 76.43611 81.06563 74.32674Q81.06563 72.20174 80.56563 71.51424Q80.08125 70.81111 79.33125 70.81111Q78.6125 70.81111 78.175 71.42049Q77.62813 72.20174 77.62813 74.32674ZM83.55 74.32674Q83.55 72.79549 83.8625 71.87361Q84.175 70.93611 84.78438 70.43611Q85.40938 69.93611 86.34688 69.93611Q87.03438 69.93611 87.55 70.21736Q88.08125 70.49861 88.425 71.02986Q88.76875 71.54549 88.95625 72.29549Q89.14375 73.04549 89.14375 74.32674Q89.14375 75.84236 88.83125 76.76424Q88.53438 77.68611 87.90938 78.20174Q87.3 78.70174 86.34688 78.70174Q85.1125 78.70174 84.39375 77.81111Q83.55 76.74861 83.55 74.32674ZM84.62813 74.32674Q84.62813 76.43611 85.12813 77.13924Q85.62813 77.84236 86.34688 77.84236Q87.08125 77.84236 87.56563 77.13924Q88.06563 76.43611 88.06563 74.32674Q88.06563 72.20174 87.56563 71.51424Q87.08125 70.81111 86.33125 70.81111Q85.6125 70.81111 85.175 71.42049Q84.62813 72.20174 84.62813 74.32674Z" fill-rule="nonzero"/><path fill="#000000" d="M68.01875 18.565624L66.97188 18.64375Q66.83125 18.01875 66.58125 17.7375Q66.14375 17.284374 65.51875 17.284374Q65.01875 17.284374 64.62813 17.565624Q64.14375 17.940624 63.846874 18.64375Q63.565624 19.33125 63.55 20.6125Q63.925 20.034374 64.47188 19.753124Q65.03438 19.471874 65.64375 19.471874Q66.69063 19.471874 67.425 20.253124Q68.175 21.034374 68.175 22.253124Q68.175 23.065624 67.81563 23.76875Q67.47188 24.45625 66.8625 24.83125Q66.25313 25.190624 65.4875 25.190624Q64.15938 25.190624 63.33125 24.221874Q62.503124 23.253124 62.503124 21.034374Q62.503124 18.534374 63.425 17.409374Q64.22188 16.425 65.58125 16.425Q66.59688 16.425 67.2375 17.003124Q67.89375 17.565624 68.01875 18.565624ZM63.721874 22.26875Q63.721874 22.815624 63.940624 23.315624Q64.175 23.8 64.58125 24.065624Q65.00313 24.33125 65.47188 24.33125Q66.12813 24.33125 66.6125 23.8Q67.09688 23.253124 67.09688 22.33125Q67.09688 21.440624 66.6125 20.925Q66.14375 20.409374 65.425 20.409374Q64.70625 20.409374 64.20625 20.925Q63.721874 21.440624 63.721874 22.26875ZM69.55 20.815624Q69.55 19.284374 69.8625 18.3625Q70.175 17.425 70.78438 16.925Q71.40938 16.425 72.34688 16.425Q73.03438 16.425 73.55 16.70625Q74.08125 16.9875 74.425 17.51875Q74.76875 18.034374 74.95625 18.784374Q75.14375 19.534374 75.14375 20.815624Q75.14375 22.33125 74.83125 23.253124Q74.53438 24.175 73.90938 24.690624Q73.3 25.190624 72.34688 25.190624Q71.1125 25.190624 70.39375 24.3Q69.55 23.2375 69.55 20.815624ZM70.62813 20.815624Q70.62813 22.925 71.12813 23.628124Q71.62813 24.33125 72.34688 24.33125Q73.08125 24.33125 73.56563 23.628124Q74.06563 22.925 74.06563 20.815624Q74.06563 18.690624 73.56563 18.003124Q73.08125 17.3 72.33125 17.3Q71.6125 17.3 71.175 17.909374Q70.62813 18.690624 70.62813 20.815624ZM76.55 20.815624Q76.55 19.284374 76.8625 18.3625Q77.175 17.425 77.78438 16.925Q78.40938 16.425 79.34688 16.425Q80.03438 16.425 80.55 16.70625Q81.08125 16.9875 81.425 17.51875Q81.76875 18.034374 81.95625 18.784374Q82.14375 19.534374 82.14375 20.815624Q82.14375 22.33125 81.83125 23.253124Q81.53438 24.175 80.90938 24.690624Q80.3 25.190624 79.34688 25.190624Q78.1125 25.190624 77.39375 24.3Q76.55 23.2375 76.55 20.815624ZM77.62813 20.815624Q77.62813 22.925 78.12813 23.628124Q78.62813 24.33125 79.34688 24.33125Q80.08125 24.33125 80.56563 23.628124Q81.06563 22.925 81.06563 20.815624Q81.06563 18.690624 80.56563 18.003124Q80.08125 17.3 79.33125 17.3Q78.6125 17.3 78.175 17.909374Q77.62813 18.690624 77.62813 20.815624ZM83.55 20.815624Q83.55 19.284374 83.8625 18.3625Q84.175 17.425 84.78438 16.925Q85.40938 16.425 86.34688 16.425Q87.03438 16.425 87.55 16.70625Q88.08125 16.9875 88.425 17.51875Q88.76875 18.034374 88.95625 18.784374Q89.14375 19.534374 89.14375 20.815624Q89.14375 22.33125 88.83125 23.253124Q88.53438 24.175 87.90938 24.690624Q87.3 25.190624 86.34688 25.190624Q85.1125 25.190624 84.39375 24.3Q83.55 23.2375 83.55 20.815624ZM84.62813 20.815624Q84.62813 22.925 85.12813 23.628124Q85.62813 24.33125 86.34688 24.33125Q87.08125 24.33125 87.56563 23.628124Q88.06563 22.925 88.06563 20.815624Q88.06563 18.690624 87.56563 18.003124Q87.08125 17.3 86.33125 17.3Q85.6125 17.3 85.175 17.909374Q84.62813 18.690624 84.62813 20.815624Z" fill-rule="nonzero"/><path stroke="#ff0000" stroke-width="4.0" stroke-linecap="butt" stroke-dasharray="13.0,9.0" d="M280.0 256.45L315.0 256.45" fill-rule="nonzero"/><path fill="#1a1a1a" d="M324.39062 262.95L324.39062 250.05939L329.25 250.05939Q330.53125 250.05939 331.20312 250.18439Q332.15625 250.34064 332.79688 250.79376Q333.4375 251.23126 333.82812 252.04376Q334.21875 252.84064 334.21875 253.79376Q334.21875 255.43439 333.17188 256.575Q332.125 257.71564 329.40625 257.71564L326.09375 257.71564L326.09375 262.95L324.39062 262.95ZM326.09375 256.1844L329.42188 256.1844Q331.07812 256.1844 331.76562 255.57501Q332.46875 254.96564 332.46875 253.84064Q332.46875 253.02814 332.0625 252.46564Q331.65625 251.88751 330.98438 251.70001Q330.54688 251.59064 329.39062 251.59064L326.09375 251.59064L326.09375 256.1844ZM336.1875 262.95L336.1875 250.05939L337.76562 250.05939L337.76562 254.68439Q338.875 253.40314 340.5625 253.40314Q341.59375 253.40314 342.35938 253.80939Q343.125 254.21564 343.45312 254.95001Q343.79688 255.66876 343.79688 257.02814L343.79688 262.95L342.20312 262.95L342.20312 257.02814Q342.20312 255.84064 341.6875 255.30939Q341.17188 254.76251 340.23438 254.76251Q339.53125 254.76251 338.90625 255.13751Q338.29688 255.49689 338.03125 256.1219Q337.76562 256.7469 337.76562 257.84064L337.76562 262.95L336.1875 262.95ZM354.8125 255.45001L354.8125 253.62189L356.5 253.62189L356.5 255.05939Q356.5 256.45 356.1875 256.9969Q355.375 258.40314 353.71875 258.575L353.71875 262.95L352.29688 262.95L352.29688 261.575Q351.21875 263.16876 349.34375 263.16876Q348.53125 263.16876 347.8125 262.85626Q347.09375 262.54376 346.73438 262.0594Q346.39062 261.575 346.25 260.8719Q346.15625 260.40314 346.15625 259.40314L346.15625 253.62189L347.73438 253.62189L347.73438 258.79376Q347.73438 260.04376 347.82812 260.46564Q348.14062 261.79376 349.65625 261.79376Q350.39062 261.79376 351.0 261.4344Q351.625 261.0594 351.875 260.4344Q352.14062 259.8094 352.14062 258.6219L352.14062 253.62189L353.71875 253.62189L353.71875 257.90314Q354.82812 257.71564 355.39062 256.85626Q355.64062 256.4969 355.64062 255.45001L354.8125 255.45001ZM359.21875 258.27814Q359.21875 260.0125 360.0 260.96564Q360.75 261.85626 361.96875 261.85626Q363.20312 261.85626 363.9375 260.96564Q364.71875 260.0125 364.71875 258.23126Q364.71875 256.54376 363.92188 255.60626Q363.1875 254.71564 361.96875 254.71564Q360.73438 254.71564 360.0 255.60626Q359.21875 256.54376 359.21875 258.27814ZM366.54688 255.23126L366.54688 253.38751L368.25 253.38751L368.25 254.84064Q368.25 255.93439 367.92188 256.5125Q367.48438 257.2625 366.34375 257.90314Q366.34375 258.0125 366.34375 258.15314Q366.34375 261.41876 364.23438 262.59064Q363.20312 263.16876 361.96875 263.16876Q359.96875 263.16876 358.79688 261.90314Q357.59375 260.60626 357.59375 258.27814Q357.59375 255.68439 359.04688 254.43439Q360.25 253.40314 361.96875 253.40314Q363.90625 253.40314 365.125 254.66876Q366.04688 255.62189 366.26562 257.1375Q366.875 256.7625 367.125 256.3719Q367.39062 255.96564 367.375 255.23126L366.54688 255.23126ZM370.1875 262.95L370.1875 253.62189L371.60938 253.62189L371.60938 254.95001Q372.64062 253.40314 374.57812 253.40314Q375.42188 253.40314 376.125 253.71564Q376.84375 254.01251 377.1875 254.51251Q377.54688 254.99689 377.6875 255.66876Q377.76562 256.10626 377.76562 257.21564L377.76562 262.95L376.1875 262.95L376.1875 257.27814Q376.1875 256.3094 376.0 255.82501Q375.82812 255.34064 375.34375 255.05939Q374.875 254.77814 374.25 254.77814Q373.23438 254.77814 372.5 255.41876Q371.76562 256.0594 371.76562 257.85626L371.76562 262.95L370.1875 262.95ZM379.89062 263.73126L381.4375 263.95Q381.53125 264.66876 381.96875 264.9969Q382.5625 265.4344 383.57812 265.4344Q384.67188 265.4344 385.26562 264.98126Q385.875 264.54376 386.07812 263.7625Q386.20312 263.27814 386.20312 261.73126Q385.15625 262.95 383.60938 262.95Q381.6875 262.95 380.625 261.5594Q379.57812 260.16876 379.57812 258.23126Q379.57812 256.8875 380.0625 255.76251Q380.54688 254.63751 381.46875 254.02814Q382.39062 253.40314 383.625 253.40314Q385.28125 253.40314 386.34375 254.74689L386.34375 253.62189L387.8125 253.62189L387.8125 261.6844Q387.8125 263.8719 387.35938 264.77814Q386.92188 265.6844 385.95312 266.2Q385.0 266.73126 383.59375 266.73126Q381.92188 266.73126 380.89062 265.98126Q379.85938 265.23126 379.89062 263.73126ZM381.20312 258.1219Q381.20312 259.95 381.9375 260.79376Q382.67188 261.6375 383.76562 261.6375Q384.85938 261.6375 385.59375 260.8094Q386.32812 259.96564 386.32812 258.16876Q386.32812 256.45 385.5625 255.59064Q384.8125 254.71564 383.73438 254.71564Q382.6875 254.71564 381.9375 255.57501Q381.20312 256.4344 381.20312 258.1219ZM395.1875 266.52814L395.1875 253.62189L396.625 253.62189L396.625 254.82501Q397.14062 254.12189 397.78125 253.76251Q398.42188 253.40314 399.32812 253.40314Q400.53125 253.40314 401.4375 254.02814Q402.35938 254.63751 402.82812 255.76251Q403.29688 256.8719 403.29688 258.21564Q403.29688 259.6375 402.78125 260.79376Q402.26562 261.9344 401.28125 262.5594Q400.29688 263.16876 399.21875 263.16876Q398.4375 263.16876 397.79688 262.84064Q397.17188 262.4969 396.76562 261.98126L396.76562 266.52814L395.1875 266.52814ZM396.625 258.34064Q396.625 260.1375 397.34375 260.9969Q398.07812 261.85626 399.10938 261.85626Q400.17188 261.85626 400.92188 260.96564Q401.67188 260.075 401.67188 258.2Q401.67188 256.41876 400.9375 255.52814Q400.20312 254.63751 399.1875 254.63751Q398.17188 254.63751 397.39062 255.59064Q396.625 256.52814 396.625 258.34064ZM405.1875 262.95L405.1875 250.05939L406.76562 250.05939L406.76562 254.68439Q407.875 253.40314 409.5625 253.40314Q410.59375 253.40314 411.35938 253.80939Q412.125 254.21564 412.45312 254.95001Q412.79688 255.66876 412.79688 257.02814L412.79688 262.95L411.20312 262.95L411.20312 257.02814Q411.20312 255.84064 410.6875 255.30939Q410.17188 254.76251 409.23438 254.76251Q408.53125 254.76251 407.90625 255.13751Q407.29688 255.49689 407.03125 256.1219Q406.76562 256.7469 406.76562 257.84064L406.76562 262.95L405.1875 262.95ZM421.28125 261.79376Q420.40625 262.54376 419.57812 262.85626Q418.76562 263.16876 417.84375 263.16876Q416.29688 263.16876 415.46875 262.41876Q414.65625 261.65314 414.65625 260.48126Q414.65625 259.8094 414.96875 259.2469Q415.28125 258.66876 415.78125 258.325Q416.28125 257.98126 416.92188 257.8094Q417.39062 257.6844 418.32812 257.575Q420.23438 257.34064 421.14062 257.02814Q421.15625 256.7 421.15625 256.60626Q421.15625 255.65314 420.70312 255.24689Q420.09375 254.71564 418.90625 254.71564Q417.78125 254.71564 417.25 255.10626Q416.71875 255.49689 416.46875 256.4969L414.92188 256.27814Q415.14062 255.27814 415.60938 254.66876Q416.09375 254.05939 417.0 253.73126Q417.92188 253.40314 419.14062 253.40314Q420.32812 253.40314 421.07812 253.68439Q421.82812 253.96564 422.17188 254.40314Q422.53125 254.82501 422.67188 255.46564Q422.75 255.87189 422.75 256.9344L422.75 259.04376Q422.75 261.2469 422.84375 261.84064Q422.95312 262.41876 423.25 262.95L421.59375 262.95Q421.34375 262.45 421.28125 261.79376ZM421.14062 258.2625Q420.28125 258.6219 418.5625 258.85626Q417.59375 258.9969 417.1875 259.1844Q416.78125 259.35626 416.5625 259.7Q416.34375 260.02814 416.34375 260.45Q416.34375 261.075 416.8125 261.4969Q417.29688 261.91876 418.21875 261.91876Q419.14062 261.91876 419.84375 261.52814Q420.5625 261.1219 420.89062 260.4344Q421.14062 259.8875 421.14062 258.84064L421.14062 258.2625ZM418.07812 252.45001L419.25 249.99689L421.3125 249.99689L419.39062 252.45001L418.07812 252.45001ZM425.1875 266.52814L425.1875 253.62189L426.625 253.62189L426.625 254.82501Q427.14062 254.12189 427.78125 253.76251Q428.42188 253.40314 429.32812 253.40314Q430.53125 253.40314 431.4375 254.02814Q432.35938 254.63751 432.82812 255.76251Q433.29688 256.8719 433.29688 258.21564Q433.29688 259.6375 432.78125 260.79376Q432.26562 261.9344 431.28125 262.5594Q430.29688 263.16876 429.21875 263.16876Q428.4375 263.16876 427.79688 262.84064Q427.17188 262.4969 426.76562 261.98126L426.76562 266.52814L425.1875 266.52814ZM426.625 258.34064Q426.625 260.1375 427.34375 260.9969Q428.07812 261.85626 429.10938 261.85626Q430.17188 261.85626 430.92188 260.96564Q431.67188 260.075 431.67188 258.2Q431.67188 256.41876 430.9375 255.52814Q430.20312 254.63751 429.1875 254.63751Q428.17188 254.63751 427.39062 255.59064Q426.625 256.52814 426.625 258.34064ZM438.96875 262.95L443.92188 250.05939L445.76562 250.05939L451.03125 262.95L449.09375 262.95L447.59375 259.04376L442.20312 259.04376L440.78125 262.95L438.96875 262.95ZM442.6875 257.65314L447.0625 257.65314L445.71875 254.09064Q445.09375 252.46564 444.79688 251.41876Q444.5625 252.65314 444.10938 253.87189L442.6875 257.65314ZM451.3125 262.95L451.3125 250.05939L453.03125 250.05939L453.03125 256.45L459.42188 250.05939L461.73438 250.05939L456.32812 255.27814L461.96875 262.95L459.71875 262.95L455.14062 256.4344L453.03125 258.48126L453.03125 262.95L451.3125 262.95ZM461.96875 262.95L466.92188 250.05939L468.76562 250.05939L474.03125 262.95L472.09375 262.95L470.59375 259.04376L465.20312 259.04376L463.78125 262.95L461.96875 262.95ZM465.6875 257.65314L470.0625 257.65314L468.71875 254.09064Q468.09375 252.46564 467.79688 251.41876Q467.5625 252.65314 467.10938 253.87189L465.6875 257.65314ZM482.84375 250.05939L484.54688 250.05939L484.54688 257.5125Q484.54688 259.45 484.10938 260.59064Q483.67188 261.73126 482.51562 262.45Q481.375 263.16876 479.51562 263.16876Q477.70312 263.16876 476.54688 262.54376Q475.40625 261.91876 474.90625 260.7469Q474.42188 259.5594 474.42188 257.5125L474.42188 250.05939L476.125 250.05939L476.125 257.4969Q476.125 259.1844 476.4375 259.98126Q476.75 260.7625 477.5 261.2Q478.26562 261.6375 479.35938 261.6375Q481.25 261.6375 482.04688 260.77814Q482.84375 259.91876 482.84375 257.4969L482.84375 250.05939ZM490.67188 262.95L490.67188 251.59064L486.42188 251.59064L486.42188 250.05939L496.64062 250.05939L496.64062 251.59064L492.375 251.59064L492.375 262.95L490.67188 262.95ZM497.96875 262.95L502.92188 250.05939L504.76562 250.05939L510.03125 262.95L508.09375 262.95L506.59375 259.04376L501.20312 259.04376L499.78125 262.95L497.96875 262.95ZM501.6875 257.65314L506.0625 257.65314L504.71875 254.09064Q504.09375 252.46564 503.79688 251.41876Q503.5625 252.65314 503.10938 253.87189L501.6875 257.65314ZM518.84375 250.05939L520.5469 250.05939L520.5469 257.5125Q520.5469 259.45 520.1094 260.59064Q519.6719 261.73126 518.5156 262.45Q517.375 263.16876 515.5156 263.16876Q513.7031 263.16876 512.5469 262.54376Q511.40625 261.91876 510.90625 260.7469Q510.42188 259.5594 510.42188 257.5125L510.42188 250.05939L512.125 250.05939L512.125 257.4969Q512.125 259.1844 512.4375 259.98126Q512.75 260.7625 513.5 261.2Q514.2656 261.6375 515.3594 261.6375Q517.25 261.6375 518.0469 260.77814Q518.84375 259.91876 518.84375 257.4969L518.84375 250.05939ZM526.6719 262.95L526.6719 251.59064L522.4219 251.59064L522.4219 250.05939L532.6406 250.05939L532.6406 251.59064L528.375 251.59064L528.375 262.95L526.6719 262.95ZM534.875 256.66876Q534.875 253.46564 536.59375 251.65314Q538.3125 249.84064 541.0469 249.84064Q542.8281 249.84064 544.25 250.70001Q545.6875 251.54376 546.4375 253.07501Q547.1875 254.59064 547.1875 256.52814Q547.1875 258.48126 546.3906 260.02814Q545.6094 261.575 544.15625 262.3719Q542.7031 263.16876 541.03125 263.16876Q539.21875 263.16876 537.78125 262.29376Q536.34375 261.41876 535.6094 259.90314Q534.875 258.3719 534.875 256.66876ZM536.625 256.7Q536.625 259.02814 537.875 260.3719Q539.1406 261.71564 541.0156 261.71564Q542.9531 261.71564 544.1875 260.35626Q545.4375 258.9969 545.4375 256.5125Q545.4375 254.95001 544.90625 253.77814Q544.375 252.59064 543.34375 251.95001Q542.3281 251.30939 541.0469 251.30939Q539.2344 251.30939 537.9219 252.55939Q536.625 253.79376 536.625 256.7Z" fill-rule="nonzero"/><path stroke="#0000ff" stroke-width="4.0" stroke-linecap="butt" d="M564.0 256.45L576.0 256.45" fill-rule="nonzero"/><path fill="#1a1a1a" d="M585.3906 262.95L585.3906 250.05939L590.25 250.05939Q591.53125 250.05939 592.2031 250.18439Q593.15625 250.34064 593.7969 250.79376Q594.4375 251.23126 594.8281 252.04376Q595.21875 252.84064 595.21875 253.79376Q595.21875 255.43439 594.1719 256.575Q593.125 257.71564 590.40625 257.71564L587.09375 257.71564L587.09375 262.95L585.3906 262.95ZM587.09375 256.1844L590.4219 256.1844Q592.0781 256.1844 592.7656 255.57501Q593.46875 254.96564 593.46875 253.84064Q593.46875 253.02814 593.0625 252.46564Q592.65625 251.88751 591.9844 251.70001Q591.5469 251.59064 590.3906 251.59064L587.09375 251.59064L587.09375 256.1844ZM597.1875 262.95L597.1875 250.05939L598.7656 250.05939L598.7656 254.68439Q599.875 253.40314 601.5625 253.40314Q602.59375 253.40314 603.3594 253.80939Q604.125 254.21564 604.4531 254.95001Q604.7969 255.66876 604.7969 257.02814L604.7969 262.95L603.2031 262.95L603.2031 257.02814Q603.2031 255.84064 602.6875 255.30939Q602.1719 254.76251 601.2344 254.76251Q600.53125 254.76251 599.90625 255.13751Q599.2969 255.49689 599.03125 256.1219Q598.7656 256.7469 598.7656 257.84064L598.7656 262.95L597.1875 262.95ZM615.8125 255.45001L615.8125 253.62189L617.5 253.62189L617.5 255.05939Q617.5 256.45 617.1875 256.9969Q616.375 258.40314 614.71875 258.575L614.71875 262.95L613.2969 262.95L613.2969 261.575Q612.21875 263.16876 610.34375 263.16876Q609.53125 263.16876 608.8125 262.85626Q608.09375 262.54376 607.7344 262.0594Q607.3906 261.575 607.25 260.8719Q607.15625 260.40314 607.15625 259.40314L607.15625 253.62189L608.7344 253.62189L608.7344 258.79376Q608.7344 260.04376 608.8281 260.46564Q609.1406 261.79376 610.65625 261.79376Q611.3906 261.79376 612.0 261.4344Q612.625 261.0594 612.875 260.4344Q613.1406 259.8094 613.1406 258.6219L613.1406 253.62189L614.71875 253.62189L614.71875 257.90314Q615.8281 257.71564 616.3906 256.85626Q616.6406 256.4969 616.6406 255.45001L615.8125 255.45001ZM620.21875 258.27814Q620.21875 260.0125 621.0 260.96564Q621.75 261.85626 622.96875 261.85626Q624.2031 261.85626 624.9375 260.96564Q625.71875 260.0125 625.71875 258.23126Q625.71875 256.54376 624.9219 255.60626Q624.1875 254.71564 622.96875 254.71564Q621.7344 254.71564 621.0 255.60626Q620.21875 256.54376 620.21875 258.27814ZM627.5469 255.23126L627.5469 253.38751L629.25 253.38751L629.25 254.84064Q629.25 255.93439 628.9219 256.5125Q628.4844 257.2625 627.34375 257.90314Q627.34375 258.0125 627.34375 258.15314Q627.34375 261.41876 625.2344 262.59064Q624.2031 263.16876 622.96875 263.16876Q620.96875 263.16876 619.7969 261.90314Q618.59375 260.60626 618.59375 258.27814Q618.59375 255.68439 620.0469 254.43439Q621.25 253.40314 622.96875 253.40314Q624.90625 253.40314 626.125 254.66876Q627.0469 255.62189 627.2656 257.1375Q627.875 256.7625 628.125 256.3719Q628.3906 255.96564 628.375 255.23126L627.5469 255.23126ZM631.1875 262.95L631.1875 253.62189L632.6094 253.62189L632.6094 254.95001Q633.6406 253.40314 635.5781 253.40314Q636.4219 253.40314 637.125 253.71564Q637.84375 254.01251 638.1875 254.51251Q638.5469 254.99689 638.6875 255.66876Q638.7656 256.10626 638.7656 257.21564L638.7656 262.95L637.1875 262.95L637.1875 257.27814Q637.1875 256.3094 637.0 255.82501Q636.8281 255.34064 636.34375 255.05939Q635.875 254.77814 635.25 254.77814Q634.2344 254.77814 633.5 255.41876Q632.7656 256.0594 632.7656 257.85626L632.7656 262.95L631.1875 262.95ZM640.8906 263.73126L642.4375 263.95Q642.53125 264.66876 642.96875 264.9969Q643.5625 265.4344 644.5781 265.4344Q645.6719 265.4344 646.2656 264.98126Q646.875 264.54376 647.0781 263.7625Q647.2031 263.27814 647.2031 261.73126Q646.15625 262.95 644.6094 262.95Q642.6875 262.95 641.625 261.5594Q640.5781 260.16876 640.5781 258.23126Q640.5781 256.8875 641.0625 255.76251Q641.5469 254.63751 642.46875 254.02814Q643.3906 253.40314 644.625 253.40314Q646.28125 253.40314 647.34375 254.74689L647.34375 253.62189L648.8125 253.62189L648.8125 261.6844Q648.8125 263.8719 648.3594 264.77814Q647.9219 265.6844 646.9531 266.2Q646.0 266.73126 644.59375 266.73126Q642.9219 266.73126 641.8906 265.98126Q640.8594 265.23126 640.8906 263.73126ZM642.2031 258.1219Q642.2031 259.95 642.9375 260.79376Q643.6719 261.6375 644.7656 261.6375Q645.8594 261.6375 646.59375 260.8094Q647.3281 259.96564 647.3281 258.16876Q647.3281 256.45 646.5625 255.59064Q645.8125 254.71564 644.7344 254.71564Q643.6875 254.71564 642.9375 255.57501Q642.2031 256.4344 642.2031 258.1219ZM656.1875 266.52814L656.1875 253.62189L657.625 253.62189L657.625 254.82501Q658.1406 254.12189 658.78125 253.76251Q659.4219 253.40314 660.3281 253.40314Q661.53125 253.40314 662.4375 254.02814Q663.3594 254.63751 663.8281 255.76251Q664.2969 256.8719 664.2969 258.21564Q664.2969 259.6375 663.78125 260.79376Q663.2656 261.9344 662.28125 262.5594Q661.2969 263.16876 660.21875 263.16876Q659.4375 263.16876 658.7969 262.84064Q658.1719 262.4969 657.7656 261.98126L657.7656 266.52814L656.1875 266.52814ZM657.625 258.34064Q657.625 260.1375 658.34375 260.9969Q659.0781 261.85626 660.1094 261.85626Q661.1719 261.85626 661.9219 260.96564Q662.6719 260.075 662.6719 258.2Q662.6719 256.41876 661.9375 255.52814Q661.2031 254.63751 660.1875 254.63751Q659.1719 254.63751 658.3906 255.59064Q657.625 256.52814 657.625 258.34064ZM666.1875 262.95L666.1875 250.05939L667.7656 250.05939L667.7656 254.68439Q668.875 253.40314 670.5625 253.40314Q671.59375 253.40314 672.3594 253.80939Q673.125 254.21564 673.4531 254.95001Q673.7969 255.66876 673.7969 257.02814L673.7969 262.95L672.2031 262.95L672.2031 257.02814Q672.2031 255.84064 671.6875 255.30939Q671.1719 254.76251 670.2344 254.76251Q669.53125 254.76251 668.90625 255.13751Q668.2969 255.49689 668.03125 256.1219Q667.7656 256.7469 667.7656 257.84064L667.7656 262.95L666.1875 262.95ZM682.28125 261.79376Q681.40625 262.54376 680.5781 262.85626Q679.7656 263.16876 678.84375 263.16876Q677.2969 263.16876 676.46875 262.41876Q675.65625 261.65314 675.65625 260.48126Q675.65625 259.8094 675.96875 259.2469Q676.28125 258.66876 676.78125 258.325Q677.28125 257.98126 677.9219 257.8094Q678.3906 257.6844 679.3281 257.575Q681.2344 257.34064 682.1406 257.02814Q682.15625 256.7 682.15625 256.60626Q682.15625 255.65314 681.7031 255.24689Q681.09375 254.71564 679.90625 254.71564Q678.78125 254.71564 678.25 255.10626Q677.71875 255.49689 677.46875 256.4969L675.9219 256.27814Q676.1406 255.27814 676.6094 254.66876Q677.09375 254.05939 678.0 253.73126Q678.9219 253.40314 680.1406 253.40314Q681.3281 253.40314 682.0781 253.68439Q682.8281 253.96564 683.1719 254.40314Q683.53125 254.82501 683.6719 255.46564Q683.75 255.87189 683.75 256.9344L683.75 259.04376Q683.75 261.2469 683.84375 261.84064Q683.9531 262.41876 684.25 262.95L682.59375 262.95Q682.34375 262.45 682.28125 261.79376ZM682.1406 258.2625Q681.28125 258.6219 679.5625 258.85626Q678.59375 258.9969 678.1875 259.1844Q677.78125 259.35626 677.5625 259.7Q677.34375 260.02814 677.34375 260.45Q677.34375 261.075 677.8125 261.4969Q678.2969 261.91876 679.21875 261.91876Q680.1406 261.91876 680.84375 261.52814Q681.5625 261.1219 681.8906 260.4344Q682.1406 259.8875 682.1406 258.84064L682.1406 258.2625ZM679.0781 252.45001L680.25 249.99689L682.3125 249.99689L680.3906 252.45001L679.0781 252.45001ZM686.1875 266.52814L686.1875 253.62189L687.625 253.62189L687.625 254.82501Q688.1406 254.12189 688.78125 253.76251Q689.4219 253.40314 690.3281 253.40314Q691.53125 253.40314 692.4375 254.02814Q693.3594 254.63751 693.8281 255.76251Q694.2969 256.8719 694.2969 258.21564Q694.2969 259.6375 693.78125 260.79376Q693.2656 261.9344 692.28125 262.5594Q691.2969 263.16876 690.21875 263.16876Q689.4375 263.16876 688.7969 262.84064Q688.1719 262.4969 687.7656 261.98126L687.7656 266.52814L686.1875 266.52814ZM687.625 258.34064Q687.625 260.1375 688.34375 260.9969Q689.0781 261.85626 690.1094 261.85626Q691.1719 261.85626 691.9219 260.96564Q692.6719 260.075 692.6719 258.2Q692.6719 256.41876 691.9375 255.52814Q691.2031 254.63751 690.1875 254.63751Q689.1719 254.63751 688.3906 255.59064Q687.625 256.52814 687.625 258.34064ZM707.1406 252.23126L704.09375 252.23126L704.09375 251.07501L707.1406 251.07501L707.1406 250.05939L708.7031 250.05939L708.7031 251.07501L709.9844 251.07501L709.9844 252.23126L708.7031 252.23126L708.7031 262.95L707.25 262.95L707.25 261.77814Q706.3594 263.16876 704.625 263.16876Q703.5156 263.16876 702.5781 262.5594Q701.6406 261.9344 701.125 260.84064Q700.6094 259.73126 700.6094 258.29376Q700.6094 256.8875 701.0781 255.76251Q701.5469 254.62189 702.46875 254.01251Q703.40625 253.40314 704.5625 253.40314Q705.40625 253.40314 706.0625 253.76251Q706.71875 254.12189 707.1406 254.68439L707.1406 252.23126ZM702.2344 258.29376Q702.2344 260.09064 702.9844 260.98126Q703.75 261.85626 704.78125 261.85626Q705.8125 261.85626 706.53125 261.0125Q707.2656 260.16876 707.2656 258.41876Q707.2656 256.5125 706.53125 255.62189Q705.7969 254.71564 704.71875 254.71564Q703.65625 254.71564 702.9375 255.57501Q702.2344 256.4344 702.2344 258.29376ZM717.5781 259.95L719.21875 260.15314Q718.8281 261.575 717.78125 262.3719Q716.7344 263.16876 715.1094 263.16876Q713.0625 263.16876 711.8594 261.90314Q710.65625 260.6375 710.65625 258.35626Q710.65625 256.0125 711.8594 254.71564Q713.0781 253.40314 715.0156 253.40314Q716.8906 253.40314 718.0781 254.68439Q719.2656 255.95001 719.2656 258.2625Q719.2656 258.40314 719.25 258.6844L712.2969 258.6844Q712.375 260.23126 713.15625 261.04376Q713.9531 261.85626 715.1094 261.85626Q715.9844 261.85626 716.59375 261.40314Q717.21875 260.95 717.5781 259.95ZM712.375 257.3875L717.59375 257.3875Q717.4844 256.21564 717.0 255.62189Q716.2344 254.70001 715.03125 254.70001Q713.9531 254.70001 713.2031 255.43439Q712.46875 256.16876 712.375 257.3875ZM714.9844 250.96564L713.9844 252.45001L712.1719 252.45001L714.0781 249.99689L715.7656 249.99689L717.7344 252.45001L715.9375 252.45001L714.9844 250.96564ZM715.7656 249.35626L714.5 249.35626L712.46875 246.88751L714.5781 246.88751L715.7656 249.35626ZM725.125 262.95L728.5469 258.09064L725.3906 253.62189L727.3594 253.62189L728.7969 255.80939Q729.2031 256.4344 729.4531 256.85626Q729.8281 256.2625 730.15625 255.82501L731.7344 253.62189L733.625 253.62189L730.3906 258.0125L733.875 262.95L731.9219 262.95L730.0156 260.04376L729.5 259.2625L727.0469 262.95L725.125 262.95ZM740.2969 262.95L740.2969 261.575Q739.21875 263.16876 737.34375 263.16876Q736.5156 263.16876 735.7969 262.85626Q735.0781 262.52814 734.7344 262.0594Q734.3906 261.575 734.25 260.8719Q734.15625 260.40314 734.15625 259.40314L734.15625 253.62189L735.7344 253.62189L735.7344 258.79376Q735.7344 260.02814 735.8281 260.46564Q735.9844 261.09064 736.46875 261.45Q736.9531 261.79376 737.65625 261.79376Q738.375 261.79376 739.0 261.4344Q739.625 261.075 739.875 260.45Q740.1406 259.8094 740.1406 258.6219L740.1406 253.62189L741.71875 253.62189L741.71875 262.95L740.2969 262.95ZM750.28125 261.79376Q749.40625 262.54376 748.5781 262.85626Q747.7656 263.16876 746.84375 263.16876Q745.2969 263.16876 744.46875 262.41876Q743.65625 261.65314 743.65625 260.48126Q743.65625 259.8094 743.96875 259.2469Q744.28125 258.66876 744.78125 258.325Q745.28125 257.98126 745.9219 257.8094Q746.3906 257.6844 747.3281 257.575Q749.2344 257.34064 750.1406 257.02814Q750.15625 256.7 750.15625 256.60626Q750.15625 255.65314 749.7031 255.24689Q749.09375 254.71564 747.90625 254.71564Q746.78125 254.71564 746.25 255.10626Q745.71875 255.49689 745.46875 256.4969L743.9219 256.27814Q744.1406 255.27814 744.6094 254.66876Q745.09375 254.05939 746.0 253.73126Q746.9219 253.40314 748.1406 253.40314Q749.3281 253.40314 750.0781 253.68439Q750.8281 253.96564 751.1719 254.40314Q751.53125 254.82501 751.6719 255.46564Q751.75 255.87189 751.75 256.9344L751.75 259.04376Q751.75 261.2469 751.84375 261.84064Q751.9531 262.41876 752.25 262.95L750.59375 262.95Q750.34375 262.45 750.28125 261.79376ZM750.1406 258.2625Q749.28125 258.6219 747.5625 258.85626Q746.59375 258.9969 746.1875 259.1844Q745.78125 259.35626 745.5625 259.7Q745.34375 260.02814 745.34375 260.45Q745.34375 261.075 745.8125 261.4969Q746.2969 261.91876 747.21875 261.91876Q748.1406 261.91876 748.84375 261.52814Q749.5625 261.1219 749.8906 260.4344Q750.1406 259.8875 750.1406 258.84064L750.1406 258.2625ZM747.9844 250.96564L746.9844 252.45001L745.1719 252.45001L747.0781 249.99689L748.7656 249.99689L750.7344 252.45001L748.9375 252.45001L747.9844 250.96564ZM748.25 246.88751L750.375 246.88751L748.34375 249.35626L747.0625 249.35626L748.25 246.88751ZM757.6406 261.52814L757.875 262.9344Q757.2031 263.075 756.6719 263.075Q755.8125 263.075 755.3281 262.8094Q754.8594 262.52814 754.6719 262.09064Q754.4844 261.6375 754.4844 260.21564L754.4844 254.84064L753.3125 254.84064L753.3125 253.62189L754.4844 253.62189L754.4844 251.30939L756.0469 250.35626L756.0469 253.62189L757.6406 253.62189L757.6406 254.84064L756.0469 254.84064L756.0469 260.3094Q756.0469 260.98126 756.125 261.1844Q756.21875 261.3719 756.40625 261.48126Q756.59375 261.59064 756.9531 261.59064Q757.2031 261.59064 757.6406 261.52814Z" fill-rule="nonzero"/></svg>