<svg version="1.1" viewBox="0.0 0.0 1038.0 281.0" fill="none" stroke="none" stroke-linecap="square" stroke-miterlimit="10" width="1038" height="281" xmlns:xlink="http://www.w3.org/1999/xlink" xmlns="http://www.w3.org/2000/svg"><path fill="#ffffff" d="M0 0L1038.0 0L1038.0 281.0L0 281.0L0 0Z" fill-rule="nonzero"/><path stroke="#333333" stroke-width="1.0" stroke-linecap="butt" d="M96.5 181.5L1023.5 181.5" fill-rule="nonzero"/><path stroke="#cccccc" stroke-width="1.0" stroke-linecap="butt" d="M96.5 128.5L1023.5 128.5" fill-rule="nonzero"/><path stroke="#cccccc" stroke-width="1.0" stroke-linecap="butt" d="M96.5 74.5L1023.5 74.5" fill-rule="nonzero"/><path stroke="#cccccc" stroke-width="1.0" stroke-linecap="butt" d="M96.5 21.5L1023.5 21.5" fill-rule="nonzero"/><clipPath id="id_0"><path d="M96.05 21.05L1023.95 21.05L1023.95 181.58333L96.05 181.58333L96.05 21.05Z" clip-rule="nonzero"/></clipPath><path stroke="#ff0000" stroke-width="2.0" stroke-linecap="butt" stroke-dasharray="8.0,6.0" clip-path="url(#id_0)" d="M108.9375 142.0033L134.7125 96.211975L160.4875 129.75482L186.2625 108.16426L212.0375 133.09743L237.8125 107.77165L263.5875 161.17235L289.3625 162.67596L315.1375 159.03146L340.9125 119.28441L366.6875 129.55855L392.4625 158.2589L418.2375 168.6794L444.0125 111.858826L469.7875 155.62502L495.5625 161.63205L521.3375 164.71979L547.1125 165.47993L572.8875 165.99072L598.6625 175.51747L624.4375 178.81465L650.2125 178.79953L675.9875 178.76982L701.7625 177.33087L727.5375 175.42955L753.3125 163.45145L779.0875 163.22165L804.8625 177.15048L830.6375 168.50804L856.4125 155.09254L882.1875 115.42599L907.9625 76.562996L933.7375 35.598072L959.5125 50.75264L985.2875 135.21666L1011.0625 151.1014" fill-rule="nonzero"/><path stroke="#0000ff" stroke-width="2.0" stroke-linecap="butt" clip-path="url(#id_0)" d="M108.9375 157.88211L134.7125 154.98457L160.4875 164.87143L186.2625 160.99185L212.0375 171.30731L237.8125 166.94464L263.5875 53.29486L289.3625 115.26462L315.1375 168.6232L340.9125 153.92932L366.6875 102.35825L392.4625 146.35313L418.2375 162.85L444.0125 168.99118L469.7875 176.5998L495.5625 177.27182L521.3375 134.53189L547.1125 177.84738L572.8875 177.78023L598.6625 174.26202L624.4375 177.81352L650.2125 176.82863L675.9875 175.3692L701.7625 179.49365L727.5375 177.10265L753.3125 168.4561L779.0875 176.55908L804.8625 173.78378L830.6375 175.41678L856.4125 172.09032L882.1875 179.83644L907.9625 165.86858L933.7375 166.68344L959.5125 166.22005L985.2875 171.29105L1011.0625 174.51828" fill-rule="nonzero"/><path fill="#000000" fill-opacity="0.0" clip-path="url(#id_0)" d="M111.9375 142.0033C111.9375 143.66016 110.59435 145.0033 108.9375 145.0033C107.28065 145.0033 105.9375 143.66016 105.9375 142.0033C105.9375 140.34644 107.28065 139.0033 108.9375 139.0033C110.59435 139.0033 111.9375 140.34644 111.9375 142.0033Z" fill-rule="nonzero"/><path fill="#000000" fill-opacity="0.0" clip-path="url(#id_0)" d="M137.7125 96.211975C137.7125 97.86883 136.36935 99.211975 134.7125 99.211975C133.05565 99.211975 131.7125 97.86883 131.7125 96.211975C131.7125 94.55512 133.05565 93.211975 134.7125 93.211975C136.36935 93.211975 137.7125 94.55512 137.7125 96.211975Z" fill-rule="nonzero"/><path fill="#000000" fill-opacity="0.0" clip-path="url(#id_0)" d="M163.4875 129.75482C163.4875 131.41167 162.14435 132.75482 160.4875 132.75482C158.83064 132.75482 157.4875 131.41167 157.4875 129.75482C157.4875 128.09796 158.83064 126.754814 160.4875 126.754814C162.14435 126.754814 163.4875 128.09796 163.4875 129.75482Z" fill-rule="nonzero"/><path fill="#000000" fill-opacity="0.0" clip-path="url(#id_0)" d="M189.2625 108.16426C189.2625 109.82111 187.91936 111.16426 186.2625 111.16426C184.60565 111.16426 183.2625 109.82111 183.2625 108.16426C183.2625 106.50741 184.60565 105.16426 186.2625 105.16426C187.91936 105.16426 189.2625 106.50741 189.2625 108.16426Z" fill-rule="nonzero"/><path fill="#000000" fill-opacity="0.0" clip-path="url(#id_0)" d="M215.0375 133.09743C215.0375 134.75429 213.69435 136.09743 212.0375 136.09743C210.38065 136.09743 209.0375 134.75429 209.0375 133.09743C209.0375 131.44058 210.38065 130.09743 212.0375 130.09743C213.69435 130.09743 215.0375 131.44058 215.0375 133.09743Z" fill-rule="nonzero"/><path fill="#000000" fill-opacity="0.0" clip-path="url(#id_0)" d="M240.8125 107.77165C240.8125 109.428505 239.46936 110.77165 237.8125 110.77165C236.15564 110.77165 234.8125 109.428505 234.8125 107.77165C234.8125 106.1148 236.15564 104.77165 237.8125 104.77165C239.46936 104.77165 240.8125 106.1148 240.8125 107.77165Z" fill-rule="nonzero"/><path fill="#000000" fill-opacity="0.0" clip-path="url(#id_0)" d="M266.5875 161.17235C266.5875 162.8292 265.24435 164.17235 263.5875 164.17235C261.93063 164.17235 260.5875 162.8292 260.5875 161.17235C260.5875 159.51549 261.93063 158.17235 263.5875 158.17235C265.24435 158.17235 266.5875 159.51549 266.5875 161.17235Z" fill-rule="nonzero"/><path fill="#000000" fill-opacity="0.0" clip-path="url(#id_0)" d="M292.3625 162.67596C292.3625 164.33281 291.01935 165.67596 289.3625 165.67596C287.70566 165.67596 286.3625 164.33281 286.3625 162.67596C286.3625 161.0191 287.70566 159.67596 289.3625 159.67596C291.01935 159.67596 292.3625 161.0191 292.3625 162.67596Z" fill-rule="nonzero"/><path fill="#000000" fill-opacity="0.0" clip-path="url(#id_0)" d="M318.1375 159.03146C318.1375 160.68831 316.79434 162.03146 315.1375 162.03146C313.48065 162.03146 312.1375 160.68831 312.1375 159.03146C312.1375 157.3746 313.48065 156.03146 315.1375 156.03146C316.79434 156.03146 318.1375 157.3746 318.1375 159.03146Z" fill-rule="nonzero"/><path fill="#000000" fill-opacity="0.0" clip-path="url(#id_0)" d="M343.9125 119.28441C343.9125 120.94126 342.56937 122.28441 340.9125 122.28441C339.25565 122.28441 337.9125 120.94126 337.9125 119.28441C337.9125 117.627556 339.25565 116.28441 340.9125 116.28441C342.56937 116.28441 343.9125 117.627556 343.9125 119.28441Z" fill-rule="nonzero"/><path fill="#000000" fill-opacity="0.0" clip-path="url(#id_0)" d="M369.6875 129.55855C369.6875 131.2154 368.34436 132.55855 366.6875 132.55855C365.03064 132.55855 363.6875 131.2154 363.6875 129.55855C363.6875 127.90169 365.03064 126.55854 366.6875 126.55854C368.34436 126.55854 369.6875 127.90169 369.6875 129.55855Z" fill-rule="nonzero"/><path fill="#000000" fill-opacity="0.0" clip-path="url(#id_0)" d="M395.4625 158.2589C395.4625 159.91574 394.11935 161.2589 392.4625 161.2589C390.80563 161.2589 389.4625 159.91574 389.4625 158.2589C389.4625 156.60204 390.80563 155.2589 392.4625 155.2589C394.11935 155.2589 395.4625 156.60204 395.4625 158.2589Z" fill-rule="nonzero"/><path fill="#000000" fill-opacity="0.0" clip-path="url(#id_0)" d="M421.2375 168.6794C421.2375 170.33624 419.89435 171.6794 418.2375 171.6794C416.58066 171.6794 415.2375 170.33624 415.2375 168.6794C415.2375 167.02254 416.58066 165.6794 418.2375 165.6794C419.89435 165.6794 421.2375 167.02254 421.2375 168.6794Z" fill-rule="nonzero"/><path fill="#000000" fill-opacity="0.0" clip-path="url(#id_0)" d="M447.0125 111.858826C447.0125 113.51568 445.66934 114.858826 444.0125 114.858826C442.35565 114.858826 441.0125 113.51568 441.0125 111.858826C441.0125 110.20197 442.35565 108.858826 444.0125 108.858826C445.66934 108.858826 447.0125 110.20197 447.0125 111.858826Z" fill-rule="nonzero"/><path fill="#000000" fill-opacity="0.0" clip-path="url(#id_0)" d="M472.7875 155.62502C472.7875 157.28186 471.44437 158.62502 469.7875 158.62502C468.13065 158.62502 466.7875 157.28186 466.7875 155.62502C466.7875 153.96815 468.13065 152.62502 469.7875 152.62502C471.44437 152.62502 472.7875 153.96815 472.7875 155.62502Z" fill-rule="nonzero"/><path fill="#000000" fill-opacity="0.0" clip-path="url(#id_0)" d="M498.5625 161.63205C498.5625 163.28891 497.21936 164.63205 495.5625 164.63205C493.90564 164.63205 492.5625 163.28891 492.5625 161.63205C492.5625 159.97519 493.90564 158.63205 495.5625 158.63205C497.21936 158.63205 498.5625 159.97519 498.5625 161.63205Z" fill-rule="nonzero"/><path fill="#000000" fill-opacity="0.0" clip-path="url(#id_0)" d="M524.3375 164.71979C524.3375 166.37663 522.9944 167.71979 521.3375 167.71979C519.68066 167.71979 518.3375 166.37663 518.3375 164.71979C518.3375 163.06293 519.68066 161.71979 521.3375 161.71979C522.9944 161.71979 524.3375 163.06293 524.3375 164.71979Z" fill-rule="nonzero"/><path fill="#000000" fill-opacity="0.0" clip-path="url(#id_0)" d="M550.1125 165.47993C550.1125 167.1368 548.76935 168.47993 547.1125 168.47993C545.4556 168.47993 544.1125 167.1368 544.1125 165.47993C544.1125 163.82309 545.4556 162.47993 547.1125 162.47993C548.76935 162.47993 550.1125 163.82309 550.1125 165.47993Z" fill-rule="nonzero"/><path fill="#000000" fill-opacity="0.0" clip-path="url(#id_0)" d="M575.8875 165.99072C575.8875 167.64758 574.5444 168.99072 572.8875 168.99072C571.23065 168.99072 569.8875 167.64758 569.8875 165.99072C569.8875 164.33386 571.23065 162.99072 572.8875 162.99072C574.5444 162.99072 575.8875 164.33386 575.8875 165.99072Z" fill-rule="nonzero"/><path fill="#000000" fill-opacity="0.0" clip-path="url(#id_0)" d="M601.6625 175.51747C601.6625 177.17433 600.31934 178.51747 598.6625 178.51747C597.0056 178.51747 595.6625 177.17433 595.6625 175.51747C595.6625 173.86063 597.0056 172.51747 598.6625 172.51747C600.31934 172.51747 601.6625 173.86063 601.6625 175.51747Z" fill-rule="nonzero"/><path fill="#000000" fill-opacity="0.0" clip-path="url(#id_0)" d="M627.4375 178.81465C627.4375 180.47151 626.09436 181.81465 624.4375 181.81465C622.78064 181.81465 621.4375 180.47151 621.4375 178.81465C621.4375 177.1578 622.78064 175.81465 624.4375 175.81465C626.09436 175.81465 627.4375 177.1578 627.4375 178.81465Z" fill-rule="nonzero"/><path fill="#000000" fill-opacity="0.0" clip-path="url(#id_0)" d="M653.2125 178.79953C653.2125 180.45638 651.8694 181.79953 650.2125 181.79953C648.55566 181.79953 647.2125 180.45638 647.2125 178.79953C647.2125 177.14267 648.55566 175.79953 650.2125 175.79953C651.8694 175.79953 653.2125 177.14267 653.2125 178.79953Z" fill-rule="nonzero"/><path fill="#000000" fill-opacity="0.0" clip-path="url(#id_0)" d="M678.9875 178.76982C678.9875 180.42667 677.64435 181.76982 675.9875 181.76982C674.3306 181.76982 672.9875 180.42667 672.9875 178.76982C672.9875 177.11296 674.3306 175.76982 675.9875 175.76982C677.64435 175.76982 678.9875 177.11296 678.9875 178.76982Z" fill-rule="nonzero"/><path fill="#000000" fill-opacity="0.0" clip-path="url(#id_0)" d="M704.7625 177.33087C704.7625 178.98773 703.4194 180.33087 701.7625 180.33087C700.10565 180.33087 698.7625 178.98773 698.7625 177.33087C698.7625 175.67401 700.10565 174.33087 701.7625 174.33087C703.4194 174.33087 704.7625 175.67401 704.7625 177.33087Z" fill-rule="nonzero"/><path fill="#000000" fill-opacity="0.0" clip-path="url(#id_0)" d="M730.5375 175.42955C730.5375 177.08641 729.19434 178.42955 727.5375 178.42955C725.8806 178.42955 724.5375 177.08641 724.5375 175.42955C724.5375 173.7727 725.8806 172.42955 727.5375 172.42955C729.19434 172.42955 730.5375 173.7727 730.5375 175.42955Z" fill-rule="nonzero"/><path fill="#000000" fill-opacity="0.0" clip-path="url(#id_0)" d="M756.3125 163.45145C756.3125 165.1083 754.96936 166.45145 753.3125 166.45145C751.65564 166.45145 750.3125 165.1083 750.3125 163.45145C750.3125 161.7946 751.65564 160.45145 753.3125 160.45145C754.96936 160.45145 756.3125 161.7946 756.3125 163.45145Z" fill-rule="nonzero"/><path fill="#000000" fill-opacity="0.0" clip-path="url(#id_0)" d="M782.0875 163.22165C782.0875 164.87851 780.7444 166.22165 779.0875 166.22165C777.43066 166.22165 776.0875 164.87851 776.0875 163.22165C776.0875 161.5648 777.43066 160.22165 779.0875 160.22165C780.7444 160.22165 782.0875 161.5648 782.0875 163.22165Z" fill-rule="nonzero"/><path fill="#000000" fill-opacity="0.0" clip-path="url(#id_0)" d="M807.8625 177.15048C807.8625 178.80734 806.51935 180.15048 804.8625 180.15048C803.2056 180.15048 801.8625 178.80734 801.8625 177.15048C801.8625 175.49362 803.2056 174.15048 804.8625 174.15048C806.51935 174.15048 807.8625 175.49362 807.8625 177.15048Z" fill-rule="nonzero"/><path fill="#000000" fill-opacity="0.0" clip-path="url(#id_0)" d="M833.6375 168.50804C833.6375 170.1649 832.2944 171.50804 830.6375 171.50804C828.98065 171.50804 827.6375 170.1649 827.6375 168.50804C827.6375 166.8512 828.98065 165.50804 830.6375 165.50804C832.2944 165.50804 833.6375 166.8512 833.6375 168.50804Z" fill-rule="nonzero"/><path fill="#000000" fill-opacity="0.0" clip-path="url(#id_0)" d="M859.4125 155.09254C859.4125 156.74939 858.06934 158.09254 856.4125 158.09254C854.7556 158.09254 853.4125 156.74939 853.4125 155.09254C853.4125 153.43568 854.7556 152.09254 856.4125 152.09254C858.06934 152.09254 859.4125 153.43568 859.4125 155.09254Z" fill-rule="nonzero"/><path fill="#000000" fill-opacity="0.0" clip-path="url(#id_0)" d="M885.1875 115.42599C885.1875 117.08284 883.84436 118.42599 882.1875 118.42599C880.53064 118.42599 879.1875 117.08284 879.1875 115.42599C879.1875 113.769135 880.53064 112.42599 882.1875 112.42599C883.84436 112.42599 885.1875 113.769135 885.1875 115.42599Z" fill-rule="nonzero"/><path fill="#000000" fill-opacity="0.0" clip-path="url(#id_0)" d="M910.9625 76.562996C910.9625 78.21985 909.6194 79.562996 907.9625 79.562996C906.30566 79.562996 904.9625 78.21985 904.9625 76.562996C904.9625 74.90614 906.30566 73.562996 907.9625 73.562996C909.6194 73.562996 910.9625 74.90614 910.9625 76.562996Z" fill-rule="nonzero"/><path fill="#000000" fill-opacity="0.0" clip-path="url(#id_0)" d="M936.7375 35.598072C936.7375 37.254925 935.39435 38.598072 933.7375 38.598072C932.0806 38.598072 930.7375 37.254925 930.7375 35.598072C930.7375 33.94122 932.0806 32.598072 933.7375 32.598072C935.39435 32.598072 936.7375 33.94122 936.7375 35.598072Z" fill-rule="nonzero"/><path fill="#000000" fill-opacity="0.0" clip-path="url(#id_0)" d="M962.5125 50.75264C962.5125 52.409492 961.1694 53.75264 959.5125 53.75264C957.85565 53.75264 956.5125 52.409492 956.5125 50.75264C956.5125 49.095783 957.85565 47.75264 959.5125 47.75264C961.1694 47.75264 962.5125 49.095783 962.5125 50.75264Z" fill-rule="nonzero"/><path fill="#000000" fill-opacity="0.0" clip-path="url(#id_0)" d="M988.2875 135.21666C988.2875 136.87352 986.94434 138.21666 985.2875 138.21666C983.6306 138.21666 982.2875 136.87352 982.2875 135.21666C982.2875 133.5598 983.6306 132.21666 985.2875 132.21666C986.94434 132.21666 988.2875 133.5598 988.2875 135.21666Z" fill-rule="nonzero"/><path fill="#000000" fill-opacity="0.0" clip-path="url(#id_0)" d="M1014.0625 151.1014C1014.0625 152.75824 1012.71936 154.1014 1011.0625 154.1014C1009.40564 154.1014 1008.0625 152.75824 1008.0625 151.1014C1008.0625 149.44453 1009.40564 148.1014 1011.0625 148.1014C1012.71936 148.1014 1014.0625 149.44453 1014.0625 151.1014Z" fill-rule="nonzero"/><path fill="#000000" fill-opacity="0.0" clip-path="url(#id_0)" d="M111.9375 157.88211C111.9375 159.53897 110.59435 160.88211 108.9375 160.88211C107.28065 160.88211 105.9375 159.53897 105.9375 157.88211C105.9375 156.22527 107.28065 154.88211 108.9375 154.88211C110.59435 154.88211 111.9375 156.22527 111.9375 157.88211Z" fill-rule="nonzero"/><path fill="#000000" fill-opacity="0.0" clip-path="url(#id_0)" d="M137.7125 154.98457C137.7125 156.64143 136.36935 157.98457 134.7125 157.98457C133.05565 157.98457 131.7125 156.64143 131.7125 154.98457C131.7125 153.32771 133.05565 151.98457 134.7125 151.98457C136.36935 151.98457 137.7125 153.32771 137.7125 154.98457Z" fill-rule="nonzero"/><path fill="#000000" fill-opacity="0.0" clip-path="url(#id_0)" d="M163.4875 164.87143C163.4875 166.52829 162.14435 167.87143 160.4875 167.87143C158.83064 167.87143 157.4875 166.52829 157.4875 164.87143C157.4875 163.21458 158.83064 161.87143 160.4875 161.87143C162.14435 161.87143 163.4875 163.21458 163.4875 164.87143Z" fill-rule="nonzero"/><path fill="#000000" fill-opacity="0.0" clip-path="url(#id_0)" d="M189.2625 160.99185C189.2625 162.6487 187.91936 163.99185 186.2625 163.99185C184.60565 163.99185 183.2625 162.6487 183.2625 160.99185C183.2625 159.33499 184.60565 157.99185 186.2625 157.99185C187.91936 157.99185 189.2625 159.33499 189.2625 160.99185Z" fill-rule="nonzero"/><path fill="#000000" fill-opacity="0.0" clip-path="url(#id_0)" d="M215.0375 171.30731C215.0375 172.96417 213.69435 174.30731 212.0375 174.30731C210.38065 174.30731 209.0375 172.96417 209.0375 171.30731C209.0375 169.65047 210.38065 168.30731 212.0375 168.30731C213.69435 168.30731 215.0375 169.65047 215.0375 171.30731Z" fill-rule="nonzero"/><path fill="#000000" fill-opacity="0.0" clip-path="url(#id_0)" d="M240.8125 166.94464C240.8125 168.6015 239.46936 169.94464 237.8125 169.94464C236.15564 169.94464 234.8125 168.6015 234.8125 166.94464C234.8125 165.2878 236.15564 163.94464 237.8125 163.94464C239.46936 163.94464 240.8125 165.2878 240.8125 166.94464Z" fill-rule="nonzero"/><path fill="#000000" fill-opacity="0.0" clip-path="url(#id_0)" d="M266.5875 53.29486C266.5875 54.951714 265.24435 56.29486 263.5875 56.29486C261.93063 56.29486 260.5875 54.951714 260.5875 53.29486C260.5875 51.638004 261.93063 50.29486 263.5875 50.29486C265.24435 50.29486 266.5875 51.638004 266.5875 53.29486Z" fill-rule="nonzero"/><path fill="#000000" fill-opacity="0.0" clip-path="url(#id_0)" d="M292.3625 115.26462C292.3625 116.92147 291.01935 118.26462 289.3625 118.26462C287.70566 118.26462 286.3625 116.92147 286.3625 115.26462C286.3625 113.607765 287.70566 112.26462 289.3625 112.26462C291.01935 112.26462 292.3625 113.607765 292.3625 115.26462Z" fill-rule="nonzero"/><path fill="#000000" fill-opacity="0.0" clip-path="url(#id_0)" d="M318.1375 168.6232C318.1375 170.28004 316.79434 171.6232 315.1375 171.6232C313.48065 171.6232 312.1375 170.28004 312.1375 168.6232C312.1375 166.96634 313.48065 165.6232 315.1375 165.6232C316.79434 165.6232 318.1375 166.96634 318.1375 168.6232Z" fill-rule="nonzero"/><path fill="#000000" fill-opacity="0.0" clip-path="url(#id_0)" d="M343.9125 153.92932C343.9125 155.58618 342.56937 156.92932 340.9125 156.92932C339.25565 156.92932 337.9125 155.58618 337.9125 153.92932C337.9125 152.27248 339.25565 150.92932 340.9125 150.92932C342.56937 150.92932 343.9125 152.27248 343.9125 153.92932Z" fill-rule="nonzero"/><path fill="#000000" fill-opacity="0.0" clip-path="url(#id_0)" d="M369.6875 102.35825C369.6875 104.01511 368.34436 105.35825 366.6875 105.35825C365.03064 105.35825 363.6875 104.01511 363.6875 102.35825C363.6875 100.7014 365.03064 99.35825 366.6875 99.35825C368.34436 99.35825 369.6875 100.7014 369.6875 102.35825Z" fill-rule="nonzero"/><path fill="#000000" fill-opacity="0.0" clip-path="url(#id_0)" d="M395.4625 146.35313C395.4625 148.01 394.11935 149.35313 392.4625 149.35313C390.80563 149.35313 389.4625 148.01 389.4625 146.35313C389.4625 144.69629 390.80563 143.35313 392.4625 143.35313C394.11935 143.35313 395.4625 144.69629 395.4625 146.35313Z" fill-rule="nonzero"/><path fill="#000000" fill-opacity="0.0" clip-path="url(#id_0)" d="M421.2375 162.85C421.2375 164.50685 419.89435 165.85 418.2375 165.85C416.58066 165.85 415.2375 164.50685 415.2375 162.85C415.2375 161.19315 416.58066 159.85 418.2375 159.85C419.89435 159.85 421.2375 161.19315 421.2375 162.85Z" fill-rule="nonzero"/><path fill="#000000" fill-opacity="0.0" clip-path="url(#id_0)" d="M447.0125 168.99118C447.0125 170.64804 445.66934 171.99118 444.0125 171.99118C442.35565 171.99118 441.0125 170.64804 441.0125 168.99118C441.0125 167.33434 442.35565 165.99118 444.0125 165.99118C445.66934 165.99118 447.0125 167.33434 447.0125 168.99118Z" fill-rule="nonzero"/><path fill="#000000" fill-opacity="0.0" clip-path="url(#id_0)" d="M472.7875 176.5998C472.7875 178.25665 471.44437 179.5998 469.7875 179.5998C468.13065 179.5998 466.7875 178.25665 466.7875 176.5998C466.7875 174.94295 468.13065 173.5998 469.7875 173.5998C471.44437 173.5998 472.7875 174.94295 472.7875 176.5998Z" fill-rule="nonzero"/><path fill="#000000" fill-opacity="0.0" clip-path="url(#id_0)" d="M498.5625 177.27182C498.5625 178.92868 497.21936 180.27182 495.5625 180.27182C493.90564 180.27182 492.5625 178.92868 492.5625 177.27182C492.5625 175.61497 493.90564 174.27182 495.5625 174.27182C497.21936 174.27182 498.5625 175.61497 498.5625 177.27182Z" fill-rule="nonzero"/><path fill="#000000" fill-opacity="0.0" clip-path="url(#id_0)" d="M524.3375 134.53189C524.3375 136.18874 522.9944 137.53189 521.3375 137.53189C519.68066 137.53189 518.3375 136.18874 518.3375 134.53189C518.3375 132.87503 519.68066 131.53189 521.3375 131.53189C522.9944 131.53189 524.3375 132.87503 524.3375 134.53189Z" fill-rule="nonzero"/><path fill="#000000" fill-opacity="0.0" clip-path="url(#id_0)" d="M550.1125 177.84738C550.1125 179.50423 548.76935 180.84738 547.1125 180.84738C545.4556 180.84738 544.1125 179.50423 544.1125 177.84738C544.1125 176.19052 545.4556 174.84738 547.1125 174.84738C548.76935 174.84738 550.1125 176.19052 550.1125 177.84738Z" fill-rule="nonzero"/><path fill="#000000" fill-opacity="0.0" clip-path="url(#id_0)" d="M575.8875 177.78023C575.8875 179.43709 574.5444 180.78023 572.8875 180.78023C571.23065 180.78023 569.8875 179.43709 569.8875 177.78023C569.8875 176.12338 571.23065 174.78023 572.8875 174.78023C574.5444 174.78023 575.8875 176.12338 575.8875 177.78023Z" fill-rule="nonzero"/><path fill="#000000" fill-opacity="0.0" clip-path="url(#id_0)" d="M601.6625 174.26202C601.6625 175.91888 600.31934 177.26202 598.6625 177.26202C597.0056 177.26202 595.6625 175.91888 595.6625 174.26202C595.6625 172.60518 597.0056 171.26202 598.6625 171.26202C600.31934 171.26202 601.6625 172.60518 601.6625 174.26202Z" fill-rule="nonzero"/><path fill="#000000" fill-opacity="0.0" clip-path="url(#id_0)" d="M627.4375 177.81352C627.4375 179.47037 626.09436 180.81352 624.4375 180.81352C622.78064 180.81352 621.4375 179.47037 621.4375 177.81352C621.4375 176.15666 622.78064 174.81352 624.4375 174.81352C626.09436 174.81352 627.4375 176.15666 627.4375 177.81352Z" fill-rule="nonzero"/><path fill="#000000" fill-opacity="0.0" clip-path="url(#id_0)" d="M653.2125 176.82863C653.2125 178.48549 651.8694 179.82863 650.2125 179.82863C648.55566 179.82863 647.2125 178.48549 647.2125 176.82863C647.2125 175.17178 648.55566 173.82863 650.2125 173.82863C651.8694 173.82863 653.2125 175.17178 653.2125 176.82863Z" fill-rule="nonzero"/><path fill="#000000" fill-opacity="0.0" clip-path="url(#id_0)" d="M678.9875 175.3692C678.9875 177.02605 677.64435 178.3692 675.9875 178.3692C674.3306 178.3692 672.9875 177.02605 672.9875 175.3692C672.9875 173.71234 674.3306 172.3692 675.9875 172.3692C677.64435 172.3692 678.9875 173.71234 678.9875 175.3692Z" fill-rule="nonzero"/><path fill="#000000" fill-opacity="0.0" clip-path="url(#id_0)" d="M704.7625 179.49365C704.7625 181.15051 703.4194 182.49365 701.7625 182.49365C700.10565 182.49365 698.7625 181.15051 698.7625 179.49365C698.7625 177.8368 700.10565 176.49365 701.7625 176.49365C703.4194 176.49365 704.7625 177.8368 704.7625 179.49365Z" fill-rule="nonzero"/><path fill="#000000" fill-opacity="0.0" clip-path="url(#id_0)" d="M730.5375 177.10265C730.5375 178.75949 729.19434 180.10265 727.5375 180.10265C725.8806 180.10265 724.5375 178.75949 724.5375 177.10265C724.5375 175.44579 725.8806 174.10265 727.5375 174.10265C729.19434 174.10265 730.5375 175.44579 730.5375 177.10265Z" fill-rule="nonzero"/><path fill="#000000" fill-opacity="0.0" clip-path="url(#id_0)" d="M756.3125 168.4561C756.3125 170.11296 754.96936 171.4561 753.3125 171.4561C751.65564 171.4561 750.3125 170.11296 750.3125 168.4561C750.3125 166.79924 751.65564 165.4561 753.3125 165.4561C754.96936 165.4561 756.3125 166.79924 756.3125 168.4561Z" fill-rule="nonzero"/><path fill="#000000" fill-opacity="0.0" clip-path="url(#id_0)" d="M782.0875 176.55908C782.0875 178.21594 780.7444 179.55908 779.0875 179.55908C777.43066 179.55908 776.0875 178.21594 776.0875 176.55908C776.0875 174.90224 777.43066 173.55908 779.0875 173.55908C780.7444 173.55908 782.0875 174.90224 782.0875 176.55908Z" fill-rule="nonzero"/><path fill="#000000" fill-opacity="0.0" clip-path="url(#id_0)" d="M807.8625 173.78378C807.8625 175.44063 806.51935 176.78378 804.8625 176.78378C803.2056 176.78378 801.8625 175.44063 801.8625 173.78378C801.8625 172.12692 803.2056 170.78378 804.8625 170.78378C806.51935 170.78378 807.8625 172.12692 807.8625 173.78378Z" fill-rule="nonzero"/><path fill="#000000" fill-opacity="0.0" clip-path="url(#id_0)" d="M833.6375 175.41678C833.6375 177.07364 832.2944 178.41678 830.6375 178.41678C828.98065 178.41678 827.6375 177.07364 827.6375 175.41678C827.6375 173.75992 828.98065 172.41678 830.6375 172.41678C832.2944 172.41678 833.6375 173.75992 833.6375 175.41678Z" fill-rule="nonzero"/><path fill="#000000" fill-opacity="0.0" clip-path="url(#id_0)" d="M859.4125 172.09032C859.4125 173.74716 858.06934 175.09032 856.4125 175.09032C854.7556 175.09032 853.4125 173.74716 853.4125 172.09032C853.4125 170.43346 854.7556 169.09032 856.4125 169.09032C858.06934 169.09032 859.4125 170.43346 859.4125 172.09032Z" fill-rule="nonzero"/><path fill="#000000" fill-opacity="0.0" clip-path="url(#id_0)" d="M885.1875 179.83644C885.1875 181.49329 883.84436 182.83644 882.1875 182.83644C880.53064 182.83644 879.1875 181.49329 879.1875 179.83644C879.1875 178.17958 880.53064 176.83644 882.1875 176.83644C883.84436 176.83644 885.1875 178.17958 885.1875 179.83644Z" fill-rule="nonzero"/><path fill="#000000" fill-opacity="0.0" clip-path="url(#id_0)" d="M910.9625 165.86858C910.9625 167.52542 909.6194 168.86858 907.9625 168.86858C906.30566 168.86858 904.9625 167.52542 904.9625 165.86858C904.9625 164.21172 906.30566 162.86858 907.9625 162.86858C909.6194 162.86858 910.9625 164.21172 910.9625 165.86858Z" fill-rule="nonzero"/><path fill="#000000" fill-opacity="0.0" clip-path="url(#id_0)" d="M936.7375 166.68344C936.7375 168.3403 935.39435 169.68344 933.7375 169.68344C932.0806 169.68344 930.7375 168.3403 930.7375 166.68344C930.7375 165.02658 932.0806 163.68344 933.7375 163.68344C935.39435 163.68344 936.7375 165.02658 936.7375 166.68344Z" fill-rule="nonzero"/><path fill="#000000" fill-opacity="0.0" clip-path="url(#id_0)" d="M962.5125 166.22005C962.5125 167.8769 961.1694 169.22005 959.5125 169.22005C957.85565 169.22005 956.5125 167.8769 956.5125 166.22005C956.5125 164.5632 957.85565 163.22005 959.5125 163.22005C961.1694 163.22005 962.5125 164.5632 962.5125 166.22005Z" fill-rule="nonzero"/><path fill="#000000" fill-opacity="0.0" clip-path="url(#id_0)" d="M988.2875 171.29105C988.2875 172.94789 986.94434 174.29105 985.2875 174.29105C983.6306 174.29105 982.2875 172.94789 982.2875 171.29105C982.2875 169.63419 983.6306 168.29105 985.2875 168.29105C986.94434 168.29105 988.2875 169.63419 988.2875 171.29105Z" fill-rule="nonzero"/><path fill="#000000" fill-opacity="0.0" clip-path="url(#id_0)" d="M1014.0625 174.51828C1014.0625 176.17513 1012.71936 177.51828 1011.0625 177.51828C1009.40564 177.51828 1008.0625 176.17513 1008.0625 174.51828C1008.0625 172.86142 1009.40564 171.51828 1011.0625 171.51828C1012.71936 171.51828 1014.0625 172.86142 1014.0625 174.51828Z" fill-rule="nonzero"/><path fill="#000000" d="M497.89062 232.58333L497.89062 226.72395L496.46875 226.72395L496.46875 225.5677L497.89062 225.5677L497.89062 219.6927L502.34375 219.6927Q503.82812 219.6927 504.625 219.8802Q505.73438 220.1302 506.51562 220.80208Q507.53125 221.66145 508.03125 223.0052Q508.54688 224.34895 508.54688 226.0677Q508.54688 228.03645 507.92188 229.45833Q507.29688 230.8802 506.42188 231.52083Q505.54688 232.16145 504.42188 232.42708Q503.79688 232.58333 502.53125 232.58333L497.89062 232.58333ZM499.59375 231.0677L502.34375 231.0677Q503.625 231.0677 504.34375 230.83333Q505.0625 230.58333 505.48438 230.16145Q506.09375 229.55208 506.4375 228.53645Q506.78125 227.52083 506.78125 226.05208Q506.78125 224.53645 506.4375 223.6302Q506.10938 222.72395 505.5625 222.1927Q505.01562 221.64583 504.34375 221.4427Q503.6875 221.22395 502.29688 221.22395L499.59375 221.22395L499.59375 225.5677L503.14062 225.5677L503.14062 226.72395L499.59375 226.72395L499.59375 231.0677ZM511.71875 227.91145Q511.71875 229.64583 512.5 230.59895Q513.25 231.48958 514.46875 231.48958Q515.7031 231.48958 516.4375 230.59895Q517.21875 229.64583 517.21875 227.86458Q517.21875 226.17708 516.4219 225.23958Q515.6875 224.34895 514.46875 224.34895Q513.2344 224.34895 512.5 225.23958Q511.71875 226.17708 511.71875 227.91145ZM519.0469 224.86458L519.0469 223.02083L520.75 223.02083L520.75 224.47395Q520.75 225.5677 520.4219 226.14583Q519.9844 226.89583 518.84375 227.53645Q518.84375 227.64583 518.84375 227.78645Q518.84375 231.05208 516.7344 232.22395Q515.7031 232.80208 514.46875 232.80208Q512.46875 232.80208 511.29688 231.53645Q510.09375 230.23958 510.09375 227.91145Q510.09375 225.3177 511.54688 224.0677Q512.75 223.03645 514.46875 223.03645Q516.40625 223.03645 517.625 224.30208Q518.5469 225.2552 518.7656 226.77083Q519.375 226.39583 519.625 226.0052Q519.8906 225.59895 519.875 224.86458L519.0469 224.86458ZM522.6875 232.58333L522.6875 223.2552L524.1094 223.2552L524.1094 224.58333Q525.1406 223.03645 527.0781 223.03645Q527.9219 223.03645 528.625 223.34895Q529.34375 223.64583 529.6875 224.14583Q530.0469 224.6302 530.1875 225.30208Q530.2656 225.73958 530.2656 226.84895L530.2656 232.58333L528.6875 232.58333L528.6875 226.91145Q528.6875 225.9427 528.5 225.45833Q528.3281 224.97395 527.84375 224.6927Q527.375 224.41145 526.75 224.41145Q525.7344 224.41145 525.0 225.05208Q524.2656 225.6927 524.2656 227.48958L524.2656 232.58333L522.6875 232.58333ZM540.28125 232.58333L536.7344 223.2552L538.40625 223.2552L540.40625 228.83333Q540.7344 229.73958 541.0 230.72395Q541.21875 229.97395 541.59375 228.9427L543.65625 223.2552L545.2969 223.2552L541.75 232.58333L540.28125 232.58333ZM546.7031 221.52083L546.7031 219.6927L548.28125 219.6927L548.28125 221.52083L546.7031 221.52083ZM546.7031 232.58333L546.7031 223.2552L548.28125 223.2552L548.28125 232.58333L546.7031 232.58333ZM546.59375 235.4427L546.59375 233.64583L548.3906 233.64583L548.3906 235.4427L546.59375 235.4427ZM555.7031 232.58333L555.7031 219.6927L557.28125 219.6927L557.28125 227.05208L561.0156 223.2552L563.0625 223.2552L559.5 226.70833L563.4375 232.58333L561.4844 232.58333L558.3906 227.8177L557.28125 228.8802L557.28125 232.58333L555.7031 232.58333ZM564.7031 221.52083L564.7031 219.6927L566.28125 219.6927L566.28125 221.52083L564.7031 221.52083ZM564.7031 232.58333L564.7031 223.2552L566.28125 223.2552L566.28125 232.58333L564.7031 232.58333ZM575.0781 229.58333L576.71875 229.78645Q576.3281 231.20833 575.28125 232.0052Q574.2344 232.80208 572.6094 232.80208Q570.5625 232.80208 569.3594 231.53645Q568.15625 230.27083 568.15625 227.98958Q568.15625 225.64583 569.3594 224.34895Q570.5781 223.03645 572.5156 223.03645Q574.3906 223.03645 575.5781 224.3177Q576.7656 225.58333 576.7656 227.89583Q576.7656 228.03645 576.75 228.3177L569.7969 228.3177Q569.875 229.86458 570.65625 230.67708Q571.4531 231.48958 572.6094 231.48958Q573.4844 231.48958 574.09375 231.03645Q574.71875 230.58333 575.0781 229.58333ZM569.875 227.02083L575.09375 227.02083Q574.9844 225.84895 574.5 225.2552Q573.7344 224.33333 572.53125 224.33333Q571.4531 224.33333 570.7031 225.0677Q569.96875 225.80208 569.875 227.02083ZM572.4844 220.59895L571.4844 222.08333L569.6719 222.08333L571.5781 219.6302L573.2656 219.6302L575.2344 222.08333L573.4375 222.08333L572.4844 220.59895ZM571.96875 218.30208Q572.46875 218.2552 572.6094 218.20833Q573.0781 218.09895 573.09375 217.84895Q573.09375 217.64583 572.84375 217.5052Q572.46875 217.30208 571.6719 217.30208Q571.40625 217.30208 570.84375 217.34895L570.75 216.52083Q571.09375 216.4427 572.0156 216.45833Q573.09375 216.45833 573.78125 216.80208Q574.53125 217.17708 574.5625 217.77083Q574.59375 218.64583 572.9531 218.84895L572.9531 219.28645L571.96875 219.28645L571.96875 218.30208ZM578.6875 232.58333L578.6875 223.2552L580.1094 223.2552L580.1094 224.55208Q580.5469 223.8802 581.2656 223.45833Q582.0 223.03645 582.9375 223.03645Q583.96875 223.03645 584.625 223.47395Q585.2969 223.89583 585.5625 224.67708Q586.6719 223.03645 588.4531 223.03645Q589.84375 223.03645 590.5781 223.8177Q591.3281 224.58333 591.3281 226.17708L591.3281 232.58333L589.7656 232.58333L589.7656 226.70833Q589.7656 225.7552 589.6094 225.33333Q589.4531 224.91145 589.0469 224.66145Q588.6406 224.41145 588.09375 224.41145Q587.1094 224.41145 586.4531 225.0677Q585.8125 225.72395 585.8125 227.16145L585.8125 232.58333L584.2344 232.58333L584.2344 226.52083Q584.2344 225.45833 583.84375 224.9427Q583.4531 224.41145 582.5781 224.41145Q581.90625 224.41145 581.34375 224.77083Q580.78125 225.11458 580.5156 225.78645Q580.2656 226.45833 580.2656 227.73958L580.2656 232.58333L578.6875 232.58333ZM601.1406 231.16145L601.375 232.5677Q600.7031 232.70833 600.1719 232.70833Q599.3125 232.70833 598.8281 232.4427Q598.3594 232.16145 598.1719 231.72395Q597.9844 231.27083 597.9844 229.84895L597.9844 224.47395L596.8125 224.47395L596.8125 223.2552L597.9844 223.2552L597.9844 220.9427L599.5469 219.98958L599.5469 223.2552L601.1406 223.2552L601.1406 224.47395L599.5469 224.47395L599.5469 229.9427Q599.5469 230.61458 599.625 230.8177Q599.71875 231.0052 599.90625 231.11458Q600.09375 231.22395 600.4531 231.22395Q600.7031 231.22395 601.1406 231.16145ZM602.6875 232.58333L602.6875 219.6927L604.2656 219.6927L604.2656 224.3177Q605.375 223.03645 607.0625 223.03645Q608.09375 223.03645 608.8594 223.4427Q609.625 223.84895 609.9531 224.58333Q610.2969 225.30208 610.2969 226.66145L610.2969 232.58333L608.7031 232.58333L608.7031 226.66145Q608.7031 225.47395 608.1875 224.9427Q607.6719 224.39583 606.7344 224.39583Q606.03125 224.39583 605.40625 224.77083Q604.7969 225.1302 604.53125 225.7552Q604.2656 226.3802 604.2656 227.47395L604.2656 232.58333L602.6875 232.58333ZM621.3125 225.08333L621.3125 223.2552L623.0 223.2552L623.0 224.6927Q623.0 226.08333 622.6875 226.6302Q621.875 228.03645 620.21875 228.20833L620.21875 232.58333L618.7969 232.58333L618.7969 231.20833Q617.71875 232.80208 615.84375 232.80208Q615.03125 232.80208 614.3125 232.48958Q613.59375 232.17708 613.2344 231.6927Q612.8906 231.20833 612.75 230.5052Q612.65625 230.03645 612.65625 229.03645L612.65625 223.2552L614.2344 223.2552L614.2344 228.42708Q614.2344 229.67708 614.3281 230.09895Q614.6406 231.42708 616.15625 231.42708Q616.8906 231.42708 617.5 231.0677Q618.125 230.6927 618.375 230.0677Q618.6406 229.4427 618.6406 228.2552L618.6406 223.2552L620.21875 223.2552L620.21875 227.53645Q621.3281 227.34895 621.8906 226.48958Q622.1406 226.1302 622.1406 225.08333L621.3125 225.08333ZM615.9375 221.03645Q616.4375 220.97395 616.5781 220.9427Q617.0469 220.78645 617.0469 220.4427Q617.0625 220.23958 616.8125 220.09895Q616.4375 219.89583 615.6406 219.89583Q615.3594 219.89583 614.8125 219.9427L614.71875 219.03645Q615.0625 218.97395 615.9844 218.97395Q617.0625 218.98958 617.75 219.33333Q618.5 219.6927 618.5156 220.36458Q618.5625 221.4427 616.9219 221.64583L616.9219 222.08333L615.9375 222.08333L615.9375 221.03645Z" fill-rule="nonzero"/><path fill="#000000" d="M31.049995 185.50417L18.15937 185.50417L18.15937 180.66042Q18.15937 179.19167 18.549995 178.30104Q18.94062 177.41042 19.75312 176.91042Q20.56562 176.39479 21.456245 176.39479Q22.28437 176.39479 23.018745 176.84792Q23.75312 177.28542 24.19062 178.19167Q24.53437 177.01979 25.362495 176.39479Q26.19062 175.76979 27.31562 175.76979Q28.22187 175.76979 29.00312 176.16042Q29.768745 176.53542 30.19062 177.09792Q30.612495 177.66042 30.831245 178.50417Q31.049995 179.34792 31.049995 180.58229L31.049995 185.50417ZM23.581245 183.78542L23.581245 181.00417Q23.581245 179.87917 23.424995 179.37917Q23.237495 178.72292 22.799995 178.39479Q22.34687 178.06667 21.65937 178.06667Q21.018745 178.06667 20.53437 178.37917Q20.049995 178.69167 19.87812 179.26979Q19.69062 179.83229 19.69062 181.22292L19.69062 183.78542L23.581245 183.78542ZM29.53437 183.78542L29.53437 180.58229Q29.53437 179.75417 29.47187 179.42604Q29.362495 178.83229 29.112495 178.44167Q28.862495 178.05104 28.393745 177.80104Q27.924995 177.53542 27.31562 177.53542Q26.59687 177.53542 26.06562 177.91042Q25.53437 178.26979 25.31562 178.92604Q25.09687 179.58229 25.09687 180.81667L25.09687 183.78542L29.53437 183.78542ZM26.37812 174.22292Q23.78437 174.22292 22.53437 172.76979Q21.50312 171.56667 21.50312 169.84792Q21.50312 167.91042 22.768745 166.69167Q24.03437 165.47292 26.25312 165.47292Q28.049995 165.47292 29.081245 166.01979Q30.112495 166.55104 30.69062 167.58229Q31.268745 168.61354 31.268745 169.84792Q31.268745 171.80104 30.018745 173.01979Q28.75312 174.22292 26.37812 174.22292ZM26.37812 172.59792Q28.174995 172.59792 29.06562 171.81667Q29.956245 171.03542 29.956245 169.84792Q29.956245 168.66042 29.06562 167.87917Q28.15937 167.09792 26.331245 167.09792Q24.59687 167.09792 23.706245 167.89479Q22.81562 168.67604 22.81562 169.84792Q22.81562 171.03542 23.706245 171.81667Q24.59687 172.59792 26.37812 172.59792ZM19.06562 169.81667L20.549995 170.81667L20.549995 172.62917L18.09687 170.72292L18.09687 169.03542L20.549995 167.06667L20.549995 168.86354L19.06562 169.81667ZM33.90937 170.81667L32.112495 170.81667L32.112495 169.01979L33.90937 169.01979L33.90937 170.81667ZM31.049995 158.62917L21.72187 158.62917L21.72187 157.20729L23.049995 157.20729Q21.50312 156.17604 21.50312 154.23854Q21.50312 153.39479 21.81562 152.69167Q22.112495 151.97292 22.612495 151.62917Q23.09687 151.26979 23.768745 151.12917Q24.206245 151.05104 25.31562 151.05104L31.049995 151.05104L31.049995 152.62917L25.37812 152.62917Q24.40937 152.62917 23.924995 152.81667Q23.44062 152.98854 23.15937 153.47292Q22.87812 153.94167 22.87812 154.56667Q22.87812 155.58229 23.518745 156.31667Q24.15937 157.05104 25.956245 157.05104L31.049995 157.05104L31.049995 158.62917ZM31.049995 148.62917L18.15937 148.62917L18.15937 147.05104L22.78437 147.05104Q21.50312 145.94167 21.50312 144.25417Q21.50312 143.22292 21.90937 142.45729Q22.31562 141.69167 23.049995 141.36354Q23.768745 141.01979 25.12812 141.01979L31.049995 141.01979L31.049995 142.61354L25.12812 142.61354Q23.94062 142.61354 23.40937 143.12917Q22.862495 143.64479 22.862495 144.58229Q22.862495 145.28542 23.237495 145.91042Q23.59687 146.51979 24.22187 146.78542Q24.84687 147.05104 25.94062 147.05104L31.049995 147.05104L31.049995 148.62917ZM26.37812 137.59792Q28.112495 137.59792 29.06562 136.81667Q29.956245 136.06667 29.956245 134.84792Q29.956245 133.61354 29.06562 132.87917Q28.112495 132.09792 26.331245 132.09792Q24.643745 132.09792 23.706245 132.89479Q22.81562 133.62917 22.81562 134.84792Q22.81562 136.08229 23.706245 136.81667Q24.643745 137.59792 26.37812 137.59792ZM23.331245 130.26979L21.487495 130.26979L21.487495 128.56667L22.94062 128.56667Q24.03437 128.56667 24.612495 128.89479Q25.362495 129.33229 26.00312 130.47292Q26.112495 130.47292 26.25312 130.47292Q29.518745 130.47292 30.69062 132.58229Q31.268745 133.61354 31.268745 134.84792Q31.268745 136.84792 30.00312 138.01979Q28.706245 139.22292 26.37812 139.22292Q23.78437 139.22292 22.53437 137.76979Q21.50312 136.56667 21.50312 134.84792Q21.50312 132.91042 22.768745 131.69167Q23.72187 130.76979 25.237495 130.55104Q24.862495 129.94167 24.47187 129.69167Q24.06562 129.42604 23.331245 129.44167L23.331245 130.26979ZM20.549995 135.72292L18.09687 134.55104L18.09687 132.48854L20.549995 134.41042L20.549995 135.72292ZM28.268745 122.26979L28.018745 120.691666Q28.956245 120.566666 29.456245 119.972916Q29.956245 119.36354 29.956245 118.285416Q29.956245 117.191666 29.518745 116.660416Q29.06562 116.129166 28.47187 116.129166Q27.94062 116.129166 27.62812 116.597916Q27.424995 116.92604 27.09687 118.222916Q26.65937 119.95729 26.34687 120.629166Q26.018745 121.30104 25.456245 121.660416Q24.87812 122.004166 24.19062 122.004166Q23.56562 122.004166 23.03437 121.722916Q22.50312 121.42604 22.15937 120.941666Q21.87812 120.566666 21.69062 119.92604Q21.50312 119.285416 21.50312 118.566666Q21.50312 117.45729 21.831245 116.629166Q22.143745 115.80104 22.69062 115.410416Q23.22187 115.004166 24.12812 114.86354L24.331245 116.410416Q23.612495 116.51979 23.206245 117.01979Q22.799995 117.51979 22.799995 118.441666Q22.799995 119.535416 23.15937 120.004166Q23.518745 120.472916 24.00312 120.472916Q24.31562 120.472916 24.56562 120.26979Q24.81562 120.08229 24.987495 119.67604Q25.06562 119.42604 25.393745 118.26979Q25.831245 116.597916 26.12812 115.941666Q26.40937 115.26979 26.956245 114.89479Q27.50312 114.504166 28.299995 114.504166Q29.09687 114.504166 29.799995 114.972916Q30.50312 115.42604 30.893745 116.30104Q31.268745 117.17604 31.268745 118.26979Q31.268745 120.097916 30.518745 121.05104Q29.75312 122.004166 28.268745 122.26979ZM23.549995 104.004166L21.72187 104.004166L21.72187 102.316666L23.15937 102.316666Q24.549995 102.316666 25.09687 102.629166Q26.50312 103.441666 26.674995 105.097916L31.049995 105.097916L31.049995 106.51979L29.674995 106.51979Q31.268745 107.597916 31.268745 109.472916Q31.268745 110.285416 30.956245 111.004166Q30.643745 111.722916 30.15937 112.08229Q29.674995 112.42604 28.97187 112.566666Q28.50312 112.660416 27.50312 112.660416L21.72187 112.660416L21.72187 111.08229L26.893745 111.08229Q28.143745 111.08229 28.56562 110.98854Q29.893745 110.67604 29.893745 109.160416Q29.893745 108.42604 29.53437 107.816666Q29.15937 107.191666 28.53437 106.941666Q27.90937 106.67604 26.72187 106.67604L21.72187 106.67604L21.72187 105.097916L26.00312 105.097916Q25.81562 103.98854 24.956245 103.42604Q24.59687 103.17604 23.549995 103.17604L23.549995 104.004166ZM19.50312 109.379166Q19.44062 108.879166 19.40937 108.73854Q19.25312 108.26979 18.90937 108.26979Q18.706245 108.254166 18.56562 108.504166Q18.362495 108.879166 18.362495 109.67604Q18.362495 109.95729 18.40937 110.504166L17.50312 110.597916Q17.44062 110.254166 17.44062 109.33229Q17.456245 108.254166 17.799995 107.566666Q18.15937 106.816666 18.831245 106.80104Q19.90937 106.754166 20.112495 108.39479L20.549995 108.39479L20.549995 109.379166L19.50312 109.379166ZM31.049995 89.566666L29.87812 89.566666Q31.268745 90.45729 31.268745 92.191666Q31.268745 93.30104 30.65937 94.23854Q30.03437 95.17604 28.94062 95.691666Q27.831245 96.20729 26.393745 96.20729Q24.987495 96.20729 23.862495 95.73854Q22.72187 95.26979 22.112495 94.347916Q21.50312 93.410416 21.50312 92.254166Q21.50312 91.410416 21.862495 90.754166Q22.22187 90.097916 22.78437 89.67604L18.15937 89.67604L18.15937 88.11354L31.049995 88.11354L31.049995 89.566666ZM26.393745 94.58229Q28.19062 94.58229 29.081245 93.83229Q29.956245 93.066666 29.956245 92.035416Q29.956245 91.004166 29.112495 90.285416Q28.268745 89.55104 26.518745 89.55104Q24.612495 89.55104 23.72187 90.285416Q22.81562 91.01979 22.81562 92.097916Q22.81562 93.160416 23.674995 93.879166Q24.53437 94.58229 26.393745 94.58229ZM31.049995 79.51979L29.674995 79.51979Q31.268745 80.597916 31.268745 82.472916Q31.268745 83.30104 30.956245 84.01979Q30.62812 84.73854 30.15937 85.08229Q29.674995 85.42604 28.97187 85.566666Q28.50312 85.660416 27.50312 85.660416L21.72187 85.660416L21.72187 84.08229L26.893745 84.08229Q28.12812 84.08229 28.56562 83.98854Q29.19062 83.83229 29.549995 83.347916Q29.893745 82.86354 29.893745 82.160416Q29.893745 81.441666 29.53437 80.816666Q29.174995 80.191666 28.549995 79.941666Q27.90937 79.67604 26.72187 79.67604L21.72187 79.67604L21.72187 78.097916L31.049995 78.097916L31.049995 79.51979ZM33.90937 83.066666L32.112495 83.066666L32.112495 81.26979L33.90937 81.26979L33.90937 83.066666ZM31.049995 75.629166L21.72187 75.629166L21.72187 74.20729L23.049995 74.20729Q21.50312 73.17604 21.50312 71.23854Q21.50312 70.39479 21.81562 69.691666Q22.112495 68.972916 22.612495 68.629166Q23.09687 68.26979 23.768745 68.129166Q24.206245 68.05104 25.31562 68.05104L31.049995 68.05104L31.049995 69.629166L25.37812 69.629166Q24.40937 69.629166 23.924995 69.816666Q23.44062 69.98854 23.15937 70.472916Q22.87812 70.941666 22.87812 71.566666Q22.87812 72.58229 23.518745 73.316666Q24.15937 74.05104 25.956245 74.05104L31.049995 74.05104L31.049995 75.629166ZM31.831245 65.92604L32.049995 64.379166Q32.768745 64.285416 33.09687 63.84792Q33.53437 63.25417 33.53437 62.238544Q33.53437 61.144794 33.081245 60.551044Q32.643745 59.94167 31.862495 59.738544Q31.37812 59.613544 29.831245 59.613544Q31.049995 60.66042 31.049995 62.207294Q31.049995 64.129166 29.65937 65.191666Q28.268745 66.23854 26.331245 66.23854Q24.987495 66.23854 23.862495 65.754166Q22.737495 65.26979 22.12812 64.347916Q21.50312 63.426044 21.50312 62.19167Q21.50312 60.53542 22.84687 59.47292L21.72187 59.47292L21.72187 58.00417L29.78437 58.00417Q31.97187 58.00417 32.87812 58.457294Q33.78437 58.894794 34.299995 59.863544Q34.831245 60.81667 34.831245 62.22292Q34.831245 63.894794 34.081245 64.92604Q33.331245 65.95729 31.831245 65.92604ZM26.22187 64.61354Q28.049995 64.61354 28.893745 63.87917Q29.737495 63.144794 29.737495 62.051044Q29.737495 60.957294 28.90937 60.22292Q28.06562 59.488544 26.268745 59.488544Q24.549995 59.488544 23.69062 60.25417Q22.81562 61.00417 22.81562 62.082294Q22.81562 63.12917 23.674995 63.87917Q24.53437 64.61354 26.22187 64.61354ZM34.831245 47.613544Q33.19062 48.91042 30.97187 49.81667Q28.75312 50.72292 26.37812 50.72292Q24.28437 50.72292 22.37812 50.051044Q20.143745 49.25417 17.94062 47.613544L17.94062 46.47292Q19.768745 47.53542 20.549995 47.87917Q21.768745 48.41042 23.081245 48.72292Q24.737495 49.09792 26.393745 49.09792Q30.612495 49.09792 34.831245 46.47292L34.831245 47.613544ZM31.049995 44.50417L18.15937 44.50417L18.15937 42.78542L24.549995 42.78542L18.15937 36.394794L18.15937 34.082294L23.37812 39.488544L31.049995 33.84792L31.049995 36.09792L24.53437 40.676044L26.581245 42.78542L31.049995 42.78542L31.049995 44.50417ZM31.049995 32.50417L18.15937 32.50417L18.15937 27.660418Q18.15937 26.191668 18.549995 25.301043Q18.94062 24.410418 19.75312 23.910418Q20.56562 23.394793 21.456245 23.394793Q22.28437 23.394793 23.018745 23.847918Q23.75312 24.285418 24.19062 25.191668Q24.53437 24.019793 25.362495 23.394793Q26.19062 22.769793 27.31562 22.769793Q28.22187 22.769793 29.00312 23.160418Q29.768745 23.535418 30.19062 24.097918Q30.612495 24.660418 30.831245 25.504168Q31.049995 26.347918 31.049995 27.582293L31.049995 32.50417ZM23.581245 30.785418L23.581245 28.004168Q23.581245 26.879168 23.424995 26.379168Q23.237495 25.722918 22.799995 25.394793Q22.34687 25.066668 21.65937 25.066668Q21.018745 25.066668 20.53437 25.379168Q20.049995 25.691668 19.87812 26.269793Q19.69062 26.832293 19.69062 28.222918L19.69062 30.785418L23.581245 30.785418ZM29.53437 30.785418L29.53437 27.582293Q29.53437 26.754168 29.47187 26.426043Q29.362495 25.832293 29.112495 25.441668Q28.862495 25.051043 28.393745 24.801043Q27.924995 24.535418 27.31562 24.535418Q26.59687 24.535418 26.06562 24.910418Q25.53437 25.269793 25.31562 25.926043Q25.09687 26.582293 25.09687 27.816668L25.09687 30.785418L29.53437 30.785418ZM34.831245 19.597918L34.831245 20.722918Q30.612495 18.097918 26.393745 18.097918Q24.737495 18.097918 23.112495 18.472918Q21.799995 18.769793 20.581245 19.316668Q19.78437 19.660418 17.94062 20.722918L17.94062 19.597918Q20.143745 17.941668 22.37812 17.144793Q24.28437 16.472918 26.37812 16.472918Q28.75312 16.472918 30.97187 17.379168Q33.19062 18.285418 34.831245 19.597918Z" fill-rule="nonzero"/><path fill="#000000" d="M83.55 181.34895Q83.55 179.8177 83.8625 178.89583Q84.175 177.95833 84.78438 177.45833Q85.40938 176.95833 86.34688 176.95833Q87.03438 176.95833 87.55 177.23958Q88.08125 177.52083 88.425 178.05208Q88.76875 178.5677 88.95625 179.3177Q89.14375 180.0677 89.14375 181.34895Q89.14375 182.86458 88.83125 183.78645Q88.53438 184.70833 87.90938 185.22395Q87.3 185.72395 86.34688 185.72395Q85.1125 185.72395 84.39375 184.83333Q83.55 183.77083 83.55 181.34895ZM84.62813 181.34895Q84.62813 183.45833 85.12813 184.16145Q85.62813 184.86458 86.34688 184.86458Q87.08125 184.86458 87.56563 184.16145Q88.06563 183.45833 88.06563 181.34895Q88.06563 179.22395 87.56563 178.53645Q87.08125 177.83333 86.33125 177.83333Q85.6125 177.83333 85.175 178.4427Q84.62813 179.22395 84.62813 181.34895Z" fill-rule="nonzero"/><path fill="#000000" d="M68.09688 131.0566L68.09688 132.07222L62.409374 132.07222Q62.409374 131.69722 62.534374 131.33784Q62.753124 130.75972 63.221874 130.19722Q63.70625 129.63472 64.6125 128.90034Q66.01875 127.744095 66.50313 127.07222Q67.00313 126.400345 67.00313 125.806595Q67.00313 125.181595 66.55 124.75972Q66.09688 124.32222 65.37813 124.32222Q64.6125 124.32222 64.15938 124.775345Q63.70625 125.22847 63.690624 126.04097L62.6125 125.931595Q62.721874 124.712845 63.440624 124.087845Q64.175 123.44722 65.40938 123.44722Q66.64375 123.44722 67.3625 124.13472Q68.08125 124.82222 68.08125 125.837845Q68.08125 126.35347 67.8625 126.85347Q67.65938 127.337845 67.15938 127.900345Q66.675 128.44722 65.55 129.40034Q64.59688 130.19722 64.31563 130.4941Q64.05 130.77534 63.878124 131.0566L68.09688 131.0566ZM69.55 127.837845Q69.55 126.306595 69.8625 125.38472Q70.175 124.44722 70.78438 123.94722Q71.40938 123.44722 72.34688 123.44722Q73.03438 123.44722 73.55 123.72847Q74.08125 124.00972 74.425 124.54097Q74.76875 125.056595 74.95625 125.806595Q75.14375 126.556595 75.14375 127.837845Q75.14375 129.35347 74.83125 130.27534Q74.53438 131.19722 73.90938 131.71284Q73.3 132.21284 72.34688 132.21284Q71.1125 132.21284 70.39375 131.32222Q69.55 130.25972 69.55 127.837845ZM70.62813 127.837845Q70.62813 129.94722 71.12813 130.65034Q71.62813 131.35347 72.34688 131.35347Q73.08125 131.35347 73.56563 130.65034Q74.06563 129.94722 74.06563 127.837845Q74.06563 125.712845 73.56563 125.025345Q73.08125 124.32222 72.33125 124.32222Q71.6125 124.32222 71.175 124.931595Q70.62813 125.712845 70.62813 127.837845ZM76.55 127.837845Q76.55 126.306595 76.8625 125.38472Q77.175 124.44722 77.78438 123.94722Q78.40938 123.44722 79.34688 123.44722Q80.03438 123.44722 80.55 123.72847Q81.08125 124.00972 81.425 124.54097Q81.76875 125.056595 81.95625 125.806595Q82.14375 126.556595 82.14375 127.837845Q82.14375 129.35347 81.83125 130.27534Q81.53438 131.19722 80.90938 131.71284Q80.3 132.21284 79.34688 132.21284Q78.1125 132.21284 77.39375 131.32222Q76.55 130.25972 76.55 127.837845ZM77.62813 127.837845Q77.62813 129.94722 78.12813 130.65034Q78.62813 131.35347 79.34688 131.35347Q80.08125 131.35347 80.56563 130.65034Q81.06563 129.94722 81.06563 127.837845Q81.06563 125.712845 80.56563 125.025345Q80.08125 124.32222 79.33125 124.32222Q78.6125 124.32222 78.175 124.931595Q77.62813 125.712845 77.62813 127.837845ZM83.55 127.837845Q83.55 126.306595 83.8625 125.38472Q84.175 124.44722 84.78438 123.94722Q85.40938 123.44722 86.34688 123.44722Q87.03438 123.44722 87.55 123.72847Q88.08125 124.00972 88.425 124.54097Q88.76875 125.056595 88.95625 125.806595Q89.14375 126.556595 89.14375 127.837845Q89.14375 129.35347 88.83125 130.27534Q88.53438 131.19722 87.90938 131.71284Q87.3 132.21284 86.34688 132.21284Q85.1125 132.21284 84.39375 131.32222Q83.55 130.25972 83.55 127.837845ZM84.62813 127.837845Q84.62813 129.94722 85.12813 130.65034Q85.62813 131.35347 86.34688 131.35347Q87.08125 131.35347 87.56563 130.65034Q88.06563 129.94722 88.06563 127.837845Q88.06563 125.712845 87.56563 125.025345Q87.08125 124.32222 86.33125 124.32222Q85.6125 124.32222 85.175 124.931595Q84.62813 125.712845 84.62813 127.837845Z" fill-rule="nonzero"/><path fill="#000000" d="M65.925 78.56111L65.925 76.49861L62.20625 76.49861L62.20625 75.52986L66.12813 69.96736L66.9875 69.96736L66.9875 75.52986L68.14375 75.52986L68.14375 76.49861L66.9875 76.49861L66.9875 78.56111L65.925 78.56111ZM65.925 75.52986L65.925 71.67049L63.2375 75.52986L65.925 75.52986ZM69.55 74.32674Q69.55 72.79549 69.8625 71.87361Q70.175 70.93611 70.78438 70.43611Q71.40938 69.93611 72.34688 69.93611Q73.03438 69.93611 73.55 70.21736Q74.08125 70.49861 74.425 71.02986Q74.76875 71.54549 74.95625 72.29549Q75.14375 73.04549 75.14375 74.32674Q75.14375 75.84236 74.83125 76.76424Q74.53438 77.68611 73.90938 78.20174Q73.3 78.70174 72.34688 78.70174Q71.1125 78.70174 70.39375 77.81111Q69.55 76.74861 69.55 74.32674ZM70.62813 74.32674Q70.62813 76.43611 71.12813 77.13924Q71.62813 77.84236 72.34688 77.84236Q73.08125 77.84236 73.56563 77.13924Q74.06563 76.43611 74.06563 74.32674Q74.06563 72.20174 73.56563 71.51424Q73.08125 70.81111 72.33125 70.81111Q71.6125 70.81111 71.175 71.42049Q70.62813 72.20174 70.62813 74.32674ZM76.55 74.32674Q76.55 72.79549 76.8625 71.87361Q77.175 70.93611 77.78438 70.43611Q78.40938 69.93611 79.34688 69.93611Q80.03438 69.93611 80.55 70.21736Q81.08125 70.49861 81.425 71.02986Q81.76875 71.54549 81.95625 72.29549Q82.14375 73.04549 82.14375 74.32674Q82.14375 75.84236 81.83125 76.76424Q81.53438 77.68611 80.90938 78.20174Q80.3 78.70174 79.34688 78.70174Q78.1125 78.70174 77.39375 77.81111Q76.55 76.74861 76.55 74.32674ZM77.62813 74.32674Q77.62813 76.43611 78.12813 77.13924Q78.62813 77.84236 79.34688 77.84236Q80.08125 77.84236 80.56563 77.13924Q81.06563 76.43611 81.06563 74.32674Q81.06563 72.20174 80.56563 71.51424Q80.08125 70.81111 79.33125 70.81111Q78.6125 70.81111 78.175 71.42049Q77.62813 72.20174 77.62813 74.32674ZM83.55 74.32674Q83.55 72.79549 83.8625 71.87361Q84.175 70.93611 84.78438 70.43611Q85.40938 69.93611 86.34688 69.93611Q87.03438 69.93611 87.55 70.21736Q88.08125 70.49861 88.425 71.02986Q88.76875 71.54549 88.95625 72.29549Q89.14375 73.04549 89.14375 74.32674Q89.14375 75.84236 88.83125 76.76424Q88.53438 77.68611 87.90938 78.20174Q87.3 78.70174 86.34688 78.70174Q85.1125 78.70174 84.39375 77.81111Q83.55 76.74861 83.55 74.32674ZM84.62813 74.32674Q84.62813 76.43611 85.12813 77.13924Q85.62813 77.84236 86.34688 77.84236Q87.08125 77.84236 87.56563 77.13924Q88.06563 76.43611 88.06563 74.32674Q88.06563 72.20174 87.56563 71.51424Q87.08125 70.81111 86.33125 70.81111Q85.6125 70.81111 85.175 71.42049Q84.62813 72.20174 84.62813 74.32674Z" fill-rule="nonzero"/><path fill="#000000" d="M68.01875 18.565624L66.97188 18.64375Q66.83125 18.01875 66.58125 17.7375Q66.14375 17.284374 65.51875 17.284374Q65.01875 17.284374 64.62813 17.565624Q64.14375 17.940624 63.846874 18.64375Q63.565624 19.33125 63.55 20.6125Q63.925 20.034374 64.47188 19.753124Q65.03438 19.471874 65.64375 19.471874Q66.69063 19.471874 67.425 20.253124Q68.175 21.034374 68.175 22.253124Q68.175 23.065624 67.81563 23.76875Q67.47188 24.45625 66.8625 24.83125Q66.25313 25.190624 65.4875 25.190624Q64.15938 25.190624 63.33125 24.221874Q62.503124 23.253124 62.503124 21.034374Q62.503124 18.534374 63.425 17.409374Q64.22188 16.425 65.58125 16.425Q66.59688 16.425 67.2375 17.003124Q67.89375 17.565624 68.01875 18.565624ZM63.721874 22.26875Q63.721874 22.815624 63.940624 23.315624Q64.175 23.8 64.58125 24.065624Q65.00313 24.33125 65.47188 24.33125Q66.12813 24.33125 66.6125 23.8Q67.09688 23.253124 67.09688 22.33125Q67.09688 21.440624 66.6125 20.925Q66.14375 20.409374 65.425 20.409374Q64.70625 20.409374 64.20625 20.925Q63.721874 21.440624 63.721874 22.26875ZM69.55 20.815624Q69.55 19.284374 69.8625 18.3625Q70.175 17.425 70.78438 16.925Q71.40938 16.425 72.34688 16.425Q73.03438 16.425 73.55 16.70625Q74.08125 16.9875 74.425 17.51875Q74.76875 18.034374 74.95625 18.784374Q75.14375 19.534374 75.14375 20.815624Q75.14375 22.33125 74.83125 23.253124Q74.53438 24.175 73.90938 24.690624Q73.3 25.190624 72.34688 25.190624Q71.1125 25.190624 70.39375 24.3Q69.55 23.2375 69.55 20.815624ZM70.62813 20.815624Q70.62813 22.925 71.12813 23.628124Q71.62813 24.33125 72.34688 24.33125Q73.08125 24.33125 73.56563 23.628124Q74.06563 22.925 74.06563 20.815624Q74.06563 18.690624 73.56563 18.003124Q73.08125 17.3 72.33125 17.3Q71.6125 17.3 71.175 17.909374Q70.62813 18.690624 70.62813 20.815624ZM76.55 20.815624Q76.55 19.284374 76.8625 18.3625Q77.175 17.425 77.78438 16.925Q78.40938 16.425 79.34688 16.425Q80.03438 16.425 80.55 16.70625Q81.08125 16.9875 81.425 17.51875Q81.76875 18.034374 81.95625 18.784374Q82.14375 19.534374 82.14375 20.815624Q82.14375 22.33125 81.83125 23.253124Q81.53438 24.175 80.90938 24.690624Q80.3 25.190624 79.34688 25.190624Q78.1125 25.190624 77.39375 24.3Q76.55 23.2375 76.55 20.815624ZM77.62813 20.815624Q77.62813 22.925 78.12813 23.628124Q78.62813 24.33125 79.34688 24.33125Q80.08125 24.33125 80.56563 23.628124Q81.06563 22.925 81.06563 20.815624Q81.06563 18.690624 80.56563 18.003124Q80.08125 17.3 79.33125 17.3Q78.6125 17.3 78.175 17.909374Q77.62813 18.690624 77.62813 20.815624ZM83.55 20.815624Q83.55 19.284374 83.8625 18.3625Q84.175 17.425 84.78438 16.925Q85.40938 16.425 86.34688 16.425Q87.03438 16.425 87.55 16.70625Q88.08125 16.9875 88.425 17.51875Q88.76875 18.034374 88.95625 18.784374Q89.14375 19.534374 89.14375 20.815624Q89.14375 22.33125 88.83125 23.253124Q88.53438 24.175 87.90938 24.690624Q87.3 25.190624 86.34688 25.190624Q85.1125 25.190624 84.39375 24.3Q83.55 23.2375 83.55 20.815624ZM84.62813 20.815624Q84.62813 22.925 85.12813 23.628124Q85.62813 24.33125 86.34688 24.33125Q87.08125 24.33125 87.56563 23.628124Q88.06563 22.925 88.06563 20.815624Q88.06563 18.690624 87.56563 18.003124Q87.08125 17.3 86.33125 17.3Q85.6125 17.3 85.175 17.909374Q84.62813 18.690624 84.62813 20.815624Z" fill-rule="nonzero"/><path stroke="#ff0000" stroke-width="4.0" stroke-linecap="butt" stroke-dasharray="13.0,9.0" d="M284.5 256.45L319.5 256.45" fill-rule="nonzero"/><path fill="#1a1a1a" d="M328.89062 262.95L328.89062 250.05939L333.75 250.05939Q335.03125 250.05939 335.70312 250.18439Q336.65625 250.34064 337.29688 250.79376Q337.9375 251.23126 338.32812 252.04376Q338.71875 252.84064 338.71875 253.79376Q338.71875 255.43439 337.67188 256.575Q336.625 257.71564 333.90625 257.71564L330.59375 257.71564L330.59375 262.95L328.89062 262.95ZM330.59375 256.1844L333.92188 256.1844Q335.57812 256.1844 336.26562 255.57501Q336.96875 254.96564 336.96875 253.84064Q336.96875 253.02814 336.5625 252.46564Q336.15625 251.88751 335.48438 251.70001Q335.04688 251.59064 333.89062 251.59064L330.59375 251.59064L330.59375 256.1844ZM340.6875 262.95L340.6875 250.05939L342.26562 250.05939L342.26562 254.68439Q343.375 253.40314 345.0625 253.40314Q346.09375 253.40314 346.85938 253.80939Q347.625 254.21564 347.95312 254.95001Q348.29688 255.66876 348.29688 257.02814L348.29688 262.95L346.70312 262.95L346.70312 257.02814Q346.70312 255.84064 346.1875 255.30939Q345.67188 254.76251 344.73438 254.76251Q344.03125 254.76251 343.40625 255.13751Q342.79688 255.49689 342.53125 256.1219Q342.26562 256.7469 342.26562 257.84064L342.26562 262.95L340.6875 262.95ZM359.3125 255.45001L359.3125 253.62189L361.0 253.62189L361.0 255.05939Q361.0 256.45 360.6875 256.9969Q359.875 258.40314 358.21875 258.575L358.21875 262.95L356.79688 262.95L356.79688 261.575Q355.71875 263.16876 353.84375 263.16876Q353.03125 263.16876 352.3125 262.85626Q351.59375 262.54376 351.23438 262.0594Q350.89062 261.575 350.75 260.8719Q350.65625 260.40314 350.65625 259.40314L350.65625 253.62189L352.23438 253.62189L352.23438 258.79376Q352.23438 260.04376 352.32812 260.46564Q352.64062 261.79376 354.15625 261.79376Q354.89062 261.79376 355.5 261.4344Q356.125 261.0594 356.375 260.4344Q356.64062 259.8094 356.64062 258.6219L356.64062 253.62189L358.21875 253.62189L358.21875 257.90314Q359.32812 257.71564 359.89062 256.85626Q360.14062 256.4969 360.14062 255.45001L359.3125 255.45001ZM363.71875 258.27814Q363.71875 260.0125 364.5 260.96564Q365.25 261.85626 366.46875 261.85626Q367.70312 261.85626 368.4375 260.96564Q369.21875 260.0125 369.21875 258.23126Q369.21875 256.54376 368.42188 255.60626Q367.6875 254.71564 366.46875 254.71564Q365.23438 254.71564 364.5 255.60626Q363.71875 256.54376 363.71875 258.27814ZM371.04688 255.23126L371.04688 253.38751L372.75 253.38751L372.75 254.84064Q372.75 255.93439 372.42188 256.5125Q371.98438 257.2625 370.84375 257.90314Q370.84375 258.0125 370.84375 258.15314Q370.84375 261.41876 368.73438 262.59064Q367.70312 263.16876 366.46875 263.16876Q364.46875 263.16876 363.29688 261.90314Q362.09375 260.60626 362.09375 258.27814Q362.09375 255.68439 363.54688 254.43439Q364.75 253.40314 366.46875 253.40314Q368.40625 253.40314 369.625 254.66876Q370.54688 255.62189 370.76562 257.1375Q371.375 256.7625 371.625 256.3719Q371.89062 255.96564 371.875 255.23126L371.04688 255.23126ZM374.6875 262.95L374.6875 253.62189L376.10938 253.62189L376.10938 254.95001Q377.14062 253.40314 379.07812 253.40314Q379.92188 253.40314 380.625 253.71564Q381.34375 254.01251 381.6875 254.51251Q382.04688 254.99689 382.1875 255.66876Q382.26562 256.10626 382.26562 257.21564L382.26562 262.95L380.6875 262.95L380.6875 257.27814Q380.6875 256.3094 380.5 255.82501Q380.32812 255.34064 379.84375 255.05939Q379.375 254.77814 378.75 254.77814Q377.73438 254.77814 377.0 255.41876Q376.26562 256.0594 376.26562 257.85626L376.26562 262.95L374.6875 262.95ZM384.39062 263.73126L385.9375 263.95Q386.03125 264.66876 386.46875 264.9969Q387.0625 265.4344 388.07812 265.4344Q389.17188 265.4344 389.76562 264.98126Q390.375 264.54376 390.57812 263.7625Q390.70312 263.27814 390.70312 261.73126Q389.65625 262.95 388.10938 262.95Q386.1875 262.95 385.125 261.5594Q384.07812 260.16876 384.07812 258.23126Q384.07812 256.8875 384.5625 255.76251Q385.04688 254.63751 385.96875 254.02814Q386.89062 253.40314 388.125 253.40314Q389.78125 253.40314 390.84375 254.74689L390.84375 253.62189L392.3125 253.62189L392.3125 261.6844Q392.3125 263.8719 391.85938 264.77814Q391.42188 265.6844 390.45312 266.2Q389.5 266.73126 388.09375 266.73126Q386.42188 266.73126 385.39062 265.98126Q384.35938 265.23126 384.39062 263.73126ZM385.70312 258.1219Q385.70312 259.95 386.4375 260.79376Q387.17188 261.6375 388.26562 261.6375Q389.35938 261.6375 390.09375 260.8094Q390.82812 259.96564 390.82812 258.16876Q390.82812 256.45 390.0625 255.59064Q389.3125 254.71564 388.23438 254.71564Q387.1875 254.71564 386.4375 255.57501Q385.70312 256.4344 385.70312 258.1219ZM399.6875 266.52814L399.6875 253.62189L401.125 253.62189L401.125 254.82501Q401.64062 254.12189 402.28125 253.76251Q402.92188 253.40314 403.82812 253.40314Q405.03125 253.40314 405.9375 254.02814Q406.85938 254.63751 407.32812 255.76251Q407.79688 256.8719 407.79688 258.21564Q407.79688 259.6375 407.28125 260.79376Q406.76562 261.9344 405.78125 262.5594Q404.79688 263.16876 403.71875 263.16876Q402.9375 263.16876 402.29688 262.84064Q401.67188 262.4969 401.26562 261.98126L401.26562 266.52814L399.6875 266.52814ZM401.125 258.34064Q401.125 260.1375 401.84375 260.9969Q402.57812 261.85626 403.60938 261.85626Q404.67188 261.85626 405.42188 260.96564Q406.17188 260.075 406.17188 258.2Q406.17188 256.41876 405.4375 255.52814Q404.70312 254.63751 403.6875 254.63751Q402.67188 254.63751 401.89062 255.59064Q401.125 256.52814 401.125 258.34064ZM409.6875 262.95L409.6875 250.05939L411.26562 250.05939L411.26562 254.68439Q412.375 253.40314 414.0625 253.40314Q415.09375 253.40314 415.85938 253.80939Q416.625 254.21564 416.95312 254.95001Q417.29688 255.66876 417.29688 257.02814L417.29688 262.95L415.70312 262.95L415.70312 257.02814Q415.70312 255.84064 415.1875 255.30939Q414.67188 254.76251 413.73438 254.76251Q413.03125 254.76251 412.40625 255.13751Q411.79688 255.49689 411.53125 256.1219Q411.26562 256.7469 411.26562 257.84064L411.26562 262.95L409.6875 262.95ZM425.78125 261.79376Q424.90625 262.54376 424.07812 262.85626Q423.26562 263.16876 422.34375 263.16876Q420.79688 263.16876 419.96875 262.41876Q419.15625 261.65314 419.15625 260.48126Q419.15625 259.8094 419.46875 259.2469Q419.78125 258.66876 420.28125 258.325Q420.78125 257.98126 421.42188 257.8094Q421.89062 257.6844 422.82812 257.575Q424.73438 257.34064 425.64062 257.02814Q425.65625 256.7 425.65625 256.60626Q425.65625 255.65314 425.20312 255.24689Q424.59375 254.71564 423.40625 254.71564Q422.28125 254.71564 421.75 255.10626Q421.21875 255.49689 420.96875 256.4969L419.42188 256.27814Q419.64062 255.27814 420.10938 254.66876Q420.59375 254.05939 421.5 253.73126Q422.42188 253.40314 423.64062 253.40314Q424.82812 253.40314 425.57812 253.68439Q426.32812 253.96564 426.67188 254.40314Q427.03125 254.82501 427.17188 255.46564Q427.25 255.87189 427.25 256.9344L427.25 259.04376Q427.25 261.2469 427.34375 261.84064Q427.45312 262.41876 427.75 262.95L426.09375 262.95Q425.84375 262.45 425.78125 261.79376ZM425.64062 258.2625Q424.78125 258.6219 423.0625 258.85626Q422.09375 258.9969 421.6875 259.1844Q421.28125 259.35626 421.0625 259.7Q420.84375 260.02814 420.84375 260.45Q420.84375 261.075 421.3125 261.4969Q421.79688 261.91876 422.71875 261.91876Q423.64062 261.91876 424.34375 261.52814Q425.0625 261.1219 425.39062 260.4344Q425.64062 259.8875 425.64062 258.84064L425.64062 258.2625ZM422.57812 252.45001L423.75 249.99689L425.8125 249.99689L423.89062 252.45001L422.57812 252.45001ZM429.6875 266.52814L429.6875 253.62189L431.125 253.62189L431.125 254.82501Q431.64062 254.12189 432.28125 253.76251Q432.92188 253.40314 433.82812 253.40314Q435.03125 253.40314 435.9375 254.02814Q436.85938 254.63751 437.32812 255.76251Q437.79688 256.8719 437.79688 258.21564Q437.79688 259.6375 437.28125 260.79376Q436.76562 261.9344 435.78125 262.5594Q434.79688 263.16876 433.71875 263.16876Q432.9375 263.16876 432.29688 262.84064Q431.67188 262.4969 431.26562 261.98126L431.26562 266.52814L429.6875 266.52814ZM431.125 258.34064Q431.125 260.1375 431.84375 260.9969Q432.57812 261.85626 433.60938 261.85626Q434.67188 261.85626 435.42188 260.96564Q436.17188 260.075 436.17188 258.2Q436.17188 256.41876 435.4375 255.52814Q434.70312 254.63751 433.6875 254.63751Q432.67188 254.63751 431.89062 255.59064Q431.125 256.52814 431.125 258.34064ZM448.14062 261.52814L448.375 262.9344Q447.70312 263.075 447.17188 263.075Q446.3125 263.075 445.82812 262.8094Q445.35938 262.52814 445.17188 262.09064Q444.98438 261.6375 444.98438 260.21564L444.98438 254.84064L443.8125 254.84064L443.8125 253.62189L444.98438 253.62189L444.98438 251.30939L446.54688 250.35626L446.54688 253.62189L448.14062 253.62189L448.14062 254.84064L446.54688 254.84064L446.54688 260.3094Q446.54688 260.98126 446.625 261.1844Q446.71875 261.3719 446.90625 261.48126Q447.09375 261.59064 447.45312 261.59064Q447.70312 261.59064 448.14062 261.52814ZM449.67188 262.95L449.67188 253.62189L451.09375 253.62189L451.09375 255.02814Q451.64062 254.04376 452.09375 253.73126Q452.5625 253.40314 453.10938 253.40314Q453.92188 253.40314 454.73438 253.91876L454.20312 255.38751Q453.60938 255.04376 453.03125 255.04376Q452.51562 255.04376 452.09375 255.35626Q451.6875 255.66876 451.51562 256.21564Q451.25 257.0594 451.25 258.0594L451.25 262.95L449.67188 262.95ZM461.79688 262.95L461.79688 261.575Q460.71875 263.16876 458.84375 263.16876Q458.01562 263.16876 457.29688 262.85626Q456.57812 262.52814 456.23438 262.0594Q455.89062 261.575 455.75 260.8719Q455.65625 260.40314 455.65625 259.40314L455.65625 253.62189L457.23438 253.62189L457.23438 258.79376Q457.23438 260.02814 457.32812 260.46564Q457.48438 261.09064 457.96875 261.45Q458.45312 261.79376 459.15625 261.79376Q459.875 261.79376 460.5 261.4344Q461.125 261.075 461.375 260.45Q461.64062 259.8094 461.64062 258.6219L461.64062 253.62189L463.21875 253.62189L463.21875 262.95L461.79688 262.95ZM465.60938 266.54376L465.4375 265.0594Q465.95312 265.2 466.34375 265.2Q466.875 265.2 467.1875 265.02814Q467.5 264.85626 467.70312 264.52814Q467.85938 264.29376 468.1875 263.35626Q468.23438 263.21564 468.32812 262.96564L464.79688 253.62189L466.5 253.62189L468.4375 259.02814Q468.8125 260.04376 469.10938 261.1844Q469.39062 260.09064 469.76562 259.0594L471.76562 253.62189L473.34375 253.62189L469.79688 263.10626Q469.21875 264.65314 468.90625 265.23126Q468.48438 266.0125 467.9375 266.3719Q467.39062 266.73126 466.64062 266.73126Q466.17188 266.73126 465.60938 266.54376ZM481.07812 259.95L482.71875 260.15314Q482.32812 261.575 481.28125 262.3719Q480.23438 263.16876 478.60938 263.16876Q476.5625 263.16876 475.35938 261.90314Q474.15625 260.6375 474.15625 258.35626Q474.15625 256.0125 475.35938 254.71564Q476.57812 253.40314 478.51562 253.40314Q480.39062 253.40314 481.57812 254.68439Q482.76562 255.95001 482.76562 258.2625Q482.76562 258.40314 482.75 258.6844L475.79688 258.6844Q475.875 260.23126 476.65625 261.04376Q477.45312 261.85626 478.60938 261.85626Q479.48438 261.85626 480.09375 261.40314Q480.71875 260.95 481.07812 259.95ZM475.875 257.3875L481.09375 257.3875Q480.98438 256.21564 480.5 255.62189Q479.73438 254.70001 478.53125 254.70001Q477.45312 254.70001 476.70312 255.43439Q475.96875 256.16876 475.875 257.3875ZM478.48438 250.96564L477.48438 252.45001L475.67188 252.45001L477.57812 249.99689L479.26562 249.99689L481.23438 252.45001L479.4375 252.45001L478.48438 250.96564ZM479.26562 249.35626L478.0 249.35626L475.96875 246.88751L478.07812 246.88751L479.26562 249.35626ZM484.6875 262.95L484.6875 253.62189L486.10938 253.62189L486.10938 254.95001Q487.14062 253.40314 489.07812 253.40314Q489.92188 253.40314 490.625 253.71564Q491.34375 254.01251 491.6875 254.51251Q492.04688 254.99689 492.1875 255.66876Q492.26562 256.10626 492.26562 257.21564L492.26562 262.95L490.6875 262.95L490.6875 257.27814Q490.6875 256.3094 490.5 255.82501Q490.32812 255.34064 489.84375 255.05939Q489.375 254.77814 488.75 254.77814Q487.73438 254.77814 487.0 255.41876Q486.26562 256.0594 486.26562 257.85626L486.26562 262.95L484.6875 262.95ZM503.14062 261.52814L503.375 262.9344Q502.70312 263.075 502.17188 263.075Q501.3125 263.075 500.82812 262.8094Q500.35938 262.52814 500.17188 262.09064Q499.98438 261.6375 499.98438 260.21564L499.98438 254.84064L498.8125 254.84064L498.8125 253.62189L499.98438 253.62189L499.98438 251.30939L501.54688 250.35626L501.54688 253.62189L503.14062 253.62189L503.14062 254.84064L501.54688 254.84064L501.54688 260.3094Q501.54688 260.98126 501.625 261.1844Q501.71875 261.3719 501.90625 261.48126Q502.09375 261.59064 502.45312 261.59064Q502.70312 261.59064 503.14062 261.52814ZM504.6875 262.95L504.6875 250.05939L506.26562 250.05939L506.26562 254.68439Q507.375 253.40314 509.0625 253.40314Q510.09375 253.40314 510.85938 253.80939Q511.625 254.21564 511.95312 254.95001Q512.2969 255.66876 512.2969 257.02814L512.2969 262.95L510.70312 262.95L510.70312 257.02814Q510.70312 255.84064 510.1875 255.30939Q509.67188 254.76251 508.73438 254.76251Q508.03125 254.76251 507.40625 255.13751Q506.79688 255.49689 506.53125 256.1219Q506.26562 256.7469 506.26562 257.84064L506.26562 262.95L504.6875 262.95ZM514.09375 258.27814Q514.09375 255.68439 515.5469 254.43439Q516.75 253.40314 518.46875 253.40314Q520.40625 253.40314 521.625 254.66876Q522.84375 255.93439 522.84375 258.15314Q522.84375 259.95 522.2969 260.98126Q521.7656 262.0125 520.7344 262.59064Q519.7031 263.16876 518.46875 263.16876Q516.5156 263.16876 515.2969 261.91876Q514.09375 260.65314 514.09375 258.27814ZM515.71875 258.27814Q515.71875 260.075 516.5 260.96564Q517.28125 261.85626 518.46875 261.85626Q519.65625 261.85626 520.4375 260.96564Q521.21875 260.0594 521.21875 258.23126Q521.21875 256.4969 520.4219 255.60626Q519.6406 254.71564 518.46875 254.71564Q517.28125 254.71564 516.5 255.60626Q515.71875 256.4969 515.71875 258.27814ZM518.5 250.96564L517.5 252.45001L515.6875 252.45001L517.59375 249.99689L519.28125 249.99689L521.25 252.45001L519.4531 252.45001L518.5 250.96564ZM518.7656 246.88751L520.8906 246.88751L518.8594 249.35626L517.5781 249.35626L518.7656 246.88751ZM524.6875 262.95L524.6875 253.62189L526.1094 253.62189L526.1094 254.95001Q527.1406 253.40314 529.0781 253.40314Q529.9219 253.40314 530.625 253.71564Q531.34375 254.01251 531.6875 254.51251Q532.0469 254.99689 532.1875 255.66876Q532.2656 256.10626 532.2656 257.21564L532.2656 262.95L530.6875 262.95L530.6875 257.27814Q530.6875 256.3094 530.5 255.82501Q530.3281 255.34064 529.84375 255.05939Q529.375 254.77814 528.75 254.77814Q527.7344 254.77814 527.0 255.41876Q526.2656 256.0594 526.2656 257.85626L526.2656 262.95L524.6875 262.95ZM534.3906 263.73126L535.9375 263.95Q536.03125 264.66876 536.46875 264.9969Q537.0625 265.4344 538.0781 265.4344Q539.1719 265.4344 539.7656 264.98126Q540.375 264.54376 540.5781 263.7625Q540.7031 263.27814 540.7031 261.73126Q539.65625 262.95 538.1094 262.95Q536.1875 262.95 535.125 261.5594Q534.0781 260.16876 534.0781 258.23126Q534.0781 256.8875 534.5625 255.76251Q535.0469 254.63751 535.96875 254.02814Q536.8906 253.40314 538.125 253.40314Q539.78125 253.40314 540.84375 254.74689L540.84375 253.62189L542.3125 253.62189L542.3125 261.6844Q542.3125 263.8719 541.8594 264.77814Q541.4219 265.6844 540.4531 266.2Q539.5 266.73126 538.09375 266.73126Q536.4219 266.73126 535.3906 265.98126Q534.3594 265.23126 534.3906 263.73126ZM535.7031 258.1219Q535.7031 259.95 536.4375 260.79376Q537.1719 261.6375 538.2656 261.6375Q539.3594 261.6375 540.09375 260.8094Q540.8281 259.96564 540.8281 258.16876Q540.8281 256.45 540.0625 255.59064Q539.3125 254.71564 538.2344 254.71564Q537.1875 254.71564 536.4375 255.57501Q535.7031 256.4344 535.7031 258.1219Z" fill-rule="nonzero"/><path stroke="#0000ff" stroke-width="4.0" stroke-linecap="butt" d="M559.5 256.45L571.5 256.45" fill-rule="nonzero"/><path fill="#1a1a1a" d="M580.8906 262.95L580.8906 250.05939L585.75 250.05939Q587.03125 250.05939 587.7031 250.18439Q588.65625 250.34064 589.2969 250.79376Q589.9375 251.23126 590.3281 252.04376Q590.71875 252.84064 590.71875 253.79376Q590.71875 255.43439 589.6719 256.575Q588.625 257.71564 585.90625 257.71564L582.59375 257.71564L582.59375 262.95L580.8906 262.95ZM582.59375 256.1844L585.9219 256.1844Q587.5781 256.1844 588.2656 255.57501Q588.96875 254.96564 588.96875 253.84064Q588.96875 253.02814 588.5625 252.46564Q588.15625 251.88751 587.4844 251.70001Q587.0469 251.59064 585.8906 251.59064L582.59375 251.59064L582.59375 256.1844ZM592.6875 262.95L592.6875 250.05939L594.2656 250.05939L594.2656 254.68439Q595.375 253.40314 597.0625 253.40314Q598.09375 253.40314 598.8594 253.80939Q599.625 254.21564 599.9531 254.95001Q600.2969 255.66876 600.2969 257.02814L600.2969 262.95L598.7031 262.95L598.7031 257.02814Q598.7031 255.84064 598.1875 255.30939Q597.6719 254.76251 596.7344 254.76251Q596.03125 254.76251 595.40625 255.13751Q594.7969 255.49689 594.53125 256.1219Q594.2656 256.7469 594.2656 257.84064L594.2656 262.95L592.6875 262.95ZM611.3125 255.45001L611.3125 253.62189L613.0 253.62189L613.0 255.05939Q613.0 256.45 612.6875 256.9969Q611.875 258.40314 610.21875 258.575L610.21875 262.95L608.7969 262.95L608.7969 261.575Q607.71875 263.16876 605.84375 263.16876Q605.03125 263.16876 604.3125 262.85626Q603.59375 262.54376 603.2344 262.0594Q602.8906 261.575 602.75 260.8719Q602.65625 260.40314 602.65625 259.40314L602.65625 253.62189L604.2344 253.62189L604.2344 258.79376Q604.2344 260.04376 604.3281 260.46564Q604.6406 261.79376 606.15625 261.79376Q606.8906 261.79376 607.5 261.4344Q608.125 261.0594 608.375 260.4344Q608.6406 259.8094 608.6406 258.6219L608.6406 253.62189L610.21875 253.62189L610.21875 257.90314Q611.3281 257.71564 611.8906 256.85626Q612.1406 256.4969 612.1406 255.45001L611.3125 255.45001ZM615.71875 258.27814Q615.71875 260.0125 616.5 260.96564Q617.25 261.85626 618.46875 261.85626Q619.7031 261.85626 620.4375 260.96564Q621.21875 260.0125 621.21875 258.23126Q621.21875 256.54376 620.4219 255.60626Q619.6875 254.71564 618.46875 254.71564Q617.2344 254.71564 616.5 255.60626Q615.71875 256.54376 615.71875 258.27814ZM623.0469 255.23126L623.0469 253.38751L624.75 253.38751L624.75 254.84064Q624.75 255.93439 624.4219 256.5125Q623.9844 257.2625 622.84375 257.90314Q622.84375 258.0125 622.84375 258.15314Q622.84375 261.41876 620.7344 262.59064Q619.7031 263.16876 618.46875 263.16876Q616.46875 263.16876 615.2969 261.90314Q614.09375 260.60626 614.09375 258.27814Q614.09375 255.68439 615.5469 254.43439Q616.75 253.40314 618.46875 253.40314Q620.40625 253.40314 621.625 254.66876Q622.5469 255.62189 622.7656 257.1375Q623.375 256.7625 623.625 256.3719Q623.8906 255.96564 623.875 255.23126L623.0469 255.23126ZM626.6875 262.95L626.6875 253.62189L628.1094 253.62189L628.1094 254.95001Q629.1406 253.40314 631.0781 253.40314Q631.9219 253.40314 632.625 253.71564Q633.34375 254.01251 633.6875 254.51251Q634.0469 254.99689 634.1875 255.66876Q634.2656 256.10626 634.2656 257.21564L634.2656 262.95L632.6875 262.95L632.6875 257.27814Q632.6875 256.3094 632.5 255.82501Q632.3281 255.34064 631.84375 255.05939Q631.375 254.77814 630.75 254.77814Q629.7344 254.77814 629.0 255.41876Q628.2656 256.0594 628.2656 257.85626L628.2656 262.95L626.6875 262.95ZM636.3906 263.73126L637.9375 263.95Q638.03125 264.66876 638.46875 264.9969Q639.0625 265.4344 640.0781 265.4344Q641.1719 265.4344 641.7656 264.98126Q642.375 264.54376 642.5781 263.7625Q642.7031 263.27814 642.7031 261.73126Q641.65625 262.95 640.1094 262.95Q638.1875 262.95 637.125 261.5594Q636.0781 260.16876 636.0781 258.23126Q636.0781 256.8875 636.5625 255.76251Q637.0469 254.63751 637.96875 254.02814Q638.8906 253.40314 640.125 253.40314Q641.78125 253.40314 642.84375 254.74689L642.84375 253.62189L644.3125 253.62189L644.3125 261.6844Q644.3125 263.8719 643.8594 264.77814Q643.4219 265.6844 642.4531 266.2Q641.5 266.73126 640.09375 266.73126Q638.4219 266.73126 637.3906 265.98126Q636.3594 265.23126 636.3906 263.73126ZM637.7031 258.1219Q637.7031 259.95 638.4375 260.79376Q639.1719 261.6375 640.2656 261.6375Q641.3594 261.6375 642.09375 260.8094Q642.8281 259.96564 642.8281 258.16876Q642.8281 256.45 642.0625 255.59064Q641.3125 254.71564 640.2344 254.71564Q639.1875 254.71564 638.4375 255.57501Q637.7031 256.4344 637.7031 258.1219ZM651.6875 266.52814L651.6875 253.62189L653.125 253.62189L653.125 254.82501Q653.6406 254.12189 654.28125 253.76251Q654.9219 253.40314 655.8281 253.40314Q657.03125 253.40314 657.9375 254.02814Q658.8594 254.63751 659.3281 255.76251Q659.7969 256.8719 659.7969 258.21564Q659.7969 259.6375 659.28125 260.79376Q658.7656 261.9344 657.78125 262.5594Q656.7969 263.16876 655.71875 263.16876Q654.9375 263.16876 654.2969 262.84064Q653.6719 262.4969 653.2656 261.98126L653.2656 266.52814L651.6875 266.52814ZM653.125 258.34064Q653.125 260.1375 653.84375 260.9969Q654.5781 261.85626 655.6094 261.85626Q656.6719 261.85626 657.4219 260.96564Q658.1719 260.075 658.1719 258.2Q658.1719 256.41876 657.4375 255.52814Q656.7031 254.63751 655.6875 254.63751Q654.6719 254.63751 653.8906 255.59064Q653.125 256.52814 653.125 258.34064ZM661.6875 262.95L661.6875 250.05939L663.2656 250.05939L663.2656 254.68439Q664.375 253.40314 666.0625 253.40314Q667.09375 253.40314 667.8594 253.80939Q668.625 254.21564 668.9531 254.95001Q669.2969 255.66876 669.2969 257.02814L669.2969 262.95L667.7031 262.95L667.7031 257.02814Q667.7031 255.84064 667.1875 255.30939Q666.6719 254.76251 665.7344 254.76251Q665.03125 254.76251 664.40625 255.13751Q663.7969 255.49689 663.53125 256.1219Q663.2656 256.7469 663.2656 257.84064L663.2656 262.95L661.6875 262.95ZM677.78125 261.79376Q676.90625 262.54376 676.0781 262.85626Q675.2656 263.16876 674.34375 263.16876Q672.7969 263.16876 671.96875 262.41876Q671.15625 261.65314 671.15625 260.48126Q671.15625 259.8094 671.46875 259.2469Q671.78125 258.66876 672.28125 258.325Q672.78125 257.98126 673.4219 257.8094Q673.8906 257.6844 674.8281 257.575Q676.7344 257.34064 677.6406 257.02814Q677.65625 256.7 677.65625 256.60626Q677.65625 255.65314 677.2031 255.24689Q676.59375 254.71564 675.40625 254.71564Q674.28125 254.71564 673.75 255.10626Q673.21875 255.49689 672.96875 256.4969L671.4219 256.27814Q671.6406 255.27814 672.1094 254.66876Q672.59375 254.05939 673.5 253.73126Q674.4219 253.40314 675.6406 253.40314Q676.8281 253.40314 677.5781 253.68439Q678.3281 253.96564 678.6719 254.40314Q679.03125 254.82501 679.1719 255.46564Q679.25 255.87189 679.25 256.9344L679.25 259.04376Q679.25 261.2469 679.34375 261.84064Q679.4531 262.41876 679.75 262.95L678.09375 262.95Q677.84375 262.45 677.78125 261.79376ZM677.6406 258.2625Q676.78125 258.6219 675.0625 258.85626Q674.09375 258.9969 673.6875 259.1844Q673.28125 259.35626 673.0625 259.7Q672.84375 260.02814 672.84375 260.45Q672.84375 261.075 673.3125 261.4969Q673.7969 261.91876 674.71875 261.91876Q675.6406 261.91876 676.34375 261.52814Q677.0625 261.1219 677.3906 260.4344Q677.6406 259.8875 677.6406 258.84064L677.6406 258.2625ZM674.5781 252.45001L675.75 249.99689L677.8125 249.99689L675.8906 252.45001L674.5781 252.45001ZM681.6875 266.52814L681.6875 253.62189L683.125 253.62189L683.125 254.82501Q683.6406 254.12189 684.28125 253.76251Q684.9219 253.40314 685.8281 253.40314Q687.03125 253.40314 687.9375 254.02814Q688.8594 254.63751 689.3281 255.76251Q689.7969 256.8719 689.7969 258.21564Q689.7969 259.6375 689.28125 260.79376Q688.7656 261.9344 687.78125 262.5594Q686.7969 263.16876 685.71875 263.16876Q684.9375 263.16876 684.2969 262.84064Q683.6719 262.4969 683.2656 261.98126L683.2656 266.52814L681.6875 266.52814ZM683.125 258.34064Q683.125 260.1375 683.84375 260.9969Q684.5781 261.85626 685.6094 261.85626Q686.6719 261.85626 687.4219 260.96564Q688.1719 260.075 688.1719 258.2Q688.1719 256.41876 687.4375 255.52814Q686.7031 254.63751 685.6875 254.63751Q684.6719 254.63751 683.8906 255.59064Q683.125 256.52814 683.125 258.34064ZM702.6406 252.23126L699.59375 252.23126L699.59375 251.07501L702.6406 251.07501L702.6406 250.05939L704.2031 250.05939L704.2031 251.07501L705.4844 251.07501L705.4844 252.23126L704.2031 252.23126L704.2031 262.95L702.75 262.95L702.75 261.77814Q701.8594 263.16876 700.125 263.16876Q699.0156 263.16876 698.0781 262.5594Q697.1406 261.9344 696.625 260.84064Q696.1094 259.73126 696.1094 258.29376Q696.1094 256.8875 696.5781 255.76251Q697.0469 254.62189 697.96875 254.01251Q698.90625 253.40314 700.0625 253.40314Q700.90625 253.40314 701.5625 253.76251Q702.21875 254.12189 702.6406 254.68439L702.6406 252.23126ZM697.7344 258.29376Q697.7344 260.09064 698.4844 260.98126Q699.25 261.85626 700.28125 261.85626Q701.3125 261.85626 702.03125 261.0125Q702.7656 260.16876 702.7656 258.41876Q702.7656 256.5125 702.03125 255.62189Q701.2969 254.71564 700.21875 254.71564Q699.15625 254.71564 698.4375 255.57501Q697.7344 256.4344 697.7344 258.29376ZM713.0781 259.95L714.71875 260.15314Q714.3281 261.575 713.28125 262.3719Q712.2344 263.16876 710.6094 263.16876Q708.5625 263.16876 707.3594 261.90314Q706.15625 260.6375 706.15625 258.35626Q706.15625 256.0125 707.3594 254.71564Q708.5781 253.40314 710.5156 253.40314Q712.3906 253.40314 713.5781 254.68439Q714.7656 255.95001 714.7656 258.2625Q714.7656 258.40314 714.75 258.6844L707.7969 258.6844Q707.875 260.23126 708.65625 261.04376Q709.4531 261.85626 710.6094 261.85626Q711.4844 261.85626 712.09375 261.40314Q712.71875 260.95 713.0781 259.95ZM707.875 257.3875L713.09375 257.3875Q712.9844 256.21564 712.5 255.62189Q711.7344 254.70001 710.53125 254.70001Q709.4531 254.70001 708.7031 255.43439Q707.96875 256.16876 707.875 257.3875ZM710.4844 250.96564L709.4844 252.45001L707.6719 252.45001L709.5781 249.99689L711.2656 249.99689L713.2344 252.45001L711.4375 252.45001L710.4844 250.96564ZM711.2656 249.35626L710.0 249.35626L707.96875 246.88751L710.0781 246.88751L711.2656 249.35626ZM720.625 262.95L724.0469 258.09064L720.8906 253.62189L722.8594 253.62189L724.2969 255.80939Q724.7031 256.4344 724.9531 256.85626Q725.3281 256.2625 725.65625 255.82501L727.2344 253.62189L729.125 253.62189L725.8906 258.0125L729.375 262.95L727.4219 262.95L725.5156 260.04376L725.0 259.2625L722.5469 262.95L720.625 262.95ZM735.7969 262.95L735.7969 261.575Q734.71875 263.16876 732.84375 263.16876Q732.0156 263.16876 731.2969 262.85626Q730.5781 262.52814 730.2344 262.0594Q729.8906 261.575 729.75 260.8719Q729.65625 260.40314 729.65625 259.40314L729.65625 253.62189L731.2344 253.62189L731.2344 258.79376Q731.2344 260.02814 731.3281 260.46564Q731.4844 261.09064 731.96875 261.45Q732.4531 261.79376 733.15625 261.79376Q733.875 261.79376 734.5 261.4344Q735.125 261.075 735.375 260.45Q735.6406 259.8094 735.6406 258.6219L735.6406 253.62189L737.21875 253.62189L737.21875 262.95L735.7969 262.95ZM745.78125 261.79376Q744.90625 262.54376 744.0781 262.85626Q743.2656 263.16876 742.34375 263.16876Q740.7969 263.16876 739.96875 262.41876Q739.15625 261.65314 739.15625 260.48126Q739.15625 259.8094 739.46875 259.2469Q739.78125 258.66876 740.28125 258.325Q740.78125 257.98126 741.4219 257.8094Q741.8906 257.6844 742.8281 257.575Q744.7344 257.34064 745.6406 257.02814Q745.65625 256.7 745.65625 256.60626Q745.65625 255.65314 745.2031 255.24689Q744.59375 254.71564 743.40625 254.71564Q742.28125 254.71564 741.75 255.10626Q741.21875 255.49689 740.96875 256.4969L739.4219 256.27814Q739.6406 255.27814 740.1094 254.66876Q740.59375 254.05939 741.5 253.73126Q742.4219 253.40314 743.6406 253.40314Q744.8281 253.40314 745.5781 253.68439Q746.3281 253.96564 746.6719 254.40314Q747.03125 254.82501 747.1719 255.46564Q747.25 255.87189 747.25 256.9344L747.25 259.04376Q747.25 261.2469 747.34375 261.84064Q747.4531 262.41876 747.75 262.95L746.09375 262.95Q745.84375 262.45 745.78125 261.79376ZM745.6406 258.2625Q744.78125 258.6219 743.0625 258.85626Q742.09375 258.9969 741.6875 259.1844Q741.28125 259.35626 741.0625 259.7Q740.84375 260.02814 740.84375 260.45Q740.84375 261.075 741.3125 261.4969Q741.7969 261.91876 742.71875 261.91876Q743.6406 261.91876 744.34375 261.52814Q745.0625 261.1219 745.3906 260.4344Q745.6406 259.8875 745.6406 258.84064L745.6406 258.2625ZM743.4844 250.96564L742.4844 252.45001L740.6719 252.45001L742.5781 249.99689L744.2656 249.99689L746.2344 252.45001L744.4375 252.45001L743.4844 250.96564ZM743.75 246.88751L745.875 246.88751L743.84375 249.35626L742.5625 249.35626L743.75 246.88751ZM753.1406 261.52814L753.375 262.9344Q752.7031 263.075 752.1719 263.075Q751.3125 263.075 750.8281 262.8094Q750.3594 262.52814 750.1719 262.09064Q749.9844 261.6375 749.9844 260.21564L749.9844 254.84064L748.8125 254.84064L748.8125 253.62189L749.9844 253.62189L749.9844 251.30939L751.5469 250.35626L751.5469 253.62189L753.1406 253.62189L753.1406 254.84064L751.5469 254.84064L751.5469 260.3094Q751.5469 260.98126 751.625 261.1844Q751.71875 261.3719 751.90625 261.48126Q752.09375 261.59064 752.4531 261.59064Q752.7031 261.59064 753.1406 261.52814Z" fill-rule="nonzero"/></svg>