<svg version="1.1" viewBox="0.0 0.0 1038.0 232.0" fill="none" stroke="none" stroke-linecap="square" stroke-miterlimit="10" width="1038" height="232" xmlns:xlink="http://www.w3.org/1999/xlink" xmlns="http://www.w3.org/2000/svg"><path fill="#ffffff" d="M0 0L1038.0 0L1038.0 232.0L0 232.0L0 0Z" fill-rule="nonzero"/><path stroke="#333333" stroke-width="1.0" stroke-linecap="butt" d="M86.5 139.5L1026.5 139.5" fill-rule="nonzero"/><path stroke="#cccccc" stroke-width="1.0" stroke-linecap="butt" d="M86.5 109.5L1026.5 109.5" fill-rule="nonzero"/><path stroke="#cccccc" stroke-width="1.0" stroke-linecap="butt" d="M86.5 79.5L1026.5 79.5" fill-rule="nonzero"/><path stroke="#cccccc" stroke-width="1.0" stroke-linecap="butt" d="M86.5 48.5L1026.5 48.5" fill-rule="nonzero"/><path stroke="#cccccc" stroke-width="1.0" stroke-linecap="butt" d="M86.5 18.5L1026.5 18.5" fill-rule="nonzero"/><clipPath id="id_0"><path d="M86.6 18.6L1026.4 18.6L1026.4 139.66667L86.6 139.66667L86.6 18.6Z" clip-rule="nonzero"/></clipPath><path stroke="#ff0000" stroke-width="2.0" stroke-linecap="butt" stroke-dasharray="8.0,6.0" clip-path="url(#id_0)" d="M99.65278 127.56L125.75833 127.56L151.86389 121.50667L177.96945 103.346664L204.075 115.45333L230.18056 109.4L256.2861 127.56L282.39166 121.50667L308.49722 109.4L334.60278 103.346664L360.70834 127.56L386.8139 127.56L412.91943 133.61333L439.025 115.45333L465.13055 121.50667L491.2361 121.50667L517.3417 121.50667L543.4472 121.50667L569.5528 121.50667L595.6583 127.56L621.7639 127.56L647.86945 127.56L673.975 127.56L700.08057 127.56L726.1861 127.56L752.2917 91.24L778.3972 79.13333L804.5028 127.56L830.60834 109.4L856.71387 79.13333L882.81946 127.56L908.925 121.50667L935.0306 127.56L961.1361 115.45333L987.24164 127.56L1013.3472 127.56" fill-rule="nonzero"/><path stroke="#0000ff" stroke-width="2.0" stroke-linecap="butt" clip-path="url(#id_0)" d="M99.65278 133.61333L125.75833 133.61333L151.86389 133.61333L177.96945 121.50667L204.075 133.61333L230.18056 133.61333L256.2861 85.18667L282.39166 103.346664L308.49722 133.61333L334.60278 133.61333L360.70834 103.346664L386.8139 103.346664L412.91943 133.61333L439.025 109.4L465.13055 133.61333L491.2361 133.61333L517.3417 30.706667L543.4472 127.56L569.5528 127.56L595.6583 103.346664L621.7639 121.50667L647.86945 133.61333L673.975 103.346664L700.08057 133.61333L726.1861 115.45333L752.2917 121.50667L778.3972 115.45333L804.5028 115.45333L830.60834 103.346664L856.71387 91.24L882.81946 133.61333L908.925 97.293335L935.0306 73.08L961.1361 97.293335L987.24164 109.4L1013.3472 121.50667" fill-rule="nonzero"/><path fill="#000000" fill-opacity="0.0" clip-path="url(#id_0)" d="M102.65278 127.56C102.65278 129.21686 101.30963 130.56 99.65278 130.56C97.995926 130.56 96.65278 129.21686 96.65278 127.56C96.65278 125.903145 97.995926 124.56 99.65278 124.56C101.30963 124.56 102.65278 125.903145 102.65278 127.56Z" fill-rule="nonzero"/><path fill="#000000" fill-opacity="0.0" clip-path="url(#id_0)" d="M128.75833 127.56C128.75833 129.21686 127.415184 130.56 125.75833 130.56C124.10148 130.56 122.75833 129.21686 122.75833 127.56C122.75833 125.903145 124.10148 124.56 125.75833 124.56C127.415184 124.56 128.75833 125.903145 128.75833 127.56Z" fill-rule="nonzero"/><path fill="#000000" fill-opacity="0.0" clip-path="url(#id_0)" d="M154.86389 121.50667C154.86389 123.16352 153.52074 124.50667 151.86389 124.50667C150.20703 124.50667 148.86389 123.16352 148.86389 121.50667C148.86389 119.849815 150.20703 118.50667 151.86389 118.50667C153.52074 118.50667 154.86389 119.849815 154.86389 121.50667Z" fill-rule="nonzero"/><path fill="#000000" fill-opacity="0.0" clip-path="url(#id_0)" d="M180.96945 103.346664C180.96945 105.00352 179.6263 106.346664 177.96945 106.346664C176.31259 106.346664 174.96945 105.00352 174.96945 103.346664C174.96945 101.68981 176.31259 100.346664 177.96945 100.346664C179.6263 100.346664 180.96945 101.68981 180.96945 103.346664Z" fill-rule="nonzero"/><path fill="#000000" fill-opacity="0.0" clip-path="url(#id_0)" d="M207.075 115.45333C207.075 117.11019 205.73186 118.45333 204.075 118.45333C202.41815 118.45333 201.075 117.11019 201.075 115.45333C201.075 113.79648 202.41815 112.45333 204.075 112.45333C205.73186 112.45333 207.075 113.79648 207.075 115.45333Z" fill-rule="nonzero"/><path fill="#000000" fill-opacity="0.0" clip-path="url(#id_0)" d="M233.18056 109.4C233.18056 111.056854 231.8374 112.4 230.18056 112.4C228.5237 112.4 227.18056 111.056854 227.18056 109.4C227.18056 107.74315 228.5237 106.4 230.18056 106.4C231.8374 106.4 233.18056 107.74315 233.18056 109.4Z" fill-rule="nonzero"/><path fill="#000000" fill-opacity="0.0" clip-path="url(#id_0)" d="M259.2861 127.56C259.2861 129.21686 257.94296 130.56 256.2861 130.56C254.62926 130.56 253.28612 129.21686 253.28612 127.56C253.28612 125.903145 254.62926 124.56 256.2861 124.56C257.94296 124.56 259.2861 125.903145 259.2861 127.56Z" fill-rule="nonzero"/><path fill="#000000" fill-opacity="0.0" clip-path="url(#id_0)" d="M285.39166 121.50667C285.39166 123.16352 284.04852 124.50667 282.39166 124.50667C280.7348 124.50667 279.39166 123.16352 279.39166 121.50667C279.39166 119.849815 280.7348 118.50667 282.39166 118.50667C284.04852 118.50667 285.39166 119.849815 285.39166 121.50667Z" fill-rule="nonzero"/><path fill="#000000" fill-opacity="0.0" clip-path="url(#id_0)" d="M311.49722 109.4C311.49722 111.056854 310.15408 112.4 308.49722 112.4C306.84036 112.4 305.49722 111.056854 305.49722 109.4C305.49722 107.74315 306.84036 106.4 308.49722 106.4C310.15408 106.4 311.49722 107.74315 311.49722 109.4Z" fill-rule="nonzero"/><path fill="#000000" fill-opacity="0.0" clip-path="url(#id_0)" d="M337.60278 103.346664C337.60278 105.00352 336.25964 106.346664 334.60278 106.346664C332.94592 106.346664 331.60278 105.00352 331.60278 103.346664C331.60278 101.68981 332.94592 100.346664 334.60278 100.346664C336.25964 100.346664 337.60278 101.68981 337.60278 103.346664Z" fill-rule="nonzero"/><path fill="#000000" fill-opacity="0.0" clip-path="url(#id_0)" d="M363.70834 127.56C363.70834 129.21686 362.36517 130.56 360.70834 130.56C359.05148 130.56 357.70834 129.21686 357.70834 127.56C357.70834 125.903145 359.05148 124.56 360.70834 124.56C362.36517 124.56 363.70834 125.903145 363.70834 127.56Z" fill-rule="nonzero"/><path fill="#000000" fill-opacity="0.0" clip-path="url(#id_0)" d="M389.8139 127.56C389.8139 129.21686 388.47073 130.56 386.8139 130.56C385.15704 130.56 383.8139 129.21686 383.8139 127.56C383.8139 125.903145 385.15704 124.56 386.8139 124.56C388.47073 124.56 389.8139 125.903145 389.8139 127.56Z" fill-rule="nonzero"/><path fill="#000000" fill-opacity="0.0" clip-path="url(#id_0)" d="M415.91943 133.61333C415.91943 135.27019 414.5763 136.61333 412.91943 136.61333C411.2626 136.61333 409.91943 135.27019 409.91943 133.61333C409.91943 131.95648 411.2626 130.61333 412.91943 130.61333C414.5763 130.61333 415.91943 131.95648 415.91943 133.61333Z" fill-rule="nonzero"/><path fill="#000000" fill-opacity="0.0" clip-path="url(#id_0)" d="M442.025 115.45333C442.025 117.11019 440.68185 118.45333 439.025 118.45333C437.36813 118.45333 436.025 117.11019 436.025 115.45333C436.025 113.79648 437.36813 112.45333 439.025 112.45333C440.68185 112.45333 442.025 113.79648 442.025 115.45333Z" fill-rule="nonzero"/><path fill="#000000" fill-opacity="0.0" clip-path="url(#id_0)" d="M468.13055 121.50667C468.13055 123.16352 466.7874 124.50667 465.13055 124.50667C463.4737 124.50667 462.13055 123.16352 462.13055 121.50667C462.13055 119.849815 463.4737 118.50667 465.13055 118.50667C466.7874 118.50667 468.13055 119.849815 468.13055 121.50667Z" fill-rule="nonzero"/><path fill="#000000" fill-opacity="0.0" clip-path="url(#id_0)" d="M494.2361 121.50667C494.2361 123.16352 492.89297 124.50667 491.2361 124.50667C489.57925 124.50667 488.2361 123.16352 488.2361 121.50667C488.2361 119.849815 489.57925 118.50667 491.2361 118.50667C492.89297 118.50667 494.2361 119.849815 494.2361 121.50667Z" fill-rule="nonzero"/><path fill="#000000" fill-opacity="0.0" clip-path="url(#id_0)" d="M520.3417 121.50667C520.3417 123.16352 518.99854 124.50667 517.3417 124.50667C515.6848 124.50667 514.3417 123.16352 514.3417 121.50667C514.3417 119.849815 515.6848 118.50667 517.3417 118.50667C518.99854 118.50667 520.3417 119.849815 520.3417 121.50667Z" fill-rule="nonzero"/><path fill="#000000" fill-opacity="0.0" clip-path="url(#id_0)" d="M546.4472 121.50667C546.4472 123.16352 545.10406 124.50667 543.4472 124.50667C541.79034 124.50667 540.4472 123.16352 540.4472 121.50667C540.4472 119.849815 541.79034 118.50667 543.4472 118.50667C545.10406 118.50667 546.4472 119.849815 546.4472 121.50667Z" fill-rule="nonzero"/><path fill="#000000" fill-opacity="0.0" clip-path="url(#id_0)" d="M572.5528 121.50667C572.5528 123.16352 571.20966 124.50667 569.5528 124.50667C567.89594 124.50667 566.5528 123.16352 566.5528 121.50667C566.5528 119.849815 567.89594 118.50667 569.5528 118.50667C571.20966 118.50667 572.5528 119.849815 572.5528 121.50667Z" fill-rule="nonzero"/><path fill="#000000" fill-opacity="0.0" clip-path="url(#id_0)" d="M598.6583 127.56C598.6583 129.21686 597.3152 130.56 595.6583 130.56C594.00146 130.56 592.6583 129.21686 592.6583 127.56C592.6583 125.903145 594.00146 124.56 595.6583 124.56C597.3152 124.56 598.6583 125.903145 598.6583 127.56Z" fill-rule="nonzero"/><path fill="#000000" fill-opacity="0.0" clip-path="url(#id_0)" d="M624.7639 127.56C624.7639 129.21686 623.4207 130.56 621.7639 130.56C620.10706 130.56 618.7639 129.21686 618.7639 127.56C618.7639 125.903145 620.10706 124.56 621.7639 124.56C623.4207 124.56 624.7639 125.903145 624.7639 127.56Z" fill-rule="nonzero"/><path fill="#000000" fill-opacity="0.0" clip-path="url(#id_0)" d="M650.86945 127.56C650.86945 129.21686 649.5263 130.56 647.86945 130.56C646.2126 130.56 644.86945 129.21686 644.86945 127.56C644.86945 125.903145 646.2126 124.56 647.86945 124.56C649.5263 124.56 650.86945 125.903145 650.86945 127.56Z" fill-rule="nonzero"/><path fill="#000000" fill-opacity="0.0" clip-path="url(#id_0)" d="M676.975 127.56C676.975 129.21686 675.63184 130.56 673.975 130.56C672.3181 130.56 670.975 129.21686 670.975 127.56C670.975 125.903145 672.3181 124.56 673.975 124.56C675.63184 124.56 676.975 125.903145 676.975 127.56Z" fill-rule="nonzero"/><path fill="#000000" fill-opacity="0.0" clip-path="url(#id_0)" d="M703.08057 127.56C703.08057 129.21686 701.7374 130.56 700.08057 130.56C698.4237 130.56 697.08057 129.21686 697.08057 127.56C697.08057 125.903145 698.4237 124.56 700.08057 124.56C701.7374 124.56 703.08057 125.903145 703.08057 127.56Z" fill-rule="nonzero"/><path fill="#000000" fill-opacity="0.0" clip-path="url(#id_0)" d="M729.1861 127.56C729.1861 129.21686 727.84296 130.56 726.1861 130.56C724.52924 130.56 723.1861 129.21686 723.1861 127.56C723.1861 125.903145 724.52924 124.56 726.1861 124.56C727.84296 124.56 729.1861 125.903145 729.1861 127.56Z" fill-rule="nonzero"/><path fill="#000000" fill-opacity="0.0" clip-path="url(#id_0)" d="M755.2917 91.24C755.2917 92.89685 753.94855 94.24 752.2917 94.24C750.6348 94.24 749.2917 92.89685 749.2917 91.24C749.2917 89.583145 750.6348 88.24 752.2917 88.24C753.94855 88.24 755.2917 89.583145 755.2917 91.24Z" fill-rule="nonzero"/><path fill="#000000" fill-opacity="0.0" clip-path="url(#id_0)" d="M781.3972 79.13333C781.3972 80.790184 780.0541 82.13333 778.3972 82.13333C776.74036 82.13333 775.3972 80.790184 775.3972 79.13333C775.3972 77.47648 776.74036 76.13333 778.3972 76.13333C780.0541 76.13333 781.3972 77.47648 781.3972 79.13333Z" fill-rule="nonzero"/><path fill="#000000" fill-opacity="0.0" clip-path="url(#id_0)" d="M807.5028 127.56C807.5028 129.21686 806.1596 130.56 804.5028 130.56C802.84595 130.56 801.5028 129.21686 801.5028 127.56C801.5028 125.903145 802.84595 124.56 804.5028 124.56C806.1596 124.56 807.5028 125.903145 807.5028 127.56Z" fill-rule="nonzero"/><path fill="#000000" fill-opacity="0.0" clip-path="url(#id_0)" d="M833.60834 109.4C833.60834 111.056854 832.2652 112.4 830.60834 112.4C828.9515 112.4 827.60834 111.056854 827.60834 109.4C827.60834 107.74315 828.9515 106.4 830.60834 106.4C832.2652 106.4 833.60834 107.74315 833.60834 109.4Z" fill-rule="nonzero"/><path fill="#000000" fill-opacity="0.0" clip-path="url(#id_0)" d="M859.71387 79.13333C859.71387 80.790184 858.3707 82.13333 856.71387 82.13333C855.057 82.13333 853.71387 80.790184 853.71387 79.13333C853.71387 77.47648 855.057 76.13333 856.71387 76.13333C858.3707 76.13333 859.71387 77.47648 859.71387 79.13333Z" fill-rule="nonzero"/><path fill="#000000" fill-opacity="0.0" clip-path="url(#id_0)" d="M885.81946 127.56C885.81946 129.21686 884.4763 130.56 882.81946 130.56C881.1626 130.56 879.81946 129.21686 879.81946 127.56C879.81946 125.903145 881.1626 124.56 882.81946 124.56C884.4763 124.56 885.81946 125.903145 885.81946 127.56Z" fill-rule="nonzero"/><path fill="#000000" fill-opacity="0.0" clip-path="url(#id_0)" d="M911.925 121.50667C911.925 123.16352 910.58185 124.50667 908.925 124.50667C907.2681 124.50667 905.925 123.16352 905.925 121.50667C905.925 119.849815 907.2681 118.50667 908.925 118.50667C910.58185 118.50667 911.925 119.849815 911.925 121.50667Z" fill-rule="nonzero"/><path fill="#000000" fill-opacity="0.0" clip-path="url(#id_0)" d="M938.0306 127.56C938.0306 129.21686 936.68744 130.56 935.0306 130.56C933.3737 130.56 932.0306 129.21686 932.0306 127.56C932.0306 125.903145 933.3737 124.56 935.0306 124.56C936.68744 124.56 938.0306 125.903145 938.0306 127.56Z" fill-rule="nonzero"/><path fill="#000000" fill-opacity="0.0" clip-path="url(#id_0)" d="M964.1361 115.45333C964.1361 117.11019 962.79297 118.45333 961.1361 118.45333C959.47925 118.45333 958.1361 117.11019 958.1361 115.45333C958.1361 113.79648 959.47925 112.45333 961.1361 112.45333C962.79297 112.45333 964.1361 113.79648 964.1361 115.45333Z" fill-rule="nonzero"/><path fill="#000000" fill-opacity="0.0" clip-path="url(#id_0)" d="M990.24164 127.56C990.24164 129.21686 988.8985 130.56 987.24164 130.56C985.58484 130.56 984.24164 129.21686 984.24164 127.56C984.24164 125.903145 985.58484 124.56 987.24164 124.56C988.8985 124.56 990.24164 125.903145 990.24164 127.56Z" fill-rule="nonzero"/><path fill="#000000" fill-opacity="0.0" clip-path="url(#id_0)" d="M1016.3472 127.56C1016.3472 129.21686 1015.0041 130.56 1013.3472 130.56C1011.69037 130.56 1010.3472 129.21686 1010.3472 127.56C1010.3472 125.903145 1011.69037 124.56 1013.3472 124.56C1015.0041 124.56 1016.3472 125.903145 1016.3472 127.56Z" fill-rule="nonzero"/><path fill="#000000" fill-opacity="0.0" clip-path="url(#id_0)" d="M102.65278 133.61333C102.65278 135.27019 101.30963 136.61333 99.65278 136.61333C97.995926 136.61333 96.65278 135.27019 96.65278 133.61333C96.65278 131.95648 97.995926 130.61333 99.65278 130.61333C101.30963 130.61333 102.65278 131.95648 102.65278 133.61333Z" fill-rule="nonzero"/><path fill="#000000" fill-opacity="0.0" clip-path="url(#id_0)" d="M128.75833 133.61333C128.75833 135.27019 127.415184 136.61333 125.75833 136.61333C124.10148 136.61333 122.75833 135.27019 122.75833 133.61333C122.75833 131.95648 124.10148 130.61333 125.75833 130.61333C127.415184 130.61333 128.75833 131.95648 128.75833 133.61333Z" fill-rule="nonzero"/><path fill="#000000" fill-opacity="0.0" clip-path="url(#id_0)" d="M154.86389 133.61333C154.86389 135.27019 153.52074 136.61333 151.86389 136.61333C150.20703 136.61333 148.86389 135.27019 148.86389 133.61333C148.86389 131.95648 150.20703 130.61333 151.86389 130.61333C153.52074 130.61333 154.86389 131.95648 154.86389 133.61333Z" fill-rule="nonzero"/><path fill="#000000" fill-opacity="0.0" clip-path="url(#id_0)" d="M180.96945 121.50667C180.96945 123.16352 179.6263 124.50667 177.96945 124.50667C176.31259 124.50667 174.96945 123.16352 174.96945 121.50667C174.96945 119.849815 176.31259 118.50667 177.96945 118.50667C179.6263 118.50667 180.96945 119.849815 180.96945 121.50667Z" fill-rule="nonzero"/><path fill="#000000" fill-opacity="0.0" clip-path="url(#id_0)" d="M207.075 133.61333C207.075 135.27019 205.73186 136.61333 204.075 136.61333C202.41815 136.61333 201.075 135.27019 201.075 133.61333C201.075 131.95648 202.41815 130.61333 204.075 130.61333C205.73186 130.61333 207.075 131.95648 207.075 133.61333Z" fill-rule="nonzero"/><path fill="#000000" fill-opacity="0.0" clip-path="url(#id_0)" d="M233.18056 133.61333C233.18056 135.27019 231.8374 136.61333 230.18056 136.61333C228.5237 136.61333 227.18056 135.27019 227.18056 133.61333C227.18056 131.95648 228.5237 130.61333 230.18056 130.61333C231.8374 130.61333 233.18056 131.95648 233.18056 133.61333Z" fill-rule="nonzero"/><path fill="#000000" fill-opacity="0.0" clip-path="url(#id_0)" d="M259.2861 85.18667C259.2861 86.84352 257.94296 88.18667 256.2861 88.18667C254.62926 88.18667 253.28612 86.84352 253.28612 85.18667C253.28612 83.529816 254.62926 82.18667 256.2861 82.18667C257.94296 82.18667 259.2861 83.529816 259.2861 85.18667Z" fill-rule="nonzero"/><path fill="#000000" fill-opacity="0.0" clip-path="url(#id_0)" d="M285.39166 103.346664C285.39166 105.00352 284.04852 106.346664 282.39166 106.346664C280.7348 106.346664 279.39166 105.00352 279.39166 103.346664C279.39166 101.68981 280.7348 100.346664 282.39166 100.346664C284.04852 100.346664 285.39166 101.68981 285.39166 103.346664Z" fill-rule="nonzero"/><path fill="#000000" fill-opacity="0.0" clip-path="url(#id_0)" d="M311.49722 133.61333C311.49722 135.27019 310.15408 136.61333 308.49722 136.61333C306.84036 136.61333 305.49722 135.27019 305.49722 133.61333C305.49722 131.95648 306.84036 130.61333 308.49722 130.61333C310.15408 130.61333 311.49722 131.95648 311.49722 133.61333Z" fill-rule="nonzero"/><path fill="#000000" fill-opacity="0.0" clip-path="url(#id_0)" d="M337.60278 133.61333C337.60278 135.27019 336.25964 136.61333 334.60278 136.61333C332.94592 136.61333 331.60278 135.27019 331.60278 133.61333C331.60278 131.95648 332.94592 130.61333 334.60278 130.61333C336.25964 130.61333 337.60278 131.95648 337.60278 133.61333Z" fill-rule="nonzero"/><path fill="#000000" fill-opacity="0.0" clip-path="url(#id_0)" d="M363.70834 103.346664C363.70834 105.00352 362.36517 106.346664 360.70834 106.346664C359.05148 106.346664 357.70834 105.00352 357.70834 103.346664C357.70834 101.68981 359.05148 100.346664 360.70834 100.346664C362.36517 100.346664 363.70834 101.68981 363.70834 103.346664Z" fill-rule="nonzero"/><path fill="#000000" fill-opacity="0.0" clip-path="url(#id_0)" d="M389.8139 103.346664C389.8139 105.00352 388.47073 106.346664 386.8139 106.346664C385.15704 106.346664 383.8139 105.00352 383.8139 103.346664C383.8139 101.68981 385.15704 100.346664 386.8139 100.346664C388.47073 100.346664 389.8139 101.68981 389.8139 103.346664Z" fill-rule="nonzero"/><path fill="#000000" fill-opacity="0.0" clip-path="url(#id_0)" d="M415.91943 133.61333C415.91943 135.27019 414.5763 136.61333 412.91943 136.61333C411.2626 136.61333 409.91943 135.27019 409.91943 133.61333C409.91943 131.95648 411.2626 130.61333 412.91943 130.61333C414.5763 130.61333 415.91943 131.95648 415.91943 133.61333Z" fill-rule="nonzero"/><path fill="#000000" fill-opacity="0.0" clip-path="url(#id_0)" d="M442.025 109.4C442.025 111.056854 440.68185 112.4 439.025 112.4C437.36813 112.4 436.025 111.056854 436.025 109.4C436.025 107.74315 437.36813 106.4 439.025 106.4C440.68185 106.4 442.025 107.74315 442.025 109.4Z" fill-rule="nonzero"/><path fill="#000000" fill-opacity="0.0" clip-path="url(#id_0)" d="M468.13055 133.61333C468.13055 135.27019 466.7874 136.61333 465.13055 136.61333C463.4737 136.61333 462.13055 135.27019 462.13055 133.61333C462.13055 131.95648 463.4737 130.61333 465.13055 130.61333C466.7874 130.61333 468.13055 131.95648 468.13055 133.61333Z" fill-rule="nonzero"/><path fill="#000000" fill-opacity="0.0" clip-path="url(#id_0)" d="M494.2361 133.61333C494.2361 135.27019 492.89297 136.61333 491.2361 136.61333C489.57925 136.61333 488.2361 135.27019 488.2361 133.61333C488.2361 131.95648 489.57925 130.61333 491.2361 130.61333C492.89297 130.61333 494.2361 131.95648 494.2361 133.61333Z" fill-rule="nonzero"/><path fill="#000000" fill-opacity="0.0" clip-path="url(#id_0)" d="M520.3417 30.706667C520.3417 32.36352 518.99854 33.706665 517.3417 33.706665C515.6848 33.706665 514.3417 32.36352 514.3417 30.706667C514.3417 29.049812 515.6848 27.706667 517.3417 27.706667C518.99854 27.706667 520.3417 29.049812 520.3417 30.706667Z" fill-rule="nonzero"/><path fill="#000000" fill-opacity="0.0" clip-path="url(#id_0)" d="M546.4472 127.56C546.4472 129.21686 545.10406 130.56 543.4472 130.56C541.79034 130.56 540.4472 129.21686 540.4472 127.56C540.4472 125.903145 541.79034 124.56 543.4472 124.56C545.10406 124.56 546.4472 125.903145 546.4472 127.56Z" fill-rule="nonzero"/><path fill="#000000" fill-opacity="0.0" clip-path="url(#id_0)" d="M572.5528 127.56C572.5528 129.21686 571.20966 130.56 569.5528 130.56C567.89594 130.56 566.5528 129.21686 566.5528 127.56C566.5528 125.903145 567.89594 124.56 569.5528 124.56C571.20966 124.56 572.5528 125.903145 572.5528 127.56Z" fill-rule="nonzero"/><path fill="#000000" fill-opacity="0.0" clip-path="url(#id_0)" d="M598.6583 103.346664C598.6583 105.00352 597.3152 106.346664 595.6583 106.346664C594.00146 106.346664 592.6583 105.00352 592.6583 103.346664C592.6583 101.68981 594.00146 100.346664 595.6583 100.346664C597.3152 100.346664 598.6583 101.68981 598.6583 103.346664Z" fill-rule="nonzero"/><path fill="#000000" fill-opacity="0.0" clip-path="url(#id_0)" d="M624.7639 121.50667C624.7639 123.16352 623.4207 124.50667 621.7639 124.50667C620.10706 124.50667 618.7639 123.16352 618.7639 121.50667C618.7639 119.849815 620.10706 118.50667 621.7639 118.50667C623.4207 118.50667 624.7639 119.849815 624.7639 121.50667Z" fill-rule="nonzero"/><path fill="#000000" fill-opacity="0.0" clip-path="url(#id_0)" d="M650.86945 133.61333C650.86945 135.27019 649.5263 136.61333 647.86945 136.61333C646.2126 136.61333 644.86945 135.27019 644.86945 133.61333C644.86945 131.95648 646.2126 130.61333 647.86945 130.61333C649.5263 130.61333 650.86945 131.95648 650.86945 133.61333Z" fill-rule="nonzero"/><path fill="#000000" fill-opacity="0.0" clip-path="url(#id_0)" d="M676.975 103.346664C676.975 105.00352 675.63184 106.346664 673.975 106.346664C672.3181 106.346664 670.975 105.00352 670.975 103.346664C670.975 101.68981 672.3181 100.346664 673.975 100.346664C675.63184 100.346664 676.975 101.68981 676.975 103.346664Z" fill-rule="nonzero"/><path fill="#000000" fill-opacity="0.0" clip-path="url(#id_0)" d="M703.08057 133.61333C703.08057 135.27019 701.7374 136.61333 700.08057 136.61333C698.4237 136.61333 697.08057 135.27019 697.08057 133.61333C697.08057 131.95648 698.4237 130.61333 700.08057 130.61333C701.7374 130.61333 703.08057 131.95648 703.08057 133.61333Z" fill-rule="nonzero"/><path fill="#000000" fill-opacity="0.0" clip-path="url(#id_0)" d="M729.1861 115.45333C729.1861 117.11019 727.84296 118.45333 726.1861 118.45333C724.52924 118.45333 723.1861 117.11019 723.1861 115.45333C723.1861 113.79648 724.52924 112.45333 726.1861 112.45333C727.84296 112.45333 729.1861 113.79648 729.1861 115.45333Z" fill-rule="nonzero"/><path fill="#000000" fill-opacity="0.0" clip-path="url(#id_0)" d="M755.2917 121.50667C755.2917 123.16352 753.94855 124.50667 752.2917 124.50667C750.6348 124.50667 749.2917 123.16352 749.2917 121.50667C749.2917 119.849815 750.6348 118.50667 752.2917 118.50667C753.94855 118.50667 755.2917 119.849815 755.2917 121.50667Z" fill-rule="nonzero"/><path fill="#000000" fill-opacity="0.0" clip-path="url(#id_0)" d="M781.3972 115.45333C781.3972 117.11019 780.0541 118.45333 778.3972 118.45333C776.74036 118.45333 775.3972 117.11019 775.3972 115.45333C775.3972 113.79648 776.74036 112.45333 778.3972 112.45333C780.0541 112.45333 781.3972 113.79648 781.3972 115.45333Z" fill-rule="nonzero"/><path fill="#000000" fill-opacity="0.0" clip-path="url(#id_0)" d="M807.5028 115.45333C807.5028 117.11019 806.1596 118.45333 804.5028 118.45333C802.84595 118.45333 801.5028 117.11019 801.5028 115.45333C801.5028 113.79648 802.84595 112.45333 804.5028 112.45333C806.1596 112.45333 807.5028 113.79648 807.5028 115.45333Z" fill-rule="nonzero"/><path fill="#000000" fill-opacity="0.0" clip-path="url(#id_0)" d="M833.60834 103.346664C833.60834 105.00352 832.2652 106.346664 830.60834 106.346664C828.9515 106.346664 827.60834 105.00352 827.60834 103.346664C827.60834 101.68981 828.9515 100.346664 830.60834 100.346664C832.2652 100.346664 833.60834 101.68981 833.60834 103.346664Z" fill-rule="nonzero"/><path fill="#000000" fill-opacity="0.0" clip-path="url(#id_0)" d="M859.71387 91.24C859.71387 92.89685 858.3707 94.24 856.71387 94.24C855.057 94.24 853.71387 92.89685 853.71387 91.24C853.71387 89.583145 855.057 88.24 856.71387 88.24C858.3707 88.24 859.71387 89.583145 859.71387 91.24Z" fill-rule="nonzero"/><path fill="#000000" fill-opacity="0.0" clip-path="url(#id_0)" d="M885.81946 133.61333C885.81946 135.27019 884.4763 136.61333 882.81946 136.61333C881.1626 136.61333 879.81946 135.27019 879.81946 133.61333C879.81946 131.95648 881.1626 130.61333 882.81946 130.61333C884.4763 130.61333 885.81946 131.95648 885.81946 133.61333Z" fill-rule="nonzero"/><path fill="#000000" fill-opacity="0.0" clip-path="url(#id_0)" d="M911.925 97.293335C911.925 98.95019 910.58185 100.293335 908.925 100.293335C907.2681 100.293335 905.925 98.95019 905.925 97.293335C905.925 95.63648 907.2681 94.293335 908.925 94.293335C910.58185 94.293335 911.925 95.63648 911.925 97.293335Z" fill-rule="nonzero"/><path fill="#000000" fill-opacity="0.0" clip-path="url(#id_0)" d="M938.0306 73.08C938.0306 74.736855 936.68744 76.08 935.0306 76.08C933.3737 76.08 932.0306 74.736855 932.0306 73.08C932.0306 71.42315 933.3737 70.08 935.0306 70.08C936.68744 70.08 938.0306 71.42315 938.0306 73.08Z" fill-rule="nonzero"/><path fill="#000000" fill-opacity="0.0" clip-path="url(#id_0)" d="M964.1361 97.293335C964.1361 98.95019 962.79297 100.293335 961.1361 100.293335C959.47925 100.293335 958.1361 98.95019 958.1361 97.293335C958.1361 95.63648 959.47925 94.293335 961.1361 94.293335C962.79297 94.293335 964.1361 95.63648 964.1361 97.293335Z" fill-rule="nonzero"/><path fill="#000000" fill-opacity="0.0" clip-path="url(#id_0)" d="M990.24164 109.4C990.24164 111.056854 988.8985 112.4 987.24164 112.4C985.58484 112.4 984.24164 111.056854 984.24164 109.4C984.24164 107.74315 985.58484 106.4 987.24164 106.4C988.8985 106.4 990.24164 107.74315 990.24164 109.4Z" fill-rule="nonzero"/><path fill="#000000" fill-opacity="0.0" clip-path="url(#id_0)" d="M1016.3472 121.50667C1016.3472 123.16352 1015.0041 124.50667 1013.3472 124.50667C1011.69037 124.50667 1010.3472 123.16352 1010.3472 121.50667C1010.3472 119.849815 1011.69037 118.50667 1013.3472 118.50667C1015.0041 118.50667 1016.3472 119.849815 1016.3472 121.50667Z" fill-rule="nonzero"/><path fill="#000000" d="M494.39062 190.66667L494.39062 184.8073L492.96875 184.8073L492.96875 183.65105L494.39062 183.65105L494.39062 177.77605L498.84375 177.77605Q500.32812 177.77605 501.125 177.96355Q502.23438 178.21355 503.01562 178.88542Q504.03125 179.7448 504.53125 181.08855Q505.04688 182.4323 505.04688 184.15105Q505.04688 186.1198 504.42188 187.54167Q503.79688 188.96355 502.92188 189.60417Q502.04688 190.2448 500.92188 190.51042Q500.29688 190.66667 499.03125 190.66667L494.39062 190.66667ZM496.09375 189.15105L498.84375 189.15105Q500.125 189.15105 500.84375 188.91667Q501.5625 188.66667 501.98438 188.2448Q502.59375 187.63542 502.9375 186.6198Q503.28125 185.60417 503.28125 184.13542Q503.28125 182.6198 502.9375 181.71355Q502.60938 180.8073 502.0625 180.27605Q501.51562 179.72917 500.84375 179.52605Q500.1875 179.3073 498.79688 179.3073L496.09375 179.3073L496.09375 183.65105L499.64062 183.65105L499.64062 184.8073L496.09375 184.8073L496.09375 189.15105ZM508.21875 185.9948Q508.21875 187.72917 509.0 188.6823Q509.75 189.57292 510.96875 189.57292Q512.2031 189.57292 512.9375 188.6823Q513.71875 187.72917 513.71875 185.94792Q513.71875 184.26042 512.9219 183.32292Q512.1875 182.4323 510.96875 182.4323Q509.73438 182.4323 509.0 183.32292Q508.21875 184.26042 508.21875 185.9948ZM515.5469 182.94792L515.5469 181.10417L517.25 181.10417L517.25 182.5573Q517.25 183.65105 516.9219 184.22917Q516.4844 184.97917 515.34375 185.6198Q515.34375 185.72917 515.34375 185.8698Q515.34375 189.13542 513.2344 190.3073Q512.2031 190.88542 510.96875 190.88542Q508.96875 190.88542 507.79688 189.6198Q506.59375 188.32292 506.59375 185.9948Q506.59375 183.40105 508.04688 182.15105Q509.25 181.1198 510.96875 181.1198Q512.90625 181.1198 514.125 182.38542Q515.0469 183.33855 515.2656 184.85417Q515.875 184.47917 516.125 184.08855Q516.3906 183.6823 516.375 182.94792L515.5469 182.94792ZM519.1875 190.66667L519.1875 181.33855L520.6094 181.33855L520.6094 182.66667Q521.6406 181.1198 523.5781 181.1198Q524.4219 181.1198 525.125 181.4323Q525.84375 181.72917 526.1875 182.22917Q526.5469 182.71355 526.6875 183.38542Q526.7656 183.82292 526.7656 184.9323L526.7656 190.66667L525.1875 190.66667L525.1875 184.9948Q525.1875 184.02605 525.0 183.54167Q524.8281 183.0573 524.34375 182.77605Q523.875 182.4948 523.25 182.4948Q522.2344 182.4948 521.5 183.13542Q520.7656 183.77605 520.7656 185.57292L520.7656 190.66667L519.1875 190.66667ZM536.78125 190.66667L533.2344 181.33855L534.90625 181.33855L536.90625 186.91667Q537.2344 187.82292 537.5 188.8073Q537.71875 188.0573 538.09375 187.02605L540.15625 181.33855L541.7969 181.33855L538.25 190.66667L536.78125 190.66667ZM543.2031 179.60417L543.2031 177.77605L544.78125 177.77605L544.78125 179.60417L543.2031 179.60417ZM543.2031 190.66667L543.2031 181.33855L544.78125 181.33855L544.78125 190.66667L543.2031 190.66667ZM543.09375 193.52605L543.09375 191.72917L544.8906 191.72917L544.8906 193.52605L543.09375 193.52605ZM552.2031 190.66667L552.2031 177.77605L553.78125 177.77605L553.78125 185.13542L557.5156 181.33855L559.5625 181.33855L556.0 184.79167L559.9375 190.66667L557.9844 190.66667L554.8906 185.90105L553.78125 186.96355L553.78125 190.66667L552.2031 190.66667ZM561.2031 179.60417L561.2031 177.77605L562.78125 177.77605L562.78125 179.60417L561.2031 179.60417ZM561.2031 190.66667L561.2031 181.33855L562.78125 181.33855L562.78125 190.66667L561.2031 190.66667ZM571.5781 187.66667L573.21875 187.8698Q572.8281 189.29167 571.78125 190.08855Q570.7344 190.88542 569.1094 190.88542Q567.0625 190.88542 565.8594 189.6198Q564.65625 188.35417 564.65625 186.07292Q564.65625 183.72917 565.8594 182.4323Q567.0781 181.1198 569.0156 181.1198Q570.8906 181.1198 572.0781 182.40105Q573.2656 183.66667 573.2656 185.97917Q573.2656 186.1198 573.25 186.40105L566.2969 186.40105Q566.375 187.94792 567.15625 188.76042Q567.9531 189.57292 569.1094 189.57292Q569.9844 189.57292 570.59375 189.1198Q571.21875 188.66667 571.5781 187.66667ZM566.375 185.10417L571.59375 185.10417Q571.4844 183.9323 571.0 183.33855Q570.2344 182.41667 569.03125 182.41667Q567.9531 182.41667 567.2031 183.15105Q566.46875 183.88542 566.375 185.10417ZM568.9844 178.6823L567.9844 180.16667L566.1719 180.16667L568.0781 177.71355L569.7656 177.71355L571.7344 180.16667L569.9375 180.16667L568.9844 178.6823ZM568.46875 176.38542Q568.96875 176.33855 569.1094 176.29167Q569.5781 176.1823 569.59375 175.9323Q569.59375 175.72917 569.34375 175.58855Q568.96875 175.38542 568.1719 175.38542Q567.90625 175.38542 567.34375 175.4323L567.25 174.60417Q567.59375 174.52605 568.5156 174.54167Q569.59375 174.54167 570.28125 174.88542Q571.03125 175.26042 571.0625 175.85417Q571.09375 176.72917 569.4531 176.9323L569.4531 177.3698L568.46875 177.3698L568.46875 176.38542ZM575.1875 190.66667L575.1875 181.33855L576.6094 181.33855L576.6094 182.63542Q577.0469 181.96355 577.7656 181.54167Q578.5 181.1198 579.4375 181.1198Q580.46875 181.1198 581.125 181.5573Q581.7969 181.97917 582.0625 182.76042Q583.1719 181.1198 584.9531 181.1198Q586.34375 181.1198 587.0781 181.90105Q587.8281 182.66667 587.8281 184.26042L587.8281 190.66667L586.2656 190.66667L586.2656 184.79167Q586.2656 183.83855 586.1094 183.41667Q585.9531 182.9948 585.5469 182.7448Q585.1406 182.4948 584.59375 182.4948Q583.6094 182.4948 582.9531 183.15105Q582.3125 183.8073 582.3125 185.2448L582.3125 190.66667L580.7344 190.66667L580.7344 184.60417Q580.7344 183.54167 580.34375 183.02605Q579.9531 182.4948 579.0781 182.4948Q578.40625 182.4948 577.84375 182.85417Q577.28125 183.19792 577.0156 183.8698Q576.7656 184.54167 576.7656 185.82292L576.7656 190.66667L575.1875 190.66667ZM597.6406 189.2448L597.875 190.65105Q597.2031 190.79167 596.6719 190.79167Q595.8125 190.79167 595.3281 190.52605Q594.8594 190.2448 594.6719 189.8073Q594.4844 189.35417 594.4844 187.9323L594.4844 182.5573L593.3125 182.5573L593.3125 181.33855L594.4844 181.33855L594.4844 179.02605L596.0469 178.07292L596.0469 181.33855L597.6406 181.33855L597.6406 182.5573L596.0469 182.5573L596.0469 188.02605Q596.0469 188.69792 596.125 188.90105Q596.21875 189.08855 596.40625 189.19792Q596.59375 189.3073 596.9531 189.3073Q597.2031 189.3073 597.6406 189.2448ZM599.1875 190.66667L599.1875 177.77605L600.7656 177.77605L600.7656 182.40105Q601.875 181.1198 603.5625 181.1198Q604.59375 181.1198 605.3594 181.52605Q606.125 181.9323 606.4531 182.66667Q606.7969 183.38542 606.7969 184.7448L606.7969 190.66667L605.2031 190.66667L605.2031 184.7448Q605.2031 183.5573 604.6875 183.02605Q604.1719 182.47917 603.2344 182.47917Q602.53125 182.47917 601.90625 182.85417Q601.2969 183.21355 601.03125 183.83855Q600.7656 184.46355 600.7656 185.5573L600.7656 190.66667L599.1875 190.66667ZM617.8125 183.16667L617.8125 181.33855L619.5 181.33855L619.5 182.77605Q619.5 184.16667 619.1875 184.71355Q618.375 186.1198 616.71875 186.29167L616.71875 190.66667L615.2969 190.66667L615.2969 189.29167Q614.21875 190.88542 612.34375 190.88542Q611.53125 190.88542 610.8125 190.57292Q610.09375 190.26042 609.7344 189.77605Q609.3906 189.29167 609.25 188.58855Q609.15625 188.1198 609.15625 187.1198L609.15625 181.33855L610.7344 181.33855L610.7344 186.51042Q610.7344 187.76042 610.8281 188.1823Q611.1406 189.51042 612.65625 189.51042Q613.3906 189.51042 614.0 189.15105Q614.625 188.77605 614.875 188.15105Q615.1406 187.52605 615.1406 186.33855L615.1406 181.33855L616.71875 181.33855L616.71875 185.6198Q617.8281 185.4323 618.3906 184.57292Q618.6406 184.21355 618.6406 183.16667L617.8125 183.16667ZM612.4375 179.1198Q612.9375 179.0573 613.0781 179.02605Q613.5469 178.8698 613.5469 178.52605Q613.5625 178.32292 613.3125 178.1823Q612.9375 177.97917 612.1406 177.97917Q611.8594 177.97917 611.3125 178.02605L611.21875 177.1198Q611.5625 177.0573 612.4844 177.0573Q613.5625 177.07292 614.25 177.41667Q615.0 177.77605 615.0156 178.44792Q615.0625 179.52605 613.4219 179.72917L613.4219 180.16667L612.4375 180.16667L612.4375 179.1198Z" fill-rule="nonzero"/><path fill="#000000" d="M24.45938 138.32083L24.318754 136.71146Q25.287504 136.60208 25.912504 136.19583Q26.52188 135.77396 26.912504 134.89896Q27.287504 134.00833 27.287504 132.91458Q27.287504 131.9302 27.006254 131.19583Q26.70938 130.44583 26.20938 130.08646Q25.693754 129.71146 25.100004 129.71146Q24.49063 129.71146 24.037504 130.07083Q23.58438 130.41458 23.287504 131.22708Q23.08438 131.7427 22.662504 133.52396Q22.225004 135.28958 21.850004 136.00833Q21.36563 136.9302 20.64688 137.38333Q19.92813 137.83646 19.05313 137.83646Q18.068754 137.83646 17.225004 137.28958Q16.381254 136.72708 15.943755 135.66458Q15.49063 134.60208 15.49063 133.28958Q15.49063 131.8677 15.95938 130.77396Q16.412504 129.6802 17.318754 129.08646Q18.20938 128.4927 19.350004 128.46146L19.475004 130.08646Q18.24063 130.22708 17.61563 130.9927Q16.99063 131.7427 16.99063 133.22708Q16.99063 134.77396 17.568754 135.4927Q18.131254 136.19583 18.92813 136.19583Q19.631254 136.19583 20.068754 135.6802Q20.52188 135.19583 20.99063 133.1177Q21.45938 131.03958 21.818754 130.25833Q22.33438 129.13333 23.131254 128.60208Q23.92813 128.07083 24.95938 128.07083Q25.99063 128.07083 26.89688 128.66458Q27.80313 129.2427 28.318754 130.35208Q28.818754 131.44583 28.818754 132.83646Q28.818754 134.58646 28.318754 135.77396Q27.80313 136.94583 26.787504 137.6177Q25.756254 138.28958 24.45938 138.32083ZM23.92813 126.53958Q21.33438 126.53958 20.08438 125.086464Q19.05313 123.88334 19.05313 122.16459Q19.05313 120.22709 20.318754 119.00834Q21.58438 117.78959 23.80313 117.78959Q25.600004 117.78959 26.631254 118.336464Q27.662504 118.867714 28.24063 119.898964Q28.818754 120.930214 28.818754 122.16459Q28.818754 124.117714 27.568754 125.336464Q26.30313 126.53958 23.92813 126.53958ZM23.92813 124.91459Q25.725004 124.91459 26.61563 124.13334Q27.506254 123.35209 27.506254 122.16459Q27.506254 120.97709 26.61563 120.19584Q25.70938 119.41459 23.881254 119.41459Q22.14688 119.41459 21.256254 120.211464Q20.36563 120.992714 20.36563 122.16459Q20.36563 123.35209 21.256254 124.13334Q22.14688 124.91459 23.92813 124.91459ZM16.61563 122.13334L18.100004 123.13334L18.100004 124.94584L15.64688 123.03959L15.64688 121.35209L18.100004 119.38334L18.100004 121.180214L16.61563 122.13334ZM12.537505 121.867714L12.537505 119.742714L15.006255 121.773964L15.006255 123.055214L12.537505 121.867714ZM25.17813 104.85209L25.381254 103.305214Q26.99063 103.555214 27.912504 104.60209Q28.818754 105.648964 28.818754 107.180214Q28.818754 109.10209 27.568754 110.273964Q26.30313 111.430214 23.975004 111.430214Q22.45938 111.430214 21.33438 110.930214Q20.193754 110.430214 19.631254 109.41459Q19.05313 108.38334 19.05313 107.180214Q19.05313 105.648964 19.83438 104.69584Q20.600004 103.72709 22.006254 103.44584L22.24063 104.992714Q21.30313 105.211464 20.83438 105.773964Q20.350004 106.32084 20.350004 107.117714Q20.350004 108.305214 21.20938 109.055214Q22.068754 109.805214 23.92813 109.805214Q25.80313 109.805214 26.662504 109.086464Q27.506254 108.367714 27.506254 107.19584Q27.506254 106.273964 26.943754 105.648964Q26.36563 105.023964 25.17813 104.85209ZM27.443754 95.85209Q28.193754 96.72709 28.506254 97.555214Q28.818754 98.367714 28.818754 99.28959Q28.818754 100.836464 28.068754 101.66459Q27.30313 102.47709 26.131254 102.47709Q25.45938 102.47709 24.89688 102.16459Q24.318754 101.85209 23.975004 101.35209Q23.631254 100.85209 23.45938 100.211464Q23.33438 99.742714 23.225004 98.805214Q22.99063 96.898964 22.67813 95.992714Q22.350004 95.97709 22.256254 95.97709Q21.30313 95.97709 20.89688 96.430214Q20.36563 97.03959 20.36563 98.22709Q20.36563 99.35209 20.756254 99.88334Q21.14688 100.41459 22.14688 100.66459L21.92813 102.211464Q20.92813 101.992714 20.318754 101.523964Q19.70938 101.03959 19.381254 100.13334Q19.05313 99.211464 19.05313 97.992714Q19.05313 96.805214 19.33438 96.055214Q19.61563 95.305214 20.05313 94.961464Q20.475004 94.60209 21.11563 94.461464Q21.52188 94.38334 22.58438 94.38334L24.693754 94.38334Q26.89688 94.38334 27.49063 94.28959Q28.068754 94.180214 28.600004 93.88334L28.600004 95.53959Q28.100004 95.78959 27.443754 95.85209ZM23.912504 95.992714Q24.27188 96.85209 24.506254 98.57084Q24.64688 99.53959 24.83438 99.94584Q25.006254 100.35209 25.350004 100.57084Q25.67813 100.78959 26.100004 100.78959Q26.725004 100.78959 27.14688 100.32084Q27.568754 99.836464 27.568754 98.91459Q27.568754 97.992714 27.17813 97.28959Q26.77188 96.57084 26.08438 96.242714Q25.537504 95.992714 24.49063 95.992714L23.912504 95.992714ZM28.600004 86.930214L15.70938 86.930214L15.70938 85.35209L23.068754 85.35209L19.27188 81.617714L19.27188 79.57084L22.725004 83.13334L28.600004 79.19584L28.600004 81.148964L23.83438 84.242714L24.89688 85.35209L28.600004 85.35209L28.600004 86.930214ZM17.537504 77.930214L15.70938 77.930214L15.70938 76.35209L17.537504 76.35209L17.537504 77.930214ZM28.600004 77.930214L19.27188 77.930214L19.27188 76.35209L28.600004 76.35209L28.600004 77.930214ZM25.600004 67.555214L25.80313 65.91459Q27.225004 66.305214 28.02188 67.35209Q28.818754 68.398964 28.818754 70.023964Q28.818754 72.07084 27.55313 73.273964Q26.287504 74.47709 24.006254 74.47709Q21.662504 74.47709 20.36563 73.273964Q19.05313 72.055214 19.05313 70.117714Q19.05313 68.242714 20.33438 67.055214Q21.600004 65.867714 23.912504 65.867714Q24.05313 65.867714 24.33438 65.88334L24.33438 72.836464Q25.881254 72.75834 26.693754 71.97709Q27.506254 71.180214 27.506254 70.023964Q27.506254 69.148964 27.05313 68.53959Q26.600004 67.91459 25.600004 67.555214ZM23.037504 72.75834L23.037504 67.53959Q21.86563 67.648964 21.27188 68.13334Q20.350004 68.898964 20.350004 70.10209Q20.350004 71.180214 21.08438 71.930214Q21.818754 72.66459 23.037504 72.75834ZM16.61563 70.148964L18.100004 71.148964L18.100004 72.961464L15.64688 71.055214L15.64688 69.367714L18.100004 67.398964L18.100004 69.19584L16.61563 70.148964ZM14.318755 70.66459Q14.27188 70.16459 14.225005 70.023964Q14.11563 69.555214 13.86563 69.53959Q13.662505 69.53959 13.52188 69.78959Q13.318755 70.16459 13.318755 70.961464Q13.318755 71.22709 13.36563 71.78959L12.537505 71.88334Q12.45938 71.53959 12.475005 70.617714Q12.475005 69.53959 12.818755 68.85209Q13.193755 68.10209 13.787505 68.07084Q14.662505 68.03959 14.86563 69.680214L15.30313 69.680214L15.30313 70.66459L14.318755 70.66459ZM28.600004 63.945835L19.27188 63.945835L19.27188 62.52396L20.568754 62.52396Q19.89688 62.08646 19.475004 61.36771Q19.05313 60.633335 19.05313 59.695835Q19.05313 58.664585 19.49063 58.008335Q19.912504 57.33646 20.693754 57.070835Q19.05313 55.96146 19.05313 54.18021Q19.05313 52.789585 19.83438 52.05521Q20.600004 51.30521 22.193754 51.30521L28.600004 51.30521L28.600004 52.86771L22.725004 52.86771Q21.77188 52.86771 21.350004 53.02396Q20.92813 53.18021 20.67813 53.58646Q20.42813 53.99271 20.42813 54.539585Q20.42813 55.52396 21.08438 56.18021Q21.74063 56.820835 23.17813 56.820835L28.600004 56.820835L28.600004 58.39896L22.537504 58.39896Q21.475004 58.39896 20.95938 58.789585Q20.42813 59.18021 20.42813 60.05521Q20.42813 60.727085 20.787504 61.289585Q21.131254 61.852085 21.80313 62.11771Q22.475004 62.36771 23.756254 62.36771L28.600004 62.36771L28.600004 63.945835ZM27.17813 41.49271L28.58438 41.258335Q28.725004 41.93021 28.725004 42.46146Q28.725004 43.320835 28.45938 43.80521Q28.17813 44.27396 27.74063 44.46146Q27.287504 44.64896 25.86563 44.64896L20.49063 44.64896L20.49063 45.820835L19.27188 45.820835L19.27188 44.64896L16.95938 44.64896L16.006254 43.08646L19.27188 43.08646L19.27188 41.49271L20.49063 41.49271L20.49063 43.08646L25.95938 43.08646Q26.631254 43.08646 26.83438 43.008335Q27.02188 42.914585 27.131254 42.727085Q27.24063 42.539585 27.24063 42.18021Q27.24063 41.93021 27.17813 41.49271ZM28.600004 39.945835L15.70938 39.945835L15.70938 38.36771L20.33438 38.36771Q19.05313 37.258335 19.05313 35.570835Q19.05313 34.539585 19.45938 33.77396Q19.86563 33.008335 20.600004 32.68021Q21.318754 32.33646 22.67813 32.33646L28.600004 32.33646L28.600004 33.93021L22.67813 33.93021Q21.49063 33.93021 20.95938 34.445835Q20.412504 34.96146 20.412504 35.89896Q20.412504 36.602085 20.787504 37.227085Q21.14688 37.83646 21.77188 38.102085Q22.39688 38.36771 23.49063 38.36771L28.600004 38.36771L28.600004 39.945835ZM21.100004 21.320835L19.27188 21.320835L19.27188 19.633335L20.70938 19.633335Q22.100004 19.633335 22.64688 19.945835Q24.05313 20.758335 24.225004 22.414585L28.600004 22.414585L28.600004 23.83646L27.225004 23.83646Q28.818754 24.914585 28.818754 26.789585Q28.818754 27.602085 28.506254 28.320835Q28.193754 29.039585 27.70938 29.39896Q27.225004 29.74271 26.52188 29.883335Q26.05313 29.977085 25.05313 29.977085L19.27188 29.977085L19.27188 28.39896L24.443754 28.39896Q25.693754 28.39896 26.11563 28.30521Q27.443754 27.99271 27.443754 26.477085Q27.443754 25.74271 27.08438 25.133335Q26.70938 24.508335 26.08438 24.258335Q25.45938 23.99271 24.27188 23.99271L19.27188 23.99271L19.27188 22.414585L23.55313 22.414585Q23.36563 21.30521 22.506254 20.74271Q22.14688 20.49271 21.100004 20.49271L21.100004 21.320835ZM17.05313 26.695835Q16.99063 26.195835 16.95938 26.05521Q16.80313 25.58646 16.45938 25.58646Q16.256254 25.570835 16.11563 25.820835Q15.912505 26.195835 15.912505 26.99271Q15.912505 27.27396 15.95938 27.820835L15.05313 27.914585Q14.99063 27.570835 14.99063 26.64896Q15.006255 25.570835 15.350005 24.883335Q15.70938 24.133335 16.381254 24.11771Q17.45938 24.070835 17.662504 25.71146L18.100004 25.71146L18.100004 26.695835L17.05313 26.695835Z" fill-rule="nonzero"/><path fill="#000000" d="M74.1 139.4323Q74.1 137.90105 74.4125 136.97917Q74.725 136.04167 75.33437 135.54167Q75.95937 135.04167 76.89687 135.04167Q77.58437 135.04167 78.1 135.32292Q78.63125 135.60417 78.975 136.13542Q79.31875 136.65105 79.50625 137.40105Q79.69375 138.15105 79.69375 139.4323Q79.69375 140.94792 79.38125 141.8698Q79.08437 142.79167 78.45937 143.3073Q77.85 143.8073 76.89687 143.8073Q75.6625 143.8073 74.94375 142.91667Q74.1 141.85417 74.1 139.4323ZM75.17812 139.4323Q75.17812 141.54167 75.67812 142.2448Q76.17812 142.94792 76.89687 142.94792Q77.63125 142.94792 78.11562 142.2448Q78.61562 141.54167 78.61562 139.4323Q78.61562 137.3073 78.11562 136.6198Q77.63125 135.91667 76.88125 135.91667Q76.1625 135.91667 75.725 136.52605Q75.17812 137.3073 75.17812 139.4323Z" fill-rule="nonzero"/><path fill="#000000" d="M74.1 111.15L75.20937 111.05625Q75.33437 111.86875 75.77187 112.275Q76.225 112.68125 76.86562 112.68125Q77.61562 112.68125 78.14687 112.10313Q78.67812 111.525 78.67812 110.5875Q78.67812 109.68125 78.1625 109.16563Q77.6625 108.63438 76.83437 108.63438Q76.33437 108.63438 75.9125 108.86875Q75.50625 109.10313 75.27187 109.4625L74.2875 109.3375L75.11562 104.93125L79.39687 104.93125L79.39687 105.93125L75.95937 105.93125L75.50625 108.24375Q76.27187 107.69688 77.11562 107.69688Q78.24062 107.69688 79.00625 108.47813Q79.7875 109.25938 79.7875 110.49375Q79.7875 111.65 79.11562 112.50938Q78.2875 113.54063 76.86562 113.54063Q75.69375 113.54063 74.94375 112.88438Q74.20937 112.22813 74.1 111.15Z" fill-rule="nonzero"/><path fill="#000000" d="M71.06875 83.13333L70.02187 83.13333L70.02187 76.41458Q69.63125 76.77396 69.00625 77.14896Q68.39687 77.50833 67.9125 77.68021L67.9125 76.66458Q68.7875 76.24271 69.44375 75.66458Q70.11562 75.07083 70.39687 74.50833L71.06875 74.50833L71.06875 83.13333ZM74.1 78.89896Q74.1 77.36771 74.4125 76.44583Q74.725 75.50833 75.33437 75.00833Q75.95937 74.50833 76.89687 74.50833Q77.58437 74.50833 78.1 74.78958Q78.63125 75.07083 78.975 75.60208Q79.31875 76.11771 79.50625 76.86771Q79.69375 77.61771 79.69375 78.89896Q79.69375 80.41458 79.38125 81.33646Q79.08437 82.25833 78.45937 82.77396Q77.85 83.27396 76.89687 83.27396Q75.6625 83.27396 74.94375 82.38333Q74.1 81.32083 74.1 78.89896ZM75.17812 78.89896Q75.17812 81.00833 75.67812 81.71146Q76.17812 82.41458 76.89687 82.41458Q77.63125 82.41458 78.11562 81.71146Q78.61562 81.00833 78.61562 78.89896Q78.61562 76.77396 78.11562 76.08646Q77.63125 75.38333 76.88125 75.38333Q76.1625 75.38333 75.725 75.99271Q75.17812 76.77396 75.17812 78.89896Z" fill-rule="nonzero"/><path fill="#000000" d="M71.06875 52.866665L70.02187 52.866665L70.02187 46.147915Q69.63125 46.50729 69.00625 46.88229Q68.39687 47.241665 67.9125 47.41354L67.9125 46.397915Q68.7875 45.97604 69.44375 45.397915Q70.11562 44.804165 70.39687 44.241665L71.06875 44.241665L71.06875 52.866665ZM74.1 50.616665L75.20937 50.522915Q75.33437 51.335415 75.77187 51.741665Q76.225 52.147915 76.86562 52.147915Q77.61562 52.147915 78.14687 51.56979Q78.67812 50.991665 78.67812 50.054165Q78.67812 49.147915 78.1625 48.63229Q77.6625 48.10104 76.83437 48.10104Q76.33437 48.10104 75.9125 48.335415Q75.50625 48.56979 75.27187 48.929165L74.2875 48.804165L75.11562 44.397915L79.39687 44.397915L79.39687 45.397915L75.95937 45.397915L75.50625 47.710415Q76.27187 47.16354 77.11562 47.16354Q78.24062 47.16354 79.00625 47.94479Q79.7875 48.72604 79.7875 49.960415Q79.7875 51.116665 79.11562 51.97604Q78.2875 53.00729 76.86562 53.00729Q75.69375 53.00729 74.94375 52.35104Q74.20937 51.69479 74.1 50.616665Z" fill-rule="nonzero"/><path fill="#000000" d="M72.64687 21.584375L72.64687 22.6L66.95937 22.6Q66.95937 22.225 67.08437 21.865625Q67.30312 21.2875 67.77187 20.725Q68.25625 20.1625 69.1625 19.428125Q70.56875 18.271875 71.05312 17.6Q71.55312 16.928125 71.55312 16.334375Q71.55312 15.709375 71.1 15.2875Q70.64687 14.85 69.92812 14.85Q69.1625 14.85 68.70937 15.303125Q68.25625 15.75625 68.24062 16.56875L67.1625 16.459375Q67.27187 15.240625 67.99062 14.615625Q68.725 13.975 69.95937 13.975Q71.19375 13.975 71.9125 14.6625Q72.63125 15.35 72.63125 16.365625Q72.63125 16.88125 72.4125 17.38125Q72.20937 17.865625 71.70937 18.428125Q71.225 18.975 70.1 19.928125Q69.14687 20.725 68.86562 21.021875Q68.6 21.303125 68.42812 21.584375L72.64687 21.584375ZM74.1 18.365625Q74.1 16.834375 74.4125 15.9125Q74.725 14.975 75.33437 14.475Q75.95937 13.975 76.89687 13.975Q77.58437 13.975 78.1 14.25625Q78.63125 14.5375 78.975 15.06875Q79.31875 15.584375 79.50625 16.334375Q79.69375 17.084375 79.69375 18.365625Q79.69375 19.88125 79.38125 20.803125Q79.08437 21.725 78.45937 22.240625Q77.85 22.740625 76.89687 22.740625Q75.6625 22.740625 74.94375 21.85Q74.1 20.7875 74.1 18.365625ZM75.17812 18.365625Q75.17812 20.475 75.67812 21.178125Q76.17812 21.88125 76.89687 21.88125Q77.63125 21.88125 78.11562 21.178125Q78.61562 20.475 78.61562 18.365625Q78.61562 16.240625 78.11562 15.553125Q77.63125 14.85 76.88125 14.85Q76.1625 14.85 75.725 15.459375Q75.17812 16.240625 75.17812 18.365625Z" fill-rule="nonzero"/><path stroke="#ff0000" stroke-width="4.0" stroke-linecap="butt" stroke-dasharray="13.0,9.0" d="M285.00488 212.9L320.00488 212.9" fill-rule="nonzero"/><path fill="#1a1a1a" d="M329.3955 219.4L329.3955 206.50937L334.25488 206.50937Q335.53613 206.50937 336.208 206.63437Q337.16113 206.79062 337.80176 207.24374Q338.44238 207.68124 338.833 208.49374Q339.22363 209.29062 339.22363 210.24374Q339.22363 211.88437 338.17676 213.025Q337.12988 214.16562 334.41113 214.16562L331.09863 214.16562L331.09863 219.4L329.3955 219.4ZM331.09863 212.63437L334.42676 212.63437Q336.083 212.63437 336.7705 212.025Q337.47363 211.41562 337.47363 210.29062Q337.47363 209.47812 337.06738 208.91562Q336.66113 208.3375 335.98926 208.15Q335.55176 208.04062 334.3955 208.04062L331.09863 208.04062L331.09863 212.63437ZM341.19238 219.4L341.19238 206.50937L342.7705 206.50937L342.7705 211.13437Q343.87988 209.85312 345.56738 209.85312Q346.59863 209.85312 347.36426 210.25937Q348.12988 210.66562 348.458 211.4Q348.80176 212.11874 348.80176 213.47812L348.80176 219.4L347.208 219.4L347.208 213.47812Q347.208 212.29062 346.69238 211.75937Q346.17676 211.2125 345.23926 211.2125Q344.53613 211.2125 343.91113 211.5875Q343.30176 211.94687 343.03613 212.57187Q342.7705 213.19687 342.7705 214.29062L342.7705 219.4L341.19238 219.4ZM359.81738 211.9L359.81738 210.07187L361.50488 210.07187L361.50488 211.50937Q361.50488 212.9 361.19238 213.44687Q360.37988 214.85312 358.72363 215.025L358.72363 219.4L357.30176 219.4L357.30176 218.025Q356.22363 219.61874 354.34863 219.61874Q353.53613 219.61874 352.81738 219.30624Q352.09863 218.99374 351.73926 218.50937Q351.3955 218.025 351.25488 217.32187Q351.16113 216.85312 351.16113 215.85312L351.16113 210.07187L352.73926 210.07187L352.73926 215.24374Q352.73926 216.49374 352.833 216.91562Q353.1455 218.24374 354.66113 218.24374Q355.3955 218.24374 356.00488 217.88437Q356.62988 217.50937 356.87988 216.88437Q357.1455 216.25937 357.1455 215.07187L357.1455 210.07187L358.72363 210.07187L358.72363 214.35312Q359.833 214.16562 360.3955 213.30624Q360.6455 212.94687 360.6455 211.9L359.81738 211.9ZM364.22363 214.72812Q364.22363 216.4625 365.00488 217.41562Q365.75488 218.30624 366.97363 218.30624Q368.208 218.30624 368.94238 217.41562Q369.72363 216.4625 369.72363 214.68124Q369.72363 212.99374 368.92676 212.05624Q368.19238 211.16562 366.97363 211.16562Q365.73926 211.16562 365.00488 212.05624Q364.22363 212.99374 364.22363 214.72812ZM371.55176 211.68124L371.55176 209.8375L373.25488 209.8375L373.25488 211.29062Q373.25488 212.38437 372.92676 212.9625Q372.48926 213.7125 371.34863 214.35312Q371.34863 214.4625 371.34863 214.60312Q371.34863 217.86874 369.23926 219.04062Q368.208 219.61874 366.97363 219.61874Q364.97363 219.61874 363.80176 218.35312Q362.59863 217.05624 362.59863 214.72812Q362.59863 212.13437 364.05176 210.88437Q365.25488 209.85312 366.97363 209.85312Q368.91113 209.85312 370.12988 211.11874Q371.05176 212.07187 371.2705 213.5875Q371.87988 213.2125 372.12988 212.82187Q372.3955 212.41562 372.37988 211.68124L371.55176 211.68124ZM375.19238 219.4L375.19238 210.07187L376.61426 210.07187L376.61426 211.4Q377.6455 209.85312 379.583 209.85312Q380.42676 209.85312 381.12988 210.16562Q381.84863 210.4625 382.19238 210.9625Q382.55176 211.44687 382.69238 212.11874Q382.7705 212.55624 382.7705 213.66562L382.7705 219.4L381.19238 219.4L381.19238 213.72812Q381.19238 212.75937 381.00488 212.275Q380.833 211.79062 380.34863 211.50937Q379.87988 211.22812 379.25488 211.22812Q378.23926 211.22812 377.50488 211.86874Q376.7705 212.50937 376.7705 214.30624L376.7705 219.4L375.19238 219.4ZM384.8955 220.18124L386.44238 220.4Q386.53613 221.11874 386.97363 221.44687Q387.56738 221.88437 388.583 221.88437Q389.67676 221.88437 390.2705 221.43124Q390.87988 220.99374 391.083 220.2125Q391.208 219.72812 391.208 218.18124Q390.16113 219.4 388.61426 219.4Q386.69238 219.4 385.62988 218.00937Q384.583 216.61874 384.583 214.68124Q384.583 213.3375 385.06738 212.2125Q385.55176 211.0875 386.47363 210.47812Q387.3955 209.85312 388.62988 209.85312Q390.28613 209.85312 391.34863 211.19687L391.34863 210.07187L392.81738 210.07187L392.81738 218.13437Q392.81738 220.32187 392.36426 221.22812Q391.92676 222.13437 390.958 222.65Q390.00488 223.18124 388.59863 223.18124Q386.92676 223.18124 385.8955 222.43124Q384.86426 221.68124 384.8955 220.18124ZM386.208 214.57187Q386.208 216.4 386.94238 217.24374Q387.67676 218.0875 388.7705 218.0875Q389.86426 218.0875 390.59863 217.25937Q391.333 216.41562 391.333 214.61874Q391.333 212.9 390.56738 212.04062Q389.81738 211.16562 388.73926 211.16562Q387.69238 211.16562 386.94238 212.025Q386.208 212.88437 386.208 214.57187ZM400.19238 222.97812L400.19238 210.07187L401.62988 210.07187L401.62988 211.275Q402.1455 210.57187 402.78613 210.2125Q403.42676 209.85312 404.333 209.85312Q405.53613 209.85312 406.44238 210.47812Q407.36426 211.0875 407.833 212.2125Q408.30176 213.32187 408.30176 214.66562Q408.30176 216.0875 407.78613 217.24374Q407.2705 218.38437 406.28613 219.00937Q405.30176 219.61874 404.22363 219.61874Q403.44238 219.61874 402.80176 219.29062Q402.17676 218.94687 401.7705 218.43124L401.7705 222.97812L400.19238 222.97812ZM401.62988 214.79062Q401.62988 216.5875 402.34863 217.44687Q403.083 218.30624 404.11426 218.30624Q405.17676 218.30624 405.92676 217.41562Q406.67676 216.525 406.67676 214.65Q406.67676 212.86874 405.94238 211.97812Q405.208 211.0875 404.19238 211.0875Q403.17676 211.0875 402.3955 212.04062Q401.62988 212.97812 401.62988 214.79062ZM410.19238 219.4L410.19238 206.50937L411.7705 206.50937L411.7705 211.13437Q412.87988 209.85312 414.56738 209.85312Q415.59863 209.85312 416.36426 210.25937Q417.12988 210.66562 417.458 211.4Q417.80176 212.11874 417.80176 213.47812L417.80176 219.4L416.208 219.4L416.208 213.47812Q416.208 212.29062 415.69238 211.75937Q415.17676 211.2125 414.23926 211.2125Q413.53613 211.2125 412.91113 211.5875Q412.30176 211.94687 412.03613 212.57187Q411.7705 213.19687 411.7705 214.29062L411.7705 219.4L410.19238 219.4ZM426.28613 218.24374Q425.41113 218.99374 424.583 219.30624Q423.7705 219.61874 422.84863 219.61874Q421.30176 219.61874 420.47363 218.86874Q419.66113 218.10312 419.66113 216.93124Q419.66113 216.25937 419.97363 215.69687Q420.28613 215.11874 420.78613 214.775Q421.28613 214.43124 421.92676 214.25937Q422.3955 214.13437 423.333 214.025Q425.23926 213.79062 426.1455 213.47812Q426.16113 213.15 426.16113 213.05624Q426.16113 212.10312 425.708 211.69687Q425.09863 211.16562 423.91113 211.16562Q422.78613 211.16562 422.25488 211.55624Q421.72363 211.94687 421.47363 212.94687L419.92676 212.72812Q420.1455 211.72812 420.61426 211.11874Q421.09863 210.50937 422.00488 210.18124Q422.92676 209.85312 424.1455 209.85312Q425.333 209.85312 426.083 210.13437Q426.833 210.41562 427.17676 210.85312Q427.53613 211.275 427.67676 211.91562Q427.75488 212.32187 427.75488 213.38437L427.75488 215.49374Q427.75488 217.69687 427.84863 218.29062Q427.958 218.86874 428.25488 219.4L426.59863 219.4Q426.34863 218.9 426.28613 218.24374ZM426.1455 214.7125Q425.28613 215.07187 423.56738 215.30624Q422.59863 215.44687 422.19238 215.63437Q421.78613 215.80624 421.56738 216.15Q421.34863 216.47812 421.34863 216.9Q421.34863 217.525 421.81738 217.94687Q422.30176 218.36874 423.22363 218.36874Q424.1455 218.36874 424.84863 217.97812Q425.56738 217.57187 425.8955 216.88437Q426.1455 216.3375 426.1455 215.29062L426.1455 214.7125ZM423.083 208.9L424.25488 206.44687L426.31738 206.44687L424.3955 208.9L423.083 208.9ZM430.19238 222.97812L430.19238 210.07187L431.62988 210.07187L431.62988 211.275Q432.1455 210.57187 432.78613 210.2125Q433.42676 209.85312 434.333 209.85312Q435.53613 209.85312 436.44238 210.47812Q437.36426 211.0875 437.833 212.2125Q438.30176 213.32187 438.30176 214.66562Q438.30176 216.0875 437.78613 217.24374Q437.2705 218.38437 436.28613 219.00937Q435.30176 219.61874 434.22363 219.61874Q433.44238 219.61874 432.80176 219.29062Q432.17676 218.94687 431.7705 218.43124L431.7705 222.97812L430.19238 222.97812ZM431.62988 214.79062Q431.62988 216.5875 432.34863 217.44687Q433.083 218.30624 434.11426 218.30624Q435.17676 218.30624 435.92676 217.41562Q436.67676 216.525 436.67676 214.65Q436.67676 212.86874 435.94238 211.97812Q435.208 211.0875 434.19238 211.0875Q433.17676 211.0875 432.3955 212.04062Q431.62988 212.97812 431.62988 214.79062ZM443.97363 219.4L448.92676 206.50937L450.7705 206.50937L456.03613 219.4L454.09863 219.4L452.59863 215.49374L447.208 215.49374L445.78613 219.4L443.97363 219.4ZM447.69238 214.10312L452.06738 214.10312L450.72363 210.54062Q450.09863 208.91562 449.80176 207.86874Q449.56738 209.10312 449.11426 210.32187L447.69238 214.10312ZM456.31738 219.4L456.31738 206.50937L458.03613 206.50937L458.03613 212.9L464.42676 206.50937L466.73926 206.50937L461.333 211.72812L466.97363 219.4L464.72363 219.4L460.1455 212.88437L458.03613 214.93124L458.03613 219.4L456.31738 219.4ZM466.97363 219.4L471.92676 206.50937L473.7705 206.50937L479.03613 219.4L477.09863 219.4L475.59863 215.49374L470.208 215.49374L468.78613 219.4L466.97363 219.4ZM470.69238 214.10312L475.06738 214.10312L473.72363 210.54062Q473.09863 208.91562 472.80176 207.86874Q472.56738 209.10312 472.11426 210.32187L470.69238 214.10312ZM487.84863 206.50937L489.55176 206.50937L489.55176 213.9625Q489.55176 215.9 489.11426 217.04062Q488.67676 218.18124 487.5205 218.9Q486.37988 219.61874 484.5205 219.61874Q482.708 219.61874 481.55176 218.99374Q480.41113 218.36874 479.91113 217.19687Q479.42676 216.00937 479.42676 213.9625L479.42676 206.50937L481.12988 206.50937L481.12988 213.94687Q481.12988 215.63437 481.44238 216.43124Q481.75488 217.2125 482.50488 217.65Q483.2705 218.0875 484.36426 218.0875Q486.25488 218.0875 487.05176 217.22812Q487.84863 216.36874 487.84863 213.94687L487.84863 206.50937ZM495.67676 219.4L495.67676 208.04062L491.42676 208.04062L491.42676 206.50937L501.6455 206.50937L501.6455 208.04062L497.37988 208.04062L497.37988 219.4L495.67676 219.4ZM502.97363 219.4L507.92676 206.50937L509.7705 206.50937L515.03613 219.4L513.09863 219.4L511.59863 215.49374L506.208 215.49374L504.78613 219.4L502.97363 219.4ZM506.69238 214.10312L511.06738 214.10312L509.72363 210.54062Q509.09863 208.91562 508.80176 207.86874Q508.56738 209.10312 508.11426 210.32187L506.69238 214.10312ZM523.84863 206.50937L525.55176 206.50937L525.55176 213.9625Q525.55176 215.9 525.11426 217.04062Q524.67676 218.18124 523.5205 218.9Q522.3799 219.61874 520.5205 219.61874Q518.708 219.61874 517.55176 218.99374Q516.41113 218.36874 515.91113 217.19687Q515.42676 216.00937 515.42676 213.9625L515.42676 206.50937L517.1299 206.50937L517.1299 213.94687Q517.1299 215.63437 517.4424 216.43124Q517.7549 217.2125 518.5049 217.65Q519.2705 218.0875 520.36426 218.0875Q522.2549 218.0875 523.05176 217.22812Q523.84863 216.36874 523.84863 213.94687L523.84863 206.50937ZM531.67676 219.4L531.67676 208.04062L527.42676 208.04062L527.42676 206.50937L537.6455 206.50937L537.6455 208.04062L533.3799 208.04062L533.3799 219.4L531.67676 219.4ZM539.8799 213.11874Q539.8799 209.91562 541.59863 208.10312Q543.3174 206.29062 546.05176 206.29062Q547.833 206.29062 549.2549 207.15Q550.6924 207.99374 551.4424 209.525Q552.1924 211.04062 552.1924 212.97812Q552.1924 214.93124 551.3955 216.47812Q550.61426 218.025 549.16113 218.82187Q547.708 219.61874 546.03613 219.61874Q544.22363 219.61874 542.78613 218.74374Q541.34863 217.86874 540.61426 216.35312Q539.8799 214.82187 539.8799 213.11874ZM541.6299 213.15Q541.6299 215.47812 542.8799 216.82187Q544.1455 218.16562 546.0205 218.16562Q547.958 218.16562 549.1924 216.80624Q550.4424 215.44687 550.4424 212.9625Q550.4424 211.4 549.91113 210.22812Q549.3799 209.04062 548.34863 208.4Q547.333 207.75937 546.05176 207.75937Q544.23926 207.75937 542.92676 209.00937Q541.6299 210.24374 541.6299 213.15Z" fill-rule="nonzero"/><path stroke="#0000ff" stroke-width="4.0" stroke-linecap="butt" d="M569.0049 212.9L581.0049 212.9" fill-rule="nonzero"/><path fill="#1a1a1a" d="M590.3955 219.4L590.3955 206.50937L595.2549 206.50937Q596.53613 206.50937 597.208 206.63437Q598.16113 206.79062 598.80176 207.24374Q599.4424 207.68124 599.833 208.49374Q600.22363 209.29062 600.22363 210.24374Q600.22363 211.88437 599.17676 213.025Q598.1299 214.16562 595.41113 214.16562L592.09863 214.16562L592.09863 219.4L590.3955 219.4ZM592.09863 212.63437L595.42676 212.63437Q597.083 212.63437 597.7705 212.025Q598.47363 211.41562 598.47363 210.29062Q598.47363 209.47812 598.0674 208.91562Q597.66113 208.3375 596.98926 208.15Q596.55176 208.04062 595.3955 208.04062L592.09863 208.04062L592.09863 212.63437ZM602.1924 219.4L602.1924 206.50937L603.7705 206.50937L603.7705 211.13437Q604.8799 209.85312 606.5674 209.85312Q607.59863 209.85312 608.36426 210.25937Q609.1299 210.66562 609.458 211.4Q609.80176 212.11874 609.80176 213.47812L609.80176 219.4L608.208 219.4L608.208 213.47812Q608.208 212.29062 607.6924 211.75937Q607.17676 211.2125 606.23926 211.2125Q605.53613 211.2125 604.91113 211.5875Q604.30176 211.94687 604.03613 212.57187Q603.7705 213.19687 603.7705 214.29062L603.7705 219.4L602.1924 219.4ZM620.8174 211.9L620.8174 210.07187L622.5049 210.07187L622.5049 211.50937Q622.5049 212.9 622.1924 213.44687Q621.3799 214.85312 619.72363 215.025L619.72363 219.4L618.30176 219.4L618.30176 218.025Q617.22363 219.61874 615.34863 219.61874Q614.53613 219.61874 613.8174 219.30624Q613.09863 218.99374 612.73926 218.50937Q612.3955 218.025 612.2549 217.32187Q612.16113 216.85312 612.16113 215.85312L612.16113 210.07187L613.73926 210.07187L613.73926 215.24374Q613.73926 216.49374 613.833 216.91562Q614.1455 218.24374 615.66113 218.24374Q616.3955 218.24374 617.0049 217.88437Q617.6299 217.50937 617.8799 216.88437Q618.1455 216.25937 618.1455 215.07187L618.1455 210.07187L619.72363 210.07187L619.72363 214.35312Q620.833 214.16562 621.3955 213.30624Q621.6455 212.94687 621.6455 211.9L620.8174 211.9ZM625.22363 214.72812Q625.22363 216.4625 626.0049 217.41562Q626.7549 218.30624 627.97363 218.30624Q629.208 218.30624 629.9424 217.41562Q630.72363 216.4625 630.72363 214.68124Q630.72363 212.99374 629.92676 212.05624Q629.1924 211.16562 627.97363 211.16562Q626.73926 211.16562 626.0049 212.05624Q625.22363 212.99374 625.22363 214.72812ZM632.55176 211.68124L632.55176 209.8375L634.2549 209.8375L634.2549 211.29062Q634.2549 212.38437 633.92676 212.9625Q633.48926 213.7125 632.34863 214.35312Q632.34863 214.4625 632.34863 214.60312Q632.34863 217.86874 630.23926 219.04062Q629.208 219.61874 627.97363 219.61874Q625.97363 219.61874 624.80176 218.35312Q623.59863 217.05624 623.59863 214.72812Q623.59863 212.13437 625.05176 210.88437Q626.2549 209.85312 627.97363 209.85312Q629.91113 209.85312 631.1299 211.11874Q632.05176 212.07187 632.2705 213.5875Q632.8799 213.2125 633.1299 212.82187Q633.3955 212.41562 633.3799 211.68124L632.55176 211.68124ZM636.1924 219.4L636.1924 210.07187L637.61426 210.07187L637.61426 211.4Q638.6455 209.85312 640.583 209.85312Q641.42676 209.85312 642.1299 210.16562Q642.84863 210.4625 643.1924 210.9625Q643.55176 211.44687 643.6924 212.11874Q643.7705 212.55624 643.7705 213.66562L643.7705 219.4L642.1924 219.4L642.1924 213.72812Q642.1924 212.75937 642.0049 212.275Q641.833 211.79062 641.34863 211.50937Q640.8799 211.22812 640.2549 211.22812Q639.23926 211.22812 638.5049 211.86874Q637.7705 212.50937 637.7705 214.30624L637.7705 219.4L636.1924 219.4ZM645.8955 220.18124L647.4424 220.4Q647.53613 221.11874 647.97363 221.44687Q648.5674 221.88437 649.583 221.88437Q650.67676 221.88437 651.2705 221.43124Q651.8799 220.99374 652.083 220.2125Q652.208 219.72812 652.208 218.18124Q651.16113 219.4 649.61426 219.4Q647.6924 219.4 646.6299 218.00937Q645.583 216.61874 645.583 214.68124Q645.583 213.3375 646.0674 212.2125Q646.55176 211.0875 647.47363 210.47812Q648.3955 209.85312 649.6299 209.85312Q651.28613 209.85312 652.34863 211.19687L652.34863 210.07187L653.8174 210.07187L653.8174 218.13437Q653.8174 220.32187 653.36426 221.22812Q652.92676 222.13437 651.958 222.65Q651.0049 223.18124 649.59863 223.18124Q647.92676 223.18124 646.8955 222.43124Q645.86426 221.68124 645.8955 220.18124ZM647.208 214.57187Q647.208 216.4 647.9424 217.24374Q648.67676 218.0875 649.7705 218.0875Q650.86426 218.0875 651.59863 217.25937Q652.333 216.41562 652.333 214.61874Q652.333 212.9 651.5674 212.04062Q650.8174 211.16562 649.73926 211.16562Q648.6924 211.16562 647.9424 212.025Q647.208 212.88437 647.208 214.57187ZM661.1924 222.97812L661.1924 210.07187L662.6299 210.07187L662.6299 211.275Q663.1455 210.57187 663.78613 210.2125Q664.42676 209.85312 665.333 209.85312Q666.53613 209.85312 667.4424 210.47812Q668.36426 211.0875 668.833 212.2125Q669.30176 213.32187 669.30176 214.66562Q669.30176 216.0875 668.78613 217.24374Q668.2705 218.38437 667.28613 219.00937Q666.30176 219.61874 665.22363 219.61874Q664.4424 219.61874 663.80176 219.29062Q663.17676 218.94687 662.7705 218.43124L662.7705 222.97812L661.1924 222.97812ZM662.6299 214.79062Q662.6299 216.5875 663.34863 217.44687Q664.083 218.30624 665.11426 218.30624Q666.17676 218.30624 666.92676 217.41562Q667.67676 216.525 667.67676 214.65Q667.67676 212.86874 666.9424 211.97812Q666.208 211.0875 665.1924 211.0875Q664.17676 211.0875 663.3955 212.04062Q662.6299 212.97812 662.6299 214.79062ZM671.1924 219.4L671.1924 206.50937L672.7705 206.50937L672.7705 211.13437Q673.8799 209.85312 675.5674 209.85312Q676.59863 209.85312 677.36426 210.25937Q678.1299 210.66562 678.458 211.4Q678.80176 212.11874 678.80176 213.47812L678.80176 219.4L677.208 219.4L677.208 213.47812Q677.208 212.29062 676.6924 211.75937Q676.17676 211.2125 675.23926 211.2125Q674.53613 211.2125 673.91113 211.5875Q673.30176 211.94687 673.03613 212.57187Q672.7705 213.19687 672.7705 214.29062L672.7705 219.4L671.1924 219.4ZM687.28613 218.24374Q686.41113 218.99374 685.583 219.30624Q684.7705 219.61874 683.84863 219.61874Q682.30176 219.61874 681.47363 218.86874Q680.66113 218.10312 680.66113 216.93124Q680.66113 216.25937 680.97363 215.69687Q681.28613 215.11874 681.78613 214.775Q682.28613 214.43124 682.92676 214.25937Q683.3955 214.13437 684.333 214.025Q686.23926 213.79062 687.1455 213.47812Q687.16113 213.15 687.16113 213.05624Q687.16113 212.10312 686.708 211.69687Q686.09863 211.16562 684.91113 211.16562Q683.78613 211.16562 683.2549 211.55624Q682.72363 211.94687 682.47363 212.94687L680.92676 212.72812Q681.1455 211.72812 681.61426 211.11874Q682.09863 210.50937 683.0049 210.18124Q683.92676 209.85312 685.1455 209.85312Q686.333 209.85312 687.083 210.13437Q687.833 210.41562 688.17676 210.85312Q688.53613 211.275 688.67676 211.91562Q688.7549 212.32187 688.7549 213.38437L688.7549 215.49374Q688.7549 217.69687 688.84863 218.29062Q688.958 218.86874 689.2549 219.4L687.59863 219.4Q687.34863 218.9 687.28613 218.24374ZM687.1455 214.7125Q686.28613 215.07187 684.5674 215.30624Q683.59863 215.44687 683.1924 215.63437Q682.78613 215.80624 682.5674 216.15Q682.34863 216.47812 682.34863 216.9Q682.34863 217.525 682.8174 217.94687Q683.30176 218.36874 684.22363 218.36874Q685.1455 218.36874 685.84863 217.97812Q686.5674 217.57187 686.8955 216.88437Q687.1455 216.3375 687.1455 215.29062L687.1455 214.7125ZM684.083 208.9L685.2549 206.44687L687.3174 206.44687L685.3955 208.9L684.083 208.9ZM691.1924 222.97812L691.1924 210.07187L692.6299 210.07187L692.6299 211.275Q693.1455 210.57187 693.78613 210.2125Q694.42676 209.85312 695.333 209.85312Q696.53613 209.85312 697.4424 210.47812Q698.36426 211.0875 698.833 212.2125Q699.30176 213.32187 699.30176 214.66562Q699.30176 216.0875 698.78613 217.24374Q698.2705 218.38437 697.28613 219.00937Q696.30176 219.61874 695.22363 219.61874Q694.4424 219.61874 693.80176 219.29062Q693.17676 218.94687 692.7705 218.43124L692.7705 222.97812L691.1924 222.97812ZM692.6299 214.79062Q692.6299 216.5875 693.34863 217.44687Q694.083 218.30624 695.11426 218.30624Q696.17676 218.30624 696.92676 217.41562Q697.67676 216.525 697.67676 214.65Q697.67676 212.86874 696.9424 211.97812Q696.208 211.0875 695.1924 211.0875Q694.17676 211.0875 693.3955 212.04062Q692.6299 212.97812 692.6299 214.79062ZM712.1455 208.68124L709.09863 208.68124L709.09863 207.525L712.1455 207.525L712.1455 206.50937L713.708 206.50937L713.708 207.525L714.98926 207.525L714.98926 208.68124L713.708 208.68124L713.708 219.4L712.2549 219.4L712.2549 218.22812Q711.36426 219.61874 709.6299 219.61874Q708.5205 219.61874 707.583 219.00937Q706.6455 218.38437 706.1299 217.29062Q705.61426 216.18124 705.61426 214.74374Q705.61426 213.3375 706.083 212.2125Q706.55176 211.07187 707.47363 210.4625Q708.41113 209.85312 709.5674 209.85312Q710.41113 209.85312 711.0674 210.2125Q711.72363 210.57187 712.1455 211.13437L712.1455 208.68124ZM707.23926 214.74374Q707.23926 216.54062 707.98926 217.43124Q708.7549 218.30624 709.78613 218.30624Q710.8174 218.30624 711.53613 217.4625Q712.2705 216.61874 712.2705 214.86874Q712.2705 212.9625 711.53613 212.07187Q710.80176 211.16562 709.72363 211.16562Q708.66113 211.16562 707.9424 212.025Q707.23926 212.88437 707.23926 214.74374ZM722.583 216.4L724.22363 216.60312Q723.833 218.025 722.78613 218.82187Q721.73926 219.61874 720.11426 219.61874Q718.0674 219.61874 716.86426 218.35312Q715.66113 217.0875 715.66113 214.80624Q715.66113 212.4625 716.86426 211.16562Q718.083 209.85312 720.0205 209.85312Q721.8955 209.85312 723.083 211.13437Q724.2705 212.4 724.2705 214.7125Q724.2705 214.85312 724.2549 215.13437L717.30176 215.13437Q717.3799 216.68124 718.16113 217.49374Q718.958 218.30624 720.11426 218.30624Q720.98926 218.30624 721.59863 217.85312Q722.22363 217.4 722.583 216.4ZM717.3799 213.8375L722.59863 213.8375Q722.48926 212.66562 722.0049 212.07187Q721.23926 211.15 720.03613 211.15Q718.958 211.15 718.208 211.88437Q717.47363 212.61874 717.3799 213.8375ZM719.98926 207.41562L718.98926 208.9L717.17676 208.9L719.083 206.44687L720.7705 206.44687L722.73926 208.9L720.9424 208.9L719.98926 207.41562ZM720.7705 205.80624L719.5049 205.80624L717.47363 203.3375L719.583 203.3375L720.7705 205.80624ZM730.1299 219.4L733.55176 214.54062L730.3955 210.07187L732.36426 210.07187L733.80176 212.25937Q734.208 212.88437 734.458 213.30624Q734.833 212.7125 735.16113 212.275L736.73926 210.07187L738.6299 210.07187L735.3955 214.4625L738.8799 219.4L736.92676 219.4L735.0205 216.49374L734.5049 215.7125L732.05176 219.4L730.1299 219.4ZM745.30176 219.4L745.30176 218.025Q744.22363 219.61874 742.34863 219.61874Q741.5205 219.61874 740.80176 219.30624Q740.083 218.97812 739.73926 218.50937Q739.3955 218.025 739.2549 217.32187Q739.16113 216.85312 739.16113 215.85312L739.16113 210.07187L740.73926 210.07187L740.73926 215.24374Q740.73926 216.47812 740.833 216.91562Q740.98926 217.54062 741.47363 217.9Q741.958 218.24374 742.66113 218.24374Q743.3799 218.24374 744.0049 217.88437Q744.6299 217.525 744.8799 216.9Q745.1455 216.25937 745.1455 215.07187L745.1455 210.07187L746.72363 210.07187L746.72363 219.4L745.30176 219.4ZM755.28613 218.24374Q754.41113 218.99374 753.583 219.30624Q752.7705 219.61874 751.84863 219.61874Q750.30176 219.61874 749.47363 218.86874Q748.66113 218.10312 748.66113 216.93124Q748.66113 216.25937 748.97363 215.69687Q749.28613 215.11874 749.78613 214.775Q750.28613 214.43124 750.92676 214.25937Q751.3955 214.13437 752.333 214.025Q754.23926 213.79062 755.1455 213.47812Q755.16113 213.15 755.16113 213.05624Q755.16113 212.10312 754.708 211.69687Q754.09863 211.16562 752.91113 211.16562Q751.78613 211.16562 751.2549 211.55624Q750.72363 211.94687 750.47363 212.94687L748.92676 212.72812Q749.1455 211.72812 749.61426 211.11874Q750.09863 210.50937 751.0049 210.18124Q751.92676 209.85312 753.1455 209.85312Q754.333 209.85312 755.083 210.13437Q755.833 210.41562 756.17676 210.85312Q756.53613 211.275 756.67676 211.91562Q756.7549 212.32187 756.7549 213.38437L756.7549 215.49374Q756.7549 217.69687 756.84863 218.29062Q756.958 218.86874 757.2549 219.4L755.59863 219.4Q755.34863 218.9 755.28613 218.24374ZM755.1455 214.7125Q754.28613 215.07187 752.5674 215.30624Q751.59863 215.44687 751.1924 215.63437Q750.78613 215.80624 750.5674 216.15Q750.34863 216.47812 750.34863 216.9Q750.34863 217.525 750.8174 217.94687Q751.30176 218.36874 752.22363 218.36874Q753.1455 218.36874 753.84863 217.97812Q754.5674 217.57187 754.8955 216.88437Q755.1455 216.3375 755.1455 215.29062L755.1455 214.7125ZM752.98926 207.41562L751.98926 208.9L750.17676 208.9L752.083 206.44687L753.7705 206.44687L755.73926 208.9L753.9424 208.9L752.98926 207.41562ZM753.2549 203.3375L755.3799 203.3375L753.34863 205.80624L752.0674 205.80624L753.2549 203.3375ZM762.6455 217.97812L762.8799 219.38437Q762.208 219.525 761.67676 219.525Q760.8174 219.525 760.333 219.25937Q759.86426 218.97812 759.67676 218.54062Q759.48926 218.0875 759.48926 216.66562L759.48926 211.29062L758.3174 211.29062L758.3174 210.07187L759.48926 210.07187L759.48926 207.75937L761.05176 206.80624L761.05176 210.07187L762.6455 210.07187L762.6455 211.29062L761.05176 211.29062L761.05176 216.75937Q761.05176 217.43124 761.1299 217.63437Q761.22363 217.82187 761.41113 217.93124Q761.59863 218.04062 761.958 218.04062Q762.208 218.04062 762.6455 217.97812Z" fill-rule="nonzero"/></svg>