<svg version="1.1" viewBox="0.0 0.0 1038.0 232.0" fill="none" stroke="none" stroke-linecap="square" stroke-miterlimit="10" width="1038" height="232" xmlns:xlink="http://www.w3.org/1999/xlink" xmlns="http://www.w3.org/2000/svg"><path fill="#ffffff" d="M0 0L1038.0 0L1038.0 232.0L0 232.0L0 0Z" fill-rule="nonzero"/><path stroke="#333333" stroke-width="1.0" stroke-linecap="butt" d="M75.5 154.5L1026.5 154.5" fill-rule="nonzero"/><path stroke="#cccccc" stroke-width="1.0" stroke-linecap="butt" d="M75.5 120.5L1026.5 120.5" fill-rule="nonzero"/><path stroke="#cccccc" stroke-width="1.0" stroke-linecap="butt" d="M75.5 86.5L1026.5 86.5" fill-rule="nonzero"/><path stroke="#cccccc" stroke-width="1.0" stroke-linecap="butt" d="M75.5 52.5L1026.5 52.5" fill-rule="nonzero"/><path stroke="#cccccc" stroke-width="1.0" stroke-linecap="butt" d="M75.5 18.5L1026.5 18.5" fill-rule="nonzero"/><clipPath id="id_0"><path d="M75.6 18.6L1026.4 18.6L1026.4 154.66667L75.6 154.66667L75.6 18.6Z" clip-rule="nonzero"/></clipPath><path stroke="#ff0000" stroke-width="2.0" stroke-linecap="butt" stroke-dasharray="2.0,3.0" clip-path="url(#id_0)" d="M88.80556 141.06L115.21667 141.06L141.62778 134.25667L168.0389 113.846664L194.45 127.45333L220.86111 120.65L247.27222 141.06L273.68332 134.25667L300.09445 120.65L326.50555 113.846664L352.91666 141.06L379.3278 141.06L405.7389 147.86333L432.15 127.45333L458.5611 134.25667L484.97223 134.25667L511.38333 134.25667L537.79443 134.25667L564.20557 134.25667L590.61664 141.06L617.0278 141.06L643.4389 141.06L669.85 141.06L696.2611 141.06L722.67224 141.06L749.0833 100.24L775.49445 86.63333L801.9056 141.06L828.31665 120.65L854.7278 86.63333L881.1389 141.06L907.55 134.25667L933.9611 141.06L960.3722 127.45333L986.7833 141.06L1013.19446 141.06" fill-rule="nonzero"/><path stroke="#0000ff" stroke-width="2.0" stroke-linecap="butt" clip-path="url(#id_0)" d="M88.80556 147.86333L115.21667 147.86333L141.62778 147.86333L168.0389 134.25667L194.45 147.86333L220.86111 147.86333L247.27222 93.43667L273.68332 113.846664L300.09445 147.86333L326.50555 147.86333L352.91666 113.846664L379.3278 113.846664L405.7389 147.86333L432.15 120.65L458.5611 147.86333L484.97223 147.86333L511.38333 32.206665L537.79443 141.06L564.20557 141.06L590.61664 113.846664L617.0278 134.25667L643.4389 147.86333L669.85 113.846664L696.2611 147.86333L722.67224 127.45333L749.0833 134.25667L775.49445 127.45333L801.9056 127.45333L828.31665 113.846664L854.7278 100.24L881.1389 147.86333L907.55 107.043335L933.9611 79.83L960.3722 107.043335L986.7833 120.65L1013.19446 134.25667" fill-rule="nonzero"/><path fill="#000000" fill-opacity="0.0" clip-path="url(#id_0)" d="M91.80556 141.06C91.80556 142.71686 90.46241 144.06 88.80556 144.06C87.148705 144.06 85.80556 142.71686 85.80556 141.06C85.80556 139.40315 87.148705 138.06 88.80556 138.06C90.46241 138.06 91.80556 139.40315 91.80556 141.06Z" fill-rule="nonzero"/><path fill="#000000" fill-opacity="0.0" clip-path="url(#id_0)" d="M118.21667 141.06C118.21667 142.71686 116.87352 144.06 115.21667 144.06C113.559814 144.06 112.21667 142.71686 112.21667 141.06C112.21667 139.40315 113.559814 138.06 115.21667 138.06C116.87352 138.06 118.21667 139.40315 118.21667 141.06Z" fill-rule="nonzero"/><path fill="#000000" fill-opacity="0.0" clip-path="url(#id_0)" d="M144.62778 134.25667C144.62778 135.91353 143.28464 137.25667 141.62778 137.25667C139.97092 137.25667 138.62778 135.91353 138.62778 134.25667C138.62778 132.59981 139.97092 131.25667 141.62778 131.25667C143.28464 131.25667 144.62778 132.59981 144.62778 134.25667Z" fill-rule="nonzero"/><path fill="#000000" fill-opacity="0.0" clip-path="url(#id_0)" d="M171.0389 113.846664C171.0389 115.50352 169.69574 116.846664 168.0389 116.846664C166.38203 116.846664 165.0389 115.50352 165.0389 113.846664C165.0389 112.18981 166.38203 110.846664 168.0389 110.846664C169.69574 110.846664 171.0389 112.18981 171.0389 113.846664Z" fill-rule="nonzero"/><path fill="#000000" fill-opacity="0.0" clip-path="url(#id_0)" d="M197.45 127.45333C197.45 129.11018 196.10686 130.45334 194.45 130.45334C192.79315 130.45334 191.45 129.11018 191.45 127.45333C191.45 125.79648 192.79315 124.45333 194.45 124.45333C196.10686 124.45333 197.45 125.79648 197.45 127.45333Z" fill-rule="nonzero"/><path fill="#000000" fill-opacity="0.0" clip-path="url(#id_0)" d="M223.86111 120.65C223.86111 122.306854 222.51796 123.65 220.86111 123.65C219.20425 123.65 217.86111 122.306854 217.86111 120.65C217.86111 118.99315 219.20425 117.65 220.86111 117.65C222.51796 117.65 223.86111 118.99315 223.86111 120.65Z" fill-rule="nonzero"/><path fill="#000000" fill-opacity="0.0" clip-path="url(#id_0)" d="M250.27222 141.06C250.27222 142.71686 248.92908 144.06 247.27222 144.06C245.61537 144.06 244.27222 142.71686 244.27222 141.06C244.27222 139.40315 245.61537 138.06 247.27222 138.06C248.92908 138.06 250.27222 139.40315 250.27222 141.06Z" fill-rule="nonzero"/><path fill="#000000" fill-opacity="0.0" clip-path="url(#id_0)" d="M276.68332 134.25667C276.68332 135.91353 275.34018 137.25667 273.68332 137.25667C272.0265 137.25667 270.68332 135.91353 270.68332 134.25667C270.68332 132.59981 272.0265 131.25667 273.68332 131.25667C275.34018 131.25667 276.68332 132.59981 276.68332 134.25667Z" fill-rule="nonzero"/><path fill="#000000" fill-opacity="0.0" clip-path="url(#id_0)" d="M303.09445 120.65C303.09445 122.306854 301.7513 123.65 300.09445 123.65C298.4376 123.65 297.09445 122.306854 297.09445 120.65C297.09445 118.99315 298.4376 117.65 300.09445 117.65C301.7513 117.65 303.09445 118.99315 303.09445 120.65Z" fill-rule="nonzero"/><path fill="#000000" fill-opacity="0.0" clip-path="url(#id_0)" d="M329.50555 113.846664C329.50555 115.50352 328.1624 116.846664 326.50555 116.846664C324.8487 116.846664 323.50555 115.50352 323.50555 113.846664C323.50555 112.18981 324.8487 110.846664 326.50555 110.846664C328.1624 110.846664 329.50555 112.18981 329.50555 113.846664Z" fill-rule="nonzero"/><path fill="#000000" fill-opacity="0.0" clip-path="url(#id_0)" d="M355.91666 141.06C355.91666 142.71686 354.57352 144.06 352.91666 144.06C351.25983 144.06 349.91666 142.71686 349.91666 141.06C349.91666 139.40315 351.25983 138.06 352.91666 138.06C354.57352 138.06 355.91666 139.40315 355.91666 141.06Z" fill-rule="nonzero"/><path fill="#000000" fill-opacity="0.0" clip-path="url(#id_0)" d="M382.3278 141.06C382.3278 142.71686 380.98462 144.06 379.3278 144.06C377.67093 144.06 376.3278 142.71686 376.3278 141.06C376.3278 139.40315 377.67093 138.06 379.3278 138.06C380.98462 138.06 382.3278 139.40315 382.3278 141.06Z" fill-rule="nonzero"/><path fill="#000000" fill-opacity="0.0" clip-path="url(#id_0)" d="M408.7389 147.86333C408.7389 149.52019 407.39575 150.86333 405.7389 150.86333C404.08203 150.86333 402.7389 149.52019 402.7389 147.86333C402.7389 146.20648 404.08203 144.86333 405.7389 144.86333C407.39575 144.86333 408.7389 146.20648 408.7389 147.86333Z" fill-rule="nonzero"/><path fill="#000000" fill-opacity="0.0" clip-path="url(#id_0)" d="M435.15 127.45333C435.15 129.11018 433.80685 130.45334 432.15 130.45334C430.49313 130.45334 429.15 129.11018 429.15 127.45333C429.15 125.79648 430.49313 124.45333 432.15 124.45333C433.80685 124.45333 435.15 125.79648 435.15 127.45333Z" fill-rule="nonzero"/><path fill="#000000" fill-opacity="0.0" clip-path="url(#id_0)" d="M461.5611 134.25667C461.5611 135.91353 460.21796 137.25667 458.5611 137.25667C456.90427 137.25667 455.5611 135.91353 455.5611 134.25667C455.5611 132.59981 456.90427 131.25667 458.5611 131.25667C460.21796 131.25667 461.5611 132.59981 461.5611 134.25667Z" fill-rule="nonzero"/><path fill="#000000" fill-opacity="0.0" clip-path="url(#id_0)" d="M487.97223 134.25667C487.97223 135.91353 486.6291 137.25667 484.97223 137.25667C483.31537 137.25667 481.97223 135.91353 481.97223 134.25667C481.97223 132.59981 483.31537 131.25667 484.97223 131.25667C486.6291 131.25667 487.97223 132.59981 487.97223 134.25667Z" fill-rule="nonzero"/><path fill="#000000" fill-opacity="0.0" clip-path="url(#id_0)" d="M514.38336 134.25667C514.38336 135.91353 513.04016 137.25667 511.38333 137.25667C509.72647 137.25667 508.38333 135.91353 508.38333 134.25667C508.38333 132.59981 509.72647 131.25667 511.38333 131.25667C513.04016 131.25667 514.38336 132.59981 514.38336 134.25667Z" fill-rule="nonzero"/><path fill="#000000" fill-opacity="0.0" clip-path="url(#id_0)" d="M540.79443 134.25667C540.79443 135.91353 539.4513 137.25667 537.79443 137.25667C536.1376 137.25667 534.79443 135.91353 534.79443 134.25667C534.79443 132.59981 536.1376 131.25667 537.79443 131.25667C539.4513 131.25667 540.79443 132.59981 540.79443 134.25667Z" fill-rule="nonzero"/><path fill="#000000" fill-opacity="0.0" clip-path="url(#id_0)" d="M567.20557 134.25667C567.20557 135.91353 565.8624 137.25667 564.20557 137.25667C562.5487 137.25667 561.20557 135.91353 561.20557 134.25667C561.20557 132.59981 562.5487 131.25667 564.20557 131.25667C565.8624 131.25667 567.20557 132.59981 567.20557 134.25667Z" fill-rule="nonzero"/><path fill="#000000" fill-opacity="0.0" clip-path="url(#id_0)" d="M593.61664 141.06C593.61664 142.71686 592.2735 144.06 590.61664 144.06C588.95984 144.06 587.61664 142.71686 587.61664 141.06C587.61664 139.40315 588.95984 138.06 590.61664 138.06C592.2735 138.06 593.61664 139.40315 593.61664 141.06Z" fill-rule="nonzero"/><path fill="#000000" fill-opacity="0.0" clip-path="url(#id_0)" d="M620.0278 141.06C620.0278 142.71686 618.68463 144.06 617.0278 144.06C615.3709 144.06 614.0278 142.71686 614.0278 141.06C614.0278 139.40315 615.3709 138.06 617.0278 138.06C618.68463 138.06 620.0278 139.40315 620.0278 141.06Z" fill-rule="nonzero"/><path fill="#000000" fill-opacity="0.0" clip-path="url(#id_0)" d="M646.4389 141.06C646.4389 142.71686 645.09576 144.06 643.4389 144.06C641.78204 144.06 640.4389 142.71686 640.4389 141.06C640.4389 139.40315 641.78204 138.06 643.4389 138.06C645.09576 138.06 646.4389 139.40315 646.4389 141.06Z" fill-rule="nonzero"/><path fill="#000000" fill-opacity="0.0" clip-path="url(#id_0)" d="M672.85 141.06C672.85 142.71686 671.50684 144.06 669.85 144.06C668.1931 144.06 666.85 142.71686 666.85 141.06C666.85 139.40315 668.1931 138.06 669.85 138.06C671.50684 138.06 672.85 139.40315 672.85 141.06Z" fill-rule="nonzero"/><path fill="#000000" fill-opacity="0.0" clip-path="url(#id_0)" d="M699.2611 141.06C699.2611 142.71686 697.91797 144.06 696.2611 144.06C694.60425 144.06 693.2611 142.71686 693.2611 141.06C693.2611 139.40315 694.60425 138.06 696.2611 138.06C697.91797 138.06 699.2611 139.40315 699.2611 141.06Z" fill-rule="nonzero"/><path fill="#000000" fill-opacity="0.0" clip-path="url(#id_0)" d="M725.67224 141.06C725.67224 142.71686 724.3291 144.06 722.67224 144.06C721.0154 144.06 719.67224 142.71686 719.67224 141.06C719.67224 139.40315 721.0154 138.06 722.67224 138.06C724.3291 138.06 725.67224 139.40315 725.67224 141.06Z" fill-rule="nonzero"/><path fill="#000000" fill-opacity="0.0" clip-path="url(#id_0)" d="M752.0833 100.24C752.0833 101.89685 750.7402 103.24 749.0833 103.24C747.42645 103.24 746.0833 101.89685 746.0833 100.24C746.0833 98.583145 747.42645 97.24 749.0833 97.24C750.7402 97.24 752.0833 98.583145 752.0833 100.24Z" fill-rule="nonzero"/><path fill="#000000" fill-opacity="0.0" clip-path="url(#id_0)" d="M778.49445 86.63333C778.49445 88.290184 777.1513 89.63333 775.49445 89.63333C773.8376 89.63333 772.49445 88.290184 772.49445 86.63333C772.49445 84.97648 773.8376 83.63333 775.49445 83.63333C777.1513 83.63333 778.49445 84.97648 778.49445 86.63333Z" fill-rule="nonzero"/><path fill="#000000" fill-opacity="0.0" clip-path="url(#id_0)" d="M804.9056 141.06C804.9056 142.71686 803.56244 144.06 801.9056 144.06C800.2487 144.06 798.9056 142.71686 798.9056 141.06C798.9056 139.40315 800.2487 138.06 801.9056 138.06C803.56244 138.06 804.9056 139.40315 804.9056 141.06Z" fill-rule="nonzero"/><path fill="#000000" fill-opacity="0.0" clip-path="url(#id_0)" d="M831.31665 120.65C831.31665 122.306854 829.9735 123.65 828.31665 123.65C826.6598 123.65 825.31665 122.306854 825.31665 120.65C825.31665 118.99315 826.6598 117.65 828.31665 117.65C829.9735 117.65 831.31665 118.99315 831.31665 120.65Z" fill-rule="nonzero"/><path fill="#000000" fill-opacity="0.0" clip-path="url(#id_0)" d="M857.7278 86.63333C857.7278 88.290184 856.38464 89.63333 854.7278 89.63333C853.0709 89.63333 851.7278 88.290184 851.7278 86.63333C851.7278 84.97648 853.0709 83.63333 854.7278 83.63333C856.38464 83.63333 857.7278 84.97648 857.7278 86.63333Z" fill-rule="nonzero"/><path fill="#000000" fill-opacity="0.0" clip-path="url(#id_0)" d="M884.1389 141.06C884.1389 142.71686 882.7957 144.06 881.1389 144.06C879.48206 144.06 878.1389 142.71686 878.1389 141.06C878.1389 139.40315 879.48206 138.06 881.1389 138.06C882.7957 138.06 884.1389 139.40315 884.1389 141.06Z" fill-rule="nonzero"/><path fill="#000000" fill-opacity="0.0" clip-path="url(#id_0)" d="M910.55 134.25667C910.55 135.91353 909.20685 137.25667 907.55 137.25667C905.8931 137.25667 904.55 135.91353 904.55 134.25667C904.55 132.59981 905.8931 131.25667 907.55 131.25667C909.20685 131.25667 910.55 132.59981 910.55 134.25667Z" fill-rule="nonzero"/><path fill="#000000" fill-opacity="0.0" clip-path="url(#id_0)" d="M936.9611 141.06C936.9611 142.71686 935.618 144.06 933.9611 144.06C932.30426 144.06 930.9611 142.71686 930.9611 141.06C930.9611 139.40315 932.30426 138.06 933.9611 138.06C935.618 138.06 936.9611 139.40315 936.9611 141.06Z" fill-rule="nonzero"/><path fill="#000000" fill-opacity="0.0" clip-path="url(#id_0)" d="M963.3722 127.45333C963.3722 129.11018 962.02905 130.45334 960.3722 130.45334C958.7154 130.45334 957.3722 129.11018 957.3722 127.45333C957.3722 125.79648 958.7154 124.45333 960.3722 124.45333C962.02905 124.45333 963.3722 125.79648 963.3722 127.45333Z" fill-rule="nonzero"/><path fill="#000000" fill-opacity="0.0" clip-path="url(#id_0)" d="M989.7833 141.06C989.7833 142.71686 988.4402 144.06 986.7833 144.06C985.12646 144.06 983.7833 142.71686 983.7833 141.06C983.7833 139.40315 985.12646 138.06 986.7833 138.06C988.4402 138.06 989.7833 139.40315 989.7833 141.06Z" fill-rule="nonzero"/><path fill="#000000" fill-opacity="0.0" clip-path="url(#id_0)" d="M1016.19446 141.06C1016.19446 142.71686 1014.8513 144.06 1013.19446 144.06C1011.5376 144.06 1010.19446 142.71686 1010.19446 141.06C1010.19446 139.40315 1011.5376 138.06 1013.19446 138.06C1014.8513 138.06 1016.19446 139.40315 1016.19446 141.06Z" fill-rule="nonzero"/><path fill="#000000" fill-opacity="0.0" clip-path="url(#id_0)" d="M91.80556 147.86333C91.80556 149.52019 90.46241 150.86333 88.80556 150.86333C87.148705 150.86333 85.80556 149.52019 85.80556 147.86333C85.80556 146.20648 87.148705 144.86333 88.80556 144.86333C90.46241 144.86333 91.80556 146.20648 91.80556 147.86333Z" fill-rule="nonzero"/><path fill="#000000" fill-opacity="0.0" clip-path="url(#id_0)" d="M118.21667 147.86333C118.21667 149.52019 116.87352 150.86333 115.21667 150.86333C113.559814 150.86333 112.21667 149.52019 112.21667 147.86333C112.21667 146.20648 113.559814 144.86333 115.21667 144.86333C116.87352 144.86333 118.21667 146.20648 118.21667 147.86333Z" fill-rule="nonzero"/><path fill="#000000" fill-opacity="0.0" clip-path="url(#id_0)" d="M144.62778 147.86333C144.62778 149.52019 143.28464 150.86333 141.62778 150.86333C139.97092 150.86333 138.62778 149.52019 138.62778 147.86333C138.62778 146.20648 139.97092 144.86333 141.62778 144.86333C143.28464 144.86333 144.62778 146.20648 144.62778 147.86333Z" fill-rule="nonzero"/><path fill="#000000" fill-opacity="0.0" clip-path="url(#id_0)" d="M171.0389 134.25667C171.0389 135.91353 169.69574 137.25667 168.0389 137.25667C166.38203 137.25667 165.0389 135.91353 165.0389 134.25667C165.0389 132.59981 166.38203 131.25667 168.0389 131.25667C169.69574 131.25667 171.0389 132.59981 171.0389 134.25667Z" fill-rule="nonzero"/><path fill="#000000" fill-opacity="0.0" clip-path="url(#id_0)" d="M197.45 147.86333C197.45 149.52019 196.10686 150.86333 194.45 150.86333C192.79315 150.86333 191.45 149.52019 191.45 147.86333C191.45 146.20648 192.79315 144.86333 194.45 144.86333C196.10686 144.86333 197.45 146.20648 197.45 147.86333Z" fill-rule="nonzero"/><path fill="#000000" fill-opacity="0.0" clip-path="url(#id_0)" d="M223.86111 147.86333C223.86111 149.52019 222.51796 150.86333 220.86111 150.86333C219.20425 150.86333 217.86111 149.52019 217.86111 147.86333C217.86111 146.20648 219.20425 144.86333 220.86111 144.86333C222.51796 144.86333 223.86111 146.20648 223.86111 147.86333Z" fill-rule="nonzero"/><path fill="#000000" fill-opacity="0.0" clip-path="url(#id_0)" d="M250.27222 93.43667C250.27222 95.09352 248.92908 96.43667 247.27222 96.43667C245.61537 96.43667 244.27222 95.09352 244.27222 93.43667C244.27222 91.779816 245.61537 90.43667 247.27222 90.43667C248.92908 90.43667 250.27222 91.779816 250.27222 93.43667Z" fill-rule="nonzero"/><path fill="#000000" fill-opacity="0.0" clip-path="url(#id_0)" d="M276.68332 113.846664C276.68332 115.50352 275.34018 116.846664 273.68332 116.846664C272.0265 116.846664 270.68332 115.50352 270.68332 113.846664C270.68332 112.18981 272.0265 110.846664 273.68332 110.846664C275.34018 110.846664 276.68332 112.18981 276.68332 113.846664Z" fill-rule="nonzero"/><path fill="#000000" fill-opacity="0.0" clip-path="url(#id_0)" d="M303.09445 147.86333C303.09445 149.52019 301.7513 150.86333 300.09445 150.86333C298.4376 150.86333 297.09445 149.52019 297.09445 147.86333C297.09445 146.20648 298.4376 144.86333 300.09445 144.86333C301.7513 144.86333 303.09445 146.20648 303.09445 147.86333Z" fill-rule="nonzero"/><path fill="#000000" fill-opacity="0.0" clip-path="url(#id_0)" d="M329.50555 147.86333C329.50555 149.52019 328.1624 150.86333 326.50555 150.86333C324.8487 150.86333 323.50555 149.52019 323.50555 147.86333C323.50555 146.20648 324.8487 144.86333 326.50555 144.86333C328.1624 144.86333 329.50555 146.20648 329.50555 147.86333Z" fill-rule="nonzero"/><path fill="#000000" fill-opacity="0.0" clip-path="url(#id_0)" d="M355.91666 113.846664C355.91666 115.50352 354.57352 116.846664 352.91666 116.846664C351.25983 116.846664 349.91666 115.50352 349.91666 113.846664C349.91666 112.18981 351.25983 110.846664 352.91666 110.846664C354.57352 110.846664 355.91666 112.18981 355.91666 113.846664Z" fill-rule="nonzero"/><path fill="#000000" fill-opacity="0.0" clip-path="url(#id_0)" d="M382.3278 113.846664C382.3278 115.50352 380.98462 116.846664 379.3278 116.846664C377.67093 116.846664 376.3278 115.50352 376.3278 113.846664C376.3278 112.18981 377.67093 110.846664 379.3278 110.846664C380.98462 110.846664 382.3278 112.18981 382.3278 113.846664Z" fill-rule="nonzero"/><path fill="#000000" fill-opacity="0.0" clip-path="url(#id_0)" d="M408.7389 147.86333C408.7389 149.52019 407.39575 150.86333 405.7389 150.86333C404.08203 150.86333 402.7389 149.52019 402.7389 147.86333C402.7389 146.20648 404.08203 144.86333 405.7389 144.86333C407.39575 144.86333 408.7389 146.20648 408.7389 147.86333Z" fill-rule="nonzero"/><path fill="#000000" fill-opacity="0.0" clip-path="url(#id_0)" d="M435.15 120.65C435.15 122.306854 433.80685 123.65 432.15 123.65C430.49313 123.65 429.15 122.306854 429.15 120.65C429.15 118.99315 430.49313 117.65 432.15 117.65C433.80685 117.65 435.15 118.99315 435.15 120.65Z" fill-rule="nonzero"/><path fill="#000000" fill-opacity="0.0" clip-path="url(#id_0)" d="M461.5611 147.86333C461.5611 149.52019 460.21796 150.86333 458.5611 150.86333C456.90427 150.86333 455.5611 149.52019 455.5611 147.86333C455.5611 146.20648 456.90427 144.86333 458.5611 144.86333C460.21796 144.86333 461.5611 146.20648 461.5611 147.86333Z" fill-rule="nonzero"/><path fill="#000000" fill-opacity="0.0" clip-path="url(#id_0)" d="M487.97223 147.86333C487.97223 149.52019 486.6291 150.86333 484.97223 150.86333C483.31537 150.86333 481.97223 149.52019 481.97223 147.86333C481.97223 146.20648 483.31537 144.86333 484.97223 144.86333C486.6291 144.86333 487.97223 146.20648 487.97223 147.86333Z" fill-rule="nonzero"/><path fill="#000000" fill-opacity="0.0" clip-path="url(#id_0)" d="M514.38336 32.206665C514.38336 33.86352 513.04016 35.206665 511.38333 35.206665C509.72647 35.206665 508.38333 33.86352 508.38333 32.206665C508.38333 30.549812 509.72647 29.206667 511.38333 29.206667C513.04016 29.206667 514.38336 30.549812 514.38336 32.206665Z" fill-rule="nonzero"/><path fill="#000000" fill-opacity="0.0" clip-path="url(#id_0)" d="M540.79443 141.06C540.79443 142.71686 539.4513 144.06 537.79443 144.06C536.1376 144.06 534.79443 142.71686 534.79443 141.06C534.79443 139.40315 536.1376 138.06 537.79443 138.06C539.4513 138.06 540.79443 139.40315 540.79443 141.06Z" fill-rule="nonzero"/><path fill="#000000" fill-opacity="0.0" clip-path="url(#id_0)" d="M567.20557 141.06C567.20557 142.71686 565.8624 144.06 564.20557 144.06C562.5487 144.06 561.20557 142.71686 561.20557 141.06C561.20557 139.40315 562.5487 138.06 564.20557 138.06C565.8624 138.06 567.20557 139.40315 567.20557 141.06Z" fill-rule="nonzero"/><path fill="#000000" fill-opacity="0.0" clip-path="url(#id_0)" d="M593.61664 113.846664C593.61664 115.50352 592.2735 116.846664 590.61664 116.846664C588.95984 116.846664 587.61664 115.50352 587.61664 113.846664C587.61664 112.18981 588.95984 110.846664 590.61664 110.846664C592.2735 110.846664 593.61664 112.18981 593.61664 113.846664Z" fill-rule="nonzero"/><path fill="#000000" fill-opacity="0.0" clip-path="url(#id_0)" d="M620.0278 134.25667C620.0278 135.91353 618.68463 137.25667 617.0278 137.25667C615.3709 137.25667 614.0278 135.91353 614.0278 134.25667C614.0278 132.59981 615.3709 131.25667 617.0278 131.25667C618.68463 131.25667 620.0278 132.59981 620.0278 134.25667Z" fill-rule="nonzero"/><path fill="#000000" fill-opacity="0.0" clip-path="url(#id_0)" d="M646.4389 147.86333C646.4389 149.52019 645.09576 150.86333 643.4389 150.86333C641.78204 150.86333 640.4389 149.52019 640.4389 147.86333C640.4389 146.20648 641.78204 144.86333 643.4389 144.86333C645.09576 144.86333 646.4389 146.20648 646.4389 147.86333Z" fill-rule="nonzero"/><path fill="#000000" fill-opacity="0.0" clip-path="url(#id_0)" d="M672.85 113.846664C672.85 115.50352 671.50684 116.846664 669.85 116.846664C668.1931 116.846664 666.85 115.50352 666.85 113.846664C666.85 112.18981 668.1931 110.846664 669.85 110.846664C671.50684 110.846664 672.85 112.18981 672.85 113.846664Z" fill-rule="nonzero"/><path fill="#000000" fill-opacity="0.0" clip-path="url(#id_0)" d="M699.2611 147.86333C699.2611 149.52019 697.91797 150.86333 696.2611 150.86333C694.60425 150.86333 693.2611 149.52019 693.2611 147.86333C693.2611 146.20648 694.60425 144.86333 696.2611 144.86333C697.91797 144.86333 699.2611 146.20648 699.2611 147.86333Z" fill-rule="nonzero"/><path fill="#000000" fill-opacity="0.0" clip-path="url(#id_0)" d="M725.67224 127.45333C725.67224 129.11018 724.3291 130.45334 722.67224 130.45334C721.0154 130.45334 719.67224 129.11018 719.67224 127.45333C719.67224 125.79648 721.0154 124.45333 722.67224 124.45333C724.3291 124.45333 725.67224 125.79648 725.67224 127.45333Z" fill-rule="nonzero"/><path fill="#000000" fill-opacity="0.0" clip-path="url(#id_0)" d="M752.0833 134.25667C752.0833 135.91353 750.7402 137.25667 749.0833 137.25667C747.42645 137.25667 746.0833 135.91353 746.0833 134.25667C746.0833 132.59981 747.42645 131.25667 749.0833 131.25667C750.7402 131.25667 752.0833 132.59981 752.0833 134.25667Z" fill-rule="nonzero"/><path fill="#000000" fill-opacity="0.0" clip-path="url(#id_0)" d="M778.49445 127.45333C778.49445 129.11018 777.1513 130.45334 775.49445 130.45334C773.8376 130.45334 772.49445 129.11018 772.49445 127.45333C772.49445 125.79648 773.8376 124.45333 775.49445 124.45333C777.1513 124.45333 778.49445 125.79648 778.49445 127.45333Z" fill-rule="nonzero"/><path fill="#000000" fill-opacity="0.0" clip-path="url(#id_0)" d="M804.9056 127.45333C804.9056 129.11018 803.56244 130.45334 801.9056 130.45334C800.2487 130.45334 798.9056 129.11018 798.9056 127.45333C798.9056 125.79648 800.2487 124.45333 801.9056 124.45333C803.56244 124.45333 804.9056 125.79648 804.9056 127.45333Z" fill-rule="nonzero"/><path fill="#000000" fill-opacity="0.0" clip-path="url(#id_0)" d="M831.31665 113.846664C831.31665 115.50352 829.9735 116.846664 828.31665 116.846664C826.6598 116.846664 825.31665 115.50352 825.31665 113.846664C825.31665 112.18981 826.6598 110.846664 828.31665 110.846664C829.9735 110.846664 831.31665 112.18981 831.31665 113.846664Z" fill-rule="nonzero"/><path fill="#000000" fill-opacity="0.0" clip-path="url(#id_0)" d="M857.7278 100.24C857.7278 101.89685 856.38464 103.24 854.7278 103.24C853.0709 103.24 851.7278 101.89685 851.7278 100.24C851.7278 98.583145 853.0709 97.24 854.7278 97.24C856.38464 97.24 857.7278 98.583145 857.7278 100.24Z" fill-rule="nonzero"/><path fill="#000000" fill-opacity="0.0" clip-path="url(#id_0)" d="M884.1389 147.86333C884.1389 149.52019 882.7957 150.86333 881.1389 150.86333C879.48206 150.86333 878.1389 149.52019 878.1389 147.86333C878.1389 146.20648 879.48206 144.86333 881.1389 144.86333C882.7957 144.86333 884.1389 146.20648 884.1389 147.86333Z" fill-rule="nonzero"/><path fill="#000000" fill-opacity="0.0" clip-path="url(#id_0)" d="M910.55 107.043335C910.55 108.70019 909.20685 110.043335 907.55 110.043335C905.8931 110.043335 904.55 108.70019 904.55 107.043335C904.55 105.38648 905.8931 104.043335 907.55 104.043335C909.20685 104.043335 910.55 105.38648 910.55 107.043335Z" fill-rule="nonzero"/><path fill="#000000" fill-opacity="0.0" clip-path="url(#id_0)" d="M936.9611 79.83C936.9611 81.486855 935.618 82.83 933.9611 82.83C932.30426 82.83 930.9611 81.486855 930.9611 79.83C930.9611 78.17315 932.30426 76.83 933.9611 76.83C935.618 76.83 936.9611 78.17315 936.9611 79.83Z" fill-rule="nonzero"/><path fill="#000000" fill-opacity="0.0" clip-path="url(#id_0)" d="M963.3722 107.043335C963.3722 108.70019 962.02905 110.043335 960.3722 110.043335C958.7154 110.043335 957.3722 108.70019 957.3722 107.043335C957.3722 105.38648 958.7154 104.043335 960.3722 104.043335C962.02905 104.043335 963.3722 105.38648 963.3722 107.043335Z" fill-rule="nonzero"/><path fill="#000000" fill-opacity="0.0" clip-path="url(#id_0)" d="M989.7833 120.65C989.7833 122.306854 988.4402 123.65 986.7833 123.65C985.12646 123.65 983.7833 122.306854 983.7833 120.65C983.7833 118.99315 985.12646 117.65 986.7833 117.65C988.4402 117.65 989.7833 118.99315 989.7833 120.65Z" fill-rule="nonzero"/><path fill="#000000" fill-opacity="0.0" clip-path="url(#id_0)" d="M1016.19446 134.25667C1016.19446 135.91353 1014.8513 137.25667 1013.19446 137.25667C1011.5376 137.25667 1010.19446 135.91353 1010.19446 134.25667C1010.19446 132.59981 1011.5376 131.25667 1013.19446 131.25667C1014.8513 131.25667 1016.19446 132.59981 1016.19446 134.25667Z" fill-rule="nonzero"/><path fill="#000000" d="M502.57812 195.66667L502.57812 191.10417L501.48438 191.10417L501.48438 190.19792L502.57812 190.19792L502.57812 185.65105L506.04688 185.65105Q507.20312 185.65105 507.8125 185.79167Q508.67188 185.97917 509.28125 186.51042Q510.07812 187.1823 510.46875 188.22917Q510.85938 189.26042 510.85938 190.60417Q510.85938 192.13542 510.375 193.2448Q509.89062 194.33855 509.21875 194.83855Q508.54688 195.33855 507.65625 195.5573Q507.17188 195.66667 506.20312 195.66667L502.57812 195.66667ZM503.90625 194.47917L506.04688 194.47917Q507.04688 194.47917 507.60938 194.3073Q508.17188 194.1198 508.5 193.79167Q508.96875 193.3073 509.23438 192.52605Q509.5 191.72917 509.5 190.58855Q509.5 189.41667 509.23438 188.71355Q508.96875 188.01042 508.54688 187.58855Q508.125 187.15105 507.59375 186.9948Q507.07812 186.82292 506.01562 186.82292L503.90625 186.82292L503.90625 190.19792L506.67188 190.19792L506.67188 191.10417L503.90625 191.10417L503.90625 194.47917ZM513.2344 192.04167Q513.2344 193.38542 513.84375 194.1198Q514.40625 194.82292 515.375 194.82292Q516.3281 194.82292 516.8906 194.1198Q517.5 193.3698 517.5 191.9948Q517.5 190.6823 516.8906 189.96355Q516.3125 189.26042 515.375 189.26042Q514.40625 189.26042 513.84375 189.94792Q513.2344 190.6823 513.2344 192.04167ZM518.9375 189.65105L518.9375 188.22917L520.25 188.22917L520.25 189.35417Q520.25 190.19792 519.9844 190.65105Q519.65625 191.2448 518.7656 191.72917Q518.7656 191.83855 518.7656 191.9323Q518.7656 194.47917 517.125 195.38542Q516.3125 195.83855 515.375 195.83855Q513.8125 195.83855 512.90625 194.85417Q511.96875 193.83855 511.96875 192.04167Q511.96875 190.02605 513.09375 189.04167Q514.0156 188.2448 515.375 188.2448Q516.8594 188.2448 517.8125 189.21355Q518.53125 189.96355 518.71875 191.13542Q519.1719 190.85417 519.375 190.5573Q519.5781 190.2448 519.5781 189.65105L518.9375 189.65105ZM521.4219 195.66667L521.4219 188.40105L522.53125 188.40105L522.53125 189.4323Q523.3281 188.2448 524.84375 188.2448Q525.5 188.2448 526.0469 188.47917Q526.59375 188.71355 526.8594 189.10417Q527.1406 189.47917 527.25 190.01042Q527.3281 190.35417 527.3281 191.19792L527.3281 195.66667L526.09375 195.66667L526.09375 191.2448Q526.09375 190.4948 525.9531 190.13542Q525.8125 189.76042 525.4375 189.54167Q525.0781 189.3073 524.5781 189.3073Q523.7969 189.3073 523.21875 189.8073Q522.65625 190.3073 522.65625 191.69792L522.65625 195.66667L521.4219 195.66667ZM535.4375 195.66667L532.6719 188.40105L533.9844 188.40105L535.53125 192.76042Q535.78125 193.46355 536.0 194.21355Q536.1719 193.63542 536.4531 192.83855L538.0781 188.40105L539.34375 188.40105L536.59375 195.66667L535.4375 195.66667ZM540.4375 187.0573L540.4375 185.65105L541.65625 185.65105L541.65625 187.0573L540.4375 187.0573ZM540.4375 195.66667L540.4375 188.40105L541.65625 188.40105L541.65625 195.66667L540.4375 195.66667ZM540.34375 197.88542L540.34375 196.4948L541.75 196.4948L541.75 197.88542L540.34375 197.88542ZM547.4375 195.66667L547.4375 185.65105L548.65625 185.65105L548.65625 191.35417L551.5781 188.40105L553.1719 188.40105L550.3906 191.10417L553.4531 195.66667L551.9219 195.66667L549.53125 191.94792L548.65625 192.79167L548.65625 195.66667L547.4375 195.66667ZM554.4375 187.0573L554.4375 185.65105L555.65625 185.65105L555.65625 187.0573L554.4375 187.0573ZM554.4375 195.66667L554.4375 188.40105L555.65625 188.40105L555.65625 195.66667L554.4375 195.66667ZM562.3906 193.32292L563.6719 193.47917Q563.3594 194.60417 562.5469 195.22917Q561.7344 195.83855 560.46875 195.83855Q558.875 195.83855 557.9375 194.85417Q557.0156 193.8698 557.0156 192.10417Q557.0156 190.26042 557.9531 189.26042Q558.90625 188.2448 560.40625 188.2448Q561.8594 188.2448 562.78125 189.2448Q563.7031 190.22917 563.7031 192.02605Q563.7031 192.13542 563.7031 192.35417L558.28125 192.35417Q558.3594 193.54167 558.9531 194.1823Q559.5625 194.82292 560.4844 194.82292Q561.15625 194.82292 561.625 194.46355Q562.1094 194.10417 562.3906 193.32292ZM558.3594 191.33855L562.40625 191.33855Q562.3281 190.41667 561.9375 189.96355Q561.3594 189.26042 560.4219 189.26042Q559.5625 189.26042 558.9844 189.82292Q558.4219 190.38542 558.3594 191.33855ZM560.3906 186.33855L559.6094 187.51042L558.2031 187.51042L559.6719 185.58855L560.9844 185.58855L562.53125 187.51042L561.1406 187.51042L560.3906 186.33855ZM559.9844 184.5573Q560.375 184.52605 560.4844 184.4948Q560.84375 184.40105 560.84375 184.21355Q560.8594 184.0573 560.65625 183.94792Q560.375 183.79167 559.75 183.79167Q559.53125 183.79167 559.1094 183.8073L559.03125 183.16667Q559.2969 183.1198 560.0156 183.1198Q560.8594 183.13542 561.3906 183.40105Q561.96875 183.6823 561.9844 184.13542Q562.0156 184.83855 560.75 184.9948L560.75 185.32292L559.9844 185.32292L559.9844 184.5573ZM565.4219 195.66667L565.4219 188.40105L566.53125 188.40105L566.53125 189.4323Q566.8594 188.88542 567.4219 188.57292Q568.0 188.2448 568.71875 188.2448Q569.53125 188.2448 570.0469 188.58855Q570.5625 188.91667 570.78125 189.51042Q571.6406 188.2448 573.0156 188.2448Q574.09375 188.2448 574.6719 188.83855Q575.2656 189.4323 575.2656 190.6823L575.2656 195.66667L574.03125 195.66667L574.03125 191.08855Q574.03125 190.35417 573.90625 190.02605Q573.7969 189.69792 573.4844 189.51042Q573.1719 189.3073 572.75 189.3073Q571.9844 189.3073 571.46875 189.82292Q570.96875 190.32292 570.96875 191.44792L570.96875 195.66667L569.7344 195.66667L569.7344 190.94792Q569.7344 190.13542 569.4375 189.72917Q569.1406 189.3073 568.4531 189.3073Q567.9375 189.3073 567.4844 189.58855Q567.0469 189.85417 566.84375 190.38542Q566.65625 190.90105 566.65625 191.90105L566.65625 195.66667L565.4219 195.66667ZM583.1094 194.57292L583.28125 195.65105Q582.7656 195.76042 582.3594 195.76042Q581.6875 195.76042 581.3125 195.5573Q580.9531 195.33855 580.7969 194.9948Q580.65625 194.65105 580.65625 193.54167L580.65625 189.3698L579.75 189.3698L579.75 188.40105L580.65625 188.40105L580.65625 186.60417L581.875 185.8698L581.875 188.40105L583.1094 188.40105L583.1094 189.3698L581.875 189.3698L581.875 193.60417Q581.875 194.13542 581.9375 194.29167Q582.0 194.4323 582.1406 194.52605Q582.2969 194.6198 582.5625 194.6198Q582.78125 194.6198 583.1094 194.57292ZM584.4219 195.66667L584.4219 185.65105L585.65625 185.65105L585.65625 189.2448Q586.5156 188.2448 587.8281 188.2448Q588.6406 188.2448 589.2344 188.57292Q589.8281 188.88542 590.0781 189.44792Q590.34375 189.9948 590.34375 191.07292L590.34375 195.66667L589.1094 195.66667L589.1094 191.07292Q589.1094 190.13542 588.7031 189.72917Q588.3125 189.3073 587.5781 189.3073Q587.03125 189.3073 586.5469 189.58855Q586.0625 189.8698 585.8594 190.35417Q585.65625 190.83855 585.65625 191.69792L585.65625 195.66667L584.4219 195.66667ZM599.125 189.83855L599.125 188.40105L600.4531 188.40105L600.4531 189.54167Q600.4531 190.60417 600.2031 191.02605Q599.5781 192.1198 598.28125 192.26042L598.28125 195.66667L597.1875 195.66667L597.1875 194.60417Q596.3281 195.83855 594.875 195.83855Q594.2344 195.83855 593.6719 195.58855Q593.125 195.33855 592.84375 194.96355Q592.5781 194.58855 592.46875 194.0573Q592.3906 193.6823 592.3906 192.90105L592.3906 188.40105L593.625 188.40105L593.625 192.4323Q593.625 193.41667 593.7031 193.72917Q593.9375 194.77605 595.125 194.77605Q595.6875 194.77605 596.1719 194.4948Q596.65625 194.19792 596.84375 193.71355Q597.0469 193.22917 597.0469 192.29167L597.0469 188.40105L598.28125 188.40105L598.28125 191.7448Q599.15625 191.58855 599.5781 190.9323Q599.7656 190.63542 599.7656 189.83855L599.125 189.83855ZM594.9531 186.6823Q595.34375 186.63542 595.4531 186.60417Q595.8125 186.47917 595.8281 186.22917Q595.8281 186.07292 595.625 185.96355Q595.34375 185.8073 594.71875 185.8073Q594.5156 185.8073 594.0781 185.82292L594.0 185.13542Q594.2656 185.07292 594.9844 185.08855Q595.8281 185.08855 596.3594 185.35417Q596.9531 185.65105 596.96875 186.15105Q597.0 187.01042 595.71875 187.16667L595.71875 187.51042L594.9531 187.51042L594.9531 186.6823Z" fill-rule="nonzero"/><path fill="#000000" d="M21.381254 133.00833L21.27188 131.75833Q22.02188 131.66458 22.506254 131.33646Q22.99063 131.00833 23.287504 130.33646Q23.58438 129.64896 23.58438 128.78958Q23.58438 128.03958 23.36563 127.46146Q23.131254 126.86771 22.74063 126.58646Q22.350004 126.30521 21.881254 126.30521Q21.412504 126.30521 21.068754 126.58646Q20.70938 126.85208 20.45938 127.47708Q20.30313 127.88333 19.975004 129.27396Q19.64688 130.64896 19.350004 131.19583Q18.975004 131.91458 18.42813 132.27396Q17.86563 132.6177 17.162504 132.6177Q16.412504 132.6177 15.756255 132.19583Q15.08438 131.75833 14.756255 130.9302Q14.412505 130.10208 14.412505 129.08646Q14.412505 127.97708 14.77188 127.13333Q15.131255 126.27396 15.83438 125.82083Q16.52188 125.36771 17.39688 125.32083L17.49063 126.60208Q16.55313 126.69583 16.068754 127.28958Q15.568755 127.88333 15.568755 129.03958Q15.568755 130.2427 16.02188 130.78958Q16.45938 131.33646 17.08438 131.33646Q17.61563 131.33646 17.975004 130.94583Q18.318754 130.57083 18.693754 128.96146Q19.05313 127.33646 19.318754 126.74271Q19.725004 125.86771 20.350004 125.44583Q20.95938 125.02396 21.77188 125.02396Q22.568754 125.02396 23.287504 125.49271Q23.99063 125.94583 24.381254 126.80521Q24.77188 127.66458 24.77188 128.72708Q24.77188 130.08646 24.381254 131.00833Q23.975004 131.9302 23.17813 132.46146Q22.381254 132.97708 21.381254 133.00833ZM20.975004 124.16458Q18.95938 124.16458 17.975004 123.03958Q17.17813 122.11771 17.17813 120.75833Q17.17813 119.27396 18.162504 118.32083Q19.131254 117.36771 20.86563 117.36771Q22.27188 117.36771 23.08438 117.78958Q23.881254 118.21146 24.33438 119.02396Q24.77188 119.82083 24.77188 120.75833Q24.77188 122.28958 23.787504 123.22708Q22.80313 124.16458 20.975004 124.16458ZM20.975004 122.89896Q22.36563 122.89896 23.068754 122.28958Q23.756254 121.68021 23.756254 120.75833Q23.756254 119.85208 23.05313 119.24271Q22.350004 118.63333 20.92813 118.63333Q19.58438 118.63333 18.89688 119.24271Q18.193754 119.85208 18.193754 120.75833Q18.193754 121.68021 18.881254 122.28958Q19.568754 122.89896 20.975004 122.89896ZM15.27188 120.74271L16.443754 121.52396L16.443754 122.93021L14.52188 121.46146L14.52188 120.14896L16.443754 118.60208L16.443754 119.99271L15.27188 120.74271ZM12.11563 120.52396L12.11563 118.88333L14.02188 120.46146L14.02188 121.44583L12.11563 120.52396ZM21.943754 106.97709L22.100004 105.75834Q23.350004 105.961464 24.068754 106.78959Q24.77188 107.60209 24.77188 108.78959Q24.77188 110.27396 23.80313 111.18021Q22.818754 112.08646 20.99063 112.08646Q19.818754 112.08646 18.943754 111.69583Q18.05313 111.30521 17.61563 110.50833Q17.17813 109.71146 17.17813 108.773964Q17.17813 107.60209 17.77188 106.85209Q18.36563 106.086464 19.475004 105.88334L19.662504 107.07084Q18.92813 107.242714 18.568754 107.680214Q18.193754 108.117714 18.193754 108.72709Q18.193754 109.66458 18.86563 110.24271Q19.52188 110.82083 20.95938 110.82083Q22.42813 110.82083 23.100004 110.25833Q23.756254 109.69583 23.756254 108.805214Q23.756254 108.07084 23.318754 107.586464Q22.86563 107.10209 21.943754 106.97709ZM23.70938 99.97709Q24.287504 100.648964 24.537504 101.28959Q24.77188 101.91459 24.77188 102.648964Q24.77188 103.836464 24.193754 104.492714Q23.600004 105.13334 22.67813 105.13334Q22.14688 105.13334 21.70938 104.898964Q21.27188 104.648964 21.006254 104.25834Q20.74063 103.85209 20.600004 103.367714Q20.506254 103.00834 20.412504 102.273964Q20.24063 100.773964 19.99063 100.07084Q19.74063 100.07084 19.67813 100.07084Q18.912504 100.07084 18.61563 100.41459Q18.193754 100.88334 18.193754 101.82084Q18.193754 102.680214 18.506254 103.10209Q18.80313 103.50834 19.568754 103.711464L19.412504 104.91459Q18.631254 104.75834 18.162504 104.38334Q17.693754 103.992714 17.443754 103.28959Q17.17813 102.57084 17.17813 101.63334Q17.17813 100.711464 17.39688 100.13334Q17.61563 99.555214 17.943754 99.28959Q18.27188 99.00834 18.787504 98.898964Q19.100004 98.836464 19.912504 98.836464L21.55313 98.836464Q23.27188 98.836464 23.725004 98.75834Q24.17813 98.680214 24.600004 98.44584L24.600004 99.72709Q24.20938 99.91459 23.70938 99.97709ZM20.95938 100.07084Q21.225004 100.742714 21.42813 102.086464Q21.537504 102.836464 21.67813 103.16459Q21.80313 103.47709 22.068754 103.648964Q22.33438 103.82084 22.64688 103.82084Q23.14688 103.82084 23.475004 103.44584Q23.80313 103.07084 23.80313 102.35209Q23.80313 101.63334 23.49063 101.086464Q23.17813 100.53959 22.631254 100.273964Q22.225004 100.07084 21.412504 100.07084L20.95938 100.07084ZM24.600004 92.69584L14.58438 92.69584L14.58438 91.47709L20.287504 91.47709L17.33438 88.555214L17.33438 86.961464L20.037504 89.742714L24.600004 86.680214L24.600004 88.211464L20.881254 90.60209L21.725004 91.47709L24.600004 91.47709L24.600004 92.69584ZM15.99063 85.69584L14.58438 85.69584L14.58438 84.47709L15.99063 84.47709L15.99063 85.69584ZM24.600004 85.69584L17.33438 85.69584L17.33438 84.47709L24.600004 84.47709L24.600004 85.69584ZM22.256254 77.742714L22.412504 76.461464Q23.537504 76.773964 24.162504 77.586464Q24.77188 78.398964 24.77188 79.66459Q24.77188 81.25834 23.787504 82.19584Q22.80313 83.117714 21.037504 83.117714Q19.193754 83.117714 18.193754 82.180214Q17.17813 81.22709 17.17813 79.72709Q17.17813 78.273964 18.17813 77.35209Q19.162504 76.430214 20.95938 76.430214Q21.068754 76.430214 21.287504 76.430214L21.287504 81.85209Q22.475004 81.773964 23.11563 81.180214Q23.756254 80.57084 23.756254 79.648964Q23.756254 78.97709 23.39688 78.50834Q23.037504 78.023964 22.256254 77.742714ZM20.27188 81.773964L20.27188 77.72709Q19.350004 77.805214 18.89688 78.19584Q18.193754 78.773964 18.193754 79.711464Q18.193754 80.57084 18.756254 81.148964Q19.318754 81.711464 20.27188 81.773964ZM15.27188 79.742714L16.443754 80.523964L16.443754 81.930214L14.52188 80.461464L14.52188 79.148964L16.443754 77.60209L16.443754 78.992714L15.27188 79.742714ZM13.49063 80.148964Q13.45938 79.75834 13.42813 79.648964Q13.33438 79.28959 13.14688 79.28959Q12.99063 79.273964 12.881255 79.47709Q12.725005 79.75834 12.725005 80.38334Q12.725005 80.60209 12.74063 81.023964L12.100005 81.10209Q12.05313 80.836464 12.05313 80.117714Q12.068755 79.273964 12.33438 78.742714Q12.61563 78.16459 13.068755 78.148964Q13.77188 78.117714 13.92813 79.38334L14.256255 79.38334L14.256255 80.148964L13.49063 80.148964ZM24.600004 74.711464L17.33438 74.711464L17.33438 73.60209L18.36563 73.60209Q17.818754 73.273964 17.506254 72.711464Q17.17813 72.13334 17.17813 71.41459Q17.17813 70.60209 17.52188 70.086464Q17.850004 69.57084 18.443754 69.35209Q17.17813 68.492714 17.17813 67.117714Q17.17813 66.03959 17.77188 65.461464Q18.36563 64.867714 19.61563 64.867714L24.600004 64.867714L24.600004 66.10209L20.02188 66.10209Q19.287504 66.10209 18.95938 66.22709Q18.631254 66.336464 18.443754 66.648964Q18.24063 66.961464 18.24063 67.38334Q18.24063 68.148964 18.756254 68.66459Q19.256254 69.16459 20.381254 69.16459L24.600004 69.16459L24.600004 70.398964L19.881254 70.398964Q19.068754 70.398964 18.662504 70.69584Q18.24063 70.992714 18.24063 71.680214Q18.24063 72.19584 18.52188 72.648964Q18.787504 73.086464 19.318754 73.28959Q19.83438 73.47709 20.83438 73.47709L24.600004 73.47709L24.600004 74.711464ZM23.506254 57.02396L24.58438 56.852085Q24.693754 57.36771 24.693754 57.77396Q24.693754 58.445835 24.49063 58.820835Q24.27188 59.18021 23.92813 59.33646Q23.58438 59.477085 22.475004 59.477085L18.30313 59.477085L18.30313 60.383335L17.33438 60.383335L17.33438 59.477085L15.537505 59.477085L14.80313 58.258335L17.33438 58.258335L17.33438 57.02396L18.30313 57.02396L18.30313 58.258335L22.537504 58.258335Q23.068754 58.258335 23.225004 58.195835Q23.36563 58.133335 23.45938 57.99271Q23.55313 57.83646 23.55313 57.570835Q23.55313 57.352085 23.506254 57.02396ZM24.600004 55.71146L14.58438 55.71146L14.58438 54.477085L18.17813 54.477085Q17.17813 53.61771 17.17813 52.30521Q17.17813 51.49271 17.506254 50.89896Q17.818754 50.30521 18.381254 50.05521Q18.92813 49.789585 20.006254 49.789585L24.600004 49.789585L24.600004 51.02396L20.006254 51.02396Q19.068754 51.02396 18.662504 51.43021Q18.24063 51.820835 18.24063 52.55521Q18.24063 53.102085 18.52188 53.58646Q18.80313 54.070835 19.287504 54.27396Q19.77188 54.477085 20.631254 54.477085L24.600004 54.477085L24.600004 55.71146ZM18.77188 41.008335L17.33438 41.008335L17.33438 39.68021L18.475004 39.68021Q19.537504 39.68021 19.95938 39.93021Q21.05313 40.55521 21.193754 41.852085L24.600004 41.852085L24.600004 42.945835L23.537504 42.945835Q24.77188 43.80521 24.77188 45.258335Q24.77188 45.89896 24.52188 46.46146Q24.27188 47.008335 23.89688 47.289585Q23.52188 47.55521 22.99063 47.664585Q22.61563 47.74271 21.83438 47.74271L17.33438 47.74271L17.33438 46.508335L21.36563 46.508335Q22.350004 46.508335 22.662504 46.43021Q23.70938 46.195835 23.70938 45.008335Q23.70938 44.445835 23.42813 43.96146Q23.131254 43.477085 22.64688 43.289585Q22.162504 43.08646 21.225004 43.08646L17.33438 43.08646L17.33438 41.852085L20.67813 41.852085Q20.52188 40.977085 19.86563 40.55521Q19.568754 40.36771 18.77188 40.36771L18.77188 41.008335ZM15.61563 45.18021Q15.568755 44.789585 15.537505 44.68021Q15.412505 44.320835 15.162505 44.30521Q15.006255 44.30521 14.89688 44.508335Q14.74063 44.789585 14.74063 45.414585Q14.74063 45.61771 14.756255 46.05521L14.068755 46.133335Q14.006255 45.86771 14.02188 45.14896Q14.02188 44.30521 14.287505 43.77396Q14.58438 43.18021 15.08438 43.164585Q15.943755 43.133335 16.100004 44.414585L16.443754 44.414585L16.443754 45.18021L15.61563 45.18021Z" fill-rule="nonzero"/><path fill="#000000" d="M63.1 154.4323Q63.1 152.90105 63.4125 151.97917Q63.725 151.04167 64.33437 150.54167Q64.95937 150.04167 65.89687 150.04167Q66.58437 150.04167 67.1 150.32292Q67.63125 150.60417 67.975 151.13542Q68.31875 151.65105 68.50625 152.40105Q68.69375 153.15105 68.69375 154.4323Q68.69375 155.94792 68.38125 156.8698Q68.08437 157.79167 67.45937 158.3073Q66.85 158.8073 65.89687 158.8073Q64.6625 158.8073 63.94375 157.91667Q63.1 156.85417 63.1 154.4323ZM64.17812 154.4323Q64.17812 156.54167 64.67812 157.2448Q65.17812 157.94792 65.89687 157.94792Q66.63125 157.94792 67.11562 157.2448Q67.61562 156.54167 67.61562 154.4323Q67.61562 152.3073 67.11562 151.6198Q66.63125 150.91667 65.88125 150.91667Q65.1625 150.91667 64.725 151.52605Q64.17812 152.3073 64.17812 154.4323Z" fill-rule="nonzero"/><path fill="#000000" d="M63.1 122.4L64.20937 122.30625Q64.33437 123.11875 64.77187 123.525Q65.225 123.93125 65.86562 123.93125Q66.61562 123.93125 67.14687 123.35313Q67.67812 122.775 67.67812 121.8375Q67.67812 120.93125 67.1625 120.41563Q66.6625 119.88438 65.83437 119.88438Q65.33437 119.88438 64.9125 120.11875Q64.50625 120.35313 64.27187 120.7125L63.2875 120.5875L64.11562 116.18125L68.39687 116.18125L68.39687 117.18125L64.95937 117.18125L64.50625 119.49375Q65.27187 118.94688 66.11562 118.94688Q67.24062 118.94688 68.00625 119.72813Q68.7875 120.50938 68.7875 121.74375Q68.7875 122.9 68.11562 123.75938Q67.2875 124.79063 65.86562 124.79063Q64.69375 124.79063 63.94375 124.13438Q63.209373 123.47813 63.1 122.4Z" fill-rule="nonzero"/><path fill="#000000" d="M60.06875 90.63333L59.021873 90.63333L59.021873 83.91458Q58.63125 84.27396 58.00625 84.64896Q57.396873 85.00833 56.9125 85.18021L56.9125 84.16458Q57.7875 83.74271 58.44375 83.16458Q59.115623 82.57083 59.396873 82.00833L60.06875 82.00833L60.06875 90.63333ZM63.1 86.39896Q63.1 84.86771 63.4125 83.94583Q63.725 83.00833 64.33437 82.50833Q64.95937 82.00833 65.89687 82.00833Q66.58437 82.00833 67.1 82.28958Q67.63125 82.57083 67.975 83.10208Q68.31875 83.61771 68.50625 84.36771Q68.69375 85.11771 68.69375 86.39896Q68.69375 87.91458 68.38125 88.83646Q68.08437 89.75833 67.45937 90.27396Q66.85 90.77396 65.89687 90.77396Q64.6625 90.77396 63.94375 89.88333Q63.1 88.82083 63.1 86.39896ZM64.17812 86.39896Q64.17812 88.50833 64.67812 89.21146Q65.17812 89.91458 65.89687 89.91458Q66.63125 89.91458 67.11562 89.21146Q67.61562 88.50833 67.61562 86.39896Q67.61562 84.27396 67.11562 83.58646Q66.63125 82.88333 65.88125 82.88333Q65.1625 82.88333 64.725 83.49271Q64.17812 84.27396 64.17812 86.39896Z" fill-rule="nonzero"/><path fill="#000000" d="M60.06875 56.616665L59.021873 56.616665L59.021873 49.897915Q58.63125 50.25729 58.00625 50.63229Q57.396873 50.991665 56.9125 51.16354L56.9125 50.147915Q57.7875 49.72604 58.44375 49.147915Q59.115623 48.554165 59.396873 47.991665L60.06875 47.991665L60.06875 56.616665ZM63.1 54.366665L64.20937 54.272915Q64.33437 55.085415 64.77187 55.491665Q65.225 55.897915 65.86562 55.897915Q66.61562 55.897915 67.14687 55.31979Q67.67812 54.741665 67.67812 53.804165Q67.67812 52.897915 67.1625 52.38229Q66.6625 51.85104 65.83437 51.85104Q65.33437 51.85104 64.9125 52.085415Q64.50625 52.31979 64.27187 52.679165L63.2875 52.554165L64.11562 48.147915L68.39687 48.147915L68.39687 49.147915L64.95937 49.147915L64.50625 51.460415Q65.27187 50.91354 66.11562 50.91354Q67.24062 50.91354 68.00625 51.69479Q68.7875 52.47604 68.7875 53.710415Q68.7875 54.866665 68.11562 55.72604Q67.2875 56.75729 65.86562 56.75729Q64.69375 56.75729 63.94375 56.10104Q63.209373 55.44479 63.1 54.366665Z" fill-rule="nonzero"/><path fill="#000000" d="M61.646873 21.584375L61.646873 22.6L55.959373 22.6Q55.959373 22.225 56.084373 21.865625Q56.303123 21.2875 56.771873 20.725Q57.25625 20.1625 58.1625 19.428125Q59.56875 18.271875 60.053123 17.6Q60.553123 16.928125 60.553123 16.334375Q60.553123 15.709375 60.1 15.2875Q59.646873 14.85 58.928123 14.85Q58.1625 14.85 57.709373 15.303125Q57.25625 15.75625 57.240623 16.56875L56.1625 16.459375Q56.271873 15.240625 56.990623 14.615625Q57.725 13.975 58.959373 13.975Q60.19375 13.975 60.9125 14.6625Q61.63125 15.35 61.63125 16.365625Q61.63125 16.88125 61.4125 17.38125Q61.209373 17.865625 60.709373 18.428125Q60.225 18.975 59.1 19.928125Q58.146873 20.725 57.865623 21.021875Q57.6 21.303125 57.428123 21.584375L61.646873 21.584375ZM63.1 18.365625Q63.1 16.834375 63.4125 15.9125Q63.725 14.975 64.33437 14.475Q64.95937 13.975 65.89687 13.975Q66.58437 13.975 67.1 14.25625Q67.63125 14.5375 67.975 15.06875Q68.31875 15.584375 68.50625 16.334375Q68.69375 17.084375 68.69375 18.365625Q68.69375 19.88125 68.38125 20.803125Q68.08437 21.725 67.45937 22.240625Q66.85 22.740625 65.89687 22.740625Q64.6625 22.740625 63.94375 21.85Q63.1 20.7875 63.1 18.365625ZM64.17812 18.365625Q64.17812 20.475 64.67812 21.178125Q65.17812 21.88125 65.89687 21.88125Q66.63125 21.88125 67.11562 21.178125Q67.61562 20.475 67.61562 18.365625Q67.61562 16.240625 67.11562 15.553125Q66.63125 14.85 65.88125 14.85Q65.1625 14.85 64.725 15.459375Q64.17812 16.240625 64.17812 18.365625Z" fill-rule="nonzero"/><path stroke="#ff0000" stroke-width="4.0" stroke-linecap="butt" stroke-dasharray="4.0,5.0" d="M358.5 213.4L371.5 213.4" fill-rule="nonzero"/><path fill="#1a1a1a" d="M380.42188 217.4L380.42188 208.80624L383.67188 208.80624Q384.51562 208.80624 384.96875 208.88437Q385.60938 208.99374 386.03125 209.29062Q386.46875 209.5875 386.71875 210.11874Q386.98438 210.65 386.98438 211.29062Q386.98438 212.38437 386.28125 213.15Q385.59375 213.9 383.76562 213.9L381.5625 213.9L381.5625 217.4L380.42188 217.4ZM381.5625 212.9L383.78125 212.9Q384.89062 212.9 385.34375 212.49374Q385.8125 212.07187 385.8125 211.32187Q385.8125 210.79062 385.53125 210.41562Q385.26562 210.025 384.82812 209.9Q384.53125 209.82187 383.76562 209.82187L381.5625 209.82187L381.5625 212.9ZM388.29688 217.4L388.29688 208.80624L389.34375 208.80624L389.34375 211.88437Q390.07812 211.04062 391.20312 211.04062Q391.90625 211.04062 392.40625 211.32187Q392.92188 211.5875 393.14062 212.07187Q393.35938 212.54062 393.35938 213.4625L393.35938 217.4L392.3125 217.4L392.3125 213.4625Q392.3125 212.66562 391.96875 212.30624Q391.625 211.94687 391.0 211.94687Q390.53125 211.94687 390.10938 212.19687Q389.70312 212.43124 389.51562 212.85312Q389.34375 213.25937 389.34375 213.99374L389.34375 217.4L388.29688 217.4ZM401.04688 212.4L401.04688 211.18124L402.17188 211.18124L402.17188 212.15Q402.17188 213.05624 401.95312 213.43124Q401.42188 214.36874 400.3125 214.47812L400.3125 217.4L399.375 217.4L399.375 216.47812Q398.64062 217.54062 397.39062 217.54062Q396.84375 217.54062 396.35938 217.3375Q395.89062 217.11874 395.65625 216.80624Q395.42188 216.47812 395.32812 216.00937Q395.26562 215.69687 395.26562 215.025L395.26562 211.18124L396.32812 211.18124L396.32812 214.63437Q396.32812 215.4625 396.39062 215.74374Q396.59375 216.63437 397.60938 216.63437Q398.09375 216.63437 398.5 216.38437Q398.92188 216.13437 399.09375 215.72812Q399.26562 215.30624 399.26562 214.50937L399.26562 211.18124L400.3125 211.18124L400.3125 214.04062Q401.0625 213.9 401.42188 213.3375Q401.59375 213.0875 401.59375 212.4L401.04688 212.4ZM403.98438 214.29062Q403.98438 215.44687 404.5 216.07187Q405.0 216.66562 405.8125 216.66562Q406.64062 216.66562 407.125 216.07187Q407.64062 215.43124 407.64062 214.25937Q407.64062 213.13437 407.125 212.50937Q406.625 211.91562 405.8125 211.91562Q404.98438 211.91562 404.5 212.49374Q403.98438 213.13437 403.98438 214.29062ZM408.875 212.24374L408.875 211.025L410.0 211.025L410.0 211.99374Q410.0 212.7125 409.78125 213.10312Q409.48438 213.60312 408.73438 214.025Q408.73438 214.11874 408.73438 214.19687Q408.73438 216.38437 407.32812 217.16562Q406.625 217.54062 405.8125 217.54062Q404.48438 217.54062 403.70312 216.69687Q402.90625 215.8375 402.90625 214.29062Q402.90625 212.55624 403.85938 211.72812Q404.65625 211.04062 405.8125 211.04062Q407.09375 211.04062 407.92188 211.86874Q408.53125 212.50937 408.6875 213.525Q409.07812 213.275 409.25 213.00937Q409.42188 212.74374 409.42188 212.24374L408.875 212.24374ZM411.29688 217.4L411.29688 211.18124L412.23438 211.18124L412.23438 212.05624Q412.92188 211.04062 414.21875 211.04062Q414.78125 211.04062 415.25 211.24374Q415.73438 211.44687 415.96875 211.775Q416.20312 212.10312 416.29688 212.54062Q416.34375 212.8375 416.34375 213.57187L416.34375 217.4L415.29688 217.4L415.29688 213.61874Q415.29688 212.9625 415.17188 212.65Q415.04688 212.3375 414.73438 212.15Q414.42188 211.94687 414.0 211.94687Q413.32812 211.94687 412.82812 212.38437Q412.34375 212.80624 412.34375 213.99374L412.34375 217.4L411.29688 217.4ZM418.09375 217.91562L419.125 218.07187Q419.1875 218.54062 419.48438 218.75937Q419.875 219.05624 420.54688 219.05624Q421.28125 219.05624 421.67188 218.75937Q422.07812 218.4625 422.21875 217.94687Q422.3125 217.61874 422.29688 216.5875Q421.60938 217.4 420.57812 217.4Q419.29688 217.4 418.59375 216.47812Q417.89062 215.54062 417.89062 214.25937Q417.89062 213.36874 418.20312 212.61874Q418.53125 211.85312 419.14062 211.44687Q419.75 211.04062 420.57812 211.04062Q421.6875 211.04062 422.40625 211.93124L422.40625 211.18124L423.375 211.18124L423.375 216.55624Q423.375 218.00937 423.07812 218.61874Q422.78125 219.22812 422.14062 219.57187Q421.5 219.93124 420.5625 219.93124Q419.45312 219.93124 418.76562 219.43124Q418.07812 218.93124 418.09375 217.91562ZM418.96875 214.18124Q418.96875 215.4 419.45312 215.9625Q419.9375 216.525 420.67188 216.525Q421.40625 216.525 421.89062 215.9625Q422.39062 215.4 422.39062 214.2125Q422.39062 213.07187 421.875 212.49374Q421.375 211.91562 420.65625 211.91562Q419.95312 211.91562 419.45312 212.49374Q418.96875 213.05624 418.96875 214.18124ZM428.29688 219.79062L428.29688 211.18124L429.25 211.18124L429.25 211.97812Q429.59375 211.50937 430.01562 211.275Q430.45312 211.04062 431.0625 211.04062Q431.85938 211.04062 432.46875 211.44687Q433.07812 211.85312 433.375 212.60312Q433.6875 213.35312 433.6875 214.24374Q433.6875 215.19687 433.34375 215.9625Q433.01562 216.72812 432.35938 217.13437Q431.70312 217.54062 430.98438 217.54062Q430.45312 217.54062 430.03125 217.32187Q429.60938 217.0875 429.34375 216.75937L429.34375 219.79062L428.29688 219.79062ZM429.25 214.32187Q429.25 215.525 429.73438 216.10312Q430.21875 216.66562 430.90625 216.66562Q431.60938 216.66562 432.10938 216.07187Q432.60938 215.47812 432.60938 214.22812Q432.60938 213.04062 432.125 212.4625Q431.64062 211.86874 430.95312 211.86874Q430.28125 211.86874 429.76562 212.49374Q429.25 213.11874 429.25 214.32187ZM435.29688 217.4L435.29688 208.80624L436.34375 208.80624L436.34375 211.88437Q437.07812 211.04062 438.20312 211.04062Q438.90625 211.04062 439.40625 211.32187Q439.92188 211.5875 440.14062 212.07187Q440.35938 212.54062 440.35938 213.4625L440.35938 217.4L439.3125 217.4L439.3125 213.4625Q439.3125 212.66562 438.96875 212.30624Q438.625 211.94687 438.0 211.94687Q437.53125 211.94687 437.10938 212.19687Q436.70312 212.43124 436.51562 212.85312Q436.34375 213.25937 436.34375 213.99374L436.34375 217.4L435.29688 217.4ZM446.35938 216.63437Q445.76562 217.13437 445.21875 217.3375Q444.6875 217.54062 444.0625 217.54062Q443.03125 217.54062 442.48438 217.04062Q441.9375 216.54062 441.9375 215.75937Q441.9375 215.30624 442.14062 214.93124Q442.34375 214.54062 442.6875 214.32187Q443.03125 214.0875 443.45312 213.97812Q443.75 213.88437 444.39062 213.80624Q445.65625 213.66562 446.26562 213.44687Q446.26562 213.22812 446.26562 213.18124Q446.26562 212.525 445.96875 212.25937Q445.5625 211.91562 444.76562 211.91562Q444.03125 211.91562 443.67188 212.18124Q443.3125 212.43124 443.14062 213.0875L442.10938 212.94687Q442.25 212.29062 442.57812 211.88437Q442.90625 211.47812 443.51562 211.25937Q444.125 211.04062 444.92188 211.04062Q445.71875 211.04062 446.21875 211.22812Q446.71875 211.41562 446.95312 211.69687Q447.1875 211.97812 447.28125 212.41562Q447.32812 212.68124 447.32812 213.38437L447.32812 214.79062Q447.32812 216.25937 447.39062 216.65Q447.46875 217.04062 447.67188 217.4L446.5625 217.4Q446.40625 217.07187 446.35938 216.63437ZM446.26562 214.275Q445.6875 214.50937 444.54688 214.68124Q443.89062 214.775 443.625 214.9Q443.35938 215.00937 443.20312 215.22812Q443.0625 215.44687 443.0625 215.72812Q443.0625 216.15 443.375 216.43124Q443.70312 216.7125 444.3125 216.7125Q444.92188 216.7125 445.39062 216.44687Q445.875 216.18124 446.09375 215.7125Q446.26562 215.35312 446.26562 214.66562L446.26562 214.275ZM444.20312 210.4L444.98438 208.75937L446.375 208.75937L445.07812 210.4L444.20312 210.4ZM449.29688 219.79062L449.29688 211.18124L450.25 211.18124L450.25 211.97812Q450.59375 211.50937 451.01562 211.275Q451.45312 211.04062 452.0625 211.04062Q452.85938 211.04062 453.46875 211.44687Q454.07812 211.85312 454.375 212.60312Q454.6875 213.35312 454.6875 214.24374Q454.6875 215.19687 454.34375 215.9625Q454.01562 216.72812 453.35938 217.13437Q452.70312 217.54062 451.98438 217.54062Q451.45312 217.54062 451.03125 217.32187Q450.60938 217.0875 450.34375 216.75937L450.34375 219.79062L449.29688 219.79062ZM450.25 214.32187Q450.25 215.525 450.73438 216.10312Q451.21875 216.66562 451.90625 216.66562Q452.60938 216.66562 453.10938 216.07187Q453.60938 215.47812 453.60938 214.22812Q453.60938 213.04062 453.125 212.4625Q452.64062 211.86874 451.95312 211.86874Q451.28125 211.86874 450.76562 212.49374Q450.25 213.11874 450.25 214.32187ZM461.59375 216.4625L461.75 217.38437Q461.29688 217.47812 460.95312 217.47812Q460.375 217.47812 460.0625 217.30624Q459.75 217.11874 459.60938 216.82187Q459.48438 216.525 459.48438 215.57187L459.48438 211.99374L458.71875 211.99374L458.71875 211.18124L459.48438 211.18124L459.48438 209.63437L460.53125 209.00937L460.53125 211.18124L461.59375 211.18124L461.59375 211.99374L460.53125 211.99374L460.53125 215.63437Q460.53125 216.0875 460.57812 216.2125Q460.64062 216.3375 460.76562 216.41562Q460.89062 216.49374 461.125 216.49374Q461.3125 216.49374 461.59375 216.4625ZM462.28125 217.4L462.28125 211.18124L463.23438 211.18124L463.23438 212.11874Q463.59375 211.4625 463.89062 211.25937Q464.20312 211.04062 464.57812 211.04062Q465.10938 211.04062 465.65625 211.36874L465.29688 212.35312Q464.90625 212.11874 464.53125 212.11874Q464.17188 212.11874 463.89062 212.3375Q463.625 212.54062 463.51562 212.91562Q463.32812 213.47812 463.32812 214.13437L463.32812 217.4L462.28125 217.4ZM470.375 217.4L470.375 216.47812Q469.64062 217.54062 468.39062 217.54062Q467.84375 217.54062 467.35938 217.3375Q466.89062 217.11874 466.65625 216.80624Q466.42188 216.47812 466.32812 216.00937Q466.26562 215.7125 466.26562 215.025L466.26562 211.18124L467.32812 211.18124L467.32812 214.63437Q467.32812 215.44687 467.39062 215.74374Q467.48438 216.15 467.79688 216.4Q468.125 216.63437 468.60938 216.63437Q469.07812 216.63437 469.48438 216.4Q469.90625 216.15 470.07812 215.72812Q470.26562 215.30624 470.26562 214.50937L470.26562 211.18124L471.3125 211.18124L471.3125 217.4L470.375 217.4ZM473.25 219.79062L473.125 218.80624Q473.46875 218.9 473.73438 218.9Q474.07812 218.9 474.28125 218.775Q474.5 218.66562 474.64062 218.4625Q474.73438 218.29062 474.96875 217.66562Q474.98438 217.5875 475.0625 217.41562L472.6875 211.18124L473.82812 211.18124L475.125 214.775Q475.375 215.4625 475.57812 216.22812Q475.76562 215.49374 476.01562 214.80624L477.34375 211.18124L478.39062 211.18124L476.03125 217.50937Q475.64062 218.525 475.4375 218.91562Q475.15625 219.44687 474.78125 219.68124Q474.42188 219.93124 473.92188 219.93124Q473.625 219.93124 473.25 219.79062ZM482.54688 215.4L483.64062 215.525Q483.39062 216.47812 482.6875 217.00937Q481.98438 217.54062 480.90625 217.54062Q479.54688 217.54062 478.73438 216.69687Q477.9375 215.85312 477.9375 214.3375Q477.9375 212.775 478.75 211.91562Q479.5625 211.04062 480.84375 211.04062Q482.09375 211.04062 482.875 211.88437Q483.67188 212.72812 483.67188 214.275Q483.67188 214.36874 483.67188 214.55624L479.03125 214.55624Q479.09375 215.5875 479.60938 216.13437Q480.125 216.66562 480.90625 216.66562Q481.48438 216.66562 481.89062 216.36874Q482.3125 216.05624 482.54688 215.4ZM479.09375 213.69687L482.5625 213.69687Q482.5 212.9 482.17188 212.50937Q481.65625 211.9 480.85938 211.9Q480.125 211.9 479.625 212.38437Q479.14062 212.86874 479.09375 213.69687ZM480.82812 209.4L480.17188 210.4L478.95312 210.4L480.21875 208.75937L481.34375 208.75937L482.67188 210.4L481.46875 210.4L480.82812 209.4ZM481.34375 208.3375L480.48438 208.3375L479.14062 206.69687L480.54688 206.69687L481.34375 208.3375ZM485.29688 217.4L485.29688 211.18124L486.23438 211.18124L486.23438 212.05624Q486.92188 211.04062 488.21875 211.04062Q488.78125 211.04062 489.25 211.24374Q489.73438 211.44687 489.96875 211.775Q490.20312 212.10312 490.29688 212.54062Q490.34375 212.8375 490.34375 213.57187L490.34375 217.4L489.29688 217.4L489.29688 213.61874Q489.29688 212.9625 489.17188 212.65Q489.04688 212.3375 488.73438 212.15Q488.42188 211.94687 488.0 211.94687Q487.32812 211.94687 486.82812 212.38437Q486.34375 212.80624 486.34375 213.99374L486.34375 217.4L485.29688 217.4ZM497.59375 216.4625L497.75 217.38437Q497.29688 217.47812 496.95312 217.47812Q496.375 217.47812 496.0625 217.30624Q495.75 217.11874 495.60938 216.82187Q495.48438 216.525 495.48438 215.57187L495.48438 211.99374L494.71875 211.99374L494.71875 211.18124L495.48438 211.18124L495.48438 209.63437L496.53125 209.00937L496.53125 211.18124L497.59375 211.18124L497.59375 211.99374L496.53125 211.99374L496.53125 215.63437Q496.53125 216.0875 496.57812 216.2125Q496.64062 216.3375 496.76562 216.41562Q496.89062 216.49374 497.125 216.49374Q497.3125 216.49374 497.59375 216.4625ZM498.29688 217.4L498.29688 208.80624L499.34375 208.80624L499.34375 211.88437Q500.07812 211.04062 501.20312 211.04062Q501.90625 211.04062 502.40625 211.32187Q502.92188 211.5875 503.14062 212.07187Q503.35938 212.54062 503.35938 213.4625L503.35938 217.4L502.3125 217.4L502.3125 213.4625Q502.3125 212.66562 501.96875 212.30624Q501.625 211.94687 501.0 211.94687Q500.53125 211.94687 500.10938 212.19687Q499.70312 212.43124 499.51562 212.85312Q499.34375 213.25937 499.34375 213.99374L499.34375 217.4L498.29688 217.4ZM504.90625 214.29062Q504.90625 212.55624 505.85938 211.72812Q506.65625 211.04062 507.8125 211.04062Q509.09375 211.04062 509.90625 211.88437Q510.73438 212.7125 510.73438 214.19687Q510.73438 215.4 510.375 216.0875Q510.01562 216.775 509.3125 217.16562Q508.625 217.54062 507.8125 217.54062Q506.51562 217.54062 505.70312 216.7125Q504.90625 215.86874 504.90625 214.29062ZM505.98438 214.29062Q505.98438 215.47812 506.5 216.07187Q507.03125 216.66562 507.8125 216.66562Q508.60938 216.66562 509.125 216.07187Q509.64062 215.47812 509.64062 214.25937Q509.64062 213.10312 509.10938 212.50937Q508.59375 211.91562 507.8125 211.91562Q507.03125 211.91562 506.5 212.50937Q505.98438 213.0875 505.98438 214.29062ZM507.82812 209.4L507.17188 210.4L505.95312 210.4L507.21875 208.75937L508.34375 208.75937L509.67188 210.4L508.46875 210.4L507.82812 209.4ZM508.01562 206.69687L509.42188 206.69687L508.07812 208.3375L507.21875 208.3375L508.01562 206.69687ZM512.2969 217.4L512.2969 211.18124L513.2344 211.18124L513.2344 212.05624Q513.9219 211.04062 515.21875 211.04062Q515.78125 211.04062 516.25 211.24374Q516.7344 211.44687 516.96875 211.775Q517.2031 212.10312 517.2969 212.54062Q517.34375 212.8375 517.34375 213.57187L517.34375 217.4L516.2969 217.4L516.2969 213.61874Q516.2969 212.9625 516.1719 212.65Q516.0469 212.3375 515.7344 212.15Q515.4219 211.94687 515.0 211.94687Q514.3281 211.94687 513.8281 212.38437Q513.34375 212.80624 513.34375 213.99374L513.34375 217.4L512.2969 217.4ZM519.09375 217.91562L520.125 218.07187Q520.1875 218.54062 520.4844 218.75937Q520.875 219.05624 521.5469 219.05624Q522.28125 219.05624 522.6719 218.75937Q523.0781 218.4625 523.21875 217.94687Q523.3125 217.61874 523.2969 216.5875Q522.6094 217.4 521.5781 217.4Q520.2969 217.4 519.59375 216.47812Q518.8906 215.54062 518.8906 214.25937Q518.8906 213.36874 519.2031 212.61874Q519.53125 211.85312 520.1406 211.44687Q520.75 211.04062 521.5781 211.04062Q522.6875 211.04062 523.40625 211.93124L523.40625 211.18124L524.375 211.18124L524.375 216.55624Q524.375 218.00937 524.0781 218.61874Q523.78125 219.22812 523.1406 219.57187Q522.5 219.93124 521.5625 219.93124Q520.4531 219.93124 519.7656 219.43124Q519.0781 218.93124 519.09375 217.91562ZM519.96875 214.18124Q519.96875 215.4 520.4531 215.9625Q520.9375 216.525 521.6719 216.525Q522.40625 216.525 522.8906 215.9625Q523.3906 215.4 523.3906 214.2125Q523.3906 213.07187 522.875 212.49374Q522.375 211.91562 521.65625 211.91562Q520.9531 211.91562 520.4531 212.49374Q519.96875 213.05624 519.96875 214.18124Z" fill-rule="nonzero"/><path stroke="#0000ff" stroke-width="4.0" stroke-linecap="butt" d="M541.5 213.4L553.5 213.4" fill-rule="nonzero"/><path fill="#1a1a1a" d="M562.4219 217.4L562.4219 208.80624L565.6719 208.80624Q566.5156 208.80624 566.96875 208.88437Q567.6094 208.99374 568.03125 209.29062Q568.46875 209.5875 568.71875 210.11874Q568.9844 210.65 568.9844 211.29062Q568.9844 212.38437 568.28125 213.15Q567.59375 213.9 565.7656 213.9L563.5625 213.9L563.5625 217.4L562.4219 217.4ZM563.5625 212.9L565.78125 212.9Q566.8906 212.9 567.34375 212.49374Q567.8125 212.07187 567.8125 211.32187Q567.8125 210.79062 567.53125 210.41562Q567.2656 210.025 566.8281 209.9Q566.53125 209.82187 565.7656 209.82187L563.5625 209.82187L563.5625 212.9ZM570.2969 217.4L570.2969 208.80624L571.34375 208.80624L571.34375 211.88437Q572.0781 211.04062 573.2031 211.04062Q573.90625 211.04062 574.40625 211.32187Q574.9219 211.5875 575.1406 212.07187Q575.3594 212.54062 575.3594 213.4625L575.3594 217.4L574.3125 217.4L574.3125 213.4625Q574.3125 212.66562 573.96875 212.30624Q573.625 211.94687 573.0 211.94687Q572.53125 211.94687 572.1094 212.19687Q571.7031 212.43124 571.5156 212.85312Q571.34375 213.25937 571.34375 213.99374L571.34375 217.4L570.2969 217.4ZM583.0469 212.4L583.0469 211.18124L584.1719 211.18124L584.1719 212.15Q584.1719 213.05624 583.9531 213.43124Q583.4219 214.36874 582.3125 214.47812L582.3125 217.4L581.375 217.4L581.375 216.47812Q580.6406 217.54062 579.3906 217.54062Q578.84375 217.54062 578.3594 217.3375Q577.8906 217.11874 577.65625 216.80624Q577.4219 216.47812 577.3281 216.00937Q577.2656 215.69687 577.2656 215.025L577.2656 211.18124L578.3281 211.18124L578.3281 214.63437Q578.3281 215.4625 578.3906 215.74374Q578.59375 216.63437 579.6094 216.63437Q580.09375 216.63437 580.5 216.38437Q580.9219 216.13437 581.09375 215.72812Q581.2656 215.30624 581.2656 214.50937L581.2656 211.18124L582.3125 211.18124L582.3125 214.04062Q583.0625 213.9 583.4219 213.3375Q583.59375 213.0875 583.59375 212.4L583.0469 212.4ZM585.9844 214.29062Q585.9844 215.44687 586.5 216.07187Q587.0 216.66562 587.8125 216.66562Q588.6406 216.66562 589.125 216.07187Q589.6406 215.43124 589.6406 214.25937Q589.6406 213.13437 589.125 212.50937Q588.625 211.91562 587.8125 211.91562Q586.9844 211.91562 586.5 212.49374Q585.9844 213.13437 585.9844 214.29062ZM590.875 212.24374L590.875 211.025L592.0 211.025L592.0 211.99374Q592.0 212.7125 591.78125 213.10312Q591.4844 213.60312 590.7344 214.025Q590.7344 214.11874 590.7344 214.19687Q590.7344 216.38437 589.3281 217.16562Q588.625 217.54062 587.8125 217.54062Q586.4844 217.54062 585.7031 216.69687Q584.90625 215.8375 584.90625 214.29062Q584.90625 212.55624 585.8594 211.72812Q586.65625 211.04062 587.8125 211.04062Q589.09375 211.04062 589.9219 211.86874Q590.53125 212.50937 590.6875 213.525Q591.0781 213.275 591.25 213.00937Q591.4219 212.74374 591.4219 212.24374L590.875 212.24374ZM593.2969 217.4L593.2969 211.18124L594.2344 211.18124L594.2344 212.05624Q594.9219 211.04062 596.21875 211.04062Q596.78125 211.04062 597.25 211.24374Q597.7344 211.44687 597.96875 211.775Q598.2031 212.10312 598.2969 212.54062Q598.34375 212.8375 598.34375 213.57187L598.34375 217.4L597.2969 217.4L597.2969 213.61874Q597.2969 212.9625 597.1719 212.65Q597.0469 212.3375 596.7344 212.15Q596.4219 211.94687 596.0 211.94687Q595.3281 211.94687 594.8281 212.38437Q594.34375 212.80624 594.34375 213.99374L594.34375 217.4L593.2969 217.4ZM600.09375 217.91562L601.125 218.07187Q601.1875 218.54062 601.4844 218.75937Q601.875 219.05624 602.5469 219.05624Q603.28125 219.05624 603.6719 218.75937Q604.0781 218.4625 604.21875 217.94687Q604.3125 217.61874 604.2969 216.5875Q603.6094 217.4 602.5781 217.4Q601.2969 217.4 600.59375 216.47812Q599.8906 215.54062 599.8906 214.25937Q599.8906 213.36874 600.2031 212.61874Q600.53125 211.85312 601.1406 211.44687Q601.75 211.04062 602.5781 211.04062Q603.6875 211.04062 604.40625 211.93124L604.40625 211.18124L605.375 211.18124L605.375 216.55624Q605.375 218.00937 605.0781 218.61874Q604.78125 219.22812 604.1406 219.57187Q603.5 219.93124 602.5625 219.93124Q601.4531 219.93124 600.7656 219.43124Q600.0781 218.93124 600.09375 217.91562ZM600.96875 214.18124Q600.96875 215.4 601.4531 215.9625Q601.9375 216.525 602.6719 216.525Q603.40625 216.525 603.8906 215.9625Q604.3906 215.4 604.3906 214.2125Q604.3906 213.07187 603.875 212.49374Q603.375 211.91562 602.65625 211.91562Q601.9531 211.91562 601.4531 212.49374Q600.96875 213.05624 600.96875 214.18124ZM610.2969 219.79062L610.2969 211.18124L611.25 211.18124L611.25 211.97812Q611.59375 211.50937 612.0156 211.275Q612.4531 211.04062 613.0625 211.04062Q613.8594 211.04062 614.46875 211.44687Q615.0781 211.85312 615.375 212.60312Q615.6875 213.35312 615.6875 214.24374Q615.6875 215.19687 615.34375 215.9625Q615.0156 216.72812 614.3594 217.13437Q613.7031 217.54062 612.9844 217.54062Q612.4531 217.54062 612.03125 217.32187Q611.6094 217.0875 611.34375 216.75937L611.34375 219.79062L610.2969 219.79062ZM611.25 214.32187Q611.25 215.525 611.7344 216.10312Q612.21875 216.66562 612.90625 216.66562Q613.6094 216.66562 614.1094 216.07187Q614.6094 215.47812 614.6094 214.22812Q614.6094 213.04062 614.125 212.4625Q613.6406 211.86874 612.9531 211.86874Q612.28125 211.86874 611.7656 212.49374Q611.25 213.11874 611.25 214.32187ZM617.2969 217.4L617.2969 208.80624L618.34375 208.80624L618.34375 211.88437Q619.0781 211.04062 620.2031 211.04062Q620.90625 211.04062 621.40625 211.32187Q621.9219 211.5875 622.1406 212.07187Q622.3594 212.54062 622.3594 213.4625L622.3594 217.4L621.3125 217.4L621.3125 213.4625Q621.3125 212.66562 620.96875 212.30624Q620.625 211.94687 620.0 211.94687Q619.53125 211.94687 619.1094 212.19687Q618.7031 212.43124 618.5156 212.85312Q618.34375 213.25937 618.34375 213.99374L618.34375 217.4L617.2969 217.4ZM628.3594 216.63437Q627.7656 217.13437 627.21875 217.3375Q626.6875 217.54062 626.0625 217.54062Q625.03125 217.54062 624.4844 217.04062Q623.9375 216.54062 623.9375 215.75937Q623.9375 215.30624 624.1406 214.93124Q624.34375 214.54062 624.6875 214.32187Q625.03125 214.0875 625.4531 213.97812Q625.75 213.88437 626.3906 213.80624Q627.65625 213.66562 628.2656 213.44687Q628.2656 213.22812 628.2656 213.18124Q628.2656 212.525 627.96875 212.25937Q627.5625 211.91562 626.7656 211.91562Q626.03125 211.91562 625.6719 212.18124Q625.3125 212.43124 625.1406 213.0875L624.1094 212.94687Q624.25 212.29062 624.5781 211.88437Q624.90625 211.47812 625.5156 211.25937Q626.125 211.04062 626.9219 211.04062Q627.71875 211.04062 628.21875 211.22812Q628.71875 211.41562 628.9531 211.69687Q629.1875 211.97812 629.28125 212.41562Q629.3281 212.68124 629.3281 213.38437L629.3281 214.79062Q629.3281 216.25937 629.3906 216.65Q629.46875 217.04062 629.6719 217.4L628.5625 217.4Q628.40625 217.07187 628.3594 216.63437ZM628.2656 214.275Q627.6875 214.50937 626.5469 214.68124Q625.8906 214.775 625.625 214.9Q625.3594 215.00937 625.2031 215.22812Q625.0625 215.44687 625.0625 215.72812Q625.0625 216.15 625.375 216.43124Q625.7031 216.7125 626.3125 216.7125Q626.9219 216.7125 627.3906 216.44687Q627.875 216.18124 628.09375 215.7125Q628.2656 215.35312 628.2656 214.66562L628.2656 214.275ZM626.2031 210.4L626.9844 208.75937L628.375 208.75937L627.0781 210.4L626.2031 210.4ZM631.2969 219.79062L631.2969 211.18124L632.25 211.18124L632.25 211.97812Q632.59375 211.50937 633.0156 211.275Q633.4531 211.04062 634.0625 211.04062Q634.8594 211.04062 635.46875 211.44687Q636.0781 211.85312 636.375 212.60312Q636.6875 213.35312 636.6875 214.24374Q636.6875 215.19687 636.34375 215.9625Q636.0156 216.72812 635.3594 217.13437Q634.7031 217.54062 633.9844 217.54062Q633.4531 217.54062 633.03125 217.32187Q632.6094 217.0875 632.34375 216.75937L632.34375 219.79062L631.2969 219.79062ZM632.25 214.32187Q632.25 215.525 632.7344 216.10312Q633.21875 216.66562 633.90625 216.66562Q634.6094 216.66562 635.1094 216.07187Q635.6094 215.47812 635.6094 214.22812Q635.6094 213.04062 635.125 212.4625Q634.6406 211.86874 633.9531 211.86874Q633.28125 211.86874 632.7656 212.49374Q632.25 213.11874 632.25 214.32187ZM645.2656 210.25937L643.2344 210.25937L643.2344 209.47812L645.2656 209.47812L645.2656 208.80624L646.3125 208.80624L646.3125 209.47812L647.15625 209.47812L647.15625 210.25937L646.3125 210.25937L646.3125 217.4L645.3281 217.4L645.3281 216.61874Q644.7344 217.54062 643.59375 217.54062Q642.84375 217.54062 642.21875 217.13437Q641.59375 216.7125 641.25 215.97812Q640.90625 215.24374 640.90625 214.29062Q640.90625 213.36874 641.21875 212.60312Q641.53125 211.8375 642.15625 211.44687Q642.78125 211.04062 643.5469 211.04062Q644.1094 211.04062 644.5469 211.275Q644.9844 211.50937 645.2656 211.88437L645.2656 210.25937ZM642.0 214.29062Q642.0 215.49374 642.5 216.0875Q643.0 216.66562 643.6875 216.66562Q644.375 216.66562 644.8594 216.10312Q645.34375 215.54062 645.34375 214.38437Q645.34375 213.10312 644.84375 212.50937Q644.3594 211.91562 643.6406 211.91562Q642.9375 211.91562 642.46875 212.49374Q642.0 213.05624 642.0 214.29062ZM652.5469 215.4L653.6406 215.525Q653.3906 216.47812 652.6875 217.00937Q651.9844 217.54062 650.90625 217.54062Q649.5469 217.54062 648.7344 216.69687Q647.9375 215.85312 647.9375 214.3375Q647.9375 212.775 648.75 211.91562Q649.5625 211.04062 650.84375 211.04062Q652.09375 211.04062 652.875 211.88437Q653.6719 212.72812 653.6719 214.275Q653.6719 214.36874 653.6719 214.55624L649.03125 214.55624Q649.09375 215.5875 649.6094 216.13437Q650.125 216.66562 650.90625 216.66562Q651.4844 216.66562 651.8906 216.36874Q652.3125 216.05624 652.5469 215.4ZM649.09375 213.69687L652.5625 213.69687Q652.5 212.9 652.1719 212.50937Q651.65625 211.9 650.8594 211.9Q650.125 211.9 649.625 212.38437Q649.1406 212.86874 649.09375 213.69687ZM650.8281 209.4L650.1719 210.4L648.9531 210.4L650.21875 208.75937L651.34375 208.75937L652.6719 210.4L651.46875 210.4L650.8281 209.4ZM651.34375 208.3375L650.4844 208.3375L649.1406 206.69687L650.5469 206.69687L651.34375 208.3375ZM657.59375 217.4L659.8594 214.16562L657.7656 211.18124L659.0781 211.18124L660.03125 212.63437Q660.2969 213.05624 660.46875 213.3375Q660.71875 212.94687 660.9375 212.65L661.9844 211.18124L663.25 211.18124L661.09375 214.10312L663.40625 217.4L662.125 217.4L660.84375 215.4625L660.5 214.94687L658.8594 217.4L657.59375 217.4ZM667.375 217.4L667.375 216.47812Q666.6406 217.54062 665.3906 217.54062Q664.84375 217.54062 664.3594 217.3375Q663.8906 217.11874 663.65625 216.80624Q663.4219 216.47812 663.3281 216.00937Q663.2656 215.7125 663.2656 215.025L663.2656 211.18124L664.3281 211.18124L664.3281 214.63437Q664.3281 215.44687 664.3906 215.74374Q664.4844 216.15 664.7969 216.4Q665.125 216.63437 665.6094 216.63437Q666.0781 216.63437 666.4844 216.4Q666.90625 216.15 667.0781 215.72812Q667.2656 215.30624 667.2656 214.50937L667.2656 211.18124L668.3125 211.18124L668.3125 217.4L667.375 217.4ZM674.3594 216.63437Q673.7656 217.13437 673.21875 217.3375Q672.6875 217.54062 672.0625 217.54062Q671.03125 217.54062 670.4844 217.04062Q669.9375 216.54062 669.9375 215.75937Q669.9375 215.30624 670.1406 214.93124Q670.34375 214.54062 670.6875 214.32187Q671.03125 214.0875 671.4531 213.97812Q671.75 213.88437 672.3906 213.80624Q673.65625 213.66562 674.2656 213.44687Q674.2656 213.22812 674.2656 213.18124Q674.2656 212.525 673.96875 212.25937Q673.5625 211.91562 672.7656 211.91562Q672.03125 211.91562 671.6719 212.18124Q671.3125 212.43124 671.1406 213.0875L670.1094 212.94687Q670.25 212.29062 670.5781 211.88437Q670.90625 211.47812 671.5156 211.25937Q672.125 211.04062 672.9219 211.04062Q673.71875 211.04062 674.21875 211.22812Q674.71875 211.41562 674.9531 211.69687Q675.1875 211.97812 675.28125 212.41562Q675.3281 212.68124 675.3281 213.38437L675.3281 214.79062Q675.3281 216.25937 675.3906 216.65Q675.46875 217.04062 675.6719 217.4L674.5625 217.4Q674.40625 217.07187 674.3594 216.63437ZM674.2656 214.275Q673.6875 214.50937 672.5469 214.68124Q671.8906 214.775 671.625 214.9Q671.3594 215.00937 671.2031 215.22812Q671.0625 215.44687 671.0625 215.72812Q671.0625 216.15 671.375 216.43124Q671.7031 216.7125 672.3125 216.7125Q672.9219 216.7125 673.3906 216.44687Q673.875 216.18124 674.09375 215.7125Q674.2656 215.35312 674.2656 214.66562L674.2656 214.275ZM672.8125 209.4L672.15625 210.4L670.9375 210.4L672.2031 208.75937L673.3281 208.75937L674.65625 210.4L673.4531 210.4L672.8125 209.4ZM673.0 206.69687L674.40625 206.69687L673.0625 208.3375L672.2031 208.3375L673.0 206.69687ZM679.59375 216.4625L679.75 217.38437Q679.2969 217.47812 678.9531 217.47812Q678.375 217.47812 678.0625 217.30624Q677.75 217.11874 677.6094 216.82187Q677.4844 216.525 677.4844 215.57187L677.4844 211.99374L676.71875 211.99374L676.71875 211.18124L677.4844 211.18124L677.4844 209.63437L678.53125 209.00937L678.53125 211.18124L679.59375 211.18124L679.59375 211.99374L678.53125 211.99374L678.53125 215.63437Q678.53125 216.0875 678.5781 216.2125Q678.6406 216.3375 678.7656 216.41562Q678.8906 216.49374 679.125 216.49374Q679.3125 216.49374 679.59375 216.4625Z" fill-rule="nonzero"/></svg>