<svg version="1.1" viewBox="0.0 0.0 1038.0 232.0" fill="none" stroke="none" stroke-linecap="square" stroke-miterlimit="10" width="1038" height="232" xmlns:xlink="http://www.w3.org/1999/xlink" xmlns="http://www.w3.org/2000/svg"><path fill="#ffffff" d="M0 0L1038.0 0L1038.0 232.0L0 232.0L0 0Z" fill-rule="nonzero"/><path stroke="#333333" stroke-width="1.0" stroke-linecap="butt" d="M86.5 136.5L1026.5 136.5" fill-rule="nonzero"/><path stroke="#cccccc" stroke-width="1.0" stroke-linecap="butt" d="M86.5 107.5L1026.5 107.5" fill-rule="nonzero"/><path stroke="#cccccc" stroke-width="1.0" stroke-linecap="butt" d="M86.5 77.5L1026.5 77.5" fill-rule="nonzero"/><path stroke="#cccccc" stroke-width="1.0" stroke-linecap="butt" d="M86.5 48.5L1026.5 48.5" fill-rule="nonzero"/><path stroke="#cccccc" stroke-width="1.0" stroke-linecap="butt" d="M86.5 18.5L1026.5 18.5" fill-rule="nonzero"/><clipPath id="id_0"><path d="M86.6 18.6L1026.4 18.6L1026.4 136.66667L86.6 136.66667L86.6 18.6Z" clip-rule="nonzero"/></clipPath><path stroke="#ff0000" stroke-width="2.0" stroke-linecap="butt" stroke-dasharray="8.0,6.0" clip-path="url(#id_0)" d="M99.65278 130.36191L125.75833 129.0927L151.86389 127.06785L177.96945 121.589554L204.075 126.73135L230.18056 121.745995L256.2861 120.960846L282.39166 119.24888L308.49722 127.97991L334.60278 111.30004L360.70834 120.02812L386.8139 132.65535L412.91943 109.000694L439.025 125.83995L465.13055 75.85348L491.2361 129.50002L517.3417 129.6299L543.4472 129.52364L569.5528 128.81523L595.6583 133.40802L621.7639 133.55856L647.86945 133.64417L673.975 133.70615L700.08057 133.88914L726.1861 135.09933L752.2917 120.89296L778.3972 120.02812L804.5028 133.20436L830.60834 128.75029L856.71387 115.68622L882.81946 132.23622L908.925 126.105606L935.0306 115.00734L961.1361 112.513176L987.24164 126.61624L1013.3472 128.3341" fill-rule="nonzero"/><path stroke="#0000ff" stroke-width="2.0" stroke-linecap="butt" clip-path="url(#id_0)" d="M99.65278 129.09859L125.75833 127.9563L151.86389 129.65646L177.96945 118.17743L204.075 130.29697L230.18056 128.90968L256.2861 105.44984L282.39166 113.782394L308.49722 130.17595L334.60278 113.670235L360.70834 83.08801L386.8139 96.228836L412.91943 109.89505L439.025 109.84192L465.13055 129.71254L491.2361 129.92801L517.3417 28.862946L543.4472 126.448L569.5528 126.35944L595.6583 105.73615L621.7639 121.64859L647.86945 131.55733L673.975 105.73025L700.08057 131.80527L726.1861 115.931206L752.2917 96.33804L778.3972 114.71807L804.5028 101.13451L830.60834 109.67958L856.71387 98.787926L882.81946 132.29524L908.925 73.71942L935.0306 64.16488L961.1361 80.98643L987.24164 95.275444L1013.3472 108.84425" fill-rule="nonzero"/><path fill="#000000" fill-opacity="0.0" clip-path="url(#id_0)" d="M102.65278 130.36191C102.65278 132.01877 101.30963 133.36191 99.65278 133.36191C97.995926 133.36191 96.65278 132.01877 96.65278 130.36191C96.65278 128.70505 97.995926 127.36191 99.65278 127.36191C101.30963 127.36191 102.65278 128.70505 102.65278 130.36191Z" fill-rule="nonzero"/><path fill="#000000" fill-opacity="0.0" clip-path="url(#id_0)" d="M128.75833 129.0927C128.75833 130.74954 127.415184 132.0927 125.75833 132.0927C124.10148 132.0927 122.75833 130.74954 122.75833 129.0927C122.75833 127.43584 124.10148 126.09269 125.75833 126.09269C127.415184 126.09269 128.75833 127.43584 128.75833 129.0927Z" fill-rule="nonzero"/><path fill="#000000" fill-opacity="0.0" clip-path="url(#id_0)" d="M154.86389 127.06785C154.86389 128.7247 153.52074 130.06784 151.86389 130.06784C150.20703 130.06784 148.86389 128.7247 148.86389 127.06785C148.86389 125.410995 150.20703 124.06785 151.86389 124.06785C153.52074 124.06785 154.86389 125.410995 154.86389 127.06785Z" fill-rule="nonzero"/><path fill="#000000" fill-opacity="0.0" clip-path="url(#id_0)" d="M180.96945 121.589554C180.96945 123.24641 179.6263 124.589554 177.96945 124.589554C176.31259 124.589554 174.96945 123.24641 174.96945 121.589554C174.96945 119.9327 176.31259 118.589554 177.96945 118.589554C179.6263 118.589554 180.96945 119.9327 180.96945 121.589554Z" fill-rule="nonzero"/><path fill="#000000" fill-opacity="0.0" clip-path="url(#id_0)" d="M207.075 126.73135C207.075 128.38821 205.73186 129.73135 204.075 129.73135C202.41815 129.73135 201.075 128.38821 201.075 126.73135C201.075 125.0745 202.41815 123.73135 204.075 123.73135C205.73186 123.73135 207.075 125.0745 207.075 126.73135Z" fill-rule="nonzero"/><path fill="#000000" fill-opacity="0.0" clip-path="url(#id_0)" d="M233.18056 121.745995C233.18056 123.40285 231.8374 124.745995 230.18056 124.745995C228.5237 124.745995 227.18056 123.40285 227.18056 121.745995C227.18056 120.089134 228.5237 118.745995 230.18056 118.745995C231.8374 118.745995 233.18056 120.089134 233.18056 121.745995Z" fill-rule="nonzero"/><path fill="#000000" fill-opacity="0.0" clip-path="url(#id_0)" d="M259.2861 120.960846C259.2861 122.61771 257.94296 123.960846 256.2861 123.960846C254.62926 123.960846 253.28612 122.61771 253.28612 120.960846C253.28612 119.30399 254.62926 117.960846 256.2861 117.960846C257.94296 117.960846 259.2861 119.30399 259.2861 120.960846Z" fill-rule="nonzero"/><path fill="#000000" fill-opacity="0.0" clip-path="url(#id_0)" d="M285.39166 119.24888C285.39166 120.90574 284.04852 122.24888 282.39166 122.24888C280.7348 122.24888 279.39166 120.90574 279.39166 119.24888C279.39166 117.592026 280.7348 116.24888 282.39166 116.24888C284.04852 116.24888 285.39166 117.592026 285.39166 119.24888Z" fill-rule="nonzero"/><path fill="#000000" fill-opacity="0.0" clip-path="url(#id_0)" d="M311.49722 127.97991C311.49722 129.63676 310.15408 130.9799 308.49722 130.9799C306.84036 130.9799 305.49722 129.63676 305.49722 127.97991C305.49722 126.32306 306.84036 124.97991 308.49722 124.97991C310.15408 124.97991 311.49722 126.32306 311.49722 127.97991Z" fill-rule="nonzero"/><path fill="#000000" fill-opacity="0.0" clip-path="url(#id_0)" d="M337.60278 111.30004C337.60278 112.956894 336.25964 114.30004 334.60278 114.30004C332.94592 114.30004 331.60278 112.956894 331.60278 111.30004C331.60278 109.64319 332.94592 108.30004 334.60278 108.30004C336.25964 108.30004 337.60278 109.64319 337.60278 111.30004Z" fill-rule="nonzero"/><path fill="#000000" fill-opacity="0.0" clip-path="url(#id_0)" d="M363.70834 120.02812C363.70834 121.684975 362.36517 123.02812 360.70834 123.02812C359.05148 123.02812 357.70834 121.684975 357.70834 120.02812C357.70834 118.37127 359.05148 117.02812 360.70834 117.02812C362.36517 117.02812 363.70834 118.37127 363.70834 120.02812Z" fill-rule="nonzero"/><path fill="#000000" fill-opacity="0.0" clip-path="url(#id_0)" d="M389.8139 132.65535C389.8139 134.31221 388.47073 135.65535 386.8139 135.65535C385.15704 135.65535 383.8139 134.31221 383.8139 132.65535C383.8139 130.9985 385.15704 129.65535 386.8139 129.65535C388.47073 129.65535 389.8139 130.9985 389.8139 132.65535Z" fill-rule="nonzero"/><path fill="#000000" fill-opacity="0.0" clip-path="url(#id_0)" d="M415.91943 109.000694C415.91943 110.65755 414.5763 112.000694 412.91943 112.000694C411.2626 112.000694 409.91943 110.65755 409.91943 109.000694C409.91943 107.34384 411.2626 106.000694 412.91943 106.000694C414.5763 106.000694 415.91943 107.34384 415.91943 109.000694Z" fill-rule="nonzero"/><path fill="#000000" fill-opacity="0.0" clip-path="url(#id_0)" d="M442.025 125.83995C442.025 127.49681 440.68185 128.83995 439.025 128.83995C437.36813 128.83995 436.025 127.49681 436.025 125.83995C436.025 124.1831 437.36813 122.83995 439.025 122.83995C440.68185 122.83995 442.025 124.1831 442.025 125.83995Z" fill-rule="nonzero"/><path fill="#000000" fill-opacity="0.0" clip-path="url(#id_0)" d="M468.13055 75.85348C468.13055 77.51033 466.7874 78.85348 465.13055 78.85348C463.4737 78.85348 462.13055 77.51033 462.13055 75.85348C462.13055 74.196625 463.4737 72.85348 465.13055 72.85348C466.7874 72.85348 468.13055 74.196625 468.13055 75.85348Z" fill-rule="nonzero"/><path fill="#000000" fill-opacity="0.0" clip-path="url(#id_0)" d="M494.2361 129.50002C494.2361 131.15688 492.89297 132.50002 491.2361 132.50002C489.57925 132.50002 488.2361 131.15688 488.2361 129.50002C488.2361 127.84316 489.57925 126.50002 491.2361 126.50002C492.89297 126.50002 494.2361 127.84316 494.2361 129.50002Z" fill-rule="nonzero"/><path fill="#000000" fill-opacity="0.0" clip-path="url(#id_0)" d="M520.3417 129.6299C520.3417 131.28674 518.99854 132.6299 517.3417 132.6299C515.6848 132.6299 514.3417 131.28674 514.3417 129.6299C514.3417 127.97304 515.6848 126.62989 517.3417 126.62989C518.99854 126.62989 520.3417 127.97304 520.3417 129.6299Z" fill-rule="nonzero"/><path fill="#000000" fill-opacity="0.0" clip-path="url(#id_0)" d="M546.4472 129.52364C546.4472 131.18048 545.10406 132.52364 543.4472 132.52364C541.79034 132.52364 540.4472 131.18048 540.4472 129.52364C540.4472 127.866776 541.79034 126.523636 543.4472 126.523636C545.10406 126.523636 546.4472 127.866776 546.4472 129.52364Z" fill-rule="nonzero"/><path fill="#000000" fill-opacity="0.0" clip-path="url(#id_0)" d="M572.5528 128.81523C572.5528 130.47209 571.20966 131.81523 569.5528 131.81523C567.89594 131.81523 566.5528 130.47209 566.5528 128.81523C566.5528 127.15838 567.89594 125.81523 569.5528 125.81523C571.20966 125.81523 572.5528 127.15838 572.5528 128.81523Z" fill-rule="nonzero"/><path fill="#000000" fill-opacity="0.0" clip-path="url(#id_0)" d="M598.6583 133.40802C598.6583 135.06488 597.3152 136.40802 595.6583 136.40802C594.00146 136.40802 592.6583 135.06488 592.6583 133.40802C592.6583 131.75117 594.00146 130.40802 595.6583 130.40802C597.3152 130.40802 598.6583 131.75117 598.6583 133.40802Z" fill-rule="nonzero"/><path fill="#000000" fill-opacity="0.0" clip-path="url(#id_0)" d="M624.7639 133.55856C624.7639 135.21541 623.4207 136.55856 621.7639 136.55856C620.10706 136.55856 618.7639 135.21541 618.7639 133.55856C618.7639 131.9017 620.10706 130.55856 621.7639 130.55856C623.4207 130.55856 624.7639 131.9017 624.7639 133.55856Z" fill-rule="nonzero"/><path fill="#000000" fill-opacity="0.0" clip-path="url(#id_0)" d="M650.86945 133.64417C650.86945 135.30101 649.5263 136.64417 647.86945 136.64417C646.2126 136.64417 644.86945 135.30101 644.86945 133.64417C644.86945 131.9873 646.2126 130.64417 647.86945 130.64417C649.5263 130.64417 650.86945 131.9873 650.86945 133.64417Z" fill-rule="nonzero"/><path fill="#000000" fill-opacity="0.0" clip-path="url(#id_0)" d="M676.975 133.70615C676.975 135.363 675.63184 136.70615 673.975 136.70615C672.3181 136.70615 670.975 135.363 670.975 133.70615C670.975 132.04929 672.3181 130.70615 673.975 130.70615C675.63184 130.70615 676.975 132.04929 676.975 133.70615Z" fill-rule="nonzero"/><path fill="#000000" fill-opacity="0.0" clip-path="url(#id_0)" d="M703.08057 133.88914C703.08057 135.546 701.7374 136.88914 700.08057 136.88914C698.4237 136.88914 697.08057 135.546 697.08057 133.88914C697.08057 132.2323 698.4237 130.88914 700.08057 130.88914C701.7374 130.88914 703.08057 132.2323 703.08057 133.88914Z" fill-rule="nonzero"/><path fill="#000000" fill-opacity="0.0" clip-path="url(#id_0)" d="M729.1861 135.09933C729.1861 136.75618 727.84296 138.09933 726.1861 138.09933C724.52924 138.09933 723.1861 136.75618 723.1861 135.09933C723.1861 133.44247 724.52924 132.09933 726.1861 132.09933C727.84296 132.09933 729.1861 133.44247 729.1861 135.09933Z" fill-rule="nonzero"/><path fill="#000000" fill-opacity="0.0" clip-path="url(#id_0)" d="M755.2917 120.89296C755.2917 122.54981 753.94855 123.89296 752.2917 123.89296C750.6348 123.89296 749.2917 122.54981 749.2917 120.89296C749.2917 119.23611 750.6348 117.89296 752.2917 117.89296C753.94855 117.89296 755.2917 119.23611 755.2917 120.89296Z" fill-rule="nonzero"/><path fill="#000000" fill-opacity="0.0" clip-path="url(#id_0)" d="M781.3972 120.02812C781.3972 121.684975 780.0541 123.02812 778.3972 123.02812C776.74036 123.02812 775.3972 121.684975 775.3972 120.02812C775.3972 118.37127 776.74036 117.02812 778.3972 117.02812C780.0541 117.02812 781.3972 118.37127 781.3972 120.02812Z" fill-rule="nonzero"/><path fill="#000000" fill-opacity="0.0" clip-path="url(#id_0)" d="M807.5028 133.20436C807.5028 134.86122 806.1596 136.20436 804.5028 136.20436C802.84595 136.20436 801.5028 134.86122 801.5028 133.20436C801.5028 131.5475 802.84595 130.20436 804.5028 130.20436C806.1596 130.20436 807.5028 131.5475 807.5028 133.20436Z" fill-rule="nonzero"/><path fill="#000000" fill-opacity="0.0" clip-path="url(#id_0)" d="M833.60834 128.75029C833.60834 130.40715 832.2652 131.75029 830.60834 131.75029C828.9515 131.75029 827.60834 130.40715 827.60834 128.75029C827.60834 127.093445 828.9515 125.7503 830.60834 125.7503C832.2652 125.7503 833.60834 127.093445 833.60834 128.75029Z" fill-rule="nonzero"/><path fill="#000000" fill-opacity="0.0" clip-path="url(#id_0)" d="M859.71387 115.68622C859.71387 117.34307 858.3707 118.68622 856.71387 118.68622C855.057 118.68622 853.71387 117.34307 853.71387 115.68622C853.71387 114.029366 855.057 112.68622 856.71387 112.68622C858.3707 112.68622 859.71387 114.029366 859.71387 115.68622Z" fill-rule="nonzero"/><path fill="#000000" fill-opacity="0.0" clip-path="url(#id_0)" d="M885.81946 132.23622C885.81946 133.89307 884.4763 135.23622 882.81946 135.23622C881.1626 135.23622 879.81946 133.89307 879.81946 132.23622C879.81946 130.57936 881.1626 129.23622 882.81946 129.23622C884.4763 129.23622 885.81946 130.57936 885.81946 132.23622Z" fill-rule="nonzero"/><path fill="#000000" fill-opacity="0.0" clip-path="url(#id_0)" d="M911.925 126.105606C911.925 127.76246 910.58185 129.1056 908.925 129.1056C907.2681 129.1056 905.925 127.76246 905.925 126.105606C905.925 124.448746 907.2681 123.105606 908.925 123.105606C910.58185 123.105606 911.925 124.448746 911.925 126.105606Z" fill-rule="nonzero"/><path fill="#000000" fill-opacity="0.0" clip-path="url(#id_0)" d="M938.0306 115.00734C938.0306 116.66419 936.68744 118.00734 935.0306 118.00734C933.3737 118.00734 932.0306 116.66419 932.0306 115.00734C932.0306 113.35048 933.3737 112.00734 935.0306 112.00734C936.68744 112.00734 938.0306 113.35048 938.0306 115.00734Z" fill-rule="nonzero"/><path fill="#000000" fill-opacity="0.0" clip-path="url(#id_0)" d="M964.1361 112.513176C964.1361 114.17004 962.79297 115.513176 961.1361 115.513176C959.47925 115.513176 958.1361 114.17004 958.1361 112.513176C958.1361 110.85632 959.47925 109.513176 961.1361 109.513176C962.79297 109.513176 964.1361 110.85632 964.1361 112.513176Z" fill-rule="nonzero"/><path fill="#000000" fill-opacity="0.0" clip-path="url(#id_0)" d="M990.24164 126.61624C990.24164 128.2731 988.8985 129.61624 987.24164 129.61624C985.58484 129.61624 984.24164 128.2731 984.24164 126.61624C984.24164 124.95939 985.58484 123.61624 987.24164 123.61624C988.8985 123.61624 990.24164 124.95939 990.24164 126.61624Z" fill-rule="nonzero"/><path fill="#000000" fill-opacity="0.0" clip-path="url(#id_0)" d="M1016.3472 128.3341C1016.3472 129.99097 1015.0041 131.3341 1013.3472 131.3341C1011.69037 131.3341 1010.3472 129.99097 1010.3472 128.3341C1010.3472 126.67725 1011.69037 125.334114 1013.3472 125.334114C1015.0041 125.334114 1016.3472 126.67725 1016.3472 128.3341Z" fill-rule="nonzero"/><path fill="#000000" fill-opacity="0.0" clip-path="url(#id_0)" d="M102.65278 129.09859C102.65278 130.75545 101.30963 132.09859 99.65278 132.09859C97.995926 132.09859 96.65278 130.75545 96.65278 129.09859C96.65278 127.44174 97.995926 126.098595 99.65278 126.098595C101.30963 126.098595 102.65278 127.44174 102.65278 129.09859Z" fill-rule="nonzero"/><path fill="#000000" fill-opacity="0.0" clip-path="url(#id_0)" d="M128.75833 127.9563C128.75833 129.61316 127.415184 130.9563 125.75833 130.9563C124.10148 130.9563 122.75833 129.61316 122.75833 127.9563C122.75833 126.299446 124.10148 124.9563 125.75833 124.9563C127.415184 124.9563 128.75833 126.299446 128.75833 127.9563Z" fill-rule="nonzero"/><path fill="#000000" fill-opacity="0.0" clip-path="url(#id_0)" d="M154.86389 129.65646C154.86389 131.31331 153.52074 132.65646 151.86389 132.65646C150.20703 132.65646 148.86389 131.31331 148.86389 129.65646C148.86389 127.9996 150.20703 126.656456 151.86389 126.656456C153.52074 126.656456 154.86389 127.9996 154.86389 129.65646Z" fill-rule="nonzero"/><path fill="#000000" fill-opacity="0.0" clip-path="url(#id_0)" d="M180.96945 118.17743C180.96945 119.83428 179.6263 121.17743 177.96945 121.17743C176.31259 121.17743 174.96945 119.83428 174.96945 118.17743C174.96945 116.52057 176.31259 115.17743 177.96945 115.17743C179.6263 115.17743 180.96945 116.52057 180.96945 118.17743Z" fill-rule="nonzero"/><path fill="#000000" fill-opacity="0.0" clip-path="url(#id_0)" d="M207.075 130.29697C207.075 131.95383 205.73186 133.29697 204.075 133.29697C202.41815 133.29697 201.075 131.95383 201.075 130.29697C201.075 128.64012 202.41815 127.29697 204.075 127.29697C205.73186 127.29697 207.075 128.64012 207.075 130.29697Z" fill-rule="nonzero"/><path fill="#000000" fill-opacity="0.0" clip-path="url(#id_0)" d="M233.18056 128.90968C233.18056 130.56654 231.8374 131.90968 230.18056 131.90968C228.5237 131.90968 227.18056 130.56654 227.18056 128.90968C227.18056 127.25283 228.5237 125.90968 230.18056 125.90968C231.8374 125.90968 233.18056 127.25283 233.18056 128.90968Z" fill-rule="nonzero"/><path fill="#000000" fill-opacity="0.0" clip-path="url(#id_0)" d="M259.2861 105.44984C259.2861 107.1067 257.94296 108.44984 256.2861 108.44984C254.62926 108.44984 253.28612 107.1067 253.28612 105.44984C253.28612 103.792984 254.62926 102.44984 256.2861 102.44984C257.94296 102.44984 259.2861 103.792984 259.2861 105.44984Z" fill-rule="nonzero"/><path fill="#000000" fill-opacity="0.0" clip-path="url(#id_0)" d="M285.39166 113.782394C285.39166 115.43925 284.04852 116.782394 282.39166 116.782394C280.7348 116.782394 279.39166 115.43925 279.39166 113.782394C279.39166 112.12554 280.7348 110.782394 282.39166 110.782394C284.04852 110.782394 285.39166 112.12554 285.39166 113.782394Z" fill-rule="nonzero"/><path fill="#000000" fill-opacity="0.0" clip-path="url(#id_0)" d="M311.49722 130.17595C311.49722 131.83281 310.15408 133.17595 308.49722 133.17595C306.84036 133.17595 305.49722 131.83281 305.49722 130.17595C305.49722 128.5191 306.84036 127.17595 308.49722 127.17595C310.15408 127.17595 311.49722 128.5191 311.49722 130.17595Z" fill-rule="nonzero"/><path fill="#000000" fill-opacity="0.0" clip-path="url(#id_0)" d="M337.60278 113.670235C337.60278 115.32709 336.25964 116.670235 334.60278 116.670235C332.94592 116.670235 331.60278 115.32709 331.60278 113.670235C331.60278 112.013374 332.94592 110.670235 334.60278 110.670235C336.25964 110.670235 337.60278 112.013374 337.60278 113.670235Z" fill-rule="nonzero"/><path fill="#000000" fill-opacity="0.0" clip-path="url(#id_0)" d="M363.70834 83.08801C363.70834 84.744865 362.36517 86.08801 360.70834 86.08801C359.05148 86.08801 357.70834 84.744865 357.70834 83.08801C357.70834 81.43116 359.05148 80.08801 360.70834 80.08801C362.36517 80.08801 363.70834 81.43116 363.70834 83.08801Z" fill-rule="nonzero"/><path fill="#000000" fill-opacity="0.0" clip-path="url(#id_0)" d="M389.8139 96.228836C389.8139 97.88569 388.47073 99.228836 386.8139 99.228836C385.15704 99.228836 383.8139 97.88569 383.8139 96.228836C383.8139 94.571976 385.15704 93.228836 386.8139 93.228836C388.47073 93.228836 389.8139 94.571976 389.8139 96.228836Z" fill-rule="nonzero"/><path fill="#000000" fill-opacity="0.0" clip-path="url(#id_0)" d="M415.91943 109.89505C415.91943 111.5519 414.5763 112.89505 412.91943 112.89505C411.2626 112.89505 409.91943 111.5519 409.91943 109.89505C409.91943 108.2382 411.2626 106.89505 412.91943 106.89505C414.5763 106.89505 415.91943 108.2382 415.91943 109.89505Z" fill-rule="nonzero"/><path fill="#000000" fill-opacity="0.0" clip-path="url(#id_0)" d="M442.025 109.84192C442.025 111.49877 440.68185 112.84192 439.025 112.84192C437.36813 112.84192 436.025 111.49877 436.025 109.84192C436.025 108.18507 437.36813 106.84192 439.025 106.84192C440.68185 106.84192 442.025 108.18507 442.025 109.84192Z" fill-rule="nonzero"/><path fill="#000000" fill-opacity="0.0" clip-path="url(#id_0)" d="M468.13055 129.71254C468.13055 131.3694 466.7874 132.71254 465.13055 132.71254C463.4737 132.71254 462.13055 131.3694 462.13055 129.71254C462.13055 128.05568 463.4737 126.71254 465.13055 126.71254C466.7874 126.71254 468.13055 128.05568 468.13055 129.71254Z" fill-rule="nonzero"/><path fill="#000000" fill-opacity="0.0" clip-path="url(#id_0)" d="M494.2361 129.92801C494.2361 131.58487 492.89297 132.92801 491.2361 132.92801C489.57925 132.92801 488.2361 131.58487 488.2361 129.92801C488.2361 128.27116 489.57925 126.92801 491.2361 126.92801C492.89297 126.92801 494.2361 128.27116 494.2361 129.92801Z" fill-rule="nonzero"/><path fill="#000000" fill-opacity="0.0" clip-path="url(#id_0)" d="M520.3417 28.862946C520.3417 30.5198 518.99854 31.862946 517.3417 31.862946C515.6848 31.862946 514.3417 30.5198 514.3417 28.862946C514.3417 27.20609 515.6848 25.862946 517.3417 25.862946C518.99854 25.862946 520.3417 27.20609 520.3417 28.862946Z" fill-rule="nonzero"/><path fill="#000000" fill-opacity="0.0" clip-path="url(#id_0)" d="M546.4472 126.448C546.4472 128.10486 545.10406 129.448 543.4472 129.448C541.79034 129.448 540.4472 128.10486 540.4472 126.448C540.4472 124.791145 541.79034 123.448 543.4472 123.448C545.10406 123.448 546.4472 124.791145 546.4472 126.448Z" fill-rule="nonzero"/><path fill="#000000" fill-opacity="0.0" clip-path="url(#id_0)" d="M572.5528 126.35944C572.5528 128.0163 571.20966 129.35945 569.5528 129.35945C567.89594 129.35945 566.5528 128.0163 566.5528 126.35944C566.5528 124.70259 567.89594 123.35944 569.5528 123.35944C571.20966 123.35944 572.5528 124.70259 572.5528 126.35944Z" fill-rule="nonzero"/><path fill="#000000" fill-opacity="0.0" clip-path="url(#id_0)" d="M598.6583 105.73615C598.6583 107.393005 597.3152 108.73615 595.6583 108.73615C594.00146 108.73615 592.6583 107.393005 592.6583 105.73615C592.6583 104.0793 594.00146 102.73615 595.6583 102.73615C597.3152 102.73615 598.6583 104.0793 598.6583 105.73615Z" fill-rule="nonzero"/><path fill="#000000" fill-opacity="0.0" clip-path="url(#id_0)" d="M624.7639 121.64859C624.7639 123.30544 623.4207 124.64859 621.7639 124.64859C620.10706 124.64859 618.7639 123.30544 618.7639 121.64859C618.7639 119.99173 620.10706 118.64859 621.7639 118.64859C623.4207 118.64859 624.7639 119.99173 624.7639 121.64859Z" fill-rule="nonzero"/><path fill="#000000" fill-opacity="0.0" clip-path="url(#id_0)" d="M650.86945 131.55733C650.86945 133.21419 649.5263 134.55733 647.86945 134.55733C646.2126 134.55733 644.86945 133.21419 644.86945 131.55733C644.86945 129.90048 646.2126 128.55733 647.86945 128.55733C649.5263 128.55733 650.86945 129.90048 650.86945 131.55733Z" fill-rule="nonzero"/><path fill="#000000" fill-opacity="0.0" clip-path="url(#id_0)" d="M676.975 105.73025C676.975 107.3871 675.63184 108.73025 673.975 108.73025C672.3181 108.73025 670.975 107.3871 670.975 105.73025C670.975 104.073395 672.3181 102.73025 673.975 102.73025C675.63184 102.73025 676.975 104.073395 676.975 105.73025Z" fill-rule="nonzero"/><path fill="#000000" fill-opacity="0.0" clip-path="url(#id_0)" d="M703.08057 131.80527C703.08057 133.46213 701.7374 134.80527 700.08057 134.80527C698.4237 134.80527 697.08057 133.46213 697.08057 131.80527C697.08057 130.14842 698.4237 128.80527 700.08057 128.80527C701.7374 128.80527 703.08057 130.14842 703.08057 131.80527Z" fill-rule="nonzero"/><path fill="#000000" fill-opacity="0.0" clip-path="url(#id_0)" d="M729.1861 115.931206C729.1861 117.588066 727.84296 118.931206 726.1861 118.931206C724.52924 118.931206 723.1861 117.588066 723.1861 115.931206C723.1861 114.27435 724.52924 112.931206 726.1861 112.931206C727.84296 112.931206 729.1861 114.27435 729.1861 115.931206Z" fill-rule="nonzero"/><path fill="#000000" fill-opacity="0.0" clip-path="url(#id_0)" d="M755.2917 96.33804C755.2917 97.994896 753.94855 99.33804 752.2917 99.33804C750.6348 99.33804 749.2917 97.994896 749.2917 96.33804C749.2917 94.68119 750.6348 93.33804 752.2917 93.33804C753.94855 93.33804 755.2917 94.68119 755.2917 96.33804Z" fill-rule="nonzero"/><path fill="#000000" fill-opacity="0.0" clip-path="url(#id_0)" d="M781.3972 114.71807C781.3972 116.37493 780.0541 117.71807 778.3972 117.71807C776.74036 117.71807 775.3972 116.37493 775.3972 114.71807C775.3972 113.06122 776.74036 111.71807 778.3972 111.71807C780.0541 111.71807 781.3972 113.06122 781.3972 114.71807Z" fill-rule="nonzero"/><path fill="#000000" fill-opacity="0.0" clip-path="url(#id_0)" d="M807.5028 101.13451C807.5028 102.79136 806.1596 104.13451 804.5028 104.13451C802.84595 104.13451 801.5028 102.79136 801.5028 101.13451C801.5028 99.477646 802.84595 98.13451 804.5028 98.13451C806.1596 98.13451 807.5028 99.477646 807.5028 101.13451Z" fill-rule="nonzero"/><path fill="#000000" fill-opacity="0.0" clip-path="url(#id_0)" d="M833.60834 109.67958C833.60834 111.33643 832.2652 112.67958 830.60834 112.67958C828.9515 112.67958 827.60834 111.33643 827.60834 109.67958C827.60834 108.02272 828.9515 106.67958 830.60834 106.67958C832.2652 106.67958 833.60834 108.02272 833.60834 109.67958Z" fill-rule="nonzero"/><path fill="#000000" fill-opacity="0.0" clip-path="url(#id_0)" d="M859.71387 98.787926C859.71387 100.444786 858.3707 101.787926 856.71387 101.787926C855.057 101.787926 853.71387 100.444786 853.71387 98.787926C853.71387 97.13107 855.057 95.787926 856.71387 95.787926C858.3707 95.787926 859.71387 97.13107 859.71387 98.787926Z" fill-rule="nonzero"/><path fill="#000000" fill-opacity="0.0" clip-path="url(#id_0)" d="M885.81946 132.29524C885.81946 133.9521 884.4763 135.29524 882.81946 135.29524C881.1626 135.29524 879.81946 133.9521 879.81946 132.29524C879.81946 130.6384 881.1626 129.29524 882.81946 129.29524C884.4763 129.29524 885.81946 130.6384 885.81946 132.29524Z" fill-rule="nonzero"/><path fill="#000000" fill-opacity="0.0" clip-path="url(#id_0)" d="M911.925 73.71942C911.925 75.376274 910.58185 76.71942 908.925 76.71942C907.2681 76.71942 905.925 75.376274 905.925 73.71942C905.925 72.06257 907.2681 70.71942 908.925 70.71942C910.58185 70.71942 911.925 72.06257 911.925 73.71942Z" fill-rule="nonzero"/><path fill="#000000" fill-opacity="0.0" clip-path="url(#id_0)" d="M938.0306 64.16488C938.0306 65.82173 936.68744 67.16488 935.0306 67.16488C933.3737 67.16488 932.0306 65.82173 932.0306 64.16488C932.0306 62.508022 933.3737 61.16488 935.0306 61.16488C936.68744 61.16488 938.0306 62.508022 938.0306 64.16488Z" fill-rule="nonzero"/><path fill="#000000" fill-opacity="0.0" clip-path="url(#id_0)" d="M964.1361 80.98643C964.1361 82.64328 962.79297 83.98643 961.1361 83.98643C959.47925 83.98643 958.1361 82.64328 958.1361 80.98643C958.1361 79.329575 959.47925 77.98643 961.1361 77.98643C962.79297 77.98643 964.1361 79.329575 964.1361 80.98643Z" fill-rule="nonzero"/><path fill="#000000" fill-opacity="0.0" clip-path="url(#id_0)" d="M990.24164 95.275444C990.24164 96.9323 988.8985 98.275444 987.24164 98.275444C985.58484 98.275444 984.24164 96.9323 984.24164 95.275444C984.24164 93.61859 985.58484 92.275444 987.24164 92.275444C988.8985 92.275444 990.24164 93.61859 990.24164 95.275444Z" fill-rule="nonzero"/><path fill="#000000" fill-opacity="0.0" clip-path="url(#id_0)" d="M1016.3472 108.84425C1016.3472 110.501114 1015.0041 111.84425 1013.3472 111.84425C1011.69037 111.84425 1010.3472 110.501114 1010.3472 108.84425C1010.3472 107.1874 1011.69037 105.84425 1013.3472 105.84425C1015.0041 105.84425 1016.3472 107.1874 1016.3472 108.84425Z" fill-rule="nonzero"/><path fill="#000000" d="M494.39062 187.66667L494.39062 181.8073L492.96875 181.8073L492.96875 180.65105L494.39062 180.65105L494.39062 174.77605L498.84375 174.77605Q500.32812 174.77605 501.125 174.96355Q502.23438 175.21355 503.01562 175.88542Q504.03125 176.7448 504.53125 178.08855Q505.04688 179.4323 505.04688 181.15105Q505.04688 183.1198 504.42188 184.54167Q503.79688 185.96355 502.92188 186.60417Q502.04688 187.2448 500.92188 187.51042Q500.29688 187.66667 499.03125 187.66667L494.39062 187.66667ZM496.09375 186.15105L498.84375 186.15105Q500.125 186.15105 500.84375 185.91667Q501.5625 185.66667 501.98438 185.2448Q502.59375 184.63542 502.9375 183.6198Q503.28125 182.60417 503.28125 181.13542Q503.28125 179.6198 502.9375 178.71355Q502.60938 177.8073 502.0625 177.27605Q501.51562 176.72917 500.84375 176.52605Q500.1875 176.3073 498.79688 176.3073L496.09375 176.3073L496.09375 180.65105L499.64062 180.65105L499.64062 181.8073L496.09375 181.8073L496.09375 186.15105ZM508.21875 182.9948Q508.21875 184.72917 509.0 185.6823Q509.75 186.57292 510.96875 186.57292Q512.2031 186.57292 512.9375 185.6823Q513.71875 184.72917 513.71875 182.94792Q513.71875 181.26042 512.9219 180.32292Q512.1875 179.4323 510.96875 179.4323Q509.73438 179.4323 509.0 180.32292Q508.21875 181.26042 508.21875 182.9948ZM515.5469 179.94792L515.5469 178.10417L517.25 178.10417L517.25 179.5573Q517.25 180.65105 516.9219 181.22917Q516.4844 181.97917 515.34375 182.6198Q515.34375 182.72917 515.34375 182.8698Q515.34375 186.13542 513.2344 187.3073Q512.2031 187.88542 510.96875 187.88542Q508.96875 187.88542 507.79688 186.6198Q506.59375 185.32292 506.59375 182.9948Q506.59375 180.40105 508.04688 179.15105Q509.25 178.1198 510.96875 178.1198Q512.90625 178.1198 514.125 179.38542Q515.0469 180.33855 515.2656 181.85417Q515.875 181.47917 516.125 181.08855Q516.3906 180.6823 516.375 179.94792L515.5469 179.94792ZM519.1875 187.66667L519.1875 178.33855L520.6094 178.33855L520.6094 179.66667Q521.6406 178.1198 523.5781 178.1198Q524.4219 178.1198 525.125 178.4323Q525.84375 178.72917 526.1875 179.22917Q526.5469 179.71355 526.6875 180.38542Q526.7656 180.82292 526.7656 181.9323L526.7656 187.66667L525.1875 187.66667L525.1875 181.9948Q525.1875 181.02605 525.0 180.54167Q524.8281 180.0573 524.34375 179.77605Q523.875 179.4948 523.25 179.4948Q522.2344 179.4948 521.5 180.13542Q520.7656 180.77605 520.7656 182.57292L520.7656 187.66667L519.1875 187.66667ZM536.78125 187.66667L533.2344 178.33855L534.90625 178.33855L536.90625 183.91667Q537.2344 184.82292 537.5 185.8073Q537.71875 185.0573 538.09375 184.02605L540.15625 178.33855L541.7969 178.33855L538.25 187.66667L536.78125 187.66667ZM543.2031 176.60417L543.2031 174.77605L544.78125 174.77605L544.78125 176.60417L543.2031 176.60417ZM543.2031 187.66667L543.2031 178.33855L544.78125 178.33855L544.78125 187.66667L543.2031 187.66667ZM543.09375 190.52605L543.09375 188.72917L544.8906 188.72917L544.8906 190.52605L543.09375 190.52605ZM552.2031 187.66667L552.2031 174.77605L553.78125 174.77605L553.78125 182.13542L557.5156 178.33855L559.5625 178.33855L556.0 181.79167L559.9375 187.66667L557.9844 187.66667L554.8906 182.90105L553.78125 183.96355L553.78125 187.66667L552.2031 187.66667ZM561.2031 176.60417L561.2031 174.77605L562.78125 174.77605L562.78125 176.60417L561.2031 176.60417ZM561.2031 187.66667L561.2031 178.33855L562.78125 178.33855L562.78125 187.66667L561.2031 187.66667ZM571.5781 184.66667L573.21875 184.8698Q572.8281 186.29167 571.78125 187.08855Q570.7344 187.88542 569.1094 187.88542Q567.0625 187.88542 565.8594 186.6198Q564.65625 185.35417 564.65625 183.07292Q564.65625 180.72917 565.8594 179.4323Q567.0781 178.1198 569.0156 178.1198Q570.8906 178.1198 572.0781 179.40105Q573.2656 180.66667 573.2656 182.97917Q573.2656 183.1198 573.25 183.40105L566.2969 183.40105Q566.375 184.94792 567.15625 185.76042Q567.9531 186.57292 569.1094 186.57292Q569.9844 186.57292 570.59375 186.1198Q571.21875 185.66667 571.5781 184.66667ZM566.375 182.10417L571.59375 182.10417Q571.4844 180.9323 571.0 180.33855Q570.2344 179.41667 569.03125 179.41667Q567.9531 179.41667 567.2031 180.15105Q566.46875 180.88542 566.375 182.10417ZM568.9844 175.6823L567.9844 177.16667L566.1719 177.16667L568.0781 174.71355L569.7656 174.71355L571.7344 177.16667L569.9375 177.16667L568.9844 175.6823ZM568.46875 173.38542Q568.96875 173.33855 569.1094 173.29167Q569.5781 173.1823 569.59375 172.9323Q569.59375 172.72917 569.34375 172.58855Q568.96875 172.38542 568.1719 172.38542Q567.90625 172.38542 567.34375 172.4323L567.25 171.60417Q567.59375 171.52605 568.5156 171.54167Q569.59375 171.54167 570.28125 171.88542Q571.03125 172.26042 571.0625 172.85417Q571.09375 173.72917 569.4531 173.9323L569.4531 174.3698L568.46875 174.3698L568.46875 173.38542ZM575.1875 187.66667L575.1875 178.33855L576.6094 178.33855L576.6094 179.63542Q577.0469 178.96355 577.7656 178.54167Q578.5 178.1198 579.4375 178.1198Q580.46875 178.1198 581.125 178.5573Q581.7969 178.97917 582.0625 179.76042Q583.1719 178.1198 584.9531 178.1198Q586.34375 178.1198 587.0781 178.90105Q587.8281 179.66667 587.8281 181.26042L587.8281 187.66667L586.2656 187.66667L586.2656 181.79167Q586.2656 180.83855 586.1094 180.41667Q585.9531 179.9948 585.5469 179.7448Q585.1406 179.4948 584.59375 179.4948Q583.6094 179.4948 582.9531 180.15105Q582.3125 180.8073 582.3125 182.2448L582.3125 187.66667L580.7344 187.66667L580.7344 181.60417Q580.7344 180.54167 580.34375 180.02605Q579.9531 179.4948 579.0781 179.4948Q578.40625 179.4948 577.84375 179.85417Q577.28125 180.19792 577.0156 180.8698Q576.7656 181.54167 576.7656 182.82292L576.7656 187.66667L575.1875 187.66667ZM597.6406 186.2448L597.875 187.65105Q597.2031 187.79167 596.6719 187.79167Q595.8125 187.79167 595.3281 187.52605Q594.8594 187.2448 594.6719 186.8073Q594.4844 186.35417 594.4844 184.9323L594.4844 179.5573L593.3125 179.5573L593.3125 178.33855L594.4844 178.33855L594.4844 176.02605L596.0469 175.07292L596.0469 178.33855L597.6406 178.33855L597.6406 179.5573L596.0469 179.5573L596.0469 185.02605Q596.0469 185.69792 596.125 185.90105Q596.21875 186.08855 596.40625 186.19792Q596.59375 186.3073 596.9531 186.3073Q597.2031 186.3073 597.6406 186.2448ZM599.1875 187.66667L599.1875 174.77605L600.7656 174.77605L600.7656 179.40105Q601.875 178.1198 603.5625 178.1198Q604.59375 178.1198 605.3594 178.52605Q606.125 178.9323 606.4531 179.66667Q606.7969 180.38542 606.7969 181.7448L606.7969 187.66667L605.2031 187.66667L605.2031 181.7448Q605.2031 180.5573 604.6875 180.02605Q604.1719 179.47917 603.2344 179.47917Q602.53125 179.47917 601.90625 179.85417Q601.2969 180.21355 601.03125 180.83855Q600.7656 181.46355 600.7656 182.5573L600.7656 187.66667L599.1875 187.66667ZM617.8125 180.16667L617.8125 178.33855L619.5 178.33855L619.5 179.77605Q619.5 181.16667 619.1875 181.71355Q618.375 183.1198 616.71875 183.29167L616.71875 187.66667L615.2969 187.66667L615.2969 186.29167Q614.21875 187.88542 612.34375 187.88542Q611.53125 187.88542 610.8125 187.57292Q610.09375 187.26042 609.7344 186.77605Q609.3906 186.29167 609.25 185.58855Q609.15625 185.1198 609.15625 184.1198L609.15625 178.33855L610.7344 178.33855L610.7344 183.51042Q610.7344 184.76042 610.8281 185.1823Q611.1406 186.51042 612.65625 186.51042Q613.3906 186.51042 614.0 186.15105Q614.625 185.77605 614.875 185.15105Q615.1406 184.52605 615.1406 183.33855L615.1406 178.33855L616.71875 178.33855L616.71875 182.6198Q617.8281 182.4323 618.3906 181.57292Q618.6406 181.21355 618.6406 180.16667L617.8125 180.16667ZM612.4375 176.1198Q612.9375 176.0573 613.0781 176.02605Q613.5469 175.8698 613.5469 175.52605Q613.5625 175.32292 613.3125 175.1823Q612.9375 174.97917 612.1406 174.97917Q611.8594 174.97917 611.3125 175.02605L611.21875 174.1198Q611.5625 174.0573 612.4844 174.0573Q613.5625 174.07292 614.25 174.41667Q615.0 174.77605 615.0156 175.44792Q615.0625 176.52605 613.4219 176.72917L613.4219 177.16667L612.4375 177.16667L612.4375 176.1198Z" fill-rule="nonzero"/><path fill="#000000" d="M28.600004 136.46146L17.24063 136.46146L17.24063 140.71146L15.70938 140.71146L15.70938 130.4927L17.24063 130.4927L17.24063 134.75833L28.600004 134.75833L28.600004 136.46146ZM28.600004 127.94583L15.70938 127.94583L15.70938 126.36771L20.33438 126.36771Q19.05313 125.25833 19.05313 123.57083Q19.05313 122.53959 19.45938 121.773964Q19.86563 121.00834 20.600004 120.680214Q21.318754 120.336464 22.67813 120.336464L28.600004 120.336464L28.600004 121.930214L22.67813 121.930214Q21.49063 121.930214 20.95938 122.44584Q20.412504 122.961464 20.412504 123.89896Q20.412504 124.60208 20.787504 125.22708Q21.14688 125.83646 21.77188 126.10208Q22.39688 126.36771 23.49063 126.36771L28.600004 126.36771L28.600004 127.94583ZM23.92813 116.91459Q25.662504 116.91459 26.61563 116.13334Q27.506254 115.38334 27.506254 114.16459Q27.506254 112.930214 26.61563 112.19584Q25.662504 111.41459 23.881254 111.41459Q22.193754 111.41459 21.256254 112.211464Q20.36563 112.94584 20.36563 114.16459Q20.36563 115.398964 21.256254 116.13334Q22.193754 116.91459 23.92813 116.91459ZM20.881254 109.586464L19.037504 109.586464L19.037504 107.88334L20.49063 107.88334Q21.58438 107.88334 22.162504 108.211464Q22.912504 108.648964 23.55313 109.78959Q23.662504 109.78959 23.80313 109.78959Q27.068754 109.78959 28.24063 111.898964Q28.818754 112.930214 28.818754 114.16459Q28.818754 116.16459 27.55313 117.336464Q26.256254 118.53959 23.92813 118.53959Q21.33438 118.53959 20.08438 117.086464Q19.05313 115.88334 19.05313 114.16459Q19.05313 112.22709 20.318754 111.00834Q21.27188 110.086464 22.787504 109.867714Q22.412504 109.25834 22.02188 109.00834Q21.61563 108.742714 20.881254 108.75834L20.881254 109.586464ZM18.100004 113.086464L18.100004 114.367714L15.64688 116.398964L15.64688 114.273964L18.100004 113.086464ZM17.537504 105.930214L15.70938 105.930214L15.70938 104.35209L17.537504 104.35209L17.537504 105.930214ZM28.600004 105.930214L19.27188 105.930214L19.27188 104.35209L28.600004 104.35209L28.600004 105.930214ZM29.381254 97.242714L29.600004 95.69584Q30.318754 95.60209 30.64688 95.16459Q31.08438 94.57084 31.08438 93.555214Q31.08438 92.461464 30.631254 91.867714Q30.193754 91.25834 29.412504 91.055214Q28.92813 90.930214 27.381254 90.930214Q28.600004 91.97709 28.600004 93.523964Q28.600004 95.44584 27.20938 96.50834Q25.818754 97.555214 23.881254 97.555214Q22.537504 97.555214 21.412504 97.07084Q20.287504 96.586464 19.67813 95.66459Q19.05313 94.742714 19.05313 93.50834Q19.05313 91.85209 20.39688 90.78959L19.27188 90.78959L19.27188 89.32084L27.33438 89.32084Q29.52188 89.32084 30.42813 89.773964Q31.33438 90.211464 31.850004 91.180214Q32.381256 92.13334 32.381256 93.53959Q32.381256 95.211464 31.631254 96.242714Q30.881254 97.273964 29.381254 97.242714ZM23.77188 95.930214Q25.600004 95.930214 26.443754 95.19584Q27.287504 94.461464 27.287504 93.367714Q27.287504 92.273964 26.45938 91.53959Q25.61563 90.805214 23.818754 90.805214Q22.100004 90.805214 21.24063 91.57084Q20.36563 92.32084 20.36563 93.398964Q20.36563 94.44584 21.225004 95.19584Q22.08438 95.930214 23.77188 95.930214ZM17.537504 86.930214L15.70938 86.930214L15.70938 85.35209L17.537504 85.35209L17.537504 86.930214ZM28.600004 86.930214L19.27188 86.930214L19.27188 85.35209L28.600004 85.35209L28.600004 86.930214ZM27.443754 76.85209Q28.193754 77.72709 28.506254 78.555214Q28.818754 79.367714 28.818754 80.28959Q28.818754 81.836464 28.068754 82.66459Q27.30313 83.47709 26.131254 83.47709Q25.45938 83.47709 24.89688 83.16459Q24.318754 82.85209 23.975004 82.35209Q23.631254 81.85209 23.45938 81.211464Q23.33438 80.742714 23.225004 79.805214Q22.99063 77.898964 22.67813 76.992714Q22.350004 76.97709 22.256254 76.97709Q21.30313 76.97709 20.89688 77.430214Q20.36563 78.03959 20.36563 79.22709Q20.36563 80.35209 20.756254 80.88334Q21.14688 81.41459 22.14688 81.66459L21.92813 83.211464Q20.92813 82.992714 20.318754 82.523964Q19.70938 82.03959 19.381254 81.13334Q19.05313 80.211464 19.05313 78.992714Q19.05313 77.805214 19.33438 77.055214Q19.61563 76.305214 20.05313 75.961464Q20.475004 75.60209 21.11563 75.461464Q21.52188 75.38334 22.58438 75.38334L24.693754 75.38334Q26.89688 75.38334 27.49063 75.28959Q28.068754 75.180214 28.600004 74.88334L28.600004 76.53959Q28.100004 76.78959 27.443754 76.85209ZM23.912504 76.992714Q24.27188 77.85209 24.506254 79.57084Q24.64688 80.53959 24.83438 80.94584Q25.006254 81.35209 25.350004 81.57084Q25.67813 81.78959 26.100004 81.78959Q26.725004 81.78959 27.14688 81.32084Q27.568754 80.836464 27.568754 79.91459Q27.568754 78.992714 27.17813 78.28959Q26.77188 77.57084 26.08438 77.242714Q25.537504 76.992714 24.49063 76.992714L23.912504 76.992714ZM28.600004 72.94584L19.27188 72.94584L19.27188 71.523964L20.600004 71.523964Q19.05313 70.492714 19.05313 68.555214Q19.05313 67.711464 19.36563 67.00834Q19.662504 66.28959 20.162504 65.94584Q20.64688 65.586464 21.318754 65.44584Q21.756254 65.367714 22.86563 65.367714L28.600004 65.367714L28.600004 66.94584L22.92813 66.94584Q21.95938 66.94584 21.475004 67.13334Q20.99063 67.305214 20.70938 67.78959Q20.42813 68.25834 20.42813 68.88334Q20.42813 69.898964 21.068754 70.63334Q21.70938 71.367714 23.506254 71.367714L28.600004 71.367714L28.600004 72.94584ZM32.381256 54.93021Q30.74063 56.227085 28.52188 57.133335Q26.30313 58.039585 23.92813 58.039585Q21.83438 58.039585 19.92813 57.36771Q17.693754 56.570835 15.49063 54.93021L15.49063 53.789585Q17.318754 54.852085 18.100004 55.195835Q19.318754 55.727085 20.631254 56.039585Q22.287504 56.414585 23.943754 56.414585Q28.162504 56.414585 32.381256 53.789585L32.381256 54.93021ZM29.381254 52.24271L29.600004 50.695835Q30.318754 50.602085 30.64688 50.164585Q31.08438 49.570835 31.08438 48.55521Q31.08438 47.46146 30.631254 46.86771Q30.193754 46.258335 29.412504 46.05521Q28.92813 45.93021 27.381254 45.93021Q28.600004 46.977085 28.600004 48.52396Q28.600004 50.445835 27.20938 51.508335Q25.818754 52.55521 23.881254 52.55521Q22.537504 52.55521 21.412504 52.070835Q20.287504 51.58646 19.67813 50.664585Q19.05313 49.74271 19.05313 48.508335Q19.05313 46.852085 20.39688 45.789585L19.27188 45.789585L19.27188 44.320835L27.33438 44.320835Q29.52188 44.320835 30.42813 44.77396Q31.33438 45.21146 31.850004 46.18021Q32.381256 47.133335 32.381256 48.539585Q32.381256 50.21146 31.631254 51.24271Q30.881254 52.27396 29.381254 52.24271ZM23.77188 50.93021Q25.600004 50.93021 26.443754 50.195835Q27.287504 49.46146 27.287504 48.36771Q27.287504 47.27396 26.45938 46.539585Q25.61563 45.80521 23.818754 45.80521Q22.100004 45.80521 21.24063 46.570835Q20.36563 47.320835 20.36563 48.39896Q20.36563 49.445835 21.225004 50.195835Q22.08438 50.93021 23.77188 50.93021ZM17.537504 41.93021L15.70938 41.93021L15.70938 40.352085L17.537504 40.352085L17.537504 41.93021ZM28.600004 41.93021L19.27188 41.93021L19.27188 40.352085L28.600004 40.352085L28.600004 41.93021ZM27.443754 31.852085Q28.193754 32.727085 28.506254 33.55521Q28.818754 34.36771 28.818754 35.289585Q28.818754 36.83646 28.068754 37.664585Q27.30313 38.477085 26.131254 38.477085Q25.45938 38.477085 24.89688 38.164585Q24.318754 37.852085 23.975004 37.352085Q23.631254 36.852085 23.45938 36.21146Q23.33438 35.74271 23.225004 34.80521Q22.99063 32.89896 22.67813 31.99271Q22.350004 31.977085 22.256254 31.977085Q21.30313 31.977085 20.89688 32.43021Q20.36563 33.039585 20.36563 34.227085Q20.36563 35.352085 20.756254 35.883335Q21.14688 36.414585 22.14688 36.664585L21.92813 38.21146Q20.92813 37.99271 20.318754 37.52396Q19.70938 37.039585 19.381254 36.133335Q19.05313 35.21146 19.05313 33.99271Q19.05313 32.80521 19.33438 32.05521Q19.61563 31.30521 20.05313 30.96146Q20.475004 30.602085 21.11563 30.46146Q21.52188 30.383335 22.58438 30.383335L24.693754 30.383335Q26.89688 30.383335 27.49063 30.289585Q28.068754 30.18021 28.600004 29.883335L28.600004 31.539585Q28.100004 31.789585 27.443754 31.852085ZM23.912504 31.99271Q24.27188 32.852085 24.506254 34.570835Q24.64688 35.539585 24.83438 35.945835Q25.006254 36.352085 25.350004 36.570835Q25.67813 36.789585 26.100004 36.789585Q26.725004 36.789585 27.14688 36.320835Q27.568754 35.83646 27.568754 34.914585Q27.568754 33.99271 27.17813 33.289585Q26.77188 32.570835 26.08438 32.24271Q25.537504 31.99271 24.49063 31.99271L23.912504 31.99271ZM16.61563 34.14896L18.100004 35.14896L18.100004 36.96146L15.64688 35.05521L15.64688 33.36771L18.100004 31.39896L18.100004 33.195835L16.61563 34.14896ZM32.193756 28.02396L30.70938 28.195835Q30.850004 27.68021 30.850004 27.289585Q30.850004 26.758335 30.67813 26.445835Q30.506254 26.133335 30.17813 25.93021Q29.943754 25.77396 29.006254 25.445835Q28.86563 25.39896 28.61563 25.30521L19.27188 28.83646L19.27188 27.133335L24.67813 25.195835Q25.693754 24.820835 26.83438 24.52396Q25.74063 24.24271 24.70938 23.86771L19.27188 21.86771L19.27188 20.289585L28.756254 23.83646Q30.30313 24.414585 30.881254 24.727085Q31.662504 25.14896 32.02188 25.695835Q32.381256 26.24271 32.381256 26.99271Q32.381256 27.46146 32.193756 28.02396ZM32.381256 17.914585L32.381256 19.039585Q28.162504 16.414585 23.943754 16.414585Q22.287504 16.414585 20.662504 16.789585Q19.350004 17.08646 18.131254 17.633335Q17.33438 17.977085 15.49063 19.039585L15.49063 17.914585Q17.693754 16.258335 19.92813 15.46146Q21.83438 14.789585 23.92813 14.789585Q26.30313 14.789585 28.52188 15.695835Q30.74063 16.602085 32.381256 17.914585Z" fill-rule="nonzero"/><path fill="#000000" d="M74.1 136.4323Q74.1 134.90105 74.4125 133.97917Q74.725 133.04167 75.33437 132.54167Q75.95937 132.04167 76.89687 132.04167Q77.58437 132.04167 78.1 132.32292Q78.63125 132.60417 78.975 133.13542Q79.31875 133.65105 79.50625 134.40105Q79.69375 135.15105 79.69375 136.4323Q79.69375 137.94792 79.38125 138.8698Q79.08437 139.79167 78.45937 140.3073Q77.85 140.8073 76.89687 140.8073Q75.6625 140.8073 74.94375 139.91667Q74.1 138.85417 74.1 136.4323ZM75.17812 136.4323Q75.17812 138.54167 75.67812 139.2448Q76.17812 139.94792 76.89687 139.94792Q77.63125 139.94792 78.11562 139.2448Q78.61562 138.54167 78.61562 136.4323Q78.61562 134.3073 78.11562 133.6198Q77.63125 132.91667 76.88125 132.91667Q76.1625 132.91667 75.725 133.52605Q75.17812 134.3073 75.17812 136.4323Z" fill-rule="nonzero"/><path fill="#000000" d="M71.06875 111.15L70.02187 111.15L70.02187 104.43125Q69.63125 104.79063 69.00625 105.16563Q68.39687 105.525 67.9125 105.69688L67.9125 104.68125Q68.7875 104.25938 69.44375 103.68125Q70.11562 103.0875 70.39687 102.525L71.06875 102.525L71.06875 111.15ZM74.1 106.91563Q74.1 105.38438 74.4125 104.4625Q74.725 103.525 75.33437 103.025Q75.95937 102.525 76.89687 102.525Q77.58437 102.525 78.1 102.80625Q78.63125 103.0875 78.975 103.61875Q79.31875 104.13438 79.50625 104.88438Q79.69375 105.63438 79.69375 106.91563Q79.69375 108.43125 79.38125 109.35313Q79.08437 110.275 78.45937 110.79063Q77.85 111.29063 76.89687 111.29063Q75.6625 111.29063 74.94375 110.4Q74.1 109.3375 74.1 106.91563ZM75.17812 106.91563Q75.17812 109.025 75.67812 109.72813Q76.17812 110.43125 76.89687 110.43125Q77.63125 110.43125 78.11562 109.72813Q78.61562 109.025 78.61562 106.91563Q78.61562 104.79063 78.11562 104.10313Q77.63125 103.4 76.88125 103.4Q76.1625 103.4 75.725 104.00938Q75.17812 104.79063 75.17812 106.91563Z" fill-rule="nonzero"/><path fill="#000000" d="M72.64687 80.61771L72.64687 81.63333L66.95937 81.63333Q66.95937 81.25833 67.08437 80.89896Q67.30312 80.32083 67.77187 79.75833Q68.25625 79.19583 69.1625 78.46146Q70.56875 77.30521 71.05312 76.63333Q71.55312 75.96146 71.55312 75.36771Q71.55312 74.74271 71.1 74.32083Q70.64687 73.88333 69.92812 73.88333Q69.1625 73.88333 68.70937 74.33646Q68.25625 74.78958 68.24062 75.60208L67.1625 75.49271Q67.27187 74.27396 67.99062 73.64896Q68.725 73.00833 69.95937 73.00833Q71.19375 73.00833 71.9125 73.69583Q72.63125 74.38333 72.63125 75.39896Q72.63125 75.91458 72.4125 76.41458Q72.20937 76.89896 71.70937 77.46146Q71.225 78.00833 70.1 78.96146Q69.14687 79.75833 68.86562 80.05521Q68.6 80.33646 68.42812 80.61771L72.64687 80.61771ZM74.1 77.39896Q74.1 75.86771 74.4125 74.94583Q74.725 74.00833 75.33437 73.50833Q75.95937 73.00833 76.89687 73.00833Q77.58437 73.00833 78.1 73.28958Q78.63125 73.57083 78.975 74.10208Q79.31875 74.61771 79.50625 75.36771Q79.69375 76.11771 79.69375 77.39896Q79.69375 78.91458 79.38125 79.83646Q79.08437 80.75833 78.45937 81.27396Q77.85 81.77396 76.89687 81.77396Q75.6625 81.77396 74.94375 80.88333Q74.1 79.82083 74.1 77.39896ZM75.17812 77.39896Q75.17812 79.50833 75.67812 80.21146Q76.17812 80.91458 76.89687 80.91458Q77.63125 80.91458 78.11562 80.21146Q78.61562 79.50833 78.61562 77.39896Q78.61562 75.27396 78.11562 74.58646Q77.63125 73.88333 76.88125 73.88333Q76.1625 73.88333 75.725 74.49271Q75.17812 75.27396 75.17812 77.39896Z" fill-rule="nonzero"/><path fill="#000000" d="M67.1 49.85104L68.1625 49.710415Q68.33437 50.60104 68.77187 51.00729Q69.20937 51.397915 69.83437 51.397915Q70.58437 51.397915 71.1 50.88229Q71.61562 50.366665 71.61562 49.60104Q71.61562 48.88229 71.13125 48.41354Q70.6625 47.929165 69.92812 47.929165Q69.63125 47.929165 69.17812 48.054165L69.30312 47.116665Q69.4125 47.13229 69.475 47.13229Q70.14687 47.13229 70.67812 46.78854Q71.225 46.429165 71.225 45.69479Q71.225 45.116665 70.83437 44.741665Q70.44375 44.35104 69.81875 44.35104Q69.20937 44.35104 68.7875 44.741665Q68.38125 45.13229 68.27187 45.897915L67.20937 45.710415Q67.39687 44.66354 68.08437 44.085415Q68.77187 43.491665 69.7875 43.491665Q70.49062 43.491665 71.08437 43.804165Q71.67812 44.10104 71.99062 44.616665Q72.30312 45.13229 72.30312 45.72604Q72.30312 46.272915 72.00625 46.741665Q71.70937 47.19479 71.13125 47.460415Q71.88125 47.63229 72.30312 48.19479Q72.725 48.741665 72.725 49.585415Q72.725 50.710415 71.89687 51.491665Q71.08437 52.272915 69.83437 52.272915Q68.70937 52.272915 67.95937 51.60104Q67.20937 50.91354 67.1 49.85104ZM74.1 47.88229Q74.1 46.35104 74.4125 45.429165Q74.725 44.491665 75.33437 43.991665Q75.95937 43.491665 76.89687 43.491665Q77.58437 43.491665 78.1 43.772915Q78.63125 44.054165 78.975 44.585415Q79.31875 45.10104 79.50625 45.85104Q79.69375 46.60104 79.69375 47.88229Q79.69375 49.397915 79.38125 50.31979Q79.08437 51.241665 78.45937 51.75729Q77.85 52.25729 76.89687 52.25729Q75.6625 52.25729 74.94375 51.366665Q74.1 50.304165 74.1 47.88229ZM75.17812 47.88229Q75.17812 49.991665 75.67812 50.69479Q76.17812 51.397915 76.89687 51.397915Q77.63125 51.397915 78.11562 50.69479Q78.61562 49.991665 78.61562 47.88229Q78.61562 45.75729 78.11562 45.06979Q77.63125 44.366665 76.88125 44.366665Q76.1625 44.366665 75.725 44.97604Q75.17812 45.75729 75.17812 47.88229Z" fill-rule="nonzero"/><path fill="#000000" d="M70.475 22.6L70.475 20.5375L66.75625 20.5375L66.75625 19.56875L70.67812 14.00625L71.5375 14.00625L71.5375 19.56875L72.69375 19.56875L72.69375 20.5375L71.5375 20.5375L71.5375 22.6L70.475 22.6ZM70.475 19.56875L70.475 15.709375L67.7875 19.56875L70.475 19.56875ZM74.1 18.365625Q74.1 16.834375 74.4125 15.9125Q74.725 14.975 75.33437 14.475Q75.95937 13.975 76.89687 13.975Q77.58437 13.975 78.1 14.25625Q78.63125 14.5375 78.975 15.06875Q79.31875 15.584375 79.50625 16.334375Q79.69375 17.084375 79.69375 18.365625Q79.69375 19.88125 79.38125 20.803125Q79.08437 21.725 78.45937 22.240625Q77.85 22.740625 76.89687 22.740625Q75.6625 22.740625 74.94375 21.85Q74.1 20.7875 74.1 18.365625ZM75.17812 18.365625Q75.17812 20.475 75.67812 21.178125Q76.17812 21.88125 76.89687 21.88125Q77.63125 21.88125 78.11562 21.178125Q78.61562 20.475 78.61562 18.365625Q78.61562 16.240625 78.11562 15.553125Q77.63125 14.85 76.88125 14.85Q76.1625 14.85 75.725 15.459375Q75.17812 16.240625 75.17812 18.365625Z" fill-rule="nonzero"/><path stroke="#ff0000" stroke-width="4.0" stroke-linecap="butt" stroke-dasharray="13.0,9.0" d="M280.0 209.9L315.0 209.9" fill-rule="nonzero"/><path fill="#1a1a1a" d="M324.39062 216.4L324.39062 203.50937L329.25 203.50937Q330.53125 203.50937 331.20312 203.63437Q332.15625 203.79062 332.79688 204.24374Q333.4375 204.68124 333.82812 205.49374Q334.21875 206.29062 334.21875 207.24374Q334.21875 208.88437 333.17188 210.025Q332.125 211.16562 329.40625 211.16562L326.09375 211.16562L326.09375 216.4L324.39062 216.4ZM326.09375 209.63437L329.42188 209.63437Q331.07812 209.63437 331.76562 209.025Q332.46875 208.41562 332.46875 207.29062Q332.46875 206.47812 332.0625 205.91562Q331.65625 205.3375 330.98438 205.15Q330.54688 205.04062 329.39062 205.04062L326.09375 205.04062L326.09375 209.63437ZM336.1875 216.4L336.1875 203.50937L337.76562 203.50937L337.76562 208.13437Q338.875 206.85312 340.5625 206.85312Q341.59375 206.85312 342.35938 207.25937Q343.125 207.66562 343.45312 208.4Q343.79688 209.11874 343.79688 210.47812L343.79688 216.4L342.20312 216.4L342.20312 210.47812Q342.20312 209.29062 341.6875 208.75937Q341.17188 208.2125 340.23438 208.2125Q339.53125 208.2125 338.90625 208.5875Q338.29688 208.94687 338.03125 209.57187Q337.76562 210.19687 337.76562 211.29062L337.76562 216.4L336.1875 216.4ZM354.8125 208.9L354.8125 207.07187L356.5 207.07187L356.5 208.50937Q356.5 209.9 356.1875 210.44687Q355.375 211.85312 353.71875 212.025L353.71875 216.4L352.29688 216.4L352.29688 215.025Q351.21875 216.61874 349.34375 216.61874Q348.53125 216.61874 347.8125 216.30624Q347.09375 215.99374 346.73438 215.50937Q346.39062 215.025 346.25 214.32187Q346.15625 213.85312 346.15625 212.85312L346.15625 207.07187L347.73438 207.07187L347.73438 212.24374Q347.73438 213.49374 347.82812 213.91562Q348.14062 215.24374 349.65625 215.24374Q350.39062 215.24374 351.0 214.88437Q351.625 214.50937 351.875 213.88437Q352.14062 213.25937 352.14062 212.07187L352.14062 207.07187L353.71875 207.07187L353.71875 211.35312Q354.82812 211.16562 355.39062 210.30624Q355.64062 209.94687 355.64062 208.9L354.8125 208.9ZM359.21875 211.72812Q359.21875 213.4625 360.0 214.41562Q360.75 215.30624 361.96875 215.30624Q363.20312 215.30624 363.9375 214.41562Q364.71875 213.4625 364.71875 211.68124Q364.71875 209.99374 363.92188 209.05624Q363.1875 208.16562 361.96875 208.16562Q360.73438 208.16562 360.0 209.05624Q359.21875 209.99374 359.21875 211.72812ZM366.54688 208.68124L366.54688 206.8375L368.25 206.8375L368.25 208.29062Q368.25 209.38437 367.92188 209.9625Q367.48438 210.7125 366.34375 211.35312Q366.34375 211.4625 366.34375 211.60312Q366.34375 214.86874 364.23438 216.04062Q363.20312 216.61874 361.96875 216.61874Q359.96875 216.61874 358.79688 215.35312Q357.59375 214.05624 357.59375 211.72812Q357.59375 209.13437 359.04688 207.88437Q360.25 206.85312 361.96875 206.85312Q363.90625 206.85312 365.125 208.11874Q366.04688 209.07187 366.26562 210.5875Q366.875 210.2125 367.125 209.82187Q367.39062 209.41562 367.375 208.68124L366.54688 208.68124ZM370.1875 216.4L370.1875 207.07187L371.60938 207.07187L371.60938 208.4Q372.64062 206.85312 374.57812 206.85312Q375.42188 206.85312 376.125 207.16562Q376.84375 207.4625 377.1875 207.9625Q377.54688 208.44687 377.6875 209.11874Q377.76562 209.55624 377.76562 210.66562L377.76562 216.4L376.1875 216.4L376.1875 210.72812Q376.1875 209.75937 376.0 209.275Q375.82812 208.79062 375.34375 208.50937Q374.875 208.22812 374.25 208.22812Q373.23438 208.22812 372.5 208.86874Q371.76562 209.50937 371.76562 211.30624L371.76562 216.4L370.1875 216.4ZM379.89062 217.18124L381.4375 217.4Q381.53125 218.11874 381.96875 218.44687Q382.5625 218.88437 383.57812 218.88437Q384.67188 218.88437 385.26562 218.43124Q385.875 217.99374 386.07812 217.2125Q386.20312 216.72812 386.20312 215.18124Q385.15625 216.4 383.60938 216.4Q381.6875 216.4 380.625 215.00937Q379.57812 213.61874 379.57812 211.68124Q379.57812 210.3375 380.0625 209.2125Q380.54688 208.0875 381.46875 207.47812Q382.39062 206.85312 383.625 206.85312Q385.28125 206.85312 386.34375 208.19687L386.34375 207.07187L387.8125 207.07187L387.8125 215.13437Q387.8125 217.32187 387.35938 218.22812Q386.92188 219.13437 385.95312 219.65Q385.0 220.18124 383.59375 220.18124Q381.92188 220.18124 380.89062 219.43124Q379.85938 218.68124 379.89062 217.18124ZM381.20312 211.57187Q381.20312 213.4 381.9375 214.24374Q382.67188 215.0875 383.76562 215.0875Q384.85938 215.0875 385.59375 214.25937Q386.32812 213.41562 386.32812 211.61874Q386.32812 209.9 385.5625 209.04062Q384.8125 208.16562 383.73438 208.16562Q382.6875 208.16562 381.9375 209.025Q381.20312 209.88437 381.20312 211.57187ZM395.1875 219.97812L395.1875 207.07187L396.625 207.07187L396.625 208.275Q397.14062 207.57187 397.78125 207.2125Q398.42188 206.85312 399.32812 206.85312Q400.53125 206.85312 401.4375 207.47812Q402.35938 208.0875 402.82812 209.2125Q403.29688 210.32187 403.29688 211.66562Q403.29688 213.0875 402.78125 214.24374Q402.26562 215.38437 401.28125 216.00937Q400.29688 216.61874 399.21875 216.61874Q398.4375 216.61874 397.79688 216.29062Q397.17188 215.94687 396.76562 215.43124L396.76562 219.97812L395.1875 219.97812ZM396.625 211.79062Q396.625 213.5875 397.34375 214.44687Q398.07812 215.30624 399.10938 215.30624Q400.17188 215.30624 400.92188 214.41562Q401.67188 213.525 401.67188 211.65Q401.67188 209.86874 400.9375 208.97812Q400.20312 208.0875 399.1875 208.0875Q398.17188 208.0875 397.39062 209.04062Q396.625 209.97812 396.625 211.79062ZM405.1875 216.4L405.1875 203.50937L406.76562 203.50937L406.76562 208.13437Q407.875 206.85312 409.5625 206.85312Q410.59375 206.85312 411.35938 207.25937Q412.125 207.66562 412.45312 208.4Q412.79688 209.11874 412.79688 210.47812L412.79688 216.4L411.20312 216.4L411.20312 210.47812Q411.20312 209.29062 410.6875 208.75937Q410.17188 208.2125 409.23438 208.2125Q408.53125 208.2125 407.90625 208.5875Q407.29688 208.94687 407.03125 209.57187Q406.76562 210.19687 406.76562 211.29062L406.76562 216.4L405.1875 216.4ZM421.28125 215.24374Q420.40625 215.99374 419.57812 216.30624Q418.76562 216.61874 417.84375 216.61874Q416.29688 216.61874 415.46875 215.86874Q414.65625 215.10312 414.65625 213.93124Q414.65625 213.25937 414.96875 212.69687Q415.28125 212.11874 415.78125 211.775Q416.28125 211.43124 416.92188 211.25937Q417.39062 211.13437 418.32812 211.025Q420.23438 210.79062 421.14062 210.47812Q421.15625 210.15 421.15625 210.05624Q421.15625 209.10312 420.70312 208.69687Q420.09375 208.16562 418.90625 208.16562Q417.78125 208.16562 417.25 208.55624Q416.71875 208.94687 416.46875 209.94687L414.92188 209.72812Q415.14062 208.72812 415.60938 208.11874Q416.09375 207.50937 417.0 207.18124Q417.92188 206.85312 419.14062 206.85312Q420.32812 206.85312 421.07812 207.13437Q421.82812 207.41562 422.17188 207.85312Q422.53125 208.275 422.67188 208.91562Q422.75 209.32187 422.75 210.38437L422.75 212.49374Q422.75 214.69687 422.84375 215.29062Q422.95312 215.86874 423.25 216.4L421.59375 216.4Q421.34375 215.9 421.28125 215.24374ZM421.14062 211.7125Q420.28125 212.07187 418.5625 212.30624Q417.59375 212.44687 417.1875 212.63437Q416.78125 212.80624 416.5625 213.15Q416.34375 213.47812 416.34375 213.9Q416.34375 214.525 416.8125 214.94687Q417.29688 215.36874 418.21875 215.36874Q419.14062 215.36874 419.84375 214.97812Q420.5625 214.57187 420.89062 213.88437Q421.14062 213.3375 421.14062 212.29062L421.14062 211.7125ZM418.07812 205.9L419.25 203.44687L421.3125 203.44687L419.39062 205.9L418.07812 205.9ZM425.1875 219.97812L425.1875 207.07187L426.625 207.07187L426.625 208.275Q427.14062 207.57187 427.78125 207.2125Q428.42188 206.85312 429.32812 206.85312Q430.53125 206.85312 431.4375 207.47812Q432.35938 208.0875 432.82812 209.2125Q433.29688 210.32187 433.29688 211.66562Q433.29688 213.0875 432.78125 214.24374Q432.26562 215.38437 431.28125 216.00937Q430.29688 216.61874 429.21875 216.61874Q428.4375 216.61874 427.79688 216.29062Q427.17188 215.94687 426.76562 215.43124L426.76562 219.97812L425.1875 219.97812ZM426.625 211.79062Q426.625 213.5875 427.34375 214.44687Q428.07812 215.30624 429.10938 215.30624Q430.17188 215.30624 430.92188 214.41562Q431.67188 213.525 431.67188 211.65Q431.67188 209.86874 430.9375 208.97812Q430.20312 208.0875 429.1875 208.0875Q428.17188 208.0875 427.39062 209.04062Q426.625 209.97812 426.625 211.79062ZM438.96875 216.4L443.92188 203.50937L445.76562 203.50937L451.03125 216.4L449.09375 216.4L447.59375 212.49374L442.20312 212.49374L440.78125 216.4L438.96875 216.4ZM442.6875 211.10312L447.0625 211.10312L445.71875 207.54062Q445.09375 205.91562 444.79688 204.86874Q444.5625 206.10312 444.10938 207.32187L442.6875 211.10312ZM451.3125 216.4L451.3125 203.50937L453.03125 203.50937L453.03125 209.9L459.42188 203.50937L461.73438 203.50937L456.32812 208.72812L461.96875 216.4L459.71875 216.4L455.14062 209.88437L453.03125 211.93124L453.03125 216.4L451.3125 216.4ZM461.96875 216.4L466.92188 203.50937L468.76562 203.50937L474.03125 216.4L472.09375 216.4L470.59375 212.49374L465.20312 212.49374L463.78125 216.4L461.96875 216.4ZM465.6875 211.10312L470.0625 211.10312L468.71875 207.54062Q468.09375 205.91562 467.79688 204.86874Q467.5625 206.10312 467.10938 207.32187L465.6875 211.10312ZM482.84375 203.50937L484.54688 203.50937L484.54688 210.9625Q484.54688 212.9 484.10938 214.04062Q483.67188 215.18124 482.51562 215.9Q481.375 216.61874 479.51562 216.61874Q477.70312 216.61874 476.54688 215.99374Q475.40625 215.36874 474.90625 214.19687Q474.42188 213.00937 474.42188 210.9625L474.42188 203.50937L476.125 203.50937L476.125 210.94687Q476.125 212.63437 476.4375 213.43124Q476.75 214.2125 477.5 214.65Q478.26562 215.0875 479.35938 215.0875Q481.25 215.0875 482.04688 214.22812Q482.84375 213.36874 482.84375 210.94687L482.84375 203.50937ZM490.67188 216.4L490.67188 205.04062L486.42188 205.04062L486.42188 203.50937L496.64062 203.50937L496.64062 205.04062L492.375 205.04062L492.375 216.4L490.67188 216.4ZM497.96875 216.4L502.92188 203.50937L504.76562 203.50937L510.03125 216.4L508.09375 216.4L506.59375 212.49374L501.20312 212.49374L499.78125 216.4L497.96875 216.4ZM501.6875 211.10312L506.0625 211.10312L504.71875 207.54062Q504.09375 205.91562 503.79688 204.86874Q503.5625 206.10312 503.10938 207.32187L501.6875 211.10312ZM518.84375 203.50937L520.5469 203.50937L520.5469 210.9625Q520.5469 212.9 520.1094 214.04062Q519.6719 215.18124 518.5156 215.9Q517.375 216.61874 515.5156 216.61874Q513.7031 216.61874 512.5469 215.99374Q511.40625 215.36874 510.90625 214.19687Q510.42188 213.00937 510.42188 210.9625L510.42188 203.50937L512.125 203.50937L512.125 210.94687Q512.125 212.63437 512.4375 213.43124Q512.75 214.2125 513.5 214.65Q514.2656 215.0875 515.3594 215.0875Q517.25 215.0875 518.0469 214.22812Q518.84375 213.36874 518.84375 210.94687L518.84375 203.50937ZM526.6719 216.4L526.6719 205.04062L522.4219 205.04062L522.4219 203.50937L532.6406 203.50937L532.6406 205.04062L528.375 205.04062L528.375 216.4L526.6719 216.4ZM534.875 210.11874Q534.875 206.91562 536.59375 205.10312Q538.3125 203.29062 541.0469 203.29062Q542.8281 203.29062 544.25 204.15Q545.6875 204.99374 546.4375 206.525Q547.1875 208.04062 547.1875 209.97812Q547.1875 211.93124 546.3906 213.47812Q545.6094 215.025 544.15625 215.82187Q542.7031 216.61874 541.03125 216.61874Q539.21875 216.61874 537.78125 215.74374Q536.34375 214.86874 535.6094 213.35312Q534.875 211.82187 534.875 210.11874ZM536.625 210.15Q536.625 212.47812 537.875 213.82187Q539.1406 215.16562 541.0156 215.16562Q542.9531 215.16562 544.1875 213.80624Q545.4375 212.44687 545.4375 209.9625Q545.4375 208.4 544.90625 207.22812Q544.375 206.04062 543.34375 205.4Q542.3281 204.75937 541.0469 204.75937Q539.2344 204.75937 537.9219 206.00937Q536.625 207.24374 536.625 210.15Z" fill-rule="nonzero"/><path stroke="#0000ff" stroke-width="4.0" stroke-linecap="butt" d="M564.0 209.9L576.0 209.9" fill-rule="nonzero"/><path fill="#1a1a1a" d="M585.3906 216.4L585.3906 203.50937L590.25 203.50937Q591.53125 203.50937 592.2031 203.63437Q593.15625 203.79062 593.7969 204.24374Q594.4375 204.68124 594.8281 205.49374Q595.21875 206.29062 595.21875 207.24374Q595.21875 208.88437 594.1719 210.025Q593.125 211.16562 590.40625 211.16562L587.09375 211.16562L587.09375 216.4L585.3906 216.4ZM587.09375 209.63437L590.4219 209.63437Q592.0781 209.63437 592.7656 209.025Q593.46875 208.41562 593.46875 207.29062Q593.46875 206.47812 593.0625 205.91562Q592.65625 205.3375 591.9844 205.15Q591.5469 205.04062 590.3906 205.04062L587.09375 205.04062L587.09375 209.63437ZM597.1875 216.4L597.1875 203.50937L598.7656 203.50937L598.7656 208.13437Q599.875 206.85312 601.5625 206.85312Q602.59375 206.85312 603.3594 207.25937Q604.125 207.66562 604.4531 208.4Q604.7969 209.11874 604.7969 210.47812L604.7969 216.4L603.2031 216.4L603.2031 210.47812Q603.2031 209.29062 602.6875 208.75937Q602.1719 208.2125 601.2344 208.2125Q600.53125 208.2125 599.90625 208.5875Q599.2969 208.94687 599.03125 209.57187Q598.7656 210.19687 598.7656 211.29062L598.7656 216.4L597.1875 216.4ZM615.8125 208.9L615.8125 207.07187L617.5 207.07187L617.5 208.50937Q617.5 209.9 617.1875 210.44687Q616.375 211.85312 614.71875 212.025L614.71875 216.4L613.2969 216.4L613.2969 215.025Q612.21875 216.61874 610.34375 216.61874Q609.53125 216.61874 608.8125 216.30624Q608.09375 215.99374 607.7344 215.50937Q607.3906 215.025 607.25 214.32187Q607.15625 213.85312 607.15625 212.85312L607.15625 207.07187L608.7344 207.07187L608.7344 212.24374Q608.7344 213.49374 608.8281 213.91562Q609.1406 215.24374 610.65625 215.24374Q611.3906 215.24374 612.0 214.88437Q612.625 214.50937 612.875 213.88437Q613.1406 213.25937 613.1406 212.07187L613.1406 207.07187L614.71875 207.07187L614.71875 211.35312Q615.8281 211.16562 616.3906 210.30624Q616.6406 209.94687 616.6406 208.9L615.8125 208.9ZM620.21875 211.72812Q620.21875 213.4625 621.0 214.41562Q621.75 215.30624 622.96875 215.30624Q624.2031 215.30624 624.9375 214.41562Q625.71875 213.4625 625.71875 211.68124Q625.71875 209.99374 624.9219 209.05624Q624.1875 208.16562 622.96875 208.16562Q621.7344 208.16562 621.0 209.05624Q620.21875 209.99374 620.21875 211.72812ZM627.5469 208.68124L627.5469 206.8375L629.25 206.8375L629.25 208.29062Q629.25 209.38437 628.9219 209.9625Q628.4844 210.7125 627.34375 211.35312Q627.34375 211.4625 627.34375 211.60312Q627.34375 214.86874 625.2344 216.04062Q624.2031 216.61874 622.96875 216.61874Q620.96875 216.61874 619.7969 215.35312Q618.59375 214.05624 618.59375 211.72812Q618.59375 209.13437 620.0469 207.88437Q621.25 206.85312 622.96875 206.85312Q624.90625 206.85312 626.125 208.11874Q627.0469 209.07187 627.2656 210.5875Q627.875 210.2125 628.125 209.82187Q628.3906 209.41562 628.375 208.68124L627.5469 208.68124ZM631.1875 216.4L631.1875 207.07187L632.6094 207.07187L632.6094 208.4Q633.6406 206.85312 635.5781 206.85312Q636.4219 206.85312 637.125 207.16562Q637.84375 207.4625 638.1875 207.9625Q638.5469 208.44687 638.6875 209.11874Q638.7656 209.55624 638.7656 210.66562L638.7656 216.4L637.1875 216.4L637.1875 210.72812Q637.1875 209.75937 637.0 209.275Q636.8281 208.79062 636.34375 208.50937Q635.875 208.22812 635.25 208.22812Q634.2344 208.22812 633.5 208.86874Q632.7656 209.50937 632.7656 211.30624L632.7656 216.4L631.1875 216.4ZM640.8906 217.18124L642.4375 217.4Q642.53125 218.11874 642.96875 218.44687Q643.5625 218.88437 644.5781 218.88437Q645.6719 218.88437 646.2656 218.43124Q646.875 217.99374 647.0781 217.2125Q647.2031 216.72812 647.2031 215.18124Q646.15625 216.4 644.6094 216.4Q642.6875 216.4 641.625 215.00937Q640.5781 213.61874 640.5781 211.68124Q640.5781 210.3375 641.0625 209.2125Q641.5469 208.0875 642.46875 207.47812Q643.3906 206.85312 644.625 206.85312Q646.28125 206.85312 647.34375 208.19687L647.34375 207.07187L648.8125 207.07187L648.8125 215.13437Q648.8125 217.32187 648.3594 218.22812Q647.9219 219.13437 646.9531 219.65Q646.0 220.18124 644.59375 220.18124Q642.9219 220.18124 641.8906 219.43124Q640.8594 218.68124 640.8906 217.18124ZM642.2031 211.57187Q642.2031 213.4 642.9375 214.24374Q643.6719 215.0875 644.7656 215.0875Q645.8594 215.0875 646.59375 214.25937Q647.3281 213.41562 647.3281 211.61874Q647.3281 209.9 646.5625 209.04062Q645.8125 208.16562 644.7344 208.16562Q643.6875 208.16562 642.9375 209.025Q642.2031 209.88437 642.2031 211.57187ZM656.1875 219.97812L656.1875 207.07187L657.625 207.07187L657.625 208.275Q658.1406 207.57187 658.78125 207.2125Q659.4219 206.85312 660.3281 206.85312Q661.53125 206.85312 662.4375 207.47812Q663.3594 208.0875 663.8281 209.2125Q664.2969 210.32187 664.2969 211.66562Q664.2969 213.0875 663.78125 214.24374Q663.2656 215.38437 662.28125 216.00937Q661.2969 216.61874 660.21875 216.61874Q659.4375 216.61874 658.7969 216.29062Q658.1719 215.94687 657.7656 215.43124L657.7656 219.97812L656.1875 219.97812ZM657.625 211.79062Q657.625 213.5875 658.34375 214.44687Q659.0781 215.30624 660.1094 215.30624Q661.1719 215.30624 661.9219 214.41562Q662.6719 213.525 662.6719 211.65Q662.6719 209.86874 661.9375 208.97812Q661.2031 208.0875 660.1875 208.0875Q659.1719 208.0875 658.3906 209.04062Q657.625 209.97812 657.625 211.79062ZM666.1875 216.4L666.1875 203.50937L667.7656 203.50937L667.7656 208.13437Q668.875 206.85312 670.5625 206.85312Q671.59375 206.85312 672.3594 207.25937Q673.125 207.66562 673.4531 208.4Q673.7969 209.11874 673.7969 210.47812L673.7969 216.4L672.2031 216.4L672.2031 210.47812Q672.2031 209.29062 671.6875 208.75937Q671.1719 208.2125 670.2344 208.2125Q669.53125 208.2125 668.90625 208.5875Q668.2969 208.94687 668.03125 209.57187Q667.7656 210.19687 667.7656 211.29062L667.7656 216.4L666.1875 216.4ZM682.28125 215.24374Q681.40625 215.99374 680.5781 216.30624Q679.7656 216.61874 678.84375 216.61874Q677.2969 216.61874 676.46875 215.86874Q675.65625 215.10312 675.65625 213.93124Q675.65625 213.25937 675.96875 212.69687Q676.28125 212.11874 676.78125 211.775Q677.28125 211.43124 677.9219 211.25937Q678.3906 211.13437 679.3281 211.025Q681.2344 210.79062 682.1406 210.47812Q682.15625 210.15 682.15625 210.05624Q682.15625 209.10312 681.7031 208.69687Q681.09375 208.16562 679.90625 208.16562Q678.78125 208.16562 678.25 208.55624Q677.71875 208.94687 677.46875 209.94687L675.9219 209.72812Q676.1406 208.72812 676.6094 208.11874Q677.09375 207.50937 678.0 207.18124Q678.9219 206.85312 680.1406 206.85312Q681.3281 206.85312 682.0781 207.13437Q682.8281 207.41562 683.1719 207.85312Q683.53125 208.275 683.6719 208.91562Q683.75 209.32187 683.75 210.38437L683.75 212.49374Q683.75 214.69687 683.84375 215.29062Q683.9531 215.86874 684.25 216.4L682.59375 216.4Q682.34375 215.9 682.28125 215.24374ZM682.1406 211.7125Q681.28125 212.07187 679.5625 212.30624Q678.59375 212.44687 678.1875 212.63437Q677.78125 212.80624 677.5625 213.15Q677.34375 213.47812 677.34375 213.9Q677.34375 214.525 677.8125 214.94687Q678.2969 215.36874 679.21875 215.36874Q680.1406 215.36874 680.84375 214.97812Q681.5625 214.57187 681.8906 213.88437Q682.1406 213.3375 682.1406 212.29062L682.1406 211.7125ZM679.0781 205.9L680.25 203.44687L682.3125 203.44687L680.3906 205.9L679.0781 205.9ZM686.1875 219.97812L686.1875 207.07187L687.625 207.07187L687.625 208.275Q688.1406 207.57187 688.78125 207.2125Q689.4219 206.85312 690.3281 206.85312Q691.53125 206.85312 692.4375 207.47812Q693.3594 208.0875 693.8281 209.2125Q694.2969 210.32187 694.2969 211.66562Q694.2969 213.0875 693.78125 214.24374Q693.2656 215.38437 692.28125 216.00937Q691.2969 216.61874 690.21875 216.61874Q689.4375 216.61874 688.7969 216.29062Q688.1719 215.94687 687.7656 215.43124L687.7656 219.97812L686.1875 219.97812ZM687.625 211.79062Q687.625 213.5875 688.34375 214.44687Q689.0781 215.30624 690.1094 215.30624Q691.1719 215.30624 691.9219 214.41562Q692.6719 213.525 692.6719 211.65Q692.6719 209.86874 691.9375 208.97812Q691.2031 208.0875 690.1875 208.0875Q689.1719 208.0875 688.3906 209.04062Q687.625 209.97812 687.625 211.79062ZM707.1406 205.68124L704.09375 205.68124L704.09375 204.525L707.1406 204.525L707.1406 203.50937L708.7031 203.50937L708.7031 204.525L709.9844 204.525L709.9844 205.68124L708.7031 205.68124L708.7031 216.4L707.25 216.4L707.25 215.22812Q706.3594 216.61874 704.625 216.61874Q703.5156 216.61874 702.5781 216.00937Q701.6406 215.38437 701.125 214.29062Q700.6094 213.18124 700.6094 211.74374Q700.6094 210.3375 701.0781 209.2125Q701.5469 208.07187 702.46875 207.4625Q703.40625 206.85312 704.5625 206.85312Q705.40625 206.85312 706.0625 207.2125Q706.71875 207.57187 707.1406 208.13437L707.1406 205.68124ZM702.2344 211.74374Q702.2344 213.54062 702.9844 214.43124Q703.75 215.30624 704.78125 215.30624Q705.8125 215.30624 706.53125 214.4625Q707.2656 213.61874 707.2656 211.86874Q707.2656 209.9625 706.53125 209.07187Q705.7969 208.16562 704.71875 208.16562Q703.65625 208.16562 702.9375 209.025Q702.2344 209.88437 702.2344 211.74374ZM717.5781 213.4L719.21875 213.60312Q718.8281 215.025 717.78125 215.82187Q716.7344 216.61874 715.1094 216.61874Q713.0625 216.61874 711.8594 215.35312Q710.65625 214.0875 710.65625 211.80624Q710.65625 209.4625 711.8594 208.16562Q713.0781 206.85312 715.0156 206.85312Q716.8906 206.85312 718.0781 208.13437Q719.2656 209.4 719.2656 211.7125Q719.2656 211.85312 719.25 212.13437L712.2969 212.13437Q712.375 213.68124 713.15625 214.49374Q713.9531 215.30624 715.1094 215.30624Q715.9844 215.30624 716.59375 214.85312Q717.21875 214.4 717.5781 213.4ZM712.375 210.8375L717.59375 210.8375Q717.4844 209.66562 717.0 209.07187Q716.2344 208.15 715.03125 208.15Q713.9531 208.15 713.2031 208.88437Q712.46875 209.61874 712.375 210.8375ZM714.9844 204.41562L713.9844 205.9L712.1719 205.9L714.0781 203.44687L715.7656 203.44687L717.7344 205.9L715.9375 205.9L714.9844 204.41562ZM715.7656 202.80624L714.5 202.80624L712.46875 200.3375L714.5781 200.3375L715.7656 202.80624ZM725.125 216.4L728.5469 211.54062L725.3906 207.07187L727.3594 207.07187L728.7969 209.25937Q729.2031 209.88437 729.4531 210.30624Q729.8281 209.7125 730.15625 209.275L731.7344 207.07187L733.625 207.07187L730.3906 211.4625L733.875 216.4L731.9219 216.4L730.0156 213.49374L729.5 212.7125L727.0469 216.4L725.125 216.4ZM740.2969 216.4L740.2969 215.025Q739.21875 216.61874 737.34375 216.61874Q736.5156 216.61874 735.7969 216.30624Q735.0781 215.97812 734.7344 215.50937Q734.3906 215.025 734.25 214.32187Q734.15625 213.85312 734.15625 212.85312L734.15625 207.07187L735.7344 207.07187L735.7344 212.24374Q735.7344 213.47812 735.8281 213.91562Q735.9844 214.54062 736.46875 214.9Q736.9531 215.24374 737.65625 215.24374Q738.375 215.24374 739.0 214.88437Q739.625 214.525 739.875 213.9Q740.1406 213.25937 740.1406 212.07187L740.1406 207.07187L741.71875 207.07187L741.71875 216.4L740.2969 216.4ZM750.28125 215.24374Q749.40625 215.99374 748.5781 216.30624Q747.7656 216.61874 746.84375 216.61874Q745.2969 216.61874 744.46875 215.86874Q743.65625 215.10312 743.65625 213.93124Q743.65625 213.25937 743.96875 212.69687Q744.28125 212.11874 744.78125 211.775Q745.28125 211.43124 745.9219 211.25937Q746.3906 211.13437 747.3281 211.025Q749.2344 210.79062 750.1406 210.47812Q750.15625 210.15 750.15625 210.05624Q750.15625 209.10312 749.7031 208.69687Q749.09375 208.16562 747.90625 208.16562Q746.78125 208.16562 746.25 208.55624Q745.71875 208.94687 745.46875 209.94687L743.9219 209.72812Q744.1406 208.72812 744.6094 208.11874Q745.09375 207.50937 746.0 207.18124Q746.9219 206.85312 748.1406 206.85312Q749.3281 206.85312 750.0781 207.13437Q750.8281 207.41562 751.1719 207.85312Q751.53125 208.275 751.6719 208.91562Q751.75 209.32187 751.75 210.38437L751.75 212.49374Q751.75 214.69687 751.84375 215.29062Q751.9531 215.86874 752.25 216.4L750.59375 216.4Q750.34375 215.9 750.28125 215.24374ZM750.1406 211.7125Q749.28125 212.07187 747.5625 212.30624Q746.59375 212.44687 746.1875 212.63437Q745.78125 212.80624 745.5625 213.15Q745.34375 213.47812 745.34375 213.9Q745.34375 214.525 745.8125 214.94687Q746.2969 215.36874 747.21875 215.36874Q748.1406 215.36874 748.84375 214.97812Q749.5625 214.57187 749.8906 213.88437Q750.1406 213.3375 750.1406 212.29062L750.1406 211.7125ZM747.9844 204.41562L746.9844 205.9L745.1719 205.9L747.0781 203.44687L748.7656 203.44687L750.7344 205.9L748.9375 205.9L747.9844 204.41562ZM748.25 200.3375L750.375 200.3375L748.34375 202.80624L747.0625 202.80624L748.25 200.3375ZM757.6406 214.97812L757.875 216.38437Q757.2031 216.525 756.6719 216.525Q755.8125 216.525 755.3281 216.25937Q754.8594 215.97812 754.6719 215.54062Q754.4844 215.0875 754.4844 213.66562L754.4844 208.29062L753.3125 208.29062L753.3125 207.07187L754.4844 207.07187L754.4844 204.75937L756.0469 203.80624L756.0469 207.07187L757.6406 207.07187L757.6406 208.29062L756.0469 208.29062L756.0469 213.75937Q756.0469 214.43124 756.125 214.63437Q756.21875 214.82187 756.40625 214.93124Q756.59375 215.04062 756.9531 215.04062Q757.2031 215.04062 757.6406 214.97812Z" fill-rule="nonzero"/></svg>